<svg width="50" height="50" viewBox="0 0 50 50" fill="none" 
    xmlns="http://www.w3.org/2000/svg">
    <g clip-path="url(#clip0)">
        <path d="M34.5034 0C35.3359 0.202061 36.1603 0.420287 36.9928 0.598101C37.8576 0.783997 38.5446 1.2447 39.167 1.8428C39.2801 1.95595 39.4418 2.06911 39.5873 2.10144C40.3632 2.24692 40.832 2.72378 40.9451 3.45929C41.0987 4.43726 41.2199 5.43141 41.2523 6.42555C41.3654 10.5961 41.422 14.7666 41.5432 18.9372C41.6079 21.1275 41.7938 23.3179 41.8584 25.5082C41.915 27.3348 41.9797 29.1776 41.8342 30.9881C41.7049 32.548 41.3977 34.1079 40.7996 35.5709C40.4117 36.5246 39.8702 37.3571 38.9245 37.9148C38.1001 38.3916 37.3808 39.0463 36.4109 39.2241C35.7885 39.3373 35.1581 39.3938 34.5357 39.507C33.5739 39.6929 32.6283 39.9435 31.6584 40.1051C30.8421 40.2425 30.0015 40.2991 29.1771 40.3557C27.6333 40.4607 26.0896 40.5658 24.5458 40.6305C22.6869 40.7032 20.8279 40.7921 18.977 40.7517C16.8513 40.7032 14.7337 40.4931 12.6161 40.3961C11.3391 40.3314 10.054 40.3799 8.77698 40.3153C7.28981 40.2344 5.80264 40.0566 4.39629 39.5232C4.3478 39.507 4.2993 39.4828 4.24273 39.4747C2.26253 39.111 1.45428 37.6723 1.04208 35.9103C0.5248 33.6957 0.355069 31.4569 0.363151 29.1857C0.371234 27.4803 0.19342 25.7749 0.104513 24.0695C0.088348 23.6897 0.0721831 23.3179 0.0641007 22.938C0.0398533 21.4185 -0.0167238 19.899 -0.000558894 18.3795C0.015606 16.8762 0.088348 15.3647 0.144925 13.8614C0.217667 12.0833 0.266162 10.3051 0.395481 8.53506C0.5248 6.82967 0.937005 5.19701 1.93115 3.75834C2.8283 2.45706 3.98409 1.60841 5.62483 1.55991C5.68949 1.55991 5.77839 1.57608 5.82689 1.53567C6.62705 0.986059 7.54037 1.20428 8.41327 1.16387C9.6903 1.1073 10.9673 1.01839 12.2363 0.986059C12.9556 0.969894 13.6911 1.11538 14.4104 1.09113C15.7117 1.03455 17.013 0.913317 18.3062 0.800162C19.9631 0.654678 21.62 0.468782 23.285 0.339463C24.9338 0.218226 26.5907 0.161649 28.2395 0.0646596C28.385 0.0565771 28.5305 0.0242473 28.676 0C29.3468 0 30.0257 0 30.6966 0C31.3998 0 32.0948 0 32.798 0C33.3719 0 33.9376 0 34.5034 0ZM21.2563 37.7289C23.6164 37.6157 25.9845 37.5106 28.3446 37.3894C29.1932 37.349 30.0419 37.3167 30.8744 37.1873C31.9736 37.0176 33.0486 36.7186 34.1478 36.5246C35.2147 36.3387 36.2896 36.2336 37.1625 35.4415C37.5667 35.0778 37.9385 34.7222 38.0597 34.1968C38.3426 33.0249 38.6901 31.8529 38.8275 30.6567C38.973 29.3797 38.973 28.0703 38.9245 26.7852C38.8437 24.7565 38.6174 22.7359 38.5527 20.6992C38.4234 16.7953 38.3749 12.8996 38.2779 8.99576C38.2698 8.77754 38.1405 8.55931 38.0354 8.35725C37.8657 8.00971 37.6313 7.68641 37.5101 7.33078C37.2999 6.71651 37.4697 6.11033 37.6313 5.51223C37.6798 5.31825 37.6798 5.03537 37.5747 4.88988C37.0656 4.17863 36.4836 3.55628 35.5137 3.53203C35.4491 3.53203 35.3844 3.4997 35.3197 3.46737C34.7378 3.16832 34.1074 3.16024 33.4689 3.16832C32.2888 3.18448 31.1007 3.14407 29.9207 3.18448C27.4474 3.27339 24.9742 3.38655 22.501 3.53203C21.2159 3.61285 19.9388 3.81492 18.6537 3.91999C17.3444 4.03314 16.0269 4.1463 14.7176 4.17863C13.8851 4.20287 13.0526 4.05739 12.2201 4.02506C11.3876 3.99273 10.547 4.08164 9.72263 3.98465C8.34053 3.83108 7.01501 4.07355 5.71373 4.46959C5.34194 4.58275 4.96206 4.84139 4.69534 5.13235C3.78203 6.14266 3.50722 7.39544 3.41832 8.66438C3.25667 11.0406 3.13543 13.4169 3.08694 15.8012C3.03036 18.1936 3.07885 20.5941 3.08694 22.9865C3.08694 23.2855 3.09502 23.5765 3.11118 23.8756C3.20817 26.0659 3.35366 28.2562 3.38599 30.4466C3.41023 32.1116 3.67696 33.7361 4.00834 35.3607C4.13765 36.0154 4.41246 36.5973 5.2207 36.6458C5.28536 36.6458 5.35002 36.6943 5.41468 36.7105C6.44924 36.9206 7.47571 37.2116 8.52642 37.3167C9.73879 37.4298 10.9754 37.3652 12.1959 37.4056C12.9879 37.4298 13.7881 37.4217 14.5721 37.543C16.7867 37.8663 19.0174 37.7774 21.2563 37.7289Z" fill="#202023"/>
        <path d="M45.9643 33.5824C45.9643 32.7742 45.94 31.9659 45.9724 31.1577C46.0774 28.3773 46.2067 25.5889 46.3199 22.8085C46.4169 20.5777 46.53 18.347 46.5947 16.1082C46.6432 14.4432 46.6998 12.7701 46.5947 11.1051C46.5462 10.2726 46.1825 9.44821 45.8754 8.64805C45.746 8.30859 45.3742 8.13077 44.9459 8.13077C44.5337 8.13077 44.1053 8.12269 43.7254 8.00146C43.2001 7.82364 42.9253 7.38719 42.9091 6.82142C42.8929 6.2314 43.1597 5.77878 43.6931 5.56864C44.7519 5.14835 45.7784 5.08369 46.8695 5.65755C48.7123 6.63552 49.4236 8.30051 49.7711 10.1595C50.1025 11.9619 49.9974 13.8047 49.9004 15.6394C49.8277 17.1427 49.7873 18.6541 49.7145 20.1575C49.5771 22.9297 49.4316 25.6939 49.2862 28.4662C49.2619 28.8865 49.2619 29.2987 49.2619 29.719C49.2538 31.384 49.2296 33.057 49.2377 34.722C49.2457 36.0799 49.3185 37.4377 49.2862 38.7956C49.2457 40.4606 48.8012 42.0609 47.7667 43.346C46.522 44.8897 44.8489 45.8677 42.8606 46.2153C42.804 46.2234 42.7475 46.2153 42.699 46.2395C41.1148 46.878 39.4337 46.8376 37.7768 47.0154C36.3219 47.169 34.8752 47.3872 33.4122 47.5327C32.2645 47.6459 31.1087 47.7186 29.9529 47.7833C28.4092 47.8722 26.8574 47.8964 25.3217 48.0096C22.8808 48.1955 20.448 48.4218 18.0071 48.64C16.6411 48.7612 15.2914 48.5592 13.9497 48.3733C12.7939 48.2116 11.6462 47.9934 10.5066 47.759C9.52859 47.557 8.80926 46.9669 8.3728 46.0617C8.01718 45.3424 7.81511 44.5745 7.83936 43.7663C7.86361 42.9015 8.46979 42.2306 9.27804 42.1175C10.0216 42.0124 10.749 42.5297 10.9996 43.346C11.0238 43.4349 11.0723 43.5238 11.0804 43.6127C11.1532 44.3644 11.6624 44.5907 12.309 44.6715C13.7638 44.8493 15.2106 45.0999 16.6735 45.1969C17.5787 45.2615 18.5001 45.1161 19.4134 45.0433C21.1269 44.9059 22.8485 44.7928 24.5539 44.5826C26.7685 44.3078 28.9911 44.3806 31.2057 44.3321C32.0463 44.3078 32.8869 44.1219 33.7274 44.0492C35.5217 43.8875 37.316 43.7097 39.1104 43.6127C40.6056 43.5319 42.012 43.0874 43.4264 42.6671C44.7923 42.2549 45.9643 40.598 45.9804 39.1189C46.0047 37.2761 45.9885 35.4333 45.9885 33.5824C45.9724 33.5824 45.9724 33.5824 45.9643 33.5824Z" fill="#202023"/>
        <path d="M19.0495 19.5919C19.0495 19.1716 19.0657 18.7756 19.0495 18.3796C18.9606 16.2296 18.8636 14.0797 18.7747 11.9217C18.7343 10.976 19.2677 10.2405 20.0922 10.1112C20.8762 9.98189 21.5712 10.4911 21.838 11.3963C21.9026 11.6145 21.9673 11.8409 21.9834 12.0672C22.1047 13.5543 22.2178 15.0415 22.3148 16.5368C22.3795 17.5147 22.428 18.5008 22.4926 19.5596C23.0503 19.5192 23.5919 19.4707 24.1334 19.4384C25.7822 19.3494 27.4391 19.2686 29.096 19.204C29.387 19.1959 29.6941 19.2282 29.9689 19.301C30.761 19.5192 31.2459 20.1819 31.2298 20.9659C31.2136 21.7499 30.6559 22.4369 29.8719 22.6148C29.6375 22.6713 29.3951 22.6875 29.1526 22.7037C26.9865 22.8168 24.8285 22.93 22.6624 23.0431C22.622 23.0431 22.5896 23.0674 22.4765 23.0997C22.4765 23.4392 22.4926 23.8029 22.4765 24.1585C22.3472 26.2034 22.2663 28.2401 22.4846 30.285C22.5088 30.5517 22.4926 30.8265 22.428 31.0852C22.2259 31.8853 21.5227 32.3864 20.7145 32.3218C19.9143 32.2652 19.2677 31.6267 19.1627 30.77C18.9444 28.9756 18.9283 27.1733 19.0253 25.3709C19.0657 24.6354 19.0334 23.8999 19.0334 23.0997C18.9606 23.0997 18.8232 23.0997 18.6858 23.0997C17.0208 23.0512 15.3478 23.0512 13.6828 22.9381C13.1493 22.9057 12.5916 22.6471 12.1067 22.3804C11.4843 22.0409 11.258 21.3377 11.4601 20.7073C11.6622 20.0769 12.2441 19.6243 12.9554 19.7293C14.192 19.9071 15.4286 19.8506 16.6571 19.794C17.4492 19.7536 18.2413 19.6647 19.0495 19.5919Z" fill="#202023"/>
    </g>
    <defs>
        <clipPath id="clip0">
            <rect width="50" height="50" fill="white"/>
        </clipPath>
    </defs>
</svg>
