<svg width="50" height="50" viewBox="0 0 50 50" fill="none" 
    xmlns="http://www.w3.org/2000/svg">
    <g clip-path="url(#clip0)">
        <path d="M31.0828 42.0015C30.9272 41.9719 30.7717 41.9349 30.6161 41.9126C29.9567 41.8163 29.3936 41.5348 28.9269 41.068C28.8158 40.9569 28.7046 40.831 28.5787 40.7346C27.4674 39.8752 27.3785 38.7121 27.5711 37.46C27.6304 37.0822 27.7341 36.7117 27.7934 36.3339C27.8082 36.2302 27.7489 36.0672 27.6674 35.9931C27.1636 35.5263 26.9488 34.9262 26.934 34.2669C26.9191 33.5778 26.971 32.8888 27.0229 32.1998C27.0377 31.9702 26.9784 31.8813 26.7636 31.7998C25.7041 31.4071 25.2077 30.7329 25.23 29.6142C25.2448 28.9548 25.3263 28.288 25.4522 27.6435C25.6004 26.9026 26.0079 26.3025 26.6672 25.9024C26.8302 25.7987 26.8525 25.7024 26.8154 25.5098C26.5561 24.1984 26.771 22.9686 27.6081 21.9092C28.2008 21.1535 29.0306 20.8201 29.9937 20.7386C31.3273 20.62 32.6535 20.4422 33.987 20.3015C34.3204 20.2644 34.6538 20.2867 34.9872 20.2792C35.0983 20.2792 35.2095 20.2867 35.3206 20.2792C36.0022 20.2348 36.1133 20.0199 35.7429 19.4717C35.6095 19.2791 35.4688 19.0865 35.2909 18.9309C34.6686 18.3752 34.2463 17.6788 33.9278 16.9305C33.8018 16.6416 33.7351 16.2786 33.7648 15.9674C33.9203 14.3597 35.5873 12.8557 37.2098 12.7817C38.373 12.7298 39.4769 12.8854 40.4918 13.4781C41.5513 14.1004 42.4033 14.945 43.033 16.0044C43.4331 16.6786 43.8183 17.375 44.2629 18.027C44.4407 18.2863 44.7222 18.5086 45.0037 18.6567C46.078 19.2346 45.9162 19.1828 47.1016 19.368C47.7313 19.4643 48.3759 19.5013 49.013 19.5902C49.6279 19.6717 50.028 20.1607 49.9984 20.7386C49.9613 21.3165 49.5168 21.7906 48.8871 21.7462C47.8054 21.6721 48.0931 21.6869 47.0115 21.5684C45.9669 21.4572 45.0111 21.0868 44.0554 20.6793C43.0404 20.2496 42.4922 19.405 41.9662 18.516C41.5217 17.7677 41.1068 16.9824 40.5585 16.3082C39.7584 15.3154 38.6841 14.8116 37.3654 14.9376C36.832 14.9894 36.4467 15.2932 36.1504 15.6933C35.9059 16.0267 36.0615 16.4934 36.4689 16.9824C36.9209 17.5158 37.4024 18.0344 37.7803 18.6271C38.6693 20.0348 38.0988 21.635 36.5282 22.1759C36.1207 22.3166 35.6688 22.3685 35.2317 22.4055C34.35 22.4796 33.461 22.5315 32.5794 22.5685C32.1867 22.5834 31.7792 22.4722 31.4088 22.5463C30.705 22.6797 29.9419 22.7241 29.3788 23.2057C28.875 23.6354 28.8306 24.3022 28.9121 24.9245C28.9343 25.0875 29.1862 25.2505 29.364 25.3542C29.8456 25.6431 30.1123 26.0728 30.0382 26.5248C29.9567 27.0137 29.5937 27.3768 29.0825 27.4805C28.8009 27.5324 28.5268 27.5842 28.2453 27.6361C27.8971 27.7028 27.6452 27.8954 27.5859 28.251C27.5118 28.6511 27.46 29.0511 27.4526 29.4586C27.4526 29.5772 27.6007 29.7772 27.7193 29.8068C28.0749 29.9031 28.4379 29.9624 28.8084 29.9846C29.4603 30.0217 29.8826 30.2884 30.0308 30.807C30.1716 31.3034 29.9715 31.7553 29.4529 32.1257C29.3714 32.185 29.2677 32.2739 29.2603 32.3628C29.201 32.9037 29.1566 33.4445 29.1269 33.9853C29.1047 34.3484 29.2899 34.5262 29.6678 34.5113C29.8382 34.5039 30.0086 34.541 30.179 34.578C30.6605 34.6817 30.9643 34.9781 31.0606 35.4671C31.1495 35.9412 30.9791 36.4154 30.5642 36.5635C29.8308 36.8229 29.8382 37.4081 29.7493 37.9786C29.6159 38.838 30.3049 39.7715 31.1791 39.7641C32.1571 39.7493 33.1424 39.7863 34.0759 39.3344C34.5204 39.1195 35.0539 39.0899 35.528 38.9343C36.7949 38.5046 38.0618 38.0453 39.3287 37.6008C40.4103 37.2229 41.5216 37.0081 42.6626 37.0229C44.4629 37.0525 43.8406 37.134 45.6335 37.2155C46.1002 37.2377 46.5596 37.3415 47.0115 37.46C47.6486 37.6304 47.9894 38.2009 47.8487 38.7862C47.7153 39.3566 47.1745 39.7122 46.5447 39.6011C44.4333 39.2233 44.7222 39.1714 42.5885 39.201C41.4698 39.2159 40.4103 39.5344 39.3583 39.9049C37.9803 40.3938 36.5726 40.8087 35.1798 41.2532C35.1576 41.2607 35.128 41.2533 35.1057 41.2681C34.0389 41.9052 32.8313 41.8385 31.6607 41.9645C31.6237 41.9719 31.594 41.9867 31.557 42.0015C31.3792 42.0015 31.231 42.0015 31.0828 42.0015Z" fill="#202023"/>
        <path d="M26.0999 6.79999C26.826 7.05188 26.9149 7.68903 26.9815 8.31877C27.1223 9.51157 27.0853 10.7044 26.9075 11.8898C26.8852 12.0453 26.8334 12.2009 26.7741 12.3491C26.5741 12.8158 26.1444 13.0529 25.6776 12.9714C25.2035 12.8899 24.833 12.4973 24.8404 11.9861C24.8478 11.549 24.9516 11.1044 24.9664 10.6673C24.996 9.97832 24.9812 9.28931 24.9886 8.6003C24.9886 8.41508 24.9738 8.22987 24.9812 8.04465C25.0182 7.44454 25.2331 6.97039 25.8702 6.79999C25.9517 6.79999 26.0258 6.79999 26.0999 6.79999Z" fill="#202023"/>
        <path d="M22.417 32.6664C22.8615 33.3924 23.1357 34.1629 23.2023 34.9779C23.2987 36.104 22.7726 36.956 21.8021 37.5117C21.4687 37.7043 21.3576 37.8599 21.402 38.2896C21.5576 39.7417 21.0909 40.9567 19.8832 41.8828C19.009 42.5496 18.0237 42.8237 16.979 42.9422C16.0233 43.0534 15.0824 43.2164 14.1119 43.046C12.193 42.7126 11.8411 42.6607 9.91488 42.3718C8.70727 42.1866 7.49965 42.0236 6.29203 41.8828C5.23259 41.7569 4.21019 41.9717 3.18038 42.2014C2.79513 42.2829 2.37284 42.3051 1.98018 42.2532C1.47639 42.194 1.12818 41.8161 1.07632 41.4012C1.01705 41.0012 1.24672 40.5789 1.70606 40.364C2.52842 39.9639 3.39524 39.6898 4.31391 39.5787C6.01791 39.3713 7.68487 39.6009 9.35182 39.8973C10.878 40.1714 10.8521 40.1269 12.3782 40.3862C12.9191 40.4826 13.4599 40.6307 13.9859 40.8011C14.7416 41.0456 15.4899 41.016 16.253 40.8826C16.6975 40.8011 17.1717 40.7937 17.6014 40.6604C18.0014 40.5344 18.3645 40.2973 18.7275 40.0825C19.2239 39.7935 19.2906 39.2749 19.3572 38.7711C19.3943 38.5044 19.2906 38.3711 18.9794 38.3711C18.3126 38.3785 17.8607 38.0006 17.8088 37.4376C17.757 36.8671 18.12 36.393 18.7497 36.2522C19.1202 36.1707 19.5128 36.1781 19.8758 36.0596C20.2537 35.9336 20.6019 35.7262 20.9501 35.5261C21.0316 35.4743 21.1131 35.2965 21.0909 35.2002C20.9946 34.8001 20.8908 34.3926 20.7204 34.0148C20.676 33.9185 20.4019 33.8814 20.2389 33.8888C19.8832 33.9036 19.535 34 19.1794 34.0074C18.5571 34.0148 18.0903 33.5851 18.0385 33.0146C17.9866 32.4589 18.4089 31.9552 19.0238 31.8663C19.7869 31.7551 20.4537 31.4291 21.0686 30.9772C21.4465 30.6957 21.5724 30.3252 21.4391 29.9844C21.1205 29.1991 20.8464 28.962 20.2759 29.0361C19.9499 29.0806 19.6314 29.1769 19.3128 29.2436C19.0164 29.3103 18.7127 29.3992 18.4089 29.4214C17.8829 29.451 17.4236 29.1176 17.305 28.6657C17.1717 28.1471 17.3865 27.6359 17.8755 27.384C18.3422 27.1395 18.8164 26.9024 19.2906 26.6802C19.8314 26.4283 19.9573 26.0875 19.6536 25.554C19.3498 25.0132 18.8979 24.6576 18.2459 24.7095C17.5717 24.7613 16.905 24.865 16.2382 24.9465C15.1565 25.0725 14.0748 25.317 12.9709 25.0725C12.0671 24.8724 11.5633 24.2575 11.504 23.3314C11.4077 21.8645 12.0745 20.8125 13.2747 20.0716C13.7711 19.7605 14.3341 19.553 14.8676 19.3085C15.1121 19.1974 15.3714 19.1085 15.6084 18.9825C16.053 18.7306 16.2752 18.1528 16.127 17.6712C16.0974 17.5897 16.0307 17.4786 15.9566 17.4489C14.8453 17.0341 13.7489 16.5821 12.519 16.9377C11.4966 17.2341 10.7261 17.8564 10.126 18.701C9.51849 19.5604 9.13324 20.531 8.82207 21.5459C8.422 22.8276 7.87376 24.0575 6.99953 25.1095C6.36239 25.88 5.48816 26.2134 4.56208 26.3838C3.43595 26.5913 2.29502 26.4431 1.1689 26.3023C0.931818 26.2727 0.69474 26.1764 0.472479 26.0652C0.102044 25.88 -0.0609469 25.5466 0.0205487 25.1836C0.0946356 24.8576 0.390983 24.6206 0.798461 24.6206C1.4282 24.6206 2.05794 24.6502 2.68768 24.6502C3.45077 24.6428 4.20646 24.6428 4.93251 24.2946C5.31035 24.1168 5.57707 23.8575 5.79933 23.5241C6.47352 22.5165 6.83654 21.383 7.2218 20.2494C7.85153 18.3973 8.80725 16.7673 10.5557 15.7375C12.03 14.8633 13.5859 14.6336 15.2306 15.1893C15.6233 15.3226 16.0233 15.456 16.4234 15.5745C18.2682 16.1228 18.4163 17.9824 17.994 19.1381C17.6162 20.1605 16.8531 20.7754 15.8529 21.1459C15.3565 21.3311 14.8676 21.5385 14.4082 21.7978C14.0156 22.0201 13.6377 22.2942 13.5636 22.8128C13.534 23.0351 13.6007 23.1536 13.8303 23.1314C14.5194 23.0647 15.2158 23.0499 15.8826 22.9091C17.0457 22.6647 18.2089 22.5017 19.3572 22.8425C21.0835 23.3611 22.1207 25.1095 21.8169 26.9321C21.7799 27.1395 21.8243 27.2506 21.9947 27.347C23.0394 27.9396 23.9432 29.6955 23.4987 31.1476C23.3653 31.5699 23.1801 31.8737 22.417 32.6664Z" fill="#202023"/>
        <path d="M29.2418 16.9767C28.4861 16.9693 28.049 16.4433 28.1379 15.8432C28.1675 15.6135 28.2342 15.3764 28.3379 15.1764C28.8343 14.2281 29.1084 13.2131 29.3677 12.1833C29.5085 11.6202 29.7307 11.0572 30.0123 10.546C30.1678 10.2644 30.5086 10.0348 30.8198 9.91622C31.2569 9.75323 31.7237 10.094 31.7977 10.5608C31.8274 10.7238 31.8422 10.9164 31.7903 11.072C31.1902 12.776 31.005 14.6133 30.0938 16.2136C29.8715 16.6285 29.6048 16.9693 29.2418 16.9767Z" fill="#202023"/>
        <path d="M18.7971 11.8024C18.849 11.4245 18.9453 11.1134 19.3157 10.98C19.6713 10.8541 19.9529 11.0022 20.1455 11.2912C20.879 12.4025 21.6198 13.499 22.3014 14.6399C22.5089 14.9881 22.5607 15.4475 22.583 15.8623C22.6052 16.2402 22.3237 16.4995 21.968 16.5958C21.5976 16.6921 21.2568 16.6106 20.9975 16.3069C20.9605 16.2624 20.916 16.2105 20.8864 16.1587C20.3233 15.1363 19.7454 14.1213 19.2194 13.0841C19.012 12.6988 18.9305 12.2395 18.7971 11.8024Z" fill="#202023"/>
    </g>
    <defs>
        <clipPath id="clip0">
            <rect width="50" height="50" fill="white"/>
        </clipPath>
    </defs>
</svg>
