<svg width="50" height="50" viewBox="0 0 50 50" fill="none" 
    xmlns="http://www.w3.org/2000/svg">
    <path d="M29.2654 42.4847C30.7385 43.6284 32.2481 44.7812 33.7303 45.9615C34.2702 46.4007 34.7734 46.8947 35.24 47.4162C35.7432 47.9835 35.7066 48.7155 35.2308 49.1455C34.7734 49.5572 34.0872 49.4932 33.529 49.0174C32.2664 47.9469 30.9855 46.8856 29.7137 45.8242C28.936 45.1746 28.14 44.5342 27.3715 43.8571C27.1519 43.665 27.0329 43.3722 26.8317 43.0794C25.5965 43.2898 24.2881 43.4728 23.0895 44.1316C22.568 44.4152 21.955 44.5433 21.3694 44.6989C19.6677 45.1563 17.9659 45.3576 16.2549 44.7629C15.8432 44.6165 15.4223 44.4427 15.0655 44.1956C14.4616 43.7839 13.9035 43.3081 13.3362 42.8507C12.769 42.3932 12.22 41.9083 11.607 41.3959C11.1221 41.7344 10.3444 41.89 9.58496 41.6521C8.42299 41.2953 7.30675 40.7829 6.52905 39.7765C5.98009 39.0628 6.15392 38.2302 6.24542 37.4342C6.30947 36.8029 6.47415 36.1899 6.5931 35.5494C4.21424 34.3783 3.281 32.4569 3.71102 29.8402C1.71645 29.3095 0.462973 28.1018 0.0786965 26.1163C-0.113442 25.1099 0.0420988 24.1035 0.591065 23.2068C1.13088 22.3285 1.91773 21.7155 2.84183 21.2488C1.6524 20.0594 1.6707 18.6779 1.98178 17.1865C2.35691 15.3475 3.42739 14.1123 5.09259 13.2888C5.0011 12.8497 4.9279 12.4105 4.81811 11.9896C4.52532 10.8276 4.52532 9.64735 4.76321 8.50367C5.07429 7.03061 5.85199 5.83203 7.27016 5.15498C7.82827 4.88964 8.40469 4.66091 8.77981 4.10279C8.91706 3.9015 9.21899 3.78256 9.46602 3.68192C10.198 3.39828 10.9299 3.09635 11.6893 2.87677C14.3518 2.12651 16.9869 1.29391 19.7408 0.918785C21.2414 0.717497 22.7144 0.543658 24.2332 0.616854C26.3467 0.717498 28.0668 1.41286 29.0001 3.45318C30.4091 3.1604 31.7724 3.34339 33.099 3.85576C34.9015 4.55111 35.9537 5.79544 36.1366 7.79916C36.2464 9.04349 36.1275 10.2604 36.0726 11.4864C35.972 13.5084 36.283 15.4755 37.079 17.3329C37.3627 18.0008 37.9482 18.5864 38.5063 19.0804C40.812 21.1391 42.8157 23.4722 44.8561 25.7687C46.3657 27.4613 47.8937 29.1357 49.4308 30.81C49.7602 31.1668 50.0255 31.5511 49.998 32.0635C49.9523 32.8869 49.138 33.4542 48.3694 33.1523C48.0035 33.0059 47.6558 32.7497 47.3722 32.4661C46.3932 31.4871 45.4142 30.4989 44.4809 29.4742C43.8222 28.7514 43.2549 27.9554 42.6144 27.2234C40.6656 24.9818 38.7076 22.7402 36.4477 20.8005C34.9015 19.4647 34.2153 17.7263 33.8218 15.8141C33.4742 14.1397 33.2729 12.4379 33.4559 10.727C33.5656 9.6931 33.5382 8.66836 33.465 7.63447C33.4101 6.89337 33.0075 6.54569 32.4586 6.25291C31.7266 5.85948 30.9123 5.80459 30.1163 5.73139C29.7686 5.70394 29.5673 5.85948 29.6588 6.26206C29.9699 7.59788 30.2353 8.94284 30.5738 10.2604C31.0496 12.1177 31.5436 13.9659 32.0926 15.8049C32.5684 17.4244 33.218 18.9889 33.6297 20.6267C34.2336 23.0787 34.6727 25.5674 35.2217 28.0286C35.6609 29.9957 35.9262 31.9811 36.1458 33.9757C36.3288 35.6135 36.1641 37.1597 35.3223 38.6053C35.1668 38.8798 35.0845 39.2 34.9289 39.4745C34.7642 39.7673 34.6178 40.1058 34.3616 40.2888C33.2912 41.0391 32.2207 41.7893 30.8849 42.0364C30.3176 42.137 29.7595 42.3475 29.2654 42.4847ZM33.3461 34.8632C33.2454 33.9574 33.1814 33.0425 33.0258 32.1458C32.6324 29.8676 32.239 27.5894 31.7632 25.3295C31.3149 23.1885 30.7934 21.0659 30.2444 18.9432C30.0157 18.0465 29.6314 17.1956 29.3386 16.3173C28.7073 14.4234 28.1949 12.502 27.8838 10.5257C27.6277 8.92455 27.2708 7.33254 26.9506 5.74054C26.8866 5.44776 26.7859 5.15498 26.6944 4.87134C26.3467 3.81001 25.569 3.39828 24.5077 3.48063C23.2634 3.56297 22.0191 3.68192 20.7839 3.80086C18.3318 4.03875 16.0079 4.83475 13.6382 5.45691C12.7598 5.68564 11.9272 6.07907 11.0946 6.4542C10.2163 6.84762 9.34708 7.2868 8.49618 7.74427C7.96551 8.0279 7.67273 8.54942 7.59954 9.11668C7.51719 9.79374 7.47144 10.4983 7.59954 11.157C8.33149 14.8442 9.10919 18.5132 9.9052 22.1821C10.3993 24.442 10.9482 26.6836 11.488 28.9344C12.2749 32.1733 13.0984 35.3939 13.8669 38.6328C14.2878 40.4078 15.7791 41.1214 17.0875 42.0272C17.1607 42.073 17.2613 42.0913 17.3437 42.1096C18.1397 42.2651 18.9174 42.3017 19.7317 42.1187C20.793 41.8808 21.8361 41.6704 22.7693 41.094C22.9065 41.0116 23.0804 40.975 23.2451 40.9384C24.1326 40.7372 25.0292 40.5633 25.9076 40.3437C27.4081 39.9777 28.8994 39.5752 30.4091 39.2C31.1776 39.0171 31.9645 38.6877 32.3305 38.0747C32.9252 37.114 33.5565 36.0984 33.3461 34.8632ZM6.99567 22.6304C6.44671 22.7585 5.86114 22.8134 5.34877 23.033C4.77236 23.28 4.25999 23.6826 3.72017 24.0303C3.06141 24.442 2.73203 25.0733 2.86013 25.6589C3.03397 26.4549 3.62868 26.9672 4.41553 27.1228C5.6873 27.3698 6.84013 26.9947 8.03871 26.583C7.70018 25.2929 7.36165 24.0394 6.99567 22.6304ZM8.61512 29.4467C8.24 29.5565 7.89232 29.6755 7.53549 29.7578C6.28202 30.0415 6.21797 31.1668 6.68459 32.0452C7.28846 33.1889 8.39554 33.0608 9.45687 33.0608C9.17324 31.8347 8.89876 30.6545 8.61512 29.4467ZM5.6873 16.0886C5.57751 16.1709 5.51346 16.2075 5.45857 16.2533C4.73576 16.8937 4.64427 17.7721 4.55277 18.6504C4.53447 18.7876 4.55277 18.9981 4.64427 19.0804C5.19323 19.5379 5.7971 19.8856 6.5931 19.8673C6.28202 18.6047 5.98924 17.3786 5.6873 16.0886ZM10.9757 38.9164C10.692 37.9008 10.4176 36.9127 10.1065 35.8056C9.7954 36.0984 9.44772 36.2722 9.34708 36.5467C9.16409 37.0133 9.11834 37.544 9.036 38.0472C9.0177 38.1387 9.036 38.3125 9.0909 38.34C9.66731 38.6145 10.1888 39.1177 10.9757 38.9164Z" fill="#202023"/>
    <path d="M19.1827 17.1224C19.4206 16.61 19.6219 16.1159 19.8781 15.6585C21.0492 13.5267 23.4647 12.9777 25.4592 14.0573C26.8408 14.8076 27.4447 16.0702 27.5087 17.6439C27.6094 19.8123 27.1427 21.8618 26.2003 23.774C25.6056 24.9817 24.8371 26.1071 24.1234 27.2508C23.7208 27.8821 23.1993 28.3487 22.3576 28.2115C22.2295 28.1932 22.0648 28.2755 21.9367 28.3396C21.4335 28.5866 20.9303 28.6324 20.3904 28.4219C18.9357 27.8364 17.4809 27.2691 16.0262 26.6927C15.8432 26.6195 15.6602 26.5371 15.4681 26.5005C13.7846 26.1895 12.7598 25.1373 12.2017 23.5819C11.7168 22.2186 11.4514 20.8005 11.7808 19.364C12.0462 18.2112 12.5585 17.1407 13.7297 16.5826C14.1048 16.4087 14.5165 16.2349 14.9282 16.1983C16.4379 16.0427 17.8835 16.244 19.1827 17.1224ZM21.7812 25.8967C22.2935 25.1556 22.8882 24.4328 23.3183 23.6185C23.7757 22.7676 24.1326 21.8526 24.4345 20.9285C24.8096 19.8123 24.9377 18.6503 24.8462 17.4609C24.8005 16.8479 24.5168 16.4362 23.9679 16.18C23.4372 15.933 22.8882 15.933 22.4857 16.3721C22.1288 16.7564 21.8361 17.2139 21.6073 17.6805C21.2322 18.449 20.9486 19.2633 20.61 20.0593C20.3081 20.7639 19.5121 20.9651 18.8899 20.5077C18.6338 20.3155 18.3776 20.1051 18.1946 19.8489C17.6548 19.0804 16.8496 18.9614 16.017 18.9157C15.1478 18.8699 14.6995 19.181 14.5531 20.2423C14.425 21.1847 14.6538 22.118 15.0563 22.9963C15.2393 23.3989 15.5504 23.6276 15.9804 23.7283C16.3647 23.8198 16.7398 23.9479 17.1058 24.0851C18.6704 24.6707 20.2075 25.2837 21.7812 25.8967Z" fill="#202023"/>
</svg>
