<svg width="50" height="50" viewBox="0 0 50 50" fill="none" xmlns="http://www.w3.org/2000/svg">
<path d="M26.096 36.2883C25.4918 36.8746 24.8694 37.4518 24.2832 38.0561C23.6879 38.6694 23.1197 39.3098 22.5424 39.9412C21.1896 41.4293 19.8367 42.9175 18.4838 44.4057C17.663 45.3076 16.8332 46.1825 16.0305 47.1025C15.4353 47.7789 14.9031 48.5095 14.3349 49.204C13.9922 49.6188 13.5773 49.9345 13.0181 49.9886C11.9087 50.1059 10.9797 49.3032 11.0158 48.1848C11.0429 47.337 11.1872 46.4801 11.2864 45.6323C11.5209 43.621 11.7373 41.6097 11.9989 39.5984C12.3236 37.082 12.8738 34.6108 13.7667 32.2297C13.8659 31.9771 13.929 31.7156 14.0012 31.454C14.1545 30.8497 14.1455 30.8587 13.5592 30.6062C11.3585 29.6501 9.10371 28.8204 7.00222 27.6479C4.96386 26.5114 3.00668 25.2668 1.13968 23.8778C0.409121 23.3366 0.0303106 22.6241 0.273831 21.6771C0.499314 20.8383 1.10361 20.4144 1.8973 20.234C3.91762 19.774 5.92892 19.314 7.94924 18.8811C9.21194 18.6105 10.4566 18.3129 11.6832 17.916C12.8287 17.5463 14.0463 17.3659 15.2368 17.1674C16.3913 16.978 16.3642 17.0051 16.6258 15.8957C17.3834 12.73 18.1681 9.58223 18.9257 6.41646C19.1512 5.46944 19.3135 4.50437 19.5841 3.57539C19.7194 3.10638 20.008 2.6915 20.2245 2.24955C20.2876 2.10524 20.3598 1.95191 20.3688 1.79859C20.4229 0.923715 20.8649 0.301385 21.6405 0.0759024C22.4162 -0.14958 23.2279 0.130018 23.6608 0.878619C24.3734 2.09622 25.0228 3.34088 25.6992 4.58555C26.6011 6.24509 27.5031 7.90464 28.396 9.57321C29.2077 11.0885 30.299 12.4504 30.9394 14.0738C31.0927 14.4617 31.3363 14.8134 31.5798 15.1561C31.6519 15.2554 31.8504 15.3185 31.9947 15.3185C34.7726 15.2103 37.5505 15.1201 40.3285 14.9667C41.6724 14.8856 43.0072 14.624 44.3511 14.5338C45.5867 14.4526 46.8404 14.4346 48.076 14.4797C48.7976 14.5068 49.3297 14.9667 49.5913 15.6612C49.8528 16.3828 49.6905 17.0502 49.1584 17.5733C48.5541 18.1596 47.8776 18.6646 47.2643 19.2419C45.4424 20.9195 43.6566 22.6422 41.7986 24.2837C40.7704 25.1946 39.643 25.9973 38.5517 26.8451C38.0646 27.224 37.5596 27.5667 37.0815 27.9635C36.9823 28.0447 36.9372 28.2702 36.9733 28.4055C37.1717 29.0909 37.3972 29.7764 37.6407 30.4529C37.7941 30.8858 38.0105 31.3007 38.1819 31.7336C38.5427 32.6536 38.9125 33.5645 39.2462 34.5025C39.8775 36.2974 40.5269 38.0832 41.0861 39.9051C41.5822 41.5376 41.988 43.1971 42.3578 44.8657C42.6374 46.1013 41.979 47.1205 40.8606 47.355C40.2293 47.4903 39.6701 47.2738 39.174 46.904C38.4074 46.3448 37.6588 45.7676 36.9012 45.1994C36.2878 44.7484 35.6294 44.3426 35.0432 43.8465C33.8436 42.8273 32.7072 41.736 31.5076 40.7168C30.1908 39.5984 28.8289 38.5432 27.485 37.4518C27.0341 37.082 26.6011 36.7122 26.096 36.2883ZM6.63243 23.1112C7.36299 23.5351 7.95826 23.9049 8.58059 24.2296C9.63585 24.7707 10.6911 25.3028 11.7644 25.7989C13.451 26.5746 15.1647 27.2961 16.8423 28.0898C17.8795 28.5768 18.2673 29.4337 18.0418 30.5431C17.8614 31.436 17.672 32.3379 17.3834 33.2037C16.716 35.2421 15.9944 37.2534 15.7148 39.4C15.5796 40.4011 15.3902 41.4023 15.2278 42.3944C15.2639 42.4124 15.3 42.4305 15.336 42.4485C15.5345 42.232 15.7329 42.0156 15.9313 41.7991C16.9595 40.6447 17.9787 39.4812 19.0159 38.3357C19.981 37.2714 20.9641 36.2162 21.9562 35.1609C22.2628 34.8362 22.5875 34.5115 22.9483 34.25C23.3181 33.9884 23.6067 33.6998 23.724 33.2488C23.7691 33.0775 23.8683 32.9151 23.9495 32.7618C24.6259 31.5442 25.9247 31.3187 26.989 32.2297C27.963 33.0594 28.9281 33.8892 29.9112 34.6919C31.7331 36.1801 33.5821 37.6412 35.404 39.1474C36.0804 39.7066 36.6937 40.347 37.3341 40.9513C37.3882 40.807 37.3792 40.7258 37.3521 40.6447C36.9012 39.2827 36.4412 37.9208 36.0082 36.5499C35.5663 35.1609 35.0432 33.8171 34.4659 32.4822C33.8617 31.0662 33.4738 29.5599 33.0229 28.0898C32.7613 27.224 33.0409 26.4754 33.7534 25.9252C34.6824 25.2127 35.6565 24.5633 36.5855 23.8598C37.4964 23.1743 38.4074 22.4978 39.2642 21.7492C40.2834 20.8654 41.2484 19.9093 42.2406 18.9984C42.3217 18.9262 42.439 18.8992 42.5472 18.845C41.8708 18.7909 41.3026 18.827 40.7344 18.8541C37.5235 18.9893 34.3126 19.1156 31.1018 19.2599C29.8481 19.314 29.0454 18.7548 28.4771 17.6635C27.7556 16.2655 26.9619 14.9126 26.2043 13.5327C25.14 11.6025 24.0757 9.67242 23.0115 7.7423C22.9303 7.59799 22.8581 7.45368 22.7138 7.19212C22.4974 8.05797 22.317 8.81559 22.1366 9.56419C21.5593 11.9723 20.9911 14.3715 20.4139 16.7796C20.2335 17.5192 20.0621 18.2678 19.8276 18.9893C19.6112 19.6568 19.1332 20.1168 18.4567 20.3152C17.7532 20.5226 17.0407 20.703 16.3282 20.8654C15.1106 21.1269 13.893 21.3344 12.6844 21.623C11.4758 21.9026 10.2852 22.2724 9.08567 22.57C8.31001 22.7594 7.53436 22.9127 6.63243 23.1112Z" fill="#202023"/>
</svg>
