<svg width="50" height="50" viewBox="0 0 50 50" fill="none" 
    xmlns="http://www.w3.org/2000/svg">
    <g clip-path="url(#clip0)">
        <path d="M35.8508 38.437C35.4996 38.4966 35.1617 38.5364 34.8305 38.6225C34.5588 38.6887 34.274 38.7749 34.0354 38.914C33.4127 39.2784 32.7634 39.5103 32.028 39.4838C31.7696 39.4771 31.5046 39.5434 31.2462 39.5964C30.0736 39.8415 28.8876 40.0535 27.7349 40.3583C26.8537 40.5902 26.0123 40.9479 25.1576 41.266C24.2699 41.5906 23.3953 41.9351 22.5009 42.2531C21.8053 42.4982 21.1096 42.7301 20.4007 42.9488C20.1291 43.0349 19.8442 43.068 19.5063 43.1343C19.6852 43.6047 19.8376 44.0618 20.0297 44.5057C20.2351 44.9893 20.4802 45.4664 20.7055 45.9434C21.05 46.6721 20.838 47.3545 20.1357 47.7521C19.6852 48.0038 19.2148 48.1827 18.6914 48.1562C17.9494 48.1231 17.2935 48.3682 16.7237 48.8121C16.0678 49.3222 15.3854 49.4746 14.5573 49.3222C14.0339 49.2295 13.4641 49.3885 12.9208 49.4282C12.6889 49.4481 12.4968 49.5144 12.3179 49.6932C11.9204 50.0841 11.2579 50.1106 10.8405 49.7197C10.602 49.4945 10.4099 49.1897 10.2774 48.885C10.0057 48.249 9.77385 47.5997 9.54859 46.9438C9.36308 46.4071 9.20408 45.8572 9.03844 45.314C8.4488 43.333 7.8724 41.3455 7.27613 39.3579C6.30885 36.1049 5.34819 32.8585 4.55316 29.5592C4.16227 27.9492 3.54613 26.3923 3.08236 24.7956C2.26746 21.96 1.44593 19.1244 0.717154 16.2623C0.366017 14.8777 0.226887 13.44 0.0148792 12.0288C-0.0579983 11.5452 0.140759 11.1476 0.525022 10.8363C1.30017 10.2201 2.23433 9.98823 3.15524 9.72985C4.45378 9.35884 5.75233 8.9812 7.0575 8.62344C7.35564 8.54393 7.6869 8.48431 7.99166 8.51743C8.54155 8.56381 9.03845 9.02758 9.04507 9.57747C9.0517 10.2731 9.33658 10.8495 9.64134 11.4325C10.0124 12.1547 10.3502 12.8901 10.7146 13.6586C10.8273 13.6255 11.0128 13.5857 11.1784 13.5062C12.2914 13.0093 13.3978 12.4727 14.5241 12.0089C15.4583 11.6247 16.4587 11.3862 17.3664 10.9555C19.0889 10.1472 20.9374 9.69672 22.6931 8.99445C23.7796 8.56381 24.886 8.19279 25.9792 7.78866C26.5224 7.5899 27.0657 7.37789 27.6222 7.16588C27.4367 6.52324 27.2578 5.88721 27.0657 5.26444C26.6417 3.89302 27.185 3.08474 28.5829 2.71373C29.7357 2.40897 30.8686 1.97833 31.9617 1.50131C33.2603 0.944791 34.5787 0.461149 35.9369 0.0702608C36.8512 -0.194749 37.6197 0.308769 37.7655 1.2628C37.8383 1.76632 38.004 2.21684 38.3153 2.62098C38.8387 3.29675 39.1501 4.05203 39.329 4.89343C39.4416 5.44995 39.7066 5.97334 39.8723 6.52324C40.0512 7.11951 40.1969 7.72903 40.3625 8.33193C40.5679 9.0872 40.7667 9.83585 40.9787 10.5911C41.5816 12.7311 42.1845 14.871 42.8006 16.9977C43.2511 18.5414 43.7745 20.0586 44.1853 21.6155C44.7816 23.8482 45.3248 26.0942 45.8482 28.3468C46.0271 29.1352 46.1 29.9567 46.1596 30.7716C46.2126 31.5666 46.365 32.3418 46.7095 33.0374C47.2925 34.23 47.5178 35.5285 47.9551 36.7608C48.2134 37.4829 48.4652 38.2117 48.717 38.9405C48.7898 39.1459 48.8627 39.3579 48.9025 39.5699C49.035 40.3119 48.6375 40.9612 47.8954 41.1136C47.3058 41.2328 46.6963 41.3388 46.1 41.319C45.2122 41.2925 44.4106 41.5508 43.6023 41.8689C43.1783 42.0345 42.7277 42.1405 42.2905 42.273C42.052 42.3459 41.8068 42.432 41.5683 42.5049C40.9257 42.7036 40.2897 42.9024 39.647 43.1078C38.9381 43.3264 38.4081 43.1608 37.9576 42.5579C37.8383 42.3989 37.7257 42.2332 37.6396 42.0544C37.03 40.8552 36.447 39.6494 35.8508 38.437ZM17.7771 45.6982C17.5055 44.7243 17.214 43.7769 16.9887 42.8163C16.79 41.9947 17.1212 41.4117 17.9163 41.1202C18.4794 40.9082 19.069 40.7757 19.6454 40.5902C20.3543 40.3649 21.0699 40.133 21.7721 39.8813C22.6003 39.5831 23.4086 39.2519 24.2367 38.9537C25.2173 38.6026 26.1978 38.225 27.1982 37.9467C28.3444 37.6353 29.5104 37.4167 30.6765 37.1782C31.0938 37.0921 31.5311 37.0722 31.9485 36.9993C32.2268 36.9463 32.4918 36.8668 32.7568 36.7674C33.2603 36.5885 33.7572 36.3765 34.2673 36.2109C34.6715 36.0784 35.0889 35.9724 35.5062 35.8796C35.8574 35.8001 36.2151 35.714 36.5729 35.7008C37.1957 35.6809 37.6594 36.0718 37.8185 36.6813C37.8648 36.8602 37.9046 37.0523 37.9907 37.2179C38.3352 37.907 38.6996 38.5894 39.0508 39.2718C39.2495 39.6626 39.4416 40.0602 39.6205 40.4179C40.5414 40.1728 41.4491 39.9807 42.3104 39.6759C43.4168 39.285 44.4834 38.7616 45.7091 38.7881C45.6959 38.7219 45.6959 38.6821 45.6826 38.6357C45.3646 37.642 45.0532 36.6415 44.7286 35.6478C44.6292 35.3364 44.4967 35.0316 44.3907 34.7202C44.0925 33.8589 43.7282 33.0109 43.5162 32.1298C43.2975 31.189 43.2644 30.2084 43.0789 29.261C42.8868 28.2474 42.6151 27.247 42.37 26.2399C42.0387 24.895 41.734 23.5435 41.363 22.2052C40.8661 20.3898 40.3162 18.5944 39.7928 16.7857C39.329 15.189 38.8785 13.5924 38.4214 12.0023C38.1762 11.1543 37.8516 10.3261 37.7058 9.46484C37.5534 8.58368 37.3878 7.71578 37.0102 6.89425C36.977 6.828 36.9638 6.7485 36.9373 6.67562C36.6127 5.54933 36.3675 4.39654 35.599 3.43588C35.3207 3.09137 35.3737 3.05161 34.9431 3.21725C34.8835 3.24375 34.8238 3.27025 34.7576 3.29012C33.5783 3.78039 32.399 4.27066 31.2131 4.7543C30.7825 4.93318 30.3386 5.09219 29.8814 5.27107C29.9543 5.48308 30.0338 5.66858 30.0868 5.86071C30.2061 6.31785 30.3518 6.775 30.4114 7.23876C30.5704 8.47106 30.0934 9.25946 29.093 9.60397C27.3042 10.2201 25.522 10.8694 23.7465 11.512C22.0372 12.1282 20.3345 12.751 18.6318 13.387C17.0285 13.9899 15.4252 14.6126 13.8351 15.242C12.742 15.6727 11.7217 16.269 10.5357 16.4677C9.66122 16.6135 9.03182 16.428 8.60118 15.6528C8.35605 15.2023 8.20367 14.6988 7.99166 14.2284C7.58089 13.3141 7.15025 12.3998 6.77262 11.5915C5.16931 11.8897 3.68526 12.1613 2.24096 12.4263C2.47947 13.3274 2.68485 14.1754 2.91673 15.0102C3.77139 18.0644 4.61942 21.1186 5.50057 24.1662C5.98421 25.8358 6.57386 27.4788 7.04425 29.1484C7.89228 32.143 8.68068 35.1641 9.52209 38.1653C10.1051 40.2457 10.7544 42.3061 11.3109 44.3864C11.5362 45.2278 11.6952 46.0825 12.1324 46.8444C12.1788 46.9305 12.3312 47.0233 12.4173 47.0034C13.2322 46.851 14.0471 46.7516 14.8819 46.8245C15.0078 46.8378 15.1602 46.8179 15.2529 46.7516C16.0612 46.2018 16.9026 45.844 17.7771 45.6982Z" fill="#202023"/>
        <path d="M17.7506 36.0253C17.5121 36.0452 17.267 36.0584 17.0285 36.0717C16.366 36.1048 15.8757 35.7868 15.7034 35.164C15.4119 34.1172 15.1535 33.0572 14.8554 32.0104C14.597 31.1226 14.2856 30.2547 14.0206 29.3669C13.7291 28.3864 13.484 27.3926 13.1726 26.4187C12.8943 25.5574 12.5432 24.7293 12.2451 23.8746C12.0662 23.3579 11.9204 22.8212 11.7813 22.2912C11.6952 21.9732 11.6157 21.6883 11.3573 21.4299C10.8206 20.8933 10.9531 19.9989 11.6355 19.5351C12.0596 19.2436 12.5299 19.0117 13.0003 18.7931C14.332 18.1836 15.6703 17.5939 17.0086 17.0043C18.5722 16.3152 20.1158 15.5931 21.792 15.2155C21.898 15.189 22.0107 15.1691 22.1034 15.1161C23.1568 14.5529 24.3162 14.3343 25.469 14.2151C26.9928 14.056 28.4239 13.5327 29.9013 13.208C30.1067 13.1616 30.3121 13.1285 30.5241 13.1153C31.3721 13.0755 31.9485 13.4531 32.187 14.2813C32.5713 15.6461 32.8959 17.0308 33.2603 18.4022C33.4458 19.1045 33.6644 19.8001 33.8831 20.4891C34.3998 22.1454 34.9232 23.8084 35.4532 25.4581C35.7116 26.2531 36.023 27.0282 36.2615 27.8299C36.5928 28.9496 36.3145 29.4928 35.2744 30.0295C33.9758 30.6986 32.6044 31.1624 31.2197 31.6063C30.9083 31.7057 30.6102 31.8514 30.3054 31.9773C29.9676 32.1164 29.6429 32.2754 29.305 32.4013C28.086 32.8452 26.8669 33.2891 25.6347 33.6998C24.7932 33.9781 23.9253 34.1901 23.0707 34.4485C22.5208 34.6141 21.9841 34.7996 21.4409 34.9918C20.5067 35.323 19.4931 35.3827 18.6185 35.9325C18.3999 36.0717 18.062 36.0253 17.7771 36.0651C17.7573 36.0518 17.7506 36.0385 17.7506 36.0253ZM24.9191 24.7823C24.8197 24.8684 24.7667 24.9015 24.727 24.9479C23.6736 26.0013 22.6202 27.0547 21.5601 28.1015C20.3808 29.2543 19.3341 30.5197 18.3999 31.8779C18.1415 32.2555 17.8964 32.6332 17.3664 32.7259C17.4657 33.0108 17.5452 33.256 17.6446 33.5342C17.8368 33.4348 17.9891 33.3686 18.1216 33.2891C18.6053 32.9843 19.1088 32.7657 19.6852 32.6994C19.9833 32.6663 20.2881 32.5802 20.573 32.4808C21.7589 32.0833 22.9448 31.6725 24.1307 31.2684C24.6674 31.0829 25.2106 30.9106 25.6413 30.7649C25.8003 30.268 25.9063 29.8705 26.052 29.4796C26.1978 29.0887 26.3899 28.7177 26.5556 28.34C26.3038 28.5189 26.1183 28.7442 25.9129 28.9429C25.2835 29.5458 24.674 30.1686 24.0048 30.7317C23.5411 31.116 22.9978 31.0763 22.6069 30.7516C22.2293 30.4336 22.1167 29.9235 22.3552 29.3934C22.5009 29.0622 22.693 28.7508 22.8719 28.4328C23.5345 27.2734 24.197 26.1206 24.8595 24.9612C24.8794 24.9214 24.886 24.8817 24.9191 24.7823ZM25.0384 16.9181C24.6276 17.0043 24.2765 17.0506 23.9452 17.1567C22.9647 17.4747 21.9841 17.8125 21.0102 18.1571C20.9109 18.1902 20.8247 18.2896 20.7651 18.3823C20.5465 18.7467 20.3941 19.1707 20.1225 19.4821C18.592 21.2113 17.6115 23.285 16.4123 25.2196C16.4057 25.2328 16.4123 25.2593 16.4123 25.2991C19.6852 22.9405 22.5075 20.1513 25.0384 16.9181ZM31.922 23.4307C30.6963 25.5972 29.1526 27.5251 28.245 29.8042C29.9675 29.1682 31.6702 28.5388 33.3398 27.9226C32.8561 26.4121 32.399 24.9479 31.922 23.4307ZM16.8098 30.5529C18.115 28.5057 19.3738 26.5115 20.5663 24.6432C19.1552 25.7098 17.638 26.856 16.1208 28.0154C16.0612 28.0618 16.0214 28.1943 16.0479 28.2605C16.2865 29.0092 16.5448 29.7578 16.8098 30.5529ZM17.7241 19.5881C16.3593 20.1778 15.021 20.7541 13.6297 21.3504C13.9875 22.2912 14.332 23.2055 14.7163 24.1993C15.7498 22.6092 16.7237 21.1119 17.7241 19.5881ZM29.8085 15.9376C29.4044 16.0237 29.0003 16.0966 28.6094 16.1894C28.1125 16.302 27.6156 16.4213 27.5825 17.0771C27.5825 17.1301 27.5427 17.1832 27.5162 17.2295C26.5887 18.7931 25.6612 20.3566 24.7336 21.9202C24.6806 22.0129 24.621 22.0991 24.568 22.1918C24.9788 21.7546 25.4359 21.3835 25.8334 20.9595C27.0988 19.608 28.4967 18.3691 29.5104 16.7989C29.5634 16.7194 29.6297 16.6266 29.7092 16.5803C29.9941 16.4213 29.9742 16.2159 29.8085 15.9376ZM30.6831 19.4887C30.2922 20.0983 29.941 20.6481 29.6297 21.145C29.9079 20.9993 30.1994 20.8204 30.5108 20.6813C30.8023 20.5488 30.9481 20.2838 30.8553 19.9856C30.8023 19.8399 30.7493 19.7007 30.6831 19.4887Z" fill="#202023"/>
        <path d="M35.9237 11.1875C35.9237 11.7175 35.725 12.0886 35.2877 12.3072C34.8372 12.5258 34.4331 12.4066 34.0223 12.1349C33.4525 11.7639 33.2273 11.2339 33.1014 10.6045C32.9424 9.8426 32.6972 9.09395 32.5647 8.32542C32.4124 7.43102 33.0285 6.80825 33.85 6.9275C34.2012 6.9805 34.5126 7.15938 34.6318 7.47077C35.0823 8.65669 35.4931 9.86248 35.9171 11.0683C35.9304 11.1213 35.9237 11.1809 35.9237 11.1875Z" fill="#202023"/>
        <path d="M35.0954 16.2556C35.0689 15.1293 35.8904 14.4866 36.6987 14.9106C36.9438 15.0365 37.1492 15.2949 37.2817 15.5467C37.4142 15.7984 37.4407 16.1164 37.5069 16.4013C37.6858 17.1235 37.8581 17.8522 38.0436 18.5744C38.1297 18.9123 38.1628 19.2502 38.0104 19.5748C37.8249 19.9591 37.5136 20.191 37.0829 20.2175C36.6059 20.244 36.2945 20.0054 36.003 19.6411C35.4465 18.952 35.2809 18.1636 35.2345 17.3156C35.208 16.9115 35.1285 16.5206 35.0954 16.2556Z" fill="#202023"/>
        <path d="M9.47551 28.1416C8.81961 28.1416 8.35584 27.8501 8.19684 27.214C8.00471 26.4389 7.86558 25.6438 7.75957 24.8488C7.69332 24.3784 8.01796 23.9345 8.46185 23.749C8.87924 23.5701 9.44901 23.6761 9.76702 24.0472C9.9459 24.2592 10.1049 24.5176 10.1977 24.7826C10.4097 25.3855 10.6084 25.995 10.7476 26.6111C10.9264 27.4857 10.3633 28.1416 9.47551 28.1416Z" fill="#202023"/>
        <path d="M13.6561 36.2905C13.5899 36.8338 13.2652 37.2843 12.8081 37.3969C12.3046 37.5228 11.8673 37.324 11.5758 36.847C11.4102 36.5754 11.2114 36.3302 11.0656 36.052C10.9928 35.9062 11.0126 35.7075 10.9729 35.5352C10.9066 35.2835 10.8536 35.0251 10.741 34.7998C10.5224 34.3824 10.5356 34.071 10.8205 33.7C10.9 33.6006 10.953 33.4748 11.0193 33.3621C11.2578 32.9447 11.6089 32.7129 12.0992 32.746C12.5828 32.7791 12.9472 33.0375 13.0598 33.4814C13.2983 34.4155 13.464 35.3563 13.6561 36.2905Z" fill="#202023"/>
        <path d="M7.89861 18.6675C7.89861 19.171 7.6866 19.5287 7.25596 19.7209C6.82532 19.913 6.42118 19.8136 6.0568 19.5155C5.51353 19.065 5.16901 18.5416 5.19552 17.7929C5.20877 17.4882 5.06301 17.1768 4.99013 16.8654C4.851 16.2625 5.14914 15.6795 5.67916 15.494C6.23568 15.3018 6.85182 15.5271 7.07708 16.1035C7.38184 16.8787 7.61373 17.6803 7.87211 18.4753C7.89861 18.535 7.89198 18.6211 7.89861 18.6675Z" fill="#202023"/>
        <path d="M40.1702 27.1608C40.1636 28.0155 39.7528 28.5388 39.1632 28.6515C38.6266 28.7509 38.1032 28.4593 37.8912 27.8432C37.646 27.1409 37.4473 26.4188 37.2816 25.6966C37.1756 25.2196 37.3611 24.7956 37.7918 24.5372C38.229 24.2788 38.6464 24.3583 39.0572 24.6432C39.4613 24.9215 39.7197 25.2726 39.8257 25.7496C39.945 26.2796 40.0841 26.8097 40.1702 27.1608Z" fill="#202023"/>
        <path d="M42.8271 36.8534C42.8006 37.3503 42.529 37.7412 42.105 37.8803C41.6544 38.0261 41.2172 37.8671 40.9257 37.4497C40.8925 37.4033 40.8793 37.3371 40.8395 37.3106C40.1571 36.8534 40.1704 36.118 40.0644 35.429C40.0246 35.1773 39.9783 34.9321 39.9253 34.687C39.7861 34.1106 40.0379 33.7065 40.6077 33.5872C41.5816 33.3818 42.0056 33.6932 42.211 34.6737C42.317 35.1905 42.5223 35.6808 42.6747 36.1843C42.7344 36.4029 42.7807 36.6282 42.8271 36.8534Z" fill="#202023"/>
        <path d="M13.9477 43.9825C13.484 43.9825 13.0865 43.7042 12.9208 43.2338C12.8281 42.9754 12.7751 42.7038 12.7022 42.4388C12.5697 41.9618 12.4438 41.4847 12.3047 41.0143C12.1655 40.544 12.2716 40.1398 12.6293 39.8947C12.9871 39.6496 13.3316 39.7158 13.7622 39.9874C14.2392 40.2856 14.4844 40.6963 14.6103 41.2264C14.7229 41.71 14.9018 42.1738 15.0011 42.6574C15.1535 43.3597 14.6368 43.9891 13.9477 43.9825Z" fill="#202023"/>
    </g>
    <defs>
        <clipPath id="clip0">
            <rect width="50" height="50" fill="white"/>
        </clipPath>
    </defs>
</svg>
