<svg width="50" height="50" viewBox="0 0 50 50" fill="none" 
    xmlns="http://www.w3.org/2000/svg">
    <g clip-path="url(#clip0)">
        <path d="M29.9787 25.2382C30.7216 24.6272 31.5409 24.3703 32.4365 24.4397C33.3738 24.5091 34.0265 25.0021 34.4083 25.8908C34.6305 25.7936 34.818 25.7172 35.0054 25.627C35.665 25.3145 36.3593 25.1757 37.0884 25.2035C37.6369 25.2243 38.0673 25.4742 38.3936 25.8978C38.8727 26.5296 39.2962 27.1892 39.2685 28.0362C39.2685 28.0779 39.2893 28.1265 39.3101 28.2028C40.2058 28.182 40.8792 28.6472 41.4972 29.2374C42.254 29.9594 42.6219 30.8065 42.372 31.8618C42.3581 31.9313 42.3442 32.0007 42.3512 32.0701C42.4484 33.6601 41.9762 35.1875 41.8652 36.7497C41.7818 37.9023 41.7402 39.0618 41.7957 40.2143C41.886 42.0959 42.0734 43.9705 42.2331 45.8451C42.2609 46.1992 42.3442 46.5533 42.4067 46.9074C42.4692 47.2893 42.4345 47.6503 42.1707 47.9488C41.9068 48.2474 41.5735 48.3377 41.1917 48.2543C40.7682 48.1571 40.4974 47.8586 40.421 47.442C40.296 46.8102 40.1988 46.1645 40.1433 45.5257C39.9975 43.9496 39.8725 42.3736 39.7684 40.7906C39.6503 39.034 39.6503 37.2774 39.9489 35.5347C40.0947 34.7015 40.2127 33.8684 40.303 33.0283C40.3655 32.4381 40.3932 31.8341 40.3932 31.2369C40.4002 30.6954 39.5115 30.1469 39.0255 30.3691C38.8588 30.4454 38.6852 30.5149 38.5117 30.5843C38.0812 30.7648 37.6716 30.7509 37.3175 30.4246C36.9564 30.0983 36.9564 29.6817 37.0467 29.2374C37.1231 28.8694 37.1786 28.4945 37.2411 28.1195C37.248 28.064 37.2342 28.0015 37.2272 27.946C37.137 27.3766 36.8453 27.1336 36.3177 27.3211C35.6511 27.5502 34.9777 27.7377 34.5333 28.4042C34.0265 29.1679 32.9989 29.0846 32.6934 28.307C32.6101 28.0987 32.617 27.8557 32.5962 27.6266C32.5754 27.3419 32.5754 27.0503 32.5546 26.7587C32.5407 26.4879 32.3879 26.3629 32.1171 26.3977C31.4645 26.481 30.9785 26.8628 30.5411 27.3211C30.4161 27.453 30.3328 27.6266 30.2217 27.7724C29.9579 28.1126 29.6176 28.2723 29.1872 28.1959C28.7706 28.1195 28.4998 27.8418 28.4096 27.4461C28.2638 26.8073 28.1666 26.1546 28.0555 25.5089C27.6944 23.4607 27.3195 21.4195 26.9724 19.3713C26.7988 18.3368 26.6807 17.2953 26.4863 16.2608C26.4377 16.0039 26.2294 15.747 26.0281 15.5596C25.4032 14.9764 24.3062 15.268 24.0632 16.0734C23.7786 17.0107 23.7091 17.9688 23.8688 18.9478C24.1257 20.5238 24.3548 22.0999 24.584 23.676C24.8547 25.5853 25.1463 27.4947 25.3685 29.404C25.4657 30.2372 25.4657 31.0911 25.3963 31.9243C25.3338 32.6811 24.9311 33.2921 24.1257 33.4796C23.48 33.6323 22.8135 33.7087 22.1608 33.8267C21.9456 33.8684 21.7095 33.8822 21.536 34.0003C20.8694 34.4655 20.3765 35.0417 20.2237 35.9027C19.8766 37.8467 20.6611 38.9923 22.2511 40.006C24.2785 41.2974 25.7851 42.9915 26.7849 45.1508C27.0001 45.6229 27.2501 46.0881 27.3889 46.5811C27.5417 47.1434 27.625 47.7336 27.6736 48.3099C27.7222 48.8445 27.4375 49.2402 27.0348 49.3374C26.6044 49.4485 26.1531 49.1986 25.9309 48.6917C25.7782 48.3446 25.6601 47.9766 25.549 47.6156C25.0422 45.9631 24.1882 44.4981 23.0218 43.2484C22.501 42.693 21.8484 42.2417 21.2027 41.8251C19.9252 40.9989 18.9462 39.9227 18.3283 38.5341C17.9881 37.7773 18.0783 36.9719 18.0992 36.1735C18.1408 34.3821 19.0156 33.0699 20.4945 32.1673C20.925 31.9035 21.4804 31.7646 21.9942 31.723C23.6397 31.591 23.4592 31.6674 23.3134 30.1955C23.1259 28.3 22.8829 26.4115 22.6191 24.523C22.3483 22.6137 21.9803 20.7182 21.7443 18.8089C21.5846 17.5592 21.7234 16.3164 22.1678 15.1222C22.5844 14.0113 23.3897 13.3795 24.5631 13.2406C26.5002 13.0045 27.8194 13.9835 28.2707 15.5735C28.4582 16.233 28.4373 16.9482 28.5693 17.6286C28.847 19.0797 29.1802 20.5169 29.451 21.9749C29.6385 22.9747 29.7635 23.9815 29.9162 24.9882C29.9301 25.0507 29.944 25.1062 29.9787 25.2382Z" fill="#202023"/>
        <path d="M31.1048 1.99986C29.8898 2.20121 28.6678 2.40256 27.4528 2.60391C26.0503 2.83303 24.6478 3.04132 23.2523 3.29127C22.5857 3.4093 21.9331 3.64536 21.2666 3.75645C19.996 3.97168 18.7115 4.13832 17.434 4.33272C16.1704 4.52713 14.9067 4.74236 13.6431 4.95065C13.5667 4.96454 13.4695 4.98537 13.4279 5.04091C13.046 5.49915 12.4767 5.57553 11.9768 5.7977C11.5463 5.98516 11.1506 6.249 10.7479 6.49201C10.6784 6.53366 10.6298 6.65864 10.609 6.75584C10.3313 7.92227 10.4771 9.06093 10.8104 10.2065C11.0742 11.123 11.2478 12.0673 11.4491 13.0046C11.7754 14.539 12.0948 16.0734 12.4003 17.6147C12.6711 18.9825 12.921 20.3572 13.1849 21.732C13.4487 23.0859 14.1083 24.2315 14.9831 25.2799C15.247 25.5923 15.601 25.7034 15.969 25.7173C17.0174 25.7589 18.0728 25.7659 19.1212 25.7867C19.4891 25.7936 19.871 25.7728 20.2182 25.8561C20.8708 26.0089 21.2457 26.5852 21.1346 27.1684C21.0166 27.7794 20.5098 28.0987 19.8224 28.0779C18.9476 28.0501 18.0658 28.1126 17.191 28.0779C16.4898 28.0501 15.7885 27.9668 15.0942 27.8627C14.2333 27.7308 13.6223 27.21 13.0738 26.5643C11.6435 24.8702 11.0048 22.8637 10.6298 20.7252C10.3729 19.2255 10.0674 17.7328 9.76195 16.24C9.42869 14.5876 9.08848 12.9421 8.73438 11.2966C8.55386 10.4634 8.29697 9.64414 8.172 8.80404C8.01925 7.75564 8.17894 6.7003 8.48443 5.68661C8.58164 5.36723 8.85936 5.08951 9.08848 4.82568C9.21345 4.67987 9.40091 4.57573 9.57449 4.49935C10.4146 4.11054 11.2269 3.61065 12.1087 3.37458C13.5945 2.97189 15.122 2.70805 16.6425 2.44422C17.684 2.2637 18.7532 2.20121 19.8016 2.02763C20.482 1.91655 21.1416 1.68048 21.822 1.54856C22.8843 1.34027 23.9605 1.18753 25.0227 0.993122C26.0989 0.791774 27.1681 0.534881 28.2513 0.361305C29.6676 0.132185 31.091 -0.110821 32.5282 0.111356C34.3958 0.396021 35.8886 2.12484 36.0691 3.99946C36.2635 5.98516 36.5898 7.95699 36.8259 9.94269C36.9648 11.0883 37.0203 12.2478 37.1453 13.3934C37.3536 15.2541 37.5966 17.1079 37.8118 18.9617C37.8674 19.4199 37.8812 19.8851 37.916 20.3434C37.9715 20.996 37.7285 21.5584 37.298 22.0236C36.819 22.5443 36.3052 23.0234 35.7983 23.5094C35.6803 23.6205 35.5414 23.7107 35.4026 23.7802C34.868 24.0648 34.25 23.9399 33.9376 23.5024C33.6043 23.0373 33.6877 22.4263 34.139 21.9958C34.5833 21.5723 35.0277 21.1488 35.472 20.7322C35.6734 20.5447 35.7359 20.3225 35.7011 20.0448C35.5206 18.7673 35.347 17.4828 35.1804 16.1984C35.1249 15.7748 35.0901 15.3513 35.0485 14.9209C34.8888 13.2059 34.7499 11.491 34.5694 9.783C34.4097 8.24859 34.2084 6.71418 34.014 5.17977C33.9376 4.56184 33.8682 3.93697 33.7085 3.34681C33.6391 3.08298 33.3752 2.83303 33.1392 2.65251C32.549 2.20121 31.8825 1.97209 31.1187 2.13178C31.1118 2.06929 31.1118 2.03458 31.1048 1.99986Z" fill="#202023"/>
        <path d="M3.47785 25.0645C3.80418 25.1339 4.01247 25.1686 4.20687 25.2172C4.93589 25.4047 5.26916 26.1268 4.84563 26.7586C4.5332 27.2238 4.11661 27.6126 3.74169 28.0431C3.54728 28.2652 3.35288 28.4944 3.17236 28.7235C2.9363 29.022 2.74884 29.3761 2.46417 29.6122C1.7421 30.2093 0.797842 29.8899 0.624266 28.9734C0.513178 28.3763 0.54095 27.7584 0.527064 27.1474C0.527064 26.7655 0.547893 26.4184 0.207684 26.1129C-0.0700372 25.8629 -0.0492081 25.4811 0.138254 25.1478C0.318773 24.8215 0.721469 24.641 1.11722 24.6896C1.25608 24.7035 1.388 24.7312 1.47826 24.7451C1.7421 24.1272 2.00593 23.544 2.25588 22.9538C2.65163 22.0165 3.20013 21.1556 3.91527 20.4543C4.49848 19.878 5.20667 19.4128 5.91486 18.9893C6.21341 18.8157 6.65082 18.8227 7.02575 18.8435C7.45621 18.8643 7.67145 19.3642 7.42844 19.7392C7.26181 19.9961 7.03963 20.2252 6.80357 20.4265C5.9704 21.1625 5.10947 21.8707 4.56097 22.8635C4.18604 23.5717 3.85972 24.2938 3.47785 25.0645Z" fill="#202023"/>
        <path d="M44.7342 9.97044C44.7689 9.81075 44.7898 9.69966 44.8175 9.58857C44.9842 8.80401 45.4841 8.4638 46.2409 8.75541C47.3379 9.17199 48.414 9.64412 49.4763 10.1579C50.1637 10.4912 50.1706 11.3729 49.511 11.7617C48.8029 12.1714 48.0947 12.581 47.2337 12.6296C46.9838 12.6435 46.7408 12.824 46.4978 12.949C46.2964 13.0531 46.1089 13.2198 45.9007 13.2753C45.3036 13.4211 44.8453 12.9698 44.9356 12.3658C44.9911 11.977 44.8939 11.8937 44.5259 11.8242C43.5331 11.6368 42.5333 11.5951 41.5335 11.5743C41.1308 11.5673 40.7281 11.6159 40.3323 11.6784C39.5686 11.7965 39.027 11.3729 39.1451 10.7133C39.2145 10.3593 39.4506 10.144 39.7769 10.0399C40.0407 9.95656 40.3115 9.88713 40.5892 9.8663C41.8112 9.79687 43.0332 9.66495 44.2482 9.9149C44.3871 9.94961 44.5468 9.94961 44.7342 9.97044Z" fill="#202023"/>
    </g>
    <defs>
        <clipPath id="clip0">
            <rect width="50" height="50" fill="white"/>
        </clipPath>
    </defs>
</svg>
