<svg width="291" height="681" viewBox="0 0 291 681" fill="none" 
    xmlns="http://www.w3.org/2000/svg">
    <path d="M12.8252 0C13.5818 0.748809 14.5485 0.374404 15.4311 0.374404C20.3907 0.374404 25.4343 0.0416006 30.1417 1.78882C39.2623 5.11686 44.39 11.8145 46.0292 21.1746C46.9959 26.6659 46.2393 32.0324 44.3059 37.1908C42.8769 41.0597 40.0188 43.9717 37.1187 46.7589C33.5041 50.2118 29.3431 53.0406 24.5937 54.8294C18.1211 57.2839 11.6484 56.9095 5.13371 55.0374C0.300224 53.6646 -4.11295 51.4182 -7.89568 48.215C-11.8886 44.8037 -14.3263 40.2693 -14.7887 35.1108C-15.5872 26.5827 -13.906 18.3874 -9.36674 11.0657C-5.75214 5.24166 -0.624452 1.08161 6.64679 0.249603C6.77288 0.249603 6.85694 0.083201 6.941 0C8.91643 0 10.8918 0 12.8252 0ZM15.6833 11.6481C12.9934 11.6481 10.7237 11.6897 8.49613 11.6481C7.40334 11.6065 6.43663 11.8561 5.51196 12.3969C1.393 14.8514 -1.21288 18.3458 -1.84334 23.1299C-2.3477 26.8739 -2.72596 30.618 -3.0622 34.4036C-3.18829 35.818 -3.35641 37.3156 -2.22159 38.5636C3.36843 44.6373 10.5976 46.9254 18.4573 45.5109C25.056 44.3461 30.1417 39.8533 33.5462 34.154C36.026 29.9523 36.2781 25.0019 34.5549 20.3842C32.8737 15.8498 29.8895 12.5633 24.4256 12.0225C21.3153 11.6481 18.2471 11.8977 15.6833 11.6481Z" fill="#FAF1D6"/>
    <path d="M251.367 406.613C251.745 409.567 249.812 411.356 247.71 413.061C242.667 417.138 237.077 420.05 230.814 421.964C227.199 423.087 223.837 424.834 220.643 426.873C214.758 430.658 208.454 433.154 201.519 434.361C195.887 435.318 190.759 437.73 185.842 440.518C181.386 443.055 176.553 444.22 171.425 444.262C169.198 444.262 167.096 444.761 165.205 445.801C159.951 448.63 154.361 450.46 148.435 451.459C146.165 451.833 144.358 453.289 142.466 454.371C140.407 455.577 138.263 456.575 135.952 457.158C134.943 457.407 134.649 457.657 134.817 458.822C135.153 461.193 133.892 463.19 131.749 464.188C129.689 465.187 126.579 465.02 125.402 463.148C123.637 460.361 121.409 461.027 119.056 461.526C116.492 462.067 114.138 461.609 112.121 460.07C108.002 456.95 109.178 450.918 114.306 449.004C115.777 448.463 116.071 448.089 115.231 446.633C110.397 438.063 104.891 429.868 99.5535 421.589C95.3084 414.975 92.0721 407.82 88.7517 400.748C87.4908 398.043 86.0618 395.423 85.2632 392.511C84.3806 389.183 86.3139 385.813 90.1387 385.106C102.706 382.776 115.273 380.654 127.041 374.955C142.382 367.467 158.144 360.811 173.821 354.03C179.831 351.451 185.968 349.163 192.314 347.374C194.962 346.625 197.358 345.419 199.754 344.088C205.47 340.843 211.228 337.764 217.028 334.686C221.609 332.273 225.602 334.104 227.452 339.304C229.721 345.668 231.529 352.241 233.294 358.773C236.32 370.005 239.935 381.029 243.928 391.97C245.062 395.09 247.92 397.128 249.349 400.082C250.274 402.12 251.619 404.076 251.367 406.613ZM129.395 445.094C132.085 444.303 134.691 443.388 137.129 441.974C139.819 440.393 142.55 438.895 145.745 438.313C149.443 437.606 153.058 436.732 156.505 435.026C160.792 432.905 165.163 430.908 170.206 430.908C173.779 430.908 177.141 429.993 180.378 428.204C186.724 424.668 193.491 422.005 200.72 420.799C204.041 420.217 207.151 419.177 210.093 417.429C215.557 414.226 221.105 411.148 227.115 408.943C229.637 407.986 232.285 407.362 234.681 405.948C236.11 405.074 236.068 404.242 235.185 403.119C232.705 400.124 231.276 396.587 230.058 392.968C225.434 379.448 221.147 365.762 217.659 351.909C217.238 350.245 216.608 349.995 215.221 350.785C214.548 351.16 213.876 351.493 213.161 351.825C208.412 354.03 204.335 357.441 199.291 359.105C195.509 360.353 191.726 361.518 187.985 362.849C178.907 366.011 170.164 370.088 161.296 373.79C152.47 377.493 143.727 381.237 134.901 384.939C126.663 388.392 118.425 391.762 109.431 392.802C108.296 392.927 108.17 393.509 108.38 394.549C109.262 398.335 110.313 402.079 111.742 405.656C116.954 418.469 123.301 430.825 128.05 443.846C128.218 444.428 128.47 445.177 129.395 445.094Z" fill="#C5E8ED"/>
    <path d="M106.448 557.031C114.98 557.197 121.831 559.859 127.674 564.893C131.75 568.387 133.137 573.296 133.558 578.455C134.314 587.149 130.952 594.346 125.404 600.836C121.579 605.329 116.998 608.574 111.072 609.406C105.734 610.154 100.522 609.281 95.5203 607.118C89.5941 604.538 84.1722 601.252 80.4735 595.927C75.556 588.855 75.4719 581.45 79.6749 573.837C81.9025 569.802 84.3403 566.016 88.2911 563.603C94.0493 559.984 100.144 557.072 106.448 557.031ZM107.247 597.092C109.096 597.217 110.735 596.842 112.248 595.844C115.863 593.431 118.175 589.978 119.856 586.151C121.411 582.615 121.873 578.58 119.646 575.376C116.62 571.092 111.702 569.802 106.574 569.844C103.422 569.885 100.69 571.466 97.9161 572.672C94.2594 574.295 91.7796 576.874 91.3593 581.076C91.1912 582.449 91.4014 584.071 90.3506 585.236C89.1738 586.525 89.7202 587.732 90.6028 588.689C95.016 593.722 100.564 596.593 107.247 597.092Z" fill="#FAF1D6"/>
    <path d="M-110.347 272.345C-108.96 253.833 -107.573 235.571 -106.186 216.975C-110.935 216.393 -115.265 215.602 -119.636 215.436C-129.219 215.103 -138.802 214.895 -148.384 215.103C-152.377 215.186 -156.328 216.476 -160.321 217.183C-161.54 217.391 -162.843 217.932 -163.978 217.724C-164.944 217.516 -166.205 216.518 -166.373 215.644C-166.542 214.812 -165.659 213.148 -164.902 212.898C-160.279 211.442 -155.572 209.487 -150.822 209.196C-141.323 208.613 -131.782 208.53 -122.284 209.113C-112.701 209.695 -103.118 211.234 -93.577 212.607C-81.8085 214.313 -70.3342 217.266 -58.86 220.386C-53.7743 221.759 -48.3944 222.134 -43.1406 222.758C-39.8203 223.174 -36.4158 223.59 -33.1374 223.298C-28.1779 222.799 -23.0081 222.342 -18.3848 220.678C-8.00333 216.85 1.87378 211.9 10.3639 204.661C19.9888 196.424 28.1007 186.981 34.6994 176.248C38.8604 169.426 42.8954 162.562 47.0984 155.781C47.981 154.325 47.939 153.326 46.6781 152.203C45.8795 151.454 45.0809 150.581 44.5766 149.624C44.2403 148.917 44.4084 148.002 44.3244 147.128C45.249 147.086 46.2998 146.712 47.0143 147.045C48.1912 147.585 49.1158 148.626 50.2507 149.499C51.6376 147.336 52.8145 144.965 54.4537 142.968C56.0088 141.054 57.9842 139.473 59.7495 137.768C61.4307 136.145 63.1119 134.481 64.8772 132.901C75.4688 123.249 88.1199 118.091 102.368 116.968C109.387 116.427 116.49 116.884 123.593 116.843C126.788 116.801 129.982 116.635 133.176 116.51C134.858 116.468 136.539 116.676 138.178 116.427C150.241 114.763 150.451 110.519 151.964 102.99C153.645 94.7529 156.797 87.2232 163.312 81.4823C167.851 77.4887 173.399 75.5335 179.2 74.4518C183.361 73.6614 187.522 72.8294 191.893 73.4118C199.626 74.4102 205.805 81.9399 204.46 89.5112C203.787 93.3385 201.392 95.8761 197.525 96.7497C194.12 97.4985 190.632 97.9561 187.227 98.5801C180.082 99.8697 176.972 105.236 177.939 111.726C178.191 113.431 179.158 114.139 180.755 114.264C182.226 114.347 183.697 114.305 185.168 114.347C199.374 114.596 213.58 114.68 227.787 115.22C237.706 115.595 247.625 116.468 257.502 117.259C261.285 117.592 265.193 117.716 268.262 120.67C271.708 123.956 273.263 129.489 271.666 133.608C269.859 138.225 265.362 141.345 260.318 141.429C255.569 141.512 250.819 141.761 246.028 141.72C242.665 141.72 239.345 141.304 235.982 141.179C233.965 141.096 231.948 141.221 229.93 141.137C224.508 140.929 219.044 140.68 213.328 140.43C214.043 148.168 212.403 154.45 203.745 156.738C206.435 160.107 207.36 163.477 205.384 167.304C203.619 170.715 201.518 173.752 197.315 174.834C197.567 175.707 197.777 176.498 197.987 177.288C199.038 181.24 198.113 185.234 195.213 187.605C192.397 189.893 189.161 192.431 185.126 192.514C179.956 192.597 174.786 192.68 169.617 192.389C159.782 191.807 149.946 190.684 140.111 190.268C133.345 189.976 126.494 189.893 119.769 190.684C110.102 191.848 101.107 195.509 93.9621 202.165C88.5402 207.199 83.7908 212.981 78.7051 218.431C79.6298 219.638 80.4704 220.428 80.9327 221.385C81.269 222.05 81.4791 223.174 81.1009 223.631C80.7226 224.089 79.5878 224.13 78.8312 224.006C77.9066 223.839 77.066 223.257 75.679 222.674C73.8717 226.294 72.0643 229.871 70.3831 233.491C69.5005 235.404 68.744 237.318 66.1381 237.567C65.5917 237.609 65.0453 238.399 64.625 238.94C57.9842 247.635 49.9564 254.915 41.8866 262.195C31.5892 271.472 19.6526 277.961 6.70728 282.787C-4.97714 287.155 -16.9978 289.235 -29.4808 290.109C-38.4332 290.733 -47.0495 289.568 -55.7077 288.195C-69.5777 285.949 -83.3216 283.245 -97.1916 280.998C-112.953 278.461 -128.756 276.547 -144.77 276.963C-155.866 277.254 -166.794 278.544 -177.049 283.203C-178.436 283.827 -179.739 283.744 -180.538 282.413C-181.378 280.957 -180.748 279.709 -179.445 278.835C-174.359 275.465 -168.727 273.51 -162.759 272.387C-149.351 269.891 -135.901 270.224 -122.41 271.472C-118.585 271.721 -114.676 272.013 -110.347 272.345ZM-101.731 217.641C-101.815 218.473 -101.857 218.806 -101.857 219.138C-102.403 229.289 -102.908 239.439 -103.58 249.59C-104.085 256.953 -104.757 264.358 -105.472 271.721C-105.64 273.302 -104.841 273.385 -103.706 273.552C-97.6959 274.425 -91.6436 275.174 -85.6753 276.339C-71.3429 279.085 -57.0527 282.121 -42.4682 283.328C-32.3809 284.16 -22.2936 284.16 -12.4165 281.955C-5.90181 280.499 0.486786 278.336 6.79132 276.048C17.2989 272.179 26.9238 266.688 35.3719 259.366C44.7867 251.254 53.571 242.518 61.1785 232.7C63.4902 229.746 65.4236 226.543 67.5671 223.465C68.4077 222.258 69.2063 221.052 70.215 220.012C70.8875 219.305 71.3078 218.847 70.8875 217.724C70.257 216.018 71.1397 215.061 73.0311 214.853C73.7036 214.77 74.5021 214.479 74.9224 213.98C78.453 210.111 81.8574 206.159 85.3459 202.29C95.5172 191.058 108.505 185.525 123.467 184.693C130.655 184.277 137.884 184.693 145.071 185.026C151.502 185.317 157.89 186.066 164.321 186.399C171.088 186.732 177.855 187.064 184.621 186.981C188.11 186.94 190.632 184.61 191.893 181.448C192.985 178.786 191.683 176.539 189.665 174.626C188.572 173.627 187.9 172.13 188.824 170.923C189.497 170.05 190.884 169.509 192.061 169.218C193.364 168.843 194.877 169.135 196.18 168.76C199.332 167.845 200.845 163.435 199.038 160.814C198.113 159.442 197.146 158.069 196.222 156.696C194.751 154.491 195.633 152.203 198.197 151.496C199.206 151.205 200.257 151.08 201.307 150.955C205.342 150.498 207.444 148.376 207.276 144.382C207.192 142.76 206.603 141.013 205.889 139.515C204.796 137.185 205.468 135.105 208.032 134.523C209.167 134.273 210.386 134.315 211.563 134.357C220.852 134.731 230.14 135.23 239.429 135.48C246.196 135.646 253.005 135.563 259.814 135.521C263.218 135.521 266.076 133.067 266.244 130.196C266.412 126.744 263.975 123.332 260.654 123.083C248.676 122.084 236.697 120.961 224.718 120.42C213.202 119.921 201.644 120.046 190.085 119.921C186.387 119.88 182.688 120.088 178.989 119.796C175.207 119.505 172.391 117.009 171.886 113.473C170.415 103.281 174.492 95.1273 185.672 92.7561C188.951 92.0489 192.271 91.6745 195.549 91.0088C197.819 90.5512 198.828 88.7208 198.407 86.4744C197.735 82.8551 194.246 79.5687 190.506 79.5687C187.311 79.5687 184.075 79.9015 180.923 80.4007C172.307 81.8151 165.161 85.7256 161.463 93.8377C159.361 98.4553 158.31 103.531 157.05 108.481C155.915 112.891 153.897 116.635 149.904 119.089C145.491 121.793 140.658 122.916 135.488 122.792C131.075 122.667 126.662 122.376 122.291 122.417C113.002 122.5 103.671 121.71 94.5085 123.998C79.2936 127.784 67.2309 135.813 59.1611 149.333C58.5726 150.331 57.8581 151.288 57.1016 152.203C55.7146 153.95 54.3696 155.573 56.4711 157.736C56.8494 158.152 56.8494 159.566 56.4291 159.941C55.9247 160.44 54.832 160.44 54.0334 160.44C53.6551 160.44 53.2348 160.024 52.8986 159.774C49.0318 165.931 45.165 171.839 41.5504 177.912C34.6994 189.394 26.1673 199.503 16.08 208.364C5.02606 218.057 -7.79318 224.671 -21.9574 228.207C-31.6664 230.62 -41.7957 230.246 -51.5887 228.498C-62.9789 226.46 -74.159 223.298 -85.4651 220.802C-90.7609 219.43 -96.1408 218.639 -101.731 217.641Z" fill="#202023"/>
    <path d="M178.631 360.219C192.248 360.469 202.336 363.173 211.414 368.997C217.551 372.908 222.174 378.232 225.452 384.639C226.881 387.426 226.419 390.505 225.578 393.375C221.67 406.978 213.264 417.462 202.168 425.99C195.149 431.398 187.331 435.267 178.631 437.43C170.645 439.427 162.701 439.094 154.715 438.054C147.528 437.097 140.719 434.851 134.037 432.147C131.221 430.982 128.573 429.401 125.967 427.82C125.168 427.321 124.454 426.281 124.286 425.366C124.075 424.492 124.328 423.203 124.916 422.579C125.252 422.204 126.681 422.579 127.522 422.87C131.473 424.243 135.339 425.699 139.248 427.113C147.991 430.316 156.985 432.063 166.274 432.147C174.554 432.23 182.287 429.859 189.516 425.99C196.662 422.163 202.966 417.212 208.178 411.014C213.726 404.399 218.181 397.161 220.283 388.716C220.409 388.175 220.367 387.426 220.073 387.01C215.491 380.604 210.069 375.071 202.714 371.743C194.644 368.04 186.112 366.21 177.244 367.084C160.137 368.789 146.183 376.194 137.105 391.004C132.818 397.993 128.825 405.314 127.102 413.51C126.765 415.132 126.765 416.838 126.261 418.419C125.925 419.459 124.958 421.039 124.201 421.081C123.193 421.164 121.764 420.207 121.133 419.292C119.536 417.004 119.956 414.258 120.755 411.846C122.394 406.854 124.075 401.862 126.345 397.119C128.699 392.21 131.347 387.301 134.625 382.933C142.274 372.7 152.488 365.835 164.971 362.715C170.309 361.384 175.857 360.719 178.631 360.219Z" fill="#202023"/>
    <path d="M176.025 376.777C182.918 376.527 187.331 380.77 190.61 385.679C194.266 391.087 195.611 397.411 193.51 403.942C191.366 410.681 186.028 413.843 179.472 415.257C178 415.59 176.403 415.548 174.89 415.59C164.257 415.84 157.364 406.937 156.691 398.243C156.313 393.542 156.439 388.841 158.961 384.556C161.146 380.812 164.383 378.649 168.586 377.858C171.065 377.401 173.545 377.151 176.025 376.777ZM175.184 409.142C181.993 409.267 186.869 406.063 187.794 400.323C188.466 396.038 187.583 391.794 184.767 388.383C182.33 385.388 179.514 382.642 175.058 383.308C173.041 383.599 170.939 383.599 169.09 384.306C167.451 384.93 165.77 386.137 164.719 387.551C162.449 390.671 162.113 394.249 162.912 398.035C164.215 403.942 168.376 409.641 175.184 409.142Z" fill="#202023"/>
    <path d="M152.572 357.723C152.53 359.221 152.11 360.427 150.513 360.76C148.958 361.093 147.949 360.303 147.36 358.971C145.301 354.27 143.241 349.57 141.308 344.827C140.636 343.205 139.669 341.083 141.77 340.001C143.788 338.961 145.217 340.834 146.1 342.29C149.084 347.074 151.311 352.19 152.572 357.723Z" fill="#202023"/>
    <path d="M184.389 347.448C184.389 348.904 184.515 350.36 184.347 351.775C184.221 352.773 184.011 354.021 183.338 354.604C182.456 355.352 180.901 356.06 179.934 355.768C179.009 355.477 177.916 353.938 177.874 352.898C177.706 348.78 177.916 344.619 178.001 340.501C178.001 339.752 178.043 338.879 178.421 338.296C178.967 337.423 179.766 336.175 180.522 336.133C181.321 336.091 182.708 337.131 182.918 337.963C183.759 341.042 184.263 344.245 184.894 347.365C184.725 347.365 184.557 347.407 184.389 347.448Z" fill="#202023"/>
    <path d="M130.969 377.65C130.969 379.605 129.497 380.729 127.984 380.105C127.312 379.813 126.639 379.356 126.093 378.857C122.52 375.653 118.906 372.492 115.459 369.164C114.367 368.124 112.769 366.584 114.198 365.128C114.787 364.504 117.099 365.045 118.317 365.628C123.235 367.916 126.934 371.66 130.128 375.944C130.548 376.485 130.758 377.234 130.969 377.65Z" fill="#202023"/>
    <path d="M225.032 438.22C225.116 439.926 223.729 441.091 222.3 440.508C221.376 440.134 220.493 439.468 219.737 438.761C217.089 436.182 214.567 433.519 211.961 430.94C210.868 429.859 210.238 428.652 211.204 427.279C212.003 426.073 213.348 425.823 214.525 426.655C218.602 429.443 221.964 432.937 224.612 437.055C224.864 437.388 224.906 437.887 225.032 438.22Z" fill="#202023"/>
    <path d="M188.844 446.291C188.97 444.086 189.223 442.547 191.198 442.297C193.089 442.048 193.636 443.379 194.056 444.918C194.77 447.289 195.653 449.619 196.41 451.99C196.788 453.113 197.292 454.278 197.25 455.401C197.208 456.358 196.746 457.648 196.031 458.147C195.569 458.438 194.014 457.773 193.426 457.107C190.525 453.904 189.895 449.744 188.844 446.291Z" fill="#202023"/>
    <path d="M151.647 454.112C152.362 452.115 152.95 450.076 153.749 448.08C154.295 446.79 155.556 446 156.775 446.707C157.658 447.206 158.582 448.62 158.54 449.577C158.414 451.532 157.7 453.488 157.111 455.36C156.607 456.857 155.766 458.313 153.875 457.856C151.984 457.44 151.858 455.776 151.647 454.112Z" fill="#202023"/>
    <path d="M23.4774 255.913C22.5527 255.58 21.7121 255.497 21.2918 255.081C19.3584 253.126 17.4671 251.129 15.7858 248.966C14.9873 247.926 14.8191 246.345 16.2482 245.471C17.6772 244.556 18.6439 245.555 19.5686 246.636C21.1237 248.425 22.889 250.006 24.318 251.836C24.8644 252.543 25.0745 253.708 24.9905 254.623C24.9484 255.123 23.9817 255.539 23.4774 255.913Z" fill="#202023"/>
    <path d="M85.6822 184.194C85.388 184.61 85.0938 185.483 84.5474 185.691C83.8749 185.983 82.656 186.024 82.2357 185.65C80.2603 183.611 78.453 181.448 76.7718 179.202C76.4356 178.744 76.8139 177.455 77.2762 176.872C77.5704 176.498 78.9574 176.331 79.2936 176.664C81.4372 178.703 83.4126 180.907 85.43 183.112C85.5561 183.237 85.5561 183.611 85.6822 184.194Z" fill="#202023"/>
    <path d="M57.69 188.77C57.3537 189.186 57.0175 190.06 56.429 190.226C55.7566 190.434 54.6217 190.268 54.1594 189.81C52.4782 188.188 50.9231 186.399 49.452 184.527C48.9897 183.903 48.7375 183.029 48.6535 182.239C48.5694 180.949 49.9984 179.826 50.797 180.616C53.1086 182.78 55.2102 185.151 57.3537 187.48C57.5638 187.647 57.5218 188.104 57.69 188.77Z" fill="#202023"/>
    <path d="M82.7822 151.829C82.3619 151.621 81.3952 151.329 80.8488 150.747C79.3777 149.208 77.9067 147.585 76.8139 145.796C76.3936 145.131 76.94 143.841 77.0241 142.884C77.9487 143.009 79.2096 142.843 79.798 143.384C81.5633 145.006 83.2445 146.795 84.6315 148.75C85.7243 150.248 84.8837 151.787 82.7822 151.829Z" fill="#202023"/>
    <path d="M53.5712 221.26C51.3015 221.177 46.7623 217.557 46.5521 215.81C46.4681 215.02 46.9304 213.855 47.5188 213.356C48.0232 212.981 49.3682 213.064 49.9566 213.48C51.5958 214.728 53.1509 216.143 54.5379 217.682C55.0423 218.223 55.2104 219.388 55.0002 220.095C54.8741 220.719 53.8654 221.052 53.5712 221.26Z" fill="#202023"/>
    <path d="M18.9379 225.503C18.4755 225.753 17.4248 226.71 17.0885 226.502C15.3233 225.42 13.516 224.255 12.171 222.716C11.4145 221.884 12.0449 220.553 13.4739 220.262C14.987 219.929 18.9799 223.34 18.9379 225.503Z" fill="#202023"/>
</svg>
