<svg width="50" height="50" viewBox="0 0 50 50" fill="none" 
    xmlns="http://www.w3.org/2000/svg">
    <g clip-path="url(#clip0)">
        <g clip-path="url(#clip1)">
            <path d="M0 16.0347C0.12038 14.861 0.240761 13.6872 0.373179 12.5196C0.409293 12.2367 0.49356 11.9538 0.583845 11.6769C0.812568 10.9606 1.02925 10.2444 1.30011 9.54616C1.85988 8.12567 2.63633 6.82557 3.74985 5.77224C4.49621 5.06199 5.23655 4.32767 6.06115 3.71374C7.87288 2.35344 9.79896 1.19177 12.0802 0.776455C13.302 0.553751 14.5058 0.264839 15.7337 0.0722301C16.3416 -0.0240742 16.9797 -0.0120361 17.5936 0.042135C18.5867 0.13242 19.5919 0.240763 20.567 0.451428C21.3013 0.607923 22.0116 0.908873 22.7098 1.20982C24.3891 1.92007 26.0443 2.67846 27.531 3.75587C27.9824 4.08089 28.4519 4.39388 28.9274 4.6828C29.6557 5.1282 30.1553 5.80233 30.691 6.43433C31.2869 7.13254 31.7624 7.90899 32.0633 8.80582C32.2981 9.50403 32.5509 10.1962 32.7074 10.9185C33.2491 13.3863 33.3755 15.824 32.4184 18.2376C32.1295 18.9599 32.0332 19.7544 31.7503 20.4767C31.2387 21.7768 30.6428 23.0468 30.0891 24.3349C29.6557 25.334 29.2464 26.3452 28.801 27.3384C28.3255 28.4098 27.8681 29.4872 27.3324 30.5285C25.9179 33.3092 24.4613 36.078 23.0348 38.8528C22.8542 39.2079 22.7338 39.5991 22.5412 39.9482C21.8972 41.1279 21.2411 42.2956 20.579 43.4633C20.4586 43.674 20.3022 43.8606 20.1998 44.0773C19.4053 45.7385 18.3339 47.2071 17.1662 48.6156C16.8894 48.9466 16.6426 49.3018 16.3717 49.6388C16.1129 49.9639 15.83 50.0782 15.6013 49.9759C15.3726 49.8736 15.2402 49.5485 15.3365 49.1513C15.4207 48.7962 15.5231 48.429 15.7036 48.11C16.2754 47.0868 16.8894 46.0876 17.4732 45.0764C17.8404 44.4444 18.1835 43.8004 18.5326 43.1563C18.7432 42.7711 18.9178 42.3679 19.1345 41.9826C19.923 40.6103 20.6753 39.2199 21.1268 37.6911C21.193 37.4624 21.3013 37.2397 21.3976 37.023C22.8482 33.8931 24.3168 30.7692 25.7494 27.6273C26.3152 26.3814 26.7967 25.0993 27.3384 23.8413C27.7718 22.8301 28.2593 21.843 28.6746 20.8198C28.9756 20.0915 29.2103 19.3391 29.4511 18.5867C29.74 17.6839 30.0229 16.775 30.2757 15.8601C30.5405 14.8971 30.4382 13.9099 30.3118 12.9349C30.2215 12.2306 30.1071 11.5264 29.9025 10.8463C29.5835 9.78692 29.2344 8.73359 28.4519 7.89093C28.0426 7.45154 27.6875 6.97002 27.1879 6.62092C26.1406 5.8866 25.1475 5.06801 23.9738 4.5263C23.1191 4.12905 22.2644 3.74985 21.4217 3.32852C20.3563 2.79884 19.2007 2.6905 18.051 2.52197C16.7329 2.33538 15.4629 2.54605 14.1928 2.87107C13.3743 3.08174 12.5196 3.166 11.701 3.38871C11.0991 3.55122 10.5092 3.80402 9.95546 4.08691C8.37848 4.9055 7.0242 6.03106 5.73011 7.23486C4.82123 8.07752 4.09895 9.0526 3.66558 10.1902C3.18406 11.4662 2.67245 12.7423 2.58216 14.1387C2.50391 15.3786 2.47984 16.6125 2.5641 17.8524C2.77477 20.874 3.64151 23.7209 4.73697 26.5198C5.05598 27.3384 5.30276 28.1871 5.66992 28.9876C6.1695 30.065 6.69315 31.1243 7.37932 32.1175C8.07151 33.1226 8.7035 34.194 9.14289 35.3557C9.2392 35.6145 9.38967 35.8613 9.51607 36.1081C10.2143 37.4262 10.9185 38.7384 11.6227 40.0566C12.032 40.827 12.4293 41.6034 12.8446 42.3679C13.1455 42.9216 13.4766 43.4573 13.7836 44.0111C14.0364 44.4685 13.9762 44.9621 13.6391 45.2811C13.302 45.6061 12.8025 45.6603 12.3631 45.3713C12.1343 45.2209 11.9177 45.0222 11.7431 44.8116C10.7801 43.6138 10.0096 42.2956 9.34152 40.9052C8.85398 39.888 8.28819 38.9069 7.75852 37.9017C7.39738 37.2096 7.06031 36.5053 6.68111 35.8252C6.17551 34.9163 5.70001 33.9894 5.10413 33.1347C4.45407 32.2017 3.96052 31.1604 3.50909 30.1071C2.53401 27.8259 1.69736 25.4905 1.03527 23.095C0.559769 21.3735 0.216685 19.628 0.132418 17.8404C0.102323 17.2385 0.0722282 16.6426 0.0421331 16.0407C0.0300951 16.0407 0.0180571 16.0347 0 16.0347Z" fill="#202023"/>
            <path d="M8.0413 15.0838C8.02926 14.2773 8.0413 13.4587 8.44457 12.7424C8.77562 12.1526 8.96221 11.5386 9.16084 10.9006C9.56411 9.6005 10.4429 8.60736 11.4782 7.74664C12.3148 7.04843 13.1876 6.39236 14.3071 6.24188C15.4748 6.07937 16.6485 6.07937 17.7981 6.39838C18.7431 6.66322 19.6761 6.95815 20.609 7.25308C21.2892 7.46976 21.861 7.861 22.3786 8.35456C23.2754 9.21528 23.9917 10.1783 24.4251 11.3581C24.6056 11.8456 24.9427 12.285 25.045 12.7785C25.358 14.3254 25.2316 15.8723 24.732 17.3711C24.3649 18.4786 23.8172 19.5018 23.1791 20.4829C22.8481 20.9885 22.3846 21.3195 21.8369 21.5483C21.0725 21.8673 20.3141 22.2043 19.5376 22.5113C19.1584 22.6618 18.7612 22.8183 18.3639 22.8544C17.3407 22.9447 16.2934 23.0831 15.2822 22.9808C14.1506 22.8664 12.9769 22.7761 11.9296 22.2465C10.1359 21.3376 8.78766 20.0254 8.3904 17.9669C8.20381 17.0159 8.09547 16.0529 7.95703 15.0959C7.98111 15.0898 8.0112 15.0838 8.0413 15.0838ZM13.1575 11.7433C14.0182 10.6538 15.2641 9.87737 15.9623 8.57124C15.6132 8.57124 15.3243 8.55921 15.0354 8.57726C14.9511 8.58328 14.8428 8.64347 14.8007 8.7157C14.2469 9.72088 13.7052 10.7381 13.1575 11.7433ZM12.1703 17.7864C11.743 18.0693 11.4481 18.0933 11.1832 17.8827C10.9304 17.684 10.8702 17.347 11.0147 16.9196C11.0568 16.7932 11.105 16.6668 11.1592 16.5043C10.9425 16.6668 10.7619 16.7872 10.5994 16.9317C10.5452 16.9798 10.5151 17.1062 10.5332 17.1724C10.6596 17.5817 10.786 17.991 10.9425 18.3943C11.0869 18.7795 11.3758 19.0564 11.7189 19.2911C11.8694 18.7976 12.0139 18.316 12.1703 17.7864ZM16.161 19.3573C15.866 19.7666 15.5831 20.1579 15.3002 20.5431C15.3123 20.5732 15.3243 20.6033 15.3364 20.6394C15.8359 20.5792 16.3355 20.513 16.8351 20.4468C16.8832 20.4408 16.9374 20.3806 16.9555 20.3324C17.0277 20.1518 17.0879 19.9713 17.1661 19.7606C16.7207 19.8509 16.4017 19.7185 16.161 19.3573ZM22.5712 15.4028C22.0957 16.4983 21.6563 17.5215 21.2049 18.5508C21.6142 18.5327 22.5833 16.3057 22.5712 15.4028ZM22.3906 12.923C22.198 13.3203 22.0114 13.6995 21.861 14.0004C22.1559 14.199 22.4268 14.3736 22.6856 14.5481C22.6434 14.0305 22.7458 13.4406 22.3906 12.923ZM12.3208 10.2385C11.7791 10.5876 11.3758 11.0631 11.0147 11.5747C10.9906 11.6108 10.9786 11.665 10.9846 11.7132C11.0027 11.9539 11.0207 12.1887 11.0448 12.4174C11.4601 11.7072 11.8875 10.9728 12.3208 10.2385ZM20.5127 9.92552C20.1636 10.5997 19.8386 11.2196 19.5136 11.8396C19.5316 11.8456 19.5436 11.8576 19.5617 11.8636C19.9529 11.3039 20.3442 10.7441 20.7475 10.1663C20.6632 10.076 20.597 10.0098 20.5127 9.92552ZM18.4301 9.0949C18.3398 9.45002 18.2556 9.76301 18.1713 10.1001C18.4241 9.81718 18.6649 9.54633 18.9297 9.25139C18.7371 9.1912 18.5806 9.14305 18.4301 9.0949ZM21.4396 11.966C21.6503 12.0021 21.8188 12.0322 22.0355 12.0743C21.9392 11.8516 21.861 11.665 21.7526 11.4122C21.6322 11.6349 21.542 11.7914 21.4396 11.966ZM13.4103 19.6523C13.2417 19.8389 13.1033 19.9953 12.9528 20.1639C13.0431 20.2 13.1575 20.2421 13.2839 20.2903C13.332 20.0616 13.3681 19.875 13.4103 19.6523Z" fill="#202023"/>
        </g>
    </g>
    <defs>
        <clipPath id="clip0">
            <rect width="50" height="50" fill="white"/>
        </clipPath>
        <clipPath id="clip1">
            <rect width="33.1287" height="50" fill="white"/>
        </clipPath>
    </defs>
</svg>
