<svg width="50" height="50" viewBox="0 0 50 50" fill="none" 
    xmlns="http://www.w3.org/2000/svg">
    <path d="M3.78891 24.0709C3.78891 25.5355 3.69128 27 3.80667 28.4557C4.01969 31.083 4.61438 33.6482 5.77714 36.0269C6.21207 36.9145 6.91327 37.6779 7.53459 38.459C8.12041 39.1957 8.75061 39.9058 9.40743 40.5892C10.3838 41.6011 11.4312 42.5508 12.6916 43.1988C14.023 43.8822 15.3987 44.5035 16.8011 45.0361C17.7154 45.3823 18.7095 45.5243 19.6681 45.7462C20.9462 46.0391 22.2155 46.4296 23.5114 46.5983C25.8192 46.8912 28.0914 46.6782 30.3104 45.8438C34.42 44.2905 38.0237 41.9384 41.1481 38.8761C42.3818 37.669 43.3937 36.2577 44.3257 34.7932C45.2932 33.2754 45.9056 31.6156 46.3139 29.9025C46.6423 28.5533 46.6512 27.1243 46.811 25.7308C46.8642 25.3225 46.9263 24.9053 47.0772 24.5325C47.3968 23.7425 48.0447 23.6449 48.6394 24.2573C49.1897 24.8254 49.3672 25.5621 49.4826 26.3166C49.8199 28.4202 49.5803 30.4617 48.7814 32.441C48.5684 32.9647 48.4264 33.5061 48.2045 34.021C46.5979 37.7223 44.0594 40.7046 40.9705 43.2343C38.5474 45.2136 35.9112 46.8823 33.0443 48.1338C30.6477 49.1812 28.1713 49.9268 25.5085 49.838C24.9138 49.8203 24.3103 49.9445 23.7067 49.9889C23.5025 50.0067 23.2895 50.0067 23.0942 49.9623C20.9374 49.4741 18.7539 49.0836 16.6414 48.4534C14.9816 47.9563 13.4105 47.1841 11.8128 46.5006C10.3128 45.8527 9.07014 44.8053 7.88076 43.7313C7.08192 43.0124 6.39846 42.1691 5.69726 41.3525C4.9428 40.4649 4.17058 39.5773 3.51376 38.6276C3.04333 37.9442 2.65278 37.1808 2.35988 36.3997C1.85394 35.0506 1.43677 33.6659 1.0196 32.2813C0.886458 31.8463 0.886458 31.3759 0.81545 30.9232C0.300641 27.7989 0.398277 24.6568 0.424905 21.5147C0.433781 21.0797 0.531418 20.6359 0.655682 20.2099C1.20599 18.266 1.84507 16.3666 2.6084 14.4849C3.83329 11.467 5.85703 9.05273 7.94289 6.65621C8.70623 5.78636 9.63821 5.10291 10.6323 4.49934C11.5377 3.94903 12.372 3.27445 13.2862 2.73301C13.8987 2.3691 14.5821 2.11169 15.2567 1.84541C17.6888 0.886802 20.245 0.416373 22.8191 0.0613328C23.2984 -0.000799334 23.7954 -0.00967535 24.2748 0.00807668C25.8991 0.0524567 27.5234 0.0968368 29.1477 0.194473C31.4111 0.327613 33.6034 0.895678 35.7514 1.57913C36.6923 1.87204 37.5621 2.4401 38.4409 2.90166C39.1687 3.28333 39.8522 3.76263 40.5977 4.10879C42.0534 4.78337 42.8878 5.9195 43.2605 7.44618C43.3937 7.98761 43.1984 8.46692 42.7812 8.72432C42.3552 8.98173 41.8315 8.9551 41.4232 8.59118C41.1658 8.36041 40.9972 8.03199 40.7486 7.77459C40.4912 7.50831 40.2161 7.22428 39.8965 7.05563C38.9291 6.5497 37.9527 6.07039 36.9497 5.64434C36.0088 5.23605 35.0414 4.86326 34.065 4.56147C33.0709 4.25081 32.0501 3.99341 31.0294 3.78926C30.0885 3.60286 29.1299 3.46972 28.1802 3.41647C26.689 3.33658 25.189 3.26557 23.7067 3.33658C22.4907 3.39871 21.2658 3.60286 20.0853 3.88689C18.5941 4.24193 17.1207 4.66798 15.6828 5.20054C14.9372 5.4757 14.2981 6.03489 13.6147 6.47869C13.1709 6.76272 12.7182 7.04676 12.2921 7.36629C11.6886 7.81009 11.0051 8.20064 10.5258 8.75983C9.22991 10.2865 7.87188 11.8043 6.81563 13.4907C5.56412 15.4701 4.7919 17.698 4.11733 19.9614C3.70015 21.3194 3.70015 22.6863 3.78891 24.0709Z" fill="#202023"/>
    <path d="M12.7898 23.9821C12.9496 23.3519 13.0472 22.7927 13.2425 22.2779C13.3667 21.9672 13.5975 21.6299 13.8815 21.4524C16.1804 19.9701 18.3373 20.8755 19.2072 23.2099C19.6687 24.4614 19.2427 25.7484 18.3018 26.7248C17.4142 27.6479 15.4171 27.5769 14.3875 26.6271C13.9792 26.2544 13.5709 25.8372 13.2869 25.3668C13.0294 24.9496 12.9407 24.4259 12.7898 23.9821Z" fill="#202023"/>
    <path d="M37.7747 23.2102C37.8812 24.1422 37.5439 24.9144 36.9137 25.5801C36.8515 25.6422 36.7628 25.7132 36.7539 25.7842C36.7362 26.2103 36.5498 26.5742 36.1592 26.6896C35.6799 26.8405 35.1385 27.018 34.668 26.9292C32.307 26.4765 31.0377 24.1865 32.4047 21.7989C32.8662 20.9912 33.7538 20.6716 34.6414 20.5207C35.1296 20.4409 35.6444 20.4497 36.1326 20.5207C36.9936 20.6361 37.6681 21.5149 37.7569 22.5445C37.7924 22.7664 37.7747 22.9883 37.7747 23.2102Z" fill="#202023"/>
    <path d="M25.7045 21.071C26.2726 21.1509 26.8495 21.2042 27.4087 21.3284C28.3318 21.5414 28.8999 22.1716 28.9531 23.0947C28.9975 23.8492 28.9265 24.6392 28.749 25.367C28.5004 26.3611 27.7282 26.867 26.6986 26.8582C25.3583 26.8404 24.3021 26.37 23.5743 25.1362C23.1038 24.3285 22.8021 23.5829 23.1393 22.6864C23.5388 21.6036 24.3731 21.1065 25.7045 21.071Z" fill="#202023"/>
</svg>
