<svg width="670" height="385" viewBox="0 0 670 385" fill="none" xmlns="http://www.w3.org/2000/svg">
<path d="M70.5508 24.8768C73.7981 26.6606 74.2097 27.8954 72.9291 31.5544C71.3741 35.9908 69.3616 40.2443 66.2516 44.2234C67.4864 44.2692 67.9895 43.6288 68.5841 43.08C70.871 40.9761 73.1578 38.8265 75.3989 36.7226C76.9082 35.3048 78.5547 35.0761 80.4299 35.8079C82.3966 36.5854 83.3113 38.0947 83.3113 40.0614C83.2656 45.4126 80.8873 49.849 77.5028 53.8281C76.0392 55.5661 74.3469 57.1669 72.0601 57.8529C71.557 57.9901 70.7795 58.5847 70.5051 57.7157C69.7275 55.063 68.5841 56.8467 67.7151 57.487C64.3306 59.9568 60.9918 62.4266 58.0647 65.4452C56.3267 67.2747 54.2228 68.5553 51.4329 68.4638C47.8197 68.3266 45.0298 65.5824 44.8926 61.9692C44.6639 56.4351 46.6305 51.587 49.5577 47.0134C54.1771 39.7412 59.4368 33.0179 65.7942 27.1179C66.7089 26.2947 67.8523 25.8373 68.6756 24.9683C69.3159 24.8768 69.9105 24.8768 70.5508 24.8768Z" fill="#C4E7EC"/>
<path d="M303.762 166.661C304.448 166.661 304.859 166.203 305.317 165.792C309.067 162.224 312.818 158.657 316.522 155.044C323.977 147.772 331.524 140.545 338.842 133.136C345.474 126.458 351.968 119.598 358.371 112.646C360.521 110.313 362.625 107.889 365.186 105.923C367.793 103.91 371.452 103.819 373.876 105.694C376.117 107.432 376.849 111.365 375.477 114.247C372.458 120.604 368.067 126.092 363.722 131.535C354.118 143.655 343.004 154.358 332.256 165.472C323.154 174.848 314.235 184.452 305.454 194.103C296.581 203.845 288.12 213.998 279.476 224.014C271.38 233.39 263.559 242.949 255.647 252.463C251.302 257.722 246.545 262.616 242.383 268.059C240.096 271.077 236.986 272.038 233.465 271.26C230.72 270.62 228.845 268.699 228.113 265.863C227.427 263.165 228.113 260.741 229.623 258.5C232.321 254.429 235.889 251.091 238.907 247.294C241.011 244.642 243.664 242.401 245.265 239.382C245.31 239.336 245.402 239.245 245.448 239.199C245.402 239.245 245.31 239.336 245.265 239.382C242.749 240.434 241.194 242.721 239.227 244.459C234.425 248.712 229.989 253.286 225.369 257.722C221.985 261.015 218.509 264.217 215.17 267.51C213.706 268.928 212.38 270.529 211.099 272.129C208.904 274.919 206.206 276.52 202.638 275.834C198.75 275.102 196.692 272.45 196.189 268.379C194.543 270.117 192.988 271.764 191.433 273.364C189.009 275.788 186.219 276.657 182.926 275.377C179.724 274.142 178.169 271.718 178.078 268.333C177.986 265.772 175.608 266.641 174.373 265.726C173.321 264.903 172.772 265.955 172.315 266.778C168.747 272.724 164.631 278.258 160.103 283.518C158.685 285.164 156.627 285.896 154.935 287.177C154.066 287.817 153.883 286.811 153.837 286.079C153.746 283.838 153.974 281.688 154.66 279.584C156.947 272.495 160.377 266.046 164.219 259.689C168.519 252.508 172.452 245.145 176.751 237.964C181.965 229.274 188.002 221.225 193.811 212.946C198.11 206.772 202.364 200.597 207.212 194.835C214.026 186.648 221.116 178.735 229.12 171.646C232.87 168.307 235.889 164.237 239.227 160.532C240.874 158.748 242.337 156.782 243.984 155.044C248.603 150.196 253.36 145.439 257.934 140.591C264.931 133.09 271.609 125.361 277.921 117.265C284.644 108.621 291.962 100.526 300.423 93.4821C308.107 87.079 315.928 80.7674 324.252 75.2332C326.539 73.7239 328.597 72.0774 330.472 70.0193C332.484 67.7782 335.366 67.2751 337.47 68.51C339.894 69.9735 340.808 72.6262 339.619 75.6906C338.156 79.441 335.549 82.6426 333.536 86.0728C331.661 89.2744 329.511 92.3387 327.179 95.2201C326.996 95.4488 326.813 95.7232 327.087 96.0891C328.048 96.1806 328.459 95.2659 328.963 94.717C335.183 87.948 341.266 81.0418 347.577 74.41C350.55 71.2999 353.889 68.51 357.182 65.6743C360.109 63.1588 363.722 63.4332 366.375 66.1316C368.891 68.7386 368.936 72.2146 366.375 75.1418C364.774 76.9712 363.128 78.755 361.436 80.5387C360.704 81.3162 360.246 82.048 361.573 82.5968C365.369 84.1519 365.964 88.817 364.408 92.2015C362.076 97.2783 359.332 102.081 355.947 106.517C348.721 116.076 340.991 125.223 332.987 134.188C326.722 141.185 320.364 148.183 313.915 155.044C310.759 158.428 307.649 161.904 304.539 165.289C304.128 165.7 303.762 166.066 303.762 166.661C303.579 166.798 303.442 166.935 303.304 167.118C303.259 167.164 303.167 167.255 303.121 167.301C303.213 167.255 303.259 167.164 303.35 167.118C303.487 166.981 303.625 166.844 303.762 166.661ZM325.258 98.0558C325.304 97.9643 325.395 97.9186 325.441 97.8271C325.395 97.9186 325.304 98.0101 325.258 98.0558C325.075 98.193 324.938 98.3302 324.801 98.5132C324.663 98.6504 324.48 98.8333 324.297 99.1535C324.297 99.1078 324.343 99.062 324.343 98.9705C324.297 99.0163 324.206 99.0163 324.206 99.062C324.16 99.062 324.206 99.1535 324.16 99.1992C324.206 99.1992 324.252 99.1992 324.343 99.0163C324.48 98.8791 324.663 98.6961 324.801 98.5589C324.984 98.376 325.121 98.2388 325.258 98.0558ZM323.337 100.343C323.291 100.297 323.245 100.251 323.245 100.205C323.2 100.251 323.154 100.297 323.108 100.343C323.154 100.388 323.246 100.48 323.291 100.526C323.291 100.434 323.291 100.388 323.337 100.343Z" fill="#C4E7EC"/>
<path d="M291.596 280.362C285.467 277.618 285.147 272.266 288.394 266.595C290.864 262.296 293.837 258.363 296.718 254.383C300.606 248.987 304.356 243.452 308.244 237.918C307.284 237.461 306.963 238.284 306.552 238.65C297.587 247.111 288.852 255.847 280.162 264.583C277.372 267.418 275.634 271.032 273.118 274.096C271.289 276.337 269.688 278.761 267.173 280.362C263.742 282.557 259.855 282.237 257.156 279.539C254.458 276.84 253.955 272.861 256.424 269.568C258.894 266.229 261.684 263.119 263.925 259.552C270.466 249.124 277.235 238.833 284.324 228.771C290.818 219.486 297.725 210.568 304.905 201.832C313.367 191.496 322.056 181.342 331.295 171.692C338.339 164.328 345.702 157.285 353.386 150.607C357.823 146.765 362.03 142.695 366.284 138.67C370.08 135.057 374.059 131.626 378.084 128.333C381.468 125.543 385.402 126.733 386.271 130.62C386.591 132.084 385.905 133.273 385.173 134.416C382.657 138.441 379.273 141.78 376.117 145.21C370.537 151.339 364.637 157.193 359.057 163.322C350.002 173.247 341.037 183.263 332.21 193.417C326.356 200.186 320.776 207.183 315.15 214.135C314.647 214.73 314.007 215.37 313.961 216.468C315.425 216.056 316.294 214.958 317.3 214.181C327.133 206.314 337.241 198.813 348.081 192.319C350.642 190.81 353.066 189.072 354.712 186.51C354.941 186.19 355.216 185.916 355.49 185.641C361.802 179.147 367.976 172.515 374.516 166.249C379.227 161.721 383.801 157.056 389.015 153.031C392.582 150.287 397.247 151.522 398.254 155.501C398.94 158.245 397.43 160.395 395.692 162.224C391.302 166.889 386.774 171.372 382.383 176.037C372.687 186.327 362.945 196.572 353.386 207C351.648 208.921 349.636 210.659 348.081 212.946C349.178 213.358 349.498 212.58 349.91 212.169C356.267 205.811 362.762 199.545 368.937 193.051C372.778 189.026 376.437 184.864 380.737 181.342C382.2 180.153 383.618 178.872 385.768 178.964C386.911 179.01 387.689 178.049 388.558 177.546C392.216 175.396 395.875 176.723 397.751 178.689C400.175 181.296 400.358 185.367 397.934 188.294C394.412 192.639 390.753 196.938 387.002 201.1C381.423 207.32 375.706 213.403 369.988 219.532C369.119 220.447 369.028 220.996 370.309 221.453C375.202 223.1 377.855 229.137 374.379 234.671C370.995 240.022 367.107 244.962 362.808 249.581C357.365 255.39 351.831 261.152 346.343 267.007C345.474 267.921 344.788 269.065 344.147 270.163C341.22 275.102 334.908 276.2 330.655 272.449C329.466 271.397 328.688 271.306 327.27 272.129C323.977 274.05 320.822 276.154 317.163 277.389C315.47 277.984 313.687 278.075 311.994 277.572C310.348 277.069 309.57 277.618 308.747 279.035C304.722 286.079 301.109 293.397 295.895 299.754C293.654 302.498 291.321 305.243 288.257 307.163C285.376 308.993 283.592 308.078 283.592 304.648C283.592 299.48 285.238 294.632 287.159 289.921C288.577 286.674 290.132 283.518 291.596 280.362ZM344.925 216.971C344.879 217.017 344.788 217.108 344.742 217.154C344.788 217.154 344.833 217.154 344.879 217.108C344.879 217.062 344.879 217.017 344.925 216.971C345.062 216.834 345.245 216.651 345.382 216.514C345.428 216.468 345.519 216.468 345.519 216.422C345.565 216.376 345.519 216.331 345.565 216.285C345.519 216.331 345.428 216.422 345.382 216.468C345.245 216.651 345.062 216.834 344.925 216.971ZM309.022 236.775C309.067 236.729 309.159 236.729 309.159 236.683C309.159 236.638 309.159 236.546 309.159 236.5C309.067 236.546 309.022 236.592 308.93 236.638C308.93 236.683 308.976 236.729 309.022 236.775Z" fill="#C4E7EC"/>
<path d="M238.862 120.055C241.24 119.232 242.841 117.265 244.625 115.756C251.074 110.313 257.111 104.367 263.285 98.6958C269.414 93.0702 274.902 86.6213 282.037 82.1391C284.37 80.6756 286.702 79.3949 289.721 80.2182C294.02 81.4074 295.987 85.5237 293.929 89.457C293.334 90.6004 292.602 91.6524 291.688 92.6128C280.391 104.138 270.512 116.853 260.77 129.614C253.909 138.578 247.003 147.542 239.639 156.141C232.047 165.014 224.363 173.841 216.222 182.302C211.374 187.333 206.618 192.502 201.815 197.578C194.772 204.942 187.591 212.214 180.731 219.715C175.562 225.34 170.623 231.24 165.775 237.186C163.717 239.702 161.384 242.034 157.908 242.766C153.746 243.635 150.133 240.022 150.773 235.814C151.413 231.606 153.746 228.405 156.307 225.295C164.586 215.233 173.367 205.719 182.423 196.343C189.466 189.071 196.373 181.662 203.462 174.436C207.349 170.457 211.008 166.294 214.759 162.224C215.033 161.904 215.49 161.675 215.216 160.898C213.661 161.446 212.655 162.727 211.557 163.688C206.983 167.712 202.547 171.874 198.156 176.082C191.662 182.302 185.35 188.66 178.81 194.88C176.569 197.029 174.099 198.95 171.355 200.46C166.644 202.975 161.567 200.871 160.378 195.612C159.92 193.554 160.561 191.724 161.658 190.26C166.689 183.309 171.08 175.899 177.072 169.679C180.136 166.523 183.017 163.184 185.99 159.891C186.356 159.48 186.722 159.114 186.676 158.519C186.814 158.382 186.997 158.199 187.134 158.062C187.179 158.062 187.271 158.016 187.271 158.016C187.317 158.016 187.317 157.925 187.317 157.925C187.271 157.97 187.179 158.062 187.134 158.108C186.997 158.245 186.814 158.428 186.676 158.565C182.743 160.715 179.45 163.825 175.7 166.249C171.034 169.267 166.598 172.606 162.024 175.716C158.64 178.049 155.21 177.866 152.42 175.35C149.95 173.064 149.31 168.81 151.413 165.746C157.542 157.056 163.442 148.229 170.211 139.996C175.608 133.41 180.914 126.824 186.402 120.329C189.741 116.304 193.354 112.508 196.693 108.483C200.626 103.773 205.52 100.159 210.048 96.1345C211.557 94.7624 213.387 93.7105 215.307 93.0244C218.372 91.9268 221.07 92.75 222.625 95.2655C223.906 97.3694 223.357 100.525 221.345 102.629C220.018 104.001 218.235 104.779 216.863 106.151C211.923 110.907 207.807 116.35 203.645 121.793C201.312 124.857 198.797 127.83 196.373 130.803C196.144 131.077 195.824 131.352 196.052 131.946C197.287 131.626 198.202 130.757 199.117 129.888C209.453 120.421 219.012 110.176 229.074 100.434C233.008 96.6376 237.078 93.0245 241.972 90.4175C246.957 87.7647 252.125 89.2283 253.543 94.0307C254.138 95.9516 254.138 97.9183 253.086 99.7935C250.022 105.328 245.814 110.084 242.201 115.207C241.103 116.67 239.548 118.042 238.862 120.055C238.679 120.192 238.542 120.329 238.404 120.512C238.359 120.558 238.267 120.558 238.267 120.604C238.222 120.649 238.267 120.695 238.222 120.741C238.267 120.695 238.359 120.604 238.404 120.558C238.542 120.329 238.679 120.192 238.862 120.055ZM216.863 159.343C217 159.205 217.183 159.022 217.32 158.885C217.457 158.748 217.64 158.565 217.777 158.428C217.914 158.291 218.097 158.108 218.235 157.97C218.28 157.925 218.326 157.833 218.326 157.787C218.28 157.833 218.28 157.925 218.235 157.97C218.097 158.108 217.914 158.291 217.777 158.428C217.64 158.565 217.457 158.748 217.32 158.885C217.183 159.022 217.045 159.205 216.863 159.343C216.817 159.343 216.725 159.388 216.68 159.388C216.634 159.388 216.634 159.48 216.634 159.525C216.725 159.48 216.817 159.434 216.863 159.343ZM194.452 133.273C194.635 133.181 195.092 133.501 194.955 132.907C194.817 133.044 194.635 133.181 194.452 133.273C194.406 133.364 194.406 133.41 194.36 133.456C194.406 133.41 194.452 133.364 194.452 133.273Z" fill="#C4E7EC"/>
<path d="M562.585 116.808C561.625 116.716 560.847 117.265 560.024 117.631C552.752 120.97 545.983 125.132 538.939 128.837C537.521 129.568 536.012 130.163 534.411 129.843C531.621 129.34 529.426 128.105 528.466 125.223C527.368 122.068 528.328 119.415 530.524 117.128C532.262 115.344 533.862 113.378 535.966 111.96C536.378 111.685 536.561 111.274 536.561 110.771C536.607 110.725 536.652 110.725 536.698 110.679C536.744 110.679 536.744 110.588 536.744 110.542C536.698 110.588 536.607 110.679 536.561 110.725C534.32 111.319 532.582 113.057 530.021 113.103C526.682 113.149 524.258 111.548 523.023 108.895C521.697 106.105 521.742 102.904 523.983 100.297C527.779 95.952 531.621 91.6527 535.509 87.3992C536.149 86.7132 536.698 86.0271 537.064 85.1581C537.11 85.1124 537.156 85.0209 537.156 84.9752C537.11 85.0209 537.064 85.1124 537.064 85.1581C534.091 85.2496 531.301 86.3015 528.283 86.1186C523.617 85.8442 519.913 81.2248 520.919 76.6511C521.788 72.7178 523.709 69.4247 526.545 66.6805C533.954 59.4541 541.409 52.2735 548.956 45.2301C551.837 42.5773 554.947 40.1076 558.697 38.5982C560.435 37.9122 562.173 37.8665 563.866 38.0951C566.93 38.5068 568.439 42.2572 566.518 44.8642C564.277 47.9285 561.808 50.8099 559.246 53.5999C555.816 57.2588 552.157 60.7348 548.635 64.3022C548.132 64.8053 547.355 65.1712 547.446 66.3604C552.111 64.7139 556.411 62.61 560.756 60.4603C568.302 56.6642 574.568 51.1301 581.337 46.282C584.036 44.3611 586.917 44.3611 589.661 46.2363C591.948 47.7913 592.771 50.1239 592.497 52.7766C592.314 54.7433 591.399 56.4355 589.936 57.7162C586.414 60.8262 582.755 63.7991 579.233 66.8635C575.574 70.065 572.007 73.3581 568.394 76.6054C568.028 76.9255 567.845 77.3372 567.845 77.7945C567.662 77.8403 567.433 77.886 567.25 77.9775C567.296 78.0232 567.342 78.1147 567.342 78.1604C567.525 78.0232 567.662 77.9317 567.845 77.7945C572.51 75.8279 576.443 72.7178 580.331 69.6077C585.682 65.3084 590.805 60.6433 596.11 56.2526C598.763 54.0572 601.873 52.6851 605.395 53.8743C609.74 55.3378 612.255 61.0092 607.636 66.0402C602.605 71.5286 597.299 76.7426 591.582 81.5449C585.728 86.4388 579.691 91.1496 574.294 96.5923C574.248 96.638 574.202 96.638 574.156 96.6838C574.111 96.6838 574.156 96.7752 574.111 96.821C574.156 96.7752 574.248 96.6838 574.294 96.638C579.782 95.4031 584.905 93.0706 590.21 91.1954C597.345 88.6798 603.657 84.5178 609.968 80.4473C612.026 79.1209 614.039 77.7945 616.371 77.017C619.298 76.0108 622.957 77.1999 624.467 79.5325C626.25 82.231 625.885 86.2558 623.689 88.6341C621.265 91.2868 617.972 92.6132 615.045 94.4884C610.837 97.1869 606.995 100.343 602.788 103.133C603.611 103.773 604.068 103.178 604.571 102.95C607.91 101.395 611.34 102.172 613.307 104.871C615.182 107.432 614.999 111.64 612.85 113.972C607.498 119.781 601.37 124.812 595.515 130.117C594.143 131.352 592.908 132.633 591.582 133.913C588.198 137.161 583.578 137.115 580.56 133.639C579.462 132.404 578.776 132.999 577.861 133.456C571.367 136.84 564.826 139.951 557.737 141.963C552.843 143.335 548.773 141.368 547.492 136.795C546.714 134.005 547.766 131.672 549.596 129.706C553.209 125.909 557.097 122.388 561.121 119.003C561.625 118.5 562.539 117.951 562.585 116.808C562.814 116.762 562.997 116.716 563.18 116.625C563.134 116.579 563.088 116.488 563.042 116.442C562.905 116.579 562.768 116.716 562.585 116.808ZM595.973 109.033C598.214 108.164 599.815 106.609 601.141 104.688C599.403 106.105 597.025 106.792 595.973 109.033C595.058 108.987 594.326 109.216 593.869 110.588C594.875 109.993 595.653 109.856 595.973 109.033Z" fill="#FAF1D6"/>
<path d="M110.387 342.06C104.533 341.1 102.246 336.801 104.945 332.09C109.244 324.589 113.04 316.768 119.58 310.777C122.828 307.804 125.48 307.941 127.676 311.737C128.179 312.652 128.499 312.377 129.002 311.92C131.563 309.77 133.987 307.529 136.183 304.922C139.796 300.532 144.232 299.571 147.617 303.413C148.897 304.877 149.309 306.66 148.943 308.673C148.211 312.56 145.787 315.533 143.775 319.055C144.781 318.826 145.559 318.643 146.382 318.46C149.446 317.911 151.642 319.375 153.059 321.799C154.66 324.498 153.837 327.333 152.282 329.803C147.983 336.618 143.592 343.341 139.293 350.156C138.012 352.214 136.457 354.135 135.588 356.422C134.033 360.401 132.341 361.681 128.728 361.498C126.029 361.361 123.925 359.303 122.965 355.873C121.913 355.873 121.364 356.696 120.769 357.291C117.293 360.721 113.863 364.151 110.662 367.81C108.832 369.96 106.454 370.874 103.71 369.731C100.783 368.542 99.5019 366.209 99.4104 363.099C99.2732 359.074 101.148 355.736 103.161 352.488C105.219 349.012 107.597 345.582 110.387 342.06Z" fill="#FAF1D6"/>
<path d="M148.303 143.746C148.44 140.819 150.681 137.48 152.785 134.187C158.548 124.994 165.225 116.441 172.223 108.117C178.032 101.211 184.618 95.1736 191.067 88.9534C195 85.1573 200.854 85.8891 202.729 90.3713C203.964 93.3899 203.05 96.0426 200.854 98.2837C198.476 100.753 196.006 103.132 193.582 105.556C181.05 118.133 170.028 131.946 161.292 147.451C160.011 149.692 158.228 151.521 155.575 151.978C151.047 152.71 148.257 149.92 148.303 143.746Z" fill="#C4E7EC"/>
<path d="M323.337 100.342C323.337 100.388 323.291 100.434 323.291 100.525C323.246 100.48 323.154 100.388 323.108 100.342C323.154 100.297 323.2 100.251 323.246 100.205C323.246 100.205 323.291 100.297 323.337 100.342Z" fill="white"/>
<path d="M324.343 98.9704C324.48 98.8332 324.663 98.6503 324.801 98.5131C324.663 98.696 324.48 98.8332 324.343 98.9704Z" fill="white"/>
<path d="M324.297 99.1534C324.252 99.1534 324.206 99.1534 324.16 99.1992C324.16 99.1534 324.16 99.1077 324.206 99.0619C324.252 99.0162 324.297 99.0162 324.343 98.9705C324.343 99.0162 324.297 99.1077 324.297 99.1534Z" fill="white"/>
<path d="M303.762 166.66C303.625 166.798 303.442 166.981 303.305 167.118C303.442 166.981 303.625 166.798 303.762 166.66Z" fill="white"/>
<path d="M303.304 167.118C303.213 167.164 303.167 167.255 303.076 167.301C303.167 167.255 303.259 167.164 303.304 167.118Z" fill="white"/>
<path d="M325.258 98.0554C325.35 98.0096 325.396 97.9182 325.487 97.8724C325.396 97.9182 325.35 98.0096 325.258 98.0554Z" fill="white"/>
<path d="M324.801 98.5129C324.938 98.3757 325.121 98.1928 325.258 98.0555C325.121 98.2385 324.984 98.3757 324.801 98.5129Z" fill="white"/>
<path d="M245.219 239.381C245.264 239.336 245.356 239.244 245.402 239.198C245.356 239.244 245.31 239.336 245.219 239.381Z" fill="white"/>
<path d="M309.022 236.775C308.976 236.729 308.976 236.683 308.93 236.638C309.022 236.592 309.067 236.546 309.159 236.5C309.159 236.546 309.205 236.638 309.159 236.683C309.113 236.729 309.067 236.775 309.022 236.775Z" fill="white"/>
<path d="M345.382 216.513C345.428 216.468 345.52 216.376 345.565 216.33C345.565 216.376 345.565 216.422 345.52 216.468C345.52 216.468 345.428 216.468 345.382 216.513Z" fill="white"/>
<path d="M344.925 216.971C344.879 217.016 344.879 217.062 344.833 217.108C344.833 217.154 344.742 217.108 344.696 217.154C344.788 217.108 344.879 217.016 344.925 216.971Z" fill="white"/>
<path d="M344.925 216.971C345.062 216.833 345.245 216.65 345.382 216.513C345.245 216.65 345.062 216.833 344.925 216.971Z" fill="white"/>
<path d="M194.497 133.273C194.68 133.136 194.817 133.044 195 132.907C195.092 133.502 194.634 133.182 194.497 133.273Z" fill="white"/>
<path d="M238.862 120.055C238.724 120.192 238.542 120.329 238.404 120.512C238.496 120.329 238.679 120.146 238.862 120.055C238.816 120.009 238.862 120.055 238.862 120.055Z" fill="white"/>
<path d="M238.359 120.467C238.313 120.512 238.222 120.604 238.176 120.649C238.176 120.604 238.176 120.558 238.222 120.512C238.267 120.512 238.313 120.512 238.359 120.467Z" fill="white"/>
<path d="M194.451 133.273C194.406 133.318 194.406 133.41 194.36 133.456C194.406 133.41 194.451 133.364 194.451 133.273C194.497 133.273 194.451 133.273 194.451 133.273Z" fill="white"/>
<path d="M187.133 157.971C187.179 157.925 187.271 157.833 187.316 157.788C187.316 157.833 187.316 157.879 187.271 157.879C187.271 157.925 187.225 157.971 187.133 157.971Z" fill="white"/>
<path d="M218.234 157.971C218.28 157.925 218.28 157.833 218.326 157.788C218.326 157.833 218.28 157.925 218.234 157.971Z" fill="white"/>
<path d="M187.134 157.97C186.996 158.108 186.813 158.29 186.676 158.428C186.859 158.29 186.996 158.108 187.134 157.97Z" fill="white"/>
<path d="M218.234 157.97C218.097 158.108 217.914 158.29 217.777 158.428C217.96 158.29 218.097 158.153 218.234 157.97Z" fill="white"/>
<path d="M217.777 158.428C217.64 158.565 217.457 158.748 217.319 158.885C217.502 158.748 217.64 158.611 217.777 158.428Z" fill="white"/>
<path d="M217.32 158.885C217.182 159.022 217 159.205 216.862 159.342C217.045 159.205 217.182 159.022 217.32 158.885Z" fill="white"/>
<path d="M216.862 159.343C216.816 159.388 216.725 159.48 216.679 159.525C216.679 159.48 216.679 159.434 216.725 159.388C216.771 159.388 216.816 159.388 216.862 159.343Z" fill="white"/>
<path d="M595.973 109.032C597.025 106.791 599.403 106.105 601.141 104.687C599.861 106.654 598.214 108.209 595.973 109.032Z" fill="white"/>
<path d="M595.973 109.032C595.653 109.855 594.875 109.947 593.869 110.587C594.327 109.215 595.058 108.986 595.973 109.032Z" fill="white"/>
<path d="M562.585 116.807C562.768 116.716 562.906 116.579 563.089 116.487C563.134 116.533 563.18 116.625 563.226 116.67C562.997 116.716 562.814 116.762 562.585 116.807C562.631 116.807 562.585 116.807 562.585 116.807Z" fill="white"/>
<path d="M567.616 77.9313C567.433 78.0685 567.296 78.16 567.113 78.2972C567.067 78.2514 567.021 78.16 567.021 78.1142C567.25 78.0685 567.433 78.0227 567.616 77.9313Z" fill="white"/>
<path d="M536.516 110.861C536.561 110.816 536.653 110.724 536.699 110.678C536.699 110.724 536.699 110.77 536.653 110.816C536.653 110.816 536.607 110.861 536.516 110.861C536.561 110.861 536.516 110.861 536.516 110.861Z" fill="white"/>
<path d="M536.973 85.2489C537.019 85.2031 537.065 85.1117 537.065 85.0659C537.065 85.1117 537.019 85.2031 536.973 85.2489C537.019 85.2489 536.973 85.2489 536.973 85.2489Z" fill="white"/>
<path d="M574.019 96.6833C573.974 96.7291 573.882 96.8206 573.836 96.8663C573.836 96.8206 573.836 96.7748 573.882 96.7291C573.928 96.7291 573.974 96.7291 574.019 96.6833Z" fill="white"/>
<path d="M387.597 321.387C380.279 304.419 372.916 287.359 365.552 270.208C362.442 271.214 359.744 272.358 356.862 272.998C353.249 273.821 349.59 274.187 345.931 274.782C345.657 274.827 345.337 274.919 345.062 274.965C342.638 275.696 341.403 275.056 340.992 272.586C340.397 269.156 339.985 265.68 339.482 262.204C339.299 261.015 339.116 259.826 338.933 258.682C331.433 257.859 218.372 269.202 210.048 271.626C209.819 274.827 209.59 278.166 209.407 281.505C209.362 282.648 209.453 283.792 209.362 284.935C208.996 288.457 207.99 289.326 204.468 289.6C199.528 290.012 194.634 290.698 189.695 291.018C186.127 291.247 185.076 290.378 184.71 286.856C183.658 276.474 182.743 266.092 181.782 255.709C181.234 249.718 180.639 243.772 179.953 237.781C179.084 229.823 178.078 221.91 177.117 213.998C175.425 200.094 173.87 186.19 171.995 172.286C171.126 165.746 169.388 159.297 168.382 152.756C167.421 146.125 166.918 139.447 166.186 132.815C165.546 127.235 164.768 121.655 164.082 116.076C163.625 112.234 163.122 108.392 162.756 104.504C162.436 100.571 164.54 98.6042 168.382 98.284C171.858 98.0096 175.288 97.2778 178.764 96.7747C181.234 96.4088 183.749 96.0429 186.219 95.8143C187.957 95.6771 189.238 96.3631 189.786 98.284C191.57 104.413 193.491 110.496 195.275 116.624C195.595 117.722 195.915 118.317 197.241 118.179C209.499 116.899 221.802 116.03 234.014 114.383C250.57 112.142 267.081 109.307 283.592 106.7C294.112 105.053 304.631 103.361 315.15 101.669C316.797 101.394 318.398 101.074 320.09 100.8C319.45 96.3174 318.809 91.9724 318.215 87.6274C317.666 83.4654 318.535 82.0933 322.56 81.4072C329.878 80.1266 337.287 78.9832 344.651 77.9312C347.395 77.5196 348.996 78.7545 349.499 81.5444C351.237 91.6522 352.792 101.806 354.53 111.914C355.993 120.283 357.457 128.699 359.149 137.023C362.579 153.671 366.97 170.045 372.916 185.961C377.444 198.081 382.795 209.881 387.551 221.864C390.616 229.548 393.131 237.506 396.196 245.19C398.483 250.907 395.738 254.063 391.896 256.35C389.793 257.585 387.597 258.682 385.493 259.826C384.99 260.1 384.487 260.466 383.893 260.832C388.055 268.653 392.171 276.337 396.196 283.837C398.071 282.008 399.717 279.492 402.004 278.349C404.52 277.114 407.493 278.075 410.008 279.858C412.066 275.879 414.49 272.541 419.201 271.626C423.958 270.711 427.617 272.129 429.995 276.474C432.556 274.004 435.163 272.037 438.502 271.992C440.423 271.992 442.71 272.358 444.219 273.41C447.238 275.513 449.387 278.486 450.485 282.145C453.001 290.332 455.791 298.473 458.306 306.706C461.279 316.448 464.115 326.19 467.042 335.977C467.591 337.761 467.545 339.453 465.532 340.139C463.657 340.78 462.422 339.499 461.919 337.852C459.084 329.025 456.339 320.152 453.595 311.325C451.263 303.916 449.067 296.507 446.643 289.143C445.546 285.85 444.219 282.603 442.664 279.538C441.795 277.8 440.332 276.154 437.908 277.068C435.209 278.075 432.739 279.584 432.328 282.786C432.099 284.615 431.596 285.987 429.675 286.124C427.708 286.262 427.022 284.798 426.473 283.151C426.016 281.734 425.513 280.27 424.69 279.035C422.677 276.062 419.43 275.971 417.052 278.669C415.039 280.956 414.079 283.609 414.765 286.673C414.856 287.039 414.902 287.405 414.993 287.817C415.405 289.417 414.993 290.789 413.347 291.293C411.7 291.796 410.603 290.972 409.825 289.555C408.819 287.817 407.904 285.941 406.624 284.432C405.114 282.648 404.017 282.877 402.507 284.661C401.044 286.399 400.861 288.365 401.364 290.469C401.913 292.939 402.507 295.363 403.193 297.787C403.651 299.479 403.697 301.08 401.821 301.812C399.992 302.498 398.803 301.4 398.025 299.8C393.772 291.293 389.655 282.694 385.265 274.279C380.92 265.909 376.346 257.63 371.818 249.352C371.086 248.026 370.126 246.837 369.257 245.602C367.93 243.726 366.284 243.269 364.089 244.184C362.351 244.916 361.619 246.059 362.168 247.751C363.677 252.142 365.186 256.533 367.016 260.74C374.105 277.251 381.377 293.671 388.512 310.136C389.838 313.2 391.027 316.311 392.262 319.421C393.086 321.479 392.857 323.537 391.21 324.863C388.695 326.921 386.134 329.071 383.207 330.352C379.41 332.044 375.934 330.077 372.87 327.745C371.681 326.83 370.858 325.412 369.623 324.589C368.662 323.949 367.199 323.491 366.192 323.811C365.186 324.131 363.997 325.412 363.86 326.373C363.265 330.763 368.022 338.63 372.001 340.276C375.706 341.786 379.502 341.969 383.435 341.42C389.198 340.642 394.961 340.322 400.541 342.563C407.63 345.353 412.295 350.659 415.405 357.336C418.332 363.694 420.802 370.234 423.363 376.729C423.821 377.918 424.187 379.29 424.004 380.479C423.866 381.394 422.997 382.629 422.174 382.949C421.488 383.223 420.299 382.4 419.43 381.988C419.155 381.851 418.973 381.394 418.835 381.028C416.869 376.225 415.039 371.423 412.935 366.712C411.152 362.687 409.505 358.525 407.035 354.912C401.41 346.817 393.177 345.307 383.938 346.725C377.581 347.732 371.361 347 366.192 342.883C364.18 341.283 362.671 338.904 361.482 336.526C359.698 332.867 357.868 329.117 358.646 324.772C359.286 321.113 361.847 319.238 365.095 318.414C368.251 317.591 371.315 318.186 373.602 320.884C373.968 321.296 374.288 321.707 374.654 322.073C379.868 327.516 382.063 326.418 387.597 321.387ZM167.467 103.361C167.513 103.818 167.467 104.276 167.558 104.733C168.976 113.743 170.531 122.753 171.766 131.763C172.635 138.029 172.818 144.341 173.779 150.607C174.83 157.696 176.568 164.648 177.575 171.691C178.993 181.936 179.999 192.227 181.279 202.518C182.743 214.272 184.298 226.072 185.762 237.826C186.448 243.544 187.042 249.306 187.545 255.069C188.414 264.537 189.192 274.004 189.924 283.472C190.061 285.393 190.838 285.713 192.531 285.438C195.686 284.935 198.842 284.524 202.044 284.249C203.462 284.112 203.736 283.517 203.782 282.237C203.965 278.761 204.148 275.239 204.651 271.763C205.017 269.248 205.886 266.778 209.041 266.366C223.814 264.399 238.587 262.25 253.36 260.512C268.682 258.728 284.095 257.356 299.463 255.847C307.558 255.069 315.699 254.292 323.795 253.651C328.323 253.285 332.896 253.148 337.47 253.011C340.992 252.92 343.05 254.703 343.69 258.179C344.056 260.192 344.513 262.204 344.879 264.216C345.245 266.137 345.52 268.058 345.794 269.979C351.968 269.065 357.777 268.241 363.357 265.817C361.802 262.25 360.155 258.957 359.012 255.527C358.006 252.462 357.182 249.261 356.954 246.059C356.725 242.675 359.286 240.479 362.717 240.25C363.265 240.205 363.814 240.25 364.317 240.113C368.251 239.016 371.224 240.525 373.419 243.635C376.255 247.66 378.907 251.776 381.789 256.075C384.075 254.84 386.408 253.56 388.741 252.371C392.308 250.541 392.445 250.45 390.982 246.654C384.624 230.28 378.541 213.769 371.818 197.578C364.729 180.518 359.469 162.91 355.444 144.935C352.746 132.907 350.825 120.741 348.675 108.621C347.669 102.995 347.075 97.3236 346.251 91.698C345.885 89.091 345.382 86.5297 344.925 83.877C337.744 84.9289 330.884 85.9352 323.932 86.9871C324.023 87.7646 324.023 88.1305 324.069 88.4964C324.755 92.7042 325.578 96.8662 326.127 101.074C326.539 104.367 325.258 105.876 322.011 106.517C319.77 106.974 317.529 107.248 315.242 107.614C306.278 108.941 297.313 110.176 288.395 111.639C276.091 113.697 263.88 116.487 251.531 117.997C233.19 120.283 214.759 121.747 196.327 123.531C193.171 123.851 191.982 122.89 191.113 119.78C189.42 113.56 187.682 107.386 185.899 100.983C179.587 101.806 173.641 102.538 167.467 103.361Z" fill="black"/>
<path d="M608.733 67.5029C603.885 66.7712 599.083 66.0851 594.189 65.3533C593.549 67.5944 592.908 69.744 592.222 72.1681C592.36 72.2596 592.908 72.6254 593.183 73.1285C593.594 73.9061 594.052 74.8208 593.96 75.5983C593.732 77.6565 590.942 78.8456 588.426 78.1596C585.865 77.4735 584.584 75.5983 585.499 73.4944C586.048 72.2596 587.329 71.3448 587.969 70.1099C588.792 68.5092 589.295 66.7712 590.164 64.5758C577.998 62.7006 566.381 60.9169 554.49 59.0874C554.261 61.6487 553.941 64.3014 553.758 66.9084C553.712 67.3657 554.032 67.9603 554.352 68.2805C555.725 69.6068 556.319 71.0704 555.13 72.7627C553.804 74.6379 551.791 75.141 549.642 74.7293C547.629 74.3634 546.257 72.9456 546.349 70.9332C546.394 69.5611 547.4 68.2805 547.995 66.9541C548.361 66.1766 549.047 65.5363 549.184 64.7588C549.55 62.6091 549.733 60.4138 550.007 58.0355C546.211 57.2122 542.644 56.3889 538.985 55.7029C537.567 55.4285 536.515 57.2122 536.332 59.6362C535.417 72.8541 534.457 86.0263 533.451 99.1984C532.856 106.928 532.216 114.657 531.53 122.387C531.301 124.994 530.707 127.601 530.203 130.619C534.823 130.894 539.625 131.077 544.428 131.534C552.431 132.266 560.435 133.135 568.439 134.095C575.62 134.964 582.755 135.971 589.89 136.931C592.954 137.343 596.064 137.846 599.129 138.395C600.592 138.669 601.827 139.355 601.598 141.093C601.37 142.923 599.952 143.151 598.488 142.923C593 142.145 587.512 141.368 582.023 140.544C566.839 138.303 551.7 135.651 536.332 135.102C533.862 135.01 531.347 134.507 528.877 134.05C527.048 133.684 527.093 132.403 526.636 130.665C525.264 125.314 527.231 120.329 527.505 115.161C528.008 105.281 528.923 95.448 529.792 85.6146C530.432 78.0224 531.21 70.4758 531.942 62.8835C532.216 60.1851 532.582 57.5324 532.948 54.8796C533.222 52.8215 534.366 51.2664 536.469 51.3579C540.174 51.5409 543.833 52.0897 547.492 52.5013C548.224 52.5928 548.956 52.73 549.916 52.8672C550.053 51.0378 550.099 49.3912 550.328 47.7447C550.465 46.6928 550.602 45.5036 551.151 44.7261C551.654 43.9943 552.797 43.7199 553.621 43.2168C554.032 44.0858 554.856 44.9548 554.856 45.8238C554.81 48.385 554.49 50.9463 554.215 53.9192C566.335 55.7944 578.181 57.6238 590.576 59.499C590.576 57.4866 590.53 55.7029 590.576 53.9649C590.667 52.3641 590.667 50.7176 591.125 49.2083C591.353 48.4765 592.451 48.0191 593.137 47.4246C593.686 48.1564 594.646 48.8424 594.692 49.5742C594.829 52.5471 594.738 55.5199 594.646 58.4928C594.601 59.8649 595.104 60.368 596.43 60.551C600.409 61.0998 604.388 61.7401 608.367 62.289C608.962 62.3804 609.602 62.4262 610.151 62.289C612.895 61.6029 614.039 62.4262 613.856 65.1246C613.261 73.3115 612.85 81.4984 611.981 89.6395C611.249 96.5914 609.785 103.452 608.916 110.404C607.864 118.865 607.041 127.326 606.081 135.788C606.035 136.108 606.126 136.52 605.989 136.657C605.166 137.48 604.297 138.806 603.336 138.944C601.781 139.172 600.867 137.846 601.004 136.245C601.278 132.815 601.644 129.43 602.01 126.046C603.062 116.99 604.068 107.888 605.212 98.8325C606.355 89.6852 607.59 80.5836 608.733 71.482C608.871 70.2014 608.733 68.9208 608.733 67.5029Z" fill="black"/>
<path d="M540.723 295.957C535.418 295.82 530.524 294.357 525.813 292.39C520.965 290.378 516.345 287.999 512.366 284.34C503.31 276.108 502.807 264.353 506.055 254.703C507.472 250.541 509.988 247.294 513.418 244.824C514.836 243.818 516.666 243.086 518.404 242.811C519.273 242.674 520.37 243.772 521.376 244.275C520.873 245.144 520.599 246.287 519.821 246.791C511.589 252.416 508.021 262.432 510.903 271.808C512.321 276.428 515.385 279.812 519.227 282.374C524.944 286.261 531.301 289.005 538.253 289.554C543.559 289.966 548.864 288.914 553.209 285.712C556.456 283.334 558.057 279.492 559.292 275.696C560.298 272.677 561.304 269.522 561.487 266.412C561.899 258.728 559.978 251.913 553.026 247.202C544.565 241.439 535.463 237.552 525.127 237.003C523.114 236.911 521.056 237.46 518.998 237.46C517.992 237.46 516.94 236.866 515.934 236.5C516.391 235.539 516.666 234.304 517.397 233.618C519.638 231.515 522.291 230.463 525.493 230.737C537.933 231.697 548.91 236.363 558.789 243.818C562.768 246.791 564.643 251.044 566.244 255.572C569.125 263.667 567.479 271.351 564.552 278.898C563.454 281.688 561.808 284.295 560.253 286.902C557.829 290.972 553.941 292.893 549.504 293.991C546.623 294.677 543.65 295.271 540.723 295.957Z" fill="black"/>
<path d="M134.125 358.159C133.988 359.074 133.805 359.669 133.759 360.309C133.347 367.535 128.957 369.182 123.285 369.639C120.77 369.822 118.254 369.731 115.739 369.639C113.04 369.593 112.171 368.679 112.034 365.66C109.519 365.752 108.695 364.197 108.741 361.91C108.833 356.97 109.061 352.031 108.878 347.091C108.695 341.42 108.147 335.703 107.781 330.031C107.735 329.117 107.643 328.202 107.735 327.287C107.918 325.229 108.833 323.857 111.119 323.811C113.498 323.72 115.83 323.262 118.163 323.445C126.075 324.04 133.942 323.857 141.763 322.531C148.212 321.479 148.989 322.531 148.669 328.979C148.303 336.069 148.258 343.158 148.212 350.201C148.212 352.579 147.434 354.089 145.193 355.278C141.809 357.062 138.333 358.708 134.125 358.159ZM113.452 364.288C115.968 364.288 118.346 364.288 120.678 364.288C128.042 364.334 128.682 363.693 128.637 356.467C128.637 352.762 129.917 351.619 133.576 352.534C136.549 353.266 139.156 352.717 141.58 351.07C142.22 350.659 142.815 349.652 142.861 348.921C142.952 341.877 142.906 334.834 142.906 327.333C133.073 329.894 122.645 328.202 111.668 327.882C114.504 340.231 113.406 352.305 113.452 364.288Z" fill="black"/>
<path d="M59.8027 47.242C61.8151 46.5103 63.6446 45.8699 65.657 45.1382C65.2453 43.6746 64.8337 42.394 64.605 41.0676C64.2849 39.2381 64.9709 38.3234 66.9833 38.049C68.9043 37.8203 70.7337 36.997 72.6089 36.4482C75.0787 35.7164 75.902 36.128 76.6337 38.5521C79.1035 46.6017 81.5733 54.6514 84.0888 62.701C84.7291 64.7134 84.1803 66.0855 82.2136 66.5886C80.3384 67.046 78.2803 67.5948 76.4508 67.3204C75.2159 67.1375 74.164 65.5824 72.5175 64.2103C71.1911 64.622 69.1329 65.2165 67.0291 65.9026C67.2577 66.8631 67.3035 67.5491 67.5322 68.1437C68.2639 70.0646 67.395 71.1623 65.7484 71.9398C63.9647 72.7631 62.1352 73.5406 60.3973 74.4553C59.7112 74.8212 59.2538 75.5073 58.6135 75.9646C57.9732 76.422 57.15 77.1081 56.5554 77.0166C55.8236 76.8794 54.9546 76.0561 54.7259 75.3701C52.0732 67.2747 49.5577 59.1793 47.0422 51.0839C45.4871 46.2816 46.2646 44.9552 51.1127 43.7203C51.936 43.5374 52.7135 43.2172 53.491 42.9428C56.3724 41.9366 57.6988 42.4854 58.9337 45.2754C59.1624 45.8242 59.391 46.373 59.8027 47.242ZM50.015 47.8366C52.8964 55.5661 55.6864 63.1126 58.522 70.7507C60.0771 70.0189 61.7236 69.1956 63.4159 68.4181C63.2787 67.915 63.2787 67.5948 63.1414 67.3204C62.0895 64.3933 62.4554 63.4785 65.2911 62.4723C67.4864 61.6948 69.7733 61.0545 72.0143 60.277C74.9872 59.2708 75.2616 59.408 76.9539 62.1522C77.2741 62.6553 78.0516 62.8382 78.6004 63.2041C78.6919 62.5638 79.0121 61.8778 78.8291 61.2832C77.8686 57.6243 76.8624 53.9653 75.8105 50.3064C74.8958 47.1963 73.9353 44.132 72.9291 40.7474C71.5112 41.4792 70.5965 41.8909 69.7275 42.3482C71.6027 46.373 71.374 47.2878 67.6694 48.98C65.2453 50.0777 62.7298 50.9467 60.2143 51.77C58.2476 52.4103 56.7841 51.77 55.9608 49.8033C55.5492 48.7971 55.1375 47.7451 54.7259 46.6932C53.0794 47.1048 51.6616 47.425 50.015 47.8366Z" fill="black"/>
<path d="M398.802 17.1473C399.168 15.9581 399.671 13.4883 400.678 11.2473C401.135 10.241 402.461 9.60073 403.422 8.77747C403.879 8.41158 404.565 8.1829 404.794 7.72553C407.904 2.14566 413.438 1.13946 418.789 1.73403C425.147 2.42008 430.955 5.34723 433.791 11.5217C436.215 16.7356 436.672 22.3612 433.974 27.8496C431.413 32.9721 426.016 35.8536 420.253 35.3047C413.713 34.7101 407.721 32.8349 402.873 28.1698C400.129 25.5171 398.757 22.2698 398.802 17.1473ZM422.037 30.7311C423.226 30.4566 424.506 30.4566 425.558 29.9078C431.55 26.752 432.968 16.2325 428.165 11.3845C423.409 6.58212 417.189 5.07281 411.106 7.99995C408.178 9.41779 405.571 11.7961 403.376 14.2201C401.501 16.324 403.147 22.6357 405.434 24.7396C410.099 29.0388 415.771 30.5938 422.037 30.7311Z" fill="black"/>
<path d="M563.866 98.6958C564.415 98.9702 564.735 99.1989 565.055 99.3361C569.949 101.486 571.138 107.386 567.342 111.136C565.924 112.508 564.232 113.606 562.631 114.704C562.082 115.069 561.351 115.39 560.71 115.344C557.006 115.115 553.484 114.383 550.602 111.776C549.368 110.633 548.682 109.215 549.962 107.752C551.243 106.242 552.569 106.974 554.033 107.843C555.725 108.849 557.509 109.673 559.384 110.267C561.122 110.816 564.964 107.386 564.689 105.602C564.598 104.962 563.866 104.047 563.226 103.864C561.899 103.407 560.436 103.407 559.064 102.995C558.012 102.675 556.457 102.309 556.182 101.531C555.862 100.708 556.503 99.2446 557.143 98.3756C558.195 97.0493 559.613 95.9973 560.71 94.3051C559.247 94.3966 557.783 94.488 556.32 94.5795C555.588 94.6252 554.673 94.8082 554.078 94.488C553.392 94.1221 552.661 93.2531 552.569 92.5671C552.523 92.0182 553.347 90.9206 553.896 90.7834C558.195 89.7772 562.494 89.6399 566.656 91.3322C568.76 92.1555 568.989 94.3966 567.251 95.9516C566.29 96.9121 565.101 97.7353 563.866 98.6958Z" fill="black"/>
<path d="M524.167 254.52C524.029 251.364 524.898 249.489 527.688 248.437C529.609 247.705 531.256 246.15 533.131 245.236C536.698 243.452 540.174 244.367 542.827 246.882C545.663 249.581 545.708 253.331 544.702 256.899C543.742 260.283 541.089 262.067 537.75 262.707C534.869 263.256 532.033 263.119 529.289 261.884C525.813 260.374 523.892 257.95 524.167 254.52ZM529.106 254.932C531.118 257.905 536.241 258.682 538.619 256.67C539.854 255.618 540.357 252.599 539.26 251.181C538.116 249.672 536.378 249.306 534.823 250.358C532.811 251.73 530.981 253.423 529.106 254.932Z" fill="black"/>
<path d="M539.351 264.72C542.141 265.452 545.343 266.092 548.361 267.144C550.099 267.738 551.105 269.339 550.099 271.214C549.184 272.952 547.492 272.861 545.891 272.129C540.815 269.797 535.966 270.483 531.301 273.135C530.341 273.684 529.609 274.828 529.06 275.834C528.328 277.206 527.505 278.166 525.859 277.755C524.212 277.343 523.755 275.971 524.121 274.508C524.441 273.318 524.898 271.992 525.721 271.077C529.243 267.281 534 265.955 539.351 264.72Z" fill="black"/>
<path d="M578.456 107.111C576.947 107.02 575.026 107.477 574.385 106.791C572.922 105.099 575.117 104.184 575.849 102.903C577.313 100.296 578.639 97.5521 579.782 94.7622C580.331 93.4358 580.789 92.2467 582.344 92.3839C584.036 92.5668 584.539 93.8932 584.448 95.4025C583.899 102.08 583.35 108.712 582.572 115.389C582.481 116.304 581.109 117.63 580.148 117.813C578.593 118.134 577.907 116.624 577.953 115.252C578.044 112.371 578.319 109.489 578.456 107.111Z" fill="black"/>
<path d="M490.413 209.516C491.465 209.882 492.242 210.019 492.883 210.385C498.325 213.312 503.036 217.108 506.101 222.596C506.65 223.557 506.146 225.066 506.146 226.301C505.186 226.209 503.722 226.53 503.311 226.027C499.286 221.178 494.575 217.199 489.27 213.861C488.629 213.449 488.218 211.94 488.401 211.162C488.538 210.385 489.773 209.973 490.413 209.516Z" fill="black"/>
<path d="M453.732 112.188C451.903 112.234 450.851 110.907 451.766 109.49C452.589 108.163 453.869 106.562 455.242 106.197C459.907 104.916 464.663 104.047 469.42 103.224C470.975 102.949 472.667 103.452 472.804 105.419C472.896 107.157 471.432 107.431 470.015 107.797C464.938 109.078 459.952 110.496 454.876 111.868C454.464 111.959 454.007 112.097 453.732 112.188Z" fill="black"/>
<path d="M476.326 209.058C474.497 208.601 473.079 208.006 471.57 207.869C467.728 207.503 463.84 207.32 459.953 207.092C459.404 207.046 458.809 207.229 458.398 207C457.574 206.589 456.431 205.994 456.294 205.354C456.157 204.622 456.934 203.616 457.574 202.93C457.986 202.472 458.809 202.244 459.45 202.198C464.847 201.923 470.243 201.923 475.366 204.119C476.143 204.439 476.967 204.851 477.424 205.445C477.881 206.04 478.156 207.046 477.927 207.686C477.744 208.281 476.784 208.692 476.326 209.058Z" fill="black"/>
<path d="M165.637 352.168C163.854 351.573 161.658 351.025 159.646 350.11C159.005 349.79 158.319 348.463 158.457 347.777C158.594 347.183 160.012 346.314 160.652 346.451C166.415 347.915 172.132 346.131 177.849 346.451C178.672 346.497 179.45 347.411 180.273 347.915C179.587 348.646 179.038 349.835 178.261 350.018C174.236 350.842 170.211 351.436 165.637 352.168Z" fill="black"/>
<path d="M496.862 97.2776C499.606 97.049 502.305 96.7745 505.049 96.6373C506.467 96.5459 507.976 96.5001 509.348 96.866C510.171 97.0947 510.72 98.1466 511.406 98.8784C510.72 99.473 510.08 100.433 509.302 100.571C505.826 101.074 502.35 101.394 498.874 101.714C496.679 101.897 494.484 102.171 492.288 102.034C491.282 101.988 490.322 101.074 489.315 100.571C489.864 99.7017 490.276 98.2838 491.053 98.0094C492.837 97.3691 494.85 97.2319 496.771 96.9117C496.816 97.0032 496.816 97.1404 496.862 97.2776Z" fill="black"/>
<path d="M416.96 206.039C417.417 206.177 418.24 206.222 418.835 206.634C419.384 207 420.161 207.823 420.07 208.326C419.933 208.967 419.155 209.79 418.515 209.973C413.164 211.391 407.813 212.763 402.37 213.952C401.455 214.135 400.312 213.266 399.26 212.854C399.763 211.848 400.037 210.201 400.815 209.973C404.84 208.601 408.956 207.594 413.027 206.543C414.216 206.222 415.496 206.222 416.96 206.039Z" fill="black"/>
<path d="M163.579 40.1532C165.088 40.5648 166.049 40.7478 166.964 41.0679C169.342 41.8455 171.72 42.623 174.098 43.4005C174.876 43.6749 175.699 43.8579 176.431 44.2695C177.895 45.047 179.312 46.099 178.581 47.9742C177.849 49.8494 176.065 49.5292 174.647 49.0718C170.76 47.7912 166.918 46.4191 163.167 44.8183C162.298 44.4524 161.338 42.9889 161.429 42.1656C161.475 41.3881 162.893 40.702 163.579 40.1532Z" fill="black"/>
<path d="M413.712 163.596C415.405 158.657 416.96 153.991 418.652 149.372C418.881 148.686 419.475 148 420.116 147.68C420.756 147.36 421.945 147.177 422.357 147.497C422.905 147.954 423.271 149.143 423.088 149.829C421.808 154.586 420.39 159.297 418.972 164.008C418.56 165.426 417.783 166.798 416.136 166.203C415.222 165.929 414.673 164.694 413.712 163.596Z" fill="black"/>
<path d="M429.766 132.083C430.132 131.123 430.269 130.345 430.635 129.705C432.922 125.772 435.895 122.478 439.737 119.963C440.103 119.734 440.56 119.323 440.926 119.368C442.024 119.506 443.121 119.78 444.219 120.009C443.807 120.923 443.533 121.975 442.893 122.707C440.331 125.68 437.679 128.607 435.026 131.534C434.477 132.175 434.157 133.089 433.471 133.455C432.785 133.867 431.687 134.096 431.001 133.867C430.452 133.73 430.178 132.678 429.766 132.083Z" fill="black"/>
<path d="M376.209 96.4547C375.431 95.8601 374.196 95.4027 373.968 94.671C373.739 93.9392 374.288 92.4299 374.974 92.0182C378.862 89.6857 382.841 87.4903 386.911 85.3864C387.552 85.0663 388.924 85.3864 389.518 85.8895C389.93 86.2554 389.93 87.7647 389.518 88.3136C386.179 92.5671 381.331 94.3965 376.209 96.4547Z" fill="black"/>
<path d="M198.156 67.9148C197.104 67.2288 196.052 66.7714 195.274 66.0396C192.301 63.204 189.374 60.3225 186.584 57.3039C185.99 56.6636 186.173 55.3373 185.99 54.2853C186.95 54.1024 188.048 53.645 188.871 53.8737C189.923 54.1938 190.838 55.0171 191.661 55.7946C194.314 58.4016 196.967 61.0086 199.482 63.7985C200.031 64.3931 200.122 65.628 199.985 66.4513C199.939 67.0001 198.933 67.366 198.156 67.9148Z" fill="black"/>
<path d="M219.561 316.722C221.71 316.676 222.945 318.46 221.802 319.786C218.737 323.354 215.536 326.784 212.151 330.077C211.603 330.626 209.865 330.351 208.95 329.894C208.584 329.711 208.538 327.699 209.041 327.104C211.923 323.765 214.987 320.609 218.051 317.454C218.509 316.996 219.286 316.859 219.561 316.722Z" fill="black"/>
<path d="M212.883 91.6065C212.426 92.1554 211.877 93.2531 211.191 93.3903C210.459 93.5275 209.361 92.8872 208.813 92.2468C208.218 91.5151 208.127 90.4174 207.761 89.5027C206.434 86.0267 205.016 82.5964 203.782 79.1204C203.461 78.2057 203.416 76.6964 203.919 76.1476C205.016 75.0042 206.206 75.9189 206.983 76.9251C210.276 81.1329 211.465 86.2096 212.883 91.6065Z" fill="black"/>
<path d="M439.325 202.015C441.292 202.335 443.121 202.472 444.814 203.021C445.5 203.249 446.414 204.484 446.277 205.125C446.186 205.765 445.042 206.68 444.265 206.771C439.966 207.274 435.666 207.686 431.321 207.869C430.452 207.915 429.492 206.954 428.577 206.497C429.217 205.582 429.629 204.027 430.452 203.798C433.379 202.975 436.398 202.563 439.325 202.015Z" fill="black"/>
<path d="M406.441 190.489C404.062 190.58 403.148 189.163 404.017 187.379C405.846 183.583 407.63 179.741 409.642 176.036C410.008 175.304 411.289 175.076 412.112 174.618C412.478 175.442 413.21 176.265 413.21 177.042C413.118 181.479 411.06 185.184 408.59 188.705C407.95 189.574 406.944 190.123 406.441 190.489Z" fill="black"/>
<path d="M414.17 46.9674C413.53 50.0775 412.889 53.1876 412.158 56.252C411.975 56.938 411.472 57.7156 410.923 58.0814C410.282 58.4931 409.276 58.8132 408.682 58.5845C408.133 58.3559 407.584 57.3039 407.584 56.6179C407.63 54.8341 407.858 53.0047 408.179 51.221C408.544 49.2085 409.002 47.1961 409.734 45.3209C410.1 44.3605 411.197 43.7201 411.975 42.9426C412.661 43.9031 413.393 44.8178 413.987 45.824C414.17 46.0985 414.033 46.5558 414.033 46.9674C414.033 46.9674 414.079 46.9674 414.17 46.9674Z" fill="black"/>
<path d="M240.142 287.131C239.227 291.201 238.496 294.54 237.672 297.833C237.535 298.428 237.032 299.16 236.483 299.434C235.568 299.846 234.425 300.212 233.556 299.983C233.144 299.891 232.824 298.245 232.961 297.422C233.647 293.946 234.516 290.47 235.385 287.039C235.706 285.713 236.483 284.295 237.992 284.798C238.953 285.119 239.593 286.491 240.142 287.131Z" fill="black"/>
<path d="M201.678 335.016C202.318 335.474 203.187 335.748 203.416 336.297C203.645 336.846 203.462 338.081 203.05 338.309C199.391 340.596 195.732 342.883 191.936 344.804C191.25 345.124 189.192 344.072 188.735 343.158C188.003 341.602 189.695 341.191 190.884 340.642C193.4 339.407 195.824 337.989 198.294 336.663C199.3 336.114 200.397 335.611 201.678 335.016Z" fill="black"/>
<path d="M143.318 38.0489C145.376 38.2318 147.846 38.2318 150.178 38.6892C151.093 38.8721 151.825 40.107 152.602 40.8388C151.779 41.6163 151.001 43.0342 150.178 43.0342C146.565 43.0799 142.906 42.8512 139.293 42.3938C138.515 42.3024 137.875 40.9303 137.189 40.1527C138.012 39.4667 138.79 38.5062 139.75 38.1403C140.756 37.7744 141.9 38.0489 143.318 38.0489Z" fill="black"/>
<path d="M406.121 68.738C403.788 71.9396 401.684 75.004 399.306 77.9311C398.986 78.3427 397.248 78.2055 396.745 77.7024C396.196 77.1993 395.921 75.69 396.287 75.0954C398.025 72.2598 399.9 69.4698 401.959 66.8171C402.37 66.314 403.697 66.0396 404.337 66.314C404.977 66.5427 405.343 67.5946 406.121 68.738Z" fill="black"/>
<path d="M121.41 38.1405C122.233 38.1862 123.194 38.0033 123.834 38.4149C124.612 38.8723 125.664 39.8328 125.664 40.5645C125.664 41.2963 124.566 42.4855 123.788 42.6227C120.907 43.1258 117.934 43.4002 115.007 43.4002C114.184 43.4002 113.406 42.2111 112.583 41.5708C113.223 40.8847 113.772 39.787 114.55 39.5126C116.745 38.7808 119.078 38.4149 121.319 37.8661C121.364 38.0033 121.41 38.049 121.41 38.1405Z" fill="black"/>
<path d="M91.8183 47.7906C91.3152 47.3332 90.0346 46.6929 89.9431 45.8697C89.8059 45.0464 90.6749 43.5828 91.4067 43.2627C94.1509 42.2107 97.0323 41.479 99.9137 40.7929C101.514 40.427 102.429 41.4332 101.697 42.8968C101.057 44.1774 100.051 45.5953 98.816 46.1441C96.8494 47.0131 94.5625 47.196 91.8183 47.7906Z" fill="black"/>
<path d="M408.27 333.599C407.813 335.566 407.675 337.121 407.081 338.447C406.761 339.179 405.617 339.59 404.84 340.185C404.382 339.453 403.468 338.676 403.513 337.944C403.605 336.297 403.971 334.651 404.611 333.142C404.885 332.456 406.12 331.77 406.852 331.861C407.447 331.907 407.904 333.096 408.27 333.599Z" fill="black"/>
<path d="M414.261 337.212C413.667 338.813 413.392 340.231 412.66 341.42C412.249 342.06 410.877 342.655 410.328 342.426C409.688 342.152 409.002 340.826 409.139 340.139C409.413 338.767 410.099 337.441 410.922 336.298C411.334 335.703 412.432 335.063 413.072 335.2C413.575 335.337 413.85 336.526 414.261 337.212Z" fill="black"/>
<path d="M414.856 348.555C414.856 346.039 416.411 343.615 417.783 343.844C418.332 343.936 419.155 344.805 419.201 345.399C419.384 347.274 417.646 350.11 416.502 349.881C415.725 349.744 415.176 348.829 414.856 348.555Z" fill="black"/>
<path d="M423.592 357.748C422.631 358.663 421.991 359.349 421.305 359.989C420.893 359.303 420.024 358.48 420.207 357.931C420.436 357.108 421.396 356.468 422.037 355.736C422.448 356.285 422.906 356.879 423.592 357.748Z" fill="black"/>
<path d="M317.163 127.052C317.3 127.052 317.757 127.006 318.215 127.006C321.965 126.915 323.795 128.287 324.161 132.083C325.899 148.686 330.289 164.602 335.092 180.518C337.744 189.254 340.306 197.99 342.73 206.817C344.239 212.397 345.565 218.022 346.572 223.694C346.937 225.889 346.389 228.405 345.703 230.6C345.382 231.606 343.873 232.749 342.73 232.932C337.882 233.71 332.942 234.305 328.048 234.762C308.885 236.454 289.675 237.872 270.512 239.747C259.306 240.845 248.192 242.674 237.032 244.092C230.035 245.007 222.991 245.83 215.993 246.608C212.014 247.065 210.414 245.693 210.002 241.622C208.95 230.508 208.218 219.303 206.8 208.235C205.611 198.904 203.507 189.666 202.181 180.335C201.038 172.423 200.443 164.465 199.483 156.552C199.117 153.396 198.431 150.241 197.973 147.085C197.79 146.033 197.699 144.981 197.745 143.883C197.836 142.191 198.568 141.276 200.443 140.865C215.262 137.709 230.309 137.16 245.311 135.925C253.315 135.239 261.273 133.684 269.277 132.632C284.278 130.711 299.28 128.882 314.327 127.006C315.15 126.961 315.974 127.052 317.163 127.052ZM214.896 241.988C215.719 241.988 216.039 242.034 216.314 241.988C223.22 240.936 230.172 240.159 237.032 238.787C250.067 236.225 263.194 234.762 276.366 233.756C292.602 232.521 308.839 231.103 325.075 229.731C329.786 229.319 334.451 228.816 339.162 228.359C340.58 228.222 341.495 227.627 341.266 226.026C340.992 224.105 340.809 222.139 340.306 220.309C336.281 205.582 332.073 190.9 328.094 176.128C325.944 168.124 323.795 160.12 322.057 152.024C320.685 145.576 319.907 139.035 318.855 132.358C318.764 132.358 318.489 132.266 318.169 132.266C310.668 132.861 303.122 133.227 295.667 134.141C284.736 135.468 273.85 137.297 262.919 138.715C253.818 139.904 244.67 140.91 235.523 141.825C224.592 142.969 213.661 143.929 203.096 144.935C206.16 177.866 213.798 209.515 214.896 241.988Z" fill="black"/>
<path d="M371.498 219.761C371.132 220.172 370.675 221.178 369.897 221.453C367.976 222.093 365.872 222.962 363.997 222.688C362.534 222.505 360.613 220.995 360.064 219.578C358.737 216.147 358.051 212.443 357.274 208.83C357.137 208.235 357.64 207.092 358.143 206.817C360.11 205.765 362.259 204.942 364.317 203.981C365.644 203.387 366.604 203.844 367.062 205.125C368.571 209.561 369.989 214.044 371.406 218.526C371.452 218.754 371.452 218.983 371.498 219.761ZM360.841 209.607C361.802 212.809 362.671 215.782 363.586 218.937C364.729 218.709 365.781 218.48 367.062 218.206C365.918 214.638 364.866 211.299 363.768 207.778C362.579 208.509 361.756 209.012 360.841 209.607Z" fill="black"/>
<path d="M358.28 176.859C357.411 177.637 356.633 178.552 355.673 179.146C354.438 179.832 353.02 180.152 351.74 180.747C349.041 182.073 347.898 181.524 347.12 178.552C346.251 175.35 345.336 172.148 344.376 168.947C343.415 165.7 343.964 164.693 347.303 164.053C348.401 163.824 349.498 163.413 350.642 163.413C351.419 163.413 352.654 163.733 352.929 164.236C354.667 167.941 356.176 171.737 357.777 175.487C357.868 175.762 357.868 176.082 357.96 176.402C358.051 176.539 358.143 176.676 358.28 176.859ZM347.44 167.438C348.401 170.456 349.361 173.475 350.322 176.631C351.511 175.99 352.334 175.533 353.249 175.03C352.38 172.88 351.465 170.868 350.779 168.81C350.184 167.072 349.27 166.523 347.44 167.438Z" fill="black"/>
<path d="M185.35 188.065C185.304 185.869 186.036 184.772 187.865 184.497C189.374 184.269 190.838 183.903 192.302 183.491C193.902 183.08 194.771 183.674 195 185.275C195.412 188.294 195.823 191.266 196.281 194.285C196.555 196.252 195.732 197.304 193.765 197.578C192.485 197.761 191.25 197.944 189.969 198.173C187.865 198.538 187.271 196.709 186.905 195.474C186.081 192.913 185.807 190.26 185.35 188.065ZM189.466 187.562C189.42 191.769 190.198 193.553 192.027 193.416C192.347 189.3 191.433 187.242 189.466 187.562Z" fill="black"/>
<path d="M192.164 231.789C192.119 228.222 192.164 228.176 195.778 227.993C196.464 227.947 197.15 227.993 197.836 227.856C199.482 227.49 200.397 228.222 200.626 229.731C201.174 232.933 201.678 236.18 202.089 239.382C202.181 240.022 201.815 241.303 201.403 241.394C199.071 242.034 196.647 242.492 194.222 242.812C193.948 242.858 193.262 241.989 193.171 241.531C192.805 238.238 192.484 235.037 192.164 231.789ZM196.967 238.604C197.195 238.65 197.424 238.696 197.698 238.696C198.385 236.454 197.195 234.213 197.104 231.972C197.104 231.652 196.281 231.378 195.366 230.737C196.006 233.802 196.464 236.226 196.967 238.604Z" fill="black"/>
<path d="M178.901 143.564C178.947 143.106 178.855 142.649 178.992 142.374C180.502 139.493 183.337 140.957 185.578 140.408C186.905 140.088 188.231 140.774 188.551 142.512C189.009 145.027 189.558 147.588 190.061 150.104C190.427 151.933 189.649 153.031 187.82 153.397C186.264 153.717 184.709 154.037 183.154 154.312C181.691 154.586 180.547 154.174 180.273 152.528C179.77 149.464 179.358 146.491 178.901 143.564ZM182.377 144.798C182.788 146.811 183.154 148.595 183.566 150.516C184.618 150.333 185.395 150.195 186.356 150.012C185.99 148 185.67 146.171 185.35 144.341C184.298 144.524 183.52 144.616 182.377 144.798Z" fill="black"/>
<path d="M344.33 134.553C344.101 135.102 343.964 135.971 343.598 136.062C341.586 136.611 339.482 137.252 337.424 137.297C335.777 137.343 334.908 135.925 334.725 134.187C334.451 131.855 333.948 129.568 333.582 127.235C333.262 125.223 334.039 124.079 336.143 123.714C341.266 122.845 341.266 122.799 342.684 127.83C343.232 130.025 343.736 132.221 344.33 134.553ZM338.567 133.684C340.488 132.998 340.031 128.745 337.378 126.503C337.836 129.293 338.201 131.489 338.567 133.684Z" fill="black"/>
<path d="M412.112 23.1843C412.158 20.4401 414.399 18.0618 417.097 18.0618C419.155 18.0618 421.259 18.7478 423.18 19.4796C423.82 19.7083 423.958 21.1719 424.323 22.0866C423.409 22.3153 422.494 22.7269 421.579 22.6812C420.71 22.6354 419.887 22.0409 419.018 21.8122C417.554 21.4463 416.457 21.8122 415.725 23.3672C415.405 24.0533 414.216 24.785 413.575 24.6936C412.889 24.6021 412.386 23.5044 412.112 23.1843Z" fill="black"/>
<path d="M416.914 16.7811C414.033 16.6897 412.066 15.2718 412.112 13.3052C412.158 11.3385 413.713 9.82918 415.634 9.87491C418.698 10.0121 420.756 11.2927 420.756 13.0765C420.756 15.0889 418.927 16.8269 416.914 16.7811Z" fill="black"/>
<path d="M272.752 204.21C266.304 196.023 259.626 188.156 251.531 181.57C250.296 180.564 249.015 179.512 248.009 178.323C247.552 177.774 247.277 176.402 247.597 175.945C248.1 175.35 249.335 174.847 250.067 175.076C251.485 175.487 252.903 176.219 254.138 177.088C264.291 183.903 274.445 190.809 284.552 197.715C285.467 198.355 286.29 199.224 286.885 200.139C287.159 200.551 287.114 201.649 286.794 201.969C286.382 202.426 285.467 202.609 284.827 202.518C284.141 202.426 283.501 201.831 282.86 201.466C277.783 198.264 272.707 195.108 267.356 192.181C267.904 192.821 268.362 193.553 268.956 194.148C274.445 199.956 279.933 205.765 285.421 211.573C285.787 211.939 286.336 212.259 286.519 212.717C286.794 213.494 287.251 214.592 286.931 215.095C286.565 215.644 285.239 216.056 284.598 215.781C282.357 214.866 280.025 213.952 278.104 212.534C270.054 206.771 262.187 200.78 254.229 194.925C245.356 188.385 236.483 181.845 227.61 175.213C227.016 174.755 226.787 173.795 226.375 173.109C227.29 173.017 228.434 172.514 229.074 172.88C233.19 175.213 237.352 177.454 241.148 180.198C250.89 187.379 260.449 194.834 270.054 202.152C270.923 202.838 271.838 203.524 272.752 204.21Z" fill="black"/>
<path d="M306.918 189.071C306.552 189.666 306.277 190.443 305.866 190.535C305.134 190.718 304.174 190.718 303.533 190.352C297.084 186.327 290.498 182.439 284.278 178.094C276.777 172.789 269.459 167.163 262.142 161.583C261.41 160.989 260.632 159.297 260.952 158.656C261.73 157.147 263.011 158.153 264.017 158.839C276.549 167.3 289.126 175.762 301.658 184.269C302.984 185.184 304.265 186.144 305.454 187.196C306.003 187.653 306.369 188.339 306.918 189.071Z" fill="black"/>
<path d="M263.697 221.681C263.01 221.956 262.462 222.367 262.096 222.276C261.135 222.047 260.175 221.681 259.397 221.133C251.668 215.964 243.984 210.796 236.346 205.536C235.111 204.667 233.968 203.57 233.099 202.381C232.641 201.786 232.916 200.643 232.87 199.774C233.693 199.865 234.745 199.636 235.34 200.048C242.2 204.576 249.015 209.15 255.738 213.86C258.025 215.461 260.083 217.428 262.187 219.303C262.782 219.806 263.056 220.629 263.697 221.681Z" fill="black"/>
<path d="M292.099 163.138C291.962 162.498 291.962 162.361 291.916 162.224C291.138 160.852 290.178 159.479 292.099 158.29C293.151 157.65 295.483 158.793 296.261 160.303C297.496 162.727 298.731 165.151 299.92 167.575C300.606 168.901 301.292 170.319 299.874 171.508C298.548 172.697 297.267 171.737 296.169 170.959C291.367 167.575 286.61 164.145 281.854 160.76C281.442 160.44 280.848 160.12 280.71 159.708C280.482 158.885 280.528 157.97 280.436 157.101C281.259 157.147 282.22 156.964 282.86 157.33C285.924 159.114 288.806 161.034 292.099 163.138Z" fill="black"/>
</svg>
