<svg width="37" height="37" viewBox="0 0 37 37" fill="none" 
    xmlns="http://www.w3.org/2000/svg">
    <g clip-path="url(#clip0)">
        <path d="M6.79656 23.5227C6.48154 23.7369 6.22953 23.9133 5.96491 24.0645C5.23408 24.4804 4.41504 24.3922 3.87321 23.8503C3.33138 23.3085 3.24318 22.4895 3.6842 21.7586C4.69225 20.1205 5.7255 18.4951 6.73355 16.8444C6.85956 16.6428 6.92256 16.3781 6.90996 16.1387C6.82176 13.9462 6.69575 11.7411 6.60755 9.54861C6.55714 8.08693 6.46894 6.61266 6.56974 5.15098C6.63275 4.19334 6.88476 3.31129 6.68315 2.29064C6.43114 0.992775 7.93061 0.0225266 9.26628 0.425747C9.36708 0.450948 9.46789 0.48875 9.55609 0.539153C11.862 1.63541 14.1679 2.71906 16.499 3.82792C16.8267 3.57591 17.1795 3.27349 17.5575 3.00888C18.3387 2.47965 19.12 2.50485 19.6996 3.02148C20.254 3.5129 20.3548 4.28154 19.9642 5.10058C19.7878 5.4534 19.6114 5.80622 19.435 6.15904C19.9264 6.53705 20.3926 6.92767 20.8967 7.25529C21.0227 7.34349 21.2873 7.33089 21.4511 7.26789C22.7364 6.80167 23.7192 7.4191 23.8704 8.75477C23.8956 8.98158 24.135 9.25879 24.3366 9.3974C26.5417 10.7961 28.7847 12.1569 30.9898 13.5808C31.708 14.047 32.3884 14.5889 33.0059 15.1811C34.1147 16.2521 34.2155 17.5752 33.2075 18.7219C31.3678 20.8136 29.4147 22.8045 27.1466 24.4552C25.7857 25.438 24.5508 26.5847 23.1774 27.5423C21.7913 28.5252 20.3044 29.3568 18.8932 30.2892C18.3513 30.6421 17.8599 31.0705 17.3559 31.4737C17.2929 31.5241 17.2425 31.5997 17.1669 31.6501C15.0626 33.0992 13.2229 34.9011 10.8792 35.9973C9.6065 36.5896 8.33383 36.4132 7.77941 35.3547C7.50219 34.8255 7.38879 34.1576 7.35098 33.5528C7.16197 30.3145 7.03597 27.0635 6.88476 23.8125C6.85956 23.7369 6.83436 23.6739 6.79656 23.5227ZM16.2722 21.2924C16.247 21.2672 16.2092 21.2546 16.184 21.2294C14.5207 22.7667 12.8575 24.2913 11.1942 25.8286C11.0934 25.9168 10.9926 26.0806 11.0052 26.194C11.0682 27.7061 11.1438 29.2308 11.232 30.8059C13.5001 29.5332 14.9114 28.2857 15.0374 27.6179C14.6468 27.1391 14.2561 26.7863 14.0419 26.3452C13.7395 25.7152 14.0545 25.1356 14.3821 24.5686C14.9996 23.4975 15.6296 22.4013 16.2722 21.2924ZM27.3734 16.2899C25.8613 18.3312 24.3744 20.3221 22.8876 22.3256C22.938 22.3761 22.9884 22.4265 23.0388 22.4769C25.0045 20.7758 26.9828 19.0873 29.0115 17.3358C28.3688 16.92 27.89 16.6176 27.3734 16.2899ZM13.2607 7.24269C12.3156 6.78907 11.421 6.37325 10.4129 5.89442C10.5137 7.28049 10.6019 8.50275 10.6902 9.75022C11.5596 8.91857 12.3534 8.13733 13.2607 7.24269ZM16.9401 9.77542C16.184 10.7205 15.491 11.5899 14.7854 12.4594C14.8232 12.4972 14.8484 12.5224 14.8862 12.5602C15.8186 11.8041 16.7637 11.0355 17.7843 10.2164C17.4315 10.0274 17.2047 9.91402 16.9401 9.77542Z" fill="#202023"/>
    </g>
    <defs>
        <clipPath id="clip0">
            <rect width="36" height="36" fill="white" transform="translate(0.666748 0.333344)"/>
        </clipPath>
    </defs>
</svg>
