<svg width="50" height="50" viewBox="0 0 50 50" fill="none" 
    xmlns="http://www.w3.org/2000/svg">
    <g clip-path="url(#clip0)">
        <path d="M13.0127 49.7261C11.8017 49.4702 10.7868 48.8647 9.83164 48.0972C8.64621 47.1505 8.04922 45.9139 7.97247 44.4215C7.95541 44.0548 7.97247 43.688 7.97247 43.2872C7.57164 43.2275 7.19639 43.1764 6.82115 43.1167C4.79141 42.8096 3.70831 41.5133 3.31601 39.6115C3.00899 38.1276 3.03458 36.6181 3.60597 35.1512C3.17956 35.0233 2.75314 34.8954 2.3182 34.7589C1.67857 34.5628 1.20099 34.1619 0.842799 33.5991C-0.948147 30.7932 0.0240806 25.753 4.6379 24.7296C4.88522 24.6784 5.14107 24.6443 5.43103 24.5932C5.38839 24.3544 5.32869 24.1241 5.30311 23.8853C5.10696 22.4355 5.38839 21.0795 6.16447 19.8514C6.8979 18.7086 8.08334 18.2225 9.37111 18.1116C11.1194 17.9667 12.8848 17.9581 14.6501 17.8984C15.8867 17.8558 17.0722 18.1202 18.2661 18.3675C18.5902 18.4357 18.9399 18.376 19.3322 18.376C19.2895 18.1969 19.2895 18.1031 19.2469 18.0434C18.2406 16.3463 17.7971 14.4956 17.618 12.5427C17.5071 11.3316 17.4218 10.1377 17.6947 8.9437C18.0103 7.55359 18.2576 6.13789 18.6584 4.76483C19.5369 1.77992 22.3512 -0.0195555 25.4385 0.347162C27.4597 0.585955 29.4468 2.41101 29.4041 4.70513C29.3785 6.39374 29.3615 8.09087 29.4809 9.77095C29.6429 11.9798 30.1205 14.1545 30.9222 16.2269C31.3997 17.4635 32.2952 18.4016 33.6427 18.7939C35.7236 19.4165 37.8045 19.9879 39.9622 20.2949C40.3374 20.3461 40.7212 20.4143 41.0794 20.5507C42.1284 20.9516 43.2456 20.781 44.3116 20.9772C44.8233 21.071 45.3265 21.2586 45.787 21.4974C46.3158 21.7703 46.5716 22.2649 46.546 22.879C46.5205 23.4845 46.239 23.9876 45.6847 24.1923C45.1048 24.397 44.4822 24.5164 43.8681 24.5761C42.1625 24.7467 40.525 24.2606 38.862 23.9876C36.602 23.6124 34.4102 23.0154 32.227 22.3417C30.7004 21.8726 29.5662 20.8578 28.5769 19.6553C27.3659 18.1799 26.948 16.3719 26.4789 14.5894C25.7199 11.6728 25.5408 8.71344 25.754 5.72C25.7711 5.43857 25.7711 5.1486 25.7625 4.86717C25.7455 4.37253 25.5067 4.09109 25.012 3.98022C24.0825 3.76702 22.8117 4.32988 22.3597 5.2083C22.138 5.63472 21.993 6.09524 21.8566 6.55577C21.4387 8.01412 21.0293 9.49804 21.089 11.0246C21.1572 12.8582 21.3534 14.6747 22.3597 16.2951C22.9226 17.1991 22.9994 18.2225 22.8885 19.263C22.8288 19.8514 22.5303 20.3461 22.0783 20.7213C20.7308 21.83 19.2213 22.3502 17.4815 21.9067C15.8356 21.4803 14.1811 21.4206 12.4925 21.5571C11.6823 21.6253 10.8721 21.6253 10.0704 21.6679C9.67813 21.6935 9.20055 21.6424 9.02145 22.0688C8.79972 22.6061 8.55239 23.2116 8.99587 23.7659C9.14938 23.9621 9.40523 24.1156 9.64402 24.2009C10.0363 24.3544 10.4627 24.4226 10.8721 24.5505C11.759 24.832 12.2963 25.591 12.2025 26.3926C12.1002 27.2966 11.452 27.9363 10.4969 27.9874C9.74636 28.0301 8.98734 27.9448 8.23685 27.9789C7.27315 28.0215 6.30092 28.0471 5.36281 28.2262C3.92152 28.4991 3.15397 29.7272 3.39276 31.177C3.46099 31.5864 3.66567 31.8166 4.09209 31.8252C4.77435 31.8508 5.45662 31.8849 6.13888 31.8934C7.30726 31.9019 8.46711 31.919 9.63549 31.8934C10.4116 31.8763 11.1876 31.774 11.9722 31.7399C13.0042 31.6972 13.7547 32.2942 13.857 33.1897C13.9593 34.1108 13.3453 34.9039 12.339 35.0659C10.5565 35.3559 8.83383 35.842 7.11111 36.3452C6.8979 36.4049 6.625 36.6693 6.58236 36.8739C6.43737 37.6841 6.36915 38.5028 6.69322 39.3045C6.81262 39.603 6.99171 39.7565 7.29873 39.8333C7.89571 39.9697 8.45858 39.9697 9.04704 39.7565C10.3519 39.2874 11.6055 38.6649 12.9871 38.4261C13.9252 38.264 14.7354 38.6222 15.068 39.4154C15.3921 40.1914 15.1021 41.0443 14.2664 41.5219C13.4988 41.9653 12.6801 42.3406 11.8784 42.7243C11.4861 42.912 11.3156 43.2019 11.2985 43.6284C11.2388 44.9758 12.0319 46.0845 13.3453 46.3659C13.6353 46.4256 13.9764 46.3659 14.2664 46.2721C15.1789 45.9736 16.0914 45.6581 16.9869 45.2999C17.7374 45.0014 18.4623 44.6347 19.1872 44.285C20.2618 43.7733 21.4046 43.526 22.5644 43.3043C23.5793 43.1081 24.5771 42.8011 25.6005 42.6476C27.1868 42.4088 28.7816 42.2297 30.3764 42.0762C32.3805 41.8886 34.3932 41.6668 36.3973 41.6157C37.796 41.5816 39.2032 41.8033 40.6018 41.8971C41.2244 41.9397 41.8555 41.9142 42.478 41.9483C43.1432 41.9824 43.817 41.9994 44.4737 42.0933C45.4203 42.2382 46.0002 42.9631 45.932 43.833C45.8638 44.6944 45.173 45.3767 44.2263 45.3511C42.7254 45.3255 41.2073 45.2999 39.7149 45.1293C37.0711 44.8223 34.4444 44.882 31.8091 45.2317C30.0352 45.4619 28.2528 45.6325 26.4874 45.8884C25.4811 46.0333 24.5003 46.3574 23.494 46.5024C21.7542 46.7497 20.185 47.449 18.6158 48.1995C17.2257 48.8733 15.7844 49.4361 14.2323 49.6493C14.164 49.6579 14.1043 49.692 14.0361 49.7176C13.695 49.7261 13.3538 49.7261 13.0127 49.7261Z" fill="#202023"/>
        <path d="M50.0004 30.1194C49.8554 30.8273 49.7616 31.5522 49.5484 32.2345C48.7808 34.7247 47.476 36.9506 46.0091 39.0912C45.5827 39.7138 44.8578 39.8758 44.2864 39.5262C43.7065 39.168 43.5274 38.4772 43.8771 37.8035C44.1073 37.3685 44.3802 36.9506 44.6532 36.5327C45.5827 35.1 46.3673 33.5905 46.9473 31.9871C47.2202 31.2281 47.5442 30.4862 47.8854 29.7527C48.0304 29.4372 48.235 29.1216 48.4823 28.8914C48.9258 28.482 49.4887 28.6099 49.7445 29.1557C49.881 29.4457 49.9151 29.7783 50.0004 30.1194Z" fill="#202023"/>
        <path d="M39.553 30.9555C39.3654 31.6036 39.1948 32.2603 38.9731 32.8999C38.3505 34.6823 37.6171 36.4136 36.7046 38.0681C36.4572 38.5115 36.2696 38.9891 36.0394 39.4497C35.7153 40.1063 35.0927 40.3793 34.4957 40.1405C33.9243 39.9187 33.6003 39.2791 33.8135 38.6224C34.0267 37.9657 34.2996 37.3176 34.6237 36.7121C35.5447 34.9979 36.227 33.1813 36.9007 31.3563C37.0798 30.8702 37.3612 30.4182 37.6683 30.0003C37.9326 29.6421 38.3249 29.3862 38.8196 29.5653C39.3057 29.7444 39.408 30.1708 39.4507 30.6314C39.4592 30.7337 39.4592 30.8275 39.4677 30.9299C39.5018 30.9384 39.5274 30.9469 39.553 30.9555Z" fill="#202023"/>
        <path d="M43.8251 34.3242C43.7398 34.5886 43.6716 35.0235 43.4584 35.3817C42.5118 36.9936 41.5395 38.5969 40.5417 40.1831C40.1835 40.7545 39.5951 40.8825 39.1004 40.601C38.6228 40.3281 38.4437 39.7482 38.7337 39.1427C39.1089 38.3666 39.5268 37.6076 39.9533 36.8486C40.4223 36.0043 40.9084 35.1685 41.4116 34.3498C41.6163 34.0172 41.8551 33.6846 42.1365 33.4117C42.4435 33.1132 42.8273 32.8659 43.2878 33.0791C43.7569 33.2923 43.7739 33.7443 43.8251 34.3242Z" fill="#202023"/>
        <path d="M33.4895 34.5711C33.2934 35.1851 33.1143 35.8077 32.8925 36.4217C32.5429 37.411 32.1676 38.3832 31.818 39.3725C31.5366 40.1742 30.8969 40.5921 30.1635 40.413C29.4812 40.2509 29.0122 39.5431 29.1998 38.7499C29.5921 37.104 30.1464 35.5177 31.221 34.1702C31.3575 33.9911 31.5366 33.8462 31.7156 33.7012C32.0738 33.4027 32.4747 33.2407 32.9267 33.488C33.3445 33.7182 33.4213 34.1105 33.4895 34.5711Z" fill="#202023"/>
    </g>
    <defs>
        <clipPath id="clip0">
            <rect width="50" height="50" fill="white"/>
        </clipPath>
    </defs>
</svg>
