<svg width="311" height="524" viewBox="0 0 311 524" fill="none" 
    xmlns="http://www.w3.org/2000/svg">
    <g clip-path="url(#clip0)">
        <path d="M128.51 125.95C120.333 126.199 112.571 123.871 105.349 120.047C98.043 116.14 91.1941 111.484 85.0924 105.873C80.1944 101.342 77.5794 95.3977 75.0474 89.412C73.3455 85.3799 73.8021 81.2647 73.8851 77.1496C73.9681 73.45 74.4247 69.7505 74.6323 66.0095C74.8398 62.5594 75.3794 59.2755 76.9982 56.0748C78.2435 53.6223 78.5756 50.671 79.0737 47.9276C80.4019 40.8195 83.2245 34.3766 86.6282 28.0999C88.7036 24.2341 91.6507 20.9918 94.5148 17.7496C97.877 13.9669 102.526 11.9301 106.594 9.1451C112.197 5.32089 118.714 4.11543 125.107 2.41116C130.254 0.99787 135.318 0.415924 140.589 0.291222C144.076 0.208087 147.48 -0.332291 150.966 0.374357C157.898 1.74608 164.54 3.9076 170.641 7.56554C174.875 10.1012 178.32 13.6344 181.6 17.2923C183.343 19.246 185.252 21.1165 186.373 23.4859C188.988 29.0144 191.811 34.4181 193.471 40.4039C194.758 45.0594 196.045 49.715 196.75 54.4537C197.539 59.8159 197.954 65.2612 197.124 70.7482C196.792 72.9928 196.916 75.279 196.75 77.5652C196.418 82.5118 194.592 86.9179 193.014 91.4488C191.354 96.1875 189.362 100.677 186.705 104.917C181.683 112.814 174.336 117.844 165.702 120.92C160.347 122.832 154.744 124.038 149.015 124.412C142.25 124.744 135.525 126.033 128.51 125.95ZM121.329 104.958C122.741 105.457 124.069 105.79 125.439 106.039C128.801 106.704 131.997 105.873 135.276 105.623C142.208 105.083 149.098 104.667 155.906 103.129C164.415 101.217 170.185 96.3537 173.173 88.2065C174.958 83.26 177.532 78.5213 177.49 72.9928C177.49 69.7505 178.237 66.5083 177.947 63.3076C177.241 55.3266 175.539 47.5535 172.509 40.1129C171.43 37.4941 170.392 34.7507 168.732 32.5476C165.079 27.6842 160.721 23.6522 154.744 21.6985C151.796 20.7424 148.683 19.9111 145.778 19.7864C142.997 19.6617 140.133 20.5346 137.227 19.9527C136.106 19.7448 135.027 20.0358 133.989 20.4515C131.582 21.3244 129.133 22.0726 126.642 22.4467C119.503 23.4859 113.858 27.4348 108.669 32.0072C103.937 36.164 101.447 41.8587 99.5788 47.7613C98.6242 50.7126 98.1261 53.7886 97.4619 56.7815C96.9223 59.234 96.5487 61.8527 97.0053 64.5546C98.0015 70.4572 101.571 74.8218 105.307 79.0617C106.801 80.8075 109.001 81.6804 111.367 82.3455C115.56 83.5094 119.835 84.2576 123.944 85.5878C127.722 86.8348 130.918 89.412 130.378 96.4784C130.171 99.596 127.182 103.046 123.654 104.127C122.865 104.376 121.952 104.002 121.329 104.958Z" fill="#C5E8ED"/>
        <path d="M205.384 523.958C197.248 524.374 190.15 521.839 184.546 515.853C181.018 512.07 177.864 507.913 176.95 502.551C176.369 499.184 176.535 495.776 176.826 492.409C177.033 489.915 177.199 487.296 178.32 484.968C181.06 479.19 184.92 474.202 191.271 472.498C194.508 471.625 198.244 472.248 201.731 472.623C207.459 473.246 213.104 474.535 218.542 476.613C222.693 478.193 226.345 480.354 229.251 483.804C231.119 486.007 232.032 488.584 232.281 491.369C233.734 506.251 226.013 516.809 213.851 522.919C212.814 523.418 211.651 523.834 210.489 523.917C208.829 524.083 207.127 523.958 205.384 523.958ZM190.939 494.57C190.15 499.018 192.433 502.551 195.256 505.793C198.493 509.493 204.927 510.449 208.414 509.119C212.44 507.622 217.961 501.803 217.836 495.609C217.753 492.159 217.795 492.035 214.64 490.704C208.953 488.335 203.018 486.922 196.791 487.046C195.173 487.088 194.01 487.628 192.724 488.668C190.731 490.247 190.648 492.242 190.939 494.57Z" fill="#FAF1D6"/>
        <path d="M85.4246 341.228C81.4398 341.228 77.4135 341.394 73.4287 341.186C62.8855 340.646 52.3424 339.981 41.7992 339.233C36.4861 338.858 31.2146 338.152 25.943 337.404C24.1996 337.154 22.4563 336.531 20.879 335.741C17.2677 333.87 16.064 329.714 18.0149 326.139C19.4262 323.52 22.2072 323.271 24.6562 322.938C38.9767 320.943 53.4216 320.652 67.8665 320.735C69.3608 320.735 70.8551 320.527 72.391 320.403C72.391 320.195 72.391 319.945 72.391 319.737C64.1723 319.571 55.9121 319.613 47.6934 319.114C39.2257 318.615 30.7995 317.618 22.3733 316.62C20.5054 316.412 18.6375 315.539 16.9772 314.583C14.3621 313.087 12.8263 310.8 13.0754 307.558C13.3244 304.399 14.8187 302.196 17.7243 301.032C22.3318 299.203 26.9807 297.624 32.1278 297.831C42.3388 298.205 52.5914 298.289 62.8025 298.289C69.6929 298.289 76.5833 298.039 83.4737 297.873C84.2209 297.873 84.968 297.499 85.7152 297.291C85.6737 297.125 85.6737 296.917 85.6322 296.751C83.8888 296.543 82.1454 296.335 80.4021 296.169C73.2626 295.504 66.0817 294.922 58.9422 294.215C53.8367 293.758 48.7727 293.176 43.7086 292.677C43.252 292.635 42.7124 292.594 42.2973 292.719C37.3163 294.34 32.9994 292.719 30.3844 288.188C27.0222 282.327 29.9278 275.842 36.5692 274.72C40.0974 274.138 43.7086 273.889 47.2783 273.805C57.2404 273.556 67.2024 273.307 77.1229 273.431C82.5605 273.514 87.9981 274.429 93.4358 274.761C96.7979 274.969 100.202 274.803 103.564 274.637C104.435 274.595 105.266 274.055 106.096 273.764C106.054 273.556 106.054 273.348 106.013 273.14C101.322 272.143 96.6319 271.145 91.9414 270.106C87.3755 269.108 83.0171 267.653 79.3644 264.619C79.1153 264.411 78.8248 264.162 78.5757 263.954C76.2513 261.709 74.4664 258.924 75.5456 255.848C76.5003 253.229 78.8248 250.902 81.9379 250.694C87.7076 250.361 93.5188 250.237 99.2884 250.237C103.439 250.237 107.549 250.735 111.699 250.86C119.005 251.068 125.895 252.897 132.454 255.931C138.016 258.509 143.495 261.21 148.891 264.12C150.925 265.201 152.461 267.113 154.412 268.402C158.687 271.311 163.585 272.517 168.649 272.891C181.683 273.847 192.309 268.402 201.399 259.631C204.554 256.596 207.21 253.022 210.116 249.696C215.678 243.378 222.029 237.974 228.795 232.986C233.776 229.287 238.757 225.504 243.862 222.012C251.002 217.149 259.013 214.073 267.356 211.911C274.247 210.166 281.178 208.544 288.11 207.173C291.265 206.549 294.586 206.674 297.823 206.591C302.804 206.466 307.744 206.383 312.725 206.341C315.547 206.3 318.412 206.466 321.234 206.258C327.834 205.843 334.309 206.341 340.785 207.671C347.011 208.96 353.237 210.166 359.131 212.701C368.886 216.858 378.225 221.597 386.527 228.414C393.915 234.483 402.093 239.387 410.643 243.752C416.745 246.87 422.764 250.153 429.571 251.484C438.994 253.313 448.416 254.144 457.88 251.4C460.329 250.694 461.906 251.442 462.404 253.313C462.861 255.058 461.782 256.638 459.416 257.345C453.107 259.215 446.631 259.963 440.156 259.257C433.598 258.592 426.832 258.134 420.771 255.308C413.59 251.982 406.285 248.699 399.561 244.542C391.466 239.554 384.036 233.485 376.067 228.206C365.026 220.89 352.905 215.86 339.913 213.325C334.807 212.327 329.536 212.202 324.347 211.953C320.57 211.745 316.751 211.953 312.932 211.994C301.808 212.078 290.808 212.244 279.767 214.613C273.167 216.027 266.775 217.856 260.424 219.851C254.24 221.804 248.677 225.088 243.489 228.871C237.346 233.36 231.161 237.808 225.474 242.838C220.784 246.953 216.757 251.858 212.316 256.596C215.263 259.631 218.086 262.374 220.701 265.326C222.444 267.279 224.436 268.609 226.844 269.732C231.866 272.06 234.025 276.674 234.44 281.994C234.564 283.782 235.021 285.112 236.183 286.442C238.425 288.977 240.542 291.638 242.7 294.215C243.364 295.005 244.028 295.753 244.817 296.709C247.557 294.839 250.13 292.968 252.787 291.264C257.934 287.938 262.956 284.322 268.394 281.495C278.605 276.216 289.605 272.932 301.061 272.101C310.94 271.394 320.944 271.976 330.906 272.06C340.287 272.101 349.335 274.263 358.011 277.463C369.467 281.745 380.384 287.273 390.18 294.839C397.734 300.658 405.247 306.519 412.885 312.297C422.888 319.862 433.971 325.141 446.424 326.513C456.303 327.594 466.182 326.846 475.521 322.73C476.227 322.439 476.974 321.941 477.638 322.024C478.759 322.148 480.336 322.398 480.834 323.146C481.332 323.936 481.083 325.723 480.461 326.471C479.547 327.552 478.053 328.3 476.683 328.841C470.623 331.293 464.272 332.374 457.714 332.79C449.952 333.33 442.397 332.707 434.967 330.42C424.466 327.178 415.043 321.982 406.409 315.207C398.274 308.805 390.138 302.321 381.629 296.418C372.165 289.85 361.912 284.779 350.913 281.246C343.898 279.001 336.551 278.17 329.287 277.879C319.989 277.463 310.649 277.588 301.31 277.879C297.616 278.004 293.922 278.96 290.31 279.874C281.594 282.036 273.001 284.613 265.405 289.726C259.76 293.508 253.741 296.875 248.387 301.074C242.493 305.729 237.18 311.133 231.617 316.204C224.852 322.356 218.418 328.882 211.237 334.494C202.105 341.56 192.06 347.13 181.06 351.079C172.8 354.031 164.664 357.314 156.072 359.102C144.782 361.471 133.325 362.635 121.745 363.051C114.979 363.3 108.254 364.09 101.488 364.256C94.7225 364.423 87.9566 364.132 81.1908 363.924C73.0551 363.674 64.8779 363.508 56.7423 362.968C52.9235 362.718 49.1047 361.887 45.3274 361.014C40.72 359.933 38.354 356.442 37.3163 352.119C36.5277 348.959 38.4786 346.507 41.8407 346.341C49.2708 345.967 56.7423 345.925 64.1723 345.426C70.357 345.01 76.5003 344.138 82.6851 343.389C83.6398 343.265 84.5945 342.766 85.5076 342.475C85.5076 341.935 85.4661 341.602 85.4246 341.228ZM42.6709 350.539C43.6671 354.446 46.0331 355.569 49.0217 356.151C59.6064 358.229 70.3571 357.896 81.0662 357.896C85.5076 357.896 89.9075 357.896 94.3489 357.98C99.9941 358.104 105.639 358.478 111.326 358.395C115.892 358.312 120.416 357.772 124.941 357.398C131.541 356.816 138.223 356.649 144.699 355.402C152.544 353.906 160.347 351.994 167.902 349.375C176.826 346.299 185.668 342.766 194.094 338.526C200.528 335.284 206.505 330.878 212.233 326.43C217.297 322.522 221.78 317.825 226.512 313.461C227.342 312.713 227.965 311.798 228.878 310.759C226.719 308.556 224.727 306.644 222.859 304.648C220.867 302.529 218.999 300.325 217.006 298.205C216.591 297.748 215.969 297.333 215.346 297.166C209.618 295.67 206.214 291.638 205.716 285.86C205.675 285.278 205.509 284.613 205.135 284.197C201.607 280.331 198.037 276.466 194.384 272.517C194.052 272.683 193.554 272.891 193.098 273.14C181.807 279.708 169.894 280.622 157.815 276.258C153 274.512 148.85 270.979 144.367 268.318C141.752 266.78 139.22 264.993 136.397 263.995C130.129 261.709 123.737 259.672 117.303 257.76C114.771 256.971 112.073 256.555 109.417 256.264C106.262 255.931 103.066 255.848 99.9111 255.765C94.9301 255.64 89.9905 255.599 85.0095 255.64C83.6398 255.64 82.27 256.222 80.9002 256.555C81.3983 260.296 83.9718 261.875 86.6699 262.748C91.6509 264.328 96.7979 265.45 101.862 266.739C104.186 267.321 106.635 267.695 108.877 268.485C112.364 269.732 113.318 272.891 111.243 275.967C110.579 276.965 109.583 277.837 108.586 278.544C105.764 280.539 102.402 280.539 99.2054 280.415C92.7301 280.124 86.2548 279.001 79.7795 278.96C66.3722 278.918 52.965 279.375 39.5578 279.708C38.2295 279.75 36.7767 280.124 35.6145 280.747C33.9541 281.578 33.6636 284.488 35.0749 285.029C37.1918 285.86 39.3087 286.733 41.5087 287.107C45.452 287.772 49.4368 288.105 53.4216 288.479C62.1384 289.31 70.8967 290.017 79.6134 290.89C82.7681 291.222 85.9642 291.555 88.9528 292.511C92.8961 293.758 93.4773 298.372 90.1151 300.783C88.5793 301.863 86.6699 302.653 84.802 302.903C80.6927 303.443 76.5418 303.734 72.4325 303.776C66.8288 303.817 61.2252 303.485 55.6631 303.401C48.8972 303.277 42.1313 303.318 35.3654 303.027C30.2184 302.819 25.2789 303.36 20.6299 305.521C19.7167 305.937 18.596 307.018 18.4715 307.891C18.3885 308.597 19.4677 309.803 20.3394 310.26C21.6676 310.967 23.1619 311.466 24.6562 311.59C33.1655 312.38 41.7162 313.128 50.267 313.669C59.2743 314.251 68.3646 314.417 77.372 315.04C79.987 315.207 82.602 316.204 85.1341 317.16C86.5453 317.701 87.9151 318.865 86.8774 320.735C85.8812 322.481 84.636 324.144 82.436 324.476C78.1191 325.1 73.8438 325.973 69.4854 326.139C60.9761 326.513 52.4669 326.347 43.9992 326.721C37.6484 327.012 31.3391 327.802 25.0298 328.467C24.2412 328.55 23.5355 329.215 22.7884 329.631C23.4525 330.296 24.0336 331.335 24.8638 331.584C26.8562 332.125 28.9316 332.291 30.9655 332.582C45.369 334.619 59.8139 335.325 74.3419 335.824C79.1568 335.99 84.0133 336.24 88.8283 336.739C92.5641 337.113 94.0169 340.064 92.149 343.348C91.4018 344.678 90.1566 345.842 88.8283 346.632C84.1379 349.541 78.5757 349.624 73.3872 350.622C69.7344 351.287 65.8326 350.581 62.0138 350.539C55.7046 350.497 49.3538 350.539 42.6709 350.539ZM218.833 273.847C216.342 273.307 214.682 274.761 213.312 276.715C211.61 279.084 211.527 281.869 211.278 284.613C210.863 288.728 214.101 292.137 218.169 291.679C222.112 291.264 225.391 289.643 227.55 286.068C228.629 284.239 228.836 282.493 228.214 280.539C226.719 275.801 224.561 274.221 218.833 273.847ZM240.583 300.284C237.885 296.709 235.27 293.259 232.365 289.435C229.874 293.591 226.429 295.587 222.527 296.751C226.263 300.118 229.791 303.318 233.485 306.644C235.353 304.939 237.927 302.653 240.583 300.284ZM209.535 260.379C206.007 263.538 202.603 266.531 198.992 269.732C201.358 272.226 203.724 274.72 206.256 277.422C208.082 272.683 210.863 269.316 215.512 267.861C213.437 265.242 211.444 262.748 209.535 260.379Z" fill="#202023"/>
        <path d="M186.332 85.6708C185.917 86.8347 185.585 87.957 185.169 89.0378C177.449 108.824 164.249 123.456 144.74 132.226C137.393 135.51 129.839 137.63 121.745 137.589C111.907 137.547 102.609 135.136 93.6848 131.146C88.2472 128.735 82.9757 125.991 78.7003 121.71C77.5796 120.587 76.5419 119.382 75.6702 118.052C74.7155 116.597 74.6325 114.976 76.1683 113.77C77.6626 112.607 79.0324 113.23 80.2361 114.352C87.7491 121.502 96.7565 125.867 106.635 128.527C110.994 129.691 115.56 130.481 120.084 130.73C127.722 131.229 134.903 129.109 141.918 125.991C153.872 120.671 163.544 112.648 170.891 101.924C175.249 95.5638 178.528 88.6221 180.562 81.1399C180.728 80.5164 180.23 79.4772 179.732 78.9368C173.008 71.9119 164.747 67.2564 155.906 63.5153C149.182 60.6471 142.125 59.1091 134.82 58.6103C125.273 57.9453 116.598 60.6887 108.171 64.9702C97.3791 70.4571 90.4887 79.3525 85.5077 89.9522C82.7266 95.8548 79.9455 101.841 78.6173 108.325C78.1607 110.57 76.7079 111.484 75.1721 111.11C73.5948 110.736 72.8891 109.364 73.1797 107.078C75.5457 89.5781 83.4323 74.7801 97.1301 63.931C107.383 55.8253 119.503 51.3776 133.118 51.7517C149.306 52.2089 163.336 58.1115 176.121 67.5473C181.932 71.8704 187.037 76.9 190.732 83.1767C191.271 84.1328 191.23 85.4214 191.437 86.5437C190.192 86.4606 188.988 86.4606 187.743 86.3359C187.286 86.3359 186.871 85.9618 186.332 85.6708Z" fill="#202023"/>
        <path d="M126.808 115.765C124.027 115.35 121.163 115.142 118.465 114.477C109.458 112.232 102.982 101.466 104.892 92.363C105.929 87.4996 107.631 82.9687 110.952 79.1445C118.299 70.5816 129.755 71.122 137.019 77.5649C141.17 81.2645 144.325 85.629 145.736 91.1575C148.144 100.427 145.487 107.785 137.974 112.98C134.57 115.35 130.751 115.35 126.808 115.765ZM127.099 108.99C127.099 108.948 127.099 108.907 127.099 108.865C127.514 108.865 127.929 108.865 128.344 108.865C134.57 108.824 139.219 105 139.966 98.8475C140.672 93.1528 138.555 88.2894 134.653 84.1326C131.042 80.3084 126.767 78.0222 121.495 79.6849C116.307 81.3476 113.152 85.0887 112.695 90.7834C112.612 91.6979 112.031 92.5708 111.782 93.5269C111.492 94.5661 111.076 95.6468 111.159 96.6444C111.658 102.672 116.016 107.452 121.993 108.533C123.654 108.865 125.397 108.865 127.099 108.99Z" fill="#202023"/>
        <path d="M147.563 182.107C146.94 181.276 146.068 180.528 145.695 179.572C144.325 176.038 142.914 172.505 141.918 168.847C140.465 163.527 139.303 158.123 138.099 152.719C137.601 150.557 138.223 149.186 139.718 148.812C141.212 148.438 142.706 149.31 143.121 151.347C145.072 160.451 146.94 169.595 148.725 178.699C148.933 179.696 148.517 180.777 148.393 181.858C148.102 181.941 147.812 182.024 147.563 182.107Z" fill="#202023"/>
        <path d="M103.356 46.5142C102.941 47.0546 102.609 47.9275 101.986 48.2185C101.447 48.4679 100.368 48.3016 99.9526 47.8859C98.8734 46.8467 97.8772 45.6413 97.13 44.3111C94.681 39.8218 92.315 35.291 89.9906 30.7601C89.3264 29.4299 88.9113 27.8504 90.4471 26.8528C91.8999 25.9383 93.1452 26.8528 94.0584 27.9335C94.8886 28.9311 95.6357 30.0535 96.2168 31.2173C98.2507 35.1663 100.202 39.1152 102.153 43.1056C102.609 44.1033 102.9 45.184 103.356 46.5142Z" fill="#202023"/>
        <path d="M102.983 164.358C103.647 160.783 104.145 157.291 104.934 153.883C105.266 152.511 106.096 151.223 106.968 150.1C107.424 149.56 108.628 149.186 109.251 149.394C109.915 149.643 110.371 150.641 110.703 151.389C110.911 151.846 110.745 152.47 110.662 153.01C109.998 157.25 109.375 161.448 108.67 165.688C108.545 166.436 108.337 167.185 107.964 167.85C106.926 169.595 104.975 169.637 104.021 167.85C103.481 166.81 103.315 165.563 102.983 164.358Z" fill="#202023"/>
        <path d="M77.33 69.4593C77.413 71.2467 76.1263 72.4521 74.632 72.0364C73.7603 71.787 72.8056 71.2467 72.2245 70.54C69.6095 67.5056 67.0359 64.4296 64.6284 61.2289C63.8813 60.1897 63.5492 58.6933 63.4247 57.3631C63.3417 56.6565 63.9228 55.4926 64.5039 55.2016C65.1265 54.9106 66.3718 55.2016 66.8699 55.7004C68.5302 57.3631 70.0661 59.1505 71.5188 60.9795C73.3037 63.2657 74.964 65.6351 76.6659 68.0044C76.998 68.5448 77.164 69.1267 77.33 69.4593Z" fill="#202023"/>
        <path d="M138.389 31.1341C138.597 33.7528 138.804 36.33 139.012 38.9488C139.136 40.4036 139.261 41.9416 137.31 42.4404C135.816 42.8146 134.28 41.8169 134.072 39.7386C133.616 34.8752 133.367 30.0118 133.284 25.1484C133.242 23.7351 134.197 22.4465 135.899 22.4465C137.684 22.4465 138.431 23.7766 138.555 25.3146C138.68 27.2267 138.597 29.1804 138.597 31.0925C138.472 31.1341 138.431 31.1341 138.389 31.1341Z" fill="#202023"/>
        <path d="M176.411 145.071C175.955 144.863 175.041 144.614 174.253 144.073C170.891 141.829 168.566 138.669 166.947 135.011C166.366 133.681 166.366 132.226 167.777 131.312C169.147 130.439 170.559 130.813 171.472 132.019C173.962 135.261 176.411 138.503 178.653 141.912C179.856 143.658 178.902 145.154 176.411 145.071Z" fill="#202023"/>
        <path d="M21.9995 269.025C21.9165 269.025 21.875 269.025 21.792 269.025C19.592 268.942 12.6186 262.665 12.5356 260.503C12.4941 259.797 12.9091 258.758 13.4903 258.425C14.1129 258.051 15.4412 257.885 15.9393 258.3C18.7203 260.545 21.4599 262.873 23.9089 265.408C25.2372 266.822 23.9919 268.983 21.9995 269.025Z" fill="#202023"/>
        <path d="M13.5734 285.07C9.42252 284.571 5.97732 284.156 2.57363 283.698C2.03402 283.615 1.32837 283.491 1.07932 283.117C0.581222 282.41 -0.124422 281.371 0.0831203 280.706C0.249154 280.082 1.53592 279.334 2.24156 279.375C5.93581 279.708 9.63006 280.29 13.3243 280.83C14.7356 281.038 15.8978 281.745 15.4828 283.241C15.1507 284.114 13.9469 284.696 13.5734 285.07Z" fill="#202023"/>
    </g>
    <defs>
        <clipPath id="clip0">
            <rect width="481" height="524" fill="white"/>
        </clipPath>
    </defs>
</svg>
