<svg width="50" height="50" viewBox="0 0 50 50" fill="none" 
    xmlns="http://www.w3.org/2000/svg">
    <g clip-path="url(#clip0)">
        <path d="M30.6349 12.6169C29.846 12.2301 29.7626 11.5019 29.626 10.7889C29.4364 9.81797 29.2088 8.84705 29.0116 7.90647C23.3454 8.48295 17.7399 9.32492 12.2178 10.7054C12.2481 11.1226 12.324 11.4488 12.817 11.5247C13.0218 11.555 13.2342 11.7143 13.3935 11.866C14.3189 12.7459 14.6678 13.8078 14.4478 15.0898C14.2279 16.3641 13.4997 17.2288 12.4757 17.9191C11.7399 18.4121 10.9662 18.799 10.0711 18.6017C8.51614 18.2604 7.56039 17.6157 7.24181 16.2655C7.04459 15.4235 7.25698 14.5815 7.62866 13.8078C7.82587 13.4058 8.18997 13.1631 8.66026 13.1252C9.04711 13.0948 9.35052 13.2465 9.54774 13.5879C9.74496 13.9292 9.68427 14.2478 9.52498 14.5967C9.36569 14.9456 9.25191 15.3173 9.17606 15.689C9.14572 15.8331 9.24433 16.0379 9.35052 16.1669C9.71461 16.622 10.5642 16.7433 11.0648 16.4324C11.171 16.3641 11.2772 16.3034 11.4516 16.1896C10.3821 15.9014 10.2456 14.9684 9.98769 14.1643C9.69186 13.2162 9.49464 12.2377 9.24433 11.2137C8.91057 11.2516 8.57682 11.3123 8.24307 11.3274C7.12044 11.4033 5.99782 11.4716 4.88278 11.5322C4.73866 11.5398 4.57936 11.5095 4.43524 11.4716C3.81325 11.3123 3.4264 10.842 3.45674 10.2958C3.48708 9.73453 3.93461 9.28699 4.56419 9.1808C5.80818 8.976 7.05217 8.77119 8.29616 8.56639C8.39477 8.55122 8.4858 8.51329 8.62233 8.47537C8.47821 7.75476 8.28858 7.04933 8.21272 6.32873C8.12929 5.62329 8.09136 4.8951 8.15963 4.18209C8.22031 3.51458 8.73611 3.12014 9.33535 3.12014C9.94217 3.11256 10.4125 3.53733 10.5718 4.18967C10.8676 5.37298 11.1786 6.55628 11.482 7.73959C11.4972 7.80786 11.5275 7.87613 11.5578 7.97474C17.133 6.76109 22.6931 5.56261 28.4351 5.05439C28.3745 4.70547 28.3365 4.44757 28.291 4.18967C28.1317 3.36287 27.9573 2.53607 27.8132 1.70169C27.7752 1.45896 27.7904 1.19348 27.8435 0.950746C27.98 0.343922 28.4048 -0.00500242 28.9434 -0.020173C29.4971 -0.0353436 29.9219 0.283239 30.1115 0.874893C30.4756 1.99752 30.8397 3.12773 31.2038 4.28069C32.0154 4.09106 32.8574 3.88626 33.6918 3.68904C34.291 3.55251 34.8978 3.40838 35.4971 3.28702C36.377 3.11256 36.9459 3.53733 37.4086 4.26552C38.5084 5.98739 38.4402 8.00508 39.0091 9.85589C39.6083 11.8053 39.6159 13.8382 39.942 15.8255C40.0786 16.6675 40.2455 17.517 40.473 18.3363C40.8902 19.823 41.1557 21.3325 41.3681 22.8571C41.6108 24.579 42.0052 26.2781 42.2935 27.9924C42.5514 29.5322 42.4528 31.0189 41.9673 32.5359C41.3453 34.4854 40.1393 36.0328 38.956 37.6181C37.9319 38.9835 36.8548 40.3033 35.8232 41.6611C35.5122 42.0707 35.2543 42.5258 34.9813 42.9582C34.7309 43.3602 34.4882 43.7546 34.0028 43.9139C33.9421 43.9367 33.8738 43.9973 33.8359 44.058C33.4414 44.7179 32.8119 45.1124 32.1444 45.4158C30.7031 46.0681 29.2316 46.5915 27.6159 46.675C26.8802 46.7129 26.1596 46.9556 25.4238 47.0922C23.7474 47.4031 22.0787 47.7293 20.4023 47.9948C19.1811 48.192 17.9523 48.3361 16.7234 48.4499C15.2671 48.5789 13.8865 49.0112 12.4757 49.3602C12.0888 49.4588 11.6868 49.5119 11.2924 49.5725C10.4959 49.6939 9.69944 49.7925 8.91057 49.9366C7.92448 50.1187 7.22664 49.7167 6.93081 48.7609C6.32398 46.8191 5.99782 44.8166 5.64131 42.814C5.26963 40.7508 4.89036 38.6952 4.53385 36.632C4.32905 35.4259 4.2001 34.2047 3.9953 32.9987C3.72223 31.4057 3.43398 29.8204 3.10023 28.2427C2.41755 25.0341 1.67419 21.8407 1.00669 18.6321C0.619836 16.7813 0.286083 14.9229 0.0205972 13.0493C-0.0704264 12.4197 0.0661091 11.7446 0.21023 11.1151C0.354351 10.4855 0.900493 10.1669 1.48456 10.2124C2.06104 10.2579 2.44031 10.6372 2.55409 11.3047C2.83474 12.9431 3.09265 14.5891 3.40364 16.2275C3.60845 17.2895 3.90427 18.3363 4.13942 19.3982C4.63246 21.6814 5.12551 23.957 5.5958 26.2477C6.02816 28.3564 6.47569 30.4727 6.85496 32.589C7.30249 35.0846 7.659 37.5953 8.09136 40.0909C8.46304 42.2376 8.88782 44.3766 9.28984 46.5233C9.31259 46.6294 9.33535 46.7432 9.36569 46.857C10.4276 46.8191 11.4517 46.7281 12.4453 46.4171C14.0079 45.9316 15.6084 45.6813 17.2317 45.5296C18.4605 45.4158 19.6817 45.2337 20.8954 45.0138C22.8068 44.6724 24.7032 44.2628 26.6071 43.8987C27.1608 43.7925 27.7297 43.7546 28.2986 43.6939C29.3606 43.5802 30.3315 43.1554 31.2114 42.6092C31.5679 42.3893 31.7803 41.7824 31.8865 41.3121C32.0988 40.3412 32.1823 39.3475 32.3416 38.369C32.5236 37.2616 32.4857 36.1541 32.3492 35.0467C32.3188 34.7812 32.2657 34.5233 32.2657 34.2578C32.2733 33.5145 32.7891 32.9911 33.5325 32.9C33.8966 32.8545 34.2682 32.7408 34.6172 32.6118C35.3074 32.3615 35.9977 32.1339 36.7486 32.1794C37.4844 32.2325 38.1671 31.9822 38.827 31.694C39.5704 31.3678 39.7069 30.67 39.6766 29.9721C39.6386 29.1074 39.4945 28.2427 39.3807 27.3855C39.1304 25.5347 38.8877 23.6839 38.5843 21.8483C38.4022 20.7711 38.0912 19.7092 37.8713 18.6397C37.6361 17.464 37.4086 16.2882 37.2265 15.1125C37.0596 14.043 36.999 12.9507 36.8169 11.8812C36.65 10.9178 36.3694 9.96967 36.1494 9.00634C35.9674 8.21747 35.8081 7.42859 35.6336 6.63972C35.6108 6.53353 35.5653 6.42733 35.5046 6.25287C34.2607 6.54111 33.0318 6.82936 31.7651 7.12518C31.8637 7.66374 31.9396 8.14161 32.0382 8.61949C32.0533 8.70293 32.1368 8.79395 32.2126 8.84705C33.6993 10 33.8738 11.4336 33.1835 12.8293C32.9256 13.3527 32.5388 13.8306 32.1216 14.2402C30.6728 15.6738 28.1772 15.6283 26.774 14.1492C25.9396 13.2617 25.9623 12.1846 26.2809 11.0923C26.3719 10.7737 26.554 10.4703 26.7284 10.1745C26.9257 9.83314 27.2215 9.60558 27.6159 9.51455C28.0407 9.42353 28.3896 9.54489 28.6551 9.88623C28.8978 10.1972 28.8675 10.6144 28.6703 10.9937C28.5186 11.2895 28.3745 11.6081 28.3214 11.9267C28.2 12.6397 28.5944 13.0796 29.3302 13.0721C29.7929 13.0872 30.2784 13.0948 30.6349 12.6169ZM35.0419 38.8848C35.0875 38.9076 35.133 38.9304 35.1785 38.9531C36.2101 37.5953 37.2417 36.2376 38.2733 34.8798C38.2505 34.8495 38.2202 34.8267 38.1974 34.7964C38.1064 34.8495 37.9926 34.8798 37.9244 34.9557C37.0293 36.0631 36.1342 37.163 35.2543 38.2856C35.133 38.4525 35.1102 38.6876 35.0419 38.8848ZM35.9598 35.0846C35.133 35.1832 35.0419 35.2894 35.2619 35.8356C35.4819 35.6004 35.6943 35.3729 35.9598 35.0846Z" fill="#202023"/>
        <path d="M15.7758 24.9356C15.5103 24.9659 15.2979 24.9811 15.0931 25.0266C14.4408 25.1707 13.796 25.3376 13.1437 25.4665C12.4459 25.6031 11.7783 25.2086 11.5356 24.5563C11.3005 23.9116 11.5811 23.191 12.2107 22.8344C12.3017 22.7813 12.3852 22.7282 12.4838 22.7055C13.3864 22.4779 14.2891 22.2655 15.1917 22.0304C15.6317 21.9166 16.0565 21.7801 16.4964 21.6511C16.8074 21.5601 17.1184 21.4463 17.437 21.3705C18.8023 21.0443 19.8339 21.9849 19.5836 23.3654C19.4774 23.9495 19.2423 24.5184 19.0375 25.0873C18.7796 25.7775 18.4913 26.4602 18.2031 27.1656C18.552 27.2415 18.8403 27.2718 19.1133 27.3629C20.6987 27.9242 21.5179 29.153 21.882 30.708C22.0944 31.6182 22.1854 32.5664 21.9806 33.4918C21.6772 34.8875 21.0021 36.0101 19.6443 36.6473C17.4218 37.7016 15.2979 37.3224 13.2196 36.2756C12.9465 36.1391 12.7038 35.9115 12.4838 35.6839C11.9376 35.1226 11.8921 34.2807 12.3472 33.7118C12.8175 33.1201 13.6216 32.9457 14.2891 33.3932C14.9945 33.8635 15.7682 34.0834 16.5723 34.2503C17.3156 34.402 17.9755 34.1365 18.59 33.7952C18.7948 33.6814 18.9616 33.3553 19.0147 33.1049C19.1816 32.2326 19.1589 31.3679 18.6506 30.5942C18.3321 30.1163 18.1273 30.0936 17.6418 30.3894C17.308 30.5942 16.9743 30.799 16.6329 30.9886C15.9503 31.3603 15.2979 31.3224 14.7973 30.89C14.2967 30.4577 14.145 29.8053 14.3877 29.0923C14.8125 27.8559 15.2448 26.6119 15.6696 25.3755C15.6848 25.2617 15.7227 25.1252 15.7758 24.9356Z" fill="#202023"/>
        <path d="M27.3046 27.6964C27.1984 27.8937 27.1453 28.0074 27.077 28.1212C26.7205 28.7129 26.3792 29.3197 25.9999 29.8962C25.651 30.412 25.0442 30.5637 24.5284 30.3134C24.0126 30.0631 23.7698 29.5017 23.9443 28.9025C24.005 28.6901 24.1263 28.4853 24.225 28.2881C24.8469 27.0365 25.4917 25.7925 26.0758 24.5258C26.4474 23.7142 26.5688 22.8419 26.3943 21.9392C26.3261 21.5979 26.3337 21.2338 26.3716 20.8848C26.4323 20.3084 26.9177 19.8684 27.479 19.8153C28.0479 19.7622 28.5941 20.1111 28.7761 20.6573C28.8671 20.9152 28.9051 21.1958 28.9658 21.4689C29.2237 22.6901 29.5498 23.8962 29.7243 25.125C29.9898 26.9683 30.1491 28.8267 30.3615 30.6851C30.4449 31.3753 30.5207 32.058 30.6649 32.7407C30.8469 33.6357 30.4676 34.417 29.6939 34.6142C29.0416 34.7811 28.3438 34.4929 28.1086 33.8329C27.8886 33.211 27.7369 32.551 27.6611 31.8911C27.517 30.5864 27.4487 29.2742 27.3501 27.9695C27.3425 27.9012 27.3273 27.8481 27.3046 27.6964Z" fill="#202023"/>
    </g>
    <defs>
        <clipPath id="clip0">
            <rect width="50" height="50" fill="white"/>
        </clipPath>
    </defs>
</svg>
