<svg width="50" height="50" viewBox="0 0 50 50" fill="none" 
    xmlns="http://www.w3.org/2000/svg">
    <g clip-path="url(#clip0)">
        <path d="M34.1594 43.9456C33.5156 43.9019 32.8774 43.8638 32.2336 43.8147C31.699 43.771 31.1698 43.7219 30.6407 43.6619C30.5097 43.6455 30.3733 43.5964 30.2533 43.5419C29.5987 43.2582 29.0641 42.8 28.6167 42.2653C28.4203 42.0253 28.2567 41.6871 28.2348 41.3816C28.1148 39.8431 28.0057 38.3047 27.9784 36.7609C27.9621 35.9589 28.1694 35.1624 28.5567 34.4314C28.9768 33.6349 29.6532 33.3458 30.5043 33.4276C30.8425 33.4604 31.1589 33.4549 31.4917 33.4222C31.9063 33.3731 32.3264 33.4113 32.7464 33.4058C33.8539 33.384 34.9613 33.3458 36.0688 33.3403C37.2962 33.3294 38.5237 33.2858 39.7402 33.3785C40.4549 33.4331 41.1041 33.2585 41.7805 33.1767C42.2061 33.1276 42.6316 33.0948 43.0516 33.0457C44.0991 32.9257 45.1411 32.7675 46.1885 32.6966C46.6686 32.6639 47.165 32.7512 47.6396 32.8603C48.3488 33.0239 48.687 33.6077 48.9325 34.2241C49.2053 34.9115 49.3144 35.6425 49.2762 36.3899C49.2162 37.7046 49.2108 39.0248 48.938 40.3178C48.7852 41.0488 48.5725 41.7634 48.0379 42.3308C47.716 42.6745 47.3341 42.8872 46.8595 42.9473C46.2485 43.0291 45.6429 43.1436 45.0319 43.2364C44.7919 43.2746 44.5464 43.3128 44.3009 43.3018C43.2589 43.2473 42.2333 43.3782 41.2132 43.5364C41.0332 43.5637 40.8531 43.5583 40.6676 43.5692C39.1674 43.6728 37.6617 43.7819 36.1615 43.8856C36.1124 43.891 36.0578 43.9129 36.0087 43.9292C35.3977 43.9456 34.7758 43.9456 34.1594 43.9456ZM32.8828 35.4516C32.8828 35.4297 32.8774 35.4079 32.8774 35.3916C32.0918 35.4625 31.3117 35.5279 30.5261 35.6043C30.417 35.6152 30.3079 35.648 30.2151 35.6971C30.1442 35.7352 30.0733 35.8062 30.0515 35.8825C29.8496 36.5645 29.8333 37.2628 29.8824 37.961C29.9478 38.8939 30.0242 39.8213 30.1006 40.7542C30.1115 40.8688 30.0951 41.0324 30.1606 41.0924C30.4879 41.4034 30.7716 41.7962 31.3008 41.818C31.9336 41.8453 32.5664 41.8998 33.2047 41.9216C34.1212 41.9544 35.0377 42.0035 35.9542 41.9707C36.9525 41.9325 37.94 41.7907 38.9383 41.7143C39.6093 41.6652 40.2858 41.6871 40.9513 41.6107C42.086 41.4798 43.2208 41.2997 44.3718 41.3706C44.5301 41.3816 44.6992 41.3434 44.8574 41.3161C45.2829 41.2397 45.7139 41.0979 46.1394 41.087C46.6358 41.0761 46.8049 40.8142 46.9031 40.4105C46.914 40.3669 46.925 40.3232 46.9359 40.2796C47.285 38.7466 47.345 37.1864 47.3232 35.6207C47.3123 34.7587 46.9413 34.5078 46.0848 34.6387C46.0685 34.6442 46.0466 34.6496 46.0303 34.6496C45.2938 34.7533 44.5573 34.8569 43.8208 34.9606C43.0462 35.0697 42.277 35.1843 41.5023 35.277C40.9568 35.3425 40.4058 35.4025 39.8548 35.4134C39.2874 35.4188 38.7146 35.3316 38.1418 35.337C36.3852 35.3588 34.634 35.4079 32.8828 35.4516Z" fill="#202023"/>
        <path d="M20.7445 13.3957C20.7063 14.4322 20.6845 15.5396 20.199 16.5707C19.9426 17.1217 19.5716 17.5254 19.0315 17.8473C18.0823 18.4092 17.0458 18.5128 15.9929 18.5783C14.8309 18.6547 13.6689 18.6765 12.5123 18.7474C10.3738 18.8729 8.22986 18.9656 6.0859 18.9056C5.3276 18.8838 4.5693 18.7856 3.81101 18.7256C3.67462 18.7147 3.53824 18.6983 3.40185 18.7038C2.68174 18.7365 2.04892 18.4528 1.44337 18.12C0.952386 17.8527 0.641429 17.4217 0.543232 16.8544C0.417759 16.1506 0.21591 15.4524 0.172267 14.7432C0.0904359 13.412 0.063159 12.0755 0.0740697 10.7389C0.0795251 9.7733 0.35775 8.87317 0.985118 8.11487C1.66704 7.28565 2.53445 6.84922 3.63643 6.96378C3.70735 6.96924 3.78373 6.98015 3.84919 6.96378C4.94027 6.6801 6.05862 6.66374 7.17697 6.66374C8.74812 6.66374 10.3193 6.61464 11.8904 6.64192C13.0524 6.66374 14.209 6.78921 15.371 6.83286C15.9492 6.85468 16.533 6.76739 17.1112 6.7783C17.744 6.78921 18.3823 6.80012 19.0042 6.90378C19.7462 7.02925 20.1062 7.4875 20.2535 8.22943C20.5808 9.90969 20.6518 11.6172 20.7445 13.3957ZM13.7944 16.4561C13.7944 16.4725 13.7998 16.4889 13.7998 16.5052C14.9291 16.3961 16.0583 16.3143 17.1821 16.1725C17.6895 16.107 18.1314 15.8779 18.2787 15.3051C18.5351 14.3395 18.5842 13.3466 18.5514 12.3592C18.5133 11.2626 18.366 10.1715 18.2787 9.07502C18.2623 8.90044 18.2132 8.8077 18.0168 8.81861C17.7004 8.83498 17.3785 8.83498 17.0621 8.84043C16.2656 8.85134 15.4692 8.88408 14.6727 8.86771C12.8397 8.82952 11.0012 8.7586 9.16819 8.72042C8.52445 8.70951 7.88072 8.77497 7.23698 8.77497C6.11863 8.78588 5.00028 8.78588 3.92557 9.16776C3.751 9.23322 3.54915 9.25504 3.36366 9.24413C3.05816 9.22777 2.85086 9.36961 2.71447 9.60964C2.589 9.83331 2.46353 10.0788 2.41988 10.3298C2.34351 10.7498 2.2835 11.1808 2.31078 11.6009C2.40352 13.0193 2.29441 14.454 2.67629 15.8506C2.79085 16.2707 2.87814 16.4016 3.27092 16.4452C3.77827 16.4998 4.28017 16.5925 4.78752 16.598C6.51142 16.6198 8.24077 16.6307 9.96467 16.6034C11.2358 16.5871 12.5123 16.5052 13.7944 16.4561Z" fill="#202023"/>
        <path d="M48.9328 12.4353C48.8891 13.3409 48.9273 14.2465 48.6218 15.1303C48.229 16.2705 47.3234 16.996 46.1123 17.0561C45.9596 17.0615 45.8014 17.0833 45.6486 17.0724C44.563 16.9742 43.5374 17.3779 42.4682 17.4488C41.2189 17.5307 39.9696 17.6016 38.7203 17.6943C37.8856 17.7543 37.0564 17.8198 36.2272 17.9235C35.4198 18.0217 34.6179 17.9944 33.8105 17.9344C32.7521 17.8525 31.6883 17.8253 30.63 17.7652C30.4063 17.7543 30.1772 17.7271 29.959 17.6725C28.6933 17.3506 28.0005 16.6087 27.8477 15.2831C27.6786 13.7937 27.4931 12.3044 27.6077 10.7987C27.6677 9.96405 27.8041 9.1512 28.0878 8.34926C28.4478 7.34001 29.1788 6.83266 30.1881 6.69082C31.6938 6.47806 33.2049 6.39623 34.7215 6.39623C36.189 6.39078 37.662 6.3144 39.1295 6.24894C40.6733 6.18347 42.2117 6.07982 43.7556 6.02527C44.6176 5.99253 45.4795 5.98708 46.3415 6.03618C47.0889 6.07436 47.6562 6.45079 47.9945 7.14907C48.5018 8.19105 48.7473 9.30395 48.8346 10.4496C48.8837 11.1097 48.9 11.7698 48.9328 12.4353ZM34.8961 8.58384C33.3795 8.51292 31.9993 8.67113 30.6136 8.81842C30.4063 8.84024 30.2372 8.90025 30.1172 9.09665C30.0244 9.2494 29.8608 9.35305 29.7517 9.49489C29.6589 9.61491 29.5498 9.75129 29.528 9.89313C29.3261 11.1042 29.3534 12.3153 29.5007 13.5319C29.5607 14.0447 29.5989 14.5629 29.6807 15.0703C29.7735 15.654 29.9317 15.7413 30.5263 15.7413C31.6174 15.7413 32.703 15.7631 33.7941 15.7849C34.356 15.7959 34.9179 15.8559 35.4798 15.8231C36.3418 15.7686 37.1928 15.6376 38.0547 15.5722C39.0694 15.4958 40.0896 15.4849 41.0989 15.4031C41.9008 15.3376 42.6973 15.1903 43.4992 15.0921C44.0011 15.0266 44.5085 14.9775 45.0104 14.9339C45.365 14.9066 45.7196 14.9012 46.0687 14.8794C46.3142 14.863 46.4833 14.7375 46.5324 14.492C46.6033 14.1483 46.7124 13.7992 46.7124 13.4555C46.7124 12.4408 46.7124 11.4206 46.6252 10.4114C46.5706 9.7622 46.3633 9.11847 46.216 8.47473C46.1669 8.25652 46.0414 8.1365 45.7905 8.15286C45.5832 8.16923 45.3704 8.13104 45.1631 8.14195C43.1774 8.2347 41.1916 8.3438 39.2058 8.43109C37.7329 8.4911 36.2545 8.53474 34.8961 8.58384Z" fill="#202023"/>
        <path d="M21.3064 24.1699C21.23 25.0701 21.1809 25.9811 21.0609 26.8758C20.8972 28.0924 20.319 29.0743 19.2879 29.7835C18.7424 30.1545 18.1586 30.16 17.5422 30.149C16.1893 30.1272 14.8363 30.1327 13.4888 30.1545C12.5069 30.1709 11.5249 30.1872 10.5484 30.2691C9.67553 30.3454 8.81358 30.5309 7.94072 30.6455C7.42792 30.7164 6.90965 30.76 6.39685 30.7928C5.16939 30.8637 3.94193 30.8582 2.73083 30.6346C2.038 30.5091 1.43791 30.16 0.897825 29.7181C0.385019 29.2926 0.270456 28.6925 0.172259 28.0651C-0.0350451 26.7722 -0.0132236 25.4738 0.0249641 24.1754C0.0467856 23.3898 0.117706 22.5879 0.67961 21.9496C0.90328 21.6987 1.11058 21.4204 1.3779 21.224C1.60702 21.0549 1.90161 20.9458 2.18529 20.8804C2.65446 20.7712 3.12908 20.7112 3.60369 20.6512C4.2147 20.5749 4.83115 20.5039 5.44216 20.4657C6.63143 20.3948 7.8207 20.3403 9.00998 20.3021C10.0083 20.2693 11.0066 20.2693 12.005 20.2421C13.0197 20.2203 14.0398 20.2093 15.0545 20.1493C16.0529 20.0948 17.0403 19.942 18.0386 19.9038C18.9606 19.8711 19.8498 20.0293 20.5372 20.7549C21.05 21.295 21.17 21.9714 21.23 22.6588C21.2737 23.1552 21.2409 23.6571 21.2409 24.159C21.2628 24.1645 21.2846 24.1699 21.3064 24.1699ZM10.5866 22.5061C10.5866 22.5006 10.5866 22.4897 10.5866 22.4842C8.81904 22.5661 7.04604 22.6152 5.27849 22.7352C4.32926 22.8006 3.39093 22.9861 2.44715 23.0952C2.22348 23.1225 2.11437 23.2262 2.08164 23.4226C2.03254 23.7062 1.96708 23.9954 1.96708 24.2845C1.95071 25.5392 1.91798 26.794 2.14711 28.0324C2.16347 28.1306 2.20712 28.256 2.28349 28.316C2.5999 28.5724 2.95996 28.7525 3.37457 28.7634C4.20924 28.7852 5.04391 28.807 5.87859 28.7961C6.41321 28.7852 6.9533 28.7416 7.47701 28.6597C8.39897 28.5179 9.30457 28.2724 10.2265 28.1797C11.334 28.0651 12.4578 28.0433 13.5707 28.0214C14.9672 27.9996 16.3693 28.0269 17.7659 28.0269C17.8804 28.0269 18.0223 28.0433 18.1041 27.9833C18.4041 27.776 18.6878 27.5414 18.7751 27.1595C18.8678 26.7449 19.0097 26.3303 19.0315 25.9102C19.0806 24.8573 19.0752 23.8044 19.0861 22.7515C19.0861 22.637 19.0642 22.5061 19.0042 22.4133C18.9388 22.3042 18.8351 22.1787 18.7206 22.146C18.055 21.9496 17.3894 22.1133 16.7239 22.1678C16.0747 22.2224 15.431 22.3697 14.7818 22.4024C13.3852 22.4515 11.9832 22.4679 10.5866 22.5061Z" fill="#202023"/>
        <path d="M43.81 29.696C43.1008 29.6632 42.3971 29.636 41.6879 29.6032C41.126 29.5814 40.5641 29.5105 40.0022 29.5378C39.0966 29.5814 38.1964 29.6851 37.2963 29.7778C36.1507 29.8924 35.005 30.0451 33.8594 30.1215C32.7029 30.1979 31.5354 30.2361 30.3789 30.2361C29.3314 30.2361 28.4913 29.4887 28.2949 28.4631C28.2676 28.3103 28.2186 28.1576 28.224 28.0048C28.2949 27.0174 27.9458 26.09 27.8585 25.1244C27.7603 24.0333 27.7494 22.9586 28.4204 22.0093C28.464 21.9493 28.4968 21.8784 28.5077 21.8129C28.6441 21.0819 29.1623 20.7546 29.8224 20.6564C31.1044 20.4655 32.3919 20.3127 33.6848 20.1654C34.8959 20.029 36.1016 19.8981 37.3181 19.8163C38.1855 19.7617 39.0639 19.8217 39.9313 19.7944C41.9279 19.729 43.9246 19.6362 45.9213 19.5708C46.4013 19.5544 46.8869 19.5435 47.3615 19.6035C48.4362 19.7399 49.1072 20.4273 49.56 21.3547C49.8491 21.9439 49.9473 22.5822 49.9746 23.2313C50.0292 24.497 50.0128 25.7572 49.7619 27.001C49.5546 28.0266 48.9872 28.7795 47.9561 29.1395C47.2851 29.3741 46.5868 29.4778 45.894 29.6141C45.1902 29.7505 44.5083 29.7233 43.81 29.696ZM40.4222 21.9057C40.4222 21.8893 40.4222 21.8784 40.4222 21.862C40.2695 21.862 40.1113 21.862 39.9585 21.862C39.1075 21.8675 38.251 21.8348 37.4 21.8893C36.1889 21.9711 34.9778 22.1021 33.7667 22.2385C32.6374 22.3639 31.5136 22.5112 30.3898 22.664C30.2643 22.6803 30.1279 22.784 30.0461 22.8877C29.7297 23.3023 29.5988 23.7823 29.6642 24.2951C29.757 25.0316 29.8879 25.7626 29.9806 26.4991C30.0352 26.9465 30.0461 27.4047 30.0788 27.8521C30.1116 28.2885 30.2207 28.3976 30.6517 28.3867C31.3063 28.3758 31.9609 28.3812 32.6101 28.3267C34.1376 28.2012 35.6597 28.0484 37.1872 27.9066C38.0982 27.8248 39.0093 27.7266 39.9203 27.672C40.7277 27.6229 41.5351 27.5957 42.3425 27.6011C43.4718 27.6066 44.6011 27.8411 45.7303 27.5684C46.2213 27.4484 46.7178 27.3611 47.2142 27.2465C47.5852 27.1592 47.7325 26.881 47.7925 26.5373C47.9725 25.5226 47.9943 24.497 47.9452 23.4714C47.9234 23.0459 47.8361 22.6094 47.7052 22.2003C47.5852 21.8129 47.2906 21.5674 46.8432 21.5729C46.5705 21.5784 46.2977 21.5729 46.0249 21.5838C44.1537 21.6984 42.288 21.802 40.4222 21.9057Z" fill="#202023"/>
        <path d="M25.4412 14.8959C25.4958 17.2635 25.5612 19.6366 25.6049 22.0042C25.6267 23.3463 25.5831 24.6937 25.6158 26.0358C25.6594 27.9124 25.7631 29.7945 25.8176 31.6712C25.8613 33.1387 25.8722 34.6116 25.8995 36.0846C25.9268 37.8358 25.9649 39.5924 25.9759 41.3436C25.9759 41.6163 25.9213 41.9109 25.8013 42.151C25.6049 42.5492 25.1085 42.5656 24.8739 42.1837C24.7429 41.9655 24.6284 41.7036 24.6175 41.4527C24.5575 40.5307 24.5466 39.6033 24.5084 38.6759C24.4538 37.3939 24.3993 36.1173 24.3393 34.8353C24.2301 32.5659 24.1047 30.3019 23.9956 28.0324C23.9192 26.4558 23.8428 24.8738 23.8046 23.2972C23.7719 21.9715 23.8101 20.6459 23.7883 19.3202C23.7664 17.9018 23.7228 16.4889 23.6792 15.0705C23.6301 13.4557 23.5591 11.8409 23.5373 10.2206C23.5264 9.3314 23.57 8.44217 23.6355 7.5584C23.6628 7.1547 23.9683 6.94194 24.3447 6.95285C24.6938 6.96376 24.923 7.20926 25.0103 7.59113C25.3812 9.25502 25.343 10.9462 25.4085 12.6319C25.4358 13.3847 25.414 14.1376 25.414 14.8959C25.4194 14.8904 25.4303 14.8904 25.4412 14.8959Z" fill="#202023"/>
        <path d="M32.1139 38.8831C31.4811 38.8776 31.0555 38.3485 31.1756 37.7265C31.1974 37.6283 31.2083 37.5301 31.2137 37.432C31.2356 36.8864 31.612 36.5427 32.1575 36.5755C32.7249 36.6082 33.2486 37.1319 33.2322 37.6447C33.1995 38.4248 32.7794 38.8885 32.1139 38.8831Z" fill="#202023"/>
        <path d="M4.76566 12.4736C4.22557 12.4736 3.76187 12.119 3.66913 11.6335C3.56002 11.0825 3.85461 10.5152 4.35105 10.3188C4.44924 10.2806 4.55835 10.2533 4.66746 10.2478C5.10934 10.226 5.8731 10.8425 5.95493 11.2789C6.09131 11.9499 5.5676 12.4791 4.76566 12.4736Z" fill="#202023"/>
        <path d="M33.0899 10.8533C33.079 11.6061 32.4789 12.0207 31.6934 11.7752C31.4042 11.688 31.1315 11.5243 30.8805 11.3443C30.5805 11.126 30.5205 10.6896 30.7387 10.3623C31.0442 9.91495 31.4751 9.63673 32.0261 9.59854C32.4844 9.56581 32.899 9.89313 33.0081 10.3405C33.0518 10.515 33.0627 10.6842 33.0899 10.8533Z" fill="#202023"/>
        <path d="M4.25307 25.7739C3.59842 25.7739 3.07471 25.3484 3.07471 24.8138C3.07471 24.2955 3.58751 23.7718 4.10032 23.7663C4.63494 23.7609 5.19685 24.3392 5.19139 24.8901C5.19139 25.3975 4.79315 25.7739 4.25307 25.7739Z" fill="#202023"/>
        <path d="M31.9883 25.2989C31.3173 25.2934 30.9954 24.8024 30.9518 24.1696C30.9245 23.7387 31.41 23.264 31.8301 23.2586C32.3211 23.2531 32.9048 23.8532 32.9048 24.366C32.9103 24.9006 32.5229 25.2934 31.9883 25.2989Z" fill="#202023"/>
    </g>
    <defs>
        <clipPath id="clip0">
            <rect width="50" height="50" fill="white"/>
        </clipPath>
    </defs>
</svg>
