<svg xmlns="http://www.w3.org/2000/svg" style="display: none;">
  <symbol id="rounded-cream" viewBox="0 0 59 52">
    <path fill="#FAF1D5" d="M36.87 51.94a31.17 31.17 0 01-11.06-2.4c-2.5-1.01-4.54-2.62-6.44-4.27a26.14 26.14 0 01-4.38-4.9 41.2 41.2 0 01-3.04-4.94c-1.05-2.12-2.34-4.16-2.5-6.62-.03-.44-.21-.88-.37-1.3-.7-1.85-.34-1.75-2.25-1.7-3.32.1-5.94-2.57-6.04-5.39C.74 18.97.05 17.6 0 16.07c-.08-2.83 1.28-4.78 3.34-6.44.25-.2.62-.3.8-.54 1.64-2.19 4.12-3.18 6.48-4.2 2.24-.96 4.44-2.13 6.94-2.48 1-.14 1.96-.65 2.96-.94 3.21-.92 6.5-1.11 9.8-1.41 2.3-.21 4.53.23 6.78.08 1.54-.1 2.93.6 4.38.9 2.47.5 4.82 1.6 6.98 2.94a26.13 26.13 0 016.79 6.31c1.49 1.92 2.24 4.22 2.9 6.51.41 1.48.55 3.03.77 4.56.1.64.15 1.3-.1 1.92-.27.7-.21 1.4-.24 2.1-.15 4.01-.85 7.87-2.42 11.63A46.18 46.18 0 0153 42.99c-1.35 2.25-3.53 3.75-5.54 5.37-.83.67-1.93 1.02-2.79 1.75-.42.36-1.05.57-1.61.66-2.37.34-4.6 1.5-6.2 1.17zm-15.19-30.2a7.53 7.53 0 00.64 3.6c.41 1.05 1.06 1.92 1.56 2.9a23.66 23.66 0 005.8 7.2 9.94 9.94 0 003.4 1.85c3.16 1.06 5.73.32 7.77-2.3.68-.88 1.1-1.9 1.55-2.9 1.31-2.95 1.44-6.12 1.63-9.26.15-2.6-1.02-4.65-3.14-6.09a10.38 10.38 0 00-5.49-1.8c-1.83-.08-3.66 0-5.48-.03a17.4 17.4 0 00-5.9 1.12c-.45.15-.96.26-1.08.74-.4 1.67-1.61 3.15-1.26 4.97z"/>
  </symbol>
  <symbol id="u-cream" viewBox="0 0 51 42">
    <path fill="#FAF1D5" d="M14.6 42c-2.24-1.32-4.45-2.68-6.71-3.94-1.1-.6-2.01-1.32-2.57-2.46-.93-1.88-2.62-3.4-3.32-5.28C.16 25.39-.8 20.28.85 15.04c.15-.48.37-.97.37-1.45-.05-3.4 1.96-5.64 4.38-7.55 1.03-.81 2.1-1.57 2.96-2.55a7.74 7.74 0 014.73-2.5C18.27.17 23.4-.43 28.31.4c3.8.62 7.74 1.32 11.12 4.07 2.5 2.03 4.88 4.15 7.25 6.3a9.08 9.08 0 012.75 4.6c.38 1.45.84 2.89 1.25 4.34.39 1.38.5 2.8-.09 4.14-.44 1.02-.68 2.09-1.01 3.14-1.36 4.34-6.61 5.44-9.94 2.3-3.23-3.06-7.06-5.3-11.08-7.17a9.03 9.03 0 00-4.13-.74c-3.31.1-3.48-.37-2.25 3.41.8 2.5 1.11 5.07 1.92 7.56.88 2.7-1.8 7.04-4.76 8.37-.82.37-1.74.5-2.32 1.29H14.6z"/>
  </symbol>
  <symbol id="u-blue" viewBox="0 0 31 31">
    <path fill="#C3E7EC" d="M0 21.22c.3-.03.62-.06.75-.36a7.57 7.57 0 016.1-4.45c.57-.09 1.13-.2 1.65-.29.4.42.27.9.34 1.32.11.66.5 1.03 1.18 1.1a8.9 8.9 0 007.85-3.13c.98-1.1.76-1.58-.6-2.35a7.11 7.11 0 00-2.72-.74C9.79 11.7 7.3 6.78 9.7 2.77 11 .57 13.07-.15 15.53.03a17.5 17.5 0 0112.27 6c3.04 3.47 4.25 7.67 2.14 13.03-1.46 3.7-4.01 6.29-7.04 8.4A20.97 20.97 0 0117 30.2c-3.34 1.01-6.63.82-9.96.7-3.31-.13-5.68-2.41-6.17-5.72-.12-.78-.23-1.6-.86-2.2v-1.76z"/>
  </symbol>
  <symbol id="rounded-blue" viewBox="0 0 64 79">
    <path fill="#C3E7EC" d="M30.41 78.57c-8.77.04-16.08-3.67-22.23-11.03-3.2-3.81-5.48-8.22-7.27-13.1-.85-2.36-.98-4.8-.88-7.29.27-6.8 1.46-13.3 4.76-18.97 1.74-3 3.95-5.54 6.52-7.6a7.55 7.55 0 015.02-1.65c1.96.03 3.4.89 4.16 3.18.74 2.27.72 4.34-.8 6.18-2.39 2.91-4 6.35-4.93 10.29-1.03 4.4-.35 8.43 1.96 11.94 2.64 4.03 5.7 7.33 10.15 8.53 2.37.64 4.3.12 6.11-1.4a32.26 32.26 0 009.58-13.14c2.09-5.32 4.63-10.41 5.57-16.28.45-2.76.94-5.52.94-8.37 0-1.59-.46-2.72-1.54-3.57-3.2-2.54-6.52-4.8-10.3-5.85a14.68 14.68 0 01-4.67-2.13c-2.3-1.64-2.37-3.11-.19-5.05.62-.55 1.35-1 2.1-1.26 2.24-.82 4.52-1.5 6.9-1.47 2.36.02 4.73-.13 7.08.02 8.64.57 14.52 7.43 15.4 17.8.43 5.1-.11 10.07-.8 14.98a46.4 46.4 0 01-3.15 10.9c-1.68 4.12-3.02 8.45-5.21 12.26-1.95 3.38-3.42 7.27-5.74 10.2-4.12 5.23-8.87 9.6-14.84 11.58-1.27.43-2.54.16-3.7.3z"/>
  </symbol>
</svg>