<svg xmlns="http://www.w3.org/2000/svg" style="display: none;">
  <symbol id="rounded-cream" viewBox="0 0 59 52">
    <path fill="#FAF1D5" d="M36.87 51.94a31.17 31.17 0 01-11.06-2.4c-2.5-1.01-4.54-2.62-6.44-4.27a26.14 26.14 0 01-4.38-4.9 41.2 41.2 0 01-3.04-4.94c-1.05-2.12-2.34-4.16-2.5-6.62-.03-.44-.21-.88-.37-1.3-.7-1.85-.34-1.75-2.25-1.7-3.32.1-5.94-2.57-6.04-5.39C.74 18.97.05 17.6 0 16.07c-.08-2.83 1.28-4.78 3.34-6.44.25-.2.62-.3.8-.54 1.64-2.19 4.12-3.18 6.48-4.2 2.24-.96 4.44-2.13 6.94-2.48 1-.14 1.96-.65 2.96-.94 3.21-.92 6.5-1.11 9.8-1.41 2.3-.21 4.53.23 6.78.08 1.54-.1 2.93.6 4.38.9 2.47.5 4.82 1.6 6.98 2.94a26.13 26.13 0 016.79 6.31c1.49 1.92 2.24 4.22 2.9 6.51.41 1.48.55 3.03.77 4.56.1.64.15 1.3-.1 1.92-.27.7-.21 1.4-.24 2.1-.15 4.01-.85 7.87-2.42 11.63A46.18 46.18 0 0153 42.99c-1.35 2.25-3.53 3.75-5.54 5.37-.83.67-1.93 1.02-2.79 1.75-.42.36-1.05.57-1.61.66-2.37.34-4.6 1.5-6.2 1.17zm-15.19-30.2a7.53 7.53 0 00.64 3.6c.41 1.05 1.06 1.92 1.56 2.9a23.66 23.66 0 005.8 7.2 9.94 9.94 0 003.4 1.85c3.16 1.06 5.73.32 7.77-2.3.68-.88 1.1-1.9 1.55-2.9 1.31-2.95 1.44-6.12 1.63-9.26.15-2.6-1.02-4.65-3.14-6.09a10.38 10.38 0 00-5.49-1.8c-1.83-.08-3.66 0-5.48-.03a17.4 17.4 0 00-5.9 1.12c-.45.15-.96.26-1.08.74-.4 1.67-1.61 3.15-1.26 4.97z"/>
  </symbol>
  <symbol id="u-cream" viewBox="0 0 51 42">
    <path fill="#FAF1D5" d="M14.6 42c-2.24-1.32-4.45-2.68-6.71-3.94-1.1-.6-2.01-1.32-2.57-2.46-.93-1.88-2.62-3.4-3.32-5.28C.16 25.39-.8 20.28.85 15.04c.15-.48.37-.97.37-1.45-.05-3.4 1.96-5.64 4.38-7.55 1.03-.81 2.1-1.57 2.96-2.55a7.74 7.74 0 014.73-2.5C18.27.17 23.4-.43 28.31.4c3.8.62 7.74 1.32 11.12 4.07 2.5 2.03 4.88 4.15 7.25 6.3a9.08 9.08 0 012.75 4.6c.38 1.45.84 2.89 1.25 4.34.39 1.38.5 2.8-.09 4.14-.44 1.02-.68 2.09-1.01 3.14-1.36 4.34-6.61 5.44-9.94 2.3-3.23-3.06-7.06-5.3-11.08-7.17a9.03 9.03 0 00-4.13-.74c-3.31.1-3.48-.37-2.25 3.41.8 2.5 1.11 5.07 1.92 7.56.88 2.7-1.8 7.04-4.76 8.37-.82.37-1.74.5-2.32 1.29H14.6z"/>
  </symbol>
  <symbol id="u-blue" viewBox="0 0 31 31">
    <path fill="#C3E7EC" d="M0 21.22c.3-.03.62-.06.75-.36a7.57 7.57 0 016.1-4.45c.57-.09 1.13-.2 1.65-.29.4.42.27.9.34 1.32.11.66.5 1.03 1.18 1.1a8.9 8.9 0 007.85-3.13c.98-1.1.76-1.58-.6-2.35a7.11 7.11 0 00-2.72-.74C9.79 11.7 7.3 6.78 9.7 2.77 11 .57 13.07-.15 15.53.03a17.5 17.5 0 0112.27 6c3.04 3.47 4.25 7.67 2.14 13.03-1.46 3.7-4.01 6.29-7.04 8.4A20.97 20.97 0 0117 30.2c-3.34 1.01-6.63.82-9.96.7-3.31-.13-5.68-2.41-6.17-5.72-.12-.78-.23-1.6-.86-2.2v-1.76z"/>
  </symbol>
  <symbol id="rounded-blue" viewBox="0 0 64 79">
    <path fill="#C3E7EC" d="M30.41 78.57c-8.77.04-16.08-3.67-22.23-11.03-3.2-3.81-5.48-8.22-7.27-13.1-.85-2.36-.98-4.8-.88-7.29.27-6.8 1.46-13.3 4.76-18.97 1.74-3 3.95-5.54 6.52-7.6a7.55 7.55 0 015.02-1.65c1.96.03 3.4.89 4.16 3.18.74 2.27.72 4.34-.8 6.18-2.39 2.91-4 6.35-4.93 10.29-1.03 4.4-.35 8.43 1.96 11.94 2.64 4.03 5.7 7.33 10.15 8.53 2.37.64 4.3.12 6.11-1.4a32.26 32.26 0 009.58-13.14c2.09-5.32 4.63-10.41 5.57-16.28.45-2.76.94-5.52.94-8.37 0-1.59-.46-2.72-1.54-3.57-3.2-2.54-6.52-4.8-10.3-5.85a14.68 14.68 0 01-4.67-2.13c-2.3-1.64-2.37-3.11-.19-5.05.62-.55 1.35-1 2.1-1.26 2.24-.82 4.52-1.5 6.9-1.47 2.36.02 4.73-.13 7.08.02 8.64.57 14.52 7.43 15.4 17.8.43 5.1-.11 10.07-.8 14.98a46.4 46.4 0 01-3.15 10.9c-1.68 4.12-3.02 8.45-5.21 12.26-1.95 3.38-3.42 7.27-5.74 10.2-4.12 5.23-8.87 9.6-14.84 11.58-1.27.43-2.54.16-3.7.3z"/>
  </symbol>
  <symbol id="eye" viewBox="0 0 167 207">
    <path fill="#202023" fill-rule="evenodd" clip-rule="evenodd" d="M60.82 32.87c1.62 1.76 3.39 2.78 5.64 1.52 2.2-1.21 2.58-3.21 1.89-5.43-2.48-7.8-4.96-15.61-7.63-23.34l-.08-.25c-.89-2.62-2-5.93-5.53-5.08-3.5.84-3.24 4.58-2.76 7.25a80.46 80.46 0 008.47 25.33zM2.47 107.6c4.71-16.46 13.9-30.2 29.89-44.65 1.04-.62 2.35-1.44 3.85-2.38 4-2.52 9.41-5.93 15.06-8.8 18.16-9.2 37.55-11.54 57.4-7.15 8.5 1.86 16.81 5.02 24.77 8.5 7.68 3.35 14.93 7.62 22.12 11.94 3.48 2.08 6.87 4.95 7.36 9.37.21 1.75-.49 4.4-1.78 5.34-.95.74-3.76-.16-5.25-1.07-1.36-.83-2.54-1.9-3.73-2.97-.8-.72-1.58-1.43-2.42-2.07-10.66-8.1-23.1-12.77-35.55-16.74C87.82 48.5 63.4 54.07 41.22 69.8c-11.5 8.16-19.75 19.23-25.5 32.08-5.28 11.65-5.94 23.95-4.68 36.43.09.81.82 1.76 1.54 2.28 11.37 8 24.28 12.1 37.84 14.3a99.72 99.72 0 0037.97-1.34c12.68-2.84 24.4-8.02 34.18-16.72 11-9.75 19.89-21.2 26.95-34.15l3.16-5.76c2.1-3.85 4.2-7.7 6.38-11.53.7-1.23 2-3.16 2.8-3.06 1.36.14 3.01 1.43 3.68 2.7.76 1.28 1 3.28.57 4.7-1.45 4.62-2.95 9.28-5.09 13.6-5.13 10.21-10.9 20-18.46 28.61-8.44 9.55-17.56 18.2-29.18 24.1a99.47 99.47 0 01-40.08 10.66c-22.18 1.25-43.21-2.66-62.15-15-4.01-2.58-7.8-5.81-9.01-10.66-2.82-11.12-2.89-22.35.33-33.44zm30.45-1.14c-1.42-10.6-.5-21.62 9.15-29.42 1.43-.9 2.84-1.84 4.24-2.77 2.35-1.55 4.7-3.1 7.14-4.54 6.64-3.88 13.6-4.74 21.04-2.19 8.53 2.9 14.3 9.19 19.4 16.08 9.46 12.7 10.74 33.05-3.98 45.27l-1.16.96c-1.73 1.46-3.5 2.94-5.45 4-10.58 5.8-21.59 7.77-32.53 1.06-10.64-6.46-16.36-16.72-17.86-28.45zM54.2 123.2c8.1 6.78 18.54 5.41 27.62-2.8 9.83-7.36 8.67-20.09 3.39-29.72-3.43-6.13-8.16-10.64-14.96-12.23-3.1-.7-6.83-.37-9.8.72-2.37.86-4.5 2.36-6.63 3.87-.88.61-1.75 1.23-2.65 1.8-6.83 4.36-7.38 11.44-7.1 18.43.24 8 4.1 14.86 10.13 19.93zM13.44 55.15l-1.35-1.6c-.24.12-.49.24-.69.42a354.7 354.7 0 00-2.18-3.75 140.3 140.3 0 01-5.33-9.64c-.62-1.22-.06-3.92.94-4.7.94-.73 3.2-.06 4.77.43 1.07.3 2.03 1.32 2.82 2.22l3.33 3.63c3.36 3.66 6.73 7.32 9.83 11.18 1.04 1.3 1.35 4.3.55 5.6-.84 1.36-3.44 2.12-5.28 2.14-1.41 0-2.97-1.3-4.17-2.37a33.87 33.87 0 01-3.24-3.56zm94.06-20.7c2.05 2.36 4.98 2.18 6.13-.14.5-1.05.82-2.3.95-3.47l.55-4.55c.73-6.05 1.47-12.11 1.96-18.18.21-2.4.5-5.9-2.73-6.18-1.36-.14-3.55 2.91-4.39 4.88-3.46 7.87-3.95 16.23-3.26 24.7.05.76.31 1.52.53 2.16.1.29.2.55.26.78zM64.52 205.1c-1.1 2.18-3.97 2.22-5.66.08a5.66 5.66 0 00-.26-.57c-.2-.4-.43-.83-.46-1.27a57.62 57.62 0 011.12-23.02c.53-2.23 2.4-3.32 4.61-2.7 2.6.65 3.11 2.76 2.94 5.2-.17 2.58-.32 5.16-.46 7.75-.17 3.25-.35 6.5-.6 9.76a13.83 13.83 0 01-1.23 4.77zm45.97-27.8c-2.46-2.52-4.38-4.11-7-2.36-2.51 1.66-1.77 3.84-.65 6.13.92 2.03 1.77 4.1 2.61 6.18.66 1.6 1.31 3.2 2 4.79l.37.92c.59 1.47 1.2 2.98 2.2 4.06 1.06 1.11 2.97 2.19 4.34 2.05.86-.13 2.02-2.55 2.02-3.96.08-5.54-2.25-10.3-4.4-14.68-.52-1.06-1.03-2.1-1.49-3.12zm49.2-31.18c1.12.66 2.24 1.33 3.38 1.97l.18.28c1.44 2.13 2.83 4.19 1.09 6.55-1.78 2.52-4.31 1.63-6.48.35l-1.17-.71c-2.32-1.41-4.72-2.87-6.6-4.77-1.06-1.11-1.44-3.78-.91-5.3.71-2.12 3.04-2.47 5.05-1.49 1.87.98 3.67 2.05 5.46 3.12z" />
  </symbol>
  <symbol id="circle-1-blue" viewBox="0 0 253 247">
    <path fill="#C5E8ED" d="M130.7 247h-29.99c-18.74-.49-36.74-4.1-53.56-12.7a87.07 87.07 0 01-26.02-19.95c-10.43-11.83-16.6-25.74-19.66-41.12a77.41 77.41 0 01-1.22-20.76c.44-6-.18-12.02.8-17.98 1.31-8 2.76-15.95 5.56-23.63 2.05-5.63 2.96-11.62 5.04-17.26 4.92-13.34 11.23-25.98 19.64-37.46C38.47 46.35 48.13 39.31 58.32 33c14.7-9.12 30.45-16.1 46.82-21.6a240.03 240.03 0 0138.89-9.65c10.86-1.74 21.76-2 32.65-1.55 11.68.49 23.3 1.86 34.3 6.43 11.19 4.64 20.1 11.85 26.2 22.43 6.14 10.68 9.51 22.29 11.74 34.3a242.8 242.8 0 013.64 29.51c.42 6.83.52 13.66.2 20.45-.27 5.84-.17 11.7-.71 17.53-1.56 16.83-4.78 33.22-11.52 48.84-3.88 9-8.53 17.51-14.49 25.29-7.57 9.88-16.83 17.82-27.5 24.26-12.8 7.73-26.74 12.16-41.28 14.96-5.22 1-10.52 1.66-15.85 1.93-3.58.18-7.14.58-10.7.88zm-32.2-53.37c-1.73 1.02-2.26 2.94-3.3 4.47-3.47 5.06-6.56 10.4-11.6 14.21a11.84 11.84 0 01-18.81-6.29c-.97-3.39-1.26-3.68-4.67-5.13-5.04-2.16-7.1-6.37-7.44-11.5-.28-4.08.47-8.14 1.06-12.19.33-2.3 1.2-4.55 1-7.42-.69 1.08-1.17 1.72-1.51 2.42-3.42 7.07-6.79 14.16-10.22 21.21-1.03 2.1-1.53 4.46-3.19 6.23-.78.84-.24 1.48.4 2.06 1.78 1.63 3.46 3.4 5.37 4.86 8.66 6.62 18.37 11.07 28.85 14.03 11.69 3.3 23.7 3.32 35.65 3.84 7.76.34 15.52-.1 23.27-.75 4.88-.4 9.75-.82 14.59-1.48 1.67-.22 3.56-.1 5.17-1.3-6.88-2.9-8.63-8.84-7.7-14.15a78.2 78.2 0 015.57-17.99c.21-.48.82-1.1.07-1.51-.53-.29-.88.37-1.18.76a68.81 68.81 0 01-6.9 7.68c-4.45 4.27-10.56 4.98-14.98 1.52-1.5-1.18-2.03-.91-2.97.58-3.23 5.13-6.13 10.55-10.74 14.65-3.45 3.07-7.52 3.82-11.62 1.68-3.51-1.83-5.76-4.74-6-9.07-.2-3.98 1.14-7.63 1.84-11.42.32-.2.46-.47.34-.84-.02-.05-.11-.08-.17-.12l-.18.96zM199.96 90.47a10.28 10.28 0 002.52-2.43c2.56-3.14 5.4-6 8.8-8.2 4.44-2.87 9.68-2.18 13.1 1.78 2.5 2.88 2.56 6.38 1.74 9.79-1.4 5.86-4.15 11.21-6.85 16.59-6.83 13.57-15.1 26.28-22.92 39.27-2.44 4.07-5.16 8-6.98 12.41-.1.16-.22.32-.33.47l.17.11.16-.57c.5-.02.75-.35 1.04-.7 3.07-3.74 6-7.56 8.66-11.6 2.1-3.19 6.57-4.61 10.08-3.7 3.46.9 7.11 5.44 6.75 8.82-.26 2.4.04 4.84-.66 7.78 2.87-2.19 5.3-3.8 8-4.97.8-.35.88-1.05 1.06-1.78a163.46 163.46 0 004.32-33.15c.07-1.91-.14-3.84.07-5.73.87-8.13.54-16.27-.19-24.36a208.45 208.45 0 00-2.5-19.07c-1.83-9.96-4.07-19.76-8.82-28.84-4.1-7.85-10.72-12.39-18.94-14.95-5.46-1.7-11.15-2.26-16.78-3.04-2.67-.37-5.4-.36-8.1-.48-.8-.04-1.47.22-.66 1.1 3.06 3.37 2.57 7.15 1.22 10.93-1.01 2.83-2.56 5.44-3.98 8.09-1.14 2.1-2.68 4-3.2 6.41.3-.15.47-.38.61-.62 2.5-4.23 4.82-8.56 7.5-12.67 3.65-5.62 11.58-6.21 15.36-1.08 2.93 3.98 3 7.2-.06 12.68-2.94 5.24-6.16 10.33-8.87 15.68-7.95 15.72-16.59 31.09-24.2 46.98-.24.5-.8.98-.55 1.74.25-.15.4-.2.49-.3 5.63-7.75 11.4-15.4 16.86-23.27 6.27-9.02 12.7-17.91 19.27-26.7 2.47-3.31 7.09-4.44 11.17-2.62 5.43 2.43 7.4 8.13 4.66 13.43-2.15 4.16-4.63 8.15-6.88 12.27-.79 1.45-2 2.73-2.14 4.5-.05.02-.1.03-.15.07-.02.02-.02.07-.03.11l.18-.18zM26.45 179.45c.98-.62 1.17-1.52 1.53-2.28a1200.5 1200.5 0 0017.65-40.5c6.37-15.2 12.21-30.6 18.06-46 3.34-8.83 6.64-17.69 10.76-26.2 2.78-5.76 5.74-11.4 9.79-16.4.32-.4.8-.82.42-1.33-.42-.56-.95 0-1.4.12-.56.13-1.08.44-1.62.68-4.2 1.84-7.78 4.66-11.56 7.17-10.88 7.23-19.2 16.83-26.23 27.7a161.08 161.08 0 00-14.72 28.92 98.02 98.02 0 00-6.84 32c-.28 7.23-.58 14.52.36 21.76a61.43 61.43 0 003.8 14.36zm59.32-37.3l.51.25 71.65-118.05c-5.04-.2-10 1.21-15.07 1.8-.94.1-1.18.8-1.12 1.6.24 2.93-.94 5.54-2.24 7.95-5.3 9.8-10.53 19.64-15.87 29.42-7.13 13.07-14 26.29-20.7 39.58-4.68 9.3-8.92 18.82-13.3 28.27-1.39 3-2.58 6.11-3.86 9.18zm100.3 66.9c-2.67-1.08-4.88-2.15-6.38-4.27-.68-.96-1.17-.1-1.5.35-2.73 3.76-6.14 6.88-9.36 10.18-.53.54-1.38.9-1.3 2.23a84.62 84.62 0 0018.54-8.5zM116.02 33.08c-1.3.4-2.04.6-2.77.85-4.12 1.37-4.12 1.37-1.41 4.55.06.07.25.04.53.08l3.65-5.48z"/>
  </symbol>
  <symbol id="box-cream" viewBox="0 0 266 199">
    <path fill="#FAF1D6" d="M43.55 194.99c2.65 3.96 6.84 4.1 11.13 3.98a77.82 77.82 0 0029.5-6.8c5.5-2.4 11.35-3.78 17.3-4.64a80.06 80.06 0 0030.67-10.83c7.72-4.7 16.38-7.11 25.17-8.85a45.57 45.57 0 0021.13-10.46 19.98 19.98 0 019.03-4.6 84.56 84.56 0 0025.95-10.6c3.1-1.9 6.78-2.03 10.17-2.69 3.73-.68 7.33-1.7 10.7-3.4 1.47-.75 2.08-.75 3.1.83 2.1 3.22 5.7 4.32 9.3 3.3 3.5-.94 7.04-4.37 6.48-7.86-.83-5.2 2.53-6.7 5.86-8.55 3.63-2.01 5.95-5 6.74-8.96 1.63-8.05-6.11-14.11-14.24-11.1-2.32.88-3.06.73-3.59-1.9-3.24-15.37-5.29-31-7.63-46.54-1.88-12.4-5.54-24.4-9.02-36.4-1.34-4.57-2.39-9.22-4.5-13.56-2.44-4.94-8.29-7-13.6-3.88-17.43 10.24-34.64 20.74-54.66 26.09-26.17 6.9-51.96 15.23-77.78 23.33A235.75 235.75 0 0051.7 62.08c-3.95 1.85-8.07 2.88-12.33 3.76a1089.6 1089.6 0 00-30.48 6.6c-8 1.84-10.83 8.2-7.57 16.4 3.98 10.05 8.73 19.87 13.49 29.59a648.85 648.85 0 0122.2 51.14c1.93 4.95.67 10.38 2.07 15.43 1.04 3.42 1.49 7.18 4.46 9.99zm185.9-80.27c-4.05 1.84-8.12 3.44-12.51 4.27-4.87.88-9.7 1.91-14.12 4.53-5.16 2.99-10.38 5.69-16.29 7.21-7.34 1.9-14.65 4.02-20.67 9.26a32.39 32.39 0 01-14.97 7.3c-11.28 2.33-22.15 6.15-32.04 12.2a42.73 42.73 0 01-14.72 5.67c-9.88 1.81-19.73 3.86-29.21 7.44-4.02 1.46-7.83 3.46-12.17 4.24-2.63.43-3.45-.62-3.58-2.89-.19-6.2-2.2-11.95-4.55-17.59-8.7-21.13-17.97-42.11-28.37-62.47-1.25-2.44-.76-3.4 1.73-3.89 1.2-.24 2.34-.54 3.55-.88 7.98-2.27 16.42-2.39 24.19-5.62 5.82-2.42 11.56-4.95 17.42-7.23 14.14-5.61 28.85-9.77 43.32-14.52 14.42-4.7 28.78-9.26 43.2-13.96 13.45-4.39 26.81-8.88 38.63-16.97 1.49-1.03 2.25-.46 3.1 1.02 2.92 5.49 5.6 11.1 7.66 16.9 7.25 20.9 12.66 42.41 20.68 63.07.42.88.9 2.05-.29 2.9z"/>
  </symbol>
</svg>