<svg viewBox="0 0 672 490" fill="none" xmlns="http://www.w3.org/2000/svg">
    <path fill="#FAF1D5" d="M487.973 323.383c-.41-4.521.52-9.416 1.173-14.286.477-3.551 1.57-7.065 2.801-10.493 1.345-3.745 2.816-7.436 4.54-11.012 1.466-3.043 3.336-5.871 5.281-8.632 2.241-3.182 4.604-6.28 7.23-9.15 2.287-2.501 4.645-4.954 7.152-7.231 2.945-2.675 6.089-5.13 9.136-7.692 4.611-3.876 9.609-7.05 15.42-8.852 1.56-.484 3.034-.735 4.537.001 1.022.5 1.91.3 2.968-.078 6.513-2.324 13.113-4.333 20.014-5.203 5.314-.67 10.614-1.367 15.979-1.606 3.317-.147 6.644.025 9.92-.157 4.083-.227 8.089.496 12.153.298 2.286-.111 4.624.47 6.913.877 3.143.56 6.303 1.034 9.356 2.053 4.998 1.667 9.884 3.442 14.29 6.524 2.27 1.587 4.475 3.253 6.68 4.917 2.092 1.578 3.448 3.881 5.239 5.774 2.308 2.438 4.494 5.065 6.297 7.889 2.279 3.57 4.729 7.077 6.415 10.993.89 2.068 1.977 4.036 2.912 6.08 1.808 3.95 3.134 8.057 4.38 12.179 1.193 3.95 2.296 8.012 2.327 12.149.019 2.562-.192 5.196-.544 7.756-.328 2.381-.741 4.768-1.336 7.127-.955 3.787-2.432 7.324-3.998 10.883-1.897 4.313-4.579 8.131-7.013 12.097a50.94 50.94 0 01-6.117 8.045c-2.02 2.167-3.4 4.795-5.538 6.877-1.088 1.059-2.037 2.351-3.134 3.457-4.045 4.077-7.956 8.306-12.217 12.145-3.387 3.052-6.728 6.173-10.705 8.599-2.096 1.279-4.162 2.839-6.286 4.08-2.264 1.323-4.471 2.85-7.073 3.698-1.927.629-3.733 1.707-5.686 2.435-3.175 1.183-6.479 1.813-9.686 2.779-2.591.78-5.28.752-7.838 1.638-1.758.609-3.735.614-5.623.812-3.23.339-6.501.451-9.721.421-4.087-.037-8.226.022-12.287-.822-1.602-.333-3.266-.314-4.893-.493-5.9-.645-11.536-2.251-16.972-4.45-4.618-1.869-9.326-3.771-13.283-6.872-3.578-2.803-7.117-5.651-10.13-9.181-2.708-3.174-4.993-6.63-7.46-9.949-2.148-2.889-3.676-6.247-5.401-9.439-1.19-2.201-2.184-4.507-3.386-6.699-1.009-1.842-1.503-3.875-2.264-5.8-1.326-3.354-2.274-6.854-3.133-10.388-1.099-4.522-1.445-9.045-1.389-14.098zm113.728-54.897c1.355-.173 2.234-.978 3.164-1.784 3.982-3.452 8.963-1.609 11.243.801 1.396 1.476 1.396 1.628 3.091.557 2.087-1.32 4.2-2.4 6.756-2.254.244.014.518-.072.652-.734-7.566-4.983-16.077-6.466-25.364-6.576 1.501 3.522 1.28 6.74.533 9.969l-.222.118.1.102s.122-.22.047-.199zm-74.3 14.032c-2.099 1.222-3.555 2.821-4.775 4.503-3.041 4.193-6.175 8.312-8.566 12.971-3.354 6.534-5.835 13.294-6.785 20.595-.457 3.511-.95 7.016-1.459 10.52-.13.894.06 1.696.306 2.548.909 3.154 1.871 6.278 3.076 9.345 1.175 2.992 2.583 5.876 4.023 8.716 2.031 4.007 4.562 7.751 7.147 11.449 3.829 5.477 8.333 10.159 14.311 13.306 3.692 1.945 7.515 3.594 11.505 4.769 3.725 1.098 7.604 1.529 11.442 2.1.815.121 1.664.166 2.434-.054.046-.62-.303-.742-.587-.923-5.729-3.652-6.182-10.784-2.152-15.352.227-.257.401-.563.593-.852.503-.757.491-1.441-.249-2.065-.398-.336-.731-.746-1.114-1.101-1.271-1.18-1.275-1.176-2.351.175-3.389 4.252-9.137 4.743-13.059 1.103-.638-.592-1.227-1.128-2.181-1.289-2.618-.443-4.701-1.739-5.9-4.221-.233-.483-.54-.883-1.126-.984-2.136-.369-3.687-1.842-5.463-2.898-1.605-.954-2.819-2.237-3.801-3.832-2.068-3.357-3.327-6.955-4.189-10.816-1.042-4.674-1.571-9.371-1.776-14.121-.119-2.771.318-5.546.384-8.297.132-5.514 1.094-10.809 2.646-16.062 1.7-5.757 3.97-11.271 6.61-16.65.353-.721 1.203-1.255 1.056-2.583zm7.242 57.285c.233-.183.535-.296.612-.497 1.46-3.797 3.008-7.567 4.299-11.422a200.86 200.86 0 013.759-10.244c1.598-4.031 3.415-7.974 5.112-11.967 2.78-6.544 5.38-13.171 8.354-19.626 2.711-5.882 5.376-11.799 8.497-17.486 2.693-4.909 7.644-5.447 11.789-3.019 1.224.717 1.747 2.064 2.55 3.221 3.016-3.261 5.307-6.877 8.663-10.19-3.722-.022-6.812.145-9.931.397-6.508.526-12.804 1.873-19.049 3.662-.893.255-1.275.642-1.574 1.439-.467 1.246-1.189 2.613-2.566 2.702-2.176.142-3.166 1.536-4.198 3.058-1.603 2.363-3.288 4.674-4.814 7.086-2.406 3.801-4.353 7.848-6.323 11.893-4.268 8.761-6.752 18.013-7.394 27.674-.447 6.741-.378 13.549 1.06 20.22.218 1.013.082 2.297 1.154 3.099zm97.922-5.281c-1.338-.09-1.757.796-2.317 1.347-3.956 3.893-7.796 7.881-11.286 12.223-3.467 4.314-7.321 8.316-10.824 12.603-1.206 1.476-2.698 2.728-3.674 4.364-1.297 2.175-2.921 4.065-4.6 5.936-1.613 1.798-2.663 4.052-4.535 5.657-.322.276-.431.774-.094 1.173.288.339.625.112.944 0 1.892-.661 3.595-1.709 5.332-2.671 4.776-2.645 9.457-5.434 13.436-9.254.536-.514.887-.948.944-1.72.258-3.545 1.72-6.761 3.616-9.595 3.605-5.39 6.866-11.008 10.721-16.233.839-1.137 1.484-2.418 2.337-3.83zm18.687-27.595c-1.262-6.968-3.764-13.247-6.935-19.895-2.14 4.003-3.218 7.991-5.293 11.509-2.072 3.512-3.558 7.343-5.941 11.042 10.816-4.415 7.771-3.668 18.169-2.656z" />
    <path fill="#C4E7EC" d="M50.542 253.857c-.033.723.004 1.44.508 2.014.91 1.036.613 2.292.706 3.489.11 1.411-.678 2.131-1.889 2.306-1.491.215-3.005.349-4.476-.338-4.431-2.066-8.504-4.675-12.093-7.996-2.751-2.547-5.562-5.115-7.579-8.275-2.861-4.482-5.58-9.002-7.11-14.274-.99-3.412-1.418-6.905-2.411-10.283-.114-.388-.353-.803-.296-1.168.753-4.85-2.206-8.374-4.218-12.278-2.173-4.218-4.055-8.584-5.706-13.039-1.193-3.221-2.565-6.402-3.418-9.714-.873-3.395-1.601-6.834-2.07-10.354-.676-5.074-.34-10.12-.481-15.175-.09-3.239.518-6.418.9-9.623.632-5.313 2.462-10.2 4.307-15.054.97-2.553 2.382-5.07 3.895-7.484 4.287-6.845 9.405-13.139 13.204-20.31 1.782-3.365 5.122-5.07 8.504-6.437 1.509-.609 3.169-.31 4.71.464 2.064 1.036 3.993 2.451 6.465 2.473.35.003.696.381 1.044.587 3.17 1.882 3.246 1.943 5.538-.916A149.665 149.665 0 0163.683 86.26c4.593-4.252 9.534-8.083 14.719-11.64a154.315 154.315 0 0113.661-8.385c3.282-1.783 6.611-3.452 10.063-4.88 5.231-2.163 10.573-3.97 16.069-5.353 4.399-1.107 8.882-1.746 13.309-2.683 2.499-.529 5-.638 7.536-.625 7.103.038 14.218-.23 21.304.12 3.882.19 7.807.38 11.687 1.367 2.779.707 5.737.928 8.599 1.52 3.937.815 7.873 1.551 11.762 2.642 2.608.731 5.245 1.351 7.817 2.242 3.328 1.152 6.734 2.081 10.051 3.264a123.633 123.633 0 018.962 3.592c3.757 1.681 7.557 3.26 11.265 5.073 2.804 1.372 5.574 2.823 8.239 4.395 2.93 1.73 5.856 3.503 8.707 5.39 3.036 2.01 5.861 4.286 8.823 6.38 2.38 1.683 4.562 3.677 6.683 5.691 4.852 4.608 9.7 9.267 13.786 14.559 1.95 2.527 4.349 4.825 5.582 7.881.555 1.375 1.919 2.115 2.567 3.368 2.815 5.45 6.4 10.451 8.758 16.2a237.3 237.3 0 013.691 9.573c1.318 3.661 2.233 7.507 3.022 11.377.752 3.685.788 7.422 1.534 11.079.137.676.173 1.459-.034 2.098-.361 1.118-.46 2.157-.006 3.258.149.361.238.818.162 1.192-.771 3.764-.162 7.672-1.28 11.412-.806 2.697-.874 5.542-1.619 8.292-1.159 4.276-1.883 8.65-3.673 12.765-1.244 2.859-1.986 5.934-3.183 8.816a99.45 99.45 0 01-4.285 9.022c-1.868 3.467-3.781 6.936-6.009 10.173-2.739 3.978-5.312 8.106-8.706 11.596-1.136 1.168-2.195 2.346-2.948 3.831-1.073 2.114-3.335 3.136-4.802 4.989-1.982 2.505-3.564 5.161-4.662 8.091-1.854 4.947-5.217 7.511-10.532 7.589-1.391.021-2.402.513-3.565 1.285-2.927 1.943-5.719 4.096-8.915 5.658-2.72 1.329-5.406 2.736-8.111 4.096-2.811 1.413-5.779 2.339-8.671 3.448-3.933 1.507-8.002 2.86-12.134 3.593-5.54.984-11.079 2.035-16.679 2.742-3.647.461-7.279.248-10.894.574-6.936.626-13.846-.227-20.772-.146-2.788.033-5.585-.718-8.38-1.098-5.792-.787-11.552-1.776-17.257-3.041-5.496-1.218-11.037-2.326-16.413-3.961-4.711-1.432-9.472-2.766-14.05-4.661-2.026-.839-4.166-1.546-6.26-2.139-4.811-1.362-9.174-3.721-13.769-5.549a149.53 149.53 0 01-14.543-6.724c-2.941-1.554-5.912-3.068-8.696-4.939-1.652-1.109-3.45-2.043-5.177-3.056a48.505 48.505 0 01-5.486-3.743c-.101-.297-.194-.345-.237-.138-.005.023.162.083.25.125zM158.51 129.12c-1.201.096-1.677 1.006-2.127 1.907-.503 1.009-1.255 1.824-1.912 2.72-3.463 4.72-7.009 9.395-10.18 14.309a1152.85 1152.85 0 01-8.289 12.67c-2.172 3.269-4.334 6.548-6.378 9.899-2.371 3.887-4.487 7.933-6.925 11.776-6.078 9.579-11.388 19.598-17.011 29.436-3.965 6.937-7.63 14.054-12.008 20.74-1.42 2.167-2.914 4.429-4.776 6.218-3.69 3.544-8.641 3.909-12.937 1.541-3.466-1.911-6.533-7.717-4.687-12.084.181-.428.54-.89.181-1.4-.092-.058-.174-.154-.252-.151-.197.007-.415.013-.585.099-3.621 1.826-7.028.811-10.037-1.242-2.467-1.683-4.005-4.142-4.037-7.43-.038-3.816.97-7.398 2.106-10.928 1.313-4.083 2.529-8.213 4.492-12.083-1.198-.647-1.882.275-2.72.446-2.699.549-5.45 1.115-7.809-.912-1.381-1.187-2.7-2.481-3.864-3.879-1.25-1.499-2.018-3.244-1.904-5.309.14-2.527.56-5.009 1.062-7.475.868-4.268 2.342-8.344 3.82-12.441 3.492-9.684 8.858-18.381 14.074-27.13 4.132-6.931 8.663-13.632 13.148-20.355A518.592 518.592 0 0193.597 97.26c2.205-2.977 5.151-5.533 9.477-4.984.47.06 1.206.006 1.428-.29 1.462-1.937 3.506-3.493 4.446-6.424-1.932.999-3.417 1.78-4.915 2.538-5.408 2.733-10.526 5.937-15.3 9.662-1.194.93-2.32 1.96-3.58 2.805-3.709 2.487-6.874 5.665-9.786 8.928-4.625 5.183-9.245 10.385-13.438 15.986-4.077 5.444-7.877 11.008-11.103 16.959-2.856 5.269-4.557 10.953-5.98 16.803-1.108 4.552-1.637 9.152-2.085 13.73-.511 5.215-1.225 10.423-1.449 15.681-.102 2.396-.272 4.852-.663 7.227-.755 4.589-.732 9.245-1.452 13.828-.12.767.238 1.456.7 1.95 3.325 3.549 5.874 7.725 9.216 11.264 3.122 3.305 6.051 6.761 9.62 9.655 2.985 2.421 5.969 4.838 9.26 6.79 7.054 4.185 14.24 8.141 21.832 11.301 5.298 2.205 10.522 4.605 15.895 6.608 4.994 1.862 10.131 3.343 15.224 4.933 2.216.692 4.464 1.291 6.723 1.83 1.65.394 3.049-.709 3.729-2.748.494-1.482-.513-2.025-1.579-2.47-2.262-.943-4.121-2.531-4.941-4.718-1.116-2.975-3.39-4.139-5.976-5.38-4.302-2.065-6.317-6.23-6-10.485.32-4.285.939-8.809 3.353-12.771 1.671-2.744 2.807-5.81 4.284-8.679.642-1.246.468-2.127-.276-3.322-2.33-3.747-2.27-7.701-.234-11.556 1.509-2.857 3.271-5.574 4.999-8.31 2.536-4.014 4.888-8.145 7.29-12.243 2.406-4.103 4.892-8.164 7.137-12.354 3.673-6.851 7.398-13.676 10.719-20.714 2.582-5.474 5.394-10.84 7.987-16.31.372-.783 1.165-1.76.352-2.86zm-34.298-28.058c1.281-.198 1.816-.994 2.238-1.759 2.19-3.966 5.331-7.125 8.59-10.163 1.721-1.603 3.783-2.704 6.204-2.924 6.856-.625 12.798 5.146 10.705 13.43-.226.894-.918 1.743-.455 3.007 1.176-.627 1.813-1.494 2.538-2.327a161.142 161.142 0 017.392-7.97c2.405-2.415 5.25-4.045 8.02-5.844 3.906-2.536 8.068-2.852 11.982-.248 4.24 2.821 8.299 5.967 8.656 11.952 2.329-1.322 4.213-2.931 6.722-3.231 1.598-.192 3.168-.62 4.767-.816 5.17-.635 9.59 1.502 11.467 6.038.891 2.152 2.07 2.661 4.093 2.458 5.355-.538 9.196 1.784 11.709 6.43.565 1.044 1.122 1.308 2.396 1.109 2.896-.451 5.83-.607 8.53 1.086 3.994 2.504 6.204 5.983 6.265 10.766.03 2.332.076 2.268 2.275 2.565 4.489.606 7.514 3.107 9.375 7.225 2.437 5.397.258 10.576-.997 15.623-.804 3.236-2.205 6.488-3.864 9.526-.956 1.751-1.601 3.673-2.457 5.684 3.588.858 6.755 2.345 8.679 5.341 1.254 1.953 2.695 2.529 4.784 2.307 3.419-.364 6.374.789 9.03 2.86.559.436 1.063.957 1.662 1.324 1.853 1.135 2.807.7 2.467-1.416-.498-3.096-.543-6.222-1.003-9.325-.973-6.574-2.996-12.787-5.832-18.716-2.53-5.289-5.542-10.312-9.112-15.025-2.863-3.779-5.381-7.82-8.847-11.108-3.161-2.998-5.98-6.348-9.447-9.033-5.201-4.028-10.584-7.734-16.298-11.04a163.558 163.558 0 00-12.036-6.287c-2.138-1.01-4.36-2.019-6.653-2.808-4.471-1.54-8.878-3.258-13.363-4.777-3.254-1.102-6.553-2.025-9.847-2.922-4.556-1.241-9.199-2.204-13.901-2.777-4.599-.56-9.194-1.32-13.811-1.514-6.181-.261-12.38-.038-18.571-.07-3.676-.02-7.158 1.129-10.721 1.75-3.16.551-6.222 1.66-9.336 2.489-.59.156-1.222.154-1.472.879.523.716 1.321.803 2.113.988 6.174 1.441 8.407 7.677 6.637 11.943-.675 1.628-.846 3.466-1.273 5.32zm-83.66 11.755c-1.493-1.121-2.415-1.143-3.49.302-2.127 2.861-3.762 5.949-4.89 9.298-.475 1.408-1.463 2.709-1.11 4.416a234.146 234.146 0 019.49-14.016zM194.633 268.96c-.144-1.583-1.168-2.057-1.795-2.796-.682-.803-.674-2.537-2.014-2.33-1.145.177-1.747 1.58-2.408 2.549-.592.866-1.331 1.797-1.127 3.056 2.513.821 4.774-.608 7.344-.479z" />
    <path fill="#3D3433" d="M500.685 298.043l2.761 1.901c2.15-3.386 4.211-6.674 6.32-9.931.822-1.268 1.742-2.473 2.64-3.691.672-.91 1.755-.918 2.795-.237 1.226.802 2.535 1.479 3.814 2.199.517.292 1.324.278 1.132 1.259-.027.142.416.399.666.568 2.684 1.813 5.347 3.661 8.071 5.415 1.944 1.252 3.971 2.377 5.403 3.228 1.411-1.139 2.729-2.147 3.985-3.228 2.891-2.487 6.417-3.049 10.021-3.39 5.925-.559 9.816 2.768 13.076 7.069 1.634 2.156 2.905 4.586 4.416 6.841.896 1.338 1.893 2.616 2.931 3.848.744.883 2.734.955 3.578.165.214-.199.25-.697.213-1.041-.348-3.191-1.567-5.826-4.443-7.608-3.85-2.386-5.878-6.309-7.922-10.131-1.039-1.943-1.488-4.125-1.05-6.375.492-2.523 1.954-4.162 4.492-4.726 1.194-.265 2.425-.369 3.613-.655 1.037-.25 2.027-.685 3.056-.975.573-.162 1.215-.366 1.77-.259 5.19 1.003 10.397 1.948 15.541 3.158 3.869.91 7.671 2.123 11.467 3.318 2.413.759 2.642.771 4.474-1.569-.41-.292-.805-.599-1.224-.868-4.531-2.912-9.583-4.419-14.788-5.549-1.4-.305-2.867-.642-4.096-1.334-4.755-2.676-9.931-3.816-15.245-4.571-7.241-1.028-14.438-.938-21.41 1.427-5.62 1.907-10.878 4.637-15.539 8.369-2.378 1.904-4.624 3.973-6.907 5.994-.315.279-.483.721-.74 1.073-.584.799-1.335 1.148-2.281.693-.972-.468-1.3-1.285-.99-2.297.152-.494.402-.983.711-1.398 4.518-6.075 10.235-10.686 16.887-14.289 4.681-2.536 9.519-4.528 14.791-5.103 6.232-.679 12.459-.648 18.698.526 4.824.907 9.455 2.146 13.794 4.467.985.526 2.123.786 3.21 1.1 3.363.968 6.829 1.661 10.075 2.924 2.829 1.102 5.501 2.695 8.083 4.323 2.831 1.786 3.366 5.445 1.188 7.982-1.543 1.796-3.089 3.859-5.775 3.975-1.232.053-2.522-.168-3.717-.506-2.721-.77-5.401-1.689-8.097-2.548l-.192.276c.165.32.318.646.497.958 1.395 2.43 2.837 4.835 4.183 7.292 1.505 2.748.899 4.819-1.781 6.451-.337.205-.674.409-1.015.606-3.261 1.875-6.408 1.021-8.446-2.202-1.097-1.736-2.296-3.41-3.515-5.063-.209-.282-.826-.531-1.134-.43-2.853.938-5.228.091-7.413-1.762-2.198-1.864-4.437-3.68-6.667-5.506-.229-.187-.517-.301-1.053-.301.273.689.484 1.41.829 2.06 1.889 3.558 4.211 6.726 7.631 9.027 2.507 1.687 4.034 4.09 4.387 7.175.093.821.35 1.627.566 2.43.591 2.197.085 3.783-1.79 5.012-2.17 1.421-6.565 2.593-8.72.409-1.407-1.426-2.781-2.917-3.948-4.539-1.353-1.879-2.434-3.951-3.686-5.905-1.595-2.489-3.386-4.824-6.141-6.126a7.684 7.684 0 00-2.747-.697c-4.22-.262-7.932.861-10.908 4.067-1.45 1.562-1.959 1.596-4 1.001l-8.109 12.538c.956.881 1.928 1.681 2.771 2.6.333.363.668 1.177.49 1.453-.269.416-1.005.773-1.513.737-1.005-.07-1.466.393-1.973 1.144-2.157 3.191-4.388 6.331-6.572 9.503-2.459 3.572-5.821 6.184-9.319 8.6-2.33 1.61-4.872 2.911-7.304 4.375-.971.585-1.949 1.178-2.842 1.872-2.932 2.28-6.523 2.943-9.92 3.999-8.878 2.759-18.026 3.443-27.262 2.969-6.579-.338-12.919-1.79-19.2-3.883-5.7-1.898-11.061-4.488-16.231-7.359-4.241-2.356-8.062-5.572-11.777-8.749-6.054-5.178-11.878-10.625-17.784-15.975-4.365-3.955-8.866-7.705-14.381-10-.403-.168-.793-.381-1.211-.496-6.747-1.857-13.586-2.576-20.534-1.45-1.641.266-2.998 1.09-3.715 2.778-1.576 3.715-2.336 7.626-2.715 11.599-.604 6.341-.412 12.679.135 19.033.5 5.804.533 11.646.913 17.463.28 4.282.926 8.541 1.155 12.825.251 4.721.158 9.46.315 14.188.177 5.35-1.517 10.355-2.686 15.459-.45 1.961-.875 3.931-1.416 5.868-.554 1.988-1.608 3.663-3.326 4.912-.419.305-.834 1.002-.8 1.486.579 8.041-.483 16.025-.717 24.036-.11 3.76.229 7.532.335 11.3.184 6.528.34 13.057.52 19.586.084 3.067.216 6.132.276 9.2a5.044 5.044 0 01-.328 1.923c-.19.474-.623 1.116-1.019 1.171-.415.058-1.05-.395-1.353-.8-1.397-1.872-2.151-4.045-2.268-6.349-.418-8.275-.741-16.555-1.107-24.833-.104-2.359-.232-4.717-.362-7.314-2.525.275-4.909.488-7.279.806-2.483.333-2.453.378-2.559 2.926a489.002 489.002 0 01-.483 9.457c-.056.91-.001 1.597 1.161 1.496.043-.004.095-.003.129.019.624.386 1.247.776 1.869 1.165-.571.519-1.074 1.342-1.73 1.492-1.326.304-1.917.899-1.945 2.261-.015.751-.326 1.495-.504 2.241l-.512.054c-.288-.916-.518-1.857-.891-2.737-.16-.375-.617-.885-.942-.888-6.349-.051-12.699-.037-19.048-.031-.126 0-.251.055-.441.099-.064.368-.033.804-.217 1.109-.312.521-.789 1.364-1.145 1.339-.559-.04-1.217-.589-1.574-1.103-.557-.8-1.019-1.716-1.284-2.65-.168-.591.037-1.318.182-1.96.154-.687.618-1.344.627-2.018.044-2.981-.045-5.963-.045-8.945.001-.878-.238-1.207-1.21-1.168-8.922.365-17.847.673-26.77 1.001-.128.005-.254.051-.453.093v11.898c1.34-.085 2.547-.208 3.756-.223.826-.01 1.701-.012 2.464.247.593.202 1.408.769 1.469 1.256.074.58-.398 1.569-.906 1.815-1.272.615-2.673 1.114-4.068 1.29-2.888.366-2.881.268-2.947 3.248a451.248 451.248 0 01-.298 9.594 6.663 6.663 0 01-.484 2.163c-.445 1.096-1.518 1.218-2.086.192-.429-.775-.742-1.718-.766-2.596-.09-3.328-.048-6.659-.042-9.989.004-1.972-.146-2.008-2.043-2.148-3.309-.243-6.607-.65-9.908-1.002-.3-.032-.595-.151-.881-.258-.938-.352-1.65-.934-1.481-2.036.167-1.085.973-1.52 1.999-1.517 1.575.004 3.151.072 4.726.085 2.047.016 4.094.004 6.34.004l-1.446-11.729c-2.441 0-4.841.052-7.238-.023-1.036-.033-2.078-.269-3.091-.519-.89-.22-1.488-.829-1.356-1.816.132-.985.851-1.33 1.782-1.409 2.834-.239 5.662-.548 8.498-.748 1.06-.075 1.506-.359 1.499-1.548-.019-3.111.135-6.223.21-9.335.02-.828.003-1.656.003-2.531l-14.574-1.264c-.057.37-.136.62-.128.867.256 8.188.505 16.377.792 24.564.123 3.501.359 6.997.472 10.499.029.906-.117 1.848-.362 2.723-.132.469-.644.832-.984 1.242-.319-.383-.801-.719-.927-1.157-.57-1.976-.956-4.008-1.561-5.972-1.897-6.16-2.053-12.495-2.181-18.865-.061-3-.702-5.985-1.005-8.984-.38-3.748-.691-7.503-1.017-11.256-.22-2.532-.372-5.072-.654-7.597-.058-.514-.449-1.147-.88-1.439-4.743-3.215-7.127-7.576-7.17-13.388-.065-8.94-.351-17.878-.585-26.816-.122-4.64-.557-9.284-.441-13.916.12-4.804.803-9.591 1.114-14.393.331-5.117.798-10.249.675-15.362-.106-4.393-.6-8.871-3.466-12.591-.151-.195-.324-.374-.757-.498.101 1.364.154 2.734.312 4.091.363 3.101.326 6.178.111 9.304-.251 3.66-.008 7.357.083 11.036.075 3.023.374 6.046.327 9.065-.041 2.661-.474 5.314-.642 7.976-.276 4.37-.478 8.745-.711 13.117-.296 5.555-.735 11.107-.848 16.665-.112 5.513.207 11.034.147 16.55-.053 4.944-.326 9.887-.617 14.824-.034.574-.767 1.514-1.239 1.554-.606.052-1.348-.551-1.889-1.033-.313-.278-.405-.862-.489-1.328a14.54 14.54 0 01-.244-2.22c-.205-8.322-.52-16.643-.537-24.965-.009-4.941.449-9.884.716-14.824.35-6.474.406-12.984 1.177-19.408.619-5.152.167-10.232.184-15.346.017-5.035.188-10.07.162-15.105-.013-2.491-.359-4.979-.48-7.472a189.995 189.995 0 01-.218-7.623c-.023-2.769 2.153-4.012 4.558-2.588.817.483 1.631 1.102 2.203 1.847 2.527 3.284 5.381 6.378 6.291 10.642.842 3.95 1.599 7.871 1.236 11.972-.451 5.105-.626 10.235-.94 15.353-.291 4.76-.906 9.521-.852 14.276.114 10.209.567 20.415.883 30.622.078 2.538.223 5.076.223 7.614 0 2.341.831 4.421 2.438 5.923 2.987 2.789 6.418 4.799 10.758 4.701 4.067-.092 8.138.007 12.206-.054 2.839-.042 5.675-.269 8.514-.312 6.469-.098 12.938-.14 19.407-.191 2.759-.021 5.521-.079 8.277.006 7.7.237 15.396.602 23.097.788 3.717.09 7.441-.08 11.161-.193 1.764-.054 3.23-.658 3.803-2.576.147-.492.431-.968.742-1.384 2.144-2.879 2.73-6.29 3.442-9.685 1.641-7.815 1.175-15.702.787-23.568-.278-5.64-1.017-11.257-1.41-16.894-.339-4.852-.32-9.732-.747-14.574-.53-6.002-.636-11.997-.158-17.986.348-4.366 1.303-8.627 2.596-12.845 1.861-6.074 8.364-8.187 12.344-7.781 1.466.149 2.956.143 4.432.1 6.839-.198 13.379.888 19.569 4.006 5.09 2.563 9.238 6.32 13.413 10.054 5.06 4.525 9.923 9.277 15.08 13.685 3.444 2.945 6.92 5.856 10.734 8.406 2.882 1.927 5.728 3.804 8.878 5.218 6.159 2.765 12.465 4.979 19.174 6.134 7.736 1.331 15.405 1.181 23.118.075 7.142-1.025 13.959-3.164 20.595-5.93.867-.361 1.642-.965 2.423-1.51 1.328-.927 2.595-1.941 3.941-2.839 4.865-3.244 9.122-7.055 12.105-12.196 1.246-2.148 2.812-4.111 4.357-6.337l-19.887-12.92c-1.311 1.832-2.556 3.56-3.787 5.297-2.963 4.181-6.427 7.734-11.389 9.553-2.695.987-5.313 2.184-7.994 3.21-1.014.387-2.111.794-3.169.791-6.377-.016-12.78.617-19.106-.813-3.582-.81-7.256-1.256-10.791-2.221-9.787-2.673-18.232-7.415-24.229-15.975-3.94-5.625-7.871-11.303-12.336-16.502-5.329-6.207-11.545-11.5-19.271-14.676-10.244-4.211-20.83-6.88-31.956-7.152-4.682-.114-9.363-.273-14.044-.446-.928-.034-1.377.125-1.488 1.231-.509 5.046-1.123 10.081-1.739 15.116-.089.728-.278 1.489-.614 2.135-1.836 3.534-3.685 7.063-5.636 10.534-.59 1.05-1.412 2.028-2.311 2.835-6.294 5.649-13.397 10.108-20.863 14.019-3.749 1.963-7.812 2.401-11.965 2.538-5.377.178-10.507-1.148-15.66-2.364-2.885-.68-5.491-1.969-7.997-3.558-5.362-3.401-8.441-8.425-10.726-14.18-2.398-6.041-3.11-12.277-2.827-18.688.063-1.436.264-2.865.42-4.494-1.562.15-3.139.334-4.721.449-4.844.352-9.699.593-14.534 1.041-3.73.346-7.464.686-10.911 2.499-3.216 1.693-5.192 4.448-6.677 7.524-2.474 5.126-3.29 10.681-3.539 16.332-.071 1.618-.319 3.229-.372 4.847-.054 1.655.009 3.315.064 4.972.053 1.619.186 3.236.241 4.855.184 5.341.334 10.683.525 16.024.092 2.538.29 5.073.366 7.612.129 4.332.271 8.665.282 12.998a1544.52 1544.52 0 01-.111 23.284c-.068 5.347-.457 10.693-.39 16.035.064 5.031.528 10.057.833 15.084.381 6.294.769 12.588 1.182 18.88.062.958.354 1.901.404 2.858.061 1.172.08 2.364-.073 3.523-.132.994-.891 1.777-1.874 1.714-.763-.048-1.672-.509-2.184-1.083-.544-.609-.893-1.547-.984-2.378-.531-4.827-1.034-9.659-1.406-14.501-.426-5.545-.626-11.108-1.068-16.652-.754-9.467.119-18.919.105-28.379-.009-5.963-.188-11.938.114-17.888.374-7.349-.727-14.613-.792-21.927-.01-1.14-.033-2.28-.067-3.419-.144-4.861-.092-9.738-.489-14.579-.631-7.671.168-15.218 1.579-22.709 1.004-5.324 3.16-10.227 6.899-14.249 3.213-3.457 7.289-5.241 11.943-6.044 6.679-1.152 13.439-.822 20.141-1.43 4.783-.434 9.647-.042 14.338-1.409a.628.628 0 01.26-.033c2.695.405 3.409-1.204 4.024-3.464.752-2.76 1.911-5.431 3.116-8.038.764-1.655 1.579-1.736 3.361-1.373 1.738.355 3.518.498 5.277.733 0-2.412-.022-4.673.005-6.933.06-5.059.878-10.011 2.179-14.889 1.038-3.89 1.882-7.849 3.188-11.647 2.826-8.213 5.892-16.344 11.997-22.851 3.89-4.147 7.557-8.535 11.721-12.385 5.753-5.32 12.709-8.612 20.297-10.566 6.145-1.583 12.382-1.772 18.65-1.244 1.576.132 3.101.828 4.663 1.208 1.271.309 2.579.468 3.841.806 10.079 2.703 19.884 6.082 29.3 10.693 6.828 3.343 13.94 6.137 21.042 8.87 3.521 1.355 7.335 1.927 10.963 3.031 2.639.804 5.241 1.675 8.018 1.852 2.051.132 4.099.411 6.15.423 7.175.043 14.354.185 21.502-.723 2.731-.347 5.523-.316 8.216-.829 3.378-.643 6.789-1.386 9.989-2.606 3.246-1.238 6.428-2.842 9.325-4.759 5.95-3.937 10.991-8.853 13.962-15.499.807-1.806 1.26-3.828 1.534-5.799.336-2.422.312-4.894.451-7.344.025-.437.037-.885.141-1.306.35-1.42 1.715-1.915 2.834-.98 1.177.985 2.006 2.235 2.043 3.826.149 6.282-.801 12.207-4.316 17.699-2.964 4.631-6.717 8.335-10.923 11.741-6.161 4.989-13.306 7.884-20.848 9.82-3.11.798-6.4.964-9.623 1.23-4.969.41-9.947.801-14.929.935-4.544.122-9.109.061-13.643-.242-3.286-.22-6.655-.342-9.742-1.813-.389-.186-.835-.252-1.257-.368-4.082-1.119-8.312-1.868-12.216-3.432-8.484-3.4-16.786-7.25-25.192-10.85-4.904-2.1-9.858-4.084-14.8-6.096-1.377-.56-2.79-1.032-4.187-1.545-9.415-3.461-19.022-3.613-28.697-1.454-9.294 2.074-17.018 6.834-23.46 13.883-3.817 4.177-7.661 8.312-10.733 13.075-1.25 1.937-2.385 4-3.216 6.144-1.882 4.853-3.687 9.746-5.241 14.712-1.015 3.243-1.503 6.65-2.287 9.969-1.004 4.251-1.305 8.569-1.136 12.908.123 3.192.534 6.371.756 9.56.133 1.922.161 3.851.218 5.778.077 2.65.656 3.314 3.257 3.671 2.166.298 4.259.186 6.276-.824 1.242-.622 2.578-1.056 4.249-1.726-2.359-.955-1.975-2.764-2.008-4.52-.086-4.727-.517-9.457-.401-14.175.192-7.781.313-15.535 2.153-23.239 2.008-8.407 6.145-15.426 11.893-21.593 3.849-4.129 8.457-7.344 13.639-9.669.36-.161.773-.261 1.065-.504 3.304-2.758 7.27-3.163 11.344-3.353 12.661-.591 24.099 3.395 35.183 9.031 5.061 2.573 10.326 4.764 15.579 6.931 3.386 1.397 6.868 2.626 10.4 3.583 3.958 1.073 8.021 1.76 12.041 2.601 4.185.876 8.373 1.735 12.56 2.602.385.08.767.224 1.154.242 3.446.166 6.892.306 10.338.463 1.617.073 3.233.188 4.851.239.869.027 1.744-.012 2.612-.08.564-.044 1.116-.237 1.681-.29 3.689-.349 7.396-.56 11.068-1.041 4.849-.635 9.69-1.376 14.322-3.077 3.976-1.46 8.093-2.601 11.932-4.355 6.042-2.759 12.137-5.589 17.094-10.14 3.832-3.519 7.523-7.256 10.169-11.811 2.701-4.649 3.577-9.76 3.175-15.079-.107-1.418-.541-2.818-.892-4.209-.973-3.859-2.024-7.7-2.954-11.569-.393-1.633.562-3.04 2.103-3.442 1.45-.378 2.993.487 3.44 2.101.677 2.446 1.224 4.929 1.844 7.392.235.932.449 1.878.791 2.772 2.566 6.708 1.738 13.371-.398 19.95-1.815 5.594-5.481 9.982-9.549 14.12-2.807 2.854-5.655 5.613-9.043 7.762-1.44.914-2.872 1.852-4.375 2.651-5.18 2.752-10.485 5.278-16.061 7.082-4.392 1.422-8.909 2.512-13.43 3.465-4.482.945-9.039 1.542-13.566 2.273-.514.083-1.047.041-1.57.077-1.783.125-3.564.287-5.348.379-1.219.062-2.443.04-3.664.043-2.22.005-4.439.001-6.756.001-.021.324-.07.659-.062.992.225 8.544.508 17.088.672 25.633.177 9.249.252 18.499.346 27.749.009.914-.09 1.843-.266 2.74-.304 1.554-1.681 2.526-3.166 2.34-1.504-.189-2.602-1.433-2.603-2.984-.006-7.582-.031-15.164-.001-22.745.04-9.864.127-19.727.191-29.59.01-1.531.001-3.063.001-4.577-.081-.077-.141-.186-.206-.19-5.735-.289-11.297-1.599-16.861-2.88-6.045-1.392-12.163-2.555-18.094-4.334-4.586-1.375-8.983-3.434-13.374-5.391-6.272-2.796-12.372-6-18.717-8.611-5.344-2.198-10.983-3.586-16.827-3.785-3.377-.116-6.608.708-9.776 1.75-6.973 2.293-13.247 5.799-18.272 11.234-3.834 4.147-7.057 8.776-8.802 14.195-2.383 7.402-3.406 15.025-2.811 22.818.23 3.009.517 6.013.787 9.128 1.77 0 3.468.032 5.165-.006 3.338-.075 6.04 1.119 8.012 3.871 1.149 1.602 2.366 3.156 3.481 4.781.524.762 1.123 1.112 2.056 1.11 2.102-.005 4.203.084 6.305.121.251.005.584.022.744-.12 1.81-1.609 4.089-1.79 6.273-1.751 7.218.131 14.465.12 21.637.819 4.788.467 9.476 2.019 14.195 3.142 4.959 1.179 9.67 3.053 14.247 5.273 5.583 2.707 10.321 6.546 14.743 10.855 5.077 4.947 9.372 10.506 13.339 16.352 1.671 2.463 3.294 4.994 5.249 7.221 3.746 4.268 8.339 7.304 13.713 9.356 6.9 2.635 14.085 3.861 21.311 4.78 4.005.509 8.17.432 12.185-.043 2.872-.34 5.619-1.763 8.41-2.739.613-.215 1.148-.65 1.759-.873 2.574-.938 4.749-2.454 6.49-4.547 2.452-2.95 5.061-5.797 6.417-9.505.264-.72.82-1.332 1.34-2.148zm-226.74-29.335c-1.786.348-3.265.759-4.768.889-1.2.104-1.527.626-1.572 1.721-.317 7.711.306 15.249 3.974 22.239 2.161 4.119 4.729 7.825 8.949 10.215 3.242 1.837 6.747 2.631 10.298 3.379 1.86.392 3.752.636 5.777.972.567-10.796.074-21.252-.719-31.955-.986 2.316-1.834 4.436-2.781 6.51-2.293 5.016-4.629 10.011-6.953 15.013-.306.658-.754 1.272-.943 1.959-.366 1.333-1.439 1.903-2.562 1.078-.664-.487-1.273-1.241-1.567-2.006-.88-2.286-1.599-4.634-2.369-6.962-1.718-5.192-3.424-10.389-5.152-15.578-.117-.353-.305-.744-.579-.973-.887-.739-.967-1.586-.555-2.591.495-1.21.951-2.436 1.522-3.91zm26.615 39.44c3.29.208 6.58-.194 9.575-1.83 3.296-1.8 6.442-3.877 9.756-5.641 4.174-2.221 7.417-5.418 10.047-9.244 2.789-4.059 5.076-8.423 6.388-13.189 1.028-3.738 1.731-7.565 2.625-11.559-1.817-.097-3.385-.097-4.928-.291-1.196-.151-1.667.298-2.056 1.392-1.847 5.192-3.672 10.399-5.727 15.51-2.844 7.075-6.609 13.536-13.006 18.096-1.339.954-2.693 1.1-3.697-.197-.701-.905-1.176-2.043-1.531-3.148-2.181-6.79-4.297-13.601-6.441-20.403-.103-.326-.264-.635-.398-.951a42.42 42.42 0 01-.202.081l-.405 31.374zm20.8-51.805c-.822 3.493-2.515 6.322-5.009 8.513-3.216 2.825-6.671 5.379-10.027 8.044-.877.696-1.155 1.455-.758 2.608 1.908 5.544 3.745 11.113 5.577 16.683.417 1.267.714 2.573 1.129 4.091.627-.668 1.152-1.083 1.494-1.616 1.719-2.682 3.712-5.25 5.014-8.127 2.992-6.614 5.654-13.378 8.403-20.1.242-.592.443-1.534.15-1.958-1.882-2.728-3.907-5.358-5.973-8.138zm-14.924 166.389l-27.998.789.474 13.03c9.492.437 18.78-.307 27.944-.903l-.42-12.916zm-22.981-129.054c.404-.743.668-1.143.85-1.578a3205.383 3205.383 0 007.84-18.782c.136-.33.089-.902-.117-1.181-2.573-3.479-5.24-6.891-7.772-10.4-.89-1.234-1.462-2.69-1.167-4.315.094-.515.158-1.036.235-1.554l-.474-.135c-.599 1.601-1.224 3.194-1.792 4.807-.974 2.766-1.615 5.699-2.948 8.275-1.412 2.727-1.678 5.127-.552 8.026 2.104 5.418 3.865 10.97 5.897 16.837zm247.055 8.037l-16.102-11.125c-2.501 3.851-5.386 7.375-7.003 11.73l16.128 10.043 6.977-10.648zM310.813 435.197c.279.027.489.072.696.063 6.117-.266 12.233-.549 18.35-.793.875-.035 1.116-.425 1.111-1.223-.017-2.933.003-5.867.008-8.8v-1.516c-6.835-.67-13.466-1.759-20.165-.243v12.512zm-4.307-25.472c-2.404 0-4.708-.028-7.012.006-6.771.098-13.542.225-20.313.329-.914.014-1.364.315-1.219 1.335.117.819.075 1.661.08 2.493.01 1.602.003 3.205.003 5.013l28.461-.572v-8.604zm4.4 41.705h20.022l-.487-12.758-19.535.925v11.833zm24.15-17.232l9.217-.591.427-22.96h-9.325v7.851c.616-.067 1.214-.17 1.814-.19 1.612-.055 3.232-.178 4.835-.074 1.228.079 1.967 1.191 1.803 2.313-.16 1.088-1.149 1.796-2.246 1.79-2.109-.011-4.219.071-6.525.118v11.743zm-24.251-16.247l20.265.633.377-7.998-20.642-.693v8.058zm-53.605-7.609c.213 2.134.503 4.381.634 6.638.064 1.102.518 1.379 1.53 1.407 4.153.115 8.304.301 12.456.45.333.012.67-.058.879-.078v-8.417H257.2zm321.119-125.383c1.863 1.569 2.736 3.662 3.563 5.786.062.161.163.31.263.453 1.847 2.657 3.701 5.308 5.543 7.968.865 1.25 1.689.487 2.588.027.988-.505.713-1.078.304-1.806-1.482-2.633-2.959-5.27-4.362-7.945-.393-.75-.507-1.643-.792-2.454-.087-.246-.285-.591-.489-.636-2.199-.494-4.41-.937-6.618-1.393zm-1.267 7.643l.539-.647c-.747-1.032-1.406-2.144-2.26-3.078-1.585-1.733-3.279-3.367-4.942-5.028-.168-.168-.448-.365-.647-.337-1.149.16-2.29.385-3.527.604.156.249.194.393.285.443 2.96 1.632 5.244 4.049 7.613 6.393.77.763 1.948 1.112 2.939 1.65zM504.594 97.6c-1.309-1.235-2.595-2.284-3.686-3.507-3.838-4.303-4.885-9.573-5.031-15.123-.173-6.615 2.822-11.88 7.373-16.273 3.381-3.266 7.648-4.639 12.391-4.944 3.815-.245 7.432.379 10.97 1.52 7.195 2.32 14.256 8.632 14.683 17.056.095 1.874.243 3.746.377 5.779 1.573-.833 2.772-2.067 3.804-3.459.592-.8 1.029-1.715 1.548-2.572.104-.171.237-.417.394-.45 1.777-.38 2.378-1.941 3.254-3.215.471-.685.778-1.506 1.333-2.104.817-.882.556-1.48-.194-2.187-3.243-3.053-6.902-5.47-10.831-7.564a42.497 42.497 0 00-12.964-4.445c-4.52-.775-8.925-2.224-13.444-3.003-10.708-1.844-21.39-1.522-31.883 1.415-5.644 1.58-10.744 4.213-15.316 8.085-3.634 3.078-7.036 6.356-10.097 9.935-2.542 2.974-4.568 6.403-6.7 9.71-1.108 1.72-1.952 3.611-3.066 5.708-1.005-2.715-2.479-5.017-1.311-7.857 1.656-4.028 3.571-7.934 6.371-11.276 2.75-3.283 5.611-6.502 8.691-9.47 3.924-3.781 8.333-6.924 13.419-9.08 4.514-1.913 9.213-3.046 14.005-3.9.411-.073.817-.181 1.527-.342-.89-.66-1.524-1.181-2.205-1.629-5.576-3.663-10.695-7.915-15.75-12.248-.762-.652-1.387-1.461-2.127-2.142a32.094 32.094 0 00-2.547-2.14c-.969-.723-1.565-1.675-1.282-2.822.474-1.921.788-3.959 2.998-4.94.727-.323 1.273-1.193 1.75-1.913 2.01-3.04 4.681-5.423 7.48-7.683 1.832-1.48 3.595-3.074 5.561-4.35 3.449-2.241 7.309-3.519 11.35-4.261 4.817-.885 9.626-1.75 14.549-1.895 6.154-.181 11.848 1.417 17.347 4.015 6.842 3.232 12.092 8.432 17.26 13.765 3.064 3.161 5.967 6.42 7.891 10.432.639 1.332 1.183 2.722.231 4.108a24.363 24.363 0 01-2.312 2.844c-2.934 3.13-5.721 6.45-9.388 8.765-2.915 1.84-5.97 3.46-8.964 5.173-.296.17-.606.316-.938.629 4.813.836 9.118 2.867 13.367 5.12 4.242 2.25 8.243 4.787 11.606 8.325.301-.266.548-.484.858-.76 1.043 1.133 2.075 2.199 3.025 3.334.183.219.179.785.028 1.062-.881 1.612-1.743 3.246-2.777 4.759-3.135 4.588-6.397 9.09-9.514 13.69-2.796 4.127-6.612 7.205-10.318 10.408-.263.228-.57.405-.846.618-.059.046-.073.15-.013.017l13.971 6.14-.594 1.089c2.396 1.105 4.763 2.12 7.056 3.281 1.554.787 3.09 1.669 4.458 2.734.564.439 1.014 1.526.901 2.217-.17 1.039-1.307 1.32-2.235 1.083-1.979-.504-3.96-1.066-5.86-1.809-6.64-2.596-13.213-5.37-19.884-7.88-2.354-.886-4.914-1.226-7.389-1.774a4.028 4.028 0 00-1.566-.031c-3.267.605-6.527 1.253-9.875 1.904l1.762 1.538c3-2.023 4.272-1.309 4.659 2.743.793-.794 1.437-1.729 2.322-2.256 1.16-.691 2.042.162 2.791 1.109 1.931-1.826 4.085-1.338 5.936-.211 4.775 2.906 8.427 6.96 10.953 11.953a7.479 7.479 0 01.768 3.542c-.154 3.637-.404 7.298-2.672 10.576 1.882-1.045 3.793-2.041 5.637-3.149 1.799-1.082 3.53-2.279 5.292-3.424.145-.094.376-.29.436-.249 1.338.928 1.975-.408 2.758-.937 2.249-1.517 4.384-3.204 6.615-4.75.665-.461 1.474-.768 2.262-.982.912-.248 1.438.299 1.144 1.154-.348 1.011-.759 2.139-1.495 2.854-2.977 2.892-5.845 5.993-9.214 8.36a89.47 89.47 0 01-13.276 7.694c-4.772 2.248-9.808 3.944-15.118 4.686-4.765.666-9.492 1.606-14.244 2.377-8.225 1.334-16.491 1.366-24.728.299-7.24-.938-14.207-2.992-20.855-6.062-1.39-.642-2.85-1.144-4.201-1.856-2.011-1.058-2.589-2.832-1.795-4.981 1.597-4.322 4.417-7.857 7.385-11.258 5.563-6.374 11.513-12.36 18.415-17.719-1.549-.291-2.974-.535-4.388-.829-7.774-1.617-15.385-3.754-22.478-7.416-1.261-.651-2.411-1.6-3.431-2.597-.405-.396-.317-1.298-.453-1.97.596-.015 1.294-.244 1.774-.015 7.725 3.677 15.943 5.473 24.401 5.523 4.812.03 9.538 1.081 14.357.695 2.207-.177 4.442.013 6.664.022.326.001.652-.079 1.097-.136zm10.432-51.411c-.122-.184-.151-.285-.214-.316-2.997-1.46-5.363-3.74-7.737-6.001-.329-.313-.559-.778-.712-1.215-.316-.9-.6-1.82-.806-2.75-.488-2.212-1.338-4.45-1.263-6.65.077-2.244.975-4.494 1.707-6.676 1.394-4.152 4.279-7 8.291-8.62 4.855-1.96 9.764-2.056 14.748-.278 3.885 1.386 6.976 3.713 8.955 7.295 3.028 5.48 3.236 11.175.753 16.947-.089.206-.103.443-.153.666l.29.238 9.547-8.28c-.739-.905-1.3-1.69-1.957-2.383-2.889-3.052-5.702-6.188-8.739-9.087-3.864-3.688-7.836-7.263-12.758-9.592-4.985-2.36-10.117-3.955-15.697-3.456-3.481.312-6.968.65-10.414 1.214a42.772 42.772 0 00-7.224 1.86c-3.232 1.135-6.124 2.837-8.644 5.302-2.558 2.501-5.421 4.659-7.507 7.656-1.939 2.786-2.034 2.816.487 5.141.129.12.261.234.393.35 5.228 4.54 10.705 8.753 16.375 12.73 3.499 2.455 7.158 4.432 11.452 4.915 3.558.4 7.133.658 10.827.99zm-48.266 87.474c.144.186.182.287.249.313 1.634.625 3.284 1.212 4.907 1.866 10.639 4.29 21.738 5.496 33.096 4.961.348-.016.687-.237 1.03-.363-.16-.336-.246-.744-.491-.996-2.368-2.441-4.24-5.207-5.829-8.218-3.308-6.27-3.941-12.573-.458-18.951.761-1.394 1.871-2.606 2.885-3.85 1.03-1.266 2.14-2.467 3.215-3.696l-.196-.368c-1.849.237-3.802.173-5.527.77-4.369 1.511-8.444 3.754-11.944 6.756-6.785 5.821-13.114 12.132-18.867 18.996-.75.894-1.399 1.873-2.07 2.78zm53.386 4.518l.136.355c2.648-.534 5.305-1.026 7.933-1.642.461-.108.8-.734 1.196-1.121l-.649.271-1.466-2.099c-2.19 2.047-2.35 2.075-4.719.698a5954.7 5954.7 0 01-2.431 3.538zm5.454-96.727c2.051.596 3.207-.258 4.123-1.654.553-.843 1.186-1.637 1.68-2.51.678-1.197 1.039-2.486.839-4.195l-6.642 8.36zm-3.561-11.542l.512.445 7.978-7.648-2.019-1.624-6.471 8.827zm9.679 81.001l-2.33-1.559c.373 4.094-2.418 6.95-2.806 10.519l5.136-8.96zm-27.988 12.928c-.654 1.75.472 5.278 1.913 6.538l1.443-3.565c-2.149.203-2.985-1.039-3.356-2.973zm4.587-30.535c1.409 1.294 4.438 2.507 5.682 2.299l-.415-1.923c-1.649.351-3.04.153-3.829-1.64l-1.438 1.264zm15.514-19.603l.086.066 4.637-7.56-1.424-.96-3.299 8.454zm-19.576-4.07c-1.955 2.474-3.04 5.236-2.853 8.422l2.853-8.422zm17.126-28.388c-.806-.23-1.759-.238-2.267-.718-.536-.507-.648-1.465-.977-2.306l-1.943 1.48c1.434.754 2.629 1.379 3.82 2.012.772.41 1.21.154 1.367-.468zm8.421-12.133l2.893-.308-.46-3.327-2.433 3.635zm-1.389 45.406l.263.23c1.112-1.712 2.244-3.412 3.31-5.153.115-.188-.155-.612-.3-1.111l-3.273 6.034zm-12.861-6.931l3.201-4.463c-1.192-.1-2.743 2.116-3.201 4.463zm18.025 50.228c2.337-2.408 2.397-2.61 1.107-3.399l-1.107 3.399z" />
    <path fill="#3D3433" d="M432.191 116.076c-5.313 0-10.345.12-15.369-.031-5.948-.179-11.887-.677-17.835-.882-6.344-.218-12.697-.182-19.041-.389-6.869-.225-13.732-.632-20.599-.904-4.856-.191-9.714-.351-14.573-.416-8.45-.115-16.901-.17-25.351-.2-3.546-.013-7.093.182-10.638.146-11.47-.115-22.938-.446-34.406-.403-9.936.036-19.869.52-29.805.71-7.704.147-15.414.047-23.116.257-3.217.087-6.412.791-9.631 1.035-4.707.357-9.424.589-14.14.804-3.628.165-7.261.339-10.889.283-1.991-.032-3.999-.425-5.956-.855-1.72-.379-2.582-1.772-2.246-3.164.34-1.409 1.683-2.147 3.41-1.872 3.545.564 7.069.261 10.591-.247.69-.099 1.393-.121 2.091-.162 5.587-.332 11.244-.225 16.743-1.106 5.921-.948 11.831-1.15 17.77-1.304 11.597-.301 23.194-.593 34.793-.779 9.762-.157 19.525-.21 29.288-.216 15.283-.01 30.568-.108 45.847.147 11.684.194 23.36.888 35.04 1.334 2.406.092 4.818.027 7.224.111 9.448.33 18.896.69 28.343 1.04 7.703.287 15.402.358 23.097-.268 2.886-.236 5.166 1.324 5.621 4.147.528 3.275.864 6.603.969 9.918.19 6.046.069 12.101.22 18.148.276 11.083.718 22.161.946 33.244.055 2.694-.387 5.408-.728 8.096-.235 1.858-1.86 3.026-3.654 2.843-1.806-.184-3.106-1.611-3.028-3.504.161-3.889.615-7.778.556-11.661-.117-7.623-.572-15.24-.759-22.862-.199-8.149-.227-16.303-.382-24.453-.043-2.264-.272-4.525-.403-6.585zM180.536 371.166c.184-14.939.144-29.886.67-44.813.194-5.508-.006-11.078.642-16.522 1.163-9.761.18-19.537.878-29.282.276-3.84.454-7.692.508-11.541.027-1.913-.613-3.855-.462-5.745 1.022-12.827.302-25.672.499-38.506.022-1.436-.203-2.877-.318-4.316-.142-1.789-.357-3.576-.423-5.368-.31-8.401-.478-16.809-.902-25.204-.259-5.115-.96-10.205-1.342-15.316-.788-10.535-1.219-21.088-.611-31.646.262-4.546.836-9.075 1.349-13.603.236-2.078 2.001-3.397 3.972-3.166 1.95.229 3.283 1.91 3.082 4.036-.373 3.97-1.08 7.928-1.163 11.9-.169 8.012-.174 16.035.061 24.044.183 6.209.909 12.401 1.256 18.609.322 5.77.375 11.555.705 17.325.393 6.856 1.251 13.696 1.378 20.553.219 11.876.35 23.773-.131 35.635-.216 5.318.68 10.56.221 15.842-.198 2.267-.435 4.535-.524 6.807-.137 3.503-.146 7.011-.238 10.516-.261 9.935-.147 19.901-.92 29.796-.733 9.383-.343 18.744-.589 28.111-.213 8.101-.583 16.198-.703 24.3-.041 2.811.465 5.629.702 8.445.04.477.012.967-.044 1.444-.215 1.844-1.625 3.135-3.434 3.172-1.865.039-3.446-1.241-3.624-3.116-.392-4.12-.7-8.248-1.042-12.372l.547-.019zM444.536 393.244c.281 9.371.597 18.74.812 28.112.039 1.686-.273 3.391-.547 5.067-.1.613-.481 1.228-.871 1.735-.776 1.008-1.954 1.06-2.637.006-.577-.89-1.035-1.954-1.198-2.996-.323-2.068-.466-4.171-.58-6.265-.68-12.517-.811-25.044-.801-37.577.004-5.471-.172-10.942-.249-16.413a5.318 5.318 0 01.198-1.427c.341-1.264 1.277-1.973 2.49-1.9 1.261.076 2.117.789 2.263 1.996.283 2.344.465 4.705.568 7.065.331 7.527.606 15.056.902 22.584l-.35.013zM299.117 458.19c-.249 1.657-.549 3.308-.734 4.972-.16 1.438-.818 2.379-1.989 2.577a2.233 2.233 0 01-2.616-2.145c-.107-2.781.224-5.541 1.611-8.009 1.68-2.988 5.582-3.432 7.769-.842 3.121 3.698 5.077 7.835 5.158 12.876.045 2.757 1.036 5.488 1.468 8.252.33 2.113.529 4.255.635 6.391.056 1.116-.033 2.576-1.341 2.835-1.337.266-1.78-1.16-2.059-2.152-.934-3.32-1.771-6.67-2.545-10.031-.795-3.453-1.325-6.973-2.268-10.381-.437-1.581-1.578-2.966-2.401-4.44l-.688.097zM323.494 467.212c2.575-.157 5.15-.333 7.727-.458.691-.034 1.425-.03 2.071.174.477.151 1.111.608 1.183 1.016.075.418-.335 1.123-.738 1.379-.678.432-1.508.819-2.291.854-3.14.137-6.287.134-9.431.177-1.442.02-2.885.019-4.326.043-.612.01-1.223.081-1.835.083-1.002.001-1.756-.458-1.845-1.483-.091-1.055.619-1.621 1.612-1.692 1.656-.119 3.319-.166 4.98-.216.961-.029 1.925-.006 2.887-.006l.006.129zM280.439 318.216c.528-1.428.815-2.693 1.459-3.736.304-.493 1.41-.909 1.936-.728.528.182 1.129 1.172 1.088 1.767-.077 1.146-.495 2.301-.941 3.381-.338.818-1.045 1.676-2.009 1.221-.645-.304-1.004-1.213-1.533-1.905zM300.778 318.379c-.025-1.339.327-2.105 1.379-2.265 1.053-.16 1.647.463 1.877 1.423.255 1.061.524 2.13.635 3.211.097.95-.125 1.961-1.248 2.15-1.069.181-1.721-.598-2-1.53-.323-1.083-.482-2.215-.643-2.989zM255.427 281.125c-.48-.413-1.222-.746-1.313-1.208-.108-.546.168-1.468.595-1.758.955-.649 2.078-1.1 3.189-1.453.918-.29 1.918-.096 2.357.875.469 1.035-.35 1.652-1.125 2.037-1.119.556-2.317.953-3.703 1.507zM346.887 287.295c-1.37-.745-2.621-1.274-3.665-2.074-.362-.278-.485-1.405-.217-1.816.256-.393 1.229-.603 1.772-.459.993.264 1.963.756 2.822 1.334.496.334 1.171 1.211 1.034 1.511-.268.589-1.046.945-1.746 1.504zM337.363 305.524c-1.385-.037-3.147-2.594-2.701-3.917.388-1.149 1.684-1.432 2.478-.498.56.66 1.082 1.367 1.523 2.11.648 1.091-.085 2.338-1.3 2.305zM324.636 314.961c-.264.194-.716.78-1.247.863-1.212.189-3.123-1.818-3.042-3.076.058-.906.579-1.444 1.514-1.471 1.159-.034 2.767 1.846 2.775 3.684zM266.929 309.721c-.233-.301-.846-.77-.992-1.357-.232-.923 1.745-2.356 3.177-2.285.39.019 1.028.525 1.08.876.17 1.164-1.549 2.762-3.265 2.766zM259.374 296.621c-.893-.074-1.498-.627-1.588-1.638-.083-.937.768-1.759 1.734-1.762 1.022-.003 1.96.771 1.916 1.583-.049.912-1.015 1.82-2.062 1.817zM348.943 272.971c-1.61-.001-2.782-.778-2.576-1.52.123-.441.855-1.096 1.175-1.026.948.207 2.332.058 2.491 1.414.047.401-.867.914-1.09 1.132z" />
</svg>
