<svg width="670" height="408" viewBox="0 0 670 408" fill="none" xmlns="http://www.w3.org/2000/svg">
<g clip-path="url(#clip0)">
<path d="M133.209 302.544C129.794 302.59 126.378 302.824 123.499 300.489C119.693 297.36 118.717 292.082 121.157 287.319C123.597 282.601 126.769 278.258 129.745 273.868C130.331 273.027 131.111 272.327 131.258 271.253C131.648 271.066 131.746 270.692 131.746 270.318C131.794 270.318 131.892 270.272 131.892 270.225C131.941 270.225 131.941 270.132 131.941 270.085C131.892 270.132 131.794 270.225 131.746 270.272C131.355 270.459 131.258 270.786 131.258 271.206C130.038 271.299 129.208 272.047 128.379 272.84C122.572 278.398 116.375 283.442 110.032 288.439C105.348 292.129 99.9315 292.923 95.5887 290.588C93.9785 289.7 92.6611 288.579 91.9291 286.992C91.2948 285.684 90.7093 285.824 89.8798 286.758C86.1226 290.961 81.975 294.791 77.9251 298.714C74.607 301.89 70.1667 302.45 66.1168 300.302C62.4084 298.294 60.5054 293.857 61.4325 289.747C62.6035 284.656 66.2143 281.014 69.3372 277.09C70.3131 275.876 71.4354 274.709 72.5089 273.588C72.8992 273.167 73.2896 272.794 72.8504 272.187C69.6788 267.236 71.1914 262.846 74.7534 258.736C74.8998 258.596 74.8998 258.316 75.0462 257.942C73.2896 258.082 71.7281 258.736 70.0203 258.736C65.4336 258.829 62.1156 256.915 60.3102 253.038C58.6024 249.395 59.0415 245.659 61.6764 242.483C64.4577 239.074 67.5318 235.851 70.5083 232.582C71.045 232.022 71.7769 231.555 71.7769 230.667C71.8257 230.621 71.8745 230.621 71.9233 230.574C71.9721 230.574 71.9233 230.481 71.9721 230.434C71.9233 230.481 71.8257 230.574 71.7769 230.621C69.2884 230.854 66.7999 231.228 64.3601 230.387C63.5306 230.107 63.2867 230.808 62.8475 231.275C61.3349 232.862 60.3102 234.871 58.1144 235.851C54.9916 237.206 52.4054 237.019 50.0633 234.871C47.77 232.769 47.0868 229.64 48.3067 226.931C49.6729 223.989 52.1127 221.747 54.1133 219.225C56.309 216.47 59.3343 214.368 61.2861 211.332C55.2355 210.351 50.2097 204.373 55.3331 197.134C57.1385 194.566 59.2855 192.231 61.4325 189.895C76.0709 174.483 91.6852 159.959 107.056 145.247C108.324 144.033 110.374 143.426 110.813 141.464C110.959 141.324 111.154 141.137 111.301 140.997C111.349 140.997 111.447 140.95 111.496 140.95C111.545 140.95 111.545 140.857 111.545 140.81C111.496 140.857 111.398 140.95 111.349 140.997C111.203 141.137 111.008 141.324 110.861 141.464C107.641 143.005 105.153 145.434 102.322 147.489C97.3942 151.038 92.5147 154.588 87.7328 158.324C82.219 162.667 77.1932 167.525 72.0697 172.288C69.63 174.577 67.0439 176.678 64.4089 178.733C60.5542 181.676 55.1867 181.395 51.9663 178.266C48.6971 175.09 48.5019 170.047 51.5271 166.357C56.1626 160.706 61.9204 156.129 67.6294 151.552C71.9233 148.143 76.2661 144.78 80.2672 141.044C89.6358 132.31 99.0044 123.53 107.983 114.47C118.083 104.242 128.623 94.4339 139.016 84.4861C147.116 76.7801 155.557 69.4009 164.877 63.0026C168.683 60.3872 172.831 58.5191 177.271 57.2114C179.711 56.5108 183.029 57.4449 184.054 59.2196C185.225 61.2746 184.298 63.0493 182.98 64.7773C182.151 65.8515 181.272 66.8323 180.296 67.7663C179.467 68.5603 178.735 69.3542 178.637 70.5218C178.589 70.5685 178.491 70.6619 178.442 70.7086C178.54 70.6619 178.589 70.5685 178.686 70.5218C182.834 68.8872 186.444 66.3185 190.25 64.2169C197.96 59.9202 205.718 55.6702 213.818 52.1207C218.698 49.9724 224.651 51.8405 225.529 57.3515C225.822 59.1729 226.895 58.2389 227.627 57.8652C231.189 56.0438 234.751 54.129 238.313 52.3542C239.387 51.7938 240.558 51.4202 241.68 51.0466C246.511 49.4119 249.975 53.1482 248.755 57.5383C248.121 59.7334 248.609 60.107 250.658 59.8735C251.146 59.8268 251.781 59.7801 252.073 60.0136C254.513 62.1152 256.123 60.1537 257.88 58.9394C260.808 56.9779 263.638 54.8762 266.614 53.0548C272.128 49.6922 277.983 51.3268 280.569 56.8845C281.35 58.5191 281.301 60.2004 280.765 61.8817C280.472 62.8158 280.081 63.7031 279.545 65.2443C281.253 64.4504 282.424 63.8433 283.643 63.2828C286.181 62.1152 289.157 62.5356 290.865 64.3103C292.622 66.1317 292.866 68.8872 291.499 71.2691C290.133 73.6042 288.23 75.5191 286.376 77.4339C281.789 82.1509 276.666 86.3075 271.64 90.6509C271.201 91.0713 270.81 91.5383 270.127 92.2856C271.933 92.2389 272.713 91.1647 273.592 90.5108C280.667 85.3268 287.401 79.7224 295.208 75.5658C296.769 74.7251 298.331 73.9312 300.087 73.5108C301.112 73.2773 301.746 73.5575 301.112 74.7251C300.77 75.3323 300.429 75.9861 300.039 76.5465C299.258 77.574 299.111 78.5081 299.697 79.7691C301.063 82.618 299.502 84.813 297.599 86.868C292.817 91.8652 287.108 95.8817 281.887 100.365C278.569 103.214 275.153 105.97 271.835 108.772C265.833 113.769 259.832 118.673 253.879 123.717C251.878 125.398 250.024 127.313 248.121 129.088C239.24 137.494 230.018 145.527 220.503 153.233C215.624 157.203 210.793 161.22 206.011 165.236C205.377 165.797 204.547 166.264 204.547 167.291C203.815 167.291 203.132 167.291 203.083 168.225C202.693 168.225 202.303 168.319 202.108 168.692C202.059 168.692 202.01 168.739 201.961 168.786C201.912 168.786 201.912 168.879 201.912 168.879C201.961 168.832 202.059 168.739 202.108 168.692C202.498 168.692 202.888 168.599 203.083 168.225C203.767 168.225 204.255 167.898 204.547 167.291C208.353 165.703 212.013 163.695 215.916 162.667C220.308 161.5 222.943 158.371 226.066 155.755C232.946 149.964 239.777 144.126 246.803 138.569C253.342 133.384 259.783 128.06 266.321 122.83C273.933 116.711 281.594 110.593 289.255 104.522C296.818 98.5438 304.332 92.5658 311.944 86.6812C317.849 82.1042 323.899 77.7141 330.389 73.324C327.803 72.3432 325.656 71.3625 324.875 68.7004C324.387 67.1125 324.729 65.8048 325.363 64.4504C326.827 61.3213 330.194 59.7801 333.268 60.7608C336.537 61.7883 337.708 64.2169 336.83 68.3268C337.659 68.5603 337.903 67.813 338.294 67.4394C340.733 65.1509 343.124 62.8158 345.564 60.5273C350.004 56.4174 355.86 56.3707 360.349 60.3405C361.227 61.1345 361.764 61.3213 362.74 60.4806C366.595 57.1647 370.498 53.8954 374.402 50.6729C375.719 49.552 377.037 48.3378 378.988 48.2444C381.818 48.0575 383.673 50.1592 382.843 52.7279C381.965 55.6235 379.769 57.8652 377.72 60.0136C373.767 64.1235 369.083 67.4861 364.789 71.2691C362.398 73.3707 360.154 75.6125 357.811 77.8075C357.421 78.1812 356.884 78.6949 357.372 79.2086C357.86 79.7691 358.446 79.1619 358.885 78.9284C361.081 77.8542 363.325 76.7801 365.716 78.5081C367.522 79.7691 368.351 81.4037 367.57 83.552C366.253 87.335 363.325 89.9037 360.398 92.5191C357.763 94.9009 354.884 97.096 352.249 99.4779C345.32 105.83 337.952 111.714 331.414 118.439C330.34 119.56 329.364 120.775 328.339 121.989C328.681 122.176 328.779 122.362 328.925 122.316C329.852 122.176 330.682 120.775 331.462 121.428C332.389 122.222 331.17 123.297 330.779 124.137C327.754 131.423 322.338 136.934 316.336 142.025C315.214 142.959 313.847 143.426 312.481 142.959C311.213 142.492 310.529 142.959 309.749 143.799C303.454 150.758 297.16 157.764 290.816 164.676C287.596 168.178 284.278 171.588 281.057 175.044C274.568 182.003 268.127 188.961 261.637 195.873C256.855 200.964 252.122 206.055 247.291 211.052C240.07 218.525 233.043 226.184 225.529 233.329C225.334 233.516 225.187 233.843 225.383 234.497C226.749 233.47 228.164 232.489 229.433 231.368C238.264 223.522 247.291 215.816 256.66 208.53C260.32 205.681 263.199 202.038 266.419 198.769C270.371 194.659 274.129 190.362 278.13 186.299C284.815 179.481 291.499 172.755 298.184 165.983C308.822 155.195 319.849 144.733 331.023 134.365C338.879 127.08 346.589 119.607 354.445 112.275C363.325 103.961 372.059 95.4614 381.087 87.335C389.43 79.8625 397.677 72.2965 406.411 65.2443C410.315 62.0685 417.585 61.4614 421.098 65.7114C423.684 68.7938 423.977 74.2581 420.952 77.0603C417.195 80.563 413.193 83.879 409.29 87.2416C406.704 89.4834 404.02 91.585 401.483 93.9202C386.21 107.791 371.474 122.176 356.592 136.42C356.25 136.747 355.811 137.027 355.86 137.588C356.104 137.915 356.396 137.868 356.689 137.634C368.937 128.621 380.94 119.28 392.992 110.033C404.118 101.486 415.877 93.7801 427.734 86.1674C431.687 83.5987 435.444 80.7965 439.396 78.1812C442.421 76.1729 445.544 76.8735 447.496 79.8625C448.13 80.89 448.57 81.0301 449.448 80.1894C450.424 79.2553 451.497 78.368 452.62 77.6674C455.596 75.7526 458.963 75.846 461.403 77.8542C464.379 80.2361 465.111 83.1784 463.452 86.5878C462.232 89.1097 460.866 91.585 459.548 94.0603C459.402 94.2004 459.256 94.3872 459.06 94.5273C459.012 94.574 458.963 94.574 458.914 94.6207C458.865 94.6207 458.914 94.7141 458.865 94.7608C458.914 94.7141 459.012 94.6207 459.06 94.574C459.207 94.4339 459.402 94.2938 459.548 94.1537C462.769 93.4531 464.916 91.0713 467.502 89.4367C472.869 85.9806 478.188 82.4312 483.702 79.2086C486.629 77.4806 491.021 77.9476 493.753 80.0493C496.144 81.9174 497.267 85.6537 496.242 88.7361C494.827 93.1262 491.46 96.2553 488.581 99.6647C485.458 103.354 482.14 106.81 478.969 110.406C478.432 111.014 477.749 111.621 477.7 112.975C479.554 111.808 481.213 110.92 482.726 109.846C489.167 105.362 495.852 101.299 502.683 97.4229C505.22 95.9751 508.148 96.1152 509.905 97.7965C511.71 99.5246 511.905 102.794 510.246 105.129C507.172 109.426 503.756 113.489 499.999 117.178C495.949 121.195 492.094 125.351 487.801 129.181C482.97 133.431 478.09 137.634 472.821 141.371C466.819 145.621 461.451 150.571 455.938 155.335C445.788 164.115 435.639 172.942 425.685 181.909C420.561 186.533 415.292 191.016 410.119 195.593C409.924 195.78 409.924 196.154 409.827 196.434C409.778 196.481 409.68 196.574 409.631 196.621C409.729 196.574 409.778 196.481 409.875 196.434C413.242 195.22 415.975 192.978 419 191.156C427.734 185.926 436.615 180.928 445.788 176.398C448.277 175.184 450.961 174.717 453.693 174.25C455.547 173.923 455.547 174.717 455.01 175.884C454.083 177.893 453.01 179.761 451.351 181.349C448.228 184.291 445.105 187.28 442.031 190.269C441.69 190.596 440.909 190.97 441.494 191.577C442.031 192.09 442.519 191.577 442.958 191.203C450.424 185.505 457.841 179.761 465.306 174.063C472.089 168.879 478.871 163.788 485.605 158.604C490.435 154.915 495.412 151.459 500.877 148.75C504.098 147.162 508.294 147.676 510.636 149.824C512.979 151.972 513.564 155.615 511.905 158.931C509.709 163.368 506.489 167.198 503.171 170.887C494.534 180.461 484.922 189.242 475.602 198.209C475.114 198.676 474.333 199.003 474.48 200.123C476.431 199.329 477.7 197.788 479.164 196.574C485.361 191.577 491.363 186.393 497.803 181.676C500.634 179.574 503.708 177.612 507.562 178.36C512.686 179.34 515.955 184.478 513.954 190.129C512.637 193.819 510.197 196.808 507.66 199.703C502.732 205.261 497.608 210.678 491.997 215.629C484.385 222.354 476.529 228.846 468.917 235.571C464.379 239.541 459.988 243.744 455.547 247.808C455.108 248.181 454.766 248.601 454.815 249.209C454.425 249.209 454.035 249.302 453.839 249.676C453.791 249.722 453.742 249.722 453.693 249.769C453.644 249.769 453.644 249.862 453.644 249.909C453.693 249.862 453.791 249.769 453.839 249.722C454.23 249.722 454.62 249.629 454.815 249.255C458.865 247.527 461.842 244.351 465.257 241.783C471.552 237.019 477.7 232.115 483.799 227.165C487.996 223.755 492.143 220.253 496.925 217.637C500.682 215.582 504.683 215.209 508.441 217.544C511.905 219.692 513.71 222.775 513.32 226.838C513.027 229.92 511.564 232.489 508.929 234.31C499.804 240.662 491.411 247.854 482.872 254.813C482.14 255.42 481.408 255.981 480.286 256.868C485.41 257.662 488.288 259.95 489.216 264.247C489.752 266.769 489.02 269.058 487.654 271.112C479.847 283.022 471.991 294.838 464.184 306.747C462.525 309.269 460.524 311.464 457.499 312.585C452.229 314.547 446.081 311.231 445.008 305.86C444.959 305.579 444.861 305.299 444.764 304.879C440.274 307.401 435.932 309.97 431.491 312.305C426.466 314.967 421.391 317.676 415.682 318.843C408.119 320.431 402.361 319.59 398.116 312.678C397.384 311.511 396.798 312.071 396.018 312.632C391.138 316.088 386.405 319.777 381.184 322.72C374.694 326.409 365.814 324.634 362.837 316.648C362.252 315.06 362.74 313.379 362.349 311.511C359.958 312.398 358.495 314.36 356.738 315.807C350.053 321.225 343.71 327.016 337.61 333.088C335.951 334.769 334.439 336.59 332.487 337.992C325.119 343.269 314.97 340.233 312.53 331.92C311.115 327.11 313.75 321.178 318.337 317.489C324.582 312.398 330.242 306.7 335.756 300.909C336.098 300.582 336.391 300.209 336.732 299.835C343.759 292.923 350.785 286.011 357.86 279.145C359.666 277.371 361.666 275.783 363.569 274.055C364.057 273.588 364.789 273.214 364.838 271.86C362.301 273.821 360.007 275.503 357.811 277.277C349.565 284.049 341.319 290.775 333.17 297.64C327.412 302.544 321.752 307.541 315.653 311.978C312.188 314.5 308.529 316.228 303.942 315.014C301.307 314.313 299.502 312.678 298.038 310.764C296.964 309.316 296.525 309.736 295.549 310.67C293.354 312.818 291.207 315.06 288.621 316.882C283.839 320.244 276.763 319.31 273.201 314.827C272.47 313.939 271.689 313.472 270.518 313.659C265.053 314.5 260.808 312.492 257.831 308.242C254.757 303.805 255.196 299.088 257.782 294.557C261.539 287.972 266.809 282.461 271.347 276.437C271.64 276.016 272.226 275.736 272.03 275.036C270.859 274.942 270.469 275.876 269.883 276.39C261.735 284.143 253.781 291.989 245.535 299.601C240.167 304.552 234.654 309.362 228.847 313.799C221.674 319.264 213.428 317.349 209.671 309.362C209.036 308.008 208.744 307.868 207.573 308.895C202.644 313.379 197.618 317.816 192.641 322.253C188.25 326.222 182.98 326.783 178.491 323.747C176.588 322.439 175.563 320.618 175.222 318.516C175.027 317.302 174.392 316.648 173.319 316.415C165.707 314.92 161.657 306.56 165.024 299.228C165.121 298.948 165.17 298.667 165.316 298.2C163.804 298.434 163.511 299.648 162.779 300.349C157.021 305.813 151.361 311.417 145.067 316.368C141.358 319.264 136.771 320.011 132.868 318.049C128.135 315.667 126.964 309.362 130.526 305.486C131.453 304.365 132.331 303.478 133.209 302.544C133.258 302.544 133.356 302.497 133.405 302.45C133.453 302.45 133.405 302.357 133.453 302.31C133.307 302.404 133.258 302.497 133.209 302.544ZM354.201 138.615C354.249 138.569 354.298 138.475 354.347 138.428C354.298 138.522 354.249 138.569 354.201 138.615C354.152 138.709 354.152 138.755 354.103 138.802C354.152 138.755 354.152 138.709 354.201 138.615ZM273.201 273.121C273.348 272.981 273.543 272.794 273.689 272.654C273.836 272.514 274.031 272.327 274.177 272.187C274.226 272.14 274.275 272.14 274.324 272.093C274.373 272.093 274.324 272 274.372 271.953C274.324 272 274.226 272.093 274.177 272.14C274.031 272.28 273.836 272.467 273.689 272.607C273.543 272.84 273.397 272.981 273.201 273.121C273.153 273.121 273.055 273.167 273.006 273.214C272.957 273.261 273.006 273.308 272.957 273.354C273.055 273.261 273.153 273.214 273.201 273.121ZM356.152 79.8158C356.201 79.8158 356.299 79.7691 356.348 79.7224C356.396 79.7224 356.396 79.629 356.396 79.5823C356.299 79.6757 356.25 79.7224 356.152 79.8158C356.104 79.8625 356.055 79.8625 356.006 79.9092C355.957 79.9092 356.006 80.0026 355.957 80.0493C356.006 79.9559 356.104 79.8625 356.152 79.8158ZM220.015 239.027C220.162 238.887 220.357 238.7 220.503 238.56C220.65 238.42 220.845 238.233 220.991 238.093C221.137 237.953 221.333 237.766 221.479 237.626C221.625 237.486 221.821 237.299 221.967 237.159C222.113 237.019 222.309 236.832 222.455 236.692C222.601 236.552 222.797 236.365 222.943 236.225C222.992 236.178 223.089 236.085 223.138 236.038C223.04 236.085 222.992 236.178 222.894 236.225C222.748 236.365 222.553 236.552 222.406 236.692C222.26 236.832 222.065 237.019 221.918 237.159C221.772 237.299 221.577 237.486 221.43 237.626C221.284 237.766 221.089 237.953 220.942 238.093C220.796 238.233 220.601 238.42 220.454 238.56C220.357 238.747 220.21 238.887 220.015 239.027C219.966 239.074 219.918 239.074 219.869 239.121C219.82 239.121 219.869 239.214 219.82 239.261C219.918 239.167 219.966 239.121 220.015 239.027ZM465.453 207.269C465.501 207.222 465.55 207.129 465.599 207.082C465.55 207.176 465.501 207.222 465.453 207.269C465.404 207.362 465.404 207.409 465.355 207.456C465.355 207.409 465.404 207.362 465.453 207.269ZM468.38 204.934C468.527 204.794 468.722 204.607 468.868 204.467C469.015 204.327 469.21 204.14 469.356 204C471.162 203.439 472.137 202.038 472.967 200.544C471.357 201.338 469.942 202.225 469.307 204C469.161 204.14 468.966 204.327 468.819 204.467C468.673 204.607 468.478 204.794 468.234 205.121C468.331 205.074 468.331 205.027 468.38 204.934C468.331 204.934 468.234 204.981 468.185 204.981C468.136 204.981 468.136 205.074 468.136 205.121C468.185 205.121 468.234 205.121 468.38 204.934ZM359.568 191.39C359.617 191.343 359.666 191.25 359.666 191.203C359.666 191.297 359.617 191.343 359.568 191.39C359.422 191.577 359.275 191.717 359.08 191.857C358.787 191.95 358.397 191.95 358.153 192.137C353.078 196.481 347.955 200.871 342.88 205.261C342.392 205.681 341.904 206.101 341.953 206.802C341.563 206.802 341.172 206.895 340.977 207.269C340.831 207.409 340.636 207.596 340.489 207.736C339.562 207.783 339.074 208.25 339.025 209.137C338.977 209.184 338.928 209.277 338.879 209.324C338.928 209.277 338.977 209.184 338.977 209.137C339.904 209.09 340.392 208.623 340.441 207.736C340.587 207.596 340.782 207.409 340.928 207.269C341.319 207.269 341.709 207.176 341.904 206.802C342.197 206.709 342.587 206.709 342.783 206.522C345.954 204.047 349.224 201.665 352.151 198.956C354.542 196.761 357.372 194.846 358.934 191.857C359.226 191.717 359.422 191.577 359.568 191.39ZM112.716 140.063C112.667 140.11 112.618 140.203 112.569 140.25C112.618 140.156 112.667 140.11 112.716 140.063C112.764 139.97 112.764 139.923 112.813 139.876C112.764 139.923 112.764 139.97 112.716 140.063ZM366.887 270.318C366.692 270.412 366.204 270.085 366.35 270.692C366.546 270.552 366.692 270.459 366.887 270.318C366.936 270.272 366.985 270.272 367.034 270.225C367.082 270.225 367.082 270.132 367.082 270.132C367.034 270.225 366.936 270.272 366.887 270.318ZM266.37 95.2279C266.565 95.1812 266.809 95.0878 267.005 95.041C266.956 94.9943 266.907 94.9009 266.858 94.8542C266.761 94.9944 266.565 95.0877 266.37 95.2279C266.321 95.2746 266.224 95.2746 266.224 95.3213C266.175 95.3213 266.224 95.4147 266.175 95.4614C266.273 95.368 266.321 95.2746 266.37 95.2279ZM268.078 94.2471C269.005 93.9669 269.542 93.5932 269.639 92.3323C268.712 92.846 267.98 93.0328 268.078 94.2471ZM476.529 113.115C476.529 113.162 476.529 113.255 476.578 113.255C476.627 113.302 476.724 113.302 476.773 113.302C476.773 113.209 476.724 113.115 476.724 113.069C476.627 113.069 476.578 113.115 476.529 113.115ZM337.61 210.445C337.659 210.398 337.757 210.398 337.806 210.351C337.757 210.305 337.708 210.258 337.659 210.211C337.61 210.211 337.513 210.258 337.464 210.305C337.513 210.351 337.562 210.398 337.61 210.445ZM275.544 270.832C275.495 270.786 275.495 270.692 275.446 270.645C275.397 270.692 275.3 270.739 275.3 270.832C275.3 270.879 275.348 270.972 275.397 271.019C275.446 270.926 275.495 270.879 275.544 270.832Z" fill="#C3E7ED"/>
<path d="M657.411 299.508C659.314 298.995 661.217 298.574 662.974 299.929C665.608 301.937 665.95 304.412 663.852 307.541C661.51 311.091 658.68 314.313 655.898 317.536C655.557 317.909 654.874 318.143 655.313 318.984C656.874 318.236 658.436 317.442 659.997 316.695C660.924 316.275 661.9 315.761 662.925 315.574C665.12 315.154 667.316 314.967 668.975 316.882C670.586 318.75 670 320.618 669.024 322.533C667.219 326.082 664.389 328.885 661.802 331.827C657.704 336.497 653.312 341.027 649.018 345.511C647.994 346.585 648.042 347.192 649.311 348.033C651.8 349.714 651.995 352.096 651.263 354.712C650.58 357.047 649.457 359.242 648.042 361.203C643.065 368.115 638.869 375.635 631.94 381.146C630.086 382.593 628.378 383.621 626.036 382.734C623.547 381.753 622.913 379.791 623.255 377.409C623.303 377.036 623.352 376.662 623.45 375.962C621.156 376.896 619.058 377.456 616.96 375.915C614.862 374.327 614.813 372.225 614.96 369.797C613.349 370.404 612.813 371.805 611.934 372.786C610.812 374.047 609.69 375.214 608.47 376.382C606.225 378.577 604.078 378.904 602.029 377.456C599.687 375.821 598.906 373.206 600.467 370.684C602.273 367.835 604.42 365.22 606.42 362.464C606.664 362.184 606.86 361.857 607.348 361.157C605.054 361.624 604.469 363.352 603.542 364.473C600.809 367.695 598.321 371.151 595.686 374.514C592.758 378.297 588.22 378.437 585.829 374.841C584.853 373.44 585.39 371.805 585 369.703C583.243 372.179 581.779 374.234 580.364 376.335C579.486 377.643 578.412 378.624 576.753 378.764C574.655 378.951 572.606 378.764 571.337 376.896C570.068 375.028 570.166 373.019 571.142 371.104C573.826 365.78 577.436 360.97 580.803 356.066C582.657 353.31 585 350.835 586.561 347.753C585.292 347.613 585.048 348.453 584.609 349.014C579.632 355.132 574.997 361.484 570.556 367.975C569.532 369.47 568.312 370.918 566.311 371.291C561.968 372.038 559.285 368.816 560.456 364.426C561.09 362.137 563.042 360.503 563.53 358.121C556.162 358.541 553.917 355.132 557.235 348.64C561.334 340.747 566.946 333.835 572.703 326.97C576.802 322.066 580.901 317.162 585.292 312.538C585.585 312.212 586.122 311.978 585.78 311.231C584.804 311.231 584.365 312.071 583.78 312.632C577.241 318.843 570.752 325.055 564.262 331.267C561.92 333.508 559.431 335.657 556.747 337.525C554.454 339.113 551.526 339.113 549.721 337.665C547.769 336.124 547.184 333.508 548.404 330.94C549.135 329.305 550.063 327.717 550.892 326.129C551.185 325.569 551.77 324.915 550.453 324.635C546.647 323.747 545.769 322.159 546.842 318.563C547.574 316.041 549.038 313.893 550.551 311.791C557.235 302.264 563.871 292.736 571.239 283.676C571.679 283.115 572.167 282.602 572.752 282.181C574.314 281.06 576.07 280.64 577.68 281.854C579.437 283.209 579.193 285.03 578.217 286.665C577.436 288.066 576.412 289.327 575.875 291.008C577.778 289.42 579.73 287.926 581.535 286.245C585.536 282.508 589.684 278.912 593.88 275.409C595.637 273.962 598.272 273.728 599.687 274.849C601.443 276.25 601.834 278.725 600.419 280.734C598.272 283.723 595.978 286.618 593.734 289.56C593.49 289.887 592.904 290.121 593.392 291.008C595.686 289.187 597.979 287.412 600.272 285.684C605.396 281.761 610.568 277.838 616.521 275.129C620.522 273.308 623.157 274.195 624.767 277.604C625.255 278.585 625.011 279.519 624.816 280.407C625.694 280.78 625.987 280.126 626.426 279.94C629.94 278.212 633.502 280.033 633.941 283.816C634.038 284.47 633.502 285.404 634.429 285.684C635.161 285.918 635.6 284.984 636.136 284.563C636.576 284.19 636.917 283.769 637.356 283.442C639.601 281.574 642.333 281.201 644.236 282.555C646.53 284.19 647.018 286.571 645.603 289.327C644.334 291.802 642.675 293.997 641.016 296.192C640.528 296.799 639.942 297.36 639.942 298.761C642.138 296.986 644.041 295.492 645.895 293.857C648.14 291.849 650.433 289.841 652.922 288.159C655.459 286.478 657.655 286.618 659.558 288.299C661.656 290.168 661.851 292.456 660.387 295.071C659.558 296.659 657.899 297.734 657.411 299.508C657.362 299.508 657.265 299.555 657.265 299.555C657.216 299.555 657.216 299.648 657.216 299.695C657.313 299.648 657.362 299.602 657.411 299.508ZM607.982 360.736C608.226 360.316 608.421 360.176 608.421 359.989C608.421 359.849 608.275 359.662 608.226 359.475C608.079 359.615 607.835 359.709 607.787 359.849C607.689 359.989 607.836 360.223 607.982 360.736ZM587.195 346.398C587.098 346.445 586.903 346.492 586.854 346.585C586.805 346.679 586.951 346.819 587 346.959C587.147 346.865 587.293 346.772 587.439 346.679C587.391 346.585 587.293 346.492 587.195 346.398ZM588.513 345.231C588.464 345.184 588.415 345.137 588.415 345.091C588.366 345.137 588.318 345.184 588.269 345.231C588.318 345.278 588.415 345.371 588.464 345.418C588.464 345.371 588.513 345.324 588.513 345.231Z" fill="#FAF1D6"/>
<path d="M50.5025 17.2335C54.894 15.739 58.6024 13.0769 62.6036 10.8818C65.1409 9.48075 67.6294 8.03295 70.2643 6.81866C73.2896 5.41756 75.8757 5.74448 78.0227 7.84613C80.0721 9.85437 80.4136 12.6566 79.0474 15.3654C78.7058 16.0192 77.9251 16.4862 78.0715 17.7005C80.804 15.8791 83.3901 14.1044 86.025 12.3764C88.6599 10.695 91.1973 8.92031 93.9786 7.4258C97.2966 5.60437 101.298 6.44503 103.884 9.24723C106.177 11.7225 106.324 15.8324 103.933 18.9615C101.493 22.1373 98.858 25.1731 96.2719 28.2555C95.6864 28.956 95.0033 29.6566 94.7593 30.6373C96.5647 31.011 98.1749 30.0302 100.078 30.5439C106.665 32.272 109.105 37.8297 105.445 43.3406C103.298 46.5632 100.663 49.3654 98.0285 52.2143C92.4659 58.3791 86.1226 63.8434 81.4383 70.7088C78.901 74.3983 73.6312 75.6593 70.0204 73.9313C68.5565 73.2308 67.4342 72.1099 66.8975 70.8022C66.1656 68.9341 65.2873 69.8681 64.4578 70.4753C59.4319 74.1181 54.4548 77.8077 49.3802 81.4038C44.5983 84.8132 39.8652 88.3626 34.693 91.3049C28.2521 94.9478 21.1769 92.0055 19.8594 84.9533C19.2739 81.7308 20.8841 79.0687 23.0799 76.7335C24.2997 75.4258 24.1045 75.0055 22.4455 74.3983C17.6149 72.5769 15.7607 68.4203 17.0781 63.5632C18.1028 59.9203 20.6401 57.1648 22.9335 53.3819C18.9323 54.9698 15.2239 54.7829 11.8083 56.1373C6.88002 58.0522 1.70778 55.9038 0.341531 51.3736C-1.07352 46.7033 1.5126 41.5659 6.29448 39.6978C6.68484 39.5577 7.0752 39.3709 7.46556 39.3242C14.248 38.9972 17.0781 33.6264 20.7865 29.5165C24.4461 25.4066 28.5449 21.8104 32.4484 17.9807C35.2785 15.1786 38.1574 12.4231 41.0851 9.76097C44.3056 6.81866 47.8188 6.72525 50.2585 9.34064C51.8199 10.9753 51.6248 12.8901 51.2344 14.8516C51.088 15.5989 50.7465 16.4395 50.5025 17.2335C50.4537 17.2802 50.4537 17.3736 50.4049 17.4203C50.4049 17.3736 50.4537 17.2802 50.5025 17.2335Z" fill="#FAF1D6"/>
<path d="M96.6135 380.772C98.7604 380.258 100.615 379.044 102.566 378.156C104.811 377.082 107.202 376.709 109.593 376.662C113.545 376.522 115.107 379.277 113.252 382.547C111.154 386.189 107.885 388.711 104.518 391.14C101.786 393.102 99.2972 395.297 96.8574 397.585C93.1003 401.088 89.2943 404.591 84.5124 406.926C81.1943 408.56 77.8763 408.467 74.851 406.412C71.6306 404.17 71.0938 400.948 72.021 397.445C72.0697 397.211 72.0697 396.978 72.1185 396.558C69.9228 397.025 68.8981 398.893 67.2879 399.827C64.8969 401.228 62.6036 402.816 59.7247 403.33C50.9904 404.777 47.1844 397.211 49.2826 391.747C49.5754 391.047 49.8682 390.299 50.2585 389.272C48.7459 389.552 47.526 389.739 46.3061 389.972C41.6706 390.953 36.596 388.571 35.0834 384.321C34.0587 381.379 34.2539 378.297 35.9617 375.541C41.1827 367.041 46.5989 358.681 52.6495 350.742C56.3091 345.978 59.7735 341.121 63.4819 336.45C64.9945 334.536 66.5071 332.434 69.5324 332.247C72.6553 332.014 75.095 332.948 76.4613 335.516C77.7299 337.898 77.4372 340.514 75.8757 342.849C73.7776 346.071 71.5818 349.247 69.4836 352.47C69.0933 353.077 68.2638 353.544 68.5565 354.665C70.2155 353.824 71.533 352.75 72.7529 351.582C76.2661 348.22 79.7305 344.857 83.9269 342.288C88.2696 339.626 93.5394 340.841 95.784 344.997C96.8087 346.865 96.7599 348.967 96.4183 350.928C96.2231 352.189 96.5159 352.33 97.687 352.423C104.421 352.843 107.007 356.206 105.348 362.558C103.884 368.022 100.761 372.832 98.0773 377.783C97.5894 378.67 96.8087 379.604 96.6135 380.772C96.5647 380.865 96.5647 380.912 96.5159 380.959C96.5159 380.912 96.5647 380.819 96.6135 380.772Z" fill="#FAF1D6"/>
<path d="M468.332 24.4724C469.942 24.0988 471.21 23.7252 472.528 23.445C479.457 21.8571 484.873 27.1812 482.97 33.7664C482.189 36.3818 480.725 38.5768 478.334 40.0713C475.992 41.4724 473.553 42.4065 470.771 41.0054C469.942 40.5851 469.21 41.1922 468.527 41.6125C462.379 45.629 456.523 49.9724 450.863 54.6428C447.301 57.5851 443.641 60.3406 438.713 61.0411C431.443 62.0686 425.539 56.5109 427.344 49.2252C427.49 48.5713 427.783 47.9175 428.027 47.2169C428.32 46.423 428.271 46.0027 427.149 45.9093C418.415 45.1153 416.316 37.456 419.586 31.4312C423.294 24.6126 428.369 18.6345 433.102 12.423C435.688 9.06035 438.42 5.79112 441.348 2.662C443.983 -0.186904 447.301 -0.747344 450.326 0.747162C453.01 2.05485 454.23 5.09057 453.547 8.73343C453.449 9.20046 453.254 9.7609 453.644 10.0411C454.279 10.5082 454.62 9.8076 455.059 9.48068C457.841 7.37903 460.28 4.81035 463.306 2.98892C466.624 0.980678 470.235 0.933975 472.821 2.98892C475.944 5.4642 476.724 8.78013 475.358 12.423C474.138 15.6922 472.04 18.4477 470.088 21.2966C469.551 22.2774 468.673 23.0713 468.332 24.4724Z" fill="#FAF1D6"/>
<path d="M50.5513 148.937C47.4285 148.983 45.7206 146.695 46.599 143.706C47.7212 139.923 50.3561 137.027 52.8447 134.085C61.8229 123.437 71.6794 113.536 81.8775 103.961C90.6118 95.7884 99.9804 88.2225 109.788 81.1703C115.936 76.7335 122.036 72.2032 128.964 68.934C130.672 68.1401 132.429 67.6263 134.234 67.2527C136.186 66.8324 138.138 67.2994 139.114 69.0741C139.992 70.662 139.699 72.39 138.577 73.8846C135.064 78.5082 130.087 81.4972 125.451 84.8598C115.936 91.7252 106.519 98.684 97.7358 106.39C90.4654 112.742 83.5853 119.467 76.7541 126.239C71.0939 131.797 65.7753 137.681 59.9687 143.099C58.1633 144.78 56.1627 146.228 54.1621 147.676C53.1374 148.423 51.9664 149.03 50.5513 148.937Z" fill="#C3E7ED"/>
<path d="M204.45 167.151C204.157 167.758 203.669 168.085 202.986 168.085C202.986 167.104 203.669 167.104 204.45 167.151C204.401 167.104 204.45 167.151 204.45 167.151Z" fill="white"/>
<path d="M476.529 113.116C476.578 113.116 476.627 113.069 476.724 113.069C476.724 113.162 476.773 113.256 476.773 113.302C476.724 113.302 476.627 113.302 476.578 113.256C476.529 113.256 476.529 113.162 476.529 113.116Z" fill="white"/>
<path d="M202.937 168.085C202.742 168.459 202.352 168.552 201.961 168.552C202.205 168.132 202.547 168.039 202.937 168.085C202.937 168.039 202.937 168.085 202.937 168.085Z" fill="white"/>
<path d="M454.718 248.835C454.523 249.209 454.132 249.302 453.742 249.302C453.937 248.929 454.279 248.835 454.718 248.835Z" fill="white"/>
<path d="M131.746 270.319C131.746 270.692 131.648 271.066 131.258 271.253C131.258 271.253 131.209 271.253 131.209 271.206C131.209 270.879 131.307 270.506 131.746 270.319Z" fill="white"/>
<path d="M275.544 270.832C275.495 270.879 275.446 270.926 275.397 271.019C275.349 270.972 275.3 270.879 275.3 270.832C275.3 270.786 275.397 270.739 275.446 270.646C275.446 270.692 275.495 270.739 275.544 270.832Z" fill="white"/>
<path d="M366.887 270.319C366.692 270.459 366.546 270.552 366.351 270.692C366.204 270.132 366.692 270.459 366.887 270.319Z" fill="white"/>
<path d="M112.716 140.016C112.667 140.063 112.618 140.157 112.618 140.203C112.618 140.157 112.667 140.11 112.716 140.016Z" fill="white"/>
<path d="M111.252 140.997C111.301 140.951 111.398 140.857 111.447 140.81C111.447 140.857 111.447 140.904 111.398 140.951C111.35 140.951 111.301 140.951 111.252 140.997Z" fill="white"/>
<path d="M110.764 141.418C110.91 141.277 111.105 141.091 111.252 140.951C111.057 141.137 110.91 141.277 110.764 141.418C110.764 141.464 110.764 141.418 110.764 141.418Z" fill="white"/>
<path d="M201.961 168.505C201.912 168.552 201.815 168.646 201.766 168.692C201.766 168.646 201.766 168.599 201.815 168.599C201.864 168.552 201.912 168.552 201.961 168.505C202.01 168.552 201.961 168.505 201.961 168.505Z" fill="white"/>
<path d="M359.568 191.437C359.617 191.39 359.617 191.297 359.666 191.25C359.666 191.297 359.617 191.343 359.568 191.437C359.568 191.39 359.568 191.437 359.568 191.437Z" fill="white"/>
<path d="M359.08 191.904C359.226 191.763 359.422 191.577 359.568 191.437C359.422 191.577 359.226 191.717 359.08 191.904C359.08 191.857 359.08 191.904 359.08 191.904Z" fill="white"/>
<path d="M409.827 196.107C409.729 196.154 409.68 196.247 409.583 196.294C409.68 196.201 409.729 196.154 409.827 196.107C409.827 196.06 409.827 196.107 409.827 196.107Z" fill="white"/>
<path d="M468.868 204.467C469.015 204.327 469.21 204.14 469.356 204C469.21 204.187 469.015 204.327 468.868 204.467Z" fill="white"/>
<path d="M468.38 204.934C468.527 204.794 468.722 204.607 468.868 204.467C468.673 204.654 468.527 204.794 468.38 204.934Z" fill="white"/>
<path d="M465.453 207.316C465.501 207.269 465.55 207.176 465.55 207.129C465.501 207.176 465.501 207.222 465.453 207.316C465.453 207.269 465.453 207.316 465.453 207.316Z" fill="white"/>
<path d="M340.538 207.783C340.684 207.643 340.88 207.456 341.026 207.316C340.88 207.456 340.684 207.596 340.538 207.783C340.538 207.736 340.538 207.783 340.538 207.783Z" fill="white"/>
<path d="M465.453 207.269C465.404 207.316 465.404 207.409 465.355 207.456C465.355 207.409 465.404 207.363 465.453 207.269C465.453 207.316 465.453 207.269 465.453 207.269Z" fill="white"/>
<path d="M339.074 209.137C339.026 209.184 338.977 209.278 338.977 209.324C339.026 209.278 339.026 209.231 339.074 209.137C339.074 209.184 339.074 209.137 339.074 209.137Z" fill="white"/>
<path d="M178.588 70.475C178.491 70.5217 178.442 70.6151 178.344 70.6618C178.442 70.5684 178.491 70.5217 178.588 70.475C178.54 70.475 178.588 70.475 178.588 70.475Z" fill="white"/>
<path d="M71.7283 230.621C71.7771 230.574 71.8746 230.481 71.9234 230.434C71.9234 230.481 71.9234 230.527 71.8747 230.574C71.8259 230.621 71.7771 230.621 71.7283 230.621Z" fill="white"/>
<path d="M222.943 236.225C223.04 236.178 223.089 236.085 223.187 236.038C223.089 236.132 223.04 236.178 222.943 236.225C222.992 236.272 222.943 236.225 222.943 236.225Z" fill="white"/>
<path d="M222.455 236.692C222.601 236.552 222.797 236.365 222.943 236.225C222.797 236.412 222.65 236.552 222.455 236.692C222.504 236.692 222.455 236.692 222.455 236.692Z" fill="white"/>
<path d="M221.967 237.159C222.113 237.019 222.309 236.832 222.455 236.692C222.309 236.879 222.162 237.019 221.967 237.159Z" fill="white"/>
<path d="M221.967 237.159C221.821 237.3 221.625 237.486 221.479 237.626C221.674 237.486 221.821 237.346 221.967 237.159Z" fill="white"/>
<path d="M221.479 237.626C221.333 237.767 221.138 237.953 220.991 238.094C221.186 237.953 221.333 237.813 221.479 237.626Z" fill="white"/>
<path d="M220.991 238.094C220.845 238.234 220.65 238.42 220.503 238.561C220.698 238.42 220.845 238.28 220.991 238.094Z" fill="white"/>
<path d="M220.064 239.028C220.21 238.887 220.406 238.701 220.552 238.561C220.357 238.747 220.21 238.887 220.064 239.028Z" fill="white"/>
<path d="M220.015 239.027C219.966 239.074 219.869 239.168 219.82 239.214C219.82 239.168 219.82 239.121 219.869 239.074C219.918 239.074 219.966 239.074 220.015 239.027C220.064 239.027 220.015 239.027 220.015 239.027Z" fill="white"/>
<path d="M453.742 249.302C453.693 249.349 453.595 249.442 453.547 249.489C453.547 249.442 453.547 249.396 453.595 249.349C453.595 249.349 453.693 249.349 453.742 249.302Z" fill="white"/>
<path d="M131.746 270.318C131.794 270.272 131.892 270.178 131.941 270.132C131.941 270.178 131.941 270.225 131.892 270.272C131.843 270.318 131.794 270.318 131.746 270.318Z" fill="white"/>
<path d="M366.887 270.318C366.936 270.272 367.034 270.178 367.082 270.132C367.082 270.178 367.082 270.225 367.034 270.225C366.985 270.272 366.936 270.318 366.887 270.318Z" fill="white"/>
<path d="M356.152 79.8158C356.201 79.7691 356.299 79.6757 356.348 79.629C356.348 79.6757 356.348 79.7224 356.299 79.7691C356.299 79.7691 356.201 79.7691 356.152 79.8158Z" fill="white"/>
<path d="M356.152 79.8157C356.104 79.8624 356.006 79.9558 355.957 80.0025C355.957 79.9558 355.957 79.9091 356.006 79.8624C356.055 79.8624 356.104 79.8157 356.152 79.8157Z" fill="white"/>
<path d="M459.597 93.8269C459.451 93.967 459.256 94.1071 459.109 94.2472C459.256 94.1071 459.402 93.967 459.597 93.8269C459.548 93.7802 459.597 93.8269 459.597 93.8269Z" fill="white"/>
<path d="M459.109 94.2937C459.06 94.3404 458.963 94.4338 458.914 94.4805C458.914 94.4338 458.914 94.3871 458.963 94.3404C458.963 94.3404 459.06 94.2937 459.109 94.2937Z" fill="white"/>
<path d="M274.177 272.187C274.031 272.327 273.836 272.514 273.689 272.654C273.885 272.514 274.031 272.374 274.177 272.187Z" fill="white"/>
<path d="M273.201 273.121C273.348 272.981 273.543 272.794 273.689 272.654C273.543 272.841 273.397 272.981 273.201 273.121Z" fill="white"/>
<path d="M273.202 273.121C273.153 273.168 273.055 273.261 273.006 273.308C273.006 273.261 273.006 273.214 273.055 273.168C273.104 273.168 273.153 273.168 273.202 273.121Z" fill="white"/>
<path d="M266.37 95.2278C266.321 95.2745 266.224 95.3679 266.175 95.4146C266.175 95.3679 266.175 95.3212 266.224 95.2745C266.273 95.2745 266.321 95.2278 266.37 95.2278Z" fill="white"/>
<path d="M274.177 272.187C274.226 272.14 274.324 272.046 274.373 272C274.373 272.046 274.373 272.093 274.324 272.14C274.324 272.14 274.226 272.187 274.177 272.187Z" fill="white"/>
<path d="M354.201 138.662C354.249 138.615 354.298 138.522 354.298 138.475C354.298 138.522 354.249 138.569 354.201 138.662C354.201 138.615 354.201 138.662 354.201 138.662Z" fill="white"/>
<path d="M354.201 138.615C354.152 138.662 354.152 138.756 354.103 138.802C354.152 138.756 354.152 138.709 354.201 138.615C354.201 138.662 354.201 138.615 354.201 138.615Z" fill="white"/>
<path d="M112.716 140.063C112.765 140.016 112.765 139.923 112.813 139.876C112.765 139.923 112.716 139.97 112.716 140.063C112.716 140.016 112.716 140.063 112.716 140.063Z" fill="white"/>
<path d="M133.209 302.544C133.258 302.497 133.356 302.404 133.405 302.357C133.405 302.404 133.405 302.45 133.356 302.497C133.307 302.497 133.258 302.544 133.209 302.544Z" fill="white"/>
<path d="M583.828 346.025C583.682 345.511 583.536 345.277 583.585 345.137C583.633 344.997 583.877 344.904 584.024 344.764C584.121 344.95 584.268 345.09 584.219 345.277C584.268 345.464 584.072 345.651 583.828 346.025Z" fill="white"/>
<path d="M563.042 331.687C563.139 331.78 563.188 331.873 563.286 331.967C563.139 332.06 562.993 332.154 562.847 332.247C562.798 332.107 562.7 331.967 562.7 331.873C562.749 331.78 562.944 331.733 563.042 331.687Z" fill="white"/>
<path d="M564.359 330.519C564.359 330.566 564.31 330.612 564.31 330.706C564.262 330.659 564.164 330.566 564.115 330.519C564.164 330.472 564.213 330.426 564.262 330.379C564.31 330.426 564.31 330.472 564.359 330.519Z" fill="white"/>
<path d="M633.258 284.797C633.209 284.843 633.111 284.937 633.062 284.984C633.062 284.937 633.062 284.89 633.111 284.843C633.16 284.843 633.209 284.843 633.258 284.797Z" fill="white"/>
<path d="M23.4213 6.02441C23.3725 6.07112 23.3725 6.16452 23.3237 6.21123C23.3237 6.16452 23.3725 6.07112 23.4213 6.02441Z" fill="white"/>
<path d="M73.1921 368.863C73.1433 368.909 73.1433 369.003 73.0945 369.049C73.0945 369.003 73.1433 368.909 73.1921 368.863Z" fill="white"/>
<path d="M68.3126 15.1317C69.1909 15.2718 70.0204 15.5053 70.8987 15.5053C75.0463 15.552 79.1938 15.5053 83.3414 15.552C87.7817 15.552 88.904 16.5795 88.8552 20.7361C88.7576 29.5163 88.4648 38.2966 88.416 47.0768C88.3672 51.2801 88.7576 55.4834 88.8064 59.64C88.8552 63.0026 87.2449 64.4504 83.7805 64.5905C82.1703 64.6372 80.5601 64.5905 78.9498 64.5905C78.5107 66.9257 78.0715 68.9806 77.73 71.0356C76.9981 75.3323 74.4119 78.4147 70.6059 80.563C66.8488 82.6647 62.8964 84.2059 58.4073 84.1592C51.0881 84.0191 43.8177 83.8323 36.4985 83.8323C34.5955 83.8323 32.6437 84.2526 30.7407 84.4394C29.5208 84.5795 28.3009 84.7663 27.1299 84.7196C22.2016 84.5795 21.2257 83.5053 21.1769 78.835C20.9817 63.7498 20.7866 48.6647 20.5426 33.5795C20.4938 30.8707 20.2498 28.1619 20.1522 25.4531C20.1034 23.9586 20.5426 22.4641 22.3968 22.4174C24.3486 22.324 24.6413 23.8652 24.6901 25.3597C24.9829 35.7746 25.1781 46.1894 25.5196 56.6042C25.7636 64.1235 26.154 71.6427 26.4955 79.302C26.9835 79.3487 27.3738 79.4422 27.7154 79.3955C36.2057 77.1537 44.8423 78.4614 53.3814 78.5081C57.7729 78.5081 62.1157 78.4614 66.1656 76.313C68.8981 74.8652 71.2403 73.0905 71.777 70.0081C72.3138 66.9257 72.7041 63.7965 73.0457 60.6674C73.1921 59.1729 74.0704 58.5191 75.4366 58.6592C77.0956 58.7993 78.7547 59.313 80.4137 59.5466C82.1215 59.7801 83.195 59.313 82.9998 57.3048C82.707 54.0356 82.5119 50.813 82.5119 47.5438C82.5606 39.6977 82.8046 31.8515 82.951 24.0053C82.951 23.2581 82.951 22.4641 82.951 21.5768C82.1215 21.4834 81.536 21.39 80.9016 21.39C73.0457 21.39 65.1897 21.3433 57.285 21.4367C50.7953 21.4834 44.3056 21.9037 37.8159 21.8103C33.6196 21.7636 29.4232 21.2498 25.2757 20.6894C24.3974 20.5493 23.0799 19.2883 23.0311 18.4943C22.9823 17.7004 24.1046 16.4861 25.0317 16.1125C26.154 15.6454 27.569 15.7856 28.8865 15.7856C33.7172 15.879 38.5966 16.2059 43.4273 16.1592C49.429 16.1125 55.4308 15.8323 61.4325 15.6454C61.9693 15.6454 62.506 15.4119 63.0428 15.2718C64.7506 15.1317 66.5072 15.1317 68.3126 15.1317Z" fill="#202023"/>
<path d="M475.553 207.97C477.31 209.417 478.871 210.725 480.433 212.033C480.335 212.266 480.286 212.546 480.189 212.78C478.578 212.687 476.919 212.78 475.358 212.5C471.942 211.846 468.527 211.145 465.209 210.118C463.843 209.698 462.232 208.577 461.744 207.409C461.012 205.634 462.964 204.84 464.33 204C469.064 201.244 473.748 198.489 478.432 195.733C478.871 195.5 479.213 195.22 479.652 194.986C480.921 194.332 482.384 193.772 483.312 195.266C484.239 196.761 483.116 197.695 481.897 198.489C480.238 199.563 478.627 200.731 477.212 201.711C482.238 201.711 487.362 201.711 492.827 201.711C492.827 199.983 492.778 197.835 492.827 195.687C492.924 187.42 493.119 179.2 493.217 170.934C493.266 162.527 493.217 154.121 493.315 145.761C493.412 137.775 493.998 129.742 493.705 121.755C493.461 115.45 494.046 108.959 491.411 102.887C490.045 99.6646 489.265 96.0218 485.751 94.2003C477.163 89.6701 468.283 85.9338 458.182 86.1674C446.667 86.4476 435.102 86.9613 423.587 87.008C406.655 87.0547 389.772 86.6811 372.84 86.7278C360.739 86.7745 348.638 87.3349 336.537 87.3816C328.681 87.4284 320.825 86.8679 312.969 86.6344C310.286 86.5877 307.602 86.9613 304.918 86.9613C293.549 86.8679 282.18 86.6811 270.762 86.541C262.076 86.4009 253.391 86.1674 244.706 86.1674C231.872 86.2141 219.039 86.4943 206.206 86.5877C197.423 86.6344 188.689 86.8212 179.906 86.541C165.463 86.074 151.02 85.3267 136.576 84.6729C133.649 84.5327 130.721 84.3459 127.842 84.1591C127.11 84.1124 126.232 84.2058 125.695 83.8322C124.719 83.1784 123.987 82.291 123.109 81.497C124.036 80.7031 124.915 79.302 125.939 79.1619C129.16 78.8349 132.429 78.8817 135.698 78.9751C148.873 79.302 161.998 79.6289 175.173 80.0492C182.004 80.2827 188.787 80.9833 195.618 80.9833C209.915 80.9833 224.212 80.6564 238.509 80.4696C248.024 80.3295 257.539 80.0492 267.005 80.1426C277.3 80.236 287.645 80.6564 297.941 80.9366C305.406 81.1234 312.823 81.4036 320.289 81.3569C335.61 81.3102 350.98 81.1234 366.302 80.9833C372.645 80.9366 378.989 80.9833 385.332 80.8899C409.241 80.6097 433.102 80.3294 457.011 80.0959C464.33 80.0025 471.357 81.4036 478.188 83.9256C479.847 84.5327 481.604 84.813 483.263 85.3267C484.044 85.5602 484.824 85.8404 485.459 86.2608C491.363 90.2305 495.559 95.2278 497.56 102.046C499.902 110.033 499.463 118.253 499.951 126.332C500.195 130.022 499.999 133.758 499.999 137.401C503.366 136 506.733 136.747 508.392 139.316C509.661 141.324 508.978 144.406 507.026 145.854C504.684 147.535 502.634 147.162 499.511 144.173C499.511 154.961 499.511 165.376 499.511 175.884C501.902 175.651 504.928 174.623 506.44 177.519C506.977 178.546 506.489 180.415 505.855 181.535C504.488 183.964 502.146 184.384 499.414 182.843C499.267 183.777 499.121 184.338 499.121 184.945C499.072 190.643 499.121 196.294 499.023 201.992C499.023 203.486 499.511 204 501.073 204.467C507.221 206.148 513.418 207.876 519.42 209.978C522.494 211.052 525.275 212.967 528.056 214.695C532.448 217.45 536.644 220.579 541.133 223.288C554.454 231.368 564.018 242.717 571.971 255.467C573.826 258.456 575.631 261.538 577.193 264.667C577.876 266.068 578.071 267.75 578.266 269.338C578.315 269.851 577.68 270.505 577.339 271.066C576.705 270.692 575.778 270.505 575.436 269.945C572.557 265.742 569.727 261.445 566.897 257.195C559.09 245.426 550.209 234.59 537.522 227.165C533.033 224.549 528.739 221.56 524.494 218.525C517.858 213.761 509.856 212.36 502.293 209.838C501.463 209.557 500.585 209.417 499.707 209.231C499.463 209.184 499.219 209.277 498.828 209.277C498.828 213.761 498.828 218.244 498.828 222.728C500.926 221.981 504.44 222.401 504.976 223.895C505.611 225.623 506.196 228.005 505.416 229.406C504.049 231.928 501.317 230.574 498.975 230.06C498.975 242.437 498.975 254.72 498.975 267.189C501.902 266.349 504.196 266.909 505.66 269.151C506.831 270.879 506.196 272.607 505.123 274.195C503.805 276.11 501.902 276.343 499.609 275.503C499.511 275.97 499.365 276.343 499.414 276.67C499.707 282.928 499.902 289.233 500.39 295.492C500.731 299.695 499.267 303.291 497.218 306.56C498.926 307.261 500.927 307.588 502 308.709C503.073 309.829 503.61 311.744 503.708 313.379C503.903 315.574 502.098 317.115 499.804 317.349C496.681 317.722 494.974 316.181 493.754 311.931C483.409 318.75 472.382 323.373 459.353 321.832C460.573 325.802 458.914 328.324 454.913 328.931C453.254 329.165 451.888 328.651 451.4 327.11C450.814 325.242 450.473 323.28 449.985 321.132C435.249 320.665 420.513 320.198 405.289 319.731C406.948 321.972 407.338 323.887 405.484 325.662C404.02 327.063 399.58 327.577 397.628 326.643C395.188 325.428 394.554 323.934 395.14 319.917C378.452 320.665 361.862 321.459 345.271 322.206C345.174 326.409 343.222 328.557 339.709 327.483C337.757 326.876 336.342 324.681 334.634 323.233C334.097 322.766 333.463 322.159 332.878 322.159C320.289 321.926 307.699 321.785 295.11 321.645C294.476 321.645 293.842 321.739 293.5 321.785C293.354 323.42 293.744 325.288 293.012 326.362C292.329 327.343 290.426 327.717 288.962 328.044C285.693 328.838 282.18 326.269 282.229 322.206C269.493 322.206 256.758 322.206 243.974 322.206C244.12 324.915 244.754 327.857 241.143 329.024C239.192 329.678 235.239 328.791 234.654 327.016C234.117 325.568 234.947 323.654 235.142 322.019C220.308 322.019 204.791 322.019 189.275 322.019C189.08 322.906 188.933 323.28 188.884 323.654C188.738 325.802 187.762 327.203 185.469 327.53C183.078 327.857 180.443 326.736 179.857 324.728C179.272 322.86 178.15 322.906 176.588 322.953C167.903 323.14 159.217 323.42 150.532 323.42C146.091 323.42 141.602 322.906 137.162 322.673C135.747 322.579 134.283 322.673 132.868 322.673C132.331 326.689 129.745 329.024 126.33 328.651C123.646 328.371 121.206 325.335 121.548 322.579C119.791 322.486 117.986 322.533 116.278 322.299C107.3 321.132 99.2973 317.722 91.9293 312.772C86.757 309.316 83.927 304.225 82.0728 298.667C78.6083 288.206 79.4866 277.511 80.2186 266.769C80.8041 258.876 80.8529 250.937 80.9017 242.997C80.9993 221.981 80.7553 201.011 80.9993 179.994C81.0969 171.214 82.1215 162.481 82.6583 153.7C82.8535 150.198 82.9023 146.695 82.8535 143.192C82.8535 142.678 82.2191 142.024 81.6824 141.698C77.5348 138.989 73.2897 136.373 69.1422 133.665C68.3614 133.151 67.6783 132.45 67.044 131.703C64.5067 128.761 61.9205 125.865 59.5784 122.783C55.9188 117.972 54.6501 112.321 54.0646 106.577C53.7718 103.354 54.211 100.038 54.6013 96.8157C54.6989 95.9284 55.6748 95.0877 56.2116 94.247C56.6507 95.041 57.3826 95.8349 57.4802 96.6756C57.8706 99.6646 57.9682 102.7 58.3585 105.736C59.188 112.181 60.7983 118.299 65.9705 122.97C66.5072 123.437 67.044 123.997 67.3856 124.557C70.7524 130.349 76.9005 133.057 82.1703 136.747C82.3655 136.887 82.6095 136.887 83.439 137.121C83.1462 133.478 82.7071 130.068 82.5607 126.659C82.2191 117.692 80.5113 108.632 82.8047 99.7113C84.7077 92.3322 88.7088 86.074 95.4425 81.7305C96.9551 80.7498 99.0045 80.2827 100.859 80.0959C101.737 80.0025 103.152 80.9833 103.494 81.7773C103.738 82.3377 102.762 83.6921 101.981 84.2992C100.176 85.747 98.0286 86.7745 96.3208 88.269C90.6606 93.2663 87.6354 99.6179 87.6841 106.904C87.7817 115.45 88.5625 123.95 89.0016 132.497C89.0992 134.272 89.1968 136.093 89.0016 137.868C88.8552 139.222 89.392 139.97 90.6606 140.203C94.0763 140.857 97.4919 141.511 100.908 142.118C103.201 142.538 105.494 142.865 108.129 143.239C107.056 141.884 105.933 140.857 105.397 139.643C105.055 138.802 105.494 137.634 105.592 136.607C106.568 136.84 107.836 136.794 108.519 137.354C110.179 138.709 111.398 140.577 113.155 141.791C115.204 143.192 117.644 144.173 119.986 145.154C122.377 146.134 122.914 148.049 120.865 149.59C119.303 150.805 117.498 151.785 115.692 152.673C112.033 154.494 108.324 156.269 104.518 157.857C103.542 158.277 102.274 158.044 101.151 158.09C101.347 157.016 101.2 155.475 101.883 154.961C104.372 153.046 107.153 151.459 109.837 149.824C110.471 149.404 111.301 149.217 112.423 148.75C104.274 147.395 96.516 146.181 88.904 144.92C88.5137 150.198 87.8305 155.709 87.6841 161.173C87.245 182.703 87.001 204.233 86.6595 225.81C86.5131 236.085 86.4643 246.313 86.1227 256.588C85.8787 263.78 85.1468 271.019 84.8053 278.211C84.4149 287.085 85.4884 295.772 90.3191 303.618C92.6612 307.401 95.9792 309.829 100.468 311.09C104.957 312.351 109.398 313.939 113.838 315.387C121.06 317.769 128.574 317.022 136.04 317.255C144.384 317.489 152.776 318.283 161.12 318.096C173.856 317.862 186.591 316.835 199.326 316.415C207.768 316.134 216.209 316.228 224.651 316.275C239.826 316.368 255.05 316.742 270.225 316.695C283.546 316.648 296.867 316.181 310.188 316.041C315.36 315.994 320.581 316.555 325.753 316.555C337.513 316.555 349.321 316.555 361.081 316.228C371.865 315.948 382.648 314.92 393.432 314.733C404.459 314.5 415.536 314.687 426.563 315.014C439.201 315.387 451.888 316.275 464.526 316.508C468.576 316.555 472.674 315.481 476.627 314.406C479.506 313.659 482.092 312.071 484.824 310.857C489.509 308.755 492.241 305.112 492.583 300.349C493.071 293.53 493.022 286.711 493.022 279.893C493.022 271.579 492.875 263.266 492.729 254.953C492.583 245.379 492.387 235.805 492.29 226.277C492.241 220.766 492.241 215.255 492.339 209.698C492.387 208.203 491.899 207.549 490.387 207.082C485.507 205.401 480.628 206.522 475.553 207.97Z" fill="#202023"/>
<path d="M650.921 285.637C647.994 285.777 645.017 285.871 642.09 286.011C639.991 286.104 637.893 286.384 635.795 286.478C624.28 286.805 612.813 287.552 601.444 289.373C598.077 289.934 594.661 289.934 591.246 290.167C581.779 290.868 572.313 291.569 562.847 292.316C562.408 292.363 561.725 292.923 561.578 293.343C561.286 294.371 561.139 295.492 561.139 296.566C561.286 311.558 561.383 326.596 561.676 341.588C561.774 347.146 562.359 352.75 562.457 358.308C562.554 361.95 562.261 365.593 562.066 369.236C561.969 371.104 561.09 372.459 558.943 372.412C556.943 372.365 556.113 371.058 556.065 369.283C556.065 363.538 556.26 357.747 556.113 352.003C555.772 339.439 555.04 326.876 554.845 314.266C554.747 307.354 555.284 300.442 555.674 293.53C555.772 291.942 556.113 290.214 556.943 288.86C557.48 287.926 558.992 287.038 560.115 286.945C568.556 286.058 577.046 285.31 585.537 284.563C587.635 284.376 589.782 284.47 591.88 284.283C601.395 283.442 610.91 282.461 620.425 281.621C628.183 280.967 635.893 280.266 643.651 279.893C647.359 279.706 651.117 280.033 654.825 280.313C656.826 280.453 657.85 281.761 657.704 283.676C657.606 285.31 657.118 286.945 657.265 288.533C657.655 293.156 658.485 297.78 658.68 302.404C658.973 309.549 658.973 316.695 658.973 323.841C658.973 329.211 658.729 334.536 658.631 339.906C658.533 344.764 656.728 348.92 652.239 351.255C647.311 353.777 642.041 355.646 636.332 355.972C635.405 356.019 634.429 355.972 633.453 355.972C633.648 358.868 633.648 361.483 633.941 364.099C634.77 371.711 633.063 373.439 626.524 376.942C617.79 381.566 608.568 383.527 598.614 381.146C592.905 379.744 587.244 380.959 581.779 382.36C575.973 383.808 570.215 383.714 564.36 383.014C562.603 382.78 561.53 381.706 561.578 379.978C561.627 378.39 562.701 377.409 564.36 377.222C565.14 377.129 565.97 377.129 566.799 377.269C573.435 378.343 579.681 376.475 586.073 375.308C590.953 374.42 595.783 374.14 600.565 375.308C609.3 377.456 617.009 374.841 624.572 371.058C627.256 369.703 628.037 367.742 627.695 364.893C627.207 361.203 626.963 357.467 626.817 353.731C626.719 350.228 628.427 348.874 632.038 349.527C636.234 350.321 640.138 349.154 643.895 347.753C651.605 344.857 651.751 344.203 651.8 336.217C651.849 327.437 652.483 318.656 652.629 309.876C652.678 306.7 652.044 303.525 651.8 300.395C651.556 295.819 651.263 291.102 650.921 285.637Z" fill="#202023"/>
<path d="M137.845 297.967C132.575 297.733 127.159 297.733 121.889 297.126C116.619 296.519 112.228 291.195 111.398 285.31C110.666 279.939 113.301 274.522 118.132 272.747C119.986 272.046 122.328 272.513 124.426 272.747C124.963 272.794 125.744 273.961 125.793 274.662C125.841 275.175 124.914 275.829 124.329 276.296C123.987 276.577 123.402 276.623 122.963 276.717C118.522 277.838 116.619 280.593 117.205 285.03C117.693 289 120.962 291.802 125.012 292.082C137.113 292.876 149.214 292.129 161.266 291.195C165.219 290.914 169.22 290.821 173.172 290.634C178.686 290.354 184.2 290.074 189.714 289.887C192.885 289.794 195.325 288.486 196.545 285.777C197.765 282.975 198.058 279.846 196.155 277.277C194.008 274.382 190.446 274.241 187.079 274.428C182.443 274.708 177.857 275.175 173.221 275.502C170.781 275.643 168.342 275.549 165.902 275.596C160.388 275.736 154.874 275.969 149.36 276.063C145.555 276.11 141.749 275.923 137.943 275.923C136.332 275.923 134.673 275.969 133.063 276.063C131.111 276.203 129.647 275.642 129.111 273.728C128.672 272.14 129.891 270.272 131.99 270.085C135.308 269.758 138.626 269.805 141.944 269.711C145.603 269.618 149.214 269.571 152.874 269.478C156.338 269.384 159.851 269.291 163.316 269.197C171.074 268.917 178.881 268.637 186.64 268.403C196.106 268.123 204.596 272.186 203.181 283.442C202.205 291.335 196.594 295.865 188.299 295.538C183.956 295.351 179.564 296.005 175.173 296.239C169.757 296.566 164.34 296.893 158.875 297.126C151.898 297.453 144.92 297.686 137.845 297.967Z" fill="#202023"/>
<path d="M89.4408 388.431C89.3432 389.646 89.1968 391.093 89.0504 392.588C88.5137 399.36 84.9517 400.854 79.1451 402.816C74.8999 404.217 70.6548 403.516 66.3609 403.096C62.2621 402.722 58.1634 402.489 54.0158 402.395C51.0881 402.349 50.161 401.648 50.1122 398.939C49.8683 384.788 49.5755 370.637 49.3803 356.486C49.3315 354.151 49.0876 351.536 51.6249 349.948C52.2104 349.574 52.8935 349.107 53.5279 349.014C62.0181 348.033 70.4596 345.931 79.0963 346.538C86.6107 347.052 94.1251 347.519 101.688 348.033C103.933 348.173 105.153 349.527 105.104 351.816C104.86 360.876 104.567 369.983 104.177 379.044C104.03 382.453 101.981 384.928 98.6142 386.049C95.7841 387.077 92.7588 387.637 89.4408 388.431ZM55.4309 396.184C60.2615 396.698 64.8482 397.305 69.4349 397.632C71.9235 397.819 74.4608 397.865 76.9005 397.492C81.6824 396.744 83.2438 394.876 83.3902 390.299C83.439 388.992 83.2438 387.684 83.0975 386.376C82.7071 382.874 84.4149 381.426 88.1233 381.753C90.3191 381.939 92.5636 381.613 94.8082 381.332C97.3943 381.005 98.3702 379.511 98.3214 376.942C98.1262 371.758 98.175 366.527 98.2726 361.343C98.3214 358.915 98.7118 356.486 98.9069 354.151C83.927 352.47 69.0934 351.396 54.455 354.385C54.7477 368.162 55.0893 382.266 55.4309 396.184Z" fill="#202023"/>
<path d="M612.325 316.088C611.739 331.827 598.369 338.179 585.829 335.797C580.852 334.863 577.29 331.547 574.46 327.53C569.142 320.058 570.898 312.352 574.899 305.44C578.51 299.181 588.513 294.651 597.052 297.64C600.37 298.808 603.883 299.415 606.518 302.124C611.202 306.981 612.374 309.363 612.325 316.088ZM604.176 323.934C607.738 317.863 607.836 309.223 601.102 304.926C594.271 300.582 584.414 302.03 579.291 308.288C575.68 312.725 576.119 321.926 579.779 325.148C582.511 322.86 585.244 320.665 588.025 318.33C587.781 318.096 587.196 317.676 586.756 317.162C585.488 315.714 583.585 314.407 583.146 312.772C582.218 309.316 586.756 304.879 590.465 305.206C593.636 305.44 596.223 306.794 598.223 309.129C599.882 311.091 599.98 313.005 598.516 315.154C597.833 316.181 597.003 317.069 596.271 317.956C599.004 320.011 601.59 321.973 604.176 323.934ZM601.053 327.624C599.638 326.69 598.174 326.036 597.247 324.962C594.954 322.299 592.221 322.44 589.586 323.794C587.342 324.962 585.439 326.783 583.39 328.371C587.293 332.668 596.32 330.986 601.053 327.624ZM591.685 309.503C590.66 311.044 589.342 312.165 589.44 313.146C589.538 314.126 591.05 314.967 592.026 315.994C593.295 314.547 594.271 313.473 595.491 312.071C594.076 311.091 592.904 310.297 591.685 309.503Z" fill="#202023"/>
<path d="M244.608 292.129C240.412 292.362 236.215 292.783 232.019 292.689C227.92 292.642 223.773 292.409 219.771 291.615C214.99 290.681 211.525 286.057 211.915 281.387C212.159 278.304 212.94 275.269 213.867 272.28C214.599 270.038 216.112 268.03 218.796 267.563C219.967 267.376 221.382 267.563 222.553 267.983C223.138 268.17 223.773 269.151 223.773 269.758C223.773 270.318 222.992 271.252 222.358 271.392C219.576 272.046 218.893 274.148 218.259 276.39C215.917 284.843 218.796 286.945 226.554 287.318C231.385 287.552 236.264 286.618 241.095 286.945C249.829 287.505 258.417 286.524 267.005 285.45C271.25 284.936 272.323 284.142 273.006 280.079C273.299 278.258 273.25 276.343 273.202 274.522C273.153 272.046 271.347 270.832 269.103 270.598C265.492 270.225 261.881 270.225 258.27 270.178C251.781 270.085 245.291 270.038 238.85 269.991C237.24 269.991 235.63 269.991 234.019 270.085C231.141 270.271 229.286 269.291 229.091 267.423C228.896 265.601 230.311 264.2 233.19 264.107C237.484 264.013 241.778 264.387 246.072 264.387C251.439 264.434 256.758 264.434 262.125 264.247C266.663 264.107 270.811 265.041 274.714 267.236C277.3 268.684 278.276 271.112 278.52 273.681C278.764 276.436 278.423 279.239 278.276 282.041C277.983 286.991 274.861 289.7 270.03 290.447C261.588 291.755 253.196 293.109 244.608 292.129Z" fill="#202023"/>
<path d="M456.621 25.9203C449.692 25.9203 443.3 25.967 436.908 25.9203C434.078 25.9203 431.248 25.7335 428.369 25.5933C426.954 25.5466 425.636 25.1263 425.685 23.4917C425.734 21.8571 427.051 21.2966 428.564 21.2032C431.638 21.0164 434.712 20.8296 437.786 20.7362C444.276 20.5494 450.765 20.3626 457.255 20.2225C460.671 20.1291 461.598 20.7829 461.744 24.0054C461.939 29.423 462.086 34.8873 461.891 40.3049C461.696 44.8351 458.621 47.9175 453.888 48.7115C452.229 48.9917 451.644 49.6923 451.839 51.1868C452.278 54.5961 450.131 56.8846 447.887 59.0329C447.252 59.6401 445.984 59.7802 444.959 59.8269C438.225 60.1538 431.54 60.3873 424.807 60.6675C419.586 60.901 418.512 59.4065 418.659 54.5494C418.854 47.2637 418.366 39.9313 418.268 32.6455C418.219 30.1703 418.219 27.6483 418.561 25.2197C418.659 24.4258 419.83 23.7719 420.513 23.0714C421.147 23.8186 422.318 24.5192 422.416 25.3598C422.904 29.9835 423.294 34.6538 423.392 39.3241C423.538 44.7417 423.44 50.1593 423.44 55.9038C426.222 55.7637 428.564 55.717 430.857 55.5769C434.224 55.3901 437.64 55.1565 441.007 54.923C441.787 54.8763 442.666 54.8296 443.349 54.5494C446.423 53.1483 446.862 52.1208 446.228 48.6181C445.642 45.3021 446.325 44.4615 449.838 44.1813C455.206 43.7609 456.426 42.5466 456.572 37.3626C456.718 33.4395 456.621 29.5631 456.621 25.9203Z" fill="#202023"/>
<path d="M111.106 208.343C111.642 202.552 112.423 196.854 117.644 192.884C121.792 189.755 126.476 188.681 131.599 189.895C132.624 190.129 133.356 191.39 134.234 192.184C133.356 192.837 132.624 193.818 131.648 194.098C129.501 194.706 127.159 194.706 125.012 195.313C121.304 196.387 118.913 198.769 118.034 202.412C117.888 203.112 117.742 203.766 117.498 204.467C114.863 211.846 119.694 216.142 126.525 217.87C130.965 218.991 135.259 218.151 139.114 215.769C139.651 215.442 140.285 215.022 140.48 214.508C141.944 210.164 142.871 205.868 139.358 201.945C138.284 200.73 137.162 199.283 138.87 197.881C140.578 196.527 142.285 197.181 143.652 198.582C147.311 202.365 147.848 206.989 147.262 211.892C146.433 219.272 143.944 221.653 133.649 223.662C126.769 225.016 120.328 222.868 115.107 218.011C112.179 215.302 110.91 212.173 111.106 208.343Z" fill="#202023"/>
<path d="M47.7211 32.1316C50.6976 29.8431 53.8693 28.442 57.4801 28.8623C62.5547 29.4228 65.5312 33.5794 63.7258 38.1096C61.2861 44.3678 57.5289 49.9255 51.9663 54.1288C51.1856 54.6893 49.5753 54.8294 48.5994 54.4557C43.6712 52.6343 39.6212 49.5052 36.2056 45.7222C33.5707 42.8266 34.449 34.7937 37.3279 32.1783C39.914 29.7964 43.232 29.7964 47.7211 32.1316ZM50.2585 49.9722C51.4783 48.3376 52.5518 46.9832 53.4789 45.5354C55.2355 42.7332 57.0897 39.9777 58.5536 37.0821C59.627 34.9338 58.1144 33.3459 55.6747 33.9063C53.7229 34.3733 51.8199 34.9338 50.844 36.9887C50.4536 37.8294 49.2826 38.67 48.4043 38.7634C47.7699 38.8101 46.8428 37.6893 46.3549 36.8953C45.2814 35.1673 41.573 34.3266 41.0363 35.8678C40.3531 38.0629 39.5724 41.0986 40.5971 42.7332C42.7441 46.0959 46.5989 48.1041 50.2585 49.9722Z" fill="#202023"/>
<path d="M110.667 250.096C111.545 246.92 112.033 243.558 113.35 240.522C115.107 236.646 119.938 235.104 123.939 236.879C124.963 237.346 126.183 238.701 126.183 239.681C126.183 241.363 124.524 241.363 123.012 241.223C119.303 240.896 117.498 241.97 117.107 245.473C116.766 248.555 116.815 251.824 117.351 254.86C117.937 258.129 122.426 259.25 125.11 257.055C125.646 256.588 126.281 256.168 126.964 255.934C128.477 255.42 129.355 255.981 129.355 257.522C129.355 261.445 125.793 264.201 121.792 263.407C113.936 261.959 111.545 258.596 110.667 250.096Z" fill="#202023"/>
<path d="M592.807 361.67C589.782 361.67 586.805 361.623 583.78 361.67C581.974 361.717 580.315 361.343 580.315 359.335C580.315 357.327 581.877 356.533 583.78 356.486C588.464 356.392 593.197 356.439 597.882 356.439C602.322 356.439 606.811 356.486 611.251 356.579C611.983 356.579 612.813 356.579 613.349 356.906C614.081 357.373 614.96 358.214 614.96 358.914C614.96 359.615 614.033 360.362 613.349 360.923C613.057 361.203 612.422 361.156 611.934 361.156C605.542 361.156 599.101 361.156 592.709 361.156C592.807 361.343 592.807 361.483 592.807 361.67Z" fill="#202023"/>
<path d="M283.936 258.736C280.813 258.736 279.154 256.868 277.544 254.813C277.056 254.159 276.227 253.646 275.397 253.365C273.836 252.758 272.86 251.03 274.08 249.582C276.129 247.154 278.618 245.052 281.009 242.857C281.253 242.624 281.74 242.624 282.18 242.577C284.668 242.437 289.596 246.08 290.377 248.695C291.353 251.871 289.987 256.074 287.254 257.569C286.278 258.129 285.059 258.363 283.936 258.736ZM282.472 246.827C281.936 248.415 281.057 249.676 281.301 250.703C281.594 251.918 282.814 252.898 283.643 254.019C284.424 253.179 285.644 252.478 285.937 251.544C286.766 249.069 284.375 248.368 282.472 246.827Z" fill="#202023"/>
<path d="M229.091 253.412C226.749 254.206 223.773 253.272 223.285 256.821C223.236 257.288 221.918 257.989 221.43 257.849C220.65 257.615 219.576 256.728 219.576 256.121C219.479 253.132 219.674 250.096 219.869 247.107C219.918 246.126 220.113 244.959 220.699 244.305C222.016 242.81 223.821 241.97 225.871 243.137C227.823 244.258 229.823 245.286 231.629 246.64C234.117 248.508 234.605 255.374 232.507 257.615C232.116 258.082 231.189 258.456 230.653 258.363C230.116 258.222 229.53 257.475 229.384 256.915C229.091 255.841 229.14 254.766 229.091 253.412Z" fill="#202023"/>
<path d="M117.303 107.978C117.498 109.192 117.595 109.939 117.693 110.733C119.45 111.294 122.231 110.406 122.28 113.115C122.328 115.59 119.791 114.936 118.083 115.357C118.083 116.291 118.376 117.272 118.034 117.925C117.449 118.953 116.473 120.261 115.448 120.447C114.716 120.587 113.253 119.373 112.716 118.486C112.179 117.552 112.277 116.244 112.179 115.076C111.984 112.228 111.886 109.379 111.691 106.53C111.545 104.475 112.472 103.307 114.765 103.167C118.181 102.934 121.548 102.794 124.963 102.747C126.427 102.7 127.793 103.261 127.891 104.942C128.037 106.717 126.818 107.511 125.207 107.604C122.67 107.791 120.133 107.837 117.303 107.978Z" fill="#202023"/>
<path d="M204.987 249.442C204.889 255 200.107 259.53 195.716 258.923C192.886 258.503 191.031 256.681 190.69 253.972C190.641 253.412 190.641 252.898 190.495 252.338C189.519 248.695 191.324 245.099 194.886 243.698C197.911 242.483 202.693 244.211 204.352 247.2C204.84 248.088 204.938 249.115 204.987 249.442ZM195.179 251.357C195.716 252.478 196.155 253.318 196.545 254.112C197.375 253.692 198.204 253.318 198.936 252.805C199.522 252.384 199.912 251.777 200.351 251.217C201.229 250.049 201.034 248.928 199.766 248.274C198.985 247.854 197.472 247.434 197.131 247.761C196.252 248.741 195.862 250.096 195.179 251.357Z" fill="#202023"/>
<path d="M455.938 109.986C453.254 109.986 450.57 110.08 447.935 109.939C445.398 109.846 443.885 108.445 443.934 106.437C443.934 104.475 445.496 102.934 447.935 102.887C453.205 102.794 458.475 102.794 463.745 102.84C466.087 102.887 467.746 104.522 467.746 106.437C467.746 108.398 466.233 109.846 463.745 109.986C461.11 110.126 458.524 110.033 455.938 109.986C455.938 110.033 455.938 110.033 455.938 109.986Z" fill="#202023"/>
<path d="M184.639 242.67C185.81 243.511 186.933 244.305 188.104 245.145C187.03 246.033 185.957 246.873 184.444 248.088C184.639 249.442 184.932 251.404 185.176 253.365C185.322 254.346 185.615 255.514 185.225 256.354C184.786 257.242 183.712 258.269 182.785 258.362C182.102 258.456 180.736 257.335 180.541 256.541C179.955 254.299 179.711 251.964 179.418 249.629C179.272 248.275 178.784 247.527 177.125 247.621C175.661 247.761 173.856 247.714 173.953 245.706C174.002 243.978 175.612 243.884 177.076 243.884C177.613 243.884 178.15 243.791 179.028 243.698C179.028 241.689 178.979 239.775 179.028 237.813C179.077 236.832 179.028 235.711 179.467 234.824C179.809 234.123 180.931 233.143 181.419 233.283C182.2 233.47 183.224 234.45 183.322 235.151C183.712 237.673 183.761 240.242 183.956 242.81C184.249 242.857 184.444 242.764 184.639 242.67Z" fill="#202023"/>
<path d="M293.11 249.769C292.963 242.81 293.305 242.764 300.575 242.483C306.333 242.25 309.261 245.192 309.358 250.656C309.358 251.824 309.358 252.992 309.358 254.159C309.407 255.794 309.358 257.615 307.163 257.662C305.016 257.709 304.821 255.934 304.821 254.253C304.821 252.945 304.967 251.59 304.772 250.283C304.625 249.255 304.235 248.134 303.552 247.387C302.234 245.893 300.136 246.453 299.502 248.275C298.868 250.189 298.38 252.198 297.501 254.019C297.062 254.86 295.794 255.327 294.866 255.934C294.281 255.047 293.403 254.206 293.159 253.225C292.915 252.198 293.11 250.937 293.11 249.769Z" fill="#202023"/>
<path d="M255.684 246.64C253.635 246.64 251.976 246.874 250.414 246.547C249.536 246.36 248.853 245.286 248.121 244.585C248.902 243.885 249.683 243.137 250.512 242.483C250.61 242.39 250.805 242.437 251 242.437C255.684 241.923 255.684 241.923 256.075 237.346C256.172 235.992 256.465 234.684 258.173 234.731C259.881 234.731 260.173 236.038 260.173 237.393C260.173 238.233 260.027 239.121 260.222 239.961C260.369 240.569 260.857 241.269 261.442 241.549C263.247 242.483 263.589 243.371 262.028 244.398C260.613 245.332 260.515 246.407 260.564 247.761C260.759 250.563 261.052 253.319 261.003 256.121C261.003 257.055 260.076 257.989 259.588 258.923C258.563 258.363 256.953 257.942 256.66 257.148C256.026 255.093 255.928 252.898 255.733 250.75C255.538 249.396 255.684 247.994 255.684 246.64Z" fill="#202023"/>
<path d="M139.211 257.288C138.772 257.755 138.43 258.082 138.138 258.409C136.723 259.95 135.112 259.857 133.893 258.269C132.038 255.794 131.941 249.489 134.088 247.247C135.064 246.266 136.869 245.379 138.187 245.519C140.675 245.753 142.968 247.294 143.554 249.676C144.237 252.665 144.188 255.794 144.286 258.876C144.286 259.437 143.408 260.371 142.822 260.464C142.09 260.558 141.114 260.137 140.529 259.624C139.992 259.063 139.748 258.176 139.211 257.288Z" fill="#202023"/>
<path d="M456.133 122.082C453.693 122.082 451.254 122.175 448.814 122.035C446.862 121.942 444.959 121.288 444.91 119C444.861 116.665 446.569 115.964 448.667 115.917C453.449 115.824 458.231 115.73 463.013 115.824C465.404 115.871 466.819 117.272 466.77 119C466.721 120.774 465.111 122.082 462.671 122.176C460.476 122.222 458.28 122.176 456.084 122.176C456.133 122.129 456.133 122.082 456.133 122.082Z" fill="#202023"/>
<path d="M516.394 121.709C514.686 121.802 513.174 121.055 512.686 119.28C511.808 116.058 511.661 112.788 513.711 109.893C514.833 108.305 516.248 107.558 518.248 108.772C519.322 109.426 520.688 109.613 521.664 110.313C523.909 111.994 524.689 114.75 523.86 116.992C522.981 119.42 519.42 121.709 516.394 121.709Z" fill="#202023"/>
<path d="M158.68 110.546C156.826 110.22 154.435 111.06 154.191 108.585C153.85 105.783 156.729 106.343 158.241 105.549C158.046 105.409 157.851 105.316 157.704 105.176C158.583 103.961 159.266 101.906 160.339 101.72C163.023 101.253 162.438 104.055 163.413 105.596C164.487 105.503 165.658 105.176 166.683 105.409C167.659 105.643 168.439 106.437 169.318 106.997C168.781 107.791 168.39 108.865 167.61 109.285C166.536 109.893 165.17 109.986 163.56 110.406C163.56 112.041 163.56 113.909 163.56 115.731C163.56 117.318 162.974 118.626 161.169 118.626C159.363 118.626 158.778 117.225 158.729 115.684C158.632 114.003 158.68 112.321 158.68 110.546Z" fill="#202023"/>
<path d="M206.06 113.536C206.011 114.283 206.109 115.17 205.767 115.824C205.426 116.478 204.694 117.225 203.962 117.412C203.425 117.552 202.596 116.898 201.961 116.571C201.376 116.244 200.888 115.871 200.351 115.497C200.058 115.964 199.863 116.525 199.522 116.945C198.838 117.692 197.96 119.093 197.375 119C196.447 118.86 194.984 117.692 194.984 116.992C195.032 114.003 195.13 110.92 196.008 108.118C196.838 105.503 202.205 105.036 203.815 107.371C205.035 109.145 205.67 111.34 206.548 113.349C206.402 113.395 206.255 113.442 206.06 113.536Z" fill="#202023"/>
<path d="M161.754 244.865C162.047 248.135 162.389 252.058 162.73 256.027C162.877 257.569 162.779 259.25 160.778 259.483C158.924 259.717 158.192 258.129 158.144 256.775C157.9 250.843 157.851 244.865 157.802 238.934C157.802 237.86 157.9 236.692 158.29 235.712C158.632 234.918 159.51 234.31 160.144 233.61C160.681 234.357 161.657 235.058 161.706 235.805C161.901 238.56 161.754 241.363 161.754 244.865Z" fill="#202023"/>
<path d="M236.215 250.563C236.166 246.78 238.313 243.884 242.071 242.997C243.144 242.717 244.51 242.81 245.535 243.277C246.316 243.604 246.804 244.678 247.438 245.426C246.706 245.893 246.023 246.547 245.193 246.733C243.046 247.247 241.387 248.041 241.339 250.516C241.29 252.011 241.827 253.038 243.486 253.365C244.413 253.552 245.486 253.786 246.218 254.299C246.95 254.813 247.731 255.747 247.731 256.541C247.731 257.055 246.511 257.942 245.73 258.082C240.46 259.063 236.264 255.7 236.215 250.563Z" fill="#202023"/>
<path d="M149.848 244.632C149.848 242.437 149.653 240.242 149.946 238.14C150.092 237.253 151.215 236.459 151.898 235.618C152.532 236.459 153.606 237.299 153.703 238.187C154.338 244.492 154.777 250.843 155.265 257.195C155.362 258.409 155.362 259.951 153.752 259.764C152.679 259.67 151.166 258.503 150.922 257.615C150.239 254.86 150.044 251.964 149.8 249.069C149.653 247.621 149.8 246.126 149.8 244.632C149.8 244.632 149.8 244.632 149.848 244.632Z" fill="#202023"/>
<path d="M186.054 114.096C186.884 112.368 187.567 110.5 188.592 108.912C189.079 108.165 190.202 107.791 191.08 107.23C191.519 108.071 192.544 109.052 192.349 109.706C191.422 112.648 190.446 115.637 188.884 118.299C187.713 120.354 185.273 120.354 183.468 118.673C180.882 116.244 179.662 113.255 180.248 109.799C180.394 108.865 181.663 107.511 182.541 107.417C184.151 107.184 184.395 108.632 184.542 109.986C184.639 111.387 185.03 112.835 185.273 114.236C185.517 114.143 185.761 114.096 186.054 114.096Z" fill="#202023"/>
<path d="M150.532 111.854C152.825 112.555 155.167 113.302 154.826 116.151C154.484 118.906 151.995 119.186 149.8 119.794C149.312 119.934 148.824 120.121 148.385 120.027C147.116 119.7 145.555 119.513 144.823 118.719C144.237 118.066 144.725 116.524 144.725 114.983C143.554 114.236 141.7 113.115 142.92 110.733C144.042 108.538 146.091 108.305 148.287 108.538C150.434 108.725 150.727 110.173 150.532 111.854Z" fill="#202023"/>
<path d="M135.454 115.964C136.137 117.085 137.357 118.206 137.211 119.046C136.869 120.821 134.966 120.774 133.405 120.728C128.769 120.588 126.232 117.926 126.866 114.002C127.403 110.64 132.868 108.258 135.893 110.079C138.431 111.527 138.138 114.143 135.454 115.964Z" fill="#202023"/>
<path d="M214.55 110.686C214.697 113.302 214.941 115.964 214.843 118.579C214.794 119.467 213.721 121.101 213.135 121.055C212.111 121.008 210.94 120.167 210.256 119.327C209.72 118.673 209.72 117.552 209.769 116.664C209.866 111.947 209.964 107.23 210.305 102.513C210.354 101.626 211.379 100.178 212.159 100.085C213.77 99.8045 214.16 101.299 214.209 102.607C214.355 105.316 214.453 108.024 214.599 110.733C214.599 110.686 214.599 110.686 214.55 110.686Z" fill="#202023"/>
<path d="M515.175 155.008C515.175 151.599 516.102 150.198 518.297 150.151C521.42 150.104 525.665 153.14 525.421 155.382C525.031 158.464 523.958 160.986 519.956 160.893C516.638 160.846 515.175 159.071 515.175 155.008Z" fill="#202023"/>
<path d="M524.055 287.599C523.762 288.393 523.616 290.074 522.689 291.242C521.957 292.176 520.298 292.97 519.127 292.876C518.102 292.783 517.029 291.475 516.297 290.494C515.565 289.467 515.321 288.112 514.784 286.945C513.906 285.077 515.711 282.508 518.297 282.088C520.688 281.714 524.153 284.563 524.055 287.599Z" fill="#202023"/>
<path d="M583.194 349.154C582.56 349.107 581.779 349.294 581.291 349.014C580.413 348.5 579.193 347.706 579.193 347.052C579.193 346.305 580.315 345.044 581.145 344.95C585.292 344.25 589.489 343.783 593.685 343.456C594.661 343.363 595.979 343.83 596.613 344.53C597.589 345.558 596.613 347.146 594.759 347.472C590.953 348.173 587.098 348.733 583.292 349.341C583.194 349.247 583.194 349.2 583.194 349.154Z" fill="#202023"/>
<path d="M523.665 203.206C523.616 206.755 522.201 208.483 519.566 208.343C516.638 208.203 514.491 206.241 514.443 203.766C514.443 200.824 516.443 198.582 519.127 198.676C522.152 198.769 523.714 200.263 523.665 203.206Z" fill="#202023"/>
<path d="M437.249 35.7747C434.663 35.5878 432.565 35.4944 430.467 35.2609C428.954 35.1208 427.539 34.467 427.978 32.8323C428.173 32.1318 429.735 31.478 430.759 31.4312C434.565 31.151 438.371 31.151 442.177 30.9642C443.69 30.9175 445.056 31.0109 445.398 32.6922C445.739 34.3736 444.666 35.1675 443.056 35.3543C441.006 35.5411 438.908 35.6345 437.249 35.7747Z" fill="#202023"/>
<path d="M484.141 336.684C483.995 339.579 483.312 341.261 481.165 341.961C479.018 342.662 475.309 341.401 474.382 339.813C473.211 337.805 473.943 335.75 476.139 334.862C476.675 334.629 477.115 334.208 477.651 334.115C479.066 333.881 480.774 333.228 481.848 333.741C483.019 334.348 483.653 336.03 484.141 336.684Z" fill="#202023"/>
<path d="M522.542 246.593C522.494 249.115 521.127 250.283 518.297 250.19C515.858 250.096 513.759 248.275 513.759 246.22C513.711 243.604 516.687 240.242 518.932 240.288C521.469 240.382 522.591 242.343 522.542 246.593Z" fill="#202023"/>
<path d="M512.198 328.884C512.247 326.129 513.759 324.401 516.053 324.401C518.883 324.447 521.664 326.736 521.567 328.978C521.469 331.219 518.98 333.601 516.833 333.508C514.052 333.461 512.149 331.593 512.198 328.884Z" fill="#202023"/>
<path d="M124.866 205.308C124.866 204.233 124.768 203.113 124.914 202.038C125.158 200.17 126.866 199.283 128.428 200.31C130.087 201.385 131.599 202.739 132.965 204.14C134.039 205.214 133.795 206.429 132.526 207.363C131.306 208.25 130.038 209.091 128.72 209.838C126.281 211.239 124.866 210.492 124.719 207.83C124.67 206.989 124.719 206.102 124.719 205.261C124.817 205.308 124.817 205.308 124.866 205.308Z" fill="#202023"/>
<path d="M272.275 252.105C272.275 253.599 272.323 255.047 272.275 256.541C272.226 257.942 271.591 259.203 269.981 258.876C269.103 258.69 267.932 257.475 267.883 256.681C267.639 253.739 267.639 250.797 267.981 247.855C268.078 246.967 269.347 245.659 270.274 245.473C271.884 245.192 272.372 246.547 272.372 247.948C272.372 249.349 272.372 250.75 272.372 252.151C272.275 252.105 272.275 252.105 272.275 252.105Z" fill="#202023"/>
<path d="M372.84 342.008C369.864 342.055 368.595 340.794 368.449 337.711C368.351 335.983 369.815 334.956 372.352 334.909C375.622 334.863 377.086 335.797 377.134 337.898C377.134 340.093 375.134 342.008 372.84 342.008Z" fill="#202023"/>
<path d="M209.134 340.747C206.206 340.7 204.938 339.579 204.938 337.151C204.987 334.909 206.158 333.882 208.695 333.975C211.525 334.068 213.672 335.656 213.672 337.711C213.672 339.72 212.062 340.794 209.134 340.747Z" fill="#202023"/>
<path d="M425.734 342.008C422.806 341.962 421.342 340.981 421.342 339.066C421.342 336.731 423.343 334.723 425.539 334.863C427.783 334.956 429.686 336.684 429.735 338.646C429.735 340.747 428.222 342.055 425.734 342.008Z" fill="#202023"/>
<path d="M318.825 336.264C321.264 336.217 323.753 338.085 323.753 339.907C323.753 341.448 321.899 343.129 320.191 343.129C317.751 343.129 315.311 341.261 315.311 339.393C315.311 337.712 316.873 336.311 318.825 336.264Z" fill="#202023"/>
<path d="M175.612 112.882C175.612 113.909 175.905 115.03 175.514 115.871C175.075 116.758 173.953 117.365 173.172 118.113C172.392 117.272 171.025 116.478 170.928 115.591C170.733 113.863 170.977 111.994 171.562 110.313C171.904 109.426 173.319 108.912 174.246 108.211C174.734 109.145 175.368 110.033 175.71 111.014C175.905 111.574 175.71 112.228 175.661 112.882C175.661 112.882 175.661 112.882 175.612 112.882Z" fill="#202023"/>
<path d="M259.344 337.758C262.906 338.179 264.467 339.486 263.882 341.681C263.394 343.456 261.54 344.39 259.685 343.83C257.978 343.316 255.977 340.42 256.758 339.299C257.246 338.552 258.466 338.272 259.344 337.758Z" fill="#202023"/>
<path d="M156.045 335.983C156.289 336.03 157.021 336.077 157.509 336.404C158.436 337.011 159.9 337.898 159.851 338.552C159.754 339.533 158.68 340.654 157.705 341.214C156.094 342.195 152.483 340.14 152.24 338.319C152.093 336.824 153.411 335.937 156.045 335.983Z" fill="#202023"/>
<path d="M434.468 40.8185C435.054 40.8652 435.737 40.6784 436.127 40.9586C436.859 41.4256 437.396 42.1262 438.03 42.7333C437.445 43.2938 436.908 44.1344 436.225 44.2745C435.005 44.5547 433.639 44.6015 432.419 44.3212C431.687 44.1344 431.15 43.2004 430.516 42.5932C431.199 42.0328 431.784 41.3322 432.565 40.9586C433.053 40.7251 433.834 40.9119 434.468 40.9119C434.468 40.8652 434.468 40.8185 434.468 40.8185Z" fill="#202023"/>
<path d="M177.027 103.728C176.051 104.382 175.173 105.409 174.099 105.643C172.538 105.923 171.416 104.896 171.416 103.355C171.416 101.813 172.489 101.019 174.148 100.973C175.71 100.926 176.588 101.626 177.027 103.728Z" fill="#202023"/>
<path d="M105.348 341.495C104.128 340.327 103.299 339.533 102.469 338.739C103.201 338.085 103.933 337.431 104.665 336.731C105.494 337.571 106.421 338.319 107.007 339.253C107.153 339.533 106.177 340.42 105.348 341.495Z" fill="#202023"/>
<path d="M282.473 246.827C284.376 248.368 286.767 249.022 285.986 251.544C285.693 252.525 284.473 253.225 283.692 254.019C282.863 252.945 281.594 251.918 281.35 250.703C281.106 249.676 281.985 248.415 282.473 246.827Z" fill="white"/>
<path d="M195.179 251.357C195.813 250.096 196.252 248.788 197.131 247.807C197.423 247.481 198.985 247.901 199.766 248.321C201.034 248.975 201.278 250.096 200.351 251.263C199.912 251.824 199.522 252.431 198.936 252.851C198.204 253.365 197.326 253.739 196.545 254.159C196.155 253.318 195.764 252.478 195.179 251.357Z" fill="white"/>
<path d="M70.362 365.126C70.362 366.434 70.606 367.835 70.2644 369.049C70.0204 369.89 68.947 371.011 68.1662 371.058C67.4343 371.104 65.9705 370.077 65.8729 369.376C65.3362 365.967 65.0434 362.511 64.9458 359.055C64.9458 358.401 65.9705 357.233 66.6536 357.187C67.4831 357.093 68.8982 357.747 69.1421 358.401C69.9229 360.549 70.3132 362.838 70.8012 365.08C70.6548 365.08 70.5084 365.126 70.362 365.126Z" fill="#202023"/>
<path d="M68.2151 375.121C69.4837 376.522 70.4596 377.363 70.8988 378.39C71.0451 378.67 69.2397 380.305 68.7518 380.118C67.6783 379.791 66.6536 378.764 66.0193 377.83C65.8241 377.549 67.0928 376.429 68.2151 375.121Z" fill="#202023"/>
</g>
<defs>
<clipPath id="clip0">
<rect width="670" height="408" fill="white"/>
</clipPath>
</defs>
</svg>
