<svg xmlns="http://www.w3.org/2000/svg" style="display: none;">
  <symbol id="email-sent" viewBox="0 0 1502 1077">
    <path fill="#FFFFFE" d="M519.212 789.639v.95h-67.991l-.001-.952 67.992.002z"/>
    <path fill="#FAF1D6" d="M519.212 789.639l-67.992-.002c-42.482-1.099-83.283-9.298-121.402-28.788-22.432-11.469-42.321-26.331-58.992-45.252-23.647-26.84-37.628-58.392-44.56-93.26-3.095-15.566-3.914-31.387-2.768-47.092.993-13.593-.406-27.263 1.811-40.766 2.979-18.151 6.258-36.188 12.602-53.602 4.65-12.765 6.719-26.36 11.435-39.153 11.15-30.247 25.444-58.9 44.518-84.937 16.272-22.212 38.175-38.19 61.268-52.519 33.34-20.686 69.024-36.493 106.135-48.993 28.753-9.685 58.075-17.093 88.14-21.885 24.632-3.926 49.322-4.516 74.007-3.495 26.489 1.096 52.822 4.215 77.74 14.566 25.37 10.54 45.574 26.888 59.385 50.879 13.937 24.21 21.579 50.547 26.626 77.775 4.105 22.144 6.885 44.417 8.262 66.942.946 15.489 1.172 30.972.457 46.371-.615 13.248-.393 26.526-1.619 39.773-3.532 38.17-10.833 75.34-26.116 110.771-8.803 20.409-19.342 39.708-32.841 57.345-17.158 22.417-38.158 40.411-62.335 55.021-29.009 17.529-60.616 27.585-93.569 33.928-11.841 2.278-23.846 3.772-35.941 4.385-8.096.41-16.168 1.308-24.251 1.988zM446.218 668.6c-3.935 2.304-5.134 6.666-7.5 10.125-7.857 11.485-14.851 23.592-26.262 32.241-15.661 11.87-37.283 4.739-42.67-14.266-2.178-7.681-2.85-8.345-10.572-11.645-11.438-4.889-16.09-14.437-16.878-26.057-.629-9.279 1.07-18.469 2.403-27.659.757-5.219 2.741-10.319 2.262-16.832-1.538 2.449-2.644 3.892-3.418 5.494-7.743 16.023-15.378 32.098-23.167 48.098-2.314 4.753-3.46 10.108-7.219 14.137-1.762 1.888-.537 3.353.893 4.665 4.037 3.706 7.859 7.698 12.195 11.016 19.627 15.021 41.635 25.104 65.396 31.819 26.489 7.486 53.71 7.528 80.801 8.722 17.581.775 35.167-.244 52.741-1.695 11.055-.913 22.101-1.879 33.075-3.366 3.782-.513 8.071-.22 11.714-2.957-15.601-6.575-19.567-20.033-17.465-32.095 2.455-14.092 6.882-27.663 12.639-40.782.481-1.096 1.866-2.511.169-3.434-1.208-.657-2 .847-2.68 1.729a156.03 156.03 0 01-15.625 17.406c-10.101 9.694-23.961 11.308-33.971 3.452-3.4-2.67-4.592-2.067-6.722 1.314-7.332 11.635-13.902 23.919-24.352 33.225-7.813 6.956-17.056 8.665-26.345 3.818-7.958-4.152-13.065-10.763-13.579-20.565-.474-9.043 2.558-17.309 4.143-25.902.732-.451 1.055-1.076.775-1.923-.038-.114-.247-.171-.376-.255l-.405 2.172zm229.976-233.965c2.314-1.412 4.029-3.454 5.707-5.515 5.801-7.122 12.227-13.587 19.969-18.602 10.044-6.508 21.925-4.939 29.681 4.036 5.653 6.541 5.787 14.486 3.939 22.209-3.184 13.305-9.41 25.43-15.537 37.625-15.467 30.786-34.229 59.613-51.933 89.077-5.54 9.219-11.699 18.121-15.825 28.147l-.755 1.066.384.247.373-1.31c1.126-.028 1.681-.781 2.345-1.589 6.959-8.464 13.606-17.147 19.639-26.312 4.748-7.215 14.885-10.449 22.845-8.377 7.84 2.04 16.117 12.347 15.29 20-.586 5.429.106 10.977-1.482 17.643 6.495-4.951 12.01-8.62 18.118-11.27 1.837-.797 2.003-2.37 2.407-4.03 6.008-24.711 8.935-49.82 9.803-75.195.148-4.328-.314-8.704.144-12.99 1.971-18.439 1.238-36.899-.417-55.238-1.305-14.457-3.009-28.932-5.652-43.264-4.163-22.579-9.236-44.805-20.003-65.392-9.31-17.802-24.307-28.109-42.932-33.923-12.384-3.866-25.273-5.122-38.04-6.883-6.058-.835-12.237-.813-18.365-1.099-1.833-.086-3.336.512-1.506 2.52 6.944 7.616 5.83 16.198 2.767 24.777-2.291 6.418-5.789 12.328-9.026 18.336-2.564 4.761-6.054 9.099-7.251 14.552.674-.357 1.078-.859 1.401-1.409 5.638-9.592 10.925-19.411 16.978-28.733 8.275-12.746 26.27-14.092 34.826-2.467 6.646 9.03 6.815 16.348-.133 28.759-6.655 11.886-13.961 23.436-20.098 35.579-18.019 35.652-37.601 70.496-54.852 106.539-.552 1.153-1.82 2.22-1.245 3.941.544-.326.914-.429 1.092-.673 12.781-17.569 25.847-34.942 38.235-52.785 14.195-20.447 28.778-40.614 43.666-60.544 5.615-7.517 16.071-10.077 25.32-5.935 12.307 5.512 16.793 18.426 10.568 30.452-4.884 9.436-10.508 18.487-15.59 27.825-1.793 3.295-4.541 6.189-4.859 10.202-.114.05-.245.08-.336.157-.056.048-.051.168-.073.255l.413-.409zM282.883 636.447c2.238-1.411 2.665-3.462 3.464-5.189 14.021-30.311 27.124-61.02 40.02-91.824 14.432-34.473 27.682-69.399 40.926-104.335 7.593-20.029 15.067-40.121 24.403-59.443 6.302-13.044 13.002-25.844 22.181-37.167.738-.909 1.815-1.874.953-3.029-.943-1.266-2.15.012-3.172.263-1.271.313-2.446 1.015-3.663 1.55-9.509 4.182-17.637 10.568-26.212 16.268-24.657 16.395-43.524 38.158-59.448 62.826-13.386 20.735-24.382 42.588-33.364 65.591-9.141 23.41-14.53 47.587-15.507 72.551-.643 16.411-1.315 32.947.804 49.358 1.44 11.157 4.481 21.901 8.615 32.58zm134.462-84.611l1.164.581 162.409-267.748c-11.413-.433-22.679 2.757-34.156 4.09-2.125.247-2.671 1.835-2.528 3.65.522 6.637-2.142 12.551-5.089 18.013-11.997 22.233-23.875 44.533-35.972 66.714-16.166 29.643-31.738 59.623-46.924 89.781-10.615 21.08-20.223 42.67-30.137 64.098-3.16 6.831-5.858 13.875-8.767 20.821zm227.369 151.725c-6.05-2.444-11.079-4.863-14.464-9.664-1.547-2.194-2.654-.258-3.416.79-6.188 8.512-13.9 15.605-21.207 23.08-1.19 1.218-3.134 2.04-2.931 5.066 14.745-4.627 28.315-11.023 42.018-19.272zM485.915 304.468c-2.941.903-4.619 1.384-6.275 1.934-9.343 3.101-9.344 3.109-3.2 10.313.144.168.57.096 1.216.185l8.259-12.432z"/>
    <path fill="#FFFFFE" d="M485.915 304.468l-8.259 12.432c-.646-.089-1.072-.016-1.216-.185-6.144-7.204-6.143-7.212 3.2-10.313 1.656-.55 3.334-1.03 6.275-1.934zM446.218 668.6l.405-2.172c.129.083.338.14.376.254.28.847-.043 1.473-.775 1.923l-.006-.005zm205.979-76.985l-.373 1.31a82.917 82.917 0 01-.384-.248l.755-1.065.002.003zm23.997-156.98l-.413.409c.022-.087.017-.207.073-.255.091-.077.222-.107.336-.157l.004.003z"/>
    <path fill="#3D3433" d="M984.287 36.442c-3.759 1.326-7.15 2.616-10.599 3.722-20.72 6.644-41.652 12.69-62.134 19.999-26.732 9.538-53.07 20.175-79.656 30.131-20.221 7.573-40.712 14.447-60.807 22.333-16.298 6.395-32.822 11.525-49.966 15.234-22.206 4.803-44.14 10.88-66.152 16.558-33.284 8.585-66.486 17.491-99.824 25.861-12.716 3.193-25.854 4.718-38.549 7.98-39.248 10.087-78.439 20.412-117.528 31.098-26.927 7.361-53.552 15.832-80.508 23.076-10.861 2.918-22.248 3.87-33.39 5.753a20.977 20.977 0 00-3.83 1.024c-4.753 1.776-8.89.939-12.171-2.974-2.925-3.488-3.385-9.827.096-13.413 3.094-3.187 7.217-6.021 11.414-7.381 21.805-7.064 43.798-13.548 65.689-20.353 11.556-3.592 23.037-7.426 34.733-11.209-7.409-17.61-6.278-35.678-5.262-53.829.632-11.298.23-22.651.427-33.976.052-2.973.173-6.067 1.021-8.876 1.795-5.942 5.955-9.796 12.267-10.094 8.125-.384 16.281-.068 24.422-.165 7.993-.096 15.984-.304 23.975-.51 15.487-.4 30.991-.498 46.456-1.328 24.387-1.31 48.729-3.632 73.127-4.532 15.6-.575 31.264.836 46.903 1 16.969.176 33.942-.075 50.913-.113 12.324-.028 24.65.068 36.974-.05 7.794-.075 15.583-.565 23.376-.645 7.122-.074 14.266-.148 21.364.32 9.752.645 19.489 1.643 29.188 2.849 2.396.298 4.619 1.983 6.922 3.03l-.177 1.573c19.758-7.8 39.514-15.606 59.276-23.395 6.333-2.496 12.629-5.1 19.036-7.393 20.796-7.444 41.578-14.935 62.474-22.092 24.04-8.235 48.198-16.123 72.298-24.182 12.276-4.104 21.735.402 24.985 13.08 6 23.464 11.46 47.071 16.91 70.673 4.04 17.479 7.73 35.038 11.54 52.57 5.04 23.21 10.62 46.323 14.91 69.672 4.2 22.821 12.08 44.486 18.68 66.572 7.8 26.087 15.29 52.262 22.95 78.391 2.37 8.094 4.82 16.163 7.21 24.137 9.48-84.292 11.89-169.439 29.58-253.53-11.83-1.656-22.82-3.197-33.81-4.734-10.69-1.495-21.38-2.998-32.08-4.468a92.425 92.425 0 00-6.44-.667c-6.38-.424-11.1-4.593-11.18-9.938-.08-5.365 4.6-10.09 10.95-10.014 9.96.118 19.92.66 29.85 1.38 13.91 1.01 27.8 2.477 41.71 3.463 4.12.29 8.32-.16 12.44-.657 12.71-1.54 20.08 7.238 17.5 19.689-4.94 23.901-9.89 47.841-13.47 71.968-3.56 23.998-5.7 48.221-8.01 72.388-2.35 24.666-4.17 49.384-6.21 74.08-1.64 19.712-2.24 39.583-5.25 59.083-1.94 12.583-7.44 24.613-11.24 36.921-.42 1.335-.51 2.943-.21 4.299 6.52 28.657 13.14 57.289 19.68 85.94 4.06 17.808 8.61 35.532 11.89 53.486 3.68 20.1 6.03 40.438 9.22 60.633 1.9 12.014 4.61 24.054 1.85 36.139-1.57 6.868-4.91 13.318-7.22 20.037-.93 2.679-.95 5.664-1.85 8.353-1.77 5.292-3.01 11.033-5.97 15.616-28.65 44.319-57.53 88.496-90.9 129.505-4.72 5.795-9.57 11.527-14.88 16.762-3.25 3.203-7.75 6.71-12.39 3.41-4.6-3.264-2.98-8.619-.99-12.826 2.67-5.678 5.68-11.32 9.37-16.376 18.74-25.681 37.78-51.143 56.62-76.75 2.71-3.678 4.91-7.726 7.39-11.661-29.59 11.719-59.94 9.083-90.8 7.626-1.39 12.02-3.04 24.356-4.2 36.736-2.18 23.272-7.393 45.912-13.543 68.39-2.979 10.889-5.661 21.86-8.511 32.785-3.194 12.242-7.754 23.472-18.273 31.769-6.051 4.773-10.278 11.835-16.268 16.709-15.014 12.219-31.497 21.277-51.463 23.255-6.698.664-13.006 4.823-19.602 7.063-7.045 2.392-14.286 4.212-21.317 6.64-6.264 2.163-12.312 4.943-18.537 7.228a12629.063 12629.063 0 01-63.168 22.99c-16.098 5.82-32.322 11.29-48.328 17.35-10.599 4.01-20.971 8.33-32.567 8.75-10.781.39-20.616 4.33-30.605 8.28-12.77 5.05-26.239 8.31-39.273 12.73-25.764 8.75-52.249 14.22-79.074 18.37-4.955.77-7.673-.37-9.032-5.4-3.806-14.11-8.098-28.08-11.798-42.22-2.393-9.13-3.199-18.76-6.241-27.639-12.421-36.262-17.351-74.343-27.685-111.125-9.702-34.533-17.67-69.554-26.415-104.356-7.006-27.879-14.333-55.682-20.974-83.648-7.446-31.358-13.796-62.982-21.517-94.27-7.8-31.608-16.766-62.927-25.084-94.409-5.645-21.369-11.281-42.746-16.501-64.222-4.905-20.182-9.094-40.537-13.898-60.745-5.842-24.578-12.164-49.041-17.962-73.629-3.964-16.815-7.655-33.706-10.873-50.676-.866-4.565.019-9.62.877-14.308.827-4.524 5.328-7.334 9.678-6.998 4.282.33 6.074 3.325 7.32 8.582 2.982 12.581 6.451 25.052 9.955 37.502 6.841 24.309 14.212 48.475 20.669 72.883 6.585 24.895 12.086 50.075 18.511 75.015 9.657 37.488 19.946 74.813 29.524 112.32 10.77 42.176 22.512 84.184 31.065 126.819 6.456 32.187 16.162 63.43 23.391 95.352 6.454 28.499 14.79 56.565 21.708 84.966 9.043 37.128 17.545 74.388 26.207 111.608 5.952 25.574 11.777 51.178 17.675 76.768.107.46.415.88.951 1.97 11.305-2.68 22.808-5.02 34.084-8.18 17.756-4.97 35.376-10.42 53.011-15.82 3.32-1.01 6.514-2.54 9.636-4.09 12.976-6.44 26.57-10.16 41.116-11.15 6.151-.42 12.276-2.78 18.185-4.89 16.586-5.929 33.023-12.277 49.579-18.291 14.821-5.384 29.764-10.437 44.577-15.842 9.665-3.527 19.12-7.633 28.81-11.083 7.154-2.547 14.545-4.428 21.813-6.661 2.534-.779 5.077-1.582 7.512-2.618 11.467-4.881 22.86-9.937 34.357-14.747 5.961-2.493 11.929-5.216 18.773-3.734 1.104.239 2.541-.519 3.685-1.094 8.164-4.097 15.121-9.596 20.305-17.26 1.474-2.179 3.28-4.345 5.415-5.82 5.165-3.569 7.784-8.686 9.095-14.428 6.985-30.6 17.592-60.381 21.314-91.706 2.276-19.147 4.221-38.357 5.471-57.593.897-13.801 8.34-19.859 22.03-17.729 12.76 1.986 25.71 3.145 38.61 3.743 8.78.407 17.63-.72 26.43-1.274 14.06-.883 25.03-8.07 35.12-17.172 9-8.11 16.12-17.516 22.26-27.989 5.29-9.019 5.8-18.302 4.35-27.949-3.73-24.816-7.32-49.67-11.89-74.338-3.35-18.109-8.15-35.95-12.31-53.908-7.94-34.297-15.9-68.591-23.84-102.889-8.69-37.562-19.24-74.578-31.42-111.175-6.87-20.612-12.44-41.672-18.06-62.675-4.07-15.211-7.3-30.648-10.81-46.006-3.97-17.328-7.97-34.648-11.69-52.031-5.2-24.363-10.024-48.807-15.256-73.163-2.746-12.787-6.013-25.461-9.217-38.906zM403.985 175.645l287.973-73.911c-3.546 0-6.78-.052-10.011.009-15.981.301-31.96.718-47.942.935-29.59.401-59.061-3.985-88.792-.836-18.276 1.936-36.784 1.037-55.241 2.822-21.637 2.092-43.584 1.114-65.397 1.161-6.932.015-13.867-.951-21.437-1.516.949 23.852-3.785 47.539.847 71.336z"/>
    <path fill="#3D3433" d="M695.747 325.827c8.506-22.157 21.906-41.105 39.394-56.945 16.248-14.717 33.609-28.311 56.009-32.043 11.559-1.926 23.591-2.983 35.22-2.056 17.604 1.403 31.099 12.008 41.323 25.482 8.386 11.051 14.952 23.602 21.334 35.999 2.627 5.104 3.716 11.555 3.66 17.376-.137 14.115.032 28.467-2.435 42.275-4.774 26.719-13.081 52.592-24.949 77.079-12.396 25.575-24.115 51.489-39.432 75.608-10.681 16.821-19.917 34.556-29.95 51.794-6.854 11.777-15.767 21.847-26.346 30.431-5.237 4.249-11.337 4.998-17.87 4.784-12.185-.397-23.617-3.901-34.797-8.214-19.354-7.467-38.523-15.415-57.85-22.954-5.867-2.289-11.971-3.997-18.02-5.791-10.978-3.256-22.238-5.722-32.946-9.691-21.167-7.845-42.219-16.068-62.939-25.013-8.131-3.51-15.505-9.015-22.765-14.248-13.442-9.689-20.247-23.416-22.794-39.558-3.174-20.112-4.48-40.078 3.833-59.416 7.285-16.945 16.752-32.494 29.277-46.153 18.393-20.058 41.636-31.998 66.646-41.631 32.53-12.528 64.155-8.664 96.397 2.885zm-4.885 49.165c-.679-6.5-1.556-11.915-1.686-17.348-.068-2.843-1.105-3.997-3.437-5.196-13.322-6.852-28.017-6.504-42.298-8.316-11.175-1.417-21.313 2.816-31.559 6.127-25.212 8.146-47.219 21.03-63.995 42.237-18.022 22.783-25.658 47.747-18.597 76.49 1.593 6.487 4.12 12.384 9.71 16.367 5.672 4.043 11.108 8.82 17.402 11.515 19.986 8.559 40.292 16.378 60.546 24.3 5.865 2.294 11.953 4.029 17.97 5.919 13.453 4.225 27.054 8.019 40.348 12.69 10.627 3.735 20.766 8.841 31.346 12.73 12.779 4.699 25.767 8.839 38.722 13.045 4.578 1.486 8.909.869 12.086-3.281 4.74-6.193 10.028-12.059 14.044-18.694 9.809-16.203 18.441-33.137 28.61-49.1 15.442-24.241 27.244-50.316 39.505-76.134 6.1-12.845 10.456-26.583 14.819-40.169 5.03-15.661 9.142-31.631 9.408-48.247.121-7.601 1.588-15.928-.943-22.65-3.815-10.13-10.018-19.55-16.298-28.506-5.691-8.117-13.511-15.277-23.679-16.215-15.357-1.415-30.599.452-44.356 8.615-18.118 10.752-33.194 25.105-47.033 40.715-6.34 7.152-11.358 15.476-17.123 23.472 9.435 5.867 18.282 11.153 26.898 16.789 7.663 5.012 15.435 10.093 18.949 19.213 1.987 5.159.85 9.761-2.948 12.616-4.166 3.133-8.324 2.48-12.563-.039a4773.192 4773.192 0 00-36.99-21.764c-1.946-1.134-4.131-1.858-6.411-2.863l-10.447 15.682zM992.549 1038l.859 4.66c5.571.46 11.062.6 16.442 1.46 4.3.68 5.51-1.38 6.21-4.93 1.79-9.13 3.57-18.27 5.63-27.34 5.18-22.847 10.83-45.592 15.67-68.508 4.01-19.005 7-38.226 10.77-57.284 1-5.002 2.98-9.863 4.97-14.597 2.11-5.039 6.62-7.3 11.21-6.275 4.44.992 8.29 5.239 7.71 10.319-1.18 10.205-3.28 20.301-4.82 30.468-2.6 17.083-4.46 34.303-7.74 51.249-3.66 18.908-8.44 37.604-12.96 56.338-4.24 17.59-8.41 35.2-13.29 52.61-3.29 11.75-14.24 13.79-22.54 4.9-.99-1.06-2.72-1.97-4.14-2.03-11.3-.45-22.609-.62-33.912-.99-6.797-.22-13.586-.81-20.382-.9-3.798-.05-7.6.69-11.409.91-26.005 1.49-51.906-.16-77.808-2.35-6.255-.53-12.604.07-18.91.12-10.139.09-20.279.33-30.415.21-16.987-.22-33.971-.63-50.954-1.05-2.298-.06-4.683-.34-6.854-1.05-5.097-1.66-8.015-5.82-8.028-10.84-.014-5.02 2.775-9.51 7.962-10.84 5.105-1.3 10.475-2 15.75-2.14 21.131-.54 42.269-.78 63.405-1.09 15.11-.23 30.223-.67 45.33-.52 13.802.13 27.606 1.5 41.394 1.3 20.431-.3 40.846-1.55 61.272-2.3 3.124-.11 6.266.3 9.578.49zm-640.882-73.519c1.213-18.238 2.471-36.474 3.608-54.718.269-4.317-.066-8.672.221-12.987 1.08-16.257 2.005-32.532 3.538-48.749 2.61-27.613 5.81-55.171 8.408-82.785 1.12-11.914 1.321-23.913 2.009-35.87.339-5.895 3.629-9.638 8.505-9.922 5.141-.299 9.138 2.729 9.515 8.716.804 12.76 1.183 25.562 1.227 38.349.032 9.469-.502 18.958-1.221 28.405-.769 10.103-2.144 20.158-3.084 30.249a1837.044 1837.044 0 00-2.875 34.282 12128.916 12128.916 0 00-4.823 67.625c-.263 3.816-.051 7.662-.183 11.49-.295 8.475-.82 16.945-.965 25.422-.127 7.484.581 7.783 7.787 9.521 15.664 3.78 31.471 6.549 47.507 8.175 6.484.657 11.087 5.684 11.369 11.413.243 4.945-3.291 10.173-8.244 11.193-3.035.62-6.292.29-9.443.19-19.289-.59-37.618-6.202-56.093-10.942-12.254-3.144-15.609-7.805-15.952-20.548-.076-2.83-.276-5.657-.419-8.486l-.392-.023zm260.427-220.645c-6.072-.529-10.769-4.064-11.898-9.319-1.153-5.373 1.385-10.468 6.973-12.97 28.058-12.562 56.193-24.892 85.689-33.89 9.805-2.991 19.553-6.722 28.616-11.473 16.458-8.626 33.697-14.508 51.502-19.744 24.175-7.109 47.668-16.537 71.462-24.946 5.624-1.987 11.28-3.885 16.93-5.798.624-.212 1.3-.298 1.96-.372 7.442-.834 14.641 2.588 16.405 7.784 1.746 5.141-1.034 11.089-8.224 14.911-7.314 3.887-15.036 7.064-22.74 10.148-26.389 10.562-52.881 20.796-80.782 26.901-6.436 1.408-13.021 3.435-18.732 6.622-21.954 12.253-45.748 19.504-69.412 27.389-19.996 6.662-39.445 14.965-59.171 22.447-2.755 1.045-5.714 1.554-8.578 2.31zM0 627.546c16.577-11.163 35.132-14.497 53.778-16.279 25.795-2.466 51.709-3.793 77.597-5.135 19.446-1.009 38.928-1.696 58.397-1.773 29.137-.114 58.276.464 87.415.669 4.318.03 8.636-.419 12.958-.542 1.65-.047 3.33.066 4.959.334 6.702 1.104 10.613 5.351 10.486 11.255-.127 5.939-4.669 10.432-11.492 10.91-7.634.534-15.288.991-22.937 1.057-18.153.157-36.311-.163-54.46.118-33.458.518-66.917 1.161-100.365 2.093-15.459.431-30.887 2.144-46.343 2.404-16.634.279-33.305-.099-49.921-.941-6.653-.338-13.205-2.681-20.072-4.17zm1259.9-280.839c.03-4.956 3-8.086 6.97-10.159 8.41-4.38 16.78-8.89 25.49-12.589 40.56-17.232 81.05-34.644 121.94-51.06 16.59-6.656 34.05-11.176 51.27-16.139 4.33-1.249 9.28-.87 13.89-.517 7.09.542 8.61 4.307 3.95 9.839-2.75 3.267-5.83 6.814-9.54 8.612-13.74 6.647-27.68 12.936-41.78 18.782-34.56 14.327-69.19 28.496-103.93 42.398-17.59 7.04-35.44 13.441-53.22 19.98-7.93 2.914-15.12-1.605-15.04-9.147zm240.88 248.276c-5.64 1.698-11.19 4.19-16.95 4.954-21.52 2.849-42.85-.133-64.09-3.334-37.47-5.647-74.89-11.684-112.38-17.209-8.03-1.183-16.31-.597-24.42-1.407-3.1-.31-6.86-1.501-8.8-3.656-1.87-2.069-3.1-6.412-2.18-8.832 1.02-2.675 4.75-6.022 7.38-6.099 15.47-.453 31.13-1.404 46.43.359 37.3 4.298 74.48 9.725 111.63 15.247 15.73 2.338 31.36 5.617 46.82 9.371 5.91 1.436 11.21 5.39 16.79 8.197-.08.803-.15 1.606-.23 2.409zM717.274 822.391c-6.176-2.622-12.557-4.858-18.461-7.993-4.334-2.301-8.135-2.394-12.178-.074-6.49 3.725-12.836 7.715-19.428 11.248-7 3.752-14.149 7.246-21.378 10.535-2.019.918-4.545.936-6.846.981-6.108.12-10.125-2.879-10.992-7.937-.918-5.358 2.223-9.576 7.691-11.894 5.44-2.306 10.695-5.156 15.753-8.226 6.819-4.139 13.301-8.83 20.056-13.082 13.577-8.548 27.418-9.765 41.245-.658 3.665 2.413 6.119 1.982 8.873-1.347 10.855-13.124 25.881-16.518 41.872-17.901 3.301-.286 6.64-1.948 9.631-3.581 4.665-2.547 9.147-5.468 13.529-8.488 9.421-6.491 19.978-6.618 30.739-5.844.166.012.366-.02.493.059 3.13 1.964 6.253 3.941 9.377 5.915-1.905 2.98-3.263 6.611-5.848 8.781-3.504 2.943-7.914 4.83-11.996 7.058-7.707 4.207-15.686 7.969-23.126 12.6-7.281 4.532-14.909 7.248-23.43 7.54-10.283.353-18.991 3.852-25.896 11.847-4.933 5.712-11.05 9.653-19.128 9.133l-.552 1.328zM137.751 376.254c5.917-4.552 12.334-3.607 18.538-3.527 22.266.284 42.901 8.247 64.063 13.723 21.681 5.611 43.38 11.153 65.017 16.93 5.103 1.362 10.184 3.139 14.92 5.454 5.548 2.713 7.474 8.454 5.305 13.43-2.096 4.808-7.329 7.088-13.003 5.562-25.782-6.935-51.633-13.628-77.309-20.936-20.564-5.853-40.98-12.254-61.314-18.866-6.235-2.027-12.321-5.09-16.217-11.77zM1302.32 879.74c-5.35-1.079-10.91-1.546-16.01-3.342-21.31-7.511-42.52-15.303-63.66-23.277-4.62-1.742-8.96-4.4-13.13-7.092-6.59-4.248-8.66-10.408-5.92-16.165 2.73-5.744 9.29-8.202 16.8-5.511 10.79 3.868 21.33 8.45 32.1 12.37 15.31 5.568 30.81 10.609 46.06 16.303 5.39 2.01 10.79 4.657 15.26 8.19 2.91 2.305 5.84 6.793 5.72 10.189-.17 4.54-5.19 6.452-9.63 7.244-2.44.435-4.96.395-7.45.57-.05.173-.09.347-.14.521zM187.088 827.555c-3.242-.496-6.645-.571-9.735-1.594-4.593-1.52-5.357-4.421-1.901-7.722 2.959-2.826 6.375-5.602 10.11-7.111 13.674-5.523 27.458-10.82 41.401-15.62 19.294-6.642 38.656-13.162 58.986-16.076 5.654-.81 10.493 1.829 11.887 6.673 1.302 4.525-1.228 9.625-6.615 11.355-29.369 9.435-58.78 18.744-88.272 27.787-5.006 1.535-10.473 1.565-15.861 2.308z"/>
  </symbol>

  <symbol id="site-logo" viewBox="0 0 153 42">
    <path d="M37.8046 13.8321C35.2012 12.5402 31.8151 12.6433 29.9268 14.0749C29.3292 14.5283 29.2124 15.3803 29.6658 15.9784C30.1182 16.576 30.9703 16.6925 31.5693 16.2394C32.5 15.5342 34.7939 15.3711 36.5959 16.2656C37.8218 16.8742 39.2829 18.1986 39.2829 21.0514C39.2829 22.6939 38.4494 23.7656 37.7502 24.3752C36.4576 25.5026 34.4675 26.0737 32.6735 25.8259C31.0307 25.6004 28.9537 23.2047 27.8336 21.065C26.2466 18.0334 24.135 16.8293 22.7273 16.3506C24.8626 15.139 28.114 12.5964 28.5122 9.69568C28.8658 7.12184 28.0631 4.35098 26.4177 2.46405C25.0319 0.874972 23.1241 0 21.0458 0C17.7336 0 15.1697 1.48991 13.8264 4.19542C12.5332 6.79944 12.6377 10.1859 14.0692 12.0728C14.5216 12.6702 15.3737 12.7876 15.9727 12.3339C16.5704 11.8805 16.6872 11.0284 16.2338 10.4303C15.5276 9.49965 15.3648 7.20642 16.26 5.40373C16.8686 4.17818 18.193 2.71712 21.0458 2.71712C22.6883 2.71712 23.7599 3.55064 24.3699 4.24982C25.4969 5.54238 26.0664 7.53511 25.8203 9.32618C25.5948 10.9693 23.199 13.0463 21.0594 14.1661C18.4306 15.5424 17.1815 17.31 16.5824 18.6743C16.4841 18.8536 16.3996 19.0408 16.3234 19.2325C15.1017 17.0969 12.576 13.8895 9.69568 13.4941C7.12084 13.1415 4.35065 13.9432 2.46405 15.5886C0.874972 16.9744 0 18.8822 0 20.9605C0 24.2727 1.48991 26.8366 4.19542 28.1799C5.41468 28.7852 6.80508 29.0844 8.13313 29.0844C9.64128 29.0844 11.0692 28.6983 12.0728 27.9371C12.6705 27.4837 12.7873 26.6316 12.3339 26.0336C11.8808 25.4356 11.0287 25.3181 10.4303 25.7725C9.49998 26.4787 7.20642 26.6415 5.40373 25.7463C4.17818 25.1377 2.71712 23.8133 2.71712 20.9605C2.71712 19.3181 3.55064 18.2464 4.24982 17.6364C5.54238 16.5094 7.53279 15.9396 9.32618 16.186C10.9693 16.4115 13.0463 18.8073 14.1661 20.9469C15.2584 23.0335 16.5984 24.2506 17.7874 24.9653C18.1794 25.2905 18.6222 25.5553 19.1011 25.7507C16.9681 26.9976 13.8769 29.4791 13.4884 32.3043C13.1349 34.8778 13.9375 37.6487 15.583 39.5356C16.9688 41.1247 18.8769 42 20.9552 42C24.267 42 26.8309 40.5101 28.1746 37.8049C29.4675 35.2009 29.363 31.8144 27.9315 29.9272C27.4784 29.3292 26.626 29.2117 26.0279 29.6661C25.4303 30.1195 25.3135 30.9716 25.7669 31.5697C26.4731 32.5003 26.6359 34.7936 25.7407 36.5963C25.1321 37.8218 23.808 39.2829 20.9552 39.2829C19.3127 39.2829 18.2408 38.4494 17.6308 37.7498C16.5037 36.4573 15.9342 34.4649 16.1804 32.6741C16.4062 31.031 18.802 28.954 20.9413 27.8339C23.0931 26.7075 24.3225 25.3171 25.0273 24.1012C25.3121 23.7209 25.5436 23.2999 25.7126 22.847C27.1388 25.3412 29.603 28.147 32.304 28.5179C32.706 28.5729 33.1126 28.6001 33.5199 28.6001C35.7216 28.6001 37.9436 27.8117 39.5359 26.423C41.125 25.0372 42 23.1297 42 21.0514C42 17.7393 40.5101 15.1754 37.8046 13.8321Z" fill="#333338"/>
    <path d="M57.616 30.264C62.44 30.216 65.776 26.448 65.776 20.832C65.776 15.432 63.328 11.952 57.904 11.952C53.032 11.928 49.72 15.528 49.72 21.144C49.72 26.592 52.168 30.312 57.616 30.264ZM57.76 13.416C60.352 13.416 61.864 15.744 61.864 20.832C61.864 26.064 60.256 28.8 57.712 28.8C55.096 28.8 53.584 26.208 53.584 21.12C53.584 15.912 55.192 13.416 57.76 13.416ZM67.9489 23.448C67.9489 27.336 69.8689 30.264 74.1169 30.264C76.3009 30.264 78.1249 29.16 78.7969 28.44L78.2449 27.192C77.5009 27.672 76.3729 28.176 74.8849 28.176C72.9169 28.176 71.5489 26.352 71.5489 22.728C71.5729 19.248 72.7249 17.88 74.4289 17.88C75.0769 17.88 75.7249 18.024 75.8449 18.504L76.4449 21.144H78.5329L78.6769 17.04C77.9329 16.896 76.7569 16.32 74.7649 16.32C70.5409 16.32 67.9249 19.272 67.9489 23.448ZM85.4583 30.216C87.1863 30.216 89.1303 29.52 89.9463 28.896L89.4903 27.552C88.9863 27.768 88.0263 28.008 87.1623 28.008C86.0583 28.008 85.9383 27.816 85.9383 25.248V18.504H89.5863V16.656H85.9143L85.8183 13.128H83.8983C83.7063 13.8 83.3703 15.024 83.1063 15.624C82.9143 16.152 82.6983 16.488 82.4103 16.704C82.0503 16.872 81.4023 17.088 80.9463 17.256V18.504H82.5063V27.312C82.5063 29.376 83.4903 30.216 85.4583 30.216ZM91.6791 26.256C91.6791 28.872 93.5511 30.264 95.7351 30.264C97.7031 30.264 99.1191 29.088 99.7431 28.392V29.04C99.7431 30.048 100.031 30.264 101.111 30.264C102.071 30.264 103.487 30.048 104.039 29.904V28.56H102.743V21.216C102.743 17.736 101.567 16.368 97.8951 16.368C95.1831 16.368 92.7831 17.712 92.2311 18.192L92.9751 19.728C93.7431 19.368 95.2071 18.648 97.0311 18.648C99.0951 18.648 99.5511 19.44 99.5511 21.288V21.84C95.2071 21.864 91.6791 23.208 91.6791 26.256ZM97.2711 28.272C96.0711 28.272 95.2551 27.48 95.2551 25.92C95.2551 24.48 96.5271 23.304 99.5511 23.304V27.24C98.9271 27.792 97.9671 28.272 97.2711 28.272ZM107.913 28.344L106.017 28.56V30H113.817V28.56L111.297 28.368V18.528H114.345V16.68H111.297V14.64C111.297 13.128 111.777 12.576 113.025 12.576C114.129 12.576 115.161 13.008 115.449 13.296V10.224C115.233 10.152 114.777 9.984 113.913 9.984C110.745 9.984 107.913 12.456 107.913 15.648V16.704L105.897 17.184V18.528H107.913V28.344ZM122.822 30.264C124.958 30.264 127.094 29.208 127.862 28.392L127.262 27.072C126.542 27.6 125.054 28.128 123.758 28.128C121.43 28.128 120.182 26.376 120.062 23.52H127.862C128.006 22.944 128.054 22.2 128.054 21.168C127.982 18.096 126.254 16.32 123.014 16.32C119.15 16.32 116.558 18.96 116.558 23.328C116.558 27.408 118.43 30.264 122.822 30.264ZM120.062 22.08C120.158 18.72 121.19 17.856 122.606 17.856C124.19 17.856 124.742 19.152 124.742 21.048C124.742 21.384 124.718 21.744 124.694 22.08H120.062ZM132.801 26.136H130.809V29.304C131.673 29.544 133.521 30.264 135.777 30.264C139.401 30.264 141.177 28.536 141.177 26.28C141.177 23.808 139.113 22.824 137.049 21.96C135.465 21.288 133.977 20.808 133.977 19.368C133.977 18.384 134.841 17.784 136.137 17.784C137.025 17.784 137.769 18.096 137.937 18.408L138.489 20.232H140.385V17.088C139.641 16.968 138.369 16.368 136.041 16.368C132.897 16.368 130.857 17.928 130.857 20.112C130.857 22.248 132.009 23.448 134.145 24.336C136.305 25.296 137.865 25.824 137.865 27.12C137.865 28.104 137.193 28.824 135.609 28.824C134.649 28.824 133.593 28.416 133.353 28.032L132.801 26.136ZM147.886 30.216C149.614 30.216 151.558 29.52 152.374 28.896L151.918 27.552C151.414 27.768 150.454 28.008 149.59 28.008C148.486 28.008 148.366 27.816 148.366 25.248V18.504H152.014V16.656H148.342L148.246 13.128H146.326C146.134 13.8 145.798 15.024 145.534 15.624C145.342 16.152 145.126 16.488 144.838 16.704C144.478 16.872 143.83 17.088 143.374 17.256V18.504H144.934V27.312C144.934 29.376 145.918 30.216 147.886 30.216Z" fill="#333338"/>
  </symbol>

  <symbol id="spacer" viewBox="0 0 2 20">
    <path d="M0.999999 0L0.999999 20" stroke="#C3C1C1" stroke-width="0.5"/>
  </symbol>

  <symbol id="chat" viewBox="0 0 50 50">
    <path d="M30.0049 3C31.4883 3.22885 33.0116 3.31356 34.4486 3.71066C42.0515 5.81166 47.7532 10.1145 49.3411 18.2074C50.345 23.3238 49.4527 28.4135 46.6258 32.9332C44.6308 36.1228 41.4677 37.6271 37.8512 38.194C34.677 38.6917 31.5245 38.6144 28.4479 37.5117C28.2015 37.4234 27.7134 37.5806 27.5368 37.7909C25.3722 40.3696 23.1609 42.9214 21.8569 46.0916C21.446 47.0906 20.8233 47.9101 19.644 47.9372C18.5161 47.9632 17.7282 47.2246 17.4206 46.2731C16.8101 44.3848 16.3097 42.4482 15.9468 40.4975C15.7424 39.3988 15.8856 38.232 15.9031 37.0963C15.9239 35.7389 16.6275 34.9736 17.7591 35.0302C18.8471 35.0846 19.5996 36.1131 19.5431 37.3752C19.5029 38.2746 19.5321 39.1783 19.5632 40.0789C19.5731 40.367 19.6884 40.6515 19.7567 40.9432C21.7431 38.4915 23.6743 36.0814 25.6358 33.6962C26.9689 32.0751 27.8668 32.011 29.5958 33.2488C30.0133 33.5476 30.5242 33.7929 31.025 33.8854C33.7789 34.3942 36.5285 34.3859 39.196 33.4383C41.4512 32.6371 43.0882 31.1333 43.8926 28.8339C45.1999 25.0966 46.0477 21.2516 44.6311 17.4129C42.568 11.8222 38.1737 8.57962 32.4966 7.87137C23.0186 6.68895 14.0867 8.7102 6.03621 14.0885C4.6121 15.0399 3.94922 16.3519 4.18592 17.9505C4.68851 21.3448 5.20809 24.7497 6.00008 28.0839C6.69576 31.0127 8.72413 33.0759 11.2365 34.6788C12.2741 35.3407 13.244 36.1087 14.4079 36.9458C13.0987 37.9564 11.86 37.9102 10.6581 37.6737C6.53018 36.8613 3.61325 34.4367 2.31852 30.481C1.34999 27.5219 0.839123 24.4033 0.263627 21.3297C0.00186579 19.9317 0.0502485 18.4715 0.00446673 17.038C-0.0764605 14.5041 0.943475 12.4739 2.96694 10.9765C7.47543 7.63999 12.4923 5.41997 18.0025 4.38639C20.6347 3.89264 23.3017 3.58471 25.9519 3.1853C26.171 3.15228 26.3816 3.06309 26.5962 3C27.7324 3 28.8687 3 30.0049 3Z" fill="#494141"/>
    <path d="M17.8547 17.2069C18.1923 14.6274 19.4347 12.6158 21.7967 11.5398C23.4208 10.7999 25.1965 10.721 26.6978 12.0279C28.2333 13.3645 28.372 15.1039 27.8419 16.9049C27.5253 17.9802 26.9594 18.981 26.5218 20.0221C26.0852 21.0606 25.6227 22.0916 25.2585 23.1557C24.9744 23.9857 24.5657 24.6118 23.6174 24.5821C22.5907 24.55 21.9833 23.8697 21.8925 22.9436C21.8226 22.2296 21.9786 21.4297 22.2543 20.7585C22.8693 19.2616 23.6819 17.8453 24.2852 16.3443C24.4885 15.8387 24.303 15.1768 24.2952 14.5862C23.6543 14.795 22.8408 14.8285 22.4113 15.2518C21.6907 15.9621 20.9746 16.7883 21.3188 18.0393C21.5552 18.8986 21.5207 19.8252 20.4687 20.2302C19.6054 20.5625 18.5749 19.9739 18.1676 18.883C17.9751 18.3675 17.957 17.7869 17.8547 17.2069Z" fill="#494141"/>
    <path d="M25.7899 27.7637C25.811 28.7629 25.0821 29.5597 24.1444 29.5621C23.1623 29.5647 22.2609 28.6504 22.2696 27.6606C22.2781 26.6965 23.0425 25.9377 24.0042 25.939C24.9826 25.9402 25.7683 26.7432 25.7899 27.7637Z" fill="#494141"/>
  </symbol>

  <symbol id="bicycle" viewBox="0 0 50 50">
    <path d="M16.5771 33.4707C14.6902 33.3902 12.8797 33.3368 11.0728 33.2247C10.3007 33.1768 9.49138 33.1217 8.78527 32.8475C8.37474 32.6882 7.97292 32.1296 7.85714 31.6766C7.68572 31.0058 8.17317 30.5413 8.73574 30.1559C9.17642 29.854 9.62583 29.4802 9.89776 29.0329C10.6256 27.8356 11.2601 26.5815 11.9318 25.3498C10.0058 24.3396 7.61366 24.7298 6.16159 26.2603C5.87427 26.5631 5.57698 26.8747 5.23073 27.0999C4.31682 27.6942 3.4076 27.2306 3.30534 26.1375C3.21823 25.2064 3.59195 24.4458 4.22536 23.7913C6.12103 21.8327 8.49159 21.5317 11.0296 21.87C11.7678 21.9684 12.4891 22.1918 13.2269 22.2961C13.4609 22.3293 13.8636 22.238 13.9513 22.0754C15.0129 20.1083 16.0973 18.1475 17.0168 16.1133C17.2875 15.5145 17.0585 14.6898 17.0585 13.9024C16.2982 13.9621 15.7417 14.0287 15.1838 14.0441C14.4145 14.0654 13.9341 13.6618 13.7821 12.9204C13.6494 12.273 14.1559 11.5037 14.8923 11.4005C16.6368 11.1558 18.3904 10.9523 20.1471 10.8272C21.0763 10.761 21.6875 11.4092 21.6752 12.2204C21.6634 13.0089 21.1129 13.478 20.163 13.5145C19.8687 13.5258 19.5748 13.5478 19.2838 13.5647C19.3366 15.0986 19.4403 15.3009 20.8316 15.2883C22.6114 15.2721 24.3938 15.1358 26.1677 14.9711C28.3958 14.7643 30.6165 14.4763 32.7243 14.2365C33.2303 13.271 33.6858 12.4017 34.2863 11.2557C33.4169 11.4064 32.8251 11.5083 32.2336 11.6116C31.7058 11.7038 31.1451 11.9491 30.6607 11.8435C30.2592 11.7559 29.7129 11.2879 29.6632 10.9286C29.6146 10.5774 30.037 9.91214 30.3858 9.80045C31.5444 9.42944 32.7522 9.12802 33.9611 9.0175C35.7712 8.852 36.7107 9.86947 36.4907 11.6836C36.4031 12.4057 36.0135 13.0861 35.8317 13.8032C35.6923 14.3528 35.4741 14.9853 35.6194 15.4855C36.1354 17.2621 36.8284 18.9865 37.3783 20.7542C37.6147 21.5139 37.9228 21.8265 38.7921 21.8103C41.7309 21.7558 44.3772 22.6679 46.7237 24.4648C49.4953 26.5871 50.6261 30.219 49.6609 33.998C48.6735 37.8635 46.0163 39.7586 42.2467 40.502C39.7739 40.9896 37.494 40.4543 35.1053 39.8912C31.1229 38.9524 29.5169 36.2544 28.8358 32.6033C28.4859 30.7273 28.6204 28.9186 29.7659 27.3672C30.7289 26.0629 31.8286 24.8434 32.9833 23.7035C33.6258 23.0692 34.5045 22.6744 35.3628 22.1156C35.1012 21.3034 34.82 20.4305 34.501 19.44C34.2703 19.6922 34.0885 19.8696 33.931 20.0665C32.5292 21.8186 31.1208 23.5656 29.7369 25.3318C28.8505 26.4631 27.9809 27.6093 27.1549 28.7847C26.9887 29.0211 26.95 29.4469 27.0281 29.7383C27.384 31.0668 27.1875 32.3047 26.472 33.4454C25.4923 35.0073 23.3399 35.4243 21.9122 34.2677C21.2599 33.7393 20.6194 33.6001 20.0368 33.6758C19.3158 35.1337 18.761 36.5585 17.951 37.8195C16.8585 39.5202 15.174 40.4425 13.153 40.6233C11.7249 40.7511 10.2732 40.9225 8.85612 40.7985C6.17102 40.5635 3.84437 39.3754 1.98127 37.4428C0.0269801 35.4156 -0.478919 32.9666 0.451891 30.3044C0.665143 29.6945 1.17134 29.1481 1.65335 28.6885C1.87478 28.4773 2.44845 28.3917 2.70679 28.5332C2.95524 28.6693 3.13382 29.1804 3.11266 29.512C3.06158 30.3123 2.8499 31.1008 2.74968 31.9C2.50642 33.8397 3.39469 35.2594 4.90577 36.3419C7.64134 38.3015 10.6829 38.4079 13.736 37.4499C15.4702 36.9058 16.1825 35.3008 16.5771 33.4707ZM36.4485 25.4311C35.1916 26.1903 33.8602 26.693 32.9432 27.6101C30.9195 29.6341 31.3053 34.0317 33.4905 35.8917C33.6474 36.0252 33.8317 36.1452 34.0238 36.2158C36.8817 37.2658 39.7027 38.1067 42.8138 36.9717C45.5731 35.9651 47.2581 33.1003 46.5642 30.2048C45.9271 27.5465 43.9395 26.3908 41.6376 25.593C40.8044 25.3043 39.878 25.2842 38.8486 25.118C39.1321 26.0468 39.3255 26.7355 39.5526 27.413C40.0276 28.83 40.5305 30.2377 41.0014 31.6561C41.224 32.3268 41.116 32.9457 40.4084 33.2425C39.7576 33.5155 39.2278 33.239 38.9066 32.6316C38.698 32.2371 38.5221 31.8195 38.3822 31.3955C37.7461 29.4674 37.1281 27.5334 36.4485 25.4311ZM32.6491 16.983C28.4745 17.4027 24.5413 17.7981 20.6002 18.1943C21.8027 21.3429 23.0258 24.5453 24.2293 27.6965C27.0471 24.1111 29.7945 20.6152 32.6491 16.983ZM16.3117 23.6468C18.1033 25.4539 19.2993 27.5013 19.7075 29.9858C19.7546 30.2726 20.2182 30.491 20.3353 30.5993C22.3203 28.906 21.5091 27.1953 20.8233 25.486C20.7235 25.2373 20.6621 24.9733 20.5652 24.7233C19.9318 23.0888 19.2936 21.4562 18.5718 19.6046C17.7354 21.1004 17.0272 22.3671 16.3117 23.6468ZM12.539 29.9585C13.2981 30.0672 13.94 30.1678 14.5843 30.249C15.224 30.3296 15.8662 30.3906 16.5073 30.4602C16.5877 30.3784 16.6682 30.2965 16.7486 30.2147C16.1141 28.9405 15.4796 27.6664 14.845 26.3922C14.7395 26.4173 14.634 26.4423 14.5285 26.4674C13.8723 27.6189 13.2161 28.7703 12.539 29.9585Z" fill="#494141"/>
  </symbol>

  <symbol id="fresh-drink" viewBox="0 0 50 50">
    <path d="M31.1865 49.0129C30.9855 48.9449 30.7866 48.8248 30.5833 48.8166C26.6146 48.6565 22.6456 48.5033 18.6761 48.368C18.2076 48.352 17.67 48.3197 17.2769 48.5179C16.0638 49.1298 15.0124 48.6484 13.9476 48.1777C12.9198 47.7233 12.7044 46.8057 13.2599 45.8256C13.4599 45.4728 13.5881 44.9305 13.4682 44.5674C11.248 37.8476 10.8478 30.7825 9.55326 23.8894C9.25499 22.3011 9.43758 20.6096 9.50384 18.9698C9.55668 17.6619 10.8332 17.0133 12.0654 17.5079C12.6751 17.7526 13.3455 17.8462 14.3363 18.0957C13.3659 14.3447 12.484 10.9359 11.5866 7.467C10.1535 7.85866 9.45218 8.62949 8.80834 9.62404C7.90586 11.0181 6.84155 12.3146 5.77393 13.5922C4.99678 14.5222 4.00752 14.5877 2.9035 14.0826C-0.242248 12.6434 -0.855107 10.9184 1.17862 8.08967C2.81256 5.81698 4.66324 3.66977 6.6285 1.67447C8.45351 -0.178435 11.0413 -0.211204 13.319 0.242298C15.1189 0.600658 16.2283 2.33915 16.8041 4.17267C17.8078 7.36864 18.7932 10.5703 19.7824 13.7708C20.1136 14.8425 20.433 15.9179 20.7823 17.0726C21.6909 16.95 22.5419 16.8351 23.4084 16.7181C23.5055 15.3453 23.5758 14.0084 23.6992 12.6764C23.9792 9.65441 25.7836 7.73469 28.3104 6.32601C31.3992 4.60406 34.6465 3.53116 38.2334 3.8574C38.9841 3.92568 39.7966 4.00556 40.4501 4.33723C43.9942 6.13589 47.0845 8.48133 48.9215 12.1298C50.3379 14.9429 50.6298 19.5352 48.1266 22.5239C45.6887 25.4344 42.6365 26.9932 39.2346 28.1583C38.6413 28.3614 38.4349 28.562 38.4037 29.1796C38.2182 32.8555 37.9731 36.5282 37.7755 40.2035C37.67 42.1673 37.6217 44.1342 37.544 46.0995C37.4895 47.4804 36.2588 48.7067 34.8685 48.7984C34.0783 48.8506 33.2905 48.9402 32.5017 49.0129C32.0633 49.0129 31.6249 49.0129 31.1865 49.0129ZM29.6359 20.3895C29.518 25.6902 29.4382 31.0131 29.2604 36.3327C29.1973 38.2201 28.937 40.1054 28.666 41.977C28.6162 42.3207 28.081 42.5941 27.7699 42.8999C27.4989 42.5951 27.0546 42.3243 26.9873 41.9797C26.7228 40.6261 26.4064 39.2477 26.419 37.8814C26.4569 33.7598 26.6184 29.6388 26.7764 25.5192C26.8445 23.7439 27.0224 21.9727 27.1711 19.9131C24.5203 20.0576 21.9033 20.2003 19.3203 20.3411C19.2941 20.69 19.2769 20.7603 19.2855 20.8273C20.0883 27.1173 20.9019 33.406 21.6907 39.6977C21.8514 40.9801 21.2014 42.1085 20.3757 42.1421C19.6299 42.1724 19.0367 41.2991 18.9022 39.9995C18.3773 34.9288 17.854 29.8579 17.3164 24.7886C17.1758 23.4624 16.9855 22.1416 16.8215 20.8458C15.4954 20.8458 14.2744 20.8458 12.7753 20.8458C14.2964 28.9492 14.8028 37.1077 17.4313 44.8317C23.0099 44.9575 28.4826 45.081 33.926 45.2038C34.4512 36.595 34.4924 28.2265 36.0668 19.9092C33.8522 20.0746 31.8343 20.2253 29.6359 20.3895ZM35.7156 14.4482C36.1087 12.9645 36.4538 11.567 36.8557 10.186C37.0555 9.49944 37.6471 9.07067 38.279 9.34962C38.7341 9.55051 39.196 10.1598 39.2851 10.6537C39.3861 11.2129 39.0526 11.8428 38.9462 12.4488C38.7167 13.7567 38.5117 15.0689 38.2723 16.5282C39.3587 16.1066 40.1749 15.7052 41.037 15.4797C41.8662 15.2628 42.7304 15.3934 42.9691 16.3956C43.1914 17.3289 42.4973 17.7511 41.7476 18.08C41.0829 18.3715 40.4117 18.6643 39.7942 19.0402C39.5177 19.2085 39.2148 19.5646 39.1821 19.8637C39.009 21.448 38.9179 23.0413 38.7843 24.8181C41.3019 23.7563 43.5147 22.7627 45.3159 20.7432C47.3883 18.4195 47.1484 15.2311 45.8202 12.8398C44.4523 10.3769 42.3025 8.76931 39.9295 7.43082C39.2615 7.05403 38.4355 6.83559 37.6656 6.78268C34.5123 6.56595 31.7993 7.82413 29.095 9.29837C26.6095 10.6534 26.0778 14.196 26.601 16.6765C29.3449 16.8544 32.0738 17.0312 34.9138 17.2152C33.2962 15.9448 31.7592 14.8247 30.347 13.5647C30.0108 13.2648 30.0917 12.4972 29.9808 11.9447C30.5122 11.8493 31.0902 11.5777 31.5635 11.7026C32.1708 11.8629 32.7094 12.3194 33.2499 12.6887C34.1093 13.2759 34.9459 13.8965 35.7156 14.4482ZM18.1202 17.4127C17.8552 16.5132 17.6077 15.6483 17.3456 14.7879C16.3487 11.5154 15.3537 8.24228 14.3431 4.97399C14.043 4.00324 13.6171 3.10702 12.5095 2.5715C12.5931 3.49141 12.5504 4.32122 12.7705 5.07422C12.9877 5.81705 13.5942 6.44531 13.8156 7.18774C14.7592 10.3523 15.6472 13.5341 16.5009 16.7242C16.732 17.5878 17.093 17.914 18.1202 17.4127ZM10.1242 2.68842C8.88323 2.51679 8.38794 3.20483 7.86989 3.93792C6.78131 5.47837 5.64366 6.9841 4.53073 8.50743C4.12466 9.06323 3.69022 9.60538 3.35604 10.2026C3.24583 10.3996 3.40995 10.75 3.44864 11.0303C3.72808 10.9881 4.12361 11.0483 4.26684 10.8859C4.88543 10.1846 5.56217 9.48422 5.97348 8.66139C6.7605 7.08698 7.85752 5.93857 9.51279 5.31123C9.75824 5.21821 10.0694 4.92799 10.0964 4.69912C10.1747 4.03363 10.1242 3.35296 10.1242 2.68842Z" fill="#494141"/>
  </symbol>

  <symbol id="hand" viewBox="0 0 50 50">
    <path d="M23.2691 0C24.2226 0.389723 24.8318 1.07186 25.0537 2.08858C25.0781 2.20069 25.1223 2.31738 25.188 2.41033C27.051 5.04852 27.0094 8.10952 27.1309 11.1346C27.1355 11.2483 27.1477 11.3616 27.1711 11.6685C27.6681 10.2149 28.0733 8.92346 28.5499 7.65897C29.4079 5.38239 30.6792 4.56742 33.1149 4.74052C33.5558 4.77186 34.091 4.91065 34.3936 5.19853C35.4921 6.24366 36.5767 7.3348 36.6112 9.01432C36.6136 9.1302 36.616 9.2556 36.6592 9.3597C37.3239 10.9632 37.016 12.5446 36.6516 14.1607C35.8369 17.7747 35.3512 21.442 35.2118 25.1446C35.1387 27.0865 35.1989 29.0333 35.1989 31.0166C35.1363 30.9975 35.2057 31.0414 35.2312 31.0233C36.606 30.0494 38.0388 29.1433 39.3206 28.0588C39.8987 27.5698 40.2386 26.7538 40.5724 26.0333C40.9867 25.1391 41.1401 23.9935 42.1681 23.637C43.5353 23.1629 44.9919 22.914 46.4458 23.3204C47.9426 23.7387 48.4606 25.0813 48.9071 26.3139C49.9271 29.1298 50.161 32.0536 48.4166 34.6359C47.4147 36.119 45.9637 37.3442 44.5634 38.5025C42.2186 40.4419 39.3296 41.3957 36.5768 42.587C35.1131 43.2205 33.7195 44.0065 33.1743 45.647C33.0006 46.1697 32.9697 46.788 33.0492 47.3371C33.2508 48.7292 32.7931 49.8011 31.8153 49.9695C30.705 50.1606 29.8813 49.4487 29.6093 48.003C29.0602 45.0836 30.1667 42.8218 32.4188 41.0183C34.486 39.3628 37.0443 38.7031 39.3648 37.5614C41.4992 36.5113 43.4435 35.1881 45.0659 33.4329C46.5844 31.7901 46.273 28.4262 45.3368 26.9029C45.2257 26.7221 44.8037 26.627 44.5532 26.6664C44.2979 26.7065 43.9169 26.9214 43.8644 27.1289C43.2241 29.6606 41.329 31.0778 39.3038 32.4006C38.4013 32.99 37.5195 33.6122 36.6439 34.2411C35.8053 34.8434 34.8933 35.1298 33.8538 35.0816C32.5639 35.0217 31.6918 34.2341 31.697 32.9344C31.7027 31.5056 31.8294 30.0777 31.8706 28.6484C31.8989 27.6654 31.8226 26.6779 31.8795 25.6974C31.9804 23.9547 32.0598 22.2033 32.3057 20.478C32.716 17.5987 33.3826 14.7504 33.6741 11.8621C33.8096 10.5191 33.6544 9.00445 32.4027 7.83904C32.1796 8.07913 31.8857 8.26367 31.7864 8.52276C30.8895 10.8638 29.9464 13.1955 30.1088 15.7877C30.1979 17.2113 30.3359 18.6446 30.2543 20.0622C30.1832 21.2986 29.8581 22.5241 29.5953 23.7437C29.5184 24.1007 29.3247 24.4654 29.0908 24.7494C28.4388 25.5408 27.6692 26.1912 26.542 25.9433C25.4868 25.7113 24.8888 24.9507 24.6877 23.9432C24.4491 22.7474 24.2042 21.5322 24.1721 20.3198C24.0945 17.3995 24.202 14.474 24.1127 11.5544C24.054 9.63674 23.8803 7.70905 23.5604 5.81935C23.4231 5.00836 22.7839 4.28236 22.3271 3.43294C21.467 4.49487 21.1917 5.61552 21.2774 6.84036C21.5863 11.2588 21.9534 15.6741 22.1812 20.0966C22.2366 21.1707 21.9784 22.3135 21.6292 23.3451C20.8429 25.6676 18.3657 26.0464 16.8224 24.1435C15.5896 22.6236 15.3168 20.7637 15.0382 18.9177C14.8299 17.5381 14.7055 16.1458 14.496 14.7665C14.2303 13.0168 13.9926 11.2568 13.5972 9.53474C13.3123 8.29419 12.7227 7.14961 11.4598 6.06553C11.2634 7.05638 10.9381 7.83597 10.9891 8.59009C11.204 11.7667 12.0655 14.8193 12.8471 17.8961C13.5338 20.5987 13.9308 23.3775 14.3869 26.134C14.4776 26.682 14.2852 27.2874 14.1722 27.8561C13.9993 28.7264 13.4966 29.3546 12.6171 29.5714C11.7353 29.7888 10.9565 29.4492 10.4275 28.7824C9.98749 28.2276 9.62899 27.5568 9.41838 26.8801C8.45882 23.797 7.58357 20.6877 6.63517 17.601C6.32971 16.6069 5.62891 15.877 4.5532 15.0727C4.33059 15.9877 4.03812 16.6886 4.00933 17.4002C3.91558 19.7177 4.338 21.95 5.05944 24.172C5.93871 26.8802 6.61148 29.6579 7.3095 32.4217C7.8935 34.734 8.58423 37.0463 8.86023 39.4017C9.11932 41.6129 8.92086 43.881 8.87232 46.1229C8.85708 46.8266 8.19596 47.3891 7.59018 47.2996C6.85455 47.1909 6.47375 46.7102 6.4343 45.9741C6.37507 44.8688 6.22866 43.7562 6.30026 42.6585C6.42524 40.7425 5.83403 38.9707 5.37771 37.1717C4.38352 33.2521 3.50029 29.2943 2.27375 25.4471C1.38126 22.6478 0.865871 19.8542 1.03043 16.9517C1.08467 15.995 1.36306 14.9694 1.82471 14.133C3.05602 11.9022 5.62163 11.648 7.40061 13.4954C7.95997 14.0763 8.44534 14.7285 9.10182 15.5117C8.84186 14.2846 8.60565 13.2725 8.4178 12.2516C8.25473 11.3654 8.10937 10.4727 8.02151 9.57642C7.83315 7.65488 8.45601 5.96428 9.5859 4.43583C10.5539 3.12641 11.726 2.9417 13.0592 3.90411C14.7796 5.14604 15.8148 6.90257 16.2166 8.9036C16.9312 12.4614 17.4098 16.066 18.0283 19.6439C18.1693 20.46 18.4779 21.2471 18.7094 22.0475C18.8023 22.0431 18.8952 22.0387 18.988 22.0342C19.0685 21.516 19.2441 20.9922 19.2137 20.4805C19.0549 17.8059 18.8383 15.1347 18.6531 12.4616C18.5363 10.7747 18.371 9.08712 18.3567 7.39876C18.3467 6.22543 18.407 5.01132 18.7007 3.88442C19.2194 1.89389 20.5318 0.551508 22.5677 0C22.8015 0 23.0353 0 23.2691 0Z" fill="#494141"/>
  </symbol>

  <symbol id="facebook" viewBox="0 0 81 80">
    <g clip-path="url(#clip0)">
      <path d="M80.5 40C80.5 17.9086 62.5914 0 40.5 0C18.4086 0 0.5 17.9086 0.5 40C0.5 59.9652 15.1274 76.5133 34.25 79.5139V51.5625H24.0938V40H34.25V31.1875C34.25 21.1625 40.2218 15.625 49.3585 15.625C53.735 15.625 58.3125 16.4062 58.3125 16.4062V26.25H53.2685C48.2996 26.25 46.75 29.3333 46.75 32.4967V40H57.8438L56.0703 51.5625H46.75V79.5139C65.8726 76.5133 80.5 59.9652 80.5 40Z" fill="#1877F2"/>
    </g>
    <defs>
      <clipPath id="clip0">
        <rect width="80" height="80" fill="white" transform="translate(0.5)"/>
      </clipPath>
    </defs>
  </symbol>

  <symbol id="google" viewBox="0 0 81 80">
    <path fill-rule="evenodd" clip-rule="evenodd" d="M78.9 40.9086C78.9 38.0723 78.6455 35.345 78.1727 32.7268H40.5V48.1995H62.0273C61.1 53.1995 58.2818 57.4359 54.0455 60.2723V70.3086H66.9727C74.5364 63.345 78.9 53.0904 78.9 40.9086Z" fill="#4285F4"/>
    <path fill-rule="evenodd" clip-rule="evenodd" d="M40.5001 79.9999C51.3001 79.9999 60.3546 76.418 66.9728 70.3089L54.0455 60.2726C50.4637 62.6726 45.8819 64.0908 40.5001 64.0908C30.0819 64.0908 21.2637 57.0544 18.1183 47.5999H4.75464V57.9635C11.3365 71.0362 24.8637 79.9999 40.5001 79.9999Z" fill="#34A853"/>
    <path fill-rule="evenodd" clip-rule="evenodd" d="M18.1182 47.6003C17.3182 45.2003 16.8636 42.6366 16.8636 40.0003C16.8636 37.3639 17.3182 34.8003 18.1182 32.4003V22.0366H4.75455C2.04545 27.4366 0.5 33.5457 0.5 40.0003C0.5 46.4548 2.04545 52.5639 4.75455 57.9639L18.1182 47.6003Z" fill="#FBBC05"/>
    <path fill-rule="evenodd" clip-rule="evenodd" d="M40.5001 15.9091C46.3728 15.9091 51.6456 17.9273 55.791 21.8909L67.2637 10.4182C60.3365 3.96364 51.2819 0 40.5001 0C24.8637 0 11.3365 8.96364 4.75464 22.0364L18.1183 32.4C21.2637 22.9455 30.0819 15.9091 40.5001 15.9091Z" fill="#EA4335"/>
  </symbol>

  <symbol id="mailchimp" viewBox="0 0 81 80">
    <path fill-rule="evenodd" clip-rule="evenodd" d="M72.9705 56.4804L72.9636 56.5057C72.7308 57.3567 66.9769 78.4066 45.3676 78.4002C26.3881 78.3943 17.3921 61.7039 17.3921 61.7039C16.0089 61.782 14.6743 61.5599 13.4433 61.1023C7.87507 59.0327 5.20333 52.5876 7.12467 47.1804L4.06413 44.8143C-7.7908 35.6775 25.7921 -6.13193 37.6676 3.32868C37.7276 3.37642 40.5025 5.63615 40.5025 5.63615C44.7665 3.01642 48.9892 1.60023 52.422 1.6001C54.8596 1.59978 56.8983 2.3138 58.2713 3.81802C61.3537 7.19428 60.246 13.642 56.0369 20.17C56.9423 21.0393 57.6924 22.2212 58.2281 23.3943C59.566 24.4388 60.4335 26.0268 60.8644 28.2199C61.1308 29.5745 61.2801 31.2481 61.4116 32.7244C61.5169 33.9063 61.6108 34.9612 61.7447 35.625C62.0287 35.7546 62.2113 35.8367 62.3444 35.8967C62.4697 35.9529 62.5513 35.9897 62.6324 36.0279C62.7833 36.0985 62.9324 36.174 63.3593 36.3897C63.4329 36.4271 63.5148 36.4684 63.6065 36.5148C64.8681 37.153 66.4047 37.9297 68.1028 39.5828C71.1212 40.3479 72.2737 43.5946 70.5076 45.8103C70.4601 45.8698 70.2471 46.1255 70.026 46.3796C70.0343 46.4012 70.0545 46.4418 70.0849 46.5018C70.2524 46.8338 70.7217 47.7649 71.0756 49.4012C72.3263 49.6999 73.3225 50.4791 73.8455 51.609C74.7497 53.8201 72.9705 56.4804 72.9705 56.4804ZM64.2668 72.8916V73.8012H64.6111V72.8916H64.9633V72.6047H63.9193V72.8916H64.2668ZM65.0687 73.8012V72.6047H65.5593L65.7745 73.2932L65.9865 72.6047H66.4775V73.8012H66.1636V72.9348L65.9068 73.8012H65.6391L65.3825 72.9372V73.8012H65.0687Z" fill="#5B453E"/>
    <path fill-rule="evenodd" clip-rule="evenodd" d="M71.0413 55.1936C70.7688 56.2136 69.4333 61.2126 64.0877 65.4286C56.6629 71.2851 46.9074 70.6925 43.2232 67.4104C41.2549 65.5624 40.4029 62.9195 40.4029 62.9195C40.4029 62.9195 40.18 64.4088 40.1418 64.9939C38.6573 62.4592 38.7826 59.3635 38.7826 59.3635C38.7826 59.3635 37.9906 60.8459 37.6282 61.6763C36.5354 58.8845 37.1 56.0019 37.1 56.0019L36.2354 57.2955C36.2354 57.2955 35.8301 54.1357 36.8253 51.504C37.889 48.6917 39.9514 46.6488 40.3592 46.3941C38.7944 45.8947 36.9917 44.4637 36.9885 44.4611C36.9885 44.4611 37.7053 44.5085 38.2037 44.3939C38.2037 44.3939 35.04 42.1187 34.4853 38.6379C34.9434 39.2064 35.9053 39.8488 35.9053 39.8488C35.5938 38.9376 35.4056 36.9112 35.6965 34.9165L35.6976 34.9144C36.296 31.104 39.4245 28.6229 42.968 28.6541C43.6453 28.66 44.2821 28.6907 44.8901 28.7197C47.6688 28.8528 49.8365 28.9568 52.4314 26.5549C52.468 26.5211 52.504 26.4875 52.54 26.4544C53.1602 25.8781 53.6861 25.3893 54.5744 25.1917C54.592 25.1877 54.6141 25.1813 54.6416 25.1733C54.7685 25.1363 55.0085 25.0664 55.4234 25.0664C55.9336 25.0664 56.425 25.1816 56.8746 25.4504C58.5901 26.4752 58.9597 29.148 59.1442 31.108C59.5608 35.5512 59.62 36.7952 60.272 37.4331C60.6866 37.8389 61.3416 37.9992 62.481 38.5821C62.616 38.6509 62.7525 38.7195 62.8906 38.7888C64.1848 39.4379 65.6234 40.1595 67.2386 41.8955C67.2477 41.9053 67.2605 41.9109 67.2736 41.9112C68.7816 41.9475 69.5586 43.1392 68.8629 44.0067C63.8034 50.0717 56.7368 52.976 48.8613 53.2192C48.6093 53.2256 48.1138 53.2371 47.9013 53.2421C47.8394 53.2435 47.8016 53.2445 47.8005 53.2445C44.6197 53.3413 43.5842 57.4717 45.58 59.9557C46.8413 61.5256 49.2674 62.0416 51.2645 62.0494L51.2928 62.0392C59.9034 62.2144 68.5541 56.0984 70.048 52.7256C70.0589 52.7013 70.1501 52.4867 70.1501 52.4867C70.1501 52.4867 70.0706 52.5803 69.9746 52.6592C69.9701 52.6624 69.9472 52.6832 69.9069 52.72C69.0909 53.4683 61.0832 60.8109 51.2248 60.5336C51.2248 60.5336 50.1104 60.5104 49.0613 60.2651C47.6776 59.9422 46.6264 59.332 46.2242 57.9477C46.1045 57.6941 46.036 56.8171 46.1946 56.2264C46.6274 54.7728 47.3522 54.76 48.4736 54.7405C48.6413 54.7376 48.8178 54.7344 49.004 54.7264C54.1045 54.5557 58.2202 53.2685 61.3048 51.7984C64.5941 50.2309 67.1008 48.2115 68.004 47.192C69.1754 49.1717 69.1685 51.7141 69.1685 51.7141C69.1685 51.7141 69.628 51.5531 70.2362 51.5531C72.148 51.5531 72.5413 53.2693 71.0941 55.0117C71.0853 55.0291 71.0685 55.0915 71.0413 55.1936ZM23.517 45.8605C23.517 45.8605 23.2789 46.8496 22.8066 48.0544C22.3533 44.1979 20.7408 43.3819 20.7408 43.3821C19.8066 42.9475 18.7738 42.7064 17.6877 42.7064C13.4978 42.7064 10.1016 46.2955 10.1016 50.7229C10.1016 55.1504 13.4978 58.7395 17.6877 58.7395C22.4069 58.7395 25.9888 54.2293 25.1549 49.3024C25.1549 49.3024 24.6738 50.4299 24.2256 51.0283C24.3341 49.2645 24.0576 47.5197 23.517 45.8605Z" fill="#F2D8B4"/>
    <path d="M7.70256 44.2668C7.67242 44.2588 4.82069 42.2292 4.41509 41.5609C2.01589 37.634 6.19003 29.5684 9.16043 24.9838C16.501 13.6532 28.7196 4.71131 34.269 5.98838L39.9679 8.84145C37.7551 10.1038 35.6151 11.6542 34.333 12.6854L33.1204 13.6718C33.1204 13.6718 29.5791 15.9841 27.8178 17.442C20.7575 23.2849 13.8058 32.3305 11.2279 41.0617C11.2279 41.0614 9.10949 42.0814 7.70256 44.2668Z" fill="#207EAC"/>
    <path d="M35.7016 5.99819C30.0448 4.61286 17.5906 14.3139 10.108 26.607C10.1058 26.6105 10.1037 26.6142 10.1016 26.6177L10.1317 26.6209L16.0938 31.4665C22.6402 20.7395 30.868 15.2083 31.1 15.0459L30.1546 8.48032L31.9256 7.60513L35.4797 8.79312L35.2077 7.56753L35.7016 5.99819Z" fill="#4FB1D3"/>
    <path d="M44.2355 7.59207L37.7614 11.9291L37.3083 12.2667L31.5673 7.79927L31.4355 6.95447L33.4315 6.04433C33.5342 6.0758 37.2796 7.231 37.4377 7.2798L37.5046 4.911L37.6878 4.3734L39.4414 3.7334C39.4438 3.735 44.2289 7.58673 44.2355 7.59207Z" fill="#FACD55"/>
    <path d="M51.3541 3.7334C47.6968 3.7334 43.5906 5.76166 40.4408 7.7558C39.9989 8.02993 39.5605 8.31687 39.1312 8.60913L37.4829 7.1526L38.0816 9.34593C37.8552 9.50993 37.6344 9.6734 37.4181 9.8358L34.0125 8.73926L36.2658 10.7281C35.7514 11.1393 35.292 11.5241 34.9106 11.8574L29.5069 7.15286L29.793 9.2614L33.7205 12.9099C33.7205 12.9099 30.2448 15.3769 28.5165 16.9323C21.5872 23.1665 14.7645 32.8177 12.2344 42.1334L12.3781 42.0483C12.3976 42.0369 12.4173 42.0273 12.437 42.0161C12.5074 41.9761 12.5773 41.9379 12.6477 41.9006C12.693 41.8766 12.7378 41.8523 12.7832 41.8297C12.8554 41.7929 12.928 41.7587 13.0005 41.7251C13.0432 41.7051 13.0861 41.6843 13.1288 41.6657C13.2074 41.6307 13.2856 41.5993 13.3642 41.5681C13.4002 41.5537 13.4365 41.5377 13.4728 41.5241C13.5872 41.4809 13.701 41.4411 13.8144 41.4054C15.5346 40.8643 17.8749 40.5166 20.6144 41.743C21.9901 38.0843 23.6338 34.3619 26.224 30.7854C28.3242 27.8851 30.3432 25.2961 32.7661 23.8721C37.3541 19.3278 49.72 14.5091 53.6818 18.6859C54.6184 17.0702 55.4314 15.5409 56.1013 13.6235C57.7541 9.0126 57.7842 3.7334 51.3541 3.7334Z" fill="#131B23"/>
    <path d="M37.8345 8.00003L36.491 5.8667L35.7012 6.92937L36.174 7.76483L37.8345 8.00003Z" fill="#131B23"/>
    <path fill-rule="evenodd" clip-rule="evenodd" d="M50.258 3.7334C48.25 3.94407 46.1561 4.67473 44.2028 5.59953C37.6084 8.775 33.0057 13.4598 32.4537 14.0217C32.43 14.0457 32.4137 14.0622 32.4052 14.0707C31.8575 14.6102 31.3113 15.1691 30.7697 15.7443C29.1585 17.4547 27.5841 19.3075 26.1092 21.2126C23.5007 24.5809 22.4153 26.1526 20.7676 29.3542C20.7673 29.3547 20.7785 29.3409 20.8007 29.3137C21.3951 28.5827 29.8559 18.1811 32.0209 15.9761C36.1407 11.7801 42.8839 7.10673 42.954 7.06513C45.8335 5.25607 48.2636 4.1942 50.258 3.7334ZM66.5657 45.9697C67.7006 47.9318 67.6937 50.4515 67.6937 50.4515C67.7135 51.1747 67.6903 51.5734 67.6508 52.1329C65.3489 54.1283 58.486 59.4281 50.3089 59.1926C50.3089 59.1926 49.2292 59.1697 48.2127 58.9267C46.8796 58.6083 45.8649 58.0081 45.4703 56.6518L45.4641 56.6297L45.4633 56.6281C45.4572 56.6142 45.4063 56.4921 45.3737 56.2289L45.3724 56.2185L45.3713 56.2086C45.3639 56.143 45.3577 56.0731 45.3535 56.0003L45.3521 55.975L45.3516 55.9665C45.3457 55.8502 45.3444 55.7169 45.3492 55.5654C45.3513 55.5123 45.3545 55.4593 45.3588 55.4065L45.3593 55.4067L45.3599 55.3899C45.3737 55.2265 45.398 55.0665 45.4356 54.9238C45.8548 53.483 46.5572 53.4705 47.6433 53.451C47.806 53.4481 47.9772 53.4449 48.1572 53.4369H48.1575C53.0991 53.2681 57.0868 51.9921 60.0753 50.5353C63.262 48.9817 65.6905 46.9801 66.5657 45.9697Z" fill="#FFFFFE"/>
    <path fill-rule="evenodd" clip-rule="evenodd" d="M58.1166 33.304C58.4753 37.1253 58.5603 38.033 59.3176 38.5714C59.3387 38.5917 59.3598 38.6093 59.3814 38.6234C58.8729 38.7717 58.4177 38.9114 58.0139 39.0389C57.2705 38.0306 56.2377 37.088 54.115 37.2413C51.3019 37.4829 49.0662 39.9978 49.471 42.4952C48.1342 43.1696 46.8891 43.8688 45.7313 44.5808C43.8206 44.7856 41.4931 45.4453 39.4403 47.164C37.8931 46.6768 36.1104 45.28 36.1072 45.2773C36.1072 45.2773 36.8163 45.3237 37.3089 45.2117C37.3089 45.2117 37.2747 45.1874 37.2131 45.1402C37.2105 45.1368 37.2072 45.1333 37.2035 45.1306C37.1616 45.0976 37.1187 45.065 37.0752 45.032C36.3392 44.4402 34.0894 42.4258 33.632 39.5938C34.0851 40.1488 35.0363 40.7754 35.0363 40.7754C35.0248 40.7429 35.0136 40.7085 35.0027 40.673L35.0043 40.6666C35.0049 40.6634 35.0054 40.66 35.0054 40.6568C35.0054 40.6568 34.8731 40.2802 34.7806 39.5546C34.7552 39.3509 34.7342 39.1338 34.7184 38.9064C34.7086 38.753 34.7009 38.5904 34.6963 38.4178C34.8129 36.9861 35.1779 35.7832 36.0872 34.6453C37.4136 32.9864 39.2334 32.312 41.3328 32.3445C41.9107 32.3517 42.4947 32.4114 43.1035 32.4736C43.688 32.5333 44.2953 32.5954 44.9419 32.6157C46.7451 32.672 48.4819 32.3746 50.3097 31.5552C52.1155 30.7024 53.1366 29.7184 54.2051 28.1901C54.5816 27.7781 55.2459 27.1749 55.8334 27.2005C56.223 27.2005 56.4934 27.392 56.6856 27.5584C57.6158 28.8026 57.8731 30.7392 58.0169 32.245C58.0518 32.6149 58.0846 32.9624 58.115 33.2885L58.1161 33.2994L58.1166 33.304ZM52.6264 40.6754C53.0606 39.2896 55.0291 38.6229 56.2177 39.4605C55.6867 39.7664 55.523 40.6538 55.847 41.1685C55.1753 41.1562 54.4846 41.4192 53.999 41.8848C54.044 41.2253 53.3144 40.7098 52.6264 40.6754ZM59.8038 67.7333C60.8662 67.1794 61.907 66.5189 62.9054 65.7418C68.1907 61.6277 69.5118 56.749 69.7814 55.7528L69.7816 55.7525V55.7522L69.7819 55.7514C69.8089 55.6522 69.8251 55.5917 69.8339 55.5746C67.387 58.709 64.1862 61.2 60.7614 62.9242C57.9454 64.3432 55.8384 64.8365 55.8384 64.8365C55.8384 64.8365 57.3465 66.808 59.8038 67.7333ZM43.747 56.373C44.1214 54.9925 45.1787 53.8989 46.7995 53.8501L46.9006 53.8477H46.9075C47.1222 53.8426 47.6024 53.8314 47.8486 53.8253C55.6363 53.5882 62.6241 50.7536 67.6273 44.8341C68.3153 43.9874 67.5467 42.8242 66.0558 42.7888H66.0345C65.9057 42.924 65.8307 43.1162 65.7326 43.368C65.639 43.6088 65.5238 43.9042 65.32 44.2565C63.7982 46.876 61.6934 48.0738 58.8865 49.4634C54.3238 51.7141 50.9257 52.216 48.4731 52.5784C46.2998 52.8994 44.8688 53.1109 44.0275 54.332C43.507 55.0968 43.4971 55.9509 43.747 56.373ZM60.3334 55.3922C60.3118 55.3928 60.2896 55.3973 60.2542 55.4053C60.1432 55.4306 59.8971 55.5104 59.5406 55.6256C57.1723 56.3914 49.9379 58.7309 45.1331 57.2357C45.1083 57.5354 45.1163 58.1653 45.24 58.4389L45.2408 58.4405C46.0771 58.6066 47.1355 58.7128 48.3638 58.7128C55.6385 58.7128 60.8809 55.436 60.3334 55.3922ZM19.6417 54.7152L19.6352 54.7194C16.2168 54.969 13.056 50.641 14.9222 48.2544C15.1779 48.0637 15.3966 47.9541 15.483 47.9109C15.4982 47.9032 15.5091 47.8978 15.5158 47.8941C15.5656 47.868 15.6166 47.8466 15.6699 47.8245C15.7067 47.809 15.7443 47.7933 15.7832 47.7752C15.8206 47.7597 15.8635 47.7469 15.911 47.7336C16.0625 47.6912 16.0953 47.6792 16.1283 47.6698C16.1617 47.6602 16.1955 47.6533 16.3486 47.6213H16.3483C18.0086 47.2728 19.1798 48.0005 19.6896 48.7162C19.9246 49.0456 19.975 49.2933 20.0115 49.4728C20.0235 49.5312 20.0339 49.5824 20.0488 49.6269L20.0491 49.629C19.6515 49.0797 19.1382 48.9594 19.1382 48.9594C18.7054 48.7885 17.8739 49.0496 17.8195 49.9773C17.7945 50.3341 17.9019 50.7338 18.2099 51.0853L18.2123 51.088C18.2232 51.1005 18.2344 51.113 18.2459 51.1253C18.2566 51.1368 18.2675 51.1482 18.2782 51.1594C18.531 51.4186 18.831 51.6074 19.1176 51.7874C19.6096 52.0968 20.0619 52.381 20.1651 52.9538C20.2704 53.5842 20.0846 54.2434 19.6417 54.7152Z" fill="#E2B986"/>
    <path fill-rule="evenodd" clip-rule="evenodd" d="M53.4621 18.2628C50.7112 16.1119 42.6816 16.721 34.6426 22.0194C30.9621 24.445 28.2629 27.0986 26.1826 29.8551C26.1826 29.8551 29.3941 23.6474 36.4506 19.5412C35.9586 19.4607 34.8018 19.6015 34.4701 19.6418C34.4474 19.6447 34.4285 19.6468 34.4141 19.6487C35.696 18.5274 38.0776 17.7788 39.7232 17.4386C39.2416 17.1271 38.0944 17.0484 37.525 17.033C37.3698 17.0287 37.3594 17.0292 37.2024 17.0359C37.1893 17.0364 37.1749 17.0372 37.1594 17.0378C38.7074 16.1578 41.5773 15.6412 44.1864 16.1079C43.8584 15.6652 43.1149 15.3423 42.5936 15.1852C42.548 15.1714 42.3434 15.1196 42.3434 15.1196C42.3434 15.1196 42.5178 15.0778 42.54 15.0735C44.1117 14.7658 45.9474 15.098 47.4 15.6911C47.2349 15.3018 46.8317 14.8484 46.5288 14.5615C46.4978 14.5322 46.317 14.3999 46.317 14.3999C47.8365 14.7202 49.2925 15.394 50.3882 16.1594C50.2392 15.8668 49.8706 15.3743 49.616 15.1052C51.068 15.5276 52.6978 16.5804 53.3962 18.0898C53.4125 18.1218 53.4525 18.2338 53.4613 18.2583L53.4626 18.262L53.4621 18.2628ZM47.0181 38.4079C47.1749 38.641 47.2168 38.817 47.1536 38.8903C47.04 39.0255 46.6629 38.8746 46.1026 38.6506L45.9096 38.5738C44.204 37.9268 42.9474 37.8282 40.7232 38.6842L40.5456 38.7535C40.0765 38.9367 39.741 39.0679 39.5706 39.042C39.2586 38.9948 39.5608 38.4143 40.2424 37.8508C41.6141 36.7383 43.4981 36.3927 45.108 37.002C45.8125 37.2658 46.604 37.7922 47.0181 38.4079ZM46.6802 40.182C46.2125 39.8188 45.3517 39.5751 44.4576 39.7298C44.3181 39.7514 44.1864 39.7895 44.0578 39.8268C44.0136 39.8399 43.9698 39.8524 43.9261 39.8644C43.8637 39.8802 43.804 39.9026 43.7456 39.9274C43.376 40.0858 43.0562 40.2564 42.7456 40.5591C42.3893 40.909 42.2882 41.234 42.3912 41.314C42.4794 41.3858 42.6778 41.3026 42.9794 41.1764L43.12 41.118C44.3965 40.5783 45.3 40.5639 46.1605 40.625L46.2218 40.6292C46.6029 40.6556 46.8565 40.673 46.9178 40.5639C46.9632 40.4858 46.8808 40.3375 46.6802 40.182ZM19.1914 46.8396L19.1912 46.8391C18.4936 46.2671 17.505 45.9964 16.356 46.2439H16.3562L16.3352 46.2484C16.2008 46.2775 16.1688 46.2844 16.1373 46.2935L16.1048 46.3036H16.1045C16.0741 46.3132 16.0266 46.3284 15.9208 46.3588C15.8733 46.3722 15.8306 46.3855 15.7936 46.4012C15.7549 46.4196 15.7176 46.4356 15.6813 46.4511C15.6282 46.474 15.577 46.4959 15.5272 46.5228L15.4949 46.5399C15.348 46.6154 14.8125 46.89 14.3696 47.4415C14.1325 47.7402 13.9506 48.0724 13.8178 48.414C13.5778 49.0452 13.4882 49.7372 13.5138 50.4018C13.549 51.3092 13.7866 51.854 13.8754 52.0578C13.8861 52.082 13.8944 52.1015 13.9002 52.1162C14.1272 52.6119 13.5957 52.7138 13.1109 52.181L13.1098 52.1799C12.7218 51.7623 12.4736 51.1266 12.352 50.562V50.5615C12.2802 50.226 12.2344 49.8495 12.2344 49.4442C12.2344 48.974 12.2962 48.4655 12.4517 47.9383L12.452 47.9378V47.9372C12.8725 46.553 13.8173 45.5074 15.2533 44.938C15.3445 44.9018 15.4458 44.8748 15.541 44.8495H15.5413L15.5416 44.8492C15.5842 44.838 15.6258 44.8268 15.6645 44.8154L15.6632 44.8159C15.905 44.7423 16.7712 44.5642 17.6517 44.7034C18.161 44.7836 18.6245 44.9551 19.024 45.1815C19.4226 45.4071 19.7578 45.6874 20.0125 45.9882L20.0136 45.9895C20.4296 46.4706 20.7437 47.1495 20.6877 47.7538V47.7551C20.6666 48.0063 20.5573 48.3663 20.3349 48.4599C20.252 48.4943 20.169 48.4759 20.1109 48.418C20.0458 48.353 20.0274 48.2604 20.0026 48.1359C19.9661 47.9524 19.916 47.6994 19.6818 47.3628C19.5621 47.19 19.4016 47.0092 19.192 46.8399L19.1914 46.8396ZM18.9461 49.0951C18.7874 48.9671 18.7138 48.858 18.6698 48.6903C18.605 48.3844 18.6389 48.2066 18.896 48.0228C18.9517 47.9842 19.0045 47.9508 19.0514 47.9215C19.1712 47.846 19.2536 47.7943 19.2538 47.7319C19.2629 47.5679 18.6005 47.3991 18.1373 47.8628C17.753 48.2794 17.6317 49.1476 18.245 49.8244C18.5032 50.1076 18.8157 50.3092 19.1133 50.5012C19.6029 50.8167 20.0525 51.1066 20.1554 51.6927C20.177 51.826 20.1933 51.9748 20.1818 52.1215C20.184 52.2722 20.14 52.4818 20.1285 52.5356L20.1261 52.5476C19.9208 53.4578 19.0714 54.326 17.6709 54.105L17.6101 54.0956C17.3866 54.062 17.2416 54.0402 17.196 54.1068C17.088 54.2596 17.688 54.958 18.7869 54.9327C19.8618 54.9095 20.9282 54.0911 21.2701 52.8607L21.2725 52.8519C21.2885 52.7935 21.3757 52.473 21.3832 52.1836C21.4026 51.9522 21.3861 51.714 21.3437 51.465C21.1346 50.2852 20.2205 49.8055 19.5322 49.4442C19.2989 49.3218 19.0914 49.213 18.9461 49.0951ZM55.4784 38.7682C55.5693 38.1759 55.9872 37.7503 56.4122 37.8175C56.8368 37.8852 57.1077 38.4199 57.0168 39.0124C56.9258 39.6047 56.5077 40.0303 56.0829 39.9631C55.6581 39.8954 55.3874 39.3607 55.4784 38.7682ZM51.7445 39.5458C51.5109 39.9788 51.7952 40.5943 52.3797 40.9196C52.964 41.2455 53.6269 41.1583 53.8605 40.7247C54.0938 40.2916 53.8096 39.6762 53.225 39.3506C52.6408 39.0252 51.9778 39.1124 51.7445 39.5458Z" fill="#916D53"/>
    <path d="M52.7682 35.3664C52.7597 34.7797 52.8282 33.8104 53.2365 33.6298C53.237 33.6298 53.2368 33.6298 53.2373 33.6296C53.9349 33.3021 54.8587 35.7197 54.9011 37.8664C54.3499 37.4928 53.7021 37.3344 53.036 37.4125C52.8685 36.7213 52.7882 36.0704 52.7682 35.3664Z" fill="#5B453E"/>
  </symbol>

  <symbol id="google-analytics" viewBox="0 0 80 80">
    <path d="M49.2684 28.75H30.5693C29.5371 28.75 28.6995 29.59 28.6995 30.6254V68.1249C28.6995 69.1595 29.5371 70 30.5693 70H49.2685C50.3005 70 51.1381 69.1595 51.1381 68.1249V30.6254C51.1381 29.59 50.3005 28.75 49.2684 28.75Z" fill="#FFC107"/>
    <path d="M30.5693 47.5H11.8703C10.8376 47.5 10 48.3399 10 49.375V68.1247C10 69.1593 10.8376 69.9998 11.8703 69.9998H30.5693C31.6018 69.9998 32.4394 69.1593 32.4394 68.1247V49.375C32.4394 48.3399 31.6018 47.5 30.5693 47.5Z" fill="#FFC107"/>
    <path d="M67.9675 10H49.2685C48.2358 10 47.3982 10.8399 47.3982 11.8756V68.1246C47.3982 69.1592 48.2358 69.9997 49.2685 69.9997H67.9675C69 69.9997 69.8376 69.1592 69.8376 68.1246V11.8756C69.8377 10.8399 69.0001 10 67.9675 10Z" fill="#FFA000"/>
  </symbol>

  <symbol id="hotjar" viewBox="0 0 81 80">
    <path d="M71.4167 26.0484C59.3684 4.67742 24.0296 0 24.0296 0C24.0296 0 40.3361 17.8064 19.4974 31.8871C6.31997 40.7742 1.1103 52.3226 6.75546 64.9355C11.078 74.5968 20.2232 78.5323 30.078 80C25.3684 71.1129 29.0135 60.2581 29.4167 59.0968C38.6264 73.0323 56.0296 59.0968 47.2877 43.9516C58.7393 46.4355 60.449 66.3064 51.6587 78.7097C64.6426 74.629 73.2877 64.371 75.6587 55.2258C78.1587 45.6613 76.2555 34.5968 71.4167 26.0484Z" fill="#FD385C"/>
  </symbol>

  <symbol id="slack" viewBox="0 0 80 80">
    <path d="M21.4463 48.4429C21.4463 52.1432 18.4235 55.166 14.7231 55.166C11.0228 55.166 8 52.1432 8 48.4429C8 44.7425 11.0228 41.7197 14.7231 41.7197H21.4463V48.4429Z" fill="#E01E5A"/>
    <path d="M24.834 48.4429C24.834 44.7425 27.8568 41.7197 31.5571 41.7197C35.2574 41.7197 38.2802 44.7425 38.2802 48.4429V65.2767C38.2802 68.9771 35.2574 71.9999 31.5571 71.9999C27.8568 71.9999 24.834 68.9771 24.834 65.2767V48.4429Z" fill="#E01E5A"/>
    <path d="M31.5571 21.4463C27.8568 21.4463 24.834 18.4235 24.834 14.7231C24.834 11.0228 27.8568 8 31.5571 8C35.2574 8 38.2802 11.0228 38.2802 14.7231V21.4463H31.5571Z" fill="#36C5F0"/>
    <path d="M31.557 24.834C35.2573 24.834 38.2801 27.8568 38.2801 31.5571C38.2801 35.2574 35.2573 38.2802 31.557 38.2802H14.7231C11.0228 38.2802 8 35.2574 8 31.5571C8 27.8568 11.0228 24.834 14.7231 24.834H31.557Z" fill="#36C5F0"/>
    <path d="M58.5537 31.5571C58.5537 27.8568 61.5765 24.834 65.2768 24.834C68.9772 24.834 72 27.8568 72 31.5571C72 35.2574 68.9772 38.2802 65.2768 38.2802H58.5537V31.5571Z" fill="#2EB67D"/>
    <path d="M55.166 31.557C55.166 35.2573 52.1432 38.2801 48.4429 38.2801C44.7425 38.2801 41.7197 35.2573 41.7197 31.557V14.7231C41.7197 11.0228 44.7425 8 48.4429 8C52.1432 8 55.166 11.0228 55.166 14.7231V31.557Z" fill="#2EB67D"/>
    <path d="M48.4429 58.5535C52.1432 58.5535 55.166 61.5763 55.166 65.2766C55.166 68.9769 52.1432 71.9997 48.4429 71.9997C44.7425 71.9997 41.7197 68.9769 41.7197 65.2766V58.5535H48.4429Z" fill="#ECB22E"/>
    <path d="M48.4429 55.166C44.7425 55.166 41.7197 52.1432 41.7197 48.4429C41.7197 44.7425 44.7425 41.7197 48.4429 41.7197H65.2767C68.9771 41.7197 71.9999 44.7425 71.9999 48.4429C71.9999 52.1432 68.9771 55.166 65.2767 55.166H48.4429Z" fill="#ECB22E"/>
  </symbol>

  <symbol id="twitter" viewBox="0 0 80 80">
    <path d="M27.2736 68C53.2808 68 67.5056 46.4533 67.5056 27.768C67.5056 27.156 67.5056 26.5468 67.4643 25.9403C70.2316 23.9387 72.6203 21.4603 74.5188 18.6212C71.9381 19.7647 69.2005 20.5146 66.3974 20.8458C69.3492 19.0787 71.5584 16.2993 72.6139 13.025C69.8382 14.672 66.8017 15.8327 63.6351 16.4571C61.5032 14.1902 58.6836 12.6891 55.6126 12.1861C52.5417 11.6831 49.3905 12.2063 46.6468 13.6747C43.9031 15.143 41.7199 17.4747 40.4349 20.3089C39.1499 23.1431 38.8348 26.3219 39.5384 29.3532C33.9167 29.0713 28.4171 27.6104 23.3967 25.0653C18.3762 22.5202 13.9471 18.9477 10.3968 14.5798C8.58866 17.6926 8.03486 21.3775 8.84818 24.8843C9.66149 28.3911 11.7808 31.4561 14.7746 33.4552C12.5243 33.3885 10.3232 32.7815 8.35684 31.6854C8.35684 31.7433 8.35684 31.8039 8.35684 31.8646C8.35774 35.1292 9.48783 38.2929 11.5554 40.8193C13.6231 43.3457 16.5009 45.0791 19.7009 45.7255C17.6192 46.2932 15.435 46.3762 13.3162 45.9681C14.2198 48.7777 15.9789 51.2346 18.3475 52.9952C20.7161 54.7559 23.5758 55.7322 26.5266 55.7876C21.5196 59.7227 15.3343 61.8589 8.96609 61.8525C7.84107 61.8503 6.71714 61.7822 5.6001 61.6485C12.0664 65.7981 19.5903 67.9992 27.2736 67.989" fill="#1DA1F2"/>
  </symbol>

  <symbol id="instagram" viewBox="0 0 80 80">
    <path fill="url(#gradient)" d="M12.174 12.443C7.16 17.651 8.186 23.183 8.186 39.99c0 13.958-2.435 27.95 10.31 31.243 3.98 1.023 39.242 1.023 43.216-.005 5.306-1.37 9.624-5.673 10.214-13.178.082-1.048.082-35.052-.003-36.121-.627-7.994-5.548-12.601-12.032-13.535-1.486-.215-1.784-.279-9.408-.292-27.045.013-32.974-1.191-38.31 4.341z"/>
    <path fill="#fff" d="M40.083 16.447c-9.653 0-18.82-.859-22.321 8.127-1.446 3.711-1.236 8.531-1.236 15.433 0 6.056-.194 11.747 1.236 15.43 3.493 8.99 12.734 8.129 22.315 8.129 9.244 0 18.775.962 22.318-8.13 1.45-3.748 1.236-8.496 1.236-15.43 0-9.203.508-15.145-3.955-19.606-4.52-4.52-10.632-3.953-19.604-3.953h.01zm-2.111 4.246c20.135-.032 22.698-2.27 21.284 28.826-.503 10.998-8.877 9.79-19.17 9.79-18.77 0-19.31-.536-19.31-19.313 0-18.995 1.49-19.293 17.196-19.309v.006zm14.685 3.91a2.826 2.826 0 100 5.653 2.826 2.826 0 000-5.653zm-12.574 3.305c-6.681 0-12.096 5.418-12.096 12.099 0 6.68 5.415 12.096 12.096 12.096 6.68 0 12.093-5.416 12.093-12.096 0-6.681-5.413-12.1-12.093-12.1zm0 4.245c10.381 0 10.394 15.707 0 15.707-10.38 0-10.395-15.707 0-15.707z"/>
    <defs>
      <linearGradient id="gradient" x1="12.296" x2="71.595" y1="67.83" y2="16.508" gradientUnits="userSpaceOnUse">
        <stop stop-color="#FD5"/>
        <stop offset=".5" stop-color="#FF543E"/>
        <stop offset="1" stop-color="#C837AB"/>
      </linearGradient>
    </defs>
  </symbol>

  <symbol id="arrow" viewBox="0 0 11 19">
    <path fill-rule="evenodd" clip-rule="evenodd" d="M0.43934 0.93934C1.02513 0.353553 1.97487 0.353553 2.56066 0.93934L10.0607 8.43934C10.6464 9.02513 10.6464 9.97487 10.0607 10.5607L2.56066 18.0607C1.97487 18.6464 1.02513 18.6464 0.43934 18.0607C-0.146447 17.4749 -0.146447 16.5251 0.43934 15.9393L6.87868 9.5L0.43934 3.06066C-0.146447 2.47487 -0.146447 1.52513 0.43934 0.93934Z" />
  </symbol>

  <symbol id="highlight" viewBox="0 0 129 20">
    <g clip-path="url(#clip0)">
      <path d="M11.3332 12.4119C9.35437 12.0965 7.37556 11.7811 5.39676 11.5028C2.06877 11.0018 -0.0899241 8.58996 2.15194e-05 5.43597C0.0899671 2.52317 2.41056 -0.018574 5.23486 -2.11351e-05C7.1417 0.0185317 9.03056 0.389589 10.9374 0.593671C11.4411 0.64933 11.9448 0.704988 12.4485 0.723541C33.6936 1.03894 54.9388 1.35434 76.184 1.66974C88.2906 1.85527 100.397 2.02224 112.504 2.20777C114.159 2.22632 115.796 2.24488 117.451 2.35619C121.517 2.65304 123.819 6.32651 122.488 10.2783C122.452 10.3896 122.416 10.5009 122.326 10.7235C123.369 10.9091 124.413 11.0204 125.402 11.3172C126.338 11.5955 127.237 12.0222 128.083 12.5232C128.73 12.8942 129.126 13.5807 128.946 14.4156C128.784 15.1948 128.209 15.6957 127.489 15.7514C126.068 15.8812 124.629 16.0297 123.226 15.8627C118.297 15.3061 113.367 15.102 108.438 15.7328C104.553 16.2337 100.667 16.679 96.7995 17.2727C93.9392 17.718 91.1329 18.5714 88.2547 18.8868C84.441 19.3135 80.6093 19.5176 76.7776 19.5733C59.508 19.7773 42.2565 19.9072 24.9869 20.0185C19.932 20.0556 14.859 19.9072 9.80409 19.833C7.98719 19.8145 6.1523 19.7217 4.3354 19.6846C2.89627 19.666 1.79893 18.8868 1.47513 17.6067C1.16931 16.3636 1.691 14.9165 2.98622 14.3785C4.6592 13.692 6.44013 13.2467 8.20306 12.82C9.21045 12.5788 10.2898 12.6159 11.3332 12.5417C11.3512 12.4861 11.3512 12.449 11.3332 12.4119Z" fill="#FAF1D5"/>
    </g>
    <defs>
      <clipPath id="clip0">
        <rect width="129" height="20" fill="white"/>
      </clipPath>
    </defs>
  </symbol>

</svg>