<svg width="1226" height="1108" fill="none" xmlns="http://www.w3.org/2000/svg">
	<g clip-path="url(#clip0)">
		<path d="M.1 258.2c-.4-7.6 2.1-13.5 7-18.6 1.5-1.6 2.5-3.5 3.5-5.4 5.6-10.6 16.2-16 28.1-14.2 3.3.5 6.4-.4 9.3-1.1 9.6-2.4 19.3-3 29-3.6 8.7-.6 16.5-3.6 24.5-6.3 11.6-3.9 23.9-3.4 35.5-7 14.7-4.6 29.8-8.1 45.1-9.7 24.2-2.6 48-7.6 72-11.3 30.7-4.7 61.4-9.4 91.9-15.6 27.4-5.6 55.1-9.6 82.4-15.5 18.5-4 36.6-9.3 55.1-13.1 35-7.1 69.7-16.2 104.9-22.4 27.5-4.9 55.2-8.4 82.7-13.5 24.1-4.5 48.1-9.4 71.6-16.6 15.1-4.6 30.7-6.7 46.1-9.7 19.2-3.8 37.8-10.2 56.8-14.5 25.5-5.8 51.1-11 76.8-16 32.3-6.3 64.9-11.1 97-18.6 7.4-1.7 15-2.4 22.6-3.4 2.2-.3 4.2-.7 6.2-1.6 15.7-7.4 32.9.4 37.5 17.2.5 1.9.7 4 2.7 5 9.6 4.7 12.8 13.6 15.6 23.1 7.2 23.8 10.7 48.6 18 72.3 6.4 21.1 11.2 42.6 14.5 64.4 1.9 12.6 3.4 25.2 4.6 37.9 1 11.5 2.9 23 4.4 34.4 1.5 11.5 3 23 4.6 34.4 2.4 17 3.7 34.2 6.5 51.2 2.4 14.8 4.8 29.7 6.6 44.6 2.5 20.6 3.8 41.2 5.6 61.8 1.8 20.8 4.6 41.4 7.3 62.1 2.1 16.1 5 32 6.7 48.1 1.7 15.8 3 31.6 6.1 47.2 3 14.6 7.6 28.8 11 43.4 4.9 21.1 8.6 42.5 12.1 63.8 1.4 8.6 3.3 17.2 5 25.8.6 2.9 2.6 5 4 7.4 9.5 16.8 4.3 36.4-12.4 46-4.4 2.5-9.4 3.7-14.4 3.1-11.4-1.4-22.3 1.6-33.4 2.8-19.4 2-38.1 9.1-57.6 10.1-31.6 1.6-61.6 10.6-92.1 17.4-13.7 3.1-27.7 4.9-41.7 6-10.9.9-21.7 2.4-32.5 4-11.9 1.8-24 2.4-35.9 4.8-13.5 2.7-27 5.2-40.5 7.3-10 1.6-20 2.8-30 3.7-14.7 1.3-29.2 3.5-43.8 5.4-10 1.2-20 3-30 3.6-23.6 1.3-46.6 5.5-69.5 11.1-18.8 4.6-38 7.4-57.1 10.2-17.7 2.6-35.2 6.2-52.8 9.3-22.1 3.9-44.3 7.9-66.5 11.5-28.2 4.6-56.4 9.4-84.4 15.4-17.5 3.7-34.3 10.2-52 13.2-10 1.7-20 2.8-30.1 3.4-12.5.8-24.7 2.5-36.7 5.9-9.3 2.6-18.8 4.1-28.4 4.2-15.1.2-30.1.6-45.2 2.7-10.9 1.5-22.2.7-33.3-.2-8.5-.7-17.1-1-25.8 1-15.7 3.6-29.2-4.4-33.8-21-4.9-17.9-6.9-36.4-9.7-54.7-4.3-27.6-9.2-55.1-14.6-82.5-5-25-8.9-50.1-13.8-75.1-4.1-21-8.8-41.8-13.2-62.7-5.3-24.8-13.1-49-18.9-73.7-3.8-16.1-6-32.5-8.6-48.8-2.2-14.1-6.7-27.7-9-41.7C47.8 472.8 39 440 32 406.8c-3.9-18.5-8.7-36.7-12.9-55.1-5.4-23.7-9.9-47.6-14-71.6-.5-2.9-1.3-5.9-2.4-8.6-2-4.6-3-9-2.6-13.3zm1111.3 513.5c2.5-.5 4.7-.8 6.9-1.4 12.9-3 25.9-5.6 39-7.3 6.1-.8 6-.6 4.9-6.8-1.8-9.6-3.7-19.2-5.2-28.8-3.1-19.8-6.6-39.5-12.1-58.8-5.6-20-10.3-40.1-12.9-60.7-2-16.1-2.9-32.3-5.3-48.3-3.9-26.2-7.9-52.3-10.7-78.6-2.1-19.9-3.6-39.9-5-59.9-1-13.9-3.1-27.7-5.5-41.3-3.7-21-5.7-42.3-8.6-63.4-2.2-16.4-4.1-32.8-6.2-49.2-1.9-15.4-4-30.8-5.8-46.3-1.9-16.8-5-33.4-9.2-49.7-3.1-12.2-6.8-24.3-9.9-36.5-4.6-18.3-7.9-36.9-13.5-55-1.2-4-2.8-4.8-7.1-4.2-14.6 2-29 5.1-43.4 8.4-7.8 1.8-8.3 2.1-5.9 9.7 2.5 8.1 2.5 15.9-2 23.5-5.1 8.6-13.1 13.5-22.1 17-8.7 3.4-18.2 3.7-27 6.3-16.6 4.9-29.9-3.3-38.4-15-4.2-5.8-5-12.6-6.4-19.2-.5-2.1-.6-3.2-3.3-2.6-11.3 2.5-22.8 4.3-34 7.2-27.6 7-54.9 15.4-83.1 19.9-22 3.5-42.8 11.8-64.6 15.9-22.1 4.2-44.2 8.2-66.3 12.6-16.1 3.2-32.5 3.9-48.6 7.2-35 7.1-69.8 15.3-104.8 22.7-27.2 5.7-54 13.5-81.4 18.3-22.8 4-45.5 8.5-68.3 12.7-16.9 3.1-33.8 6.2-50.8 9-14.7 2.4-29.5 4.1-44.1 6.8-21.6 4-43.4 7.2-65.2 10.2-6 .8-6 .6-4.8 6.8 2.1 11-5.7 23.2-16.6 26.2-8.4 2.3-16.7 4.6-24.4 9.4-9.5 5.9-20.5 6.5-31.2 4.1-10.4-2.3-16.9-9.3-19.6-19.8-.5-1.9-.3-5.1-3.3-4.6-8 1.3-16.2.8-24.2 2.5-3.5.7-3.8 2.6-3.2 5.3 5.4 26.8 9.9 53.7 16.8 80.1 7.9 30.1 13.4 60.8 20.9 91 4.9 19.9 7.8 40.3 12.4 60.3 2.9 12.8 5.8 25.5 7.8 38.4 2.9 18.5 5.6 37 10.9 55 10.6 36.1 18.6 72.9 26.1 109.7 5.6 28 9.4 56.5 15.5 84.4 8.1 37 13.2 74.6 19.6 111.9.4 2 .7 4 3.4 4.2 11.6.8 23.1 2.4 34.8 2 7.9-.3 8.2-.8 6.3-8.2-.4-1.4-.8-2.9-1.1-4.3-2.2-11.3-2.2-22.8 8-29.9 11.9-8.2 24.2-16.7 39.8-16.6 1.9 0 3.5-.9 5.1-1.7 14.8-7 31 .6 34.6 16.6 1.7 7.6 2.9 15.3 4.1 22.9 1.3 8.7 1.2 8.7 10 8.2 1-.1 2 .1 3 0 8.7-1.1 17.5-1.1 26.2-2.5 17.7-3 34.5-9.5 52-13.1 25.9-5.4 51.9-10.3 78.1-14.4 20.6-3.3 41.1-6.9 61.6-10.4 21.5-3.7 42.9-8 64.5-11.4 24.2-3.9 48.3-7.9 72.1-13.7 19-4.6 38.3-7.3 57.9-8.5 10.2-.6 20.5-1.6 30.6-3.2 13.9-2.2 27.8-4.4 41.8-5.6 17.7-1.4 35.2-3.7 52.5-7.5 22-4.8 44.5-6.5 66.7-9.7 12.8-1.8 25.7-2.7 38.5-4.2 14.3-1.6 28.3-5.1 42.3-8.7 5.7-1.5 5.7-1.4 1.8-5.9-.6-.7-1.2-1.6-1.7-2.4-9.3-15.9-13-33-9.7-51.2 1-5.7 3.2-11.1 7.3-15.6 9.1-10 20.8-10.9 33-9.4 3.9.5 7.6.7 11.2-.9 4.4-2 9-3.2 13.8-4.2 15.5-3.2 29.1 5.1 32.4 19.9 1.1 4.9 1.2 9.9 1.3 14.9-.2 12.9 4.3 25.8 1 39.4z" fill="#CEEBEF" />
		<path d="M866.899 291.3c-1.7 16.8 5.6 32.2 8.1 48.3 3 19.4 7.8 38.5 10.2 58.1 1.9 15.1 5.3 30 8.7 44.8 3.6 15.6 5.8 31.6 10 47.1 5.2 19.2 10.6 38.3 14.3 57.9.7 3.4 1.9 6.9 1.6 10.3-.9 10.7 3.2 20.6 4.6 30.9.8 5.9 1.2 12 1.2 17.8.2 15.6 1 31.2 1.4 46.9.3 12.2 1.9 24.2 6.2 36 5.8 15.9-1.6 44.9-25.5 48.4-1 .1-2 .6-2.9.4-14.4-3.1-28.6 1.2-42.9 1.4-14.4.2-28.9.6-43.4.6-10.6 0-21.1-2.8-31.7-1.9-9 .8-18.1.8-26.2 6.1-5.5 3.6-12.2 4.1-18.3 2.4-11.5-3.2-22.1-.9-32.4 3.7-12 5.3-23.8 11-37.1 12.4-8.1.8-16.2 1.1-24.1 3.1-11.8 2.9-22.8 8.1-34.2 12.4-15.9 6-32.7 8.2-49.4 11-10.2 1.7-19.8 5.3-29.7 8-17.9 4.9-36.1 6.3-54.7 6.3-9.5 0-19.3-.4-28.6 2.8-7.8 2.7-15.8 5.1-24.1 6.1-12.9 1.5-25.9 1.7-38.7-.6-5-.9-10 .1-14.9-.9-14.2-2.7-23.6-11.6-25.8-25.2-3.2-19.9-9.8-38.9-13.2-58.5-5.1-29.4-13.4-58-19.5-87.2-2.7-12.8-7.5-25.1-9.3-38.1-1.9-13.6-3.7-27.2-5.8-40.7-1.9-12.4-4-24.8-6-37.2-3.9-24.2-8.8-48.2-14-72.1-6.5-30-14.7-59.5-23.9-88.8-5.9-20.1 8.1-40.3 29.9-41.3 13-.6 26.1-1.6 38.7-5.6 12-3.8 24.8-4.3 36.8-8.3 15.9-5.3 32.3-9 47.3-16.7 8.8-4.5 18.5-7 28.3-7 11.2 0 21.6-3.4 32.3-5.6 30.8-6.2 61.6-12.6 92-20.8 27.5-7.4 54.9-15.7 82.6-22.1 22.5-5.2 44.1-13.3 66.9-17.2 7.7-1.3 15.4-2.2 23.1-2.8 13.7-1.1 27.3-2.8 41-4.3 6.4-.7 12.8-2.1 19.2-2.4 4.3-.2 8.1-1.8 12.1-2.7 12.1-2.5 23.6-2.7 34.3 5 6.2 4.5 10 10.6 11.4 17.6 1.8 9 5.1 17.5 7.9 26.1 3.7 11.8 8.1 23.4 6.2 36.1zm-367.9 70.8c.3-.2.7-.3.8-.5 5.5-8.6 8.6-18.3 13.5-27.2.4-.8.7-1.7-.4-2-1.1-.4-2.1.2-2.5 1.2-1.2 2.7-2.3 5.5-3.3 8.3-2.3 6.8-6.5 13-8.1 20.2-.4.4-1.3.6-.3 1.3.1-.5.2-.9.3-1.3zm-33.1 221.4c-1.8 0-1.7 1-2 1.7-13.2 32.9-28.8 64.9-35.1 100.3-2.7 15-14.6 24.4-28.1 24.5-5.8 0-7 1.1-5.5 6.7 3 10.8 6.4 21.6 8.7 32.7.3 1.4.7 2.6 2.4 2.6 5.6-.2 11.4 1 16.9-.6 12.9-3.8 25.6-8.2 39.2-8.3 1.9 0 2.8-1 3.2-2.6 1.4-4.6 2.7-9.2 4-13.9.6-2.1.6-3.2-2.5-2.9-5.9.6-11.9 1.1-17.7-1.4-16-6.9-21.5-21.1-17.7-37.4 6.1-26.4 16.1-51.6 25.3-77.1 3-8 5.9-16 8.9-24.3zm-124.9-142.3h1.1l26.4-68.1c1.3-3.4-1-3.3-3.1-2.9-12.2 2-24.3 4.8-36.3 8-2.7.7-3 2.1-2.3 4.8 2.7 9.7 5.1 19.5 7.5 29.3 2.3 9.6 4.4 19.3 6.7 28.9zm481.8 45.5c5.5-.7 10.4-1.2 15.3.1 2.2.6 3.2-.6 2.7-2.8-1.7-7.4-3.4-14.9-5.4-23.4-4.5 9.3-8.4 17.4-12.6 26.1zM599.999 679c-.2-.1-.4-.1-.6-.2-.3.5-.8 1-1 1.6-3.5 11.1-7 22.1-10.3 33.2-.9 2.9-3.6 6.7-1.1 8.7 2.1 1.6 5.8-1.3 8.7-2.2.5-.2.9-.5 1.3-.7 1.5-.7 1.8-1.6 1.1-3.1-3-7.2-2.8-14.5-1.2-22 1.1-5.1 2.1-10.2 3.1-15.3zm161.5-404.5c-3.6.3-6 .3-8.2.8-1.5.3-3.6.6-2.7 3.1 1.5 4.4 1.4 9 1.9 13.7 2.5-5.9 4.8-11.7 9-17.6zm-327.8 85.9c2.3-5.5 4.2-10.1 6.2-15-10 2-10 2-7.4 10.7.4 1.1.7 2.2 1.2 4.3zm-55.5 275c2-1.5 2.1-3.8 2.6-5.7.7-2.7-1.7-3-3.3-3.2-2.1-.2-1.7 1.9-1.3 2.9.7 2 .3 4.3 2 6zM1055.4 633.1c-5.2-.7-10.7.6-16 4.1-4.6 3.1-9.8 3.8-15.3 2.1-4.6-1.4-9.6-.6-14.2-2.2-10.7-3.8-15.601-12.8-18.801-22.5-3.2-9.7-5.699-19.6-10.199-29-7.5-15.4.3-36.8 15.1-43.5 6.2-2.8 12.7-3.1 18.8-.3 3.6 1.6 6.6 1.4 9.9-.5 6.1-3.6 12.9-5.3 19.6-7.1 12.5-3.4 24 3 28.6 15.2 2.8 7.3 3.2 14.9 3.7 22.4.8 11.2 3.3 21.9 5.4 32.8 3 16.3-7.1 28.6-23.6 28.6-.6-.1-1.3-.1-3-.1zM953.9 412.5c3-8.8-.9-18.5-3.2-28.2-2.4-9.9 2.9-20.5 10.9-25.9 7.5-5.1 18.6-4.4 26.7 1.6 2.3 1.7 4.1 2.2 6.8 1.3 2.6-.9 5.5-1.1 8.2-1.9 15.2-4.3 26.7 4.5 31.8 16.2 5 11.5 6.9 23.8 8.9 36.1.7 4.6 1.5 9.2 2.7 13.6 6.1 21.2-12.1 36.8-30.7 33.1-2.1-.4-3.5.5-5.1 1.3-7.1 4-14.4 4.7-21.8.8-2.7-1.4-5.4-2.3-8.4-2.7-7.1-.9-12.4-5.5-15.9-11.1-6.3-9.9-10.9-20.6-10.9-34.2zM1012 246.9c0 23.4-18.9 39-42.3 35.4-3.6-.6-7.4-.6-11 0-15.3 2.3-26.6-8.8-26.8-20.1 0-1-.3-2.1-.8-2.8-7.9-9.5-8.5-21.2-10.2-32.7-1-6.7-2.6-13.2-1.1-20.1 2.3-10.8 11.6-19.5 22.8-19.3 8.4.2 15.9-2.3 22.8-6.1 18.5-10.3 36.4-.3 39.5 21.2 1.5 10.3 2.7 20.7 5.9 30.7 1.4 4.5 1.1 9.2 1.2 13.8zM199 738.1c1.7-8.4-2.4-17.4-2.1-26.7.5-17.2 14.9-27.8 31.5-23.3 6.5 1.8 13.1 2 19.7-1.5 14.8-8 32.3.8 34.8 17.5 2.5 16.2 5.5 32.3 6 48.7.4 16.4-11.9 28.1-28.2 25.9-8.4-1.1-16.6-.5-24 1.9-18.7 6.2-33.7-8.6-36.8-25.2-1-5.4-.6-10.9-.9-17.3zM213.999 407c.6 14.7-7.6 24.4-22.4 25.8-5.5.5-10.8-1.6-15.3-5.1-1.5-1.2-2.5-2-3.8.3-8 14.5-29.5 15.7-41.3-.4-7.9-10.9-11.9-23.1-12-36.2-.1-7.2-2.1-14.4-.4-21.8 2.7-12 10.6-20.2 22.9-22.5 2.9-.5 5.8-1.4 8.9-1.1 5.9.5 11.4-.7 17-2.9 16.4-6.2 29.1.2 34.9 16.8 4.5 13 9.1 25.9 11 39.7.4 2.7.4 5.4.5 7.4zM216 572.9c-4.9-1.7-7 .5-7.7 7.1-1.5 13.6-11.6 20.4-21.7 20.9-12.7.7-23.7-8.1-25.3-21.3-1.3-11.1-4.1-21.8-6.8-32.5-2.3-9.2-1.4-17.6 4.1-25.6 3.6-5.1 8.7-7.6 14.3-9.3 6.3-2 12.8-3.6 19.2-5.4 1.8-.5 3.1-1.8 4.6-2.9 16.7-12.8 37-5.2 41.2 15.4 2 9.9 2.6 20 3.1 30.1.7 12.2-10.9 25.2-25 23.5z" fill="#CEEBEF" />
		<path d="M499 362.1c-.1.4-.2.9-.3 1.3-1-.8-.1-1 .3-1.3z" fill="#FAFDFD" />
		<path d="M683.7 817.7c-7.1 8.5-13.8 16.8-20.7 24.9-6.4 7.4-12.8 14.9-19.7 21.9-18.8 18.9-38.2 37.1-56.8 56.2-19.6 20.2-38.6 41-57.8 61.6-19.5 20.9-39 42-58.5 63-1.6 1.7-3.3 3.3-4.7 5.2-8.9 12-17.8 24.1-26.7 36.1-3.6 4.8-7.1 9.6-10.8 14.3-5.4 6.8-18.1 9-25.1 4.5-7.4-4.8-9.3-15.2-6.3-24.1 3-8.9 4.5-18.3 5.7-27.6 4.2-32.8 8.1-65.7 11.9-98.5 2-16.8 3.1-33.8 5.3-50.6 3.5-27 5.7-54.1 11-81 7-35.3 11.3-71.2 16.4-106.9 1.1-7.7.5-15.6.2-23.5-.1-1.5-2.1-3.7-3.7-4.2-18.8-6.7-37.6-13.1-56.4-19.7-17.9-6.3-35.7-12.7-53.5-19-33.2-11.7-66.4-23.3-99.6-34.9-6.7-2.4-13.4-4.9-20.6-7.5 1.3-.4 2.3-.6 4.1-1.2-3.4-1.5-6.2-2.9-9-3.8-42.1-13.8-84.3-27.6-126.5-41.3-9-2.9-14.1-8.2-14.4-15.8-.3-9 6.1-15.5 15-15.8 3.7-.1 7.5-.7 11.2-1.6 9.3-2.4 18.6-5.1 27.9-7.6 29.3-7.9 58.5-16.1 87.9-23.7 45-11.6 90.2-22.7 135.3-34.1 34-8.6 67.9-17.5 101.8-26.1 3.3-.9 5.2-2.3 5.5-5.9 1.2-14.3 2.4-28.6 3.9-42.9.7-6.4 2.2-12.7 2.9-19.2 2.7-24.3 5.2-48.6 7.8-72.9 1.8-16.7 3.2-33.5 5.5-50.1 3.8-27.3 8.4-54.5 12.2-81.8 2-14.2 2.9-28.5 4.1-42.7 1.7-20 3.3-40.1 4.7-60.2.4-6.3 2.3-11.6 7.6-15.6 1.2-.9 2-2.6 2.6-4.1 3.1-7.7 8.9-11.7 16.5-11.1 7 .6 12 5.6 13.7 13.8.3 1.3.5 2.7 1.1 3.8 9.1 17.4 18.3 34.7 27.5 52 3.1 5.9 5.9 11.9 9.3 17.7 9.7 16.6 19.5 33.3 29.6 49.6 7.1 11.4 15.1 22.4 22.5 33.6 12.9 19.6 25.8 39.2 38.4 58.9 10.7 16.7 20.9 33.6 31.7 50.2 8.4 13 17.4 25.6 25.9 38.6 2.5 3.8 4.2 8.2 6.8 13.2 9.6-1.7 19.7-3.5 29.8-5.4 19.9-3.8 39.9-7.2 59.7-11.7 29-6.7 57.6-14.6 86.6-21.2 32.9-7.5 66-13.7 98.9-21.1 43.2-9.8 86.3-20.4 129.5-30.6 11.2-2.7 16.4-.6 23 8.7.7 1.1 1.9 1.9 2.9 2.7 6.4 5.3 8.3 12.9 4 20.1-2.6 4.4-5.8 8.6-9.5 12.1-15 14.2-30.5 27.9-45.3 42.2-26.4 25.4-52.6 51-78.6 76.8-22.6 22.4-44.5 45.5-67.2 67.8-23.7 23.2-47.9 45.8-72 68.6-9 8.6-18.4 16.8-27.4 25.3-4.2 4-8 8.4-11.8 12.8-.7.8-.9 2.4-.6 3.5.5 1.7 1.4 3.4 2.3 5 21 40 35.8 82.6 51.3 124.9 10.4 28.2 21 56.4 35.1 83.1 11.6 22 22.6 44.5 33.8 66.7 9.4 18.7 18.7 37.5 28.1 56.2 7.3 14.4 14.7 28.7 22 43 1.5 3 3.2 5.9 4.1 9.1 3.3 11.1-5.7 20.1-17.1 19.5-13.7-.6-24.9-6.3-35.5-13.8-27.9-19.7-55.5-39.7-83.2-59.6-12.2-8.7-24.2-17.7-36.8-25.8-24-15.6-48.1-31-72.6-45.9-24.9-15.2-50.2-29.6-75.2-44.4-7.3-4.1-13.9-8.3-21-12.7zM1113 309.3c-.2-.3-.4-.6-.6-.8-.8.1-1.6.2-2.4.4-34.4 8.1-68.8 16.6-103.3 24.3-33.4 7.5-67 13.8-100.4 21.3-34 7.7-67.7 16.8-101.8 24.2-26.3 5.7-52.9 9.7-79.5 14.3-5.9 1-12 .2-15.5-4.8-3.9-5.7-8.9-10.4-12.8-15.8-10.4-14.7-19.9-29.9-29.6-45-10.5-16.4-20.6-33-31.1-49.4-12.9-20.2-26.1-40.2-39.3-60.2-6.8-10.3-13.4-20.7-20.6-30.7-13.6-18.8-25.4-38.6-35.2-59.6-5-10.7-11.5-20.7-17.9-31.9-1.7 13.1-3.4 25.1-4.8 37-1.4 12.4-1.9 24.9-3.6 37.2-3.6 26.2-8.3 52.2-11.5 78.4-4.2 34.7-7.5 69.4-11 104.2-2 19.5-3.9 39.1-5.7 58.6-1.2 13.2-2.2 26.5-3 39.8-.4 6-3.3 10-8.3 12.7-2.5 1.3-5.2 2.2-7.9 3.1-45.3 15.1-91.5 26.5-138.1 36.8-24.5 5.4-48.7 11.9-73.1 17.9-25.8 6.3-51.6 12.6-77.5 18.8-11 2.7-22.1 5.1-34.5 7.9 3.4 1.2 5.5 1.8 7.5 2.6 30 10.9 59.9 21.8 89.9 32.7 9.2 3.4 18.3 6.9 27.6 10.2 22.7 8.1 45.5 15.9 68.1 24 19.8 7.2 39.5 14.8 59.3 22 19.8 7.2 39.8 13.9 59.7 21 9.1 3.2 18 6.8 26.9 10.5 7.8 3.2 11.8 9.4 11.3 17-.4 7.4-5 12.5-13.3 14.8l-3.3 1.1c0 5.8.7 11.7-.1 17.4-5.2 35.5-10.6 71-16.2 106.5-1.8 11.3-4.9 22.4-6.2 33.8-2.6 21.8-4 43.7-6.5 65.5-2.1 18.3-5.2 36.5-7.6 54.8-1.9 15.2-3.4 30.4-5 45.6-.4 3.2-.8 6.5-1.2 9.8 7-7.4 13.7-14.4 20.3-21.6 19.5-21.4 38.5-43.3 58.5-64.3 29.1-30.5 58.3-60.9 88.4-90.3 21.4-20.9 41-43.2 59.7-66.5 2.8-3.5 7.3-6.4 11.7-7.8 9.9-3.3 18.9-.8 27.8 4.9 19.1 12.2 38.3 24.2 58.1 35.1 40.5 22.1 78.9 47.6 117.3 73.2 30 20 58.6 42.2 87.9 63.3 2.7 1.9 5.4 3.7 9 6.2-4.6-10.3-8.4-19.5-12.9-28.4-17.1-33.8-34.2-67.7-52-101.1-15-28.3-26.3-58.2-37.3-88.1-15.2-41.2-29.6-82.6-50.1-121.6-1.5-2.8-2.6-5.8-4-8.6-4.1-8.2-1.9-16.6-.7-25 .3-2.2 2.2-4.5 3.9-6.2 6.4-6.3 12.9-12.4 19.5-18.4 8.6-8 17.4-15.8 26-23.9 23.8-22.6 47.6-45.1 71.2-67.9 13.4-13 26.6-26.2 39.6-39.5 18.3-18.7 35.9-38 54.7-56.2 22.7-22 46.4-43.1 69.6-64.5 4.1-3.8 8-7.3 11.9-10.8z" fill="#000" />
		<path d="M806.001 229c-.1-5.6 2.3-10.2 6.7-13.3 33.2-23.2 60.5-53 90-80.3 4.8-4.4 9.5-8.9 14.4-13.1 5-4.2 10.7-6.7 17.5-5 5.8 1.5 9.8 5.1 11.3 10.8 1.6 5.9-.1 11.1-4.7 15.4-20.4 18.9-40.4 38.2-61.1 56.6-15.8 14-32.3 27.2-48.8 40.3-6.7 5.3-13.8 4.9-19.4.6-4-3-6-7-5.9-12zM711.2 130.3c.7-2.1 1.7-6.3 3.6-10.1 13.4-25.8 27-51.5 40.6-77.2 5.6-10.6 11.3-21.1 16.7-31.7 2.6-5.2 6-9.3 11.8-10.7 5.9-1.4 11.3-.3 15.5 4.4 4.3 4.8 5.2 10.5 2.6 16.3-3.3 7.4-6.8 14.8-10.7 21.9-14.5 26.9-29.1 53.8-43.6 80.7-2.1 3.9-3.7 8.2-5.7 12.2-1.3 2.5-2.6 5-4.5 7.1-4.4 4.9-11 6.2-16.9 3.8-6-2.3-9.5-7.9-9.4-16.7zM330.6 281.8c.1 13.1-10.2 20.1-21.8 15.7-14.7-5.6-29-12.2-43.6-18.3-8.4-3.5-16.8-7.1-25.3-10.2-8.5-3.1-13.2-10.3-11.4-18.5 1.8-7.9 10.2-13.5 18.9-11.5 6.9 1.6 13.7 3.8 20.3 6.6 17.1 7.3 34 15 51 22.5 6.8 3.1 11.7 7.5 11.9 13.7zM730.1 734.9c.1 12.8-12.5 19.9-23.3 14-6.9-3.7-13.8-7.3-20.8-10.7-4.2-2.1-8.5-2.8-12.4 1-9.2 9-18.9 17.7-27.8 27.1-12.7 13.4-24.9 27.3-37.4 40.9-3.8 4.1-8.6 6.4-14.3 5.7-5.9-.7-10.3-3.7-12.6-9.3-2.5-6.2-1-11.9 3.3-16.7 8.8-9.8 17.7-19.4 26.5-29.2 5.7-6.3 10.9-13.1 16.9-19 8.6-8.5 17.4-16.9 26.8-24.6 13.7-11.2 31.7-11.8 47.1-2.9 4.3 2.5 9.1 4.1 13.5 6.3 7.8 3.8 13.8 8.9 14.5 17.4zM949.6 429.1c-2.1 3.8-3.4 8.4-6.3 11.4-10.4 10.5-21.2 20.6-32.2 30.5-9.5 8.6-19.1 17.1-29.2 25-3.3 2.6-8 4.4-12.2 4.6-10.1.4-17.2-9.8-13.7-19.3 1.2-3.3 3.4-6.6 6.1-8.9 10.9-9.7 22.3-18.9 33.2-28.6 8.3-7.4 15.9-15.6 24.2-23.1 2.9-2.6 6.3-5.2 9.9-6.4 9.7-3.3 19.1 4 20.2 14.8z" fill="#000" />
	</g>
	<defs>
		<clipPath id="clip0">
			<path fill="#fff" d="M0 0h1225.7v1107.6H0z" />
		</clipPath>
	</defs>
</svg>
