<svg width="543" height="426" fill="none" xmlns="http://www.w3.org/2000/svg"><g clip-path="url(#clip0)"><path d="M162.72 331.024c-3.948 1.237-7.458 3.43-11.207 5.065-6.381 2.752-12.523 6.102-19.303 7.857-1.077.279-2.114.16-3.151.24-1.595.119-2.991-.399-3.669-1.875-.638-1.476.519-2.512 1.396-3.47 2.832-2.951 6.421-4.905 9.891-6.939 11.446-6.78 22.972-13.441 34.538-20.061 11.885-6.82 23.93-13.361 35.735-20.34 15.873-9.412 32.065-18.187 48.656-26.243 15.076-7.338 30.072-14.876 45.227-22.174a2886.608 2886.608 0 0055.676-27.519c7.777-3.949 15.554-7.977 23.491-11.686 7.458-3.47 14.836-7.099 22.733-9.412 1.874-.559 3.829-.24 5.743-.2 1.117.04 1.715.958 2.074 1.915.439 1.196-.239 2.114-.957 3.031-3.909 5.185-9.413 8.255-14.757 11.526-6.58 3.988-13.241 7.777-20.101 11.287-.438.199-.837.438-1.036.877-.16.04-.359.12-.519.16.04.039.08.119.12.159.159-.12.279-.199.438-.319 3.829-.718 7.179-2.632 10.769-3.988 2.632-1.037 5.224-2.234 7.896-3.191 3.43-1.196 6.342.12 7.937 3.31 1.316 2.673.279 5.704-2.632 7.658-7.817 5.224-16.312 8.973-25.046 12.324-1.755.678-3.67 1.036-5.265 2.193-.279.04-.598.12-.877.16.04.039.04.119.119.159.319.12.599 0 .758-.319 2.632 0 5.025-1.117 7.498-1.795 4.626-1.276 9.053-1.515 13.44.958 1.835 1.036 2.792 2.353 2.393 4.426-.119.678.08 1.077.439 1.596 2.313 3.23.479 7.617-3.39 7.896-5.065.359-9.691 2.154-14.198 4.188-11.008 4.985-21.856 10.29-32.664 15.634-9.372 4.666-18.864 9.133-28.356 13.6-9.692 4.587-19.543 8.934-29.154 13.68-5.863 2.911-11.487 6.341-17.19 9.532-.319.199-.438.478-.598.957.16-.12.16-.16-.08-.12-.199.04-.359.04-.558.08-.16.04-.2.199-.04.239.199.04.439-.04.678-.159 6.541-2.274 13.161-3.829 19.183-7.299 4.228-2.433 8.814-4.307 13.241-6.421 1.197-.558 2.234-1.196 3.111-2.313 1.396-1.755 3.231-2.991 5.703-2.234 1.277.399 2.274-.518 3.351-.957 11.087-4.706 22.254-9.252 33.222-14.238 13.081-5.982 26.482-11.167 39.523-17.269 4.148-1.914 8.256-3.948 12.842-4.666 2.194-.319 4.906.798 5.943 2.712 1.156 2.154.798 4.267-.878 6.182-3.35 3.828-7.777 6.102-12.084 8.574-4.586 2.673-9.452 4.826-14.318 6.94-1.196.518-1.874.997-1.515 2.632.438 1.875.08 3.829-1.276 5.624 1.236.239 2.073-.359 2.791-.718 5.424-2.792 11.167-4.946 16.392-8.136 1.874-1.157 4.307-.878 5.663.558 1.516 1.595 1.715 4.268.319 6.062-2.432 3.071-5.384 5.624-8.614 7.857-6.74 4.706-14.079 8.455-21.178 12.603-1.117.678-2.233 1.316-3.23 2.353 2.472-.678 4.905-1.635 7.418-2.034 8.136-1.236 15.195-5.264 22.573-8.535 1.715-.758 3.39-1.436 5.345-1.396 3.39.08 5.144 2.672 3.868 5.863-.678 1.715-1.874 3.031-3.19 4.267-.479.439-.878.798-.599 1.675 1.237 3.989.28 6.82-3.111 9.373-.717.518-1.475.917-.558 1.994 1.914 2.194 1.875 4.786.878 7.298-1.077 2.752-3.59 3.67-6.262 3.789-1.835.12-3.47.838-5.185 1.197-.478.119-.957.239-1.077.758-.717 3.27-3.549 4.785-5.783 6.58-9.851 8.017-20.738 14.438-31.985 20.3-6.9 3.59-13.64 7.458-20.62 10.848-14.238 6.94-28.595 13.68-43.113 20.061-8.614 3.789-17.109 7.857-25.684 11.766-10.609 4.865-21.217 9.651-32.145 13.799-2.592.957-5.225 1.874-8.096 1.675-3.39-.199-4.507-1.874-3.111-4.945 1.396-3.032 4.108-4.826 6.78-6.541 7.937-5.065 16.272-9.452 24.727-13.6.598-.279 1.197-.638 1.795-.798 1.316-.359 1.675-.997 1.196-2.353-.558-1.675.279-3.35.599-5.464-4.188 2.513-8.057 4.906-11.965 7.179-4.268 2.513-8.136 5.743-12.882 7.458-1.356.479-2.752 1.037-4.228 1.077-5.344.239-6.9-3.031-5.105-7.618.678-1.794 2.034-3.23 3.31-4.706.439-.478 1.037-.837 1.037-1.635.04 0 .08-.04.12-.08.04 0 .04-.079.04-.119l-.16.159c-3.39 1.675-6.74 3.43-10.13 5.065-2.273 1.077-4.467 2.194-7.139 2.194-2.672 0-4.706-.758-5.783-3.271-1.116-2.552-.239-4.865 1.436-6.819 1.675-1.955 3.629-3.67 5.783-5.145.997-.678 1.555-1.476 1.555-2.792 0-2.513 1.516-4.267 3.47-5.504 10.609-6.78 21.138-13.64 32.066-19.901 7.019-4.028 13.839-8.336 20.818-12.404 6.422-3.749 12.843-7.458 19.343-10.967 7.179-3.869 14.478-7.538 21.696-11.327.28-.159.559-.319.998-.598-.918-.479-1.396.08-1.915.319-7.458 3.629-14.876 7.298-22.334 10.928a4117.638 4117.638 0 01-23.132 11.167c-8.016 3.829-15.554 8.535-23.211 13.081-3.829 2.274-7.857 3.989-12.125 5.384-3.988 1.317-7.657 3.59-11.765 4.746-1.755.479-3.43.519-5.025-.279-4.108-2.034-4.946-6.7-1.954-10.17.199-.239.358-.518.837-1.156-2.672.877-4.586 2.233-6.541 3.39-6.859 3.908-13.719 7.777-20.938 10.967-2.393 1.037-4.866 1.715-7.498 1.556-2.832-.16-3.709-1.755-2.393-4.268 1.516-2.871 4.347-4.387 6.661-6.421.398-.359.837-.638 1.236-.997.478-.399.758-1.037.638-1.595-.12-.678-.877-.678-1.476-.718-4.227-.199-5.105-4.945-3.549-7.618 1.156-1.954 2.951-3.19 4.746-4.466 4.188-3.032 8.734-5.504 13.161-8.216.718-.439 1.635-.678 1.835-1.675.678.04 1.276-.08 1.715-.957.039-.04-.04.039-.12.159h.199c.12-.04.24-.08.319-.12-.079-.039-.199-.079-.398 0-.758.2-1.317.439-1.715.918-7.458 2.991-14.557 6.66-20.939 11.566-1.116.837-2.113 1.794-3.39 2.393-2.831 1.356-4.786 1.037-6.381-1.037-1.316-1.675-1.077-4.946.519-6.82 1.276-1.516 2.951-2.672 4.427-3.949.199-.04.478-.239.478-.678.2-.04.359-.079.519-.159-.04-.04-.08-.12-.12-.16-.08.12-.239.2-.399.319zm98.111-51.847c-.319 0-.638.08-.798.399-.717-.08-1.276.239-1.874.558a2489.776 2489.776 0 00-14.597 7.339c-.479.239-1.476.359-1.197 1.037.32.797 1.197.598 1.875.199 2.632-1.436 5.304-2.712 7.857-4.267 2.632-1.596 5.583-2.752 7.897-4.866.358 0 .678-.08.837-.399.04-.08.04-.119.08-.159a.3.3 0 01-.08.159zm101.7 30.989c.04-.04.12-.04.16-.08-.04-.04-.08-.12-.16-.12a.304.304 0 00-.159.08c.04.04.08.08.159.12zM173.888 129.618c-3.35.718-6.182 2.632-9.293 3.908-1.755.718-3.51 1.277-5.384.678-4.148-1.316-4.706-5.982-2.552-8.534 1.036-1.197 1.116-2.194.997-3.709-.24-3.909 2.073-6.741 4.945-9.014 5.504-4.387 11.805-7.617 17.947-10.968 14.557-7.936 29.074-15.953 43.871-23.41 4.546-2.314 9.013-4.826 13.56-7.14 9.412-4.825 18.705-9.81 28.277-14.238 6.979-3.23 13.52-7.378 20.858-9.73 2.273-.759 4.826-1.197 6.98.757 1.834 1.675 2.034 2.991.598 5.025-4.268 6.022-9.612 10.848-16.073 14.477-13.081 7.339-26.402 14.198-39.723 21.018-1.755.918-3.43 1.955-5.145 2.952-.119.12-.558-.2-.438.279.159-.12.279-.2.438-.32 4.667-1.036 9.054-2.99 13.521-4.586 8.853-3.19 17.628-6.5 26.442-9.81 4.347-1.636 8.614-3.39 12.961-5.026 2.513-.957 5.105-1.835 7.618-2.832 3.829-1.515 7.338.639 8.096 4.707.239 1.395.957 1.395 1.994.837 3.271-1.755 6.541-3.47 9.851-5.224 3.43-1.835 6.98-3.191 10.928-3.151 2.473 0 4.267.997 5.185 3.27.917 2.233.359 4.268-1.197 6.062-.319.36-.598.758-.997.957-1.675.958-2.193 1.596-.279 3.151 2.951 2.393 2.074 7.378-1.396 10.01-4.626 3.47-9.651 6.302-14.836 8.815-3.829 1.834-7.578 3.789-11.287 5.823 3.789-.599 7.299-2.114 10.848-3.43 5.105-1.835 10.13-3.949 15.395-5.305 2.632-.678 4.905.28 6.301 2.593 1.197 1.954.718 4.347-1.156 6.341-1.516 1.555-3.39 2.552-5.265 3.51-3.709 1.874-7.378 3.908-11.287 5.503-.478.2-.997.439-1.196.958-.16.039-.359.079-.519.159.04.04.08.12.12.16.16-.08.279-.2.439-.28 3.071-.638 5.823-2.153 8.654-3.35 3.789-1.595 7.538-3.27 11.526-4.347 4.308-1.156 7.179.997 7.299 5.464.04 1.396.558 1.436 1.555.997a22.569 22.569 0 015.305-1.595c3.669-.598 6.5.598 7.498 3.23 1.236 3.311 0 6.461-3.311 8.455-2.552 1.516-5.025 3.111-8.016 4.986 1.635-.12 2.752-.2 3.868-.28 2.433-.119 4.069 1.117 5.026 3.191.997 2.154.638 4.268-.997 6.102-.958 1.037-2.114 1.835-3.311 2.513-8.136 4.467-15.913 9.532-24.408 13.4-.757.359-1.037.678-.678 1.635.997 2.712.24 5.664-2.353 7.099-4.586 2.513-9.013 5.424-14.198 6.581-.957.2-2.154.439-2.951.08-2.872-1.316-5.305.199-7.817.917-5.584 1.595-11.167 3.231-16.87 4.387-3.151.638-5.624-.239-7.578-2.632-.758-.917-1.356-.997-2.353-.598-11.048 4.467-22.215 8.614-33.103 13.48-2.632 1.196-5.384 2.233-8.255 2.752-1.197.239-2.353-.04-3.271-.519-1.555-.837-2.592-.119-3.828.559-3.59 1.994-7.02 4.347-11.088 5.304-1.954.479-3.908 1.077-6.022.439-2.792-.838-3.669-2.712-2.074-5.225 2.114-3.27 5.065-5.543 8.455-7.378 1.037-.558 2.553-1.037 2.912-1.914.438-1.157-1.436-1.556-2.034-2.513-.599-.957-1.436-1.874-1.476-2.991-.08-1.954-.917-1.356-1.954-.838-4.627 2.194-8.615 5.424-12.842 8.256-1.676 1.117-3.351 2.074-5.424 2.233-1.915.12-3.151 1.596-4.587 2.593-3.55 2.473-7.298 4.507-11.566 5.583-.917.24-1.874.24-2.752.16-2.871-.319-4.148-2.393-3.19-5.105.957-2.752 3.031-4.666 5.105-6.501 3.589-3.151 7.418-5.982 11.526-8.415 2.393-1.396 3.908-3.749 6.062-5.424 2.552-1.994 5.065-4.028 7.657-5.983.2-.159.319-.398.678-.837-2.871.558-4.985 1.954-7.139 3.31-9.931 6.222-19.861 12.444-30.35 17.788-3.989 2.034-9.253.917-11.128-3.829-1.356-3.39.16-7.817 3.949-10.05 1.276-.758 1.755-1.157.797-2.633-1.595-2.512-.957-5.384 1.516-8.335.359-.439 1.157-.678.319-1.555-4.467-4.826-3.988-9.213 1.356-13.082 4.906-3.51 9.931-6.82 15.076-9.971.159-.199.398-.558.638-.837.159-.04.359-.08.518-.16-.04-.039-.08-.119-.119-.159-.08.12-.24.239-.399.319zm138.272-14.079c.04 0 .12.04.16.04 0 0 .04-.079.04-.119-.04 0-.12-.04-.16-.04 0-.04 0 .04-.04.119zM182.303 284.761c-1.754.08-3.27 1.037-4.865 1.635-1.197.439-2.393.678-3.669.798-4.388.319-6.741-1.835-8.057-6.302-2.951 1.835-5.823 3.669-8.734 5.424-3.231 1.955-6.381 4.028-9.811 5.664-1.994.957-4.028 1.316-6.182 1.116-3.071-.239-4.945-3.43-3.948-6.7.917-3.111 3.111-5.344 5.464-7.418 5.464-4.746 11.446-8.734 17.468-12.723.559-.359 1.635-.518 1.197-1.475-.359-.838-1.237-.758-2.074-.559-2.872.678-5.105-.438-5.783-2.791-.439-1.516.04-2.872.678-4.228 1.914-4.148 5.105-7.179 8.694-9.891 13.76-10.409 28.636-19.103 43.153-28.356 5.584-3.55 11.047-7.339 17.11-10.13 1.555-.718 3.11-1.636 4.905-1.317 3.709.678 5.504 3.909 4.268 7.498-.16.439-.359.838-.758 1.795 3.151-1.715 5.902-3.19 8.614-4.746 9.134-5.264 17.987-10.968 27.44-15.714 10.209-5.144 20.34-10.529 30.948-14.836a25.7 25.7 0 013.39-1.077c1.955-.478 3.909.399 4.946 2.154.877 1.515.598 3.988-.638 5.384-2.074 2.313-4.946 3.51-7.299 5.504-.199.159-.399.319-.399.837 2.274-.877 4.547-1.794 6.86-2.672.559-.199 1.117-.438 1.675-.638 1.795-.718 3.829-1.037 2.433-4.028-.798-1.675 1.715-4.307 3.988-4.586 2.154-.28 4.268 0 5.823 1.794.798.918 1.476.878 2.593.519 2.353-.798 4.586-2.194 7.138-2.313 4.148-.2 6.86 2.831 6.023 6.859-.319 1.596.119 1.635 1.316 1.157 3.27-1.276 6.541-2.433 10.05-2.991 5.584-.918 8.495 2.113 6.78 7.777 2.593-1.476 4.986-2.752 7.299-4.188 5.663-3.51 11.645-5.902 18.306-6.62 2.433-.24 5.863 1.794 6.899 4.227 1.077 2.632 0 6.142-2.472 7.977-3.829 2.871-8.096 5.065-12.284 7.298-11.087 5.863-22.135 11.845-33.501 17.11-20.141 9.372-40.361 18.625-60.143 28.795-12.204 6.261-24.488 12.443-36.612 18.944-13.879 7.458-27.599 15.275-41.438 22.813-8.256 4.507-16.392 9.253-24.807 13.48-4.945 2.473-9.771 5.065-14.717 7.498-1.675.838-3.43 1.436-5.503 1.197-3.032-.359-5.385-3.39-5.664-5.664-.319-2.512 1.356-5.623 3.988-7.059 4.667-2.513 9.373-4.945 14.079-7.458 5.304-2.911 10.689-5.584 15.833-8.774.12-.12.519.159.399-.319-.159.119-.279.199-.399.319z" fill="#FAF1D7"/><path d="M500.525 247.67c2.433-.438 4.507-1.834 6.74-2.831 7.339-3.271 14.637-6.581 22.215-9.133 3.23-1.117 5.863.359 6.7 3.629.479 1.835-.239 3.39-1.515 4.666-3.151 3.111-6.98 5.225-10.808 7.339a1610.097 1610.097 0 01-14.159 7.697c-.399.239-.837.439-.837.997-.279.04-.599.12-.878.16.04.039.04.119.12.159.319.12.598 0 .798-.319 2.951-.479 5.663-1.835 8.495-2.712 2.791-.837 5.623-1.476 8.335-2.552 2.313-.918 4.866-.12 5.863 1.595.997 1.755.558 4.586-1.117 6.182-2.513 2.432-5.743 3.788-8.694 5.503-4.746 2.752-9.652 5.225-14.119 8.655 1.556-.439 3.151-.838 4.667-1.356a47.71 47.71 0 0113.56-2.592c3.031-.12 4.706 2.353 3.709 5.224-.958 2.872-3.231 4.627-5.584 6.262-1.236.877-2.512 1.635-4.028 2.632 1.635.399 3.071.518 4.387 1.196 3.39 1.795 4.188 5.145 1.835 8.136-2.473 3.111-5.584 5.584-8.934 7.778-5.025 3.31-10.449 6.022-15.195 9.731-1.197.917-1.835 2.233-2.952 3.19-1.715 1.516-3.709 2.034-5.663 1.077-1.954-.917-2.911-2.472-3.071-4.706-.279-3.629 1.795-5.823 4.347-7.777 2.114-1.635 4.387-3.071 6.9-4.786-1.675-.08-2.991.519-4.347.239-3.59-.717-5.663-3.868-4.906-7.537.08-.399.04-.798.08-1.197a.3.3 0 00.08-.159.3.3 0 00-.08.159c-1.476.279-2.592 1.276-3.829 2.034a37.253 37.253 0 01-8.255 3.909c-2.553.837-4.946.638-7.02-1.316-2.113-1.995-2.512-4.387-1.595-7.1.12-.279.359-.598 0-1.036-3.55 1.196-6.74 3.15-10.17 4.746-1.077.518-2.154 1.037-3.35 1.116-3.51.24-5.703-.837-6.98-3.43-1.276-2.592-.717-5.304 1.636-7.817.638-.678 1.356-1.196 1.754-2.113-1.156.079-2.273.199-3.429.199-2.673.08-4.667-1.157-5.704-3.549-1.037-2.393-.797-4.786.958-6.9 2.991-3.629 6.74-6.302 10.449-9.053 2.831-2.114 5.703-4.228 9.053-6.701-3.111.08-4.985-1.236-6.222-3.39-.837-1.396-1.037-2.991-.638-4.626.678-2.553 1.994-4.746 3.829-6.661 4.148-4.307 9.093-7.697 13.839-11.286 3.949-2.991 7.977-5.903 11.925-8.894 3.51-2.632 7.139-1.914 8.655 1.795.797 1.954-.359 3.43-1.317 5.145 1.317.039 2.234-.599 3.231-.958 5.743-2.153 11.486-3.948 17.748-3.629 2.831.16 4.865 1.356 6.102 3.749 1.236 2.353.558 5.225-1.556 7.259-2.752 2.712-5.942 4.825-9.332 6.66-3.669 1.994-7.299 4.068-10.968 6.062-.359.439-.798.678-.758 1.236-.877-.039-1.555.24-2.552 1.197 1.276-.319 1.994-.598 2.552-1.197zM27.559 344.585c-3.11 1.196-5.623 3.43-8.495 5.065-2.034 1.196-3.829 2.871-6.421 2.911-2.513.04-4.387-.877-5.424-3.19-.997-2.194-.558-4.786 1.236-6.621a322.307 322.307 0 015.225-5.224c.718-.678.718-1.037-.2-1.596-2.99-1.914-3.589-4.905-1.595-7.857 2.313-3.469 5.424-6.341 8.057-9.571 4.745-5.783 10.768-10.45 15.275-16.472 1.196-1.595 2.073-3.39 3.549-4.786 1.595-1.515 3.829-1.834 5.464-.757 1.994 1.316 2.632 3.549 1.715 5.782-1.476 3.47-4.028 6.222-6.222 9.213-.279.359-.598.718-.598 1.197-.04 0-.08.04-.12.08-.04 0-.04.079-.04.119l.16-.159c2.473-.758 4.587-2.194 6.9-3.311 5.264-2.472 8.973-.199 9.053 5.664-.04.04-.04.119-.08.159a.3.3 0 00.08-.159c2.951-1.037 5.583-2.752 8.415-3.988 3.111-1.396 6.182-3.071 9.732-3.151 2.632-.08 4.347 1.316 5.424 3.629.877 1.914.319 4.507-1.277 6.222-3.07 3.39-6.86 5.982-10.489 8.734-.478.359-1.037.598-.997 1.316-.16.04-.359.08-.518.16a.3.3 0 01.08.159c.159-.08.279-.199.438-.279 2.593-.838 4.985-2.074 7.657-2.632 3.79-.838 6.7.678 7.618 4.108.439 1.635-.04 3.15-1.077 4.427-.718.877-.478 1.037.439 1.475 4.108 1.915 5.025 5.823 2.273 9.452-.359.479-.638.997-.917 1.516-.04.04-.08.04-.12.08-.04 0 0 .079-.04.119l.16-.159c1.595.04 3.15-.838 4.826.159 2.393 1.436 3.31 4.308 1.755 6.661-1.715 2.592-4.348 4.227-6.541 6.301-3.829 3.629-7.777 7.179-11.726 10.729-.957.877-.518 1.515.04 2.393 2.672 4.028.559 9.571-4.148 11.007-1.674.519-3.19.279-4.387-.997-.877-.917-1.794-1.157-2.99-1.157-4.228.04-6.182-1.675-6.74-5.822-.12-.758-.48-1.077-1.158-1.396-3.948-1.755-4.945-5.424-2.672-9.173.918-1.516 2.433-2.593 3.032-4.347.159-.08.558.199.438-.28-.16.12-.279.2-.438.319-2.992 1.396-5.863 2.992-8.456 5.066-1.595 1.276-3.43 1.954-5.543 1.754-2.473-.239-4.587-2.313-4.746-4.825-.04-.918 0-1.875 0-2.792.04-.04.08-.12.08-.16-.04.04-.08.12-.08.16-1.954.837-3.869 1.675-5.823 2.512-3.19 1.316-5.504.758-7.618-1.794-1.436-1.715-1.316-4.866.28-7.259 2.073-3.071 5.025-5.264 7.777-7.657.199-.439.518-.639.518-1.077.32 0 .638-.08.798-.399.04-.04.08-.12.08-.16-.04.04-.04.12-.08.16-.32 0-.638.04-.798.399zM118.093 45.187c2.911-.838 5.783-1.755 8.694-2.513 2.273-.558 4.427-1.715 6.9-1.635 2.472.08 4.227 1.037 5.145 3.31.877 2.234.478 4.308-1.197 6.062-2.592 2.673-5.623 4.786-8.654 6.94-2.114 1.476-4.308 2.871-6.461 4.267-.958.599-1.316 1.157-.878 2.393 1.117 3.23-.279 6.182-3.43 7.698-5.503 2.632-11.007 5.224-15.913 8.894-1.874 1.395-4.187.957-6.301 1.475-.878.2-1.596.519-2.353.957-2.433 1.556-4.666 1.516-6.98-.319-1.954-1.555-2.552-3.749-2.074-6.221.32-1.755 1.117-3.23 2.393-4.467.758-.718 1.516-1.476 2.393-2.313-.837-.479-1.316 0-1.754.199-2.513 1.157-4.986 2.473-7.538 3.55-3.51 1.475-5.863.837-8.296-1.995-1.555-1.794-1.475-4.865.24-7.577.199-.32.478-.638.358-1.237-1.914.4-3.828.838-5.823.798-2.711-.08-4.546-1.476-5.623-3.749-1.157-2.473-.837-4.945 1.117-6.98 4.028-4.227 9.093-7.019 13.839-10.289 7.458-5.185 14.836-10.41 22.334-15.514 2.234-1.516 4.347-3.23 7.099-3.869 2.473-.558 4.347.2 5.305 2.233.797 1.675.119 3.87-1.795 5.225-1.635 1.157-2.832 2.752-4.507 3.909-1.595 1.116-2.951 2.552-4.227 4.267 2.831-1.157 5.703-2.194 8.495-3.43 3.23-1.475 6.5-2.951 9.611-4.746 1.994-1.117 4.148-.997 5.943.519 2.592 2.153 2.712 5.743.359 8.255-1.994 2.034-4.347 3.67-6.421 5.903z" fill="#CEEBEF"/><path d="M270.802 405.644c.199-2.273 2.193-4.786 4.506-6.979 2.354-2.234 5.305-3.709 8.176-5.185 18.426-9.572 37.57-17.708 55.955-27.319 12.524-6.541 25.166-12.803 37.729-19.304 6.94-3.629 13.879-7.258 21.018-10.449 2.353-1.037 4.786-1.954 7.458-1.755 2.154.16 3.909 1.037 4.707 3.071.837 2.114.837 4.308-.918 6.102-2.353 2.393-5.184 4.148-8.096 5.704-7.298 3.948-14.637 7.737-21.975 11.645-13.121 6.98-26.442 13.56-39.723 20.3-11.526 5.863-23.092 11.566-34.857 16.951-6.94 3.19-13.56 6.979-20.5 10.09a42.85 42.85 0 01-7.897 2.672c-3.15.638-5.583-1.316-5.583-5.544z" fill="#FAF1D7"/><path d="M455.618.08c3.788-.24 7.019.399 10.21 1.236 3.27.838 5.822 3.31 5.942 5.664.12 2.353-2.393 5.144-5.623 6.261-5.464 1.875-11.167 2.672-16.671 4.347-4.028 1.237-8.096 2.473-11.885 4.467-3.51 1.875-4.666 4.427-3.869 8.415.638 3.23 1.556 6.461 1.675 9.732.359 10.05-4.148 17.11-13.999 20.02-4.985 1.476-10.05 2.513-15.235 2.314-5.304-.2-10.728-.399-15.315-3.829-2.791-2.074-4.187-5.823-3.23-9.332.838-3.111 3.869-5.584 7.298-5.863 1.596-.16 3.071.399 4.388 1.117 3.589 1.874 7.378 1.316 11.127 1.116 2.233-.12 4.387-.877 6.541-1.555 1.395-.439 1.794-1.197 1.794-2.593.04-3.11-.997-5.982-1.356-9.013-1.356-11.366 1.915-19.104 11.766-24.767 7.019-4.028 14.796-6.421 22.852-7.737 1.316-.2 2.672 0 3.59 0z" fill="#CEEBEF"/><path d="M168.424 106.526c-2.353-.079-4.307-.957-5.384-3.11-1.197-2.433-.997-4.866.558-7.14 2.274-3.31 5.783-5.184 8.974-7.418 6.82-4.865 14.238-8.694 21.536-12.762 17.509-9.851 35.217-19.343 53.323-28.077 4.068-1.954 8.136-3.909 12.284-5.664 2.872-1.196 5.424-.04 6.66 2.553 1.117 2.353.359 5.504-2.113 6.74-6.82 3.47-12.284 9.013-19.064 12.523-4.308 2.234-8.535 4.587-12.763 6.86-9.292 4.985-18.425 10.21-27.598 15.355-6.82 3.828-13.8 7.338-20.42 11.486-3.43 2.154-6.78 4.387-10.17 6.541-1.835 1.156-3.629 2.153-5.823 2.113z" fill="#FAF1D7"/><path d="M97.114 425.467c-6.302.359-12.045-.918-17.469-3.63-3.15-1.595-4.666-4.905-3.67-7.777.958-2.752 4.069-3.988 7.618-3.469 9.612 1.395 19.064.797 28.197-2.752 2.553-.997 4.308-3.031 5.903-5.185 2.712-3.55 4.188-7.817 6.62-11.566 2.473-3.789 5.345-7.179 10.091-8.056 4.506-.838 8.535.319 11.765 3.749.439.478.877.997.359 1.555-1.316 1.476-2.154 3.271-3.829 4.507-2.831 2.114-4.985 4.905-6.62 8.096-2.553 5.025-5.105 10.05-9.054 14.158-3.988 4.108-8.694 6.9-14.277 8.176-5.185 1.276-10.41 2.672-15.634 2.194zM511.134 401.258c-6.541-.559-12.204-2.114-17.827-4.228-5.265-1.994-10.25-4.387-14.199-8.455-2.672-2.752-5.503-5.344-8.415-7.817-1.316-1.077-2.632-2.153-4.427-2.512-4.945-.997-5.902-4.946-5.105-8.775.718-3.429 4.706-5.463 8.415-4.865 6.142.957 11.008 4.267 15.674 8.056 2.353 1.914 4.547 4.068 6.98 5.863 4.307 3.15 9.412 4.467 14.437 5.902 2.752.798 5.624.479 8.455.2 2.433-.279 4.946-.319 7.339-.08 3.23.319 4.666 3.709 3.15 7.259-2.233 5.184-6.261 8.056-11.765 9.013-.997.16-2.074.598-2.712.439z" fill="#CEEBEF"/><path d="M153.149 248.866c-4.068 0-6.062-2.751-4.865-6.5 1.396-4.348 4.387-7.458 7.896-10.21 3.949-3.111 7.817-6.342 11.806-9.373 2.153-1.635 4.427-3.15 6.859-4.387 8.336-4.267 16.512-8.774 25.445-11.725 1.835-.598 3.51-1.595 5.305-2.194 2.074-.678 3.829-.119 5.224 1.396 1.436 1.516 1.795 3.35.958 5.344-.439 1.037-1.277 1.715-2.074 2.353-7.059 5.664-14.797 10.25-22.853 14.239-7.777 3.868-14.477 9.212-21.138 14.676-2.911 2.393-5.942 4.706-9.611 5.903-1.037.319-2.034.598-2.952.478z" fill="#FAF1D7"/><path d="M0 210.3c.08-4.546 1.476-8.295 5.982-10.249 3.23-1.396 6.142-.359 8.854 1.276 5.065 3.031 8.615 7.577 10.968 12.802 3.07 6.86 7.338 12.842 11.805 18.785.798 1.037 1.396 2.273 1.994 3.43 1.157 2.313.16 4.028-2.433 4.147-6.5.24-11.725-2.552-15.833-7.338-2.991-3.47-4.905-7.697-6.66-11.925-.24-.598-.559-1.196-.878-1.795-1.515-2.911-1.435-2.791-4.028-.917-2.273 1.675-6.301 1.516-8.614-2.433C.239 214.488.04 213.331 0 210.3z" fill="#CEEBEF"/><path d="M189.442 329.03c-.319.718-.917.838-1.595.798a2.213 2.213 0 011.595-.798zM367.318 241.289c-.16.279-.439.439-.758.319-.04 0-.08-.08-.12-.159.28-.04.599-.12.878-.16zM265.418 312.121c-.08 0-.319.08-.559.04-.159-.04-.119-.2.04-.239.16-.04.359-.04.559-.08.199 0 .239.04-.04.279zM260.832 279.178c-.16.319-.479.399-.798.399.2-.319.479-.399.798-.399zM362.532 310.166a.534.534 0 00-.16-.119c.04-.04.12-.08.16-.08.04 0 .079.08.159.119-.08.04-.119.08-.159.08zM189.681 328.751c.079.04.199.08.279.12-.12.04-.239.119-.319.119h-.2l.24-.239zM162.721 331.024c.159-.079.279-.199.438-.279.04.04.08.12.12.16-.199 0-.359.079-.558.119.04 0 0 0 0 0zM373.699 222.943c-.16.12-.279.2-.439.319-.04-.039-.079-.119-.119-.159.199-.04.359-.12.558-.16zM260.831 279.177c.04-.04.04-.12.08-.159 0 .039-.04.079-.08.159zM218.556 387.219l.159-.159c0 .039 0 .079-.04.119 0 .04-.04.04-.119.04 0 .04 0 0 0 0zM313.875 114.861c-.16.08-.279.2-.439.28-.04-.04-.08-.12-.12-.16.2 0 .399-.04.559-.12zM312.16 115.54c0-.04.04-.12.04-.12.04 0 .12.04.16.04 0 .04-.04.119-.04.119-.04 0-.08-.039-.16-.039zM233.711 91.73c-.16.12-.279.199-.439.319-.08-.479.319-.2.439-.32 0 .04 0 0 0 0zM173.888 129.618c.159-.12.279-.2.438-.319.04.04.08.119.12.159-.199.08-.359.12-.558.16.04 0 0 0 0 0zM182.303 284.76c.12-.119.279-.199.399-.319.119.479-.279.2-.399.319-.04 0 0 0 0 0zM500.525 247.67c-.558.599-1.276.878-2.552 1.197.957-.918 1.675-1.237 2.552-1.197-.04 0 0 0 0 0zM508.9 260.034c-.199.279-.438.399-.797.319-.04 0-.08-.08-.12-.159.319-.04.598-.12.917-.16-.04 0 0 0 0 0zM492.548 292.339a.3.3 0 00.08-.159c-.04.04-.08.079-.08.159-.039 0 0 0 0 0zM65.846 327.834c-.16.08-.28.199-.44.279a.3.3 0 01-.079-.159c.16-.04.32-.08.519-.12zM28.356 344.186c-.16.319-.439.398-.797.398.16-.359.478-.398.797-.398zM51.09 360.538c.16-.12.279-.2.439-.319.12.478-.28.199-.44.319zM39.124 312.679l-.16.159c0-.04 0-.08.04-.119 0 0 .08-.04.12-.04zM55.078 315.071zM28.356 344.186c.04-.04.04-.12.08-.16-.04.04-.04.08-.08.16zM81.8 346.18l-.16.159c0-.04 0-.08.04-.119 0-.04.08-.04.12-.04zM32.345 359.741c.04-.04.08-.12.08-.16 0 .04-.04.08-.08.16z" fill="#fff"/><path d="M71.39 184.178c-.519-1.117-.918-2.194-1.516-3.111-.478-.718-1.196-1.316-1.874-1.875-.638-.558-1.436-.957-2.034-1.555-4.348-4.188-8.535-8.575-13.082-12.523-2.871-2.513-6.341-4.307-9.452-6.541a302.974 302.974 0 01-12.723-9.612c-1.196-.957-2.153-2.353-2.99-3.669-1.397-2.193-1.078-4.467.318-6.58a5.381 5.381 0 016.581-1.955c3.47 1.436 6.7 3.43 10.01 5.265 1.037.558 1.995 1.316 3.27 1.715-.797-.878-1.634-1.715-2.392-2.592-4.706-5.225-10.928-8.934-14.757-14.996-1.196-1.875-2.472-3.789-3.23-5.863-1.037-2.911.518-5.025 3.59-5.584 2.99-.518 5.543.28 7.697 2.353 5.424 5.185 10.768 10.45 16.152 15.674 1.556 1.516 3.15 3.031 5.105 4.348-.439-1.077-.718-2.274-1.396-3.191-3.23-4.347-6.58-8.615-9.89-12.962-1.756-2.313-3.67-4.586-5.066-7.139-.917-1.675-1.436-3.749-1.595-5.663-.32-4.108 3.709-6.78 7.298-4.587 3.111 1.915 5.983 4.467 8.336 7.219 5.185 6.062 9.97 12.443 14.916 18.665.24.319.399.718.598 1.037.16-.08.36-.199.519-.279.04-.479.16-.957.04-1.396-1.117-4.028-.12-7.737 1.754-11.327 2.274-4.307 6.74-4.825 10.17-1.276 2.952 3.071 4.068 6.74 4.188 10.848.12 5.344.04 10.729.439 16.073.478 6.501 2.552 12.443 7.498 16.95.239-.04.398 0 .478-.04 4.746-3.071 6.182-2.872 9.572 1.595 2.114 2.792 4.188 5.664 6.102 8.615 2.513 3.868 6.022 6.7 9.452 9.612 3.231 2.712 7.139 3.27 11.127 3.709 6.262.717 12.204-1.277 18.346-1.715 6.78-.479 13.56-1.476 20.899.079-1.915-4.187-3.669-8.056-5.504-12.044-2.991 1.755-5.743 3.43-8.535 5.065-.159.12-.319.239-.518.319-1.556.877-3.111 2.154-4.946.957-1.794-1.196-.837-3.071-.638-4.586.558-4.347 1.197-8.695 2.034-12.962.718-3.55 1.875-7.019 2.592-10.609 1.516-7.219 2.433-14.557 4.388-21.616 1.954-7.059 4.546-13.999 7.497-20.699 4.427-10.01 9.931-19.543 16.552-28.277 6.939-9.133 14.995-16.91 25.245-22.414 7.618-4.108 15.515-7.139 23.93-8.933 2.273-.479 4.626-.559 6.939-.798.519-.04 1.077.04 1.596-.08 10.05-2.712 19.502.16 28.994 3.031 6.302 1.915 12.005 4.985 17.349 8.695 16.91 11.725 31.707 25.764 44.708 41.677 4.467 5.504 8.894 11.127 12.603 17.149 4.108 6.701 7.378 13.959 11.008 20.978.199.359.279.758.478 1.077 1.436 2.473 1.237 3.071-1.635 2.792-2.991-.279-5.942-1.196-8.854-1.994-3.749-.997-7.498-2.154-11.406-3.27-.399 2.073-.718 3.788-1.037 5.304 4.347.359 8.575.399 12.722 1.077 3.63.598 7.139 2.034 10.729 2.911 5.384 1.356 10.888 2.154 16.352.678 7.178-1.994 13.201-5.942 17.548-12.044 2.752-3.829 5.225-7.857 7.617-11.885 7.937-13.281 19.862-19.503 35.017-20.3 2.074-.12 4.148-.639 6.222-.998 3.071-.518 6.142-1.076 9.213-1.635 4.467-.837 7.817-3.39 10.728-6.78 3.071-3.59 6.222-7.059 9.492-10.489 1.994-2.074 4.467-3.19 7.498-3.03 5.464.278 9.213 6.34 6.501 11.086-1.276 2.234-3.43 3.989-5.145 5.983-1.954 2.273-3.908 4.586-5.863 6.86.16.239.32.438.439.678 2.313-.639 4.706-1.117 6.98-1.955 6.66-2.432 13.28-5.025 19.941-7.498 3.589-1.316 7.219-2.392 11.047-1.076 1.955.678 3.55 1.715 4.587 3.589 1.436 2.553 1.077 5.504-1.356 7.059-2.234 1.396-4.706 2.473-7.219 3.231-4.626 1.396-9.372 2.433-14.039 3.749-1.475.398-2.911 1.116-4.347 1.715.04.199.08.359.12.558.598-.04 1.236-.04 1.834-.16 5.744-1.276 11.487-2.632 17.27-3.828 3.948-.838 7.936-1.635 11.964-2.074 1.476-.16 3.311.478 4.547 1.396 3.39 2.552 4.547 9.332-1.037 12.363-4.746 2.593-9.931 3.111-15.155 3.63-5.664.558-11.327 1.356-16.95 2.113-.878.12-1.715.718-2.553 1.077.04.279.08.559.16.878 1.515 0 3.031.079 4.546 0 7.658-.559 15.315-1.317 23.012-1.755 3.151-.2 6.581 2.353 7.379 4.826.917 2.791-.399 5.862-3.271 8.136-3.19 2.512-7.019 3.15-10.848 3.35-5.703.279-11.406.119-17.109.478-9.054.599-18.107 1.596-27.16 2.194-6.302.399-12.603.518-18.905.518-5.384.04-10.688.08-15.314 3.311-1.237.837-2.513 1.874-3.271 3.11-2.951 4.667-5.902 9.373-8.495 14.278-6.74 12.803-16.91 21.058-31.148 24.169-.638.12-1.276.319-2.154.558 1.157 3.151 2.393 6.142 3.35 9.213 2.354 7.458 4.547 14.956 6.86 22.454 1.077 3.47 2.393 6.9 3.39 10.409.479 1.596.479 3.351.718 5.026.08.438.08.917.2 1.356 3.669 13.4 3.469 27.04 2.552 40.76-.558 8.096-1.196 16.152-3.47 24.009-3.749 12.922-8.774 25.325-15.235 37.13-3.549 6.501-7.139 13.042-11.326 19.184-5.544 8.176-12.284 15.235-20.5 20.938-9.452 6.581-19.064 12.802-29.952 16.751-4.786 1.755-9.532 3.789-14.437 5.025-7.059 1.795-14.119 3.589-21.537 3.629-6.421.04-12.882.519-19.303.559-7.937.04-15.674-1.396-23.451-2.912-9.013-1.755-17.468-5.025-25.804-8.575-7.538-3.23-14.437-7.657-20.34-13.4-5.025-4.906-10.29-9.652-14.956-14.916-7.298-8.176-12.603-17.748-17.508-27.519-6.581-13.042-11.407-26.761-13.999-41.119-1.715-9.372-2.473-18.944-3.47-28.436-.438-4.228-.638-8.495-.518-12.723.319-8.774.917-17.508 1.396-26.242.159-2.792.359-5.544.558-8.655-1.675.2-3.39.319-5.025.599-7.578 1.276-15.076 2.991-22.693 3.828-7.937.838-15.754-.438-23.092-3.709-2.154-.957-4.068-2.473-5.903-3.948a74.208 74.208 0 01-16.152-18.226c-1.636-2.593-4.068-4.707-6.102-7.06-1.117-1.316-2.353-2.552-3.31-3.948-1.516-2.233-1.317-3.151.638-4.985.319-.359.678-.758.997-1.037zm111.71 27.519c-5.703 7.458-11.366 14.876-17.189 22.493 1.875 1.516 3.55 2.912 5.265 4.268 1.715 1.356 3.709 2.433 2.672 5.264-.957 2.632-1.556 5.384-2.513 8.017-.159.478-1.396.997-1.914.837-.519-.159-.878-1.156-1.037-1.834-.12-.519.08-1.197.279-1.755.638-1.795 1.316-3.59 2.034-5.504-5.105-4.108-10.768-7.817-13.68-14.238-.319 1.117-.478 2.074-.518 3.071-.2 4.108-.279 8.216-.598 12.324-.638 8.136-.958 16.272-.359 24.448.917 12.004 2.552 23.889 5.224 35.615 2.633 11.605 7.777 22.254 12.922 32.863 1.994 4.108 4.268 8.136 6.661 12.004 3.15 5.065 6.062 10.41 10.05 14.797 4.786 5.264 10.25 10.05 15.913 14.357 9.652 7.339 19.542 14.159 31.707 17.389 10.489 2.792 20.898 5.584 31.786 5.624 6.78.04 13.6.797 20.38-.758 3.23-.718 6.541-1.037 9.811-1.476 7.977-1.077 15.275-4.427 22.773-7.019 12.563-4.347 23.531-11.686 33.86-19.862 9.811-7.777 16.631-18.226 22.614-29.074 6.341-11.566 11.526-23.77 15.035-36.572 2.313-8.455 4.746-16.87 5.225-25.684.279-5.105.598-10.21.558-15.315-.04-4.347-.439-8.735-.877-13.042-.678-6.182-1.516-12.324-2.313-18.465a4.19 4.19 0 00-.24-.958c-4.187-13.48-8.375-26.96-12.642-40.44-.24-.718-.918-1.556-1.596-1.795-1.236-.439-1.914.319-2.552 1.515-2.353 4.507-4.228 9.373-8.296 13.56-3.27-3.788-6.421-7.458-9.811-11.366-1.715 2.473-3.43 4.786-4.985 7.258-.439.718-.638 1.875-.399 2.673 1.954 6.142 4.108 12.204 6.102 18.306.439 1.356.758 2.831.877 4.267.04.718-.518 1.516-.797 2.234-.598-.439-1.436-.758-1.795-1.356-.957-1.476-1.715-3.032-2.672-4.786-1.037 1.196-1.875 2.313-2.832 3.31-.757.798-1.595 1.635-2.552 2.154-1.516.837-2.513.079-2.194-1.636.16-.957.559-1.954 1.157-2.712 1.236-1.555 2.552-3.071 4.028-4.427.877-.797.997-1.475.638-2.552-1.436-4.268-2.752-8.615-4.108-12.882-.678-2.154-.518-4.148.957-5.983 1.875-2.353 3.63-4.825 5.504-7.298-5.384-6.301-10.848-12.683-16.392-19.223-.319.678-.598 1.196-.797 1.754-2.074 4.746-4.148 9.492-6.262 14.199-1.196 2.712-2.712 3.19-5.424 1.954-7.258-3.271-14.716-6.142-21.696-9.931-3.549-1.914-6.062-1.117-9.133.2-9.492 4.107-19.064 8.056-28.556 12.164-3.31 1.435-5.902.797-8.415-1.715-2.034-2.034-4.427-3.749-6.7-5.624-.399.439-.598.599-.718.798-5.863 8.854-11.646 17.748-17.588 26.562-1.795 2.672-3.909 5.145-6.142 8.056-9.572-6.9-18.944-13.6-28.237-20.3-2.832 3.19-5.703 6.301-8.415 9.532-.598.678-.917 1.755-.957 2.672-.24 3.23-.2 6.501-.439 9.731-.319 4.228-.838 8.455-1.236 12.683-.04.558.039 1.236.319 1.635 3.031 4.028 6.102 8.016 9.133 12.044.837 1.117 2.193 2.234 1.037 3.829-.678.957-2.672.319-4.028-1.436-2.114-2.712-4.068-5.583-6.142-8.335-1.197-1.595-2.274-3.35-3.709-4.666-1.277-1.157-1.795-2.313-1.596-3.989.559-5.065 1.117-10.17 1.436-15.275.08-1.515-.16-3.35-.957-4.586-.718-1.037-2.393-1.595-3.949-2.592zm170.139-76.974c-.798-1.834-1.356-3.549-2.233-5.065-1.994-3.35-4.268-6.54-6.262-9.89-6.74-11.407-15.275-21.417-24.488-30.83-7.019-7.218-14.836-13.68-22.414-20.34-7.019-6.181-14.916-11.087-23.69-14.357-6.899-2.553-13.999-4.906-21.457-4.627-5.264.2-10.568.957-15.713 2.114-4.547.997-9.054 2.553-13.321 4.427-6.7 2.911-12.683 7.099-18.426 11.686-4.706 3.749-9.133 7.657-12.802 12.443-12.364 16.232-20.579 34.458-25.924 54.041-1.954 7.218-3.23 14.636-4.706 21.975-.797 3.948-1.236 7.936-1.914 12.284 1.635-.997 2.991-1.755 4.307-2.593 3.789-2.512 5.185-2.313 7.498 1.675 2.194 3.829 4.188 7.777 6.262 11.686 2.592 4.905 5.144 9.851 7.777 14.956 1.635-2.034 3.15-3.948 4.746-5.783 3.15-3.59 6.381-7.139 9.532-10.728.598-.678 1.116-1.516 1.396-2.393 1.276-3.829 2.193-7.817 3.709-11.566 1.515-3.749.997-6.9-1.237-10.051-.678-.957-1.116-2.113-1.396-3.27-.119-.558.2-1.516.638-1.875.32-.279 1.277-.039 1.755.28.638.398 1.277 1.037 1.636 1.675 1.156 1.994 2.392 4.028 3.23 6.142.479 1.276.638 2.871.319 4.187-.957 3.988-2.154 7.937-3.35 11.845-.319 1.037-.12 1.636.678 2.393 4.068 3.909 8.056 7.937 12.084 11.845 3.47 3.35 6.98 6.701 10.489 10.051 2.114-5.265 3.989-10.449 6.262-15.435 2.951-6.461 6.222-12.762 9.492-19.064 1.196-2.273 2.353-2.552 4.586-1.316 2.433 1.356 4.746 2.872 7.02 4.507 3.47 2.473 6.82 5.065 10.289 7.538.519.359 1.556.439 2.114.159a69.874 69.874 0 006.74-3.828c6.063-3.949 11.845-8.376 18.147-11.885 3.629-2.034 4.706-4.228 4.547-8.136-.12-3.111-.32-5.704-3.391-7.299-.837-.439-1.515-1.276-2.233-1.994-1.356-1.436-2.752-2.832-3.988-4.387-.319-.399-.359-1.396-.04-1.795s1.236-.558 1.755-.399c1.236.359 2.393.997 3.589 1.556.479-2.393.838-4.786 1.556-7.099.239-.798 1.396-1.875 2.073-1.795 1.357.12 1.516 1.436 1.277 2.632-.439 2.274-.798 4.587-1.316 6.82-.439 1.994-.12 3.47 1.754 4.746 2.354 1.595 3.67 3.829 3.39 6.94-.279 2.752-.039 5.504-.039 8.016a3485.809 3485.809 0 0021.177 7.259c.16-.279.319-.439.359-.638 1.675-5.504 3.31-11.048 5.025-16.552.359-1.196-.119-1.754-1.037-2.432-2.752-1.955-5.583-3.829-8.136-6.063-.997-.877-1.794-2.712-1.635-3.948.519-3.789 1.516-7.538.997-11.446-.199-1.316.12-2.752 1.755-2.832 1.715-.08 1.914 1.356 1.835 2.712-.24 3.43-.559 6.86-.758 10.29-.04.678-.12 1.715.239 1.994 2.632 2.034 5.424 3.908 8.455 6.022.638-2.672.997-4.905 1.675-7.019.918-2.752 2.274-3.35 5.026-2.553 4.825 1.556 9.571 2.912 14.716 4.387zm-277.98 52.406c1.634 2.074 3.35 3.948 4.705 6.062 5.105 8.176 10.769 15.953 18.306 22.095 1.436 1.157 2.872 2.433 4.507 3.191 6.621 3.19 13.72 3.828 20.938 3.39 2.274-.12 4.507-.878 6.78-1.237 6.063-1.037 12.125-2.313 18.227-2.991 7.418-.798 14.836-.758 21.935 2.513 1.037-1.396 2.074-2.752 3.071-4.148 2.313-3.31 4.547-6.66 7.019-9.891.399-.518 1.875-.718 2.593-.439 1.715.678 3.31 1.715 4.945 2.593 2.952-3.151 5.903-6.222 8.774-9.333 4.308-4.706 5.664-4.985 10.928-1.396 4.786 3.271 9.333 6.82 13.999 10.21 2.871 2.074 5.823 4.068 8.854 6.142 1.356-2.153 2.632-3.948 3.709-5.823 4.507-7.657 8.973-15.354 13.44-23.012.599-1.037 1.117-2.154 1.875-3.031 1.834-2.193 4.108-2.632 5.703-1.356 2.951 2.353 5.942 4.706 8.973 6.979.479.359 1.356.519 1.915.32a343.411 343.411 0 0012.005-4.786c7.338-3.071 14.676-6.222 21.975-9.333 1.675-.718 3.23-.797 4.905.279 1.715 1.117 3.63 1.915 5.464 2.752 2.792 1.237 5.624 2.353 8.415 3.55l12.204 5.145c2.473-5.265 4.866-10.37 7.219-15.475.399-.877.598-1.874.758-2.831.279-1.755 1.635-2.513 3.151-1.476a15.018 15.018 0 012.632 2.393c3.43 3.908 6.86 7.777 10.13 11.765 1.236 1.516 2.632 2.553 4.547 2.912 4.626.917 9.213 1.994 13.839 2.672 5.304.758 10.649.957 16.033-.24 11.406-2.552 20.1-8.774 26.123-18.665 3.11-5.105 5.783-10.449 8.534-15.753 2.274-4.307 5.544-7.498 10.131-9.053 3.23-1.077 6.58-1.755 9.811-2.593 0-2.831.08-5.942 0-9.053-.16-5.983-.319-11.965-.598-17.907-.08-1.636-.32-3.311-.758-4.906-.16-.598-1.157-1.356-1.795-1.316-5.903.12-11.805.319-17.309 2.991-2.991 1.436-3.151 1.436-2.672 4.746.04.319.159.638.239.957.439 2.832.917 5.624 1.276 8.455.2 1.596-.398 2.952-2.113 3.351-1.316.319-2.633-.878-2.992-2.593-.039-.239-.039-.518-.079-.797-.399-3.111-.798-6.222-1.277-9.692-1.036.598-1.994.838-2.472 1.436-2.672 3.43-5.464 6.82-7.737 10.529-4.667 7.577-9.054 15.355-16.831 20.38-5.623 3.629-11.486 6.142-18.426 6.062-5.304-.04-10.489-.758-15.474-2.393-5.544-1.835-11.127-2.991-16.99-2.553-3.35.24-3.908.639-4.786 3.789-.04.2-.04.399-.119.599-2.074 4.945-2.114 10.568-5.544 15.075-1.276 1.675-2.393 2.154-4.148 1.556-6.301-2.274-12.563-4.627-18.824-6.98-1.556-.598-2.832-.957-4.427.12a458.958 458.958 0 01-16.113 10.289c-4.467 2.752-8.973 5.345-13.52 7.977-1.555.877-3.151.877-4.666-.279-3.949-3.071-7.897-6.102-11.806-9.133-1.635-1.277-3.27-2.553-5.065-3.989-3.509 7.817-7.019 15.236-10.21 22.813-1.914 4.507-3.27 9.253-4.985 13.839-.399 1.077-1.117 2.513-1.994 2.792-.917.319-2.552-.239-3.31-.997-6.341-6.142-12.523-12.443-18.825-18.665-1.994-1.994-4.147-3.829-6.341-5.863-5.025 6.182-10.21 12.484-15.275 18.905-2.233 2.791-4.906 2.632-6.501-.599-.957-1.954-1.874-3.948-2.991-5.862-1.316-2.274-2.832-4.427-5.743-4.627-4.547-.279-9.133-.757-13.68-.478-6.142.359-12.204 1.635-18.346 1.914-7.657.359-15.315-.08-21.736-5.623-2.393 2.393-4.706 4.786-7.099 7.099-2.871 2.792-5.783 5.504-8.694 8.216-1.117 1.076-2.513 1.515-3.71.319-1.196-1.197-.757-2.553.24-3.749.12-.16.279-.319.399-.439 2.552-2.433 5.065-4.906 7.617-7.299 2.553-2.392 5.145-4.746 7.419-6.859-4.786-5.943-9.333-11.566-13.88-17.23-8.694 7.778-17.548 15.674-26.402 23.571zm372.462-82.357c.359 3.509.877 6.979 1.077 10.449.398 7.578.598 15.115.837 22.693.04 1.236.359 1.835 1.715 1.755 5.225-.2 10.529.12 15.674-.558 13.4-1.755 26.801-2.234 40.281-2.633a63.098 63.098 0 0010.609-1.276c1.157-.239 2.951-1.914 2.832-2.712-.24-1.635-2.194-1.635-3.63-1.516-5.623.519-11.207 1.277-16.79 1.715-3.35.28-6.78.519-10.09.16-3.949-.439-5.783-4.507-4.188-8.176 1.475-3.35 4.307-4.586 7.577-4.985 7.219-.878 14.518-1.476 21.736-2.473 2.792-.399 5.464-1.436 8.136-2.393.479-.159.918-1.476.718-2.074-.159-.558-1.276-1.316-1.794-1.236-4.706.837-9.333 1.914-14.039 2.831-6.102 1.197-12.204 2.393-18.346 3.391-2.154.358-4.267-.359-5.304-2.673-.957-2.153-.479-4.786 1.794-6.421 2.274-1.635 4.786-3.15 7.458-3.988 5.943-1.874 12.045-3.23 18.027-4.906.798-.199 1.436-.957 2.114-1.475-.758-.558-1.436-1.356-2.273-1.675-.878-.32-1.994-.439-2.912-.24-1.794.36-3.589.958-5.344 1.596-6.9 2.552-13.759 5.264-20.699 7.657-2.473.838-5.145 1.117-7.777 1.436-1.835.199-3.669-.239-4.547-2.154-.877-1.914-.159-3.629 1.037-5.184 1.277-1.675 2.553-3.39 3.909-5.026 1.954-2.353 4.028-4.586 5.942-6.979.519-.638 1.037-1.914.758-2.393-.518-.837-1.715-1.874-2.552-1.834-1.317.08-2.912.678-3.829 1.595-3.071 3.11-5.982 6.38-8.814 9.731-3.47 4.068-7.458 7.378-12.842 8.535-2.274.558-4.547 1.037-6.461 1.436zm-353.2 58.986c-1.395-1.556-2.472-2.991-3.788-4.188-3.27-2.991-4.547-6.979-5.105-11.087-.519-3.909-.479-7.937-.638-11.925-.16-3.789-.24-7.578-.4-11.327-.079-2.153-.916-3.988-2.392-5.503-.917-.958-1.755-1.197-2.433.279-1.117 2.433-1.835 4.826-1.236 7.657.518 2.433.997 5.225-1.875 6.94-2.792 1.675-5.304 1.037-7.936-2.194-5.026-6.261-9.931-12.603-14.956-18.864-1.835-2.313-3.869-4.427-6.78-5.863-.08 2.792 1.356 4.547 2.712 6.302 4.347 5.703 8.734 11.366 13.001 17.069 1.755 2.313 2.353 5.025 2.074 7.897-.319 3.151-3.55 4.906-6.301 3.39-1.117-.598-2.194-1.316-3.071-2.194-2.353-2.313-4.587-4.825-6.94-7.139-4.307-4.187-8.614-8.415-13.002-12.562-.957-.918-2.352-1.356-3.51-2.035-.159.2-.358.399-.518.599.32.837.479 1.755 1.037 2.433 2.473 3.11 4.906 6.261 7.658 9.133 2.752 2.871 6.022 5.224 8.654 8.176 2.672 2.991 4.906 6.421 7.18 9.731.996 1.436.637 2.991-.48 4.227-1.156 1.277-2.592 1.117-3.988.359a29.41 29.41 0 01-1.874-1.156c-4.985-3.31-9.891-6.661-14.916-9.891-.838-.519-2.074-.359-3.111-.519.28.998.439 2.074.838 3.032.239.558.837 1.036 1.316 1.435 2.712 2.154 5.344 4.387 8.175 6.342 6.98 4.905 14.278 9.412 20.181 15.793 4.068 4.427 8.654 8.375 13.241 12.723 6.5-5.823 12.762-11.367 19.184-17.07zm280.414 27.04c-3.669-.558-7.179-1.077-11.287-1.715 2.712 3.151 5.066 5.903 7.578 8.814 1.316-2.512 2.473-4.706 3.709-7.099zm-207.429 33.621c-2.991-.638-5.503-1.156-8.016-1.675-.08.199-.159.359-.279.558 1.356 2.274 2.752 4.587 4.267 7.139a228.72 228.72 0 014.028-6.022zM493.945 231.757c3.749 3.15 2.512 6.979.279 8.734-2.433 1.914-6.621 1.316-8.934-1.396-2.154-2.513-2.074-5.464.279-7.617.439-.399.997-.918 1.516-.918 3.111 0 3.789-2.512 5.185-4.865-1.676-.519-3.191-.998-4.747-1.436-1.076-.279-2.273-.279-3.31-.718-1.914-.838-3.031-.399-3.908 1.476-2.912 6.181-5.983 12.283-8.854 18.505-3.949 8.495-7.777 16.99-11.646 25.525-.279.598-.598 1.196-.997 1.715-.798 1.037-1.874 1.635-3.111.837-1.236-.757-1.156-1.954-.638-3.19 1.556-3.59 3.071-7.179 4.706-10.769 4.308-9.412 8.615-18.784 13.082-28.157 1.595-3.39 3.589-6.66 5.304-10.01.838-1.556 2.114-1.994 3.669-1.635 4.068.917 8.096 1.954 12.164 2.871.519.12 1.436-.119 1.755-.518 1.117-1.476 2.114-3.071 3.111-4.627.798-1.236 1.875-2.034 3.31-1.236 1.516.838 1.516 2.233.718 3.629-1.077 1.835-2.273 3.59-3.509 5.544 8.335 3.829 16.67 7.657 25.245 11.606.718-1.316 1.356-2.593 2.074-3.829.479-.877.917-1.914 1.675-2.433.758-.478 2.194-.758 2.752-.359.598.399.917 1.955.638 2.712-.758 1.955-1.914 3.749-3.071 5.903 2.154 1.037 4.228 2.074 6.302 3.031 1.555.718 3.15 1.436 4.706 2.154 3.111 1.475 4.108 3.23 2.792 6.381-2.673 6.261-5.504 12.523-8.535 18.625-4.148 8.296-8.495 16.511-12.882 24.687-3.031 5.624-6.222 11.088-9.413 16.591-1.037 1.755-2.672 1.715-4.387 1.117-6.142-2.074-12.363-3.948-18.386-6.301-6.979-2.712-13.799-5.743-20.579-8.894-2.313-1.077-4.188-2.991-6.381-4.387-1.994-1.276-4.148-2.353-6.222-3.55-.478-.279-.957-.438-1.396-.718-1.396-.917-2.034-2.193-1.316-3.749.798-1.635 2.353-1.794 3.789-1.116 2.752 1.316 5.584 2.552 7.977 4.387 4.187 3.23 8.694 5.743 13.639 7.657 8.216 3.191 16.312 6.661 24.488 9.931 1.396.558 2.912.877 4.427 1.077.439.08 1.197-.439 1.436-.878 3.31-6.181 6.541-12.403 9.811-18.625 3.43-6.58 6.94-13.121 10.33-19.742 2.871-5.663 5.583-11.406 8.455-17.349-3.909-1.834-7.498-3.509-11.207-5.264a63.91 63.91 0 00-1.157 2.194c.08.279.08.438.16.518 2.193 2.273 2.672 4.746 1.356 6.78-1.715 2.632-5.345 4.068-7.977 3.111-2.114-.758-3.908-3.988-3.789-6.74.12-2.633 1.197-3.829 4.108-4.587.638-.159 1.396-.119 1.875-.478 1.595-1.117 1.396-2.872-.359-3.709a7284.207 7284.207 0 00-23.85-11.287c-1.037 1.396-1.755 2.552-2.552 3.789zm-4.427 2.592c-.678.479-1.037.758-1.396.997.718.678 1.356 1.436 2.193 1.914.279.16 1.037-.478 1.556-.757-.758-.678-1.516-1.356-2.353-2.154zm32.903 15.235l-.12-1.077c-1.037 0-2.074-.04-3.111-.04.2.639.479 1.875.638 1.835.878-.08 1.755-.439 2.593-.718zM25.245 345.462c-4.945 2.353-7.378-.877-10.01-3.589a13.002 13.002 0 00-1.316-1.237c-2.074-1.874-4.148-3.709-6.182-5.623-.957-.917-2.114-1.835-2.592-2.951-.439-1.077-.678-2.872-.08-3.63 2.193-2.871 4.586-5.663 7.258-8.096 2.912-2.632 6.342-3.151 9.891-.957 1.676 1.037 3.43 1.157 5.345.439 1.356-.519 2.073-1.436 1.675-2.712-.479-1.675-1.037-3.43-2.074-4.786-1.875-2.473-2.154-4.148-.16-6.541a262.437 262.437 0 018.256-9.412c2.273-2.473 4.626-2.672 6.86-.16a330.74 330.74 0 0112.403 14.517c.638.798.718 2.353.519 3.47-.32 2.074.12 2.832 2.193 2.951 2.672.16 4.946 1.237 6.78 3.231 9.333 10.13 18.705 20.3 28.117 30.39 2.752 2.952 2.912 4.029-.04 6.701-4.387 3.948-8.893 7.737-13.24 11.765-3.79 3.51-7.339 7.298-11.088 10.888-1.236 1.196-2.632 2.233-4.068 3.19-2.512 1.676-5.304 1.237-7.418-1.355-6.7-8.176-14.677-14.956-22.573-21.816-2.713-2.353-5.504-4.627-8.216-6.94-1.436-1.236-1.994-3.589-1.276-5.464.358-.558.598-1.156 1.037-2.273zm13.76-44.03c-2.154 2.672-4.108 5.105-6.102 7.577 1.834 2.872 2.991 5.943 2.712 9.413-.24 3.19-1.835 5.424-4.826 6.74-4.068 1.795-7.937 1.515-11.805-.638-.718-.399-2.194-.399-2.832.08-2.233 1.714-4.227 3.748-6.5 5.822.598.479.957.798 1.276 1.077 3.23 2.872 6.54 5.584 9.611 8.655 1.356 1.356 2.353 1.994 4.148.997 1.436-.798 2.991-.559 4.267.518 1.317 1.157 1.715 2.672 1.317 4.347-.28 1.197-.718 2.393-1.037 3.47 11.725 8.734 22.374 18.466 32.065 29.394 8.695-8.416 17.19-16.711 25.525-24.807-5.185-5.704-10.529-11.486-15.793-17.389a480.153 480.153 0 01-11.008-12.842c-.718-.878-1.197-1.237-2.393-1.077-4.826.678-8.774-3.231-8.176-8.056.16-1.316-.24-2.074-1.157-2.912-1.674-1.595-3.31-3.23-4.865-4.945-1.516-1.755-2.872-3.55-4.427-5.424zM75.019 45.666c3.23 7.697 6.38 14.956 9.372 22.334 1.476 3.669 2.752 7.458 4.028 11.207.24.678.479 1.515.28 2.114-.24.797-.758 1.874-1.436 2.113-.758.24-1.875-.16-2.672-.518-.48-.2-.758-.878-.998-1.436-3.39-8.136-6.74-16.272-10.17-24.408-1.076-2.513-2.472-4.826-3.709-7.259-.518-1.077-1.156-2.114-1.515-3.23-.758-2.313-.2-3.988 1.954-5.025 6.9-3.35 13.84-6.66 20.819-9.851 4.467-2.034 8.973-3.949 13.48-5.863a88.809 88.809 0 017.059-2.712c1.994-.678 3.59.28 4.547 1.954 1.196 2.034 2.353 4.188 3.19 6.381 4.068 10.57 8.176 21.138 12.005 31.787 2.194 6.142.838 8.096-6.022 10.29-6.78 2.193-13.6 4.426-20.38 6.7-2.074.678-4.068 1.715-6.182 2.113-.957.16-2.473-.598-3.071-1.435-.877-1.157-.28-2.553.877-3.47.24-.2.519-.439.838-.519 5.145-1.914 10.29-3.868 15.474-5.703a426.283 426.283 0 0112.045-3.988c1.037-.32 1.117-.917.798-1.835-4.388-11.366-8.814-22.733-13.162-34.1-.518-1.315-1.236-1.515-2.433-.996-3.948 1.715-7.896 3.43-11.885 5.105-6.82 2.951-13.64 5.863-20.42 8.854-1.116.438-2.073 1.037-2.711 1.395z" fill="#000"/><path d="M477.154 267.891c-.877-2.832-1.874-5.863-2.752-8.894-.399-1.436-.558-2.951.917-3.988 1.396-.997 2.553-.04 3.869.518 2.513 1.037 5.105 1.835 7.697 2.632.439.12 1.157-.159 1.556-.518 1.954-1.715 3.868-3.43 5.703-5.225 1.077-1.076 1.954-2.393 3.151-3.31.718-.558 2.074-.997 2.831-.718.758.279 1.596 1.635 1.516 2.433-.239 2.872-.798 5.743-1.356 8.615-.758 4.147-2.034 3.988 3.071 5.623 1.954.638 3.908 1.356 5.663 2.353.878.519 1.835 1.875 1.715 2.712-.12.878-1.356 1.915-2.313 2.273-3.031 1.077-6.182 1.915-9.333 2.792-1.196.359-1.316 1.037-1.236 2.234.239 3.509.319 7.019.16 10.529-.04.957-1.037 2.393-1.915 2.632-.837.239-2.313-.439-3.031-1.157-2.433-2.512-4.626-5.304-7.019-7.857-.479-.518-1.396-.917-2.114-.997-3.151-.239-6.341-.359-9.532-.438-.997-.04-1.954.319-2.951.359-1.556.079-3.191-.12-3.949-1.715-.757-1.596.2-2.792 1.356-3.829a508.59 508.59 0 008.296-7.059zm19.024-10.649c-2.513 1.675-4.826 3.39-7.338 4.786-1.037.598-2.473.758-3.709.678-1.556-.12-3.032-.678-5.185-1.157 1.077 2.154 1.795 3.829 2.752 5.385 1.435 2.313 1.077 3.669-1.356 4.945-1.835.957-3.55 2.114-5.823 3.51 1.356.159 2.074.319 2.792.319 2.393.04 4.786.119 7.178-.04 1.715-.12 2.673.638 3.63 1.874 1.276 1.635 2.712 3.111 4.068 4.667.199-.08.359-.2.558-.28-.279-1.914-.598-3.868-.877-5.783-.359-2.712.04-3.35 2.512-4.427a763.23 763.23 0 015.345-2.273c-1.556-.877-2.912-1.635-4.268-2.473-1.595-.957-2.273-2.273-1.635-4.187.598-1.875.917-3.709 1.356-5.544zM91.37 46.503c6.142.28 11.606 1.795 16.99 3.749 2.034.758 2.872 2.552 1.955 4.507-1.077 2.313-2.353 4.586-3.909 6.66-1.595 2.114-3.509 3.988-5.344 5.863-2.513 2.552-5.145 2.074-6.62-1.197-2.154-4.825-4.268-9.691-6.222-14.597-1.197-2.951.359-4.945 3.15-4.985zm13.441 8.216c-3.869-.958-7.02-1.715-10.729-2.593 1.596 3.59 2.952 6.66 4.507 10.13 2.114-2.632 3.989-4.865 6.222-7.537zM84.75 188.963c.439-1.236.678-2.552 1.316-3.709.917-1.715 3.829-1.834 4.906-.199a12.981 12.981 0 011.595 3.829c.399 1.555.04 3.27-1.436 3.988-1.077.518-2.672.479-3.868.12-1.755-.559-2.433-2.114-2.513-4.029zM429.934 132.53c0-2.393 1.475-4.028 3.629-4.028 1.874 0 3.669 2.114 3.629 4.227-.04 1.795-2.074 3.949-3.789 3.989-2.034.04-3.469-1.675-3.469-4.188zM75.298 355.194c-.758.957-1.236 2.114-1.954 2.313-.997.239-2.473.12-3.23-.479-2.394-1.834-4.627-3.988-6.86-6.062-3.231-3.031-6.462-6.102-9.652-9.173-.798-.797-1.675-1.635-2.074-2.632-.319-.758-.24-2.074.2-2.672.398-.519 1.675-.638 2.472-.519.798.12 1.556.718 2.194 1.277 5.583 4.905 11.167 9.771 16.67 14.756.878.798 1.397 1.954 2.234 3.191zM63.174 365.164c.08 2.234-1.077 3.39-2.672 3.071-.917-.159-1.954-.598-2.632-1.236a887.653 887.653 0 01-14.517-13.002c-.958-.877-1.915-1.914-2.433-3.111-.4-.877-.4-2.273.08-3.071.717-1.156 2.073-.917 3.19-.239.32.2.678.439.957.718 5.345 4.666 10.689 9.293 15.953 14.039.997.917 1.635 2.193 2.074 2.831zM47.779 342.511c.717.438 1.356.718 1.834 1.156 5.504 5.065 11.008 10.13 16.432 15.315.478.479.718 1.875.359 2.393-.838 1.157-1.915.479-2.712-.319-4.467-4.227-8.894-8.535-13.36-12.762-1.118-1.037-2.274-2.074-3.271-3.191-.32-.359-.479-1.077-.36-1.595.04-.399.679-.638 1.078-.997zM43.631 329.23c-1.635-.08-2.752-1.675-1.874-2.951 1.276-1.795 2.871-3.43 4.546-4.826.479-.399 1.955-.08 2.633.399.478.359.797 1.874.478 2.233-1.595 1.795-3.39 3.39-5.145 5.026-.12.159-.478.119-.638.119zM33.262 340.398c-2.274 0-3.35-1.955-2.234-3.55.838-1.236 1.875-2.473 3.111-3.31.678-.479 2.274-.559 2.792-.12.598.558.997 2.114.638 2.872-.917 1.994-2.473 3.549-4.307 4.108z" fill="#000"/></g><defs><clipPath id="clip0"><path fill="#fff" d="M0 0h543v425.586H0z"/></clipPath></defs></svg>