<svg width="670" height="395" viewBox="0 0 670 395" fill="none"
    xmlns="http://www.w3.org/2000/svg">
    <path d="M399.917 273.834C402.123 272.993 403.962 271.47 405.958 270.314C409.478 268.212 413.419 268.58 415.993 271.312C418.305 273.729 418.515 277.932 416.308 281.242C414.049 284.657 411.265 287.704 408.533 290.698C407.902 291.381 406.904 291.802 406.904 292.957C408.165 293.64 408.69 292.59 409.268 291.959C411.79 289.437 414.417 286.968 417.359 284.972C420.616 282.713 424.399 282.66 427.131 284.657C429.6 286.443 430.598 290.331 429.442 293.956C428.181 297.948 425.66 301.206 423.085 304.358C416.518 312.501 409.426 320.172 402.333 327.842C402.018 328.21 401.493 328.525 401.755 329.313C404.33 329.05 406.694 327.317 409.478 327.422C409.426 329.156 407.692 330.049 407.692 331.677C407.692 331.73 407.692 331.625 407.745 331.572C407.692 331.572 407.639 331.625 407.587 331.677C407.534 331.677 407.534 331.782 407.534 331.835C407.587 331.835 407.639 331.835 407.692 331.73C409.899 330.994 411.37 329.261 412.998 327.895C417.201 324.427 422.087 322.116 426.553 319.068C426.816 318.858 427.078 318.648 427.393 318.438C424.714 317.335 424.609 316.757 426.133 314.55C426.973 313.342 427.604 311.976 428.444 310.768C430.493 307.931 433.856 307.142 436.167 308.929C438.636 310.768 439.319 314.498 436.745 316.757C433.593 319.489 432.122 322.956 430.441 326.476C427.971 331.677 423.873 335.67 419.986 339.768C416.256 343.656 412.63 347.701 408.69 351.431C401.913 357.841 395.031 364.145 388.096 370.397C386.887 371.5 385.364 372.289 383.893 373.024C377.326 376.229 372.124 372.919 372.229 365.196C370.653 366.457 369.235 367.508 367.921 368.663C363.824 372.341 359.831 376.124 355.733 379.749C352.581 382.533 348.903 383.742 344.858 381.85C341.338 380.222 339.131 376.176 339.499 372.394C339.762 369.924 340.707 367.718 342.021 365.616C342.599 364.671 343.544 363.883 343.649 362.674C343.702 362.622 343.754 362.622 343.807 362.569C343.859 362.569 343.807 362.464 343.859 362.464C343.807 362.517 343.702 362.622 343.649 362.674C340.024 364.618 337.135 367.56 333.93 370.029C326.942 375.388 320.901 381.903 313.756 387.051C310.971 389.1 307.766 388.995 304.824 387.472C301.725 385.896 300.096 383.269 299.991 379.644C299.886 375.966 301.777 373.339 304.089 370.923C308.239 366.667 312.495 362.517 316.698 358.261C317.276 357.683 318.116 357.21 318.326 355.897C316.54 356.527 315.332 357.578 314.176 358.734C309.08 363.83 303.984 368.874 298.94 373.97C295 377.963 290.849 381.64 286.594 385.265C283.179 388.155 279.239 388.628 275.298 387.209C271.358 385.843 269.572 382.376 269.309 378.435C269.047 375.283 270.57 372.551 272.724 370.24C273.827 369.084 274.931 368.033 276.034 366.877C276.402 366.509 276.927 366.194 276.664 365.564C276.402 364.986 275.771 365.196 275.246 365.196C274.458 365.143 273.67 365.143 272.882 365.196C267.838 365.459 263.583 360.52 264.738 354.899C264.791 354.584 264.738 354.268 264.738 353.848C261.954 356.422 258.959 358.734 256.543 361.518C252.97 365.564 250.606 370.555 246.876 374.495C243.198 378.383 238.207 379.539 234.897 377.437C230.694 374.758 229.118 369.084 231.115 363.935C232.848 359.469 235.843 355.844 238.522 351.957C249.24 336.458 263.162 323.849 276.559 310.873C291.112 296.74 305.297 282.187 319.797 268.002C320.113 267.687 320.428 267.372 320.323 266.636C318.221 267.319 316.698 268.895 315.069 270.156C304.719 278.457 294.79 287.283 285.648 296.898C279.029 303.885 272.461 310.873 265.789 317.808C255.229 328.735 243.093 337.614 230.064 345.337C218.716 352.062 207.893 359.469 198.121 368.453C191.239 374.81 185.67 382.323 178.998 388.838C176.581 391.202 174.48 393.776 170.697 394.249C165.443 394.932 160.873 391.36 160.873 386.106C160.873 385.055 160.873 384.004 160.873 382.743C159.559 383.269 158.981 384.057 158.719 385.318C157.878 389.416 155.146 391.885 151.206 392.305C147.581 392.725 144.271 391.254 142.379 387.84C139.858 383.269 137.861 378.54 139.332 373.129C140.225 369.872 142.222 367.35 145.216 366.194C151.258 363.883 154.41 358.524 158.561 354.268C163.184 349.54 166.126 343.656 169.699 338.192C171.222 335.88 171.905 333.253 172.693 330.679C173.271 328.893 174.48 327.474 175.005 325.741C175.163 325.53 175.268 325.373 175.425 325.163C175.373 325.11 175.268 325.058 175.215 325.058C175.163 325.268 175.11 325.53 175.005 325.741C174.112 325.688 173.587 326.371 173.061 326.896C166.441 333.359 159.769 339.821 153.15 346.283C149.84 349.54 146.372 352.535 142.485 355.109C141.171 356.002 140.278 356.948 140.331 358.681C140.488 362.832 138.387 365.879 134.709 367.297C130.821 368.716 128.3 371.395 126.198 374.653C123.781 378.33 121.207 381.745 117.004 383.742C115.008 384.687 114.22 387.209 112.118 388.417C109.123 390.099 104.921 390.361 102.714 388.68C99.0889 385.896 97.9331 382.323 99.4566 378.278C100.718 374.863 103.082 372.078 105.446 369.452C110.437 363.883 114.797 357.683 121.47 353.795C122.31 353.323 122.573 352.482 122.52 351.536C122.31 347.123 124.832 344.181 128.037 341.712C129.088 340.871 129.981 340.031 130.716 338.927C135.445 331.52 141.486 325.268 147.213 318.701C153.517 311.503 159.559 304.043 165.496 296.53C173.009 286.968 181.362 278.195 190.451 270.104C193.656 267.267 196.598 264.167 199.803 261.278C209.049 253.029 218.348 244.833 227.332 236.322C234.635 229.44 241.78 222.295 248.715 214.992C258.014 205.22 267.575 195.764 277.032 186.202C277.558 185.677 278.346 185.309 278.241 184.048C275.351 185.466 272.672 186.938 270.465 189.144C266.21 193.347 262.059 197.55 257.804 201.753C245.825 213.626 232.743 224.239 218.979 233.906C208.419 241.313 197.701 248.511 187.141 255.919C183.621 258.388 180.837 261.75 177.947 264.903C174.217 268.948 170.644 273.098 167.072 277.249C160.873 284.446 154.726 291.697 148.474 298.842C144.166 303.78 139.753 308.614 135.497 313.552C128.142 322.01 120.314 330.154 113.221 338.875C112.223 340.083 111.015 341.081 109.964 342.29C103.449 349.592 96.7247 356.685 89.5271 363.305C80.911 371.185 71.2967 377.647 61.5248 383.847C57.2168 386.579 51.5953 385.213 48.8109 381.483C45.7637 377.437 46.3416 372.341 50.1243 368.401C53.6443 364.776 58.0574 362.412 62.2078 359.68C67.5666 356.212 70.929 350.958 75.1845 346.493C75.92 345.705 75.3946 345.022 75.0269 344.339C73.083 340.819 73.2932 337.299 75.2896 333.884C77.6537 329.891 80.0704 325.951 82.5397 322.063C83.2752 320.907 83.5904 320.172 82.4346 318.963C78.6519 315.023 78.4943 309.769 82.0669 305.514C83.4328 303.885 84.5361 301.889 86.5325 300.785C87.0579 300.47 87.4782 299.735 87.6358 299.052C89.317 293.22 93.2573 288.86 97.2501 284.551C100.612 280.926 104.132 277.354 108.02 274.149C113.064 269.946 116.006 264.062 119.841 258.913C122.888 254.815 125.778 250.56 128.3 245.884C126.461 247.408 124.517 248.879 122.836 250.56C114.797 258.703 106.812 266.899 98.7737 275.095C97.2501 276.671 95.7791 278.247 93.9403 279.508C92.2591 280.664 91.3659 282.45 90.5779 284.394C87.8459 291.066 82.9075 296.005 77.1284 299.997C74.0287 302.099 69.6681 301.311 67.1463 298.999C63.7314 295.847 62.8383 291.802 64.6771 287.599C65.6227 285.445 66.6735 283.343 68.2496 281.504C70.5087 278.93 72.2424 276.093 73.083 272.731C73.8711 269.578 76.3403 267.424 78.4418 265.113C79.7027 263.694 80.9636 262.276 82.0143 260.542C80.1755 260.122 78.757 261.383 77.0758 261.067C71.6645 260.017 68.6699 255.183 70.3511 249.877C71.7696 245.359 74.8693 241.839 77.5487 238.109C77.8114 237.741 78.4418 237.478 77.969 236.638C76.6555 237.005 75.92 238.161 75.0794 239.054C72.0848 242.207 68.88 244.939 64.6771 246.304C62.6807 246.987 61.5774 249.299 59.0031 249.194C55.378 249.036 53.4341 247.986 52.0682 244.781C51.0174 242.259 51.7529 238.897 53.7493 236.743C55.378 235.009 57.4795 234.221 59.6335 233.433C61.4198 232.802 62.8908 231.857 64.2042 230.543C69.2478 225.71 74.3964 220.982 78.9672 215.728C84.6412 209.266 90.3152 202.699 95.9892 196.237C100.087 191.561 104.08 186.885 108.283 182.314C117.319 172.49 126.408 162.718 135.707 153.104C141.644 146.957 147.791 140.968 153.675 134.768C154.305 134.085 155.251 133.612 155.514 132.246C153.202 133.034 151.679 134.663 149.997 135.924C140.383 143.279 130.769 150.687 121.732 158.725C115.165 164.609 108.02 169.81 101.926 176.167C95.3588 182.892 89.2119 190.037 83.4328 197.497C80.4382 201.28 77.3385 205.115 72.1373 206.271C66.6735 207.48 60.9469 203.119 60.5266 197.497C60.1589 192.979 61.8401 189.249 64.0992 185.677C68.1971 179.267 72.9779 173.435 78.074 167.761C81.6991 163.769 85.6919 160.144 88.4764 155.205C87.0053 156.361 85.5343 157.517 84.1158 158.673C80.9636 161.299 78.1791 164.347 74.2388 165.923C70.1935 167.551 66.4108 169.758 62.1553 171.019C58.2675 172.175 54.695 171.019 52.7511 167.867C50.7022 164.609 51.07 160.459 54.0646 157.832C57.2168 155.047 57.8472 151.002 60.0013 147.745C64.3618 141.073 69.1953 134.821 74.2388 128.726C78.3893 123.683 82.7498 118.797 87.5833 114.331C92.0489 110.181 96.7247 106.293 102.084 103.193C103.449 102.405 104.973 101.932 106.497 101.67C109.964 101.092 112.223 104.875 110.647 108.605C108.756 113.175 105.919 117.168 102.609 120.793C99.2465 124.471 95.9367 128.148 92.6268 131.879C92.4167 132.141 92.2065 132.404 92.5743 133.034C93.9928 132.194 95.4638 131.406 96.8823 130.46C105.078 125.101 113.221 119.743 119.946 112.44C121.785 110.443 123.046 108.027 125.2 106.346C125.883 109.971 127.932 112.44 131.609 113.07C135.445 113.753 138.649 112.492 141.066 109.34C141.486 108.815 141.802 107.974 142.59 108.184C143.325 108.342 143.115 109.235 143.22 109.76C144.061 114.279 150.208 117.694 154.936 116.275C157.983 115.382 160.4 113.596 162.449 111.284C163.867 109.708 164.655 108.972 165.811 111.704C167.177 114.962 169.961 116.643 173.692 116.853C178.42 117.063 181.677 114.541 184.462 111.284C185.985 109.55 186.773 109.971 187.772 111.547C186.353 111.809 185.565 112.597 185.67 114.069C185.88 116.223 184.987 117.956 183.779 119.637C177.001 128.726 169.436 137.132 161.871 145.538C155.041 153.104 147.791 160.354 140.803 167.761C135.182 173.698 129.56 179.687 123.991 185.677C123.098 186.622 122.153 187.621 121.575 189.669C122.941 188.724 123.781 188.146 124.622 187.621C129.665 184.573 133.553 180.16 137.966 176.325C142.485 172.332 147.055 168.339 150.943 163.769C156.092 157.832 161.24 151.948 166.862 146.431C169.541 143.805 172.273 141.178 174.795 138.393C181.782 130.67 189.243 123.473 196.755 116.275C197.018 116.485 197.333 116.643 197.596 116.906C202.009 121.003 206.737 121.108 211.361 117.221C213.147 115.697 214.933 114.174 216.72 112.65C217.14 116.643 214.723 119.217 212.096 121.529C207.368 125.679 203.112 130.145 199.015 135.871C201.169 135.294 201.799 133.98 202.797 133.192C205.582 130.828 208.576 129.042 212.306 130.513C216.982 132.351 218.663 137.395 216.037 141.808C214.933 143.647 213.777 145.538 212.096 147.009C211.518 147.535 210.888 148.06 210.888 148.953C210.73 149.111 210.52 149.321 210.363 149.479C210.31 149.531 210.257 149.531 210.205 149.584C210.152 149.584 210.205 149.689 210.152 149.689C210.205 149.636 210.31 149.531 210.363 149.479C210.52 149.321 210.73 149.111 210.888 148.953C212.569 148.743 213.252 147.272 214.303 146.274C216.877 143.805 219.241 141.178 222.604 139.654C226.859 137.71 231.062 138.131 234.267 141.073C236.999 143.594 237.419 147.377 235.475 151.948C235.318 152.316 235.213 152.788 235.108 153.156C235.055 153.209 235.002 153.209 234.95 153.261C234.897 153.261 234.95 153.366 234.897 153.419C234.95 153.366 235.055 153.261 235.108 153.209C238.102 151.738 240.204 149.111 242.883 147.167C246.193 144.803 249.293 142.071 252.497 139.549C252.182 142.334 253.075 144.908 253.811 147.482C254.967 151.58 256.805 153.156 260.43 153.471C263.267 153.734 266.21 151.685 267.575 148.323C267.891 147.535 268.048 147.009 269.047 146.852C272.777 146.169 276.086 144.382 279.344 142.491C280.605 141.756 281.655 140.547 283.547 140.285C281.76 143.437 279.554 146.011 278.608 149.216C277.295 153.734 279.081 157.412 283.494 159.04C283.442 160.616 281.393 161.037 281.393 162.665C281.34 162.718 281.288 162.823 281.288 162.876C281.34 162.823 281.34 162.718 281.393 162.665C284.282 162.613 286.752 161.457 289.168 159.933C296.944 155.047 303.931 149.163 311.444 143.91C316.172 140.652 320.848 137.29 326.049 134.821C325.892 136.082 325.104 137.08 324.631 138.183C323.37 141.02 323.843 144.33 325.892 146.431C327.993 148.585 331.461 149.163 334.35 147.797C337.713 146.169 340.865 144.067 343.912 141.966C348.115 139.076 352.318 136.187 356.521 133.297C354.524 137.658 351.32 141.125 347.8 144.172C341.916 149.321 335.821 154.312 329.779 159.25C321.058 166.396 312.705 173.856 304.457 181.526C298.52 187.043 293.214 193.242 287.592 199.126C285.175 201.648 282.706 204.17 280.237 206.639C276.139 210.737 272.041 214.782 267.996 218.933C263.635 223.346 259.38 227.864 255.124 232.382C254.756 232.75 254.021 233.065 254.546 234.116C256.91 232.592 259.17 231.121 261.534 229.65C267.05 226.235 272.146 222.505 276.507 217.514C283.337 209.686 291.112 202.751 299.098 196.079C305.455 190.773 311.707 185.361 318.011 179.95C332.039 167.919 345.278 154.995 360.881 144.908C369.287 139.496 378.324 135.399 387.623 131.721C390.723 130.513 393.98 130.197 397.29 131.458C401.808 133.139 404.33 137.763 402.911 142.386C402.491 143.752 402.333 145.065 402.176 146.484C401.755 150.372 398.761 152.368 395.819 154.259C394.925 154.837 393.665 155.047 393.507 156.729C395.556 155.993 397.132 154.575 399.339 154.68C403.016 154.837 405.906 156.256 406.904 159.198C408.06 162.56 407.902 165.818 405.328 168.76C402.911 171.492 399.654 173.12 396.922 175.379C392.719 178.794 388.831 182.577 384.786 186.149C376.853 193.084 368.92 200.072 361.144 207.217C356.941 211.052 352.791 214.94 348.535 218.67C340.917 225.342 333.352 232.067 325.839 238.792C321.846 242.312 317.959 245.937 314.018 249.509C311.076 252.241 308.134 254.973 305.245 257.758C304.772 258.23 304.141 258.598 304.141 259.912C306.926 257.863 309.448 255.971 311.969 254.133C323.422 245.674 335.453 238.109 347.537 230.648C357.624 224.396 367.449 217.829 376.117 209.581C381.529 204.432 386.414 198.969 391.248 193.347C393.244 191.035 395.608 189.092 398.235 187.463C400.862 185.834 403.699 185.151 406.746 186.149C407.955 186.57 408.9 185.939 409.426 184.994C410.371 183.312 411.948 182.367 413.366 181.211C415.888 179.162 418.777 178.847 421.719 180.265C424.346 181.579 425.292 183.838 425.397 186.727C425.66 192.874 422.14 197.287 418.62 201.595C412.105 209.686 404.014 216.096 396.344 222.925C389.409 229.072 382.632 235.324 375.644 241.419C370.075 246.252 365.084 251.663 359.831 256.759C359.095 257.495 358.097 258.02 358.097 259.281C357.939 259.439 357.729 259.649 357.572 259.807C357.519 259.859 357.467 259.964 357.467 260.017C357.519 259.964 357.572 259.859 357.572 259.807C357.729 259.649 357.939 259.439 358.097 259.281C362.09 257.18 365.4 254.027 369.077 251.401C380.268 243.415 391.511 235.482 402.543 227.286C409.321 222.242 415.73 216.779 422.402 211.577C425.082 209.476 427.814 207.585 431.596 207.742C435.169 207.9 437.428 209.476 439.057 212.523C440.79 215.78 440.107 218.933 437.796 221.192C433.12 225.815 429.18 231.016 424.504 235.639C422.77 237.373 420.984 239.054 419.04 240.525C417.254 241.839 417.727 242.574 419.04 243.835C421.982 246.672 422.56 250.35 420.511 253.555C419.355 255.393 417.674 256.864 415.94 258.178C410.319 262.486 405.591 267.792 400.6 272.783C400.127 272.941 400.074 273.414 399.917 273.834C399.811 273.886 399.759 273.992 399.706 274.044C399.759 273.992 399.864 273.886 399.917 273.834ZM252.813 234.431C252.865 234.379 252.918 234.273 252.97 234.221C252.918 234.273 252.865 234.379 252.813 234.431C252.76 234.536 252.76 234.589 252.707 234.641C252.76 234.589 252.813 234.484 252.813 234.431ZM320.06 354.741C319.85 354.794 319.587 354.899 319.377 354.951C319.43 355.004 319.482 355.109 319.482 355.161C319.692 355.004 319.902 354.846 320.06 354.741C320.113 354.689 320.113 354.583 320.165 354.531C320.165 354.583 320.113 354.636 320.06 354.741ZM168.806 372.078C169.909 372.078 170.487 371.238 171.117 370.502C176.739 364.198 182.465 357.946 187.877 351.484C189.505 349.54 191.712 348.069 192.868 345.652C192.027 345.284 191.712 345.81 191.397 346.125C185.197 352.272 178.893 358.314 173.166 364.933C171.275 367.035 169.594 369.294 168.806 372.078C168.385 372.341 167.86 372.551 168.018 373.182C168.018 373.287 168.28 373.392 168.385 373.392C168.963 373.129 168.753 372.551 168.806 372.078ZM203.848 297.213C209.627 292.905 215.248 288.387 220.187 283.08C220.607 282.66 221.185 282.03 220.555 281.504C219.924 280.979 219.504 281.767 219.084 282.187C214.828 286.075 210.573 289.963 206.37 293.903C205.319 294.849 204.111 295.637 203.848 297.213ZM208.524 151.58C208.524 151.527 208.576 151.422 208.576 151.37C208.576 151.37 208.471 151.317 208.419 151.317C208.419 151.37 208.366 151.475 208.366 151.527C208.314 151.527 208.471 151.58 208.524 151.58ZM197.911 137.448C197.964 137.395 198.069 137.395 198.069 137.342C198.069 137.29 198.069 137.237 198.069 137.132C197.964 137.185 197.911 137.237 197.806 137.237C197.859 137.342 197.911 137.395 197.911 137.448ZM398.498 275.2C398.498 274.99 398.445 274.937 398.235 275.095C398.235 275.095 398.288 275.2 398.288 275.305C398.34 275.252 398.393 275.252 398.498 275.2Z" fill="#FAF1D6"/>
    <path d="M216.562 112.545C214.775 114.068 212.989 115.592 211.203 117.116C206.58 121.003 201.851 120.898 197.438 116.8C197.175 116.59 196.86 116.38 196.598 116.17C195.967 114.646 195.967 112.44 193.55 112.597C191.449 112.702 189.61 112.019 187.719 111.442C186.721 109.865 185.933 109.445 184.409 111.179C181.625 114.384 178.367 116.958 173.639 116.748C169.961 116.59 167.177 114.909 165.758 111.599C164.602 108.867 163.814 109.603 162.396 111.179C160.347 113.49 157.93 115.224 154.883 116.17C150.155 117.588 144.008 114.121 143.167 109.655C143.062 109.13 143.272 108.237 142.537 108.079C141.696 107.869 141.381 108.71 141.013 109.235C138.597 112.387 135.392 113.648 131.557 112.965C127.879 112.282 125.83 109.865 125.147 106.24C125.147 105.19 125.305 104.139 125.147 103.088C124.989 102.09 126.355 100.882 125.2 100.304C124.674 100.041 123.413 101.039 122.52 101.565C118.843 103.613 115.218 103.876 111.803 100.987C108.388 98.0971 108.283 94.3144 109.386 90.4267C110.857 85.2255 112.853 80.1819 115.218 74.9808C113.326 75.1384 111.75 75.9264 110.069 75.8213C105.236 75.6112 101.19 70.7252 102.293 65.9969C103.975 58.5892 106.601 51.4441 109.438 44.4041C112.853 35.8931 116.584 27.5397 120.209 19.1338C121.154 16.9798 122.52 14.9308 124.727 13.8801C126.881 12.8819 129.14 12.8293 131.084 14.6681C133.133 16.5595 133.711 19.0812 132.712 21.8657C131.924 24.0723 130.611 26.1212 130.453 28.5379C130.348 28.7481 130.191 28.9057 130.086 29.1158C130.086 29.1158 130.191 29.2209 130.296 29.2734C130.348 29.0633 130.453 28.8006 130.506 28.5905C133.448 26.6991 135.024 23.5994 137.073 20.9726C142.432 14.1428 148.526 8.04844 154.725 2.05921C156.932 -0.0422749 159.664 -0.462572 162.501 0.745782C165.496 2.00667 166.704 4.37084 166.756 7.57561C166.914 13.092 164.235 17.6627 161.713 22.1809C156.197 32.0054 150.628 41.7247 145.059 51.4967C144.849 51.8644 144.796 52.3372 144.691 52.705C144.533 52.9152 144.428 53.0728 144.271 53.2829C144.323 53.3355 144.428 53.388 144.481 53.388C144.533 53.1778 144.586 52.9152 144.691 52.705C147.318 51.4441 148.526 48.7647 150.207 46.6632C157.825 37.3642 163.657 26.9618 168.963 16.1917C170.749 12.5666 172.588 8.99411 174.795 5.68427C176.844 2.58458 179.838 1.11354 183.568 1.74399C186.248 2.21682 188.192 3.84547 189.032 6.47233C189.978 9.62456 189.137 12.6717 187.876 15.6138C187.456 16.5595 187.088 17.5577 186.721 18.5033C186.616 18.7135 186.458 18.8711 186.353 19.0812C186.405 19.1338 186.51 19.1863 186.563 19.2389C186.616 19.0287 186.721 18.766 186.773 18.5559C187.771 18.6084 188.349 17.8203 189.032 17.4001C191.974 15.5613 195.389 15.4036 197.596 17.0848C200.643 19.3965 201.694 22.4962 200.59 26.0687C199.592 29.2734 197.858 32.1104 196.282 35C194.181 38.8877 192.027 42.7755 190.398 46.9259C189.978 47.1361 189.873 47.5564 189.873 47.9767C189.768 48.1868 189.61 48.3444 189.505 48.5546C189.558 48.6071 189.663 48.6596 189.715 48.6596C189.768 48.4495 189.82 48.1868 189.925 47.9767C190.398 47.7665 190.451 47.3988 190.451 46.9259C192.447 46.0328 193.078 43.9838 194.233 42.4603C197.648 37.7319 200.643 32.6358 204.898 28.5905C209.889 23.8621 217.56 25.6484 219.136 31.9003C219.766 34.317 219.241 36.5761 218.243 38.7827C217.56 40.3588 217.823 41.0943 219.661 41.4095C226.071 42.5128 228.645 49.0799 226.491 54.2286C225.651 56.1725 225.125 58.1689 224.075 60.0077C223.497 61.0059 223.707 61.3736 224.915 61.7414C231.009 63.6327 233.269 68.256 231.43 74.4028C229.854 79.7091 227.227 84.5425 224.968 89.5861C224.337 91.0046 223.969 92.1604 224.757 93.7365C226.649 97.5717 225.02 101.039 223.076 104.349C221.185 107.344 218.663 109.76 216.562 112.545Z" fill="#C3E7ED"/>
    <path d="M283.336 158.83C278.923 157.201 277.137 153.524 278.45 149.006C279.396 145.748 281.603 143.227 283.389 140.074C281.498 140.337 280.447 141.598 279.186 142.281C275.929 144.172 272.619 145.958 268.889 146.641C267.891 146.799 267.733 147.324 267.418 148.112C266.052 151.475 263.11 153.524 260.273 153.261C256.595 152.946 254.809 151.37 253.653 147.272C252.917 144.698 252.024 142.123 252.34 139.339C254.073 135.293 257.331 132.982 261.271 131.406C263.32 130.618 264.528 128.936 265.789 127.203C269.729 121.896 273.775 116.643 277.715 111.336C278.24 110.601 279.081 109.918 279.028 108.867C279.239 108.815 279.501 108.71 279.711 108.657C279.659 108.605 279.606 108.499 279.554 108.447C279.344 108.552 279.186 108.71 278.976 108.815C276.244 110.023 273.512 111.126 270.833 112.387C266.84 114.226 263.74 113.911 261.376 111.442C259.117 109.077 259.064 106.083 260.693 102.195C265.316 90.9521 272.041 80.97 278.398 70.7253C280.394 67.573 281.97 64.1581 283.757 60.8483C285.543 57.4859 289.01 56.0149 292.058 57.3283C295.367 58.7993 296.838 62.1092 295.262 65.8918C292.793 71.776 289.904 77.45 286.384 82.8088C284.702 85.3306 283.179 87.9049 281.76 90.6368C285.28 89.3234 288.065 87.0118 290.954 84.9103C299.728 78.4482 308.344 71.7235 316.172 64.1056C318.852 61.4787 322.004 60.8483 324.788 62.2142C327.152 63.3701 328.518 65.9969 328.413 68.939C328.361 70.3575 327.783 71.5133 326.995 72.5641C321.216 80.4446 314.964 87.9574 308.607 95.3126C305.087 99.4105 301.672 103.614 298.257 107.764C297.942 108.132 297.311 108.552 297.732 109.077C298.257 109.708 298.835 109.182 299.308 108.762C302.092 106.345 304.824 103.981 307.609 101.565C313.861 96.0482 319.692 90.164 325.471 84.1748C329.569 79.9193 333.457 75.4011 337.292 70.8829C341.18 66.3121 346.801 65.419 350.321 68.9915C352.213 70.9354 352.896 73.142 352.318 75.9264C351.162 81.4954 347.379 85.4882 344.385 89.9539C342.336 93.001 340.024 95.8906 337.87 98.8326C338.08 98.9902 338.238 99.2004 338.448 99.358C340.549 97.5192 342.756 95.7329 344.805 93.8416C352.108 86.9067 359.725 80.3921 366.66 73.0894C369.392 70.2524 372.86 69.2017 376.747 70.2524C381.213 71.4082 383.262 75.8214 381.686 80.7073C380.215 85.2781 377.01 88.8506 374.016 92.4756C367.081 100.777 360.041 108.972 353.053 117.168C352.633 117.641 351.53 118.271 353.106 118.797C361.091 121.634 362.195 125.364 356.888 131.931C356.468 132.141 356.363 132.509 356.363 132.982C352.16 135.871 347.957 138.761 343.754 141.65C340.654 143.752 337.555 145.853 334.192 147.482C331.303 148.901 327.835 148.323 325.734 146.116C323.685 144.015 323.212 140.652 324.473 137.868C324.998 136.764 325.786 135.766 325.892 134.505C326.049 134.348 326.259 134.138 326.417 133.98C328.308 131.511 329.989 128.884 330.777 125.837C327.73 127.886 324.893 129.987 322.161 132.246C312.127 140.337 302.145 148.48 292.058 156.466C289.588 158.462 286.751 160.038 283.336 158.83Z" fill="#C3E7ED"/>
    <path d="M464.012 174.539C461.438 175.275 459.441 177.376 456.499 177.218C452.454 177.008 448.829 176.01 446.675 172.332C444.416 168.392 445.729 164.609 448.198 161.352C454.293 153.314 460.65 145.433 467.585 138.078C470.054 135.451 472.365 132.772 475.675 131.248C478.617 129.882 481.665 130.565 483.241 132.719C485.132 135.294 484.922 138.288 482.715 140.915C479.983 144.173 477.251 147.482 474.52 150.74C474.309 151.002 474.099 151.265 474.362 151.896C477.146 150.95 479.668 149.479 482.242 148.113C485.395 146.484 488.494 144.593 491.647 142.964C494.589 141.441 497.478 141.861 499.317 144.015C500.788 145.749 500.788 149.059 499.107 151.318C495.639 155.993 491.962 160.564 488.442 165.187C487.706 166.133 486.813 167.026 486.656 168.287C486.603 168.34 486.551 168.445 486.551 168.497C486.603 168.445 486.656 168.34 486.656 168.287C490.754 166.186 494.536 163.506 498.161 160.669C500 159.251 503.205 158.778 504.728 159.881C506.882 161.352 507.986 164.189 506.83 166.606C503.888 172.648 500.368 178.427 496.165 183.575C493.38 186.99 489.65 186.36 487.496 182.42C486.498 180.633 485.92 181.001 484.607 182.104C479.721 186.202 475.045 190.51 469.213 193.295C465.483 195.081 462.541 194.871 460.229 192.559C457.97 190.3 457.708 187.2 459.284 183.575C460.597 180.371 462.909 177.796 464.012 174.539C464.222 174.381 464.38 174.224 464.537 174.014C464.59 173.961 464.643 173.856 464.643 173.803C464.59 173.856 464.537 173.961 464.537 174.014C464.38 174.171 464.17 174.381 464.012 174.539Z" fill="#FAF1D6"/>
    <path d="M586.949 151.423C591.73 149.164 596.301 146.379 601.502 144.908C606.283 143.542 610.959 145.801 612.009 150.057C612.587 152.473 612.22 154.732 610.748 156.781C609.33 158.83 607.964 160.879 606.808 163.243C608.174 162.403 609.593 161.615 610.959 160.774C612.85 159.671 614.689 158.725 617.053 158.673C619.89 158.568 621.519 159.881 622.727 162.035C623.935 164.189 623.252 166.396 621.834 168.182C617.211 173.909 611.431 178.532 606.23 183.68C604.286 185.624 601.502 185.572 599.138 184.153C597.929 183.418 597.089 183.575 596.038 184.153C593.726 185.467 591.205 186.15 588.683 186.833C583.009 188.356 576.967 184.784 577.493 178.479C577.545 178.006 577.493 177.271 577.23 177.008C576.599 176.483 576.179 177.323 575.706 177.639C571.871 180.266 568.246 183.103 563.99 184.994C558.369 187.463 552.958 185.046 551.539 179.162C550.856 176.378 551.959 173.803 553.483 171.544C556.95 166.291 561.259 161.72 565.461 157.044C569.192 152.894 572.134 148.113 576.074 144.12C579.857 140.232 584.007 141.546 587.369 143.857C588.84 144.855 589.051 148.008 587.947 149.636C587.527 150.214 586.897 150.635 586.949 151.423C586.739 151.528 586.214 151.16 586.371 151.843C586.581 151.685 586.739 151.58 586.949 151.423Z" fill="#FAF1D6"/>
    <path d="M575.916 256.496C580.277 254.29 584.532 251.821 587.947 248.301C591.309 244.833 595.302 242.154 599.19 239.369C601.081 238.056 603.235 237.058 605.442 238.949C607.228 240.525 607.543 243.152 606.23 245.726C602.815 252.399 598.297 258.388 593.884 264.482C591.309 268.055 588.42 271.47 586.529 275.567C585.163 278.562 582.168 280.086 579.278 279.56C576.862 279.087 574.392 276.198 574.392 273.203C574.34 270.839 573.447 271.364 572.028 272.047C569.296 273.413 566.722 274.99 563.465 274.884C557.528 274.727 553.588 269.473 555.216 263.694C556.53 258.913 559.262 254.973 562.414 251.4C567.247 245.936 572.344 240.63 577.387 235.324C579.594 233.012 582.273 232.697 584.427 234.273C586.529 235.902 586.949 238.476 585.583 241.366C583.429 245.884 580.172 249.667 577.335 253.712C576.704 254.605 576.021 255.393 575.916 256.496C575.758 256.654 575.548 256.864 575.391 257.022C575.338 257.074 575.286 257.179 575.286 257.232C575.338 257.179 575.338 257.074 575.391 257.022C575.548 256.864 575.706 256.654 575.916 256.496Z" fill="#FAF1D6"/>
    <path d="M494.116 261.015C495.797 260.857 496.847 260.752 497.846 260.752C501.996 260.7 503.52 263.116 501.838 266.952C499.579 272.205 495.429 275.673 491.121 279.193C487.286 282.292 483.24 284.079 478.249 283.921C474.309 283.816 471.63 282.03 469.686 278.877C467.742 275.778 468.898 272.836 470.421 269.999C470.736 269.368 471.157 268.79 471.577 268.265C472.418 267.267 471.997 266.952 470.947 266.479C465.85 264.22 464.274 259.859 466.691 254.868C469.791 248.564 474.624 243.573 479.825 239.054C483.398 236.007 487.548 237.373 488.652 241.681C489.124 243.573 490.175 242.417 490.806 242.207C492.697 241.629 494.378 240.788 496.532 241.103C502.889 242.154 503.625 248.616 500.683 252.556C498.686 255.288 496.585 257.863 494.116 261.015Z" fill="#FAF1D6"/>
    <path d="M356.311 133.035C356.311 132.615 356.416 132.194 356.836 131.984C356.836 132.457 356.731 132.825 356.311 133.035Z" fill="#FAF1D6"/>
    <path d="M168.806 372.079C168.754 372.552 168.964 373.13 168.333 373.392C168.228 373.445 167.965 373.287 167.965 373.182C167.86 372.552 168.333 372.289 168.806 372.079Z" fill="white"/>
    <path d="M208.523 151.581C208.471 151.581 208.366 151.528 208.366 151.528C208.366 151.475 208.418 151.37 208.418 151.318C208.471 151.318 208.576 151.37 208.576 151.37C208.576 151.423 208.523 151.528 208.523 151.581Z" fill="white"/>
    <path d="M197.911 137.447C197.859 137.395 197.859 137.342 197.806 137.29C197.911 137.237 197.964 137.185 198.069 137.185C198.069 137.237 198.122 137.342 198.069 137.395C198.069 137.395 197.964 137.395 197.911 137.447Z" fill="white"/>
    <path d="M398.498 275.2C398.446 275.2 398.341 275.253 398.288 275.253C398.288 275.2 398.235 275.095 398.235 275.042C398.393 274.937 398.498 274.99 398.498 275.2Z" fill="white"/>
    <path d="M175.11 325.846C175.163 325.636 175.215 325.373 175.321 325.163C175.373 325.215 175.478 325.268 175.531 325.268C175.373 325.478 175.215 325.636 175.11 325.846Z" fill="white"/>
    <path d="M320.061 354.741C319.851 354.899 319.693 355.004 319.483 355.162C319.43 355.109 319.377 355.004 319.377 354.951C319.64 354.846 319.851 354.794 320.061 354.741Z" fill="white"/>
    <path d="M210.836 148.796C210.678 148.954 210.468 149.164 210.31 149.322C210.468 149.164 210.626 149.006 210.836 148.796Z" fill="white"/>
    <path d="M210.31 149.321C210.257 149.373 210.152 149.479 210.1 149.531C210.1 149.479 210.1 149.426 210.152 149.426C210.152 149.373 210.257 149.373 210.31 149.321Z" fill="white"/>
    <path d="M235.003 152.999C234.95 153.051 234.845 153.156 234.792 153.209C234.792 153.156 234.792 153.104 234.845 153.051C234.845 153.051 234.898 153.051 235.003 152.999Z" fill="white"/>
    <path d="M252.865 234.431C252.918 234.379 252.97 234.273 252.97 234.221C252.918 234.273 252.865 234.379 252.865 234.431C252.865 234.431 252.813 234.431 252.865 234.431Z" fill="white"/>
    <path d="M252.813 234.431C252.76 234.484 252.76 234.589 252.708 234.641C252.76 234.589 252.813 234.484 252.813 234.431C252.813 234.431 252.865 234.431 252.813 234.431Z" fill="white"/>
    <path d="M357.887 259.124C357.729 259.281 357.519 259.492 357.361 259.649C357.572 259.492 357.729 259.281 357.887 259.124Z" fill="white"/>
    <path d="M357.362 259.649C357.309 259.701 357.256 259.806 357.256 259.859C357.309 259.806 357.362 259.701 357.362 259.649Z" fill="white"/>
    <path d="M399.916 273.834C399.864 273.887 399.759 273.992 399.706 274.044C399.759 273.992 399.864 273.887 399.916 273.834Z" fill="white"/>
    <path d="M281.183 162.455C281.13 162.508 281.13 162.613 281.078 162.666C281.13 162.613 281.183 162.56 281.183 162.455C281.183 162.455 281.235 162.455 281.183 162.455Z" fill="white"/>
    <path d="M407.745 331.782C407.692 331.782 407.64 331.782 407.587 331.835C407.587 331.782 407.587 331.729 407.639 331.677C407.692 331.624 407.745 331.624 407.797 331.572C407.797 331.677 407.745 331.729 407.745 331.782Z" fill="white"/>
    <path d="M320.06 354.741C320.113 354.689 320.165 354.584 320.165 354.531C320.165 354.584 320.113 354.636 320.06 354.741Z" fill="white"/>
    <path d="M343.702 362.622C343.754 362.569 343.859 362.464 343.912 362.411C343.912 362.464 343.912 362.516 343.859 362.516C343.859 362.569 343.754 362.569 343.702 362.622Z" fill="white"/>
    <path d="M186.669 18.5556C186.616 18.7659 186.511 19.0288 186.458 19.239C186.406 19.1865 186.301 19.1339 186.248 19.0813C186.406 18.9236 186.511 18.7133 186.669 18.5556C186.669 18.5556 186.669 18.503 186.669 18.5556Z" fill="white"/>
    <path d="M130.454 28.5377C130.401 28.748 130.296 29.0109 130.243 29.2212C130.191 29.1686 130.033 29.116 130.033 29.0634C130.191 28.9057 130.296 28.6954 130.454 28.5377C130.454 28.5377 130.401 28.4851 130.454 28.5377Z" fill="white"/>
    <path d="M189.82 47.9242C189.82 47.5039 189.925 47.0836 190.346 46.8734C190.346 47.3462 190.241 47.7665 189.82 47.9242Z" fill="white"/>
    <path d="M189.821 47.9767C189.768 48.187 189.716 48.4499 189.611 48.6602C189.558 48.6076 189.453 48.555 189.4 48.555C189.558 48.3448 189.663 48.1345 189.821 47.9767C189.821 47.9767 189.821 47.9242 189.821 47.9767Z" fill="white"/>
    <path d="M144.639 52.6525C144.586 52.8628 144.534 53.1256 144.429 53.3359C144.376 53.2834 144.271 53.2308 144.218 53.2308C144.376 53.0731 144.481 52.8628 144.639 52.6525Z" fill="white"/>
    <path d="M279.081 108.868C279.291 108.763 279.449 108.605 279.659 108.5C279.712 108.552 279.765 108.657 279.817 108.71C279.554 108.763 279.344 108.815 279.081 108.868C279.081 108.868 279.134 108.868 279.081 108.868Z" fill="white"/>
    <path d="M325.839 134.663C325.997 134.506 326.207 134.295 326.365 134.138C326.207 134.295 326.049 134.453 325.839 134.663Z" fill="#FAF1D6"/>
    <path d="M464.537 174.013C464.59 173.961 464.642 173.856 464.642 173.803C464.642 173.856 464.59 173.961 464.537 174.013Z" fill="white"/>
    <path d="M486.603 168.234C486.551 168.287 486.498 168.392 486.498 168.445C486.498 168.392 486.551 168.34 486.603 168.234Z" fill="white"/>
    <path d="M464.537 174.013C464.38 174.171 464.222 174.381 464.012 174.539C464.169 174.381 464.38 174.171 464.537 174.013Z" fill="white"/>
    <path d="M586.949 151.423C586.739 151.58 586.581 151.685 586.371 151.843C586.213 151.212 586.739 151.58 586.949 151.423Z" fill="white"/>
    <path d="M575.391 257.023C575.548 256.865 575.759 256.655 575.916 256.497C575.706 256.655 575.548 256.865 575.391 257.023Z" fill="white"/>
    <path d="M575.391 257.022C575.338 257.074 575.338 257.18 575.286 257.232C575.286 257.18 575.338 257.074 575.391 257.022Z" fill="white"/>
    <path d="M128.708 374.442C123.244 373.759 117.623 373.707 112.422 372.288C104.383 370.134 96.3977 371.71 88.412 371.395C75.9607 370.922 67.2921 363.882 64.6652 351.694C64.0873 348.962 63.7721 346.177 63.7196 343.393C63.562 328.315 63.7196 313.289 63.3518 298.211C62.9315 281.241 62.0909 264.324 61.3554 247.355C60.725 233.222 60.1996 219.037 59.2014 204.905C58.4133 193.82 56.8897 182.839 55.9441 171.754C54.9459 159.828 54.0002 147.902 53.5799 135.924C53.3698 130.092 54.2629 124.313 58.0456 119.269C62.5112 113.333 68.7631 110.706 75.5404 109.13C82.5279 107.554 89.6204 106.555 96.7129 105.61C100.916 105.032 105.224 104.979 109.952 104.664C109.427 102.668 109.059 100.776 108.481 98.9374C105.749 90.1112 102.912 81.285 100.285 72.4062C97.3433 62.5292 94.5589 52.5997 91.7219 42.7227C90.8287 39.7281 92.2998 38.3096 95.452 38.2045C99.0245 38.0994 102.597 37.4164 106.327 36.9962C105.119 32.7406 103.963 29.2732 103.228 25.7007C102.807 23.7043 102.86 21.5502 103.122 19.5013C103.228 18.6082 104.331 17.2422 105.066 17.1897C106.012 17.1371 107.536 17.8726 107.956 18.7132C109.637 22.1807 110.95 25.7532 112.474 29.3257C113.052 30.6917 113.735 32.0051 114.523 33.6863C127.132 24.755 142.525 23.8619 156.08 16.6643C155.239 14.4052 154.031 11.5682 153.033 8.67864C152.56 7.31267 151.929 5.78909 152.192 4.47566C152.402 3.37238 153.716 1.95388 154.766 1.6912C155.66 1.48105 157.393 2.42672 157.919 3.31985C159.757 6.57715 161.386 9.99206 162.752 13.4595C163.488 15.3509 164.486 15.9288 166.272 15.2983C170.895 13.6697 175.519 12.041 180.089 10.3073C185.185 8.46849 188.128 9.99206 189.388 15.2458C191.122 22.5484 193.066 29.7986 194.852 37.1012C197.006 45.8224 198.898 54.6486 201.209 63.3173C203.731 72.6689 206.621 81.9154 209.3 91.267C209.878 93.3685 210.298 95.5225 210.561 97.6765C210.929 100.566 209.405 102.615 205.727 103.981C202.418 105.242 199.108 106.765 195.64 107.501C184.24 109.865 173.47 114.331 162.489 118.113C162.069 118.271 161.701 118.429 161.123 118.691C162.332 124.418 162.384 130.302 166.325 135.241C169.477 139.233 173.575 141.387 178.461 141.65C182.454 141.86 186.551 141.755 190.492 141.125C202.996 139.128 215.499 138.288 228.108 138.55C230.052 138.603 231.996 138.34 233.887 138.603C236.357 138.918 237.512 137.92 238.143 135.608C239.929 129.304 242.083 123.105 243.712 116.8C246.129 107.501 248.125 98.0968 250.437 88.7978C252.748 79.5512 255.165 70.3572 257.634 61.1632C258.685 57.2229 261.417 55.9095 265.305 57.2229C268.089 58.1686 270.821 59.377 273.605 60.3226C275.549 60.9531 277.598 61.5835 279.647 61.7937C285.269 62.2665 286.687 64.4205 284.848 69.7268C283.745 72.8265 283.115 76.0312 282.432 78.7632C290.47 81.0223 298.035 83.1763 305.548 85.2252C313.008 87.2742 320.521 89.2181 328.349 91.3196C329.085 89.5333 329.978 87.1691 330.976 84.8575C332.289 81.8629 334.443 81.1799 337.333 82.5984C341.904 84.8049 346.474 86.959 351.045 89.0605C354.618 90.6891 355.248 92.2652 353.725 95.8903C350.415 103.771 347 111.651 343.848 119.585C342.219 123.735 341.116 128.043 339.645 132.246C339.172 133.559 338.541 135.03 337.491 135.766C336.492 136.554 334.654 137.079 333.55 136.659C332.657 136.344 332.289 134.505 331.869 133.244C331.712 132.771 332.132 132.088 332.342 131.51C333.813 127.307 335.232 123.105 336.86 118.954C339.697 111.704 342.639 104.506 345.529 97.3088C345.897 96.4157 346.264 95.5751 346.632 94.6819C343.165 93.1058 339.855 91.6348 336.23 90.0587C335.442 92.0551 334.759 93.999 333.971 95.9428C332.395 99.673 330.766 100.146 326.931 98.8849C318.209 96.1004 309.436 93.3685 300.662 90.8993C294.463 89.1655 288.106 87.9572 281.906 86.3285C280.015 85.8557 278.124 84.9626 276.39 84.0169C274.709 83.1238 274.446 81.5476 274.919 79.7088C275.917 75.8736 276.863 71.9859 277.756 68.3608C273.08 66.417 268.509 64.4731 263.623 62.4241C257.161 87.6945 253.904 113.753 243.975 138.708C250.804 138.393 257.319 138.025 263.728 137.762C266.723 128.358 269.613 119.112 272.555 109.918C273.5 107.028 274.341 104.034 275.497 101.249C276.81 98.0443 277.703 98.1494 280.908 99.2001C284.113 100.251 287.528 100.619 290.89 101.249C294.936 101.985 299.086 102.195 302.974 103.456C307.755 105.084 312.378 107.028 317.527 107.396C319.996 107.554 321.309 109.708 320.574 112.229C319.575 115.539 318.104 118.744 316.791 121.949C314.795 127.045 312.798 132.141 310.644 137.605C317.421 137.605 323.778 137.552 330.135 137.605C332.657 137.605 335.232 138.13 337.701 137.867C343.165 137.342 348.576 136.186 354.04 135.819C359.977 135.398 365.966 135.083 371.85 135.661C377.209 136.186 381.832 138.971 385.352 143.384C389.66 148.795 393.285 154.522 394.651 161.404C395.597 166.343 396.227 171.439 396.49 176.482C396.91 184.415 396.91 192.401 397.173 200.334C397.646 215.465 398.066 230.596 398.801 245.674C399.169 252.924 400.325 260.069 401.061 267.319C401.113 267.949 401.218 268.527 401.218 269.158C401.428 290.698 401.796 312.186 401.744 333.726C401.744 347.858 395.387 358.628 382.935 365.406C379.993 367.034 376.368 368.033 373.006 368.138C366.018 368.4 359.031 367.612 352.043 367.822C344.268 368.033 336.545 369.083 328.769 369.346C320.048 369.609 311.275 369.188 302.553 369.294C285.847 369.556 269.14 369.819 252.486 370.397C242.714 370.712 232.942 372.288 223.222 372.288C210.929 372.288 198.582 371.08 186.289 370.712C173.89 370.344 161.491 370.029 149.198 372.603C144.522 373.602 139.741 373.917 134.96 374.547C132.911 374.442 130.81 374.442 128.708 374.442ZM69.4461 312.396C69.6037 312.396 69.8139 312.396 69.9715 312.396C69.9715 322.535 69.9715 332.728 69.9715 342.867C69.9715 344.706 70.1291 346.545 70.4443 348.331C71.7052 355.109 74.4897 360.73 81.3721 363.567C85.6801 365.353 90.0932 364.985 94.5589 364.985C99.4448 364.985 104.383 364.46 109.164 365.196C117.465 366.457 125.713 368.033 134.172 367.612C139.583 367.35 144.942 366.457 150.301 365.721C154.189 365.196 158.076 364.092 161.964 363.987C172.892 363.725 183.872 363.725 194.8 363.882C206.41 364.04 218.021 364.565 229.684 364.88C232.101 364.933 234.57 364.723 236.987 364.513C242.661 363.987 248.283 363.094 253.957 362.779C264.359 362.254 274.761 361.833 285.164 361.728C294.673 361.623 304.235 362.043 313.796 362.096C319.681 362.148 325.565 362.516 331.344 361.833C341.641 360.625 351.833 359.837 362.183 360.888C366.806 361.36 371.85 361.413 376.21 359.994C386.087 356.79 392.182 349.487 394.021 339.19C394.809 334.566 394.651 329.786 394.546 325.057C394.283 302.939 395.176 280.874 392.707 258.755C391.026 243.572 391.026 228.231 390.396 212.943C389.818 198.968 389.87 184.941 388.662 171.018C387.926 162.718 386.718 154.207 380.571 147.429C377.734 144.33 374.529 142.123 370.589 141.808C365.493 141.44 360.134 141.177 355.143 142.123C345.476 144.067 335.704 144.014 325.932 144.172C317.632 144.277 309.331 143.804 301.03 143.857C292.204 143.909 283.377 144.435 274.551 144.592C268.772 144.75 262.993 144.697 257.266 144.75C243.975 144.907 230.683 144.96 217.338 145.275C211.244 145.433 205.15 146.116 199.055 146.641C192.436 147.219 185.868 148.27 179.249 148.322C171.631 148.375 165.379 145.013 160.598 138.761C157.183 134.295 156.08 129.199 155.134 123.945C153.873 116.695 146.728 110.443 139.321 110.601C128.918 110.811 118.516 111.231 108.113 111.651C103.858 111.809 99.6024 112.229 95.3469 112.65C91.932 112.965 88.5696 113.595 85.1547 113.7C77.9571 113.911 71.4951 116.38 66.0312 120.688C63.6145 122.579 61.8808 126.204 61.1453 129.304C58.8862 138.708 60.4623 148.27 61.3554 157.779C62.4061 168.497 63.8246 179.162 64.6652 189.827C65.6634 202.541 66.2414 215.307 66.9243 228.074C67.187 232.434 67.2921 236.795 67.4497 241.208C68.1327 258.178 68.9207 275.094 69.4987 292.064C69.6563 298.894 69.4461 305.671 69.4461 312.396ZM97.0807 45.3496C98.8144 50.866 100.496 56.54 102.387 62.1614C106.905 75.716 111.581 89.2706 116.099 102.878C116.624 104.506 117.413 105.137 119.094 105.032C124.347 104.664 129.601 104.559 134.802 104.139C139.951 103.718 144.995 103.823 149.46 106.765C151.877 108.342 154.083 110.128 156.448 111.809C156.973 112.177 157.866 112.65 158.392 112.439C164.276 110.496 170.107 108.394 175.939 106.345C179.722 105.032 183.452 103.613 187.234 102.405C192.593 100.671 197.952 99.0951 203.048 97.5189C196.008 70.3047 189.178 43.8785 182.348 17.3473C176.885 19.2911 171.473 21.1825 165.904 23.1263C166.22 24.072 166.64 25.1228 166.903 26.1735C167.428 28.2225 167.27 30.1138 165.011 31.0069C162.91 31.8475 161.439 30.6917 160.493 28.958C159.757 27.592 159.285 26.121 158.549 24.3347C148.567 27.6445 138.585 30.6917 128.813 34.2117C124.925 35.6302 121.405 37.9944 117.728 39.8857C118.568 42.2499 119.514 44.3514 120.039 46.5054C120.565 48.6069 119.777 50.3931 117.57 51.0761C115.416 51.7065 114.05 50.4982 113.21 48.6594C112.422 46.9782 111.844 45.2445 110.95 43.6158C110.635 43.0905 109.584 42.5125 109.007 42.6176C105.119 43.4582 101.336 44.3514 97.0807 45.3496ZM281.066 105.662C277.546 116.222 273.973 126.835 270.453 137.5C270.558 137.552 270.716 137.71 270.874 137.71C281.801 137.5 292.676 137.29 303.604 137.027C304.077 137.027 304.813 136.186 305.023 135.556C307.912 128.253 310.697 120.95 313.534 113.7C308.227 111.862 303.026 109.655 297.667 108.342C292.309 106.976 286.687 106.555 281.066 105.662Z" fill="#202023"/>
    <path d="M616.41 173.12C616.095 175.064 615.832 179.057 614.676 182.735C612.05 191.403 605.903 195.343 596.919 195.869C590.509 196.237 584.152 197.813 577.743 198.391C573.54 198.811 569.232 198.548 564.976 198.391C557.831 198.075 550.686 197.76 543.594 197.025C537.657 196.394 532.351 190.247 532.141 184.206C531.668 169.338 531.195 154.522 531.09 139.654C531.09 135.924 532.088 132.036 533.401 128.464C535.188 123.683 541.86 121.686 546.483 123.84C547.692 124.418 549.32 124.156 550.791 124.208C554.626 124.313 558.462 124.051 562.244 124.576C566.657 125.206 569.757 129.147 569.915 133.928C569.967 135.976 570.86 136.554 572.594 136.975C576.482 137.92 580.265 137.868 584.257 137.5C590.93 136.922 597.654 136.765 604.379 136.975C611.209 137.185 614.151 140.6 614.939 148.848C615.622 156.308 615.885 163.716 616.41 173.12ZM610.001 170.809C609.79 170.756 609.633 170.756 609.423 170.704C609.055 163.558 608.687 156.413 608.267 149.216C608.004 144.908 606.638 143.437 602.278 143.437C597.76 143.437 593.189 143.647 588.671 144.12C582.681 144.75 576.745 145.486 570.703 143.91C564.556 142.333 563.663 141.598 563.032 135.241C562.822 133.297 562.192 131.511 559.933 131.353C557.411 131.143 554.889 131.248 552.42 131.196C549.688 131.143 546.693 131.668 544.277 130.775C541.177 129.672 540.021 129.62 538.918 132.824C538.445 134.138 538.025 135.556 538.025 136.87C537.92 142.439 537.867 148.007 537.972 153.576C538.182 163.558 538.498 173.488 538.918 183.47C539.075 187.358 541.86 190.3 545.59 190.615C551.947 191.14 558.304 191.351 564.661 191.613C568.391 191.771 572.174 192.296 575.904 191.929C583.364 191.193 590.772 189.775 598.232 188.934C603.013 188.409 606.428 186.307 607.794 181.736C608.792 178.164 609.265 174.434 610.001 170.809Z" fill="#202023"/>
    <path d="M616.725 252.083C615.99 258.492 615.727 265.007 614.466 271.311C613.048 278.614 606.848 283.237 599.388 283.605C590.772 284.025 582.156 284.761 573.54 285.076C564.871 285.339 556.203 285.339 547.587 285.286C540.914 285.234 536.291 280.558 535.818 273.413C535.503 268.79 535.451 264.166 535.24 259.543C534.873 251.978 534.505 244.36 534.19 236.795C534.137 235.639 534.19 234.483 534.347 233.38C535.398 227.338 538.445 224.081 544.75 223.292C550.529 222.557 556.413 222.294 562.244 222.084C565.817 221.979 569.232 222.977 572.069 225.236C573.33 226.235 574.801 227.443 575.326 228.861C576.377 231.751 578.426 232.014 580.948 231.804C588.093 231.331 595.238 230.7 602.383 230.543C610.841 230.385 615.727 235.166 616.148 243.624C616.305 246.409 616.148 249.246 616.148 252.03C616.358 252.03 616.515 252.083 616.725 252.083ZM610.053 248.353C609.791 248.353 609.528 248.3 609.318 248.3C609.318 246.461 609.423 244.623 609.265 242.784C609.055 239.894 607.164 237.478 604.747 237.478C599.178 237.478 593.557 237.793 587.988 238.055C584.52 238.213 581.053 238.738 577.585 238.843C573.803 238.949 571.018 237.11 569.652 233.537C568.812 231.331 567.078 230.227 565.029 229.702C563.348 229.282 561.561 228.914 559.88 229.019C554.994 229.334 550.161 229.86 545.275 230.332C541.808 230.648 541.072 231.278 540.704 234.746C540.547 236.479 540.599 238.266 540.652 239.999C540.967 246.304 541.335 252.556 541.65 258.808C541.86 263.326 541.965 267.897 542.228 272.415C542.49 276.985 544.592 278.877 549.005 278.772C559.828 278.457 570.65 278.089 581.526 277.774C584.31 277.668 587.095 277.931 589.879 277.774C593.084 277.563 596.288 276.985 599.493 276.723C603.801 276.302 607.216 273.938 607.847 269.683C608.897 262.59 609.37 255.445 610.053 248.353Z" fill="#202023"/>
    <path d="M464.631 201.595C457.958 201.595 451.339 201.49 444.666 201.647C441.777 201.7 439.203 200.912 437.364 198.758C434.474 195.448 432.005 192.401 431.952 187.2C431.9 176.955 430.324 166.71 429.536 156.413C429.063 149.951 428.748 143.489 428.643 137.079C428.59 133.717 430.691 131.142 433.476 129.724C436.996 127.99 440.884 126.046 444.719 125.784C450.025 125.416 455.542 126.151 460.848 127.097C466.102 128.043 468.571 131.72 468.623 137.132C468.676 143.699 468.676 143.804 475.296 143.646C481.39 143.541 487.537 143.331 493.631 142.911C497.519 142.648 500.461 144.014 501.932 147.482C503.088 150.213 504.191 153.261 504.296 156.15C504.559 166.027 504.454 175.904 504.349 185.834C504.296 189.879 504.086 193.977 500.408 196.761C499.568 197.392 498.727 198.18 497.781 198.39C492.79 199.546 487.799 201.017 482.756 201.437C476.767 201.963 470.672 201.542 464.631 201.542C464.631 201.647 464.631 201.647 464.631 201.595ZM498.097 163.348C498.202 163.348 498.359 163.348 498.464 163.348C498.464 160.878 498.517 158.462 498.464 155.993C498.307 150.371 496.258 148.742 490.741 149.058C484.279 149.425 477.817 149.583 471.355 149.53C465.839 149.478 463.054 146.536 462.792 141.019C462.739 139.811 462.687 138.55 462.739 137.342C462.844 134.768 461.741 132.929 459.167 132.614C453.02 131.825 447.031 129.882 440.726 132.561C434.947 135.03 433.896 135.766 434.001 142.123C434.001 143.068 434.054 144.067 434.159 145.012C435.157 157.621 436.418 170.23 437.049 182.892C437.206 186.569 438.362 189.406 440.306 192.243C441.567 194.082 443.143 195.133 445.56 195.08C453.598 194.975 461.636 195.133 469.674 195.028C476.872 194.923 484.122 196.131 491.267 193.819C496.573 192.086 498.097 192.191 498.149 186.989C498.149 179.056 498.097 171.228 498.097 163.348Z" fill="#202023"/>
    <path d="M506.187 264.167C505.504 269.578 504.821 276.355 503.823 283.08C503.245 287.073 500.041 289.962 495.627 289.122C491.897 288.386 487.904 288.859 484.122 288.439C473.772 287.178 463.58 288.281 453.335 289.91C449.237 290.54 445.034 290.225 441.514 287.073C438.94 284.814 437.942 282.082 437.626 278.824C436.786 270.103 436.155 261.382 434.894 252.766C434.106 247.512 433.529 242.364 434.527 237.162C435.735 230.858 440.463 226.97 446.82 226.708C451.023 226.497 455.174 226.025 459.377 225.92C465.366 225.762 469.464 227.601 471.565 232.959C473.142 236.952 473.247 236.847 477.397 236.795C483.912 236.69 490.531 236.374 496.993 236.9C502.457 237.32 504.769 240.682 504.979 246.094C505.189 251.61 505.715 257.179 506.187 264.167ZM499.83 263.484C499.463 256.023 499.305 250.98 498.832 245.936C498.727 244.938 497.781 243.73 496.888 243.257C495.68 242.679 494.156 242.521 492.79 242.521C487.274 242.626 481.758 242.626 476.346 243.152C471.881 243.625 468.886 242.048 467.047 238.108C466.679 237.32 466.154 236.585 465.891 235.744C464.998 232.907 462.949 231.961 460.27 232.066C456.014 232.224 451.706 232.382 447.451 232.697C442.985 233.012 440.201 235.429 439.833 239.632C439.57 242.469 439.518 245.411 439.833 248.3C440.779 257.389 441.777 266.478 442.985 275.567C443.3 277.879 443.773 280.506 445.087 282.344C447.188 285.181 450.603 284.236 453.65 283.921C460.217 283.185 466.837 281.977 473.404 281.819C480.602 281.661 487.852 282.502 495.102 282.975C496.888 283.08 497.834 282.712 498.044 280.663C498.622 274.149 499.358 267.687 499.83 263.484Z" fill="#202023"/>
    <path d="M253.799 123.262C254.219 121.318 254.429 119.269 255.217 117.483C255.638 116.537 257.161 115.591 258.159 115.591C259 115.591 260.629 117.01 260.576 117.693C260.366 120.95 259.841 124.155 259.105 127.307C259 127.885 257.266 128.568 256.478 128.358C255.585 128.095 254.692 127.097 254.272 126.151C253.851 125.363 254.062 124.26 254.009 123.314C253.956 123.314 253.851 123.262 253.799 123.262Z" fill="#202023"/>
    <path d="M464.315 334.829C464.525 332.727 466.417 331.204 468.728 331.362C472.196 331.624 474.718 333.726 474.507 336.142C474.297 338.559 471.355 341.133 469.096 340.871C467.31 340.713 464.158 336.72 464.315 334.829Z" fill="#202023"/>
    <path d="M489.848 340.346C487.642 340.398 486.118 339.558 485.698 337.246C485.225 334.462 486.433 331.362 488.325 330.679C488.587 330.574 488.85 330.521 489.06 330.469C490.952 330.311 494.524 334.146 494.524 336.248C494.577 338.77 492.738 340.346 489.848 340.346Z" fill="#202023"/>
    <path d="M261.417 98.0968C261.889 95.0496 261.889 92.1601 265.094 91.0568C267.143 90.3213 268.509 91.0568 268.299 93.2108C268.089 95.6275 267.563 98.0442 266.828 100.303C266.145 102.352 263.518 102.51 262.257 100.619C261.784 99.8305 261.627 98.7272 261.417 98.0968Z" fill="#202023"/>
    <path d="M333.13 111.914C333.183 115.276 331.134 118.901 329.137 119.322C328.139 119.532 326.616 119.479 326.09 118.849C325.46 118.113 325.092 116.485 325.46 115.592C326.248 113.805 327.404 112.124 328.717 110.653C329.243 110.023 330.714 109.655 331.449 109.97C332.29 110.285 332.815 111.494 333.13 111.914Z" fill="#202023"/>
    <path d="M454.438 335.617C454.438 337.876 452.284 339.82 449.92 339.767C447.556 339.715 445.98 338.034 446.085 335.775C446.138 333.253 447.871 331.099 449.763 331.099C451.549 331.046 454.438 333.883 454.438 335.617Z" fill="#202023"/>
    <path d="M175.991 262.328C179.879 261.803 183.767 261.383 187.55 260.7C189.546 260.332 191.385 260.227 192.12 262.433C192.856 264.587 191.49 265.848 189.651 266.689C189.178 266.899 188.653 267.109 188.18 267.162C183.872 267.582 179.511 268.107 175.151 268.37C172.734 268.528 170.265 268.002 169.056 265.638C167.796 263.116 168.636 260.595 170.212 258.493C172.366 255.709 174.73 253.187 177.095 250.612C181.928 245.306 181.56 235.955 176.307 231.121C175.886 230.753 175.203 230.491 174.678 230.491C172.261 230.648 169.792 230.806 167.375 231.279C166.535 231.436 165.589 232.382 165.221 233.223C164.013 236.165 165.747 240.052 168.689 241.366C169.267 241.629 170.002 241.681 170.317 242.101C170.895 242.837 171.736 243.888 171.578 244.676C171.473 245.359 170.265 246.199 169.372 246.357C165.484 247.145 160.966 244.466 159.81 240.315C159.074 237.636 158.864 234.589 159.127 231.804C159.442 228.337 162.227 225.815 165.694 225.237C168.531 224.764 171.421 224.554 174.258 224.186C177.252 223.819 179.564 224.974 181.298 227.339C184.24 231.331 186.131 235.85 186.814 240.788C187.497 246.199 185.448 250.718 181.928 254.658C179.774 257.022 177.673 259.439 175.519 261.803C175.729 261.96 175.886 262.118 175.991 262.328Z" fill="#202023"/>
    <path d="M194.8 238.371C195.851 235.061 196.691 231.541 198.11 228.336C200.106 223.923 204.467 221.769 209.3 222.242C210.403 222.347 211.559 222.347 212.715 222.505C216.813 223.082 220.175 224.764 222.224 228.599C227.373 238.056 226.795 247.355 221.699 256.549C219.492 260.541 213.083 262.643 208.039 261.172C200.631 259.07 197.742 255.34 197.427 247.565C197.374 246.619 197.164 245.673 196.901 244.78C196.218 242.836 195.535 240.787 194.8 238.371ZM202.891 233.117C203.153 233.117 203.416 233.064 203.679 233.064C203.941 234.378 204.729 235.954 204.309 237.005C202.575 241.26 202.575 245.568 203.626 249.876C204.624 253.922 208.459 256.338 212.557 255.445C213.976 255.13 215.762 254.395 216.393 253.291C220.28 246.461 220.753 239.421 217.128 232.276C215.132 228.389 211.612 228.441 208.092 228.494C205.097 228.494 203.679 230.543 202.891 233.117Z" fill="#202023"/>
    <path d="M273.5 247.145C272.292 247.775 271.557 248.143 270.769 248.511C264.149 251.925 257.214 248.195 256.689 240.788C256.373 236.217 255.743 231.541 259.421 227.653C262.468 224.449 265.83 222.82 270.191 224.186C271.031 224.449 271.767 225.132 272.555 225.657C272.923 225.92 273.238 226.655 273.553 226.655C276.915 226.865 277.651 229.44 277.914 231.961C278.702 238.476 279.437 244.991 279.857 251.505C280.33 258.703 276.127 262.958 268.877 263.116C266.986 263.168 265.042 263.694 263.151 263.536C261.575 263.431 259.788 262.958 258.58 262.013C257.739 261.382 257.004 259.333 257.372 258.545C257.844 257.547 259.578 256.654 260.786 256.601C263.939 256.444 267.196 256.916 270.348 256.759C272.66 256.654 273.921 254.973 273.973 252.714C274.078 250.98 273.711 249.246 273.5 247.145ZM270.716 228.967C267.406 229.124 264.149 229.807 263.256 233.222C262.573 235.797 262.73 238.739 263.151 241.471C263.413 243.414 265.672 244.045 267.564 243.257C271.294 241.628 272.818 238.528 271.924 234.536C271.504 232.697 271.136 230.911 270.716 228.967Z" fill="#202023"/>
    <path d="M244.763 253.817C244.763 255.498 245.131 257.285 244.658 258.756C244.29 259.859 242.924 261.172 241.768 261.435C240.034 261.803 239.089 260.227 239.089 258.598C238.984 248.143 238.931 237.688 238.931 227.181C238.931 225.447 239.457 223.818 241.4 223.818C243.397 223.766 243.87 225.395 243.922 227.128C244.027 229.913 244.29 232.697 244.29 235.482C244.343 241.576 244.29 247.67 244.29 253.817C244.448 253.817 244.605 253.817 244.763 253.817Z" fill="#202023"/>
    <path d="M309.593 174.275C307.65 174.643 306.021 174.328 305.968 171.701C305.916 168.496 307.755 166.08 310.224 166.08C312.956 166.132 316.161 168.601 316.108 170.703C316.161 172.804 313.586 174.223 309.593 174.275Z" fill="#202023"/>
    <path d="M363.602 191.718C361.29 191.77 359.241 189.143 359.136 185.991C359.083 183.995 360.765 182.734 363.602 182.629C365.23 182.576 368.12 185.886 368.172 187.83C368.225 189.669 365.861 191.665 363.602 191.718Z" fill="#202023"/>
    <path d="M362.393 173.33C359.924 173.277 357.875 171.596 357.875 169.547C357.875 167.341 359.924 164.766 361.868 164.766C364.547 164.714 366.911 167.078 366.859 169.758C366.859 172.069 365.283 173.33 362.393 173.33Z" fill="#202023"/>
    <path d="M372.586 276.355C372.533 278.93 370.957 280.821 368.855 280.768C366.386 280.716 364.6 278.247 364.652 274.832C364.705 273.045 365.125 271.469 367.332 271.417C370.011 271.312 372.586 273.833 372.586 276.355Z" fill="#202023"/>
    <path d="M289.314 167.498C291.415 167.551 293.359 169.705 293.254 171.964C293.202 174.013 290.995 175.589 288.263 175.537C285.952 175.484 284.27 173.803 284.323 171.544C284.376 169.39 286.792 167.446 289.314 167.498Z" fill="#202023"/>
    <path d="M336.387 228.704C339.277 228.652 340.433 229.545 340.485 231.909C340.59 234.693 339.067 236.48 336.65 236.585C333.918 236.69 331.922 234.956 331.869 232.434C331.869 229.86 333.183 228.757 336.387 228.704Z" fill="#202023"/>
    <path d="M374.057 326.318C373.794 328.104 373.111 329.523 371.115 329.786C369.328 329.996 366.544 327.947 366.596 326.266C366.702 324.584 367.069 322.798 367.857 321.327C368.173 320.749 370.379 320.329 370.799 320.802C372.06 322.063 372.901 323.796 373.899 325.373C374.004 325.635 374.004 326.003 374.057 326.318Z" fill="#202023"/>
    <path d="M336.177 170.178C336.23 172.227 334.654 173.961 332.71 173.961C330.24 173.961 328.086 172.332 327.981 170.388C327.876 168.129 329.715 166.29 332.079 166.29C334.181 166.29 336.125 168.077 336.177 170.178Z" fill="#202023"/>
    <path d="M329.82 192.611C327.929 192.664 325.144 190.352 325.197 188.724C325.197 187.042 327.193 184.783 328.77 184.731C330.556 184.678 333.235 187.042 333.34 188.776C333.445 190.668 331.764 192.559 329.82 192.611Z" fill="#202023"/>
    <path d="M350.415 211.367C349.259 210.211 347.84 209.476 347.578 208.425C347.157 206.901 346.947 204.485 347.788 203.644C349.837 201.595 351.833 204.17 353.777 204.905C355.353 205.483 355.458 207.427 354.355 208.688C353.462 209.686 352.096 210.264 350.415 211.367Z" fill="#202023"/>
    <path d="M357.139 253.344C357.087 254.92 354.828 256.707 352.674 256.601C350.835 256.496 349.889 255.183 349.889 253.397C349.837 250.77 351.571 247.88 353.042 247.933C354.723 248.038 357.192 251.243 357.139 253.344Z" fill="#202023"/>
    <path d="M356.772 228.967C356.772 231.016 355.511 232.434 353.672 232.382C351.308 232.329 348.366 229.965 348.944 228.126C349.417 226.655 350.835 225.079 352.254 224.344C353.514 223.713 356.772 227.338 356.772 228.967Z" fill="#202023"/>
    <path d="M350.993 169.653C351.098 171.859 349.942 172.91 347.84 173.015C345.424 173.12 343.48 171.386 343.427 169.127C343.375 167.026 345.161 165.345 347.368 165.397C349.679 165.502 350.993 167.026 350.993 169.653Z" fill="#202023"/>
    <path d="M346.684 184.783C349.416 184.731 351.308 186.254 351.413 188.303C351.518 190.51 350.099 192.191 348.155 192.191C346.159 192.191 343.479 189.774 343.585 187.935C343.637 185.834 345.056 184.993 346.684 184.783Z" fill="#202023"/>
    <path d="M370.852 207.322C370.746 209.003 369.696 210.159 367.542 210.159C365.072 210.159 363.654 208.688 363.706 206.218C363.759 203.644 364.967 202.12 366.859 202.226C368.96 202.226 370.904 204.537 370.852 207.322Z" fill="#202023"/>
    <path d="M336.282 209.265C336.282 210.999 334.601 212.523 332.552 212.523C330.24 212.523 328.349 210.999 328.349 209.108C328.349 207.269 329.978 205.483 331.712 205.43C333.971 205.378 336.282 207.322 336.282 209.265Z" fill="#202023"/>
    <path d="M358.453 276.355C357.875 278.509 357.718 280.348 355.353 280.558C352.989 280.716 352.306 278.877 352.306 277.09C352.306 275.357 352.884 273.623 353.462 271.994C353.567 271.679 355.458 271.522 355.721 271.889C356.824 273.255 357.56 274.831 358.453 276.355Z" fill="#202023"/>
    <path d="M365.598 301.415C365.598 298.946 366.859 297.37 368.75 297.422C370.537 297.475 372.323 299.471 372.27 301.31C372.218 303.359 370.589 305.093 368.698 305.093C366.701 305.093 365.598 303.779 365.598 301.415Z" fill="#202023"/>
    <path d="M307.071 192.086C307.281 190.352 307.281 188.303 309.803 188.145C311.379 188.04 313.218 190.404 313.166 192.191C313.061 194.24 311.327 196.026 309.541 195.868C307.859 195.711 306.966 194.397 307.071 192.086Z" fill="#202023"/>
    <path d="M371.85 253.449C371.745 254.92 370.851 256.128 368.802 256.181C366.754 256.234 365.44 254.868 365.598 252.661C365.703 250.98 365.965 249.194 368.12 248.983C369.906 248.826 371.85 251.032 371.85 253.449Z" fill="#202023"/>
    <path d="M366.438 233.748C364.337 233.643 363.338 232.435 363.338 230.386C363.338 228.494 364.179 227.181 366.28 227.181C367.909 227.181 369.643 229.177 369.538 230.964C369.433 232.855 368.329 233.748 366.438 233.748Z" fill="#202023"/>
    <path d="M167.901 72.1437C168.899 72.9317 170.633 73.9825 172.051 75.3484C173.312 76.5043 174.573 77.8702 175.203 79.3938C176.464 82.3359 174.836 84.8577 171.736 84.8577C168.951 84.8577 166.167 84.595 163.33 84.5424C160.651 84.4899 157.919 84.5424 154.661 84.5424C153.663 86.6439 152.402 89.3233 151.194 91.9502C150.879 92.6857 150.669 93.4212 150.353 94.1567C149.67 95.7854 148.357 97.0463 146.728 96.3633C145.52 95.8379 144.206 94.3144 144.049 93.106C143.523 89.4809 143.576 85.8033 143.418 82.1257C143.366 81.1275 143.418 80.0768 143.418 79.2362C139.215 78.3431 135.328 77.6075 131.44 76.7144C129.549 76.2416 127.71 75.5061 127.552 73.0894C127.447 70.7252 128.918 69.4118 130.809 68.4135C133.909 66.7849 136.956 65.0512 140.109 63.6327C141.842 62.8446 142.315 61.7413 142.263 59.9551C142.21 56.3825 142.315 52.81 142.42 49.185C142.473 48.1342 142.473 47.0309 142.893 46.0853C143.261 45.3497 144.154 44.4566 144.942 44.3515C145.677 44.2465 146.833 44.8244 147.359 45.4548C150.458 49.29 153.4 53.3354 156.5 57.1706C156.973 57.7485 158.076 58.1688 158.864 58.1163C162.752 57.8536 166.64 57.3282 170.58 57.0655C172.629 56.9079 174.836 56.9079 175.729 59.2195C176.674 61.5312 175.466 63.4225 173.942 65.1562C171.946 67.4679 169.95 69.7795 167.901 72.1437ZM150.301 77.6075C154.924 77.8177 159.495 78.0278 164.065 78.1855C162.857 77.0296 161.439 76.7144 160.335 75.9789C159.127 75.1383 157.551 73.9299 157.446 72.7741C157.341 71.6183 158.654 70.0947 159.652 69.0965C161.176 67.573 163.015 66.4171 164.748 65.0512C164.643 64.841 164.486 64.6309 164.381 64.3682C162.489 64.5258 160.598 64.6309 158.707 64.8936C155.449 65.4189 152.875 64.6309 151.299 61.4786C150.669 60.1652 149.618 59.1145 148.725 57.9061C148.147 59.2195 148.042 60.2178 148.199 61.1109C148.725 64.841 147.254 67.2577 143.681 68.6237C141.947 69.3067 140.424 70.41 138.795 71.3031C140.844 72.0386 142.735 72.2488 144.627 72.4589C149.88 73.1944 149.986 73.2995 150.301 77.6075Z" fill="#202023"/>
</svg>
