<svg xmlns="http://www.w3.org/2000/svg" fill="none" viewBox="0 0 543 471">
    <path fill="#C3E7EC" d="M66.42 346.39c-1.6 2.97-2.92 5.83-5.3 8.1-.94.88-1.49.92-2.49.04-3.37-2.95-4.8-6.83-5.26-11.06-.19-1.66-.5-3.3-.62-4.98-.26-3.67.91-7.13 1.27-10.7a95.88 95.88 0 011.83-10.86c.8-3.67 1.62-7.34 2.58-10.97 1.23-4.59 2.7-9.13 4.14-13.65.92-2.9 2.2-5.71 3.75-8.44 1.4-2.5 3.19-4.68 4.64-7.1 1.03-1.74 2.57-3.1 3.87-4.61 2.91-3.38 6.2-6.41 9.7-9.15a60.5 60.5 0 019.4-6.22c2.34-1.21 4.6-2.67 7.21-3.47 1.87-.57 3.67-1.56 5.5-2.36a66.65 66.65 0 0113.6-4.29c4.72-.95 9.46-1.95 14.32-2.34 4.83-.38 9.68-.16 14.5-.55 2.8-.23 5.62-.24 8.42-.29 2.55-.04 5.14.08 7.7 0 2.47-.1 4.94.38 7.4-.04.16-.03.35-.08.5-.04 2.69.72 5.46-.4 8.16.4.63.17 1.34.07 2.01.06 5.04-.05 10 .6 14.98 1.33 4.5.65 8.83 1.83 13.2 2.9 2.56.64 5.1 1.63 7.6 2.58a97.33 97.33 0 017.6 3.28c2.7 1.3 5.5 2.42 7.96 4.21 1.68 1.23 3.6 2.13 5.4 3.19 2.54 1.49 4.76 3.4 7.29 4.9 3.05 1.85 5.72 4.35 8.49 6.65 1.22 1.02 2.29 2.17 3.74 2.94 1.63.87 2.58 2.57 3.94 3.81 3.7 3.41 6.94 7.25 10.1 11.18 3.1 3.83 5.56 8 7.68 12.33a65.02 65.02 0 013.46 8.02c.9 2.7 1.46 5.47 2.32 8.17.87 2.76 1.14 5.71 1.56 8.6.18 1.23-.02 2.5.4 3.73.2.6.22 1.38.02 1.99-.36 1.1-.35 2.1.01 3.19.24.7.2 1.51-.09 2.23-.3.82-.29 1.65-.3 2.49a52.4 52.4 0 01-1.28 10.67c-.48 2.09-.65 4.26-1.17 6.37-.32 1.3-.5 2.63-1.08 3.84-.76 1.6-.8 3.39-1.34 5.07-.9 2.87-2.2 5.6-2.93 8.53-.46 1.88-1.5 3.53-2.22 5.3-2.21 5.33-4.52 10.65-7.51 15.6a154.35 154.35 0 01-7.31 11.02c-3.88 5.33-8.05 10.35-13 14.64-2.4 2.1-4.78 4.34-7.8 5.78-1.76.83-3.42 2.03-5.14 3.04a80.3 80.3 0 01-12.07 5.48 76.89 76.89 0 01-14.22 3.86c-2.55.44-5.12.8-7.67 1.22-2.48.4-5.07.61-7.69.45-2.29-.13-4.65.38-7 .29-4.32-.16-8.66-.11-12.95-.59-2.68-.3-5.35-.36-8.03-.41-1.36-.03-2.62-.5-3.93-.8-1.93-.42-2.56-.2-3.5 1.52-1.14 2.07-2.82 3.73-4.12 5.68-2.18 3.26-4.6 6.37-6.98 9.5-1.63 2.13-3.51 4.04-5.13 6.19-.6.8-1.26 1.54-1.77 2.42-2.09 3.61-6.6 5.45-10.33 4.48a9.93 9.93 0 01-7.44-9.6c.04-1.22.3-2.38.88-3.38 1.77-3.06 1.26-6.24.37-9.28-1.5-5.14-3.26-10.18-3.82-15.55-.2-1.9-1.23-3.13-3.15-3.81-4.2-1.48-8.06-3.7-11.92-5.87-2.19-1.22-4.42-2.37-6.47-3.86-3.78-2.75-7.83-5.12-11.12-8.53-3.03-3.14-6.18-6.17-9-9.52-1.09-1.3-1.7-2.87-2.62-4.27-2.5-3.85-4.85-7.8-6.29-12.24-.69-2.14-1.63-4.22-2.2-6.4-1.2-4.52-2.03-9.11-2.74-13.73-.87-5.61-.3-11.24-.5-16.86v-1.45zm176.74 54.98c.2-.18.68-.28.2-.66l-.19.67c-.25.08-.3.15-.12.2.02 0 .07-.14.1-.21zm1.23-1.41c2.33-1.98 4.01-4.51 5.63-6.99a92 92 0 007.69-14.06c.79-1.85 1.46-3.77 2.36-5.55 1.9-3.76 3-7.77 4.34-11.72 1.18-3.48 1.87-7.1 2.79-10.66.95-3.68.79-7.47 1.65-11.13-.74-1.72.43-3.49-.08-5.18-.36-1.16-.31-2.32-.36-3.49-.04-1.09.01-2.2-.21-3.26a77.46 77.46 0 00-3.27-11.55c-2.55-6.68-6.41-12.45-11.15-17.76-2.3-2.57-5.03-4.67-7.3-7.24-1.52-1.73-3.58-2.64-5.5-4.13-.68 2.3-1.1 4.46-2.87 5.97-.73.61-.25 1.18.4 1.6a11.88 11.88 0 013.92 4.48c.89 1.6.5 3.3.92 4.9.72 2.7.14 5.15-1.42 7.39-1.25 1.78-1.76 3.98-3.3 5.6-.26.26-.56.75-.2 1.12.44.47.93.16 1.33-.16.33-.26.6-.6.93-.85a10.05 10.05 0 016.26-2.25c3.77-.02 6.6 1.95 8.92 4.54 2.15 2.4 3.14 5.34 1.9 8.63-.15.38-.36.77-.1 1.22.68.42 1.45.2 2.2.24 4.84.21 8.53 4.67 6.64 10.26a18.85 18.85 0 01-2.89 5.26c-2.08 2.73-3.83 5.67-5.95 8.38-2.63 3.34-5.11 6.81-7.75 10.17-1.33 1.7-2.77 3.35-3.88 5.22-1.09 1.83-1.04 1.87.7 2.88 3 1.77 4.6 4.42 4.5 7.88-.13 4-.3 7.98-2.46 11.64-.93 1.57-1.63 3.28-2.74 4.76a9.12 9.12 0 00-1.65 3.84zm-141.7-31.45l-.43-.35a6.61 6.61 0 00-2.47 2.37c-1.6 2.33-4.05 3.72-6.09 5.57a5.1 5.1 0 01-2.28 1c-3.08.67-3.11.67-1.75 3.59a72.58 72.58 0 006.24 9.96c3.42 4.53 7.65 8.24 12.2 11.5 3.6 2.57 7.59 4.6 11.44 6.8 1.58.9 1.97.66 2.54-1.2.17-.56.38-1.1.55-1.67.7-2.4.56-2.72-1.67-3.93-4.28-2.3-6.56-5.82-6.58-10.74-.02-2.97-.92-3.53-3.7-2.58-5.15 1.76-10.67-1.3-12.33-5.59a10.38 10.38 0 011.45-10.47c1.03-1.37 1.92-2.83 2.88-4.26zm62-104.56c-.56-.47-1.08-.36-1.57-.36h-16.11c-1.52 0-2.94.61-4.48.57-.94-.03-.87.85-.8 1.52.08.74.6.97 1.26.83.4-.08.78-.3 1.18-.43 3.02-1 5.93-.76 8.69.87 1.45.86 2.77 1.93 3.74 3.3.78 1.13 1.39.9 2.2.14 1.72-1.6 3.17-3.46 5.15-4.78.48-.32.7-.93.74-1.66zm35.28 13.2c.54-.24.78-.3.96-.45 2.68-2 5.14-4.26 7.6-6.52 1.53-1.4 1.5-1.61-.55-2.22-2.64-.78-5.3-1.46-7.96-2.2-.49-.13-1.03-.31-1.43.09-.46.46-.04.98.21 1.34 1.57 2.2 1.59 4.7 1.46 7.24-.04.81-.17 1.62-.29 2.72zM140.7 412.9h-.01c0 1.08.02 2.17-.01 3.25-.02.78.26 1.24 1.04 1.46.72.21 1.37.66 2.09.83 1.5.37 1.94-.15 1.53-1.65-.63-2.3-1.74-4.56-.74-7.05.1-.25 0-.77-.2-.9-.89-.64-1.92-.37-2.9-.28-.75.07-.79.74-.8 1.34v3zm-57.57-63.5v6.07c0 .42.08.88.49 1.08.6.29.94-.24 1.2-.6 1.1-1.5 2.13-3.06 3.27-4.73l-4.96-1.82zm1.55-21.16l.47.07c.5-.75 1-1.5 1.52-2.25 1.48-2.1 1.48-2.1-.64-3.61-.16-.11-.46-.02-.68-.02-.23 1-.53 1.96-.64 2.93-.11.95-.03 1.92-.03 2.88z"/>
    <path fill="#FAF1D5" d="M481.35 173.7c-4.73.35-8-2.51-10.83-5.91-3.42-4.12-6.05-8.81-9.47-12.95-1.72-2.09-3.66-3.93-5.54-5.84-1.28-1.28-2.34-2.64-2.76-4.42-.15-.63-.3-1.22-1.08-1.03-3.16.78-6.37.18-9.54.39-2.47.15-4.94.44-7.4.42a76.1 76.1 0 01-8.66-.54 78.38 78.38 0 01-14.3-3.38c-3.77-1.21-7.23-3.06-10.67-4.96a119.93 119.93 0 01-14.02-9.24c-3.47-2.62-7.07-5.12-10.22-8.1-3.2-3.02-6.02-6.47-8.83-9.88a47.44 47.44 0 01-5.72-8.5c-2.68-5.24-4.67-10.65-4.62-16.65 0-.9-.4-1.77-.42-2.71-.06-2.79.2-5.53.98-8.2.82-2.85.62-5.81.97-8.7a65.13 65.13 0 012.53-11.74 60.52 60.52 0 013.5-8.6c1.29-2.61 2.91-5.02 4.52-7.45 1.86-2.83 4.28-5.15 6.45-7.68a38.27 38.27 0 015.56-5.07c3.7-2.87 7.38-5.8 11.3-8.33 5.5-3.54 11.14-6.83 17.36-9 4.9-1.7 9.8-3.35 14.9-4.26 3.7-.65 7.4-1.38 11.2-1.33 4.79.07 9.6-.17 14.38.07 5 .26 10.02.3 14.96 1.36 1.71.37 3.5.27 5.25.46 3.17.34 6.24 1.13 9.37 1.67 5.92 1.02 11.34 3.44 16.58 6.3 4.2 2.3 8.04 5.12 11.69 8.2 2.36 1.98 4.41 4.33 6.71 6.4 3.13 2.8 5.59 6.19 8.2 9.43a88.89 88.89 0 015.85 8.15c1.7 2.68 3.46 5.34 4.96 8.15 2.36 4.43 4.47 8.94 5.7 13.86a192.31 192.31 0 012.15 9.53c.23 1.18.21 2.33.26 3.5.07 1.67.24 3.33.36 5 .17 2.2-.3 4.47-.6 6.7-.7 5.1-2.73 9.76-4.67 14.45-.22.54-.56 1.09-.59 1.65-.24 4.31-2.56 7.66-5.04 10.93-2.38 3.13-4.7 6.3-7.54 9.07-.92.9-1.84 1.74-3.2 1.85-.73.05-1.2.52-1.69 1-4.7 4.54-10.34 7.67-16.29 10.2a42.3 42.3 0 01-10.09 2.94c-.74.11-1.46.37-2.2.5-.72.14-.96.58-.96 1.25 0 1.35-.19 2.73.05 4.03.56 3.1.52 6.3.24 9.3-.37 3.88.06 7.82-1.1 11.72-1.04 3.51-3.69 6.45-7.93 5.98zM425.46 99c-.24.09-.28.16-.12.2.03 0 .07-.13.11-.2l.5-.5c.24-.09.28-.16.12-.2-.02 0-.07.13-.1.2l-.51.5zm72.7-48.97c.26-.08.3-.16.12-.2-.02 0-.07.14-.1.2-.26.09-.3.16-.13.2.02.01.08-.13.12-.2zm-7.05-14.12c1.05.09 1.95-.46 2.9-.73 1.34-.39 2.6-.41 3.94.1 4 1.52 6.84 6.9 2.53 11.21a3 3 0 00-1.01 2.8c2.13-2.04 4.37-2.94 6.86-1.94 2.39.97 3.64 2.97 3.76 5.8 2.26-1.5 3.55-3.58 5.6-4.77.55-.32.32-.77.05-1.29-.76-1.51-1.85-2.78-2.9-4.07-2.7-3.3-5.26-6.75-8.16-9.86a62.66 62.66 0 00-16.03-12.37 46.8 46.8 0 00-11.98-4.43c-4.79-1.09-9.73-1.47-14.6-2.15a2.3 2.3 0 00-.76 0c-.17.04-.58-.15-.43.33 3.3 1.46 3.31 1.45 5.06 4.76.38.71.83.99 1.62.63.45-.2.94-.38 1.43-.47 4.33-.79 9 .1 10.06 5.64.05.25.17.47.58.49l.58-.27a7.76 7.76 0 0111.44 7.12c-.01 1.2-.62 2.27-.55 3.46-.06.02-.13.04-.17.08-.03.03-.02.09-.04.13l.22-.2zM380.26 51.83c2.1-1.47 3.34-3.5 4.76-5.32 2.92-3.76 5.85-7.51 8.9-11.18 2.3-2.76 4.56-5.56 7.1-8.12.58-.58.99-1.34 1.46-2.04.15-.22.14-.51-.1-.65-.2-.1-.5-.17-.7-.1-.3.1-.56.33-.83.53-3.95 2.8-7.98 5.52-11.63 8.7a56.27 56.27 0 00-10.64 12c-.28.42-.7.87-.27 1.33 1.22 1.31 1.14 3.11 1.95 4.85zm66.68 67.15c-.63-.16-.88.1-1.11.32-2.48 2.35-4.88 4.78-7.98 6.37-1.36.71-.75 2.1-.68 3.18.07 1.24 1.2.9 1.97.92 4.01.12 7.98-.72 11.99-.58.04 0 .08-.11.23-.34-1.54-1.12-3.36-1.97-4.17-3.95-.8-1.97-.5-3.9-.25-5.92zm-60.41-31.94c-2.67-.2-4.67-1.1-6.04-3.14-.33-.5-.78-.59-1.3-.37-1.01.42-2.02.83-3.02 1.27-.67.3-.88.89-.44 1.43 1.69 2.08 3.02 4.45 5.07 6.23.7.61 1.47.65 1.98-.08 1.18-1.7 2.86-3.03 3.75-5.34zm81.68 56.1c2.53 2.86 4.53 5.6 7.06 7.89.2.17.43.26.68.08.3-.21.44-.53.32-.87-.58-1.72-.23-3.5-.31-5.24-.1-1.86-.9-2.82-2.57-2.4-1.5.37-3 .13-5.18.54zm-45.94-39.87c-.73-.1-1.02.22-1.32.5-3.19 2.97-5.8 6.46-8.67 9.7-.42.49-.66 1.08-.06 1.54.59.45 1.3.92 2.05.34.31-.23.51-.64.7-1 1.28-2.36 2.87-4.48 4.42-6.66.98-1.37 2.66-2.35 2.88-4.42zm.33-.71c1.07-.44 1.67-.84 1.6-1.9-.98.21-1.5.63-1.6 1.9z"/>
    <path fill="#000" d="M209.44 130.8c-2.49.4-4.79.8-7.1 1.14-5.4.8-10.8 1.59-16.2 2.36-2.45.35-4.9.7-7.37.95-.97.1-1.48.6-1.92 1.39-1.84 3.26-3.66 6.52-5.58 9.73-1.66 2.78-3.5 5.45-5.14 8.24a1068.35 1068.35 0 00-9.97 17.23c-1.83 3.25-3.32 6.7-5.27 9.88-3.07 5.01-6.97 9.37-11.28 13.36-.38.35-.68.8-1.22 1.45 1.62.16 2.93.41 4.25.4 5.33-.03 10.67-.13 16-.24 6.48-.13 12.95-.36 19.43-.38 2.84 0 5.69.47 8.54.62 4.44.24 8.9.38 13.35.54.64.02 1.13.02 1.16.89.33 7.55.89 15.1.98 22.67.1 8.28-.2 16.56-.34 24.84-.08 4.96-.16 9.92-.27 14.87-.02.9.31 1.26 1.2 1.35a5 5 0 012.03.62c1.07.65 1.48 1.7 1.21 2.93a2.67 2.67 0 01-2.45 2.2c-1.84.09-3.68.1-5.52.14-.16 0-.37.04-.5-.05-2.26-1.57-4.7-.91-6.94-.21-3.84 1.2-7.8 1.59-11.73 2.29-6.44 1.14-12.92 1.98-19.26 3.89a72.71 72.71 0 01-25.2 2.79c-4.3-.24-8.65.11-12.97.24-2.56.07-3.38-.67-3.65-3.2-.29-2.75-.86-5.49-1.04-8.24a326.7 326.7 0 01-.8-17.25c-.08-6.47.21-12.95.25-19.43.02-4.24-.11-8.49-.18-12.74 0-.1-.07-.22-.15-.47-.35.26-.66.44-.92.67-3.12 2.82-6.22 5.66-9.36 8.46-.7.62-.62 1.1-.14 1.8 1.42 2.09 2.82 4.19 4.1 6.36.48.8.73 1.79.88 2.73.17.97-.47 1.47-1.27.95a15 15 0 01-3.43-2.85c-1.39-1.66-2.51-3.55-3.96-5.65-2.42 2.58-4.75 5.03-7.04 7.52-.15.16-.2.62-.08.8.93 1.5.72 3.17.73 4.8.02 2.73.27 5.48-.04 8.17-.2 1.8-1.1 3.57-1.85 5.28-1.03 2.38-2.2 4.7-3.3 7.04-1.01 2.12-1.86 4.34-3.06 6.35a55.17 55.17 0 00-5.23 11.98c-.97 3.13-1.72 6.32-2.77 9.41a9.84 9.84 0 01-2.18 3.32c-.9.97-1.87.65-2.07-.65-.2-1.35-.41-2.82-.07-4.1 1.17-4.42 2.41-8.83 3.94-13.13 1.6-4.5 3.55-8.88 5.33-13.31.5-1.25.83-2.57 1.38-3.8.76-1.71 1.48-3.5 2.54-5.04a10.49 10.49 0 001.84-7.03c-.12-1.63-.09-3.27-.13-4.9-.01-.54.12-1.2-.12-1.62-1.2-2.09-1.76-4.48-3.48-6.34-3.08-3.33-6.82-5.65-10.72-7.83-2.53-1.41-4.84-3.2-7.28-4.75-.98-.63-2.04-1.14-3.08-1.65-.71-.36-1.48-.6-2.2-.96a2580.11 2580.11 0 01-14.4-7.24c-1.04-.53-2-1.23-3.06-1.74a354.52 354.52 0 00-7.87-3.63c-1.18-.54-2.44-.93-3.6-1.5-3.03-1.46-6.54-.28-7.82 2.8-.63 1.5-1.03 3.09-1.55 4.63-.3.87-.55 1.78-.98 2.58-2.66 4.95-5 10.09-8.41 14.62-2.62 3.47-3.9 7.62-5.51 11.59-1.62 3.98-3.3 7.9-5.92 11.37-.94 1.25-1.76 1.68-2.69 1.17-.97-.53-1.24-2-.57-3.26.65-1.22 1.46-2.38 1.97-3.65 1.49-3.75 2.9-7.53 4.28-11.32 1.64-4.51 4.4-8.38 6.91-12.4a111.7 111.7 0 005.82-10.89c.93-1.94 1.28-4.16 2.07-6.18 1.66-4.21 4.88-6.2 9.36-6.43 2.1-.1 4 .22 5.77 1.35.78.5 1.33.42 1.8-.5 1.9-3.74 3.8-7.49 5.8-11.18a1783.8 1783.8 0 0110.75-19.4c.51-.92.37-1.43-.35-2.15a37.47 37.47 0 01-3.32-3.94 5.36 5.36 0 01-.86-2.07c-.22-1.06.39-1.66 1.36-1.24 1.13.5 2.18 1.23 3.16 2 .85.66 1.55 1.52 2.46 2.43.33-.67.6-1.25.9-1.82 3.62-7.35 7.15-14.74 10.93-22.02 2.24-4.32 4.87-8.44 7.32-12.66 2.37-1.58 2.72-4.42 4.12-6.61a70.2 70.2 0 003.78-6.83c1.45-2.94 2.5-6.09 4.12-8.92 2.64-4.64 5.59-9.1 8.42-13.62 4.1-6.55 8.26-13.08 12.31-19.66 2.87-4.66 5.61-9.38 8.35-14.11.33-.57.46-1.36.4-2.02-.41-4.02-.96-8.02-1.36-12.03a1004.21 1004.21 0 01-1.58-17.58c-.08-.93.2-1.9.32-2.84-.55-.45-1.22-.9-1.74-1.48-.6-.67-.62-1.48 0-2.17.6-.65 1.28-.62 2.08-.3.83.33 1.73.68 2.6.69 4.12 0 8.25.03 12.36-.23 3.93-.24 7.86-.72 11.77-1.25 8.17-1.12 16.32-2.33 24.56-2.7 1.47-.07 2.94-.16 4.42-.21 6.38-.23 12.78-.77 19.14-.54 4.58.16 9.14.32 13.73.28 6.3-.06 12.62.16 18.92.17 4.38 0 8.75-.17 13.12-.22 2.96-.04 4.14 1.14 4.41 4.13.73 7.93 1.05 15.85-.11 23.78-.17 1.15-.1 2.35-.12 3.52-.05 3.2-.08 6.39-.11 9.58-.07 6.3-.13 12.61-.18 18.92-.02 1.55.03 3.11-.02 4.67-.02.77.28 1.22 1.01 1.33 1.58.23 3.16.59 4.74.59 9.18 0 18.34-.18 27.47-1.27a23.8 23.8 0 013.65-.18c5.87.2 11.67-.34 17.48-1.08 3.41-.43 6.87-.59 10.31-.77 2.9-.15 4.18 1.03 4.17 3.91 0 2.22-.29 4.44-.4 6.66-.24 4.45-.53 8.9-.64 13.35-.08 3.65.13 7.3.1 10.96a6896.77 6896.77 0 01-.48 33.43c-.04 2.27-.19 4.53-.27 6.8-.04.92.18 1.59 1.33 1.71.67.07 1.35.46 1.95.84 1.11.7 1.38 1.99.67 3.08a4.64 4.64 0 01-4.04 2.34c-6.64.19-13.28.44-19.9.85-2.68.17-5.32.82-7.98 1.24-3.77.6-7.53 1.32-11.32 1.76-7.09.82-14.02 2.66-21.2 3.03-4.9.25-9.75 1.16-14.64 1.66-5.48.57-10.91-.16-16.34-.83-.42-.05-.83-.12-1.25-.2-2.59-.43-3.38-1.26-3.6-3.85-.59-6.57-1.3-13.13-1.66-19.7-.24-4.24.03-8.5.07-12.74v-1.5zm26.13-110.93h-1.68c-3.7.08-7.4.21-11.1.2-7.4 0-14.8 0-22.2-.13-4.07-.07-8.14-.59-12.21-.55-6.22.07-12.44.41-18.65.68-3.45.15-6.9.26-10.33.58-7.49.7-14.96 1.6-22.45 2.24-4.43.38-8.9.47-13.34.58-1.83.04-3.67-.22-5.63-.34.05.53.08.94.13 1.34 1.15 8.83 2.28 17.66 3.48 26.48.22 1.68-.05 3.48 1.1 4.97.16.21.05.65.02.98-.1 1.2-.44 2.4-.33 3.57.68 7.66 1.52 15.3 2.16 22.96.35 4.19.38 8.4.62 12.6.34 5.82.76 11.65 1.1 17.48.18 3.14.27 6.3.41 9.44.03.51.14 1.02.25 1.85l1.15-1.76a141.86 141.86 0 0115.23-20.23c3.73-4.11 7.37-8.3 11.02-12.49a58.63 58.63 0 0115.2-12.52c.46-.26 1.03-.4 1.56-.46 3.14-.38 7.38 2.48 8.4 5.87.8 2.65 1.46 5.36 1.85 8.1.46 3.21.37 6.46-.9 9.55-1.3 3.15-2.52 6.33-3.85 9.46-2.62 6.19-4.9 12.54-8.75 18.14-.88 1.27-1.57 2.68-2.34 4.03-4.42 7.78-8.82 15.57-13.28 23.32-1.02 1.78-2.24 3.45-3.39 5.15-.74 1.1-1.9 1.47-2.96 1.01-1.13-.48-1.69-1.63-1.35-2.93.19-.68.39-1.4.75-2 .87-1.42 1.9-2.75 2.76-4.2 2.58-4.37 5.13-8.76 7.66-13.17 2.99-5.21 5.94-10.44 8.92-15.66.64-1.14 1.41-2.2 1.94-3.4 2.75-6.22 5.44-12.48 8.14-18.73.1-.24.16-.52.2-.65h-2.91c-1.48 2-2.65 2.33-4.45.48a26.43 26.43 0 01-4.16-5.92c-.84-1.57.62-3.86 2.27-3.82.89.03 1.74.81 2.64.91.94.1 1.92-.23 2.89-.32.22-.03.46.18.7.24l4.55 1.17c0-.72.09-1.27-.01-1.78-.4-2.14-.9-4.27-1.3-6.41-.3-1.57-1.28-2.53-2.63-3.16a1.57 1.57 0 00-1.24.04 44.38 44.38 0 00-11.06 8.7c-3.97 4.29-7.8 8.7-11.68 13.07-2.32 2.61-4.8 5.1-6.87 7.9-5.01 6.74-9.84 13.63-14.71 20.48-.33.47-.53 1.04-.72 1.6-.3.9-.88 1.46-1.85 1.37-.97-.09-1.64-.76-1.55-1.68.13-1.25.57-2.48.86-3.73.08-.36.18-.77.09-1.11-.26-.95-.82-1.85-.88-2.8-.27-3.64-.37-7.3-.56-10.95-.04-.92-.15-1.85-.23-2.77-1.08 3.11-3.18 5.4-5.4 7.58-2.3 2.26-3.44 2.42-6.3 1a4.45 4.45 0 01-2.39-4.83c.19-1 .28-2 .47-2.99.34-1.67.49-3.44 1.14-5 1.24-2.97 2.73-5.85 4.2-8.73 1.04-2.02 2.08-4.06 3.4-5.9.75-1.06 2.08-1.72 3.12-2.6.29-.25.65-.65.64-.97a69.14 69.14 0 00-.28-5.29c-.6-6.31-1.25-12.62-1.89-18.94-.03-.3-.1-.58-.21-1.16l-.62 1.13a304.97 304.97 0 01-16.42 27.64 200.41 200.41 0 00-8.73 14.3c-2.67 4.8-4.4 10.06-7.32 14.78-2.77 4.5-5.04 9.3-7.59 13.93-.83 1.51-1.79 3.07-3.65 3.4-.83.15-1.25.43-1.59 1.13l-9.1 18.7c-.13.26-.18.55-.24.83-.16.71-.2 1.48-.5 2.13-.46 1.04-1.15 1.96-1.61 3-.18.38-.04.95.05 1.42.12.69.59 1.43.44 2.04-.22.9-1.18 1.02-2 .85-.85-.19-1.2.2-1.55.86-1.38 2.55-2.84 5.06-4.2 7.62-1.5 2.81-2.93 5.67-4.39 8.5l-.27-.3c-.43.32-1.05.55-1.27.98-2.29 4.3-4.51 8.64-6.75 12.96-.03.06.04.16.06.21 1.15.54 2.32 1.03 3.42 1.62 2.05 1.08 4.03 2.28 6.09 3.33 4.72 2.38 9.47 4.71 14.21 7.06.45.22.94.37 1.4.57 1.33.6 2.73 1.09 3.98 1.83 4.51 2.69 8.98 5.45 13.45 8.2.86.53 1.7 1.1 2.46 1.76 2.1 1.81 4.13 3.69 6.42 5.74 1.69-1.74 3.74-3.9 5.84-6 .54-.55.84-.98.59-1.84-.42-1.45.86-2.58 2.22-1.95.76.36 1.11.1 1.6-.35a1140.44 1140.44 0 019.46-8.54c1.05-.94 2.17-1.79 3.4-2.78l-1.42-.73c-.74-.4-1.25-.97-.91-1.83.34-.86 1.12-.94 1.91-.65.67.24 1.3.6 2 .78.4.1 1.01.08 1.31-.17 3.65-2.96 7.31-5.92 10.86-9 4.04-3.5 8.15-6.9 11.25-11.4 4.33-6.29 9.24-12.2 12.03-19.43.12-.3.3-.6.47-.89 1.7-3.04 3.32-6.13 5.13-9.1 3.78-6.22 7.66-12.37 11.5-18.54.37-.59.76-1.17 1.23-1.88-.57-.1-.94-.14-1.3-.22a2.5 2.5 0 01-1.94-2.46c0-1.2.77-2.22 1.95-2.46 1.92-.4 3.84-.82 5.78-1.12 3.11-.48 6.24-.85 9.36-1.3 5.65-.82 11.28-1.7 16.94-2.48 3.4-.47 6.84-.77 10.26-1.18 1.83-.21 3.65-.49 5.47-.76 5.82-.87 11.62-1.8 17.45-2.59 1.9-.26 1.9-.09 1.74-2.05-.42-5.15-.93-10.29-1.18-15.45-.34-7.13-.66-14.28-.67-21.42-.02-13.41.2-26.82.32-40.23 0-.67.07-1.35.16-2.01 1.02-7 .86-14 .01-21.23zm-22.64 110.94c0 1.36-.05 2.57 0 3.77.22 4.5.36 9 .74 13.48.41 4.9 1.07 9.77 1.57 14.66.07.68.3.98.97 1 4.83.12 9.7.63 14.5.28 7.14-.52 14.27-1.57 21.38-2.55 3.07-.43 6.08-1.29 9.14-1.85 3.55-.66 7.11-1.25 10.68-1.8 3.2-.47 6.4-.82 9.6-1.27 2.13-.3 4.23-.8 6.35-.97 4.53-.35 9.07-.53 13.6-.8.15 0 .3-.1.42-.15 0-1.9-.04-3.75 0-5.6.13-5.25.38-10.5.42-15.75.06-8.91-.16-17.83.03-26.74.15-7.13.7-14.26 1.14-21.4.07-1.08-.1-1.54-1.31-1.42-2.43.24-4.87.33-7.3.56-4.47.4-8.9 1.29-13.44 1.08-2.68-.13-5.38 0-8.07.13-6.22.26-12.43.71-18.65.84-4.73.1-9.5.35-14.17-1 0 1.95-.05 3.75.01 5.55.19 5.46.37 10.92.65 16.37.27 5.37.7 10.73.97 16.1.12 2.56-.76 3.5-3.29 3.85-2.37.32-4.76.49-7.12.83-6.31.9-12.61 1.87-18.82 2.8zm-90.27 140.22c4.3 0 8.3-.15 12.27.03 6.21.29 12.36.02 18.4-1.46 4.21-1.03 8.34-2.38 12.58-3.2 5.53-1.07 11.13-1.72 16.68-2.64 4.58-.75 8.94-2.67 13.7-2.46.08-1.63.2-3.25.23-4.88.11-6.47.2-12.94.3-19.42.03-2.14-.04-4.29.04-6.43.37-9 .42-17.99-.31-26.97-.09-1-.37-1.41-1.43-1.35-4.16.22-8.29-.23-12.44-.47a215.62 215.62 0 00-22.57-.15c-8.44.38-16.8.32-25.15-1.07-.6-.1-1.42.16-1.9.54-3.1 2.4-6.11 4.87-9.15 7.34-.5.41-.96.9-1.55 1.44l2.5 1.69c-.33-1.58.18-2.48 1.47-2.7a73.03 73.03 0 015.75-.73c1.15-.1 1.9.51 2.15 1.69.26 1.22.56 2.43.91 4 3.37-.26 6.79-.49 10.2-.8.25-.02.64-.6.65-.94.05-.96-.14-1.93-.1-2.89.04-1.45.63-2.07 2.06-2.18a98.48 98.48 0 015.54-.27c1.71-.03 2.38.6 2.53 2.3.64 7.45 1.26 14.9 1.88 22.35.17 2.06-.54 2.9-2.55 3.31a52.36 52.36 0 00-5 1.26c-2.03.63-3.06-.02-3.14-2.19-.06-1.32-.01-2.65-.01-4.2-2.57.3-4.9.53-7.22.85-3.02.4-3.01.43-2.8 3.36.13 1.75-.56 2.74-2.27 3.06-1.94.37-3.9.63-5.83 1-1.99.39-3.13-.32-3.25-2.37-.4-6.5-.71-13.01-1.07-19.52-.02-.44.02-1.1-.24-1.28-1.36-.92-2.8-1.72-4.16-2.54.29 8.3.62 16.5.84 24.68.18 6.38.2 12.77.34 19.15.04 2.1.18 4.2.34 6.3.23 2.96.53 5.91.78 8.76zm6.44-36.9l1.16-.23c1.02-.2 2.46-.09 2.92-.7.49-.65.04-2-.01-3.05-.08-1.62.76-2.62 2.38-2.83.7-.09 1.41-.17 2.13-.23 3.63-.35 7.26-.75 10.9-1 1.97-.14 2.65.76 2.4 2.7-.12 1-.12 2.03-.17 3.16.94-.22 1.63-.47 2.33-.53 1.1-.1 1.33-.65 1.25-1.67-.37-4.86-.67-9.72-1.02-14.58-.13-1.65-.35-3.3-.53-5.03l-3.43.21c.06 1 .1 1.87.18 2.74.18 1.93-.37 2.6-2.2 3.18-4.34 1.36-8.8 1.2-13.24 1.17-2-.02-2.76-.87-2.95-2.87-.04-.38-.01-.76-.02-1.14-.04-1.74-.19-1.82-1.95-1.58-1.1.15-1.46.6-1.3 1.73.17 1.28.1 2.6.17 3.9l1 16.65zM121.15 96c-.36.29-.5.34-.54.44-3.11 6.17-7.45 11.84-7.95 19.1-.01.2-.13.41-.11.61.03.47.11.92.17 1.38.41-.22.9-.37 1.22-.69 1.7-1.68 3.3-3.48 5.07-5.08.77-.7 1.9-1 3.2-1.66L121.16 96z"/>
    <path fill="#000" d="M499.72 379.97c-2.51-.05-3.81-1.14-4.63-3.09-2.38-5.7-4.83-11.36-7.26-17.03-4.06-9.47-8.21-18.9-12.17-28.4-3.85-9.27-7.47-18.64-11.27-27.93a603.43 603.43 0 00-8.54-20.08 244.24 244.24 0 00-19.03-34.78c-1.92-2.92-4.6-5.35-6.93-8-.1-.1-.25-.16-.4-.25l.01 6.3c.04 4.4.02 8.83.18 13.24.05 1.25.46 2.55.99 3.7 3.05 6.64 6.4 13.15 9.23 19.89 2.22 5.3 3.9 10.81 5.63 16.3.55 1.72.75 3.68.56 5.46-.15 1.4-.98 2.83-1.82 4.02-.8 1.1-3.32 1.15-4.38.03a31.21 31.21 0 01-4.55-5.66c-1.72-2.97-3.02-6.18-4.5-9.3l-.8-1.77c-.38.22-.64.4-.93.54-1.47.7-3.01-.17-3.12-1.78-.56-8.25-1.17-16.5-1.63-24.75-.3-5.53-.4-11.08-.56-16.62a10613.4 10613.4 0 01-.75-25.84c-.07-2.6-.23-5.21-.12-7.81.11-2.6.5-5.17.78-7.93-1.22-.1-2.42-.15-3.6-.33-9.36-1.43-18.79-1.41-28.2-1.26-10.77.18-21.54.38-32.3.83-5.18.22-10.37.91-15.53 1.62-5.9.81-11.79 1.8-17.66 2.85-3.66.66-7.31 1.1-11.04.95-5.37-.23-10.75-.36-16.12-.57-1.21-.05-2.42-.24-3.9-.4.17 1.92.32 3.79.5 5.65.86 8.36 1.93 16.7 2.53 25.09.4 5.7.25 11.43.18 17.15-.06 4.63.94 9.1 1.57 13.64 1.2 8.65 2.48 17.29 2.44 26.07-.02 3.13.7 6.25 1.1 9.38.35 2.92.73 5.84 1.07 8.76.07.62 0 1.25 0 1.92.1.03.27.1.43.1 6.47-.09 12.92.01 19.37-1.05 4.08-.67 8.3-.34 12.45-.71 5.01-.45 10-1.22 15-1.75 3.26-.34 6.53-.5 9.8-.75 3.77-.29 7.54-.57 11.3-.87l17.47-1.4c.16-.02.32-.08.7-.16-1.24-2.47-2.33-4.92-3.68-7.22-3.27-5.55-6.7-10.99-9.98-16.52-2.72-4.6-5.15-9.38-6.7-14.5-1.32-4.37-.45-8.73 1.39-12.77.63-1.39 2.22-2.5 3.6-3.36 3.81-2.38 7.7-2.95 12.09-1.02 5.57 2.46 9.77 6.33 13.2 11.18 3.44 4.87 6.72 9.87 10.22 14.71 2.7 3.75 5.7 7.28 8.41 11.03 2.6 3.6 5.05 7.33 7.46 11.07 2.4 3.71 4.69 7.49 6.96 11.27 1 1.65 1.78 3.44 2.77 5.1 1.95 3.23 3.97 6.42 5.97 9.63.2.32.4.64.58.97.75 1.4.43 2.9-.77 3.69a2.62 2.62 0 01-3.76-.82 492.95 492.95 0 01-6.47-10.36c-2.07-3.41-4-6.9-6.08-10.3-2.84-4.68-5.61-9.4-8.67-13.92-2.3-3.4-5.13-6.45-7.52-9.8-4.24-5.91-8.33-11.93-12.45-17.92-2.1-3.06-4.27-6.1-7.35-8.25a43.11 43.11 0 00-6.26-3.48c-1.18-.56-2.48-.63-3.59.54-.4.43-1.2.55-1.86.65-1.5.25-2.5 1.04-2.8 2.52-.61 2.92-1.19 5.86-.22 8.82.11.36.26.71.4 1.06l.24.43c.4-3.23.8-6.24 1.13-9.26.1-1.03.34-1.94 1.51-1.93 1.08.01 1.43.9 1.46 1.86.03.76.01 1.51.01 2.49 1.1-.79 2.21-1.58 3.13-.5.64.77.81 1.94 1.08 2.65.83.22 1.75.24 2.35.68.87.65.73 1.71.41 2.68-.64 1.96-1.33 3.9-1.92 5.87-.2.65-.32 1.45-.13 2.07.32 1.03.34 1.8-.76 2.3-1.23.56-2.56.33-2.92-.79a9.3 9.3 0 01-.28-3.4c.05-.79.45-1.47-.44-2.1-.35-.23-.42-.86-.48-1l-3.82-.35c1.72 3.33 3.39 6.76 5.23 10.08 1.49 2.69 3.22 5.23 4.77 7.88.95 1.62 1.75 3.34 2.67 4.99 1.12 2 2.37 3.95 3.43 6 1.4 2.71 2.61 5.54 4.03 8.24 1.74 3.3 3.63 6.53 5.41 9.8 1.93 3.55 3.7 7.18 5.73 10.66 2.63 4.54 5.48 8.96 8.15 13.48a17.76 17.76 0 011.72 4c.3.98.32 2.16-.83 2.8-.85.46-2.3-.1-3.07-1.15-.98-1.37-2-2.72-2.86-4.15-3.88-6.4-7.86-12.73-11.03-19.53-1.67-3.57-3.87-6.89-5.86-10.3-.14-.24-.52-.5-.77-.48-4.31.28-8.63.6-12.94.92-.28.02-.56.14-1 .25.38.78.72 1.47 1.04 2.18 3.23 6.98 6.28 14.05 9.73 20.91 2.43 4.83 5.34 9.43 8.15 14.06 4.72 7.76 11.26 13.99 17.54 20.43a574 574 0 0011.38 11.44c2.63 2.55 5.38 4.97 8.16 7.34 2.9 2.49 5 5.6 6.68 8.93 2.41 4.79 4.53 9.73 6.72 14.63 1.38 3.1 2.68 6.23 4.02 9.35.08.19.11.4.26.9-1.18-1.7-2.2-3.1-3.16-4.56-2.52-3.87-4.98-7.79-7.53-11.65a363.48 363.48 0 00-6.76-9.88c-2.51-3.53-6-6.1-9.12-9.03-3.9-3.65-7.82-7.28-11.56-11.09-4.56-4.65-9-9.43-13.38-14.25a86.14 86.14 0 01-11.95-17.27c-2.07-3.85-4.26-7.64-6.11-11.59-2.92-6.2-5.59-12.5-8.39-18.76-.84-1.89-.87-1.8-2.9-1.66-4.28.3-8.56.43-12.84.76-2.92.23-5.82.75-8.74 1.01-6.28.55-12.53 1.27-18.86 1.22-4.49-.04-8.97.79-13.46.9-4.7.1-9.42-.1-14.12-.36a11.57 11.57 0 01-4.05-1.26c-1.58-.74-1.69-2.23-.49-3.5.25-.28.4-.8.36-1.17-1.07-9.3-2.68-18.54-2.52-27.97.05-3.15-.78-6.32-1.22-9.49-.76-5.45-1.7-10.88-2.25-16.35-.35-3.5-.21-7.06-.15-10.59.16-8.35-.7-16.62-1.6-24.9-.57-5.27-.85-10.56-1.16-15.85-.05-.75.46-1.54.72-2.3.1-.3.3-.6.3-.89-.07-2.34.82-3.04 3.15-2.76 2.04.25 4.1.28 6.16.37 1 .05 2 .01 2.89.01-2.05-5.4-1.37-10.8-.98-16.2l.21-2.7c-1.3.06-2.47.03-3.62.19-2.46.32-4.89.9-7.35 1.08-2.68.18-5.37 0-8.06.02-.7 0-1.46 0-2.12.23-4.82 1.68-9.79 1.78-14.82 1.74-3.65-.03-7.3.38-10.95.54-2.14.08-4.3.2-6.42.04-3.96-.3-7.88-.18-11.83.19-3 .27-6.04-.11-9.06-.01-4.19.13-8.38.45-12.57.68-.8.05-.93.58-.9 1.23l.53 10.06c.29 5.04.56 10.08.88 15.11.46 7.05.97 14.1 1.45 21.14.3 4.4.56 8.8.9 13.2.14 1.72.52 3.4.7 5.11.18 1.54.34 3.1.34 4.64 0 1 .35 1.5 1.27 1.68.5.1.99.22 1.49.24 2.47.1 4.95.2 7.42.22 1.34 0 2.68-.12 4.02-.26 6.43-.65 12.88-1.23 19.3-2.03 5.04-.63 10.05-1.58 15.08-2.34 1.37-.2 2.76-.24 4.14-.4 3.62-.45 7.24-.95 10.86-1.38 1.08-.13 2.19-.2 3.27-.12a2.93 2.93 0 012.68 3c0 1.49-1.1 2.78-2.55 3-2.95.42-5.89.92-8.85 1.25-3.3.38-6.62.5-9.9.92-5.13.67-10.23 1.56-15.35 2.25-3.67.5-7.35.83-11.03 1.22-6.87.71-13.74 1.02-20.59-.13a13.6 13.6 0 01-3.97-1.54c-1.48-.78-2.1-2.25-2.28-3.86-.4-3.92-.8-7.84-1.13-11.77-.51-6.32-1.04-12.65-1.41-18.99-.5-8.6-.86-17.21-1.3-25.82-.2-4.07-.44-8.14-.65-12.22-.03-.66.11-1.34.07-2.01-.06-.84-.13-1.71-.39-2.5-.47-1.45.22-2.92 1.77-3.19 6.17-1.06 12.3-2.22 18.66-1.7 3.19.26 6.44-.36 9.67-.45 3.06-.08 6.13.06 9.2 0 3.18-.08 6.37-.33 9.56-.44 4.11-.15 8.24-.17 12.35-.39 2.09-.1 4.24-.25 6.21-.86 3.34-1.03 6.68-1.04 10.1-1.05 3 0 6-.53 9.01-.8 2.26-.19 4.52-.33 6.78-.5.92-.06 1.85-.08 2.76-.16 1.36-.12 2.53.17 3.28 1.4.74 1.24.53 2.4-.3 3.53-.25.35-.45.82-.47 1.25-.2 4.53-.29 9.06-.54 13.59-.08 1.53-.53 3.05-.84 4.69 2.2.13 4.73.52 7.25.39 3.47-.18 6.93-.64 10.37-1.16 5.52-.84 11.04-1.71 16.53-2.78 6.5-1.26 13.04-1.9 19.67-2 13.33-.2 26.66-.55 39.99-.76 6.78-.1 13.51.57 20.24 1.4 2 .26 4.03.32 6 .67 1.88.33 2.93 2.1 2.22 3.82-1.27 3.07-1.4 6.3-1.63 9.52-.17 2.21-.04 4.45.01 6.67.04 2.18.19 4.37.2 6.55.05 3.87-.03 3.94 2.9 6.52 7.83 6.88 13.75 15.16 18.37 24.45 2.22 4.47 4.84 8.75 7.05 13.23 2.05 4.18 3.84 8.49 5.66 12.78 3.02 7.12 6.16 14.2 8.9 21.42 5.7 15.01 12.43 29.6 18.41 44.5 2.99 7.44 5.6 15.03 8.3 22.6.55 1.5.73 3.14 1.1 4.84zm-58.7-76.05l.59-.28c-2.12-10.26-6.33-19.76-10.8-29.36 0 3.96-.02 7.68.02 11.4 0 .35.3.78.58 1.05a17.85 17.85 0 014.18 6.52 44.57 44.57 0 002.13 4.84c1.03 1.98 2.2 3.89 3.3 5.83zM320.89 89.7c-1.58-.1-3.04-.2-4.5-.32-.75-.05-1.52-.07-2.26-.22a2.48 2.48 0 01-2.01-2.54c.01-1.24.82-2.35 2.08-2.47 1.67-.16 3.35-.14 5.03-.12 1.32.01 2.6.33 3.78-.76.75-.7 1.7-.37 2.55.2.48.33 1.13.65 1.67.6a389.28 389.28 0 0016.65-1.9c2.74-.41 5.5-.74 8.19-1.4 2.6-.66 5.2-1.1 7.86-.85 5.6.55 11.04-.3 16.53-1.3 4.03-.73 8.18-.85 12.28-1.24a84.24 84.24 0 0116.87.33c.7.08 1.43-.06 2.14-.08 1.96-.06 2.75.7 3.24 2.58 1.7 6.52 1.31 13.17 1.37 19.79.1 10.76.32 21.53.21 32.3-.09 8.65-.57 17.3-.92 25.95-.1 2.38-1.21 3.4-3.6 3.4-5.18.03-10.35.01-15.53.01-7.99 0-15.98-.04-23.97.03-4.5.04-9 .48-13.49.39-4.07-.08-8.05.22-12.01 1.08-1.06.24-2.18.2-3.26.29-2.1.18-4.18.44-6.27.56-2.68.15-5.37.34-8.05.25-2.47-.09-3.42-1.14-3.65-3.64-.46-4.94-1-9.88-1.24-14.83-.3-6.2-.4-12.42-.5-18.64-.09-6.68-.2-13.37-.06-20.06.11-5.58.57-11.16.87-16.74v-.65zm85.7 29.88h.08c0-6.18-.02-12.36 0-18.54.03-5.17.13-10.34.15-15.5a5.72 5.72 0 00-.35-1.96c-.1-.29-.56-.62-.88-.64-5.92-.37-11.84-.64-17.76-.01-3.05.32-6.16.34-9.15.93-6.46 1.3-12.92 2.23-19.53 1.63-1.48-.13-3.02.14-4.5.38-3.52.58-7 1.46-10.54 1.85-5.84.65-11.59 2.2-17.53 1.93-.83-.04-.8.52-.82 1.08-.15 2.99-.42 5.97-.42 8.95-.02 9.5.05 19 .1 28.5.03 4.97-.08 9.94.15 14.89.23 4.82.85 9.62 1.24 14.44.08.96.38 1.38 1.38 1.24 1.87-.27 3.74-.54 5.62-.75 3.17-.36 6.34-.63 9.51-1.01 2.66-.32 5.3-.88 7.98-1.06 2.84-.2 5.7-.06 8.56-.08 7.02-.03 14.04-.05 21.06-.1 7.6-.07 15.22-.18 22.83-.25 1.96-.02 1.98 0 2.03-2.01l.8-33.9zM202.04 371.26c.12-4.53.3-9.06.33-13.6.06-9.2.06-18.42.02-27.62-.05-9.1-.04-18.17.99-27.22.28-2.55.6-5.1.89-7.64l.2-1.84c-1.46.08-2.8.14-4.12.23-9.95.65-19.89 1.35-29.83 1.93-4.11.25-8.26.04-12.36.4-10.14.87-20.24.71-30.32-.8-.33-.05-.75-.05-.96-.25-.49-.45-1.22-1.02-1.2-1.52.03-.59.64-1.5 1.18-1.65 1.14-.33 2.4-.34 3.6-.34 6.69-.02 13.38.2 20.06-.02 8.86-.3 17.72-.87 26.57-1.42 8.6-.55 17.2-1.2 25.79-1.85 1.88-.13 3.75-.54 5.63-.5.94.01 2.02.56 2.76 1.2 1.01.85.96 2.53-.04 3.52-.91.92-1.17 2-1.32 3.18-1.3 10.23-2 20.5-1.85 30.82.11 8.33-.08 16.65-.14 24.98-.05 7.48-.08 14.96-.15 22.44-.01.83-.15 1.68-.33 2.5-.34 1.48-1.38 2.28-2.77 2.24-1.36-.05-2.3-.94-2.59-2.46l-.11-.5c-3.26 1.61-6.76 1.34-10.14 1.17a89.55 89.55 0 00-16.59.92c-6.58.88-13.21 1.4-19.82 2.12-5.56.61-11.1 1.56-16.71 1.15-2.3-.17-4.58-.56-6.88-.84-.53-.06-1.07-.14-1.61-.13-1.4.03-2.99-1.03-3.36-2.38a7.52 7.52 0 01-.3-2.11c.07-3.3-.36-6.5-1.04-9.74-.6-2.84-.38-5.85-.62-8.78-.53-6.7-1.17-13.4-1.67-20.1a149 149 0 01-.4-9.96c-.05-7.5-.47-14.96-1.63-22.37-.4-2.61-.62-5.26-.88-7.9a3.43 3.43 0 01.16-1.6c.42-.98 1.24-1.44 2.33-1.34 1.14.1 1.79.81 1.94 1.85 1.12 7.73 2.6 15.42 2.84 23.27.21 6.76.45 13.53.86 20.28.37 6.13 1 12.23 1.49 18.35.2 2.47 0 5 .5 7.4.7 3.23 1.26 6.43 1.1 9.73-.05.92.4 1.2 1.19 1.2 4.66 0 9.35.34 13.96-.11 9.42-.91 18.8-2.15 28.17-3.46 5.77-.8 11.52-1.3 17.35-.93 2.5.16 5.04-.11 7.56-.14.7-.01 1.4.14 2.27.24z"/>
    <path fill="#000" d="M363.67 231.4c-.68 9.06.18 18.05 1.34 27.03.45 3.5.64 7.03.9 10.55.17 2.15-.5 2.64-2.53 1.98-.35-.11-.75-.09-1.12-.09-6.64 0-13.11 1.1-19.6 2.46-5.64 1.17-11.45.9-17.22.74-4.07-.13-8.14 0-12.22.04-.86 0-1.62-.46-1.38-1.2.51-1.57-.03-3-.22-4.45a402.88 402.88 0 01-3.35-39.18c-.07-2.06.08-4.12.12-6.18.03-1.36.89-2.09 2.05-2.39 1.21-.31 2.5-.31 3.72-.63 5.1-1.33 10.33-1.28 15.52-1.62 7.84-.52 15.7-.95 23.54-1.42 2.6-.16 5.2-.33 7.8-.47 1.94-.1 2.63.54 2.64 2.47.02 4.12 0 8.24 0 12.36zm-38.38 39.59c0-1.83.13-3.43-.04-5-.15-1.37.36-2.16 1.6-2.4a138.79 138.79 0 017.41-1.27c1.46-.2 2.94-.21 4.4-.38 3.17-.36 6.33-.82 9.5-1.14 2.38-.23 3.05.42 3.02 2.82-.02 1.54-.2 3.07-.32 4.7l11.9-.9c-.26-2.9-.36-5.77-.77-8.58a172.05 172.05 0 01-1.33-36.22c.06-.9.14-1.81.22-2.76l-11.85.6c.08 1.2.16 2.15.2 3.11.07 1.66-.5 2.17-2.15 2.14-1.59-.03-3.19-.07-4.76.12-3.13.36-6.23.92-9.35 1.3-2.78.34-5.58.65-8.38.78-2.1.1-2.47-.35-2.8-2.39-.19-1.15-.32-2.31-.48-3.47-.15-.05-.27-.12-.39-.11-2.67.25-5.34.5-8.01.82-.24.03-.6.55-.61.85-.06 1.35-.1 2.7.01 4.04 1.04 12.56 2.1 25.13 3.19 37.69.16 1.9.44 3.81.66 5.65h9.13zm15.86-6.34c-2.85 0-2.93.06-3.4 2.25.78-1.03 1.33-2.3 2.72-1.06l.68-1.2zm-97.2-42.9l-8.78.49c0 1.46-.16 2.73.02 3.96.61 4-1 4.34-4.1 5.02-1.22.26-2.48.34-3.71.57-1.57.3-2.72-.36-3.05-2.04-.37-1.9-.67-3.8-.8-5.73-.52-7.07-.92-14.16-1.42-21.23-.18-2.66.47-3.63 3.1-4.08 1.4-.24 2.82-.46 4.24-.64 1.57-.2 3 .95 3.2 2.53l.4 3.12c.01.08.09.14.24.39l10.15-1.5v-2.34c.02-1.96.94-3.19 2.9-3.5 1.78-.28 3.59-.4 5.39-.48 1.17-.06 2 .76 2.15 2.03.27 2.29.58 4.58.71 6.88.31 5.62.52 11.24.79 16.86.04.96.27 1.92.3 2.88.03 1.6-.77 2.85-2.28 3.22a66.02 66.02 0 01-6.67 1.3c-1.51.2-2.88-1.2-2.96-2.8a26.61 26.61 0 010-2.4c.03-.79.11-1.58.18-2.5zm3.83-20.67c0 1.41.04 2.79 0 4.16-.06 1.45-1.12 2.5-2.47 2.2-2.57-.54-5 .14-7.48.53-2.1.33-4.25.46-6.39.52-1.5.03-2.2-.68-2.48-2.17-.16-.86-.17-1.76-.38-2.61-.1-.37-.48-.89-.78-.92-.6-.07-1.29 0-1.22.98.14 1.97.2 3.95.34 5.92.29 4 .61 8.02.92 12.03.1 1.17.15 2.34.29 3.5.23 1.91.64 2.12 2.66 1.27-.14-2.07-.3-4.2-.41-6.33-.11-2.24 1.07-3.12 3.25-2.66 1.08.23 2.23.22 3.35.17 2.8-.11 5.6-.39 8.41-.44 1.9-.04 3.1 1.3 3.1 3.23 0 .92-.15 1.84-.22 2.76-.04.48-.05.97-.07 1.48.41 0 .66.02.91 0 1.97-.18 2-.2 1.9-2.18-.22-4.9-.43-9.81-.72-14.71-.14-2.25-.46-4.48-.7-6.75-.42-.04-.66-.08-.9-.08-.25 0-.5.05-.9.1zm-98.82 117.64c2.69-.9 5.07-1.71 7.46-2.5a8.2 8.2 0 011.7-.4c1.04-.1 1.97.14 2.3 1.29.33 1.19-.3 1.95-1.36 2.36a139.11 139.11 0 01-4.95 1.86c-1.27.45-2.54.9-3.84 1.22-.98.24-1.23.76-1.18 1.7.2 4.25.35 8.5.5 12.74a12.83 12.83 0 01-.03 1.76 2.45 2.45 0 01-2.51 2.32c-1.36 0-2.41-.9-2.51-2.32-.15-2.14-.19-4.28-.28-6.42l-.37-7.95-2.02.3c-1.58.2-3.17.44-4.75.6a7.84 7.84 0 01-2.01-.04c-.94-.14-1.52-.73-1.48-1.73.03-1 .64-1.5 1.58-1.65 2.37-.4 4.72-.87 7.09-1.19 1.2-.16 1.45-.73 1.43-1.84-.03-4 .03-7.99.06-11.98v-.25c.05-1.72.97-2.81 2.4-2.85 1.47-.05 2.44 1.04 2.5 2.85l.27 9.45c.02.79 0 1.58 0 2.67zM17.9 259.04c-.83-2.9-.48-5.62.55-8.18 2.05-5.1 4.18-10.18 6.45-15.19 2.57-5.66 5.33-11.24 8.02-16.85.29-.6.6-1.2.95-1.77.82-1.37 1.83-1.79 2.9-1.24 1.04.55 1.3 1.69.65 3.08-1.09 2.33-2.22 4.63-3.29 6.96-3.96 8.72-7.9 17.46-11.87 26.17-1.12 2.47-2.08 5.06-4.36 7.02zm303.36 35.03l-2.52-.18c-.96-.06-1.67-.52-1.7-1.5-.03-1.08.7-1.55 1.72-1.62 4.1-.3 8.24-.43 12.32-.92 3.2-.39 6.35-1.26 9.53-1.82 5.92-1.06 11.86-2.02 17.9-2 .58 0 1.16-.16 1.74-.23 1.16-.13 2.1.45 2.35 1.45.25.98-.32 1.97-1.45 2.3-.76.24-1.56.37-2.35.44-4.02.35-8.06.5-12.05 1.03-4.57.62-9.08 1.76-13.66 2.34-3.91.5-7.88.54-11.83.78v-.07zm-78.77-48.78c-3.52.18-7.04.38-10.57.53-1.09.04-2.18-.05-3.27-.13-.9-.05-1.56-.48-1.58-1.45-.02-1.07.73-1.48 1.64-1.55 1.8-.13 3.61-.2 5.42-.29 3.68-.19 7.38-.32 11.06-.6 1.67-.12 3.3-.59 4.97-.76 2.83-.3 5.67-.54 8.51-.7 1.16-.08 1.94.73 1.96 1.7a1.8 1.8 0 01-1.88 1.8c-3.72-.08-7.35.56-10.98 1.28-1.72.33-3.51.24-5.27.34v-.17zm-208.67.2c.41-1.4.65-2.83 1.25-4.1 2.26-4.78 4.66-9.5 6.97-14.25.97-2 1.84-4.05 2.75-6.08.12-.27.24-.54.38-.8.7-1.29 1.65-1.73 2.62-1.22.9.48 1.1 1.41.48 2.76-3.2 6.89-6.38 13.78-9.64 20.64a22.83 22.83 0 01-2.52 3.9c-.31.41-1.03.52-1.56.77l-.73-1.62zm15.84 15.24c.28-1.25.46-2.52.85-3.73a206.95 206.95 0 019.56-23.82c.2-.45.5-.89.84-1.23.6-.6 1.34-1 2.15-.46.76.51.7 1.27.4 2.04-1.1 2.72-2.14 5.47-3.27 8.18-2.5 5.97-5.17 11.85-8.64 17.33-.42.65-.9 1.26-1.35 1.9l-.54-.21zm279.05 49.25l-9.02-.67c-.93-.07-1.67-.44-1.67-1.5 0-1.08.81-1.44 1.7-1.48 1.72-.09 3.46-.25 5.16-.06 5 .54 9.9 0 14.75-1.15a6 6 0 012.86-.08c.67.19 1.5.9 1.69 1.55.27.95-.74 1.33-1.5 1.51-4.1.98-8.18 2-13.97 1.88zM46.55 247c-.82-1.8-.45-3.23-.12-4.56 1.3-5.25 3.74-10.03 6.3-14.76.44-.82 1.18-1.43 2.18-.93.93.46.96 1.4.61 2.2a891.38 891.38 0 01-6.99 15.45c-.4.87-1.18 1.56-1.99 2.6zM64 252.37c.25-1.06.38-1.94.67-2.76.97-2.72 1.98-5.43 3.02-8.13.27-.7.55-1.48 1.06-1.97.4-.39 1.31-.7 1.73-.5.5.25 1.1 1.2.97 1.64-1.24 4.07-2.2 8.28-4.75 11.84-.14.2-.3.44-.5.55-.48.27-1.08.74-1.48.62-.36-.11-.51-.9-.72-1.3zm340.91 47.06c1.52-.02 2.15.93 1.29 2.04a15.23 15.23 0 01-3.06 2.73 7.1 7.1 0 01-2.68 1.33c-.61.12-1.54-.28-2.01-.76a1.37 1.37 0 01.28-2.11c1.8-1.14 3.7-2.12 5.57-3.14.2-.1.5-.07.61-.09zM231.2 255.44c1.78.17 3.5.31 5.2.53.35.05.66.4.99.61-.22.34-.38.87-.68.97a14 14 0 01-3.23.76c-1.03.09-2.1-.06-3.13-.27-.52-.1-.98-.56-1.47-.86.38-.54.69-1.15 1.17-1.58.25-.23.8-.12 1.15-.16zM175.17 48.73c0 6.26-1.92 10.94-5.85 14.7a18.7 18.7 0 01-10.46 4.88c-3.55.52-7.13 1.16-10.6-.1-6.28-2.29-11.17-6.14-13.52-12.65-.79-2.2-.56-4.47-.46-6.75.06-1.17-.06-2.41-.4-3.53a8.8 8.8 0 01-.1-5.33c.14-.46.37-1 .74-1.28 4.08-3.18 8.13-6.57 13.38-7.52 4.9-.88 9.74-.09 14.26 2.07a33.12 33.12 0 019.77 7.47c2.32 2.47 3.6 5.37 3.24 8.04zm-13.05 13.52c4.78-2.19 7.17-5.85 7.88-10.55.35-2.36.64-4.93-1.23-6.97-3.69-4.02-7.78-7.29-13.35-8.53-6.58-1.47-11.54 1.38-16.36 5.3.43.23.82.4 1.15.63.91.68 1.1 1.99.2 2.6-1.14.76-1.26 1.81-1.38 2.93-.12 1.22-.25 2.43-.26 3.65-.04 4.46 2.67 7.27 5.9 9.86.29-.74.44-1.36.75-1.88 3.18-5.25 11.6-6.17 15.81-1.71 1.18 1.24 1.93 2.65.89 4.67zm-1.01.38c-.81-.52-1.82-.96-2.57-1.67-3.48-3.28-8.5-2.3-10.42 2.08 2.31 2.13 9.47.8 12.99-.41zM91.75 204.16c-.7-.2-1.33-.27-1.8-.56a81.42 81.42 0 01-3.98-2.6c-1.34-.93-2.68-1.84-3.96-2.84-.39-.3-.56-.88-.83-1.33.5-.16 1.11-.58 1.5-.43a24.46 24.46 0 013.93 1.92c1.6.98 3.1 2.1 4.65 3.19.4.29.83.59 1.13.97.24.3.51.84.39 1.07-.17.32-.7.44-1.03.61zm134.3-62.5c-.9-.17-2.15-.24-3.26-.67-.52-.21-1.03-1.12-1.06-1.73-.04-.88.74-1.5 1.64-1.36 2.49.41 4.82-.39 7.22-.72 3.2-.45 6.44-.62 9.64-1.03 2.66-.35 5.3-.85 7.95-1.35 1.42-.27 2.41.12 2.75 1.24.32 1.08-.31 2.16-1.75 2.45-2.95.6-5.93 1.15-8.93 1.55-4.15.57-8.33.98-12.5 1.46l-1.7.15zm.48 13.1c-.63 0-1.27.04-1.9 0-.99-.06-1.67-.58-1.82-1.6-.15-1.01.38-1.71 1.31-2.02.72-.24 1.48-.33 2.22-.47l11.52-2.07c1.44-.25 2.91-.31 3.97.93.41.5.83 1.3.7 1.83-.12.55-.86 1.2-1.44 1.34-1.67.37-3.4.47-5.1.73-3.14.48-6.29 1-9.43 1.5l-.03-.16zm-93.13 98.38l-3.15-.15c-.8-.04-1.44-.37-1.47-1.24-.04-.9.58-1.42 1.4-1.5 5.6-.47 11.21-.9 16.81-1.34.21-.02.42-.01.63 0 .83.06 1.85.2 1.78 1.15-.03.58-.87 1.45-1.48 1.57-1.63.32-3.33.27-5 .45-3.17.36-6.33.78-9.5 1.18l-.02-.12zm.38 10.37c-1.09-.11-1.9-.04-2.57-.31-.5-.22-.83-.88-1.23-1.34.46-.35.9-.96 1.39-1 1.41-.12 2.85-.09 4.27.03.5.04.98.5 1.47.77-.37.43-.65 1.04-1.12 1.25-.77.36-1.67.46-2.21.6zm203.48-149.15c-1.31-.51-2.54-.94-3.72-1.46-.8-.36-1.68-.7-2.27-1.3-.46-.47-.82-1.4-.67-1.98a2.7 2.7 0 011.54-1.56 21.2 21.2 0 014.16-.88c.82-.1 1.67 0 2.5.12.68.09 1.08-.02 1.33-.75.86-2.5 1.72-5 2.72-7.45a8.63 8.63 0 011.8-2.7c.36-.36 1.39-.53 1.77-.27.46.3.94 1.33.75 1.73-.77 1.58-.05 2.86.53 4.18a41.7 41.7 0 001.96 3.96c.22.37.8.7 1.24.74 1.08.12 2.19.03 3.28.08 1.06.06 1.98.44 2.47 1.46.5 1.02-.08 1.8-.68 2.51-.76.9-1.65 1.69-2.38 2.6-.28.35-.46.97-.36 1.38.43 1.71 1.03 3.38 1.49 5.08.29 1.06.3 2.13-.82 2.79-1.08.63-1.92.03-2.73-.64-1.16-.97-2.35-1.9-3.51-2.87-.63-.52-1.16-.47-1.78.05-2.5 2.12-5.03 4.21-7.55 6.31-.29.24-.52.65-.85.73-.72.2-1.67.55-2.17.24-.57-.35-1.02-1.34-1.02-2.05-.01-.97.42-1.96.72-2.92.73-2.36 1.48-4.7 2.25-7.13zm18.84 24.3c-4.85.45-9.7.97-14.55 1.31-2.25.16-4.52 0-6.77-.13a2.1 2.1 0 01-2.07-1.88 1.82 1.82 0 012.08-1.98c3.54.6 6.93-.47 10.39-.73 4.38-.33 8.78-.5 13.18-.65 1.56-.05 2.5.98 2.43 2.28-.06 1.3-1.06 2.07-2.66 2.03-.68-.02-1.35-.08-2.02-.12v-.13zm-17.24 11.2c-.87-.23-2.05-.4-3.1-.87-.43-.2-.84-1.08-.77-1.6.06-.43.77-1.04 1.26-1.11 3.27-.52 6.55-.9 9.83-1.33a8.5 8.5 0 011.26-.1c1.05.03 1.8.5 1.93 1.6.15 1.12-.4 1.9-1.52 2.08-2.86.47-5.72.86-8.9 1.33z"/>
    <path fill="#000" d="M348.73 244.71c0 3.32.01 6.64-.01 9.96-.01 1.06.06 2.17-.24 3.17-.4 1.37-1.2 1.41-2.07.29-.18-.23-.68-.52-.74-.46-.78.7-1.52.18-2.32.08-.76-.1-1.63 0-2.34.3-3.75 1.6-7.75 1.82-11.72 2.17-2.59.23-2.7.14-3.13-2.5-.69-4.17-1.24-8.37-1.84-12.56-.4-2.87-.78-5.75-1.2-8.61a3.1 3.1 0 00-.43-1.26c-.6-.9-.27-1.48.6-1.76.99-.32 2.02-.56 3.06-.7 3.87-.47 7.76-.83 11.64-1.34 2.66-.34 5.3-.9 7.95-1.3 2-.29 2.73.58 2.68 2.56-.1 3.98-.03 7.97-.03 11.96h.14zm-3.58-5.65v-5.1l-9.19 17.26.42.23c1.67-2.28 3.83-4.19 4.72-7.02.5-1.6 1.26-3.1 1.84-4.68.38-1.04.94-1.46 2.21-.7zm-16.25 19.29c.74-.33 1.53-.43 1.8-.86.63-1.04 1.02-2.23 1.55-3.47-1.52 1-1.75.95-2.67-.34l-1.43.81.75 3.86zm13.83-12.8l.3.16c.22-1.96 2.61-3.1 1.81-5.45l-2.11 5.3zm2.9 5.61l-.32.02c-.09.69-1.26 1.5.32 2.03v-2.05zm13.96 11.08c-.1.12-.32.65-.7.8-.38.17-.91-.03-1.37-.1-.47-.08-.97-.36-1.39-.26-1.1.26-1.79 0-1.92-1.12-.14-1.25-.07-2.52-.07-3.78 0-.2.1-.42.22-.57 1-1.3 2.4-.6 3.6-.55.37.01.86 1 1.01 1.62.3 1.17.4 2.4.62 3.96zm-6.61-17.65c.08-1.31-.18-2.67 1.27-3.58.82-.51 1.4-.64 2.09.07 1.24 1.3 1.51 4.79.23 6.07-.58.59-1.73.91-2.59.85-1-.08-1.02-1.16-1-2.02v-1.39zm4.17-16.2c0 2.46-.85 3.52-2.92 3.68-.96.07-1.6-.29-1.7-1.24a25.1 25.1 0 01-.16-3.87c.02-.41.51-.99.93-1.16 2.2-.94 3.84.2 3.85 2.59zm-40.7 31.67c.24-.85.42-1.8.81-2.67.16-.34.84-.7 1.2-.63.43.1.8.6 1.14.99.37.43.67.92 1.02 1.37.07.1.27.19.26.26-.17 1.2-.17 2.5-.65 3.58-.2.46-1.44.6-2.21.6-.36 0-.88-.62-1.05-1.06-.28-.73-.34-1.55-.52-2.44zm1.78-28.88c0 1.54-1.37 2.7-2.73 2.28-.34-.1-.83-.38-.87-.63a36.67 36.67 0 01-.34-4.22c0-.2.61-.6.93-.6 1.81.06 3.01 1.38 3 3.17zm-3.13 12.31c-.07-1.52 1.17-1.39 2.04-1.56.93-.18 1.36.48 1.5 1.3.12.7.19 1.4.29 2.1.12.88.16 1.8-.9 2.05-.96.23-1.92-.09-2.3-1.08-.33-.9-.43-1.87-.63-2.8zM148.35 49.4c-1.5 1.17-2.77.94-3.5-.7-.32-.73-.62-1.69-.43-2.4.48-1.76 1.24-3.45 1.93-5.14.1-.25.38-.52.63-.6 2.48-.67 4.68-2.35 7.54-1.68 3.74.88 6.3 3.88 6.16 7.62a4.3 4.3 0 01-2.67 4.06 8.6 8.6 0 01-8.32-.33c-.43-.25-.85-.53-1.34-.83zm6.27-1.73c.45-.24 1.66-.48 2.05-1.18.57-1.02-.15-2.06-1.1-2.78a3.96 3.96 0 00-5.77.82c-.15.2-.1.73.08.95 1.06 1.37 2.5 2.04 4.74 2.19z"/>
</svg>
