<svg xmlns="http://www.w3.org/2000/svg" style="display: none;">
  <symbol id="facebook" viewBox="0 0 80 80">
    <path fill="#1877F2" d="M80.5 40C80.5 17.9086 62.5914 0 40.5 0C18.4086 0 0.5 17.9086 0.5 40C0.5 59.9652 15.1274 76.5133 34.25 79.5139V51.5625H24.0938V40H34.25V31.1875C34.25 21.1625 40.2218 15.625 49.3585 15.625C53.735 15.625 58.3125 16.4062 58.3125 16.4062V26.25H53.2685C48.2996 26.25 46.75 29.3333 46.75 32.4967V40H57.8438L56.0703 51.5625H46.75V79.5139C65.8726 76.5133 80.5 59.9652 80.5 40Z" />
  </symbol>
  <symbol id="google" viewBox="0 0 81 80">
    <path fill-rule="evenodd" clip-rule="evenodd" d="M78.9 40.9086C78.9 38.0723 78.6455 35.345 78.1727 32.7268H40.5V48.1995H62.0273C61.1 53.1995 58.2818 57.4359 54.0455 60.2723V70.3086H66.9727C74.5364 63.345 78.9 53.0904 78.9 40.9086Z" fill="#4285F4"/>
    <path fill-rule="evenodd" clip-rule="evenodd" d="M40.5001 79.9999C51.3001 79.9999 60.3546 76.418 66.9728 70.3089L54.0455 60.2726C50.4637 62.6726 45.8819 64.0908 40.5001 64.0908C30.0819 64.0908 21.2637 57.0544 18.1183 47.5999H4.75464V57.9635C11.3365 71.0362 24.8637 79.9999 40.5001 79.9999Z" fill="#34A853"/>
    <path fill-rule="evenodd" clip-rule="evenodd" d="M18.1182 47.6003C17.3182 45.2003 16.8636 42.6366 16.8636 40.0003C16.8636 37.3639 17.3182 34.8003 18.1182 32.4003V22.0366H4.75455C2.04545 27.4366 0.5 33.5457 0.5 40.0003C0.5 46.4548 2.04545 52.5639 4.75455 57.9639L18.1182 47.6003Z" fill="#FBBC05"/>
    <path fill-rule="evenodd" clip-rule="evenodd" d="M40.5001 15.9091C46.3728 15.9091 51.6456 17.9273 55.791 21.8909L67.2637 10.4182C60.3365 3.96364 51.2819 0 40.5001 0C24.8637 0 11.3365 8.96364 4.75464 22.0364L18.1183 32.4C21.2637 22.9455 30.0819 15.9091 40.5001 15.9091Z" fill="#EA4335"/>
  </symbol>
  <symbol id="mailchimp" viewBox="0 0 81 80">
    <path fill-rule="evenodd" clip-rule="evenodd" d="M72.9705 56.4804L72.9636 56.5057C72.7308 57.3567 66.9769 78.4066 45.3676 78.4002C26.3881 78.3943 17.3921 61.7039 17.3921 61.7039C16.0089 61.782 14.6743 61.5599 13.4433 61.1023C7.87507 59.0327 5.20333 52.5876 7.12467 47.1804L4.06413 44.8143C-7.7908 35.6775 25.7921 -6.13193 37.6676 3.32868C37.7276 3.37642 40.5025 5.63615 40.5025 5.63615C44.7665 3.01642 48.9892 1.60023 52.422 1.6001C54.8596 1.59978 56.8983 2.3138 58.2713 3.81802C61.3537 7.19428 60.246 13.642 56.0369 20.17C56.9423 21.0393 57.6924 22.2212 58.2281 23.3943C59.566 24.4388 60.4335 26.0268 60.8644 28.2199C61.1308 29.5745 61.2801 31.2481 61.4116 32.7244C61.5169 33.9063 61.6108 34.9612 61.7447 35.625C62.0287 35.7546 62.2113 35.8367 62.3444 35.8967C62.4697 35.9529 62.5513 35.9897 62.6324 36.0279C62.7833 36.0985 62.9324 36.174 63.3593 36.3897C63.4329 36.4271 63.5148 36.4684 63.6065 36.5148C64.8681 37.153 66.4047 37.9297 68.1028 39.5828C71.1212 40.3479 72.2737 43.5946 70.5076 45.8103C70.4601 45.8698 70.2471 46.1255 70.026 46.3796C70.0343 46.4012 70.0545 46.4418 70.0849 46.5018C70.2524 46.8338 70.7217 47.7649 71.0756 49.4012C72.3263 49.6999 73.3225 50.4791 73.8455 51.609C74.7497 53.8201 72.9705 56.4804 72.9705 56.4804ZM64.2668 72.8916V73.8012H64.6111V72.8916H64.9633V72.6047H63.9193V72.8916H64.2668ZM65.0687 73.8012V72.6047H65.5593L65.7745 73.2932L65.9865 72.6047H66.4775V73.8012H66.1636V72.9348L65.9068 73.8012H65.6391L65.3825 72.9372V73.8012H65.0687Z" fill="#5B453E"/>
    <path fill-rule="evenodd" clip-rule="evenodd" d="M71.0413 55.1936C70.7688 56.2136 69.4333 61.2126 64.0877 65.4286C56.6629 71.2851 46.9074 70.6925 43.2232 67.4104C41.2549 65.5624 40.4029 62.9195 40.4029 62.9195C40.4029 62.9195 40.18 64.4088 40.1418 64.9939C38.6573 62.4592 38.7826 59.3635 38.7826 59.3635C38.7826 59.3635 37.9906 60.8459 37.6282 61.6763C36.5354 58.8845 37.1 56.0019 37.1 56.0019L36.2354 57.2955C36.2354 57.2955 35.8301 54.1357 36.8253 51.504C37.889 48.6917 39.9514 46.6488 40.3592 46.3941C38.7944 45.8947 36.9917 44.4637 36.9885 44.4611C36.9885 44.4611 37.7053 44.5085 38.2037 44.3939C38.2037 44.3939 35.04 42.1187 34.4853 38.6379C34.9434 39.2064 35.9053 39.8488 35.9053 39.8488C35.5938 38.9376 35.4056 36.9112 35.6965 34.9165L35.6976 34.9144C36.296 31.104 39.4245 28.6229 42.968 28.6541C43.6453 28.66 44.2821 28.6907 44.8901 28.7197C47.6688 28.8528 49.8365 28.9568 52.4314 26.5549C52.468 26.5211 52.504 26.4875 52.54 26.4544C53.1602 25.8781 53.6861 25.3893 54.5744 25.1917C54.592 25.1877 54.6141 25.1813 54.6416 25.1733C54.7685 25.1363 55.0085 25.0664 55.4234 25.0664C55.9336 25.0664 56.425 25.1816 56.8746 25.4504C58.5901 26.4752 58.9597 29.148 59.1442 31.108C59.5608 35.5512 59.62 36.7952 60.272 37.4331C60.6866 37.8389 61.3416 37.9992 62.481 38.5821C62.616 38.6509 62.7525 38.7195 62.8906 38.7888C64.1848 39.4379 65.6234 40.1595 67.2386 41.8955C67.2477 41.9053 67.2605 41.9109 67.2736 41.9112C68.7816 41.9475 69.5586 43.1392 68.8629 44.0067C63.8034 50.0717 56.7368 52.976 48.8613 53.2192C48.6093 53.2256 48.1138 53.2371 47.9013 53.2421C47.8394 53.2435 47.8016 53.2445 47.8005 53.2445C44.6197 53.3413 43.5842 57.4717 45.58 59.9557C46.8413 61.5256 49.2674 62.0416 51.2645 62.0494L51.2928 62.0392C59.9034 62.2144 68.5541 56.0984 70.048 52.7256C70.0589 52.7013 70.1501 52.4867 70.1501 52.4867C70.1501 52.4867 70.0706 52.5803 69.9746 52.6592C69.9701 52.6624 69.9472 52.6832 69.9069 52.72C69.0909 53.4683 61.0832 60.8109 51.2248 60.5336C51.2248 60.5336 50.1104 60.5104 49.0613 60.2651C47.6776 59.9422 46.6264 59.332 46.2242 57.9477C46.1045 57.6941 46.036 56.8171 46.1946 56.2264C46.6274 54.7728 47.3522 54.76 48.4736 54.7405C48.6413 54.7376 48.8178 54.7344 49.004 54.7264C54.1045 54.5557 58.2202 53.2685 61.3048 51.7984C64.5941 50.2309 67.1008 48.2115 68.004 47.192C69.1754 49.1717 69.1685 51.7141 69.1685 51.7141C69.1685 51.7141 69.628 51.5531 70.2362 51.5531C72.148 51.5531 72.5413 53.2693 71.0941 55.0117C71.0853 55.0291 71.0685 55.0915 71.0413 55.1936ZM23.517 45.8605C23.517 45.8605 23.2789 46.8496 22.8066 48.0544C22.3533 44.1979 20.7408 43.3819 20.7408 43.3821C19.8066 42.9475 18.7738 42.7064 17.6877 42.7064C13.4978 42.7064 10.1016 46.2955 10.1016 50.7229C10.1016 55.1504 13.4978 58.7395 17.6877 58.7395C22.4069 58.7395 25.9888 54.2293 25.1549 49.3024C25.1549 49.3024 24.6738 50.4299 24.2256 51.0283C24.3341 49.2645 24.0576 47.5197 23.517 45.8605Z" fill="#F2D8B4"/>
    <path d="M7.70256 44.2668C7.67242 44.2588 4.82069 42.2292 4.41509 41.5609C2.01589 37.634 6.19003 29.5684 9.16043 24.9838C16.501 13.6532 28.7196 4.71131 34.269 5.98838L39.9679 8.84145C37.7551 10.1038 35.6151 11.6542 34.333 12.6854L33.1204 13.6718C33.1204 13.6718 29.5791 15.9841 27.8178 17.442C20.7575 23.2849 13.8058 32.3305 11.2279 41.0617C11.2279 41.0614 9.10949 42.0814 7.70256 44.2668Z" fill="#207EAC"/>
    <path d="M35.7016 5.99819C30.0448 4.61286 17.5906 14.3139 10.108 26.607C10.1058 26.6105 10.1037 26.6142 10.1016 26.6177L10.1317 26.6209L16.0938 31.4665C22.6402 20.7395 30.868 15.2083 31.1 15.0459L30.1546 8.48032L31.9256 7.60513L35.4797 8.79312L35.2077 7.56753L35.7016 5.99819Z" fill="#4FB1D3"/>
    <path d="M44.2355 7.59207L37.7614 11.9291L37.3083 12.2667L31.5673 7.79927L31.4355 6.95447L33.4315 6.04433C33.5342 6.0758 37.2796 7.231 37.4377 7.2798L37.5046 4.911L37.6878 4.3734L39.4414 3.7334C39.4438 3.735 44.2289 7.58673 44.2355 7.59207Z" fill="#FACD55"/>
    <path d="M51.3541 3.7334C47.6968 3.7334 43.5906 5.76166 40.4408 7.7558C39.9989 8.02993 39.5605 8.31687 39.1312 8.60913L37.4829 7.1526L38.0816 9.34593C37.8552 9.50993 37.6344 9.6734 37.4181 9.8358L34.0125 8.73926L36.2658 10.7281C35.7514 11.1393 35.292 11.5241 34.9106 11.8574L29.5069 7.15286L29.793 9.2614L33.7205 12.9099C33.7205 12.9099 30.2448 15.3769 28.5165 16.9323C21.5872 23.1665 14.7645 32.8177 12.2344 42.1334L12.3781 42.0483C12.3976 42.0369 12.4173 42.0273 12.437 42.0161C12.5074 41.9761 12.5773 41.9379 12.6477 41.9006C12.693 41.8766 12.7378 41.8523 12.7832 41.8297C12.8554 41.7929 12.928 41.7587 13.0005 41.7251C13.0432 41.7051 13.0861 41.6843 13.1288 41.6657C13.2074 41.6307 13.2856 41.5993 13.3642 41.5681C13.4002 41.5537 13.4365 41.5377 13.4728 41.5241C13.5872 41.4809 13.701 41.4411 13.8144 41.4054C15.5346 40.8643 17.8749 40.5166 20.6144 41.743C21.9901 38.0843 23.6338 34.3619 26.224 30.7854C28.3242 27.8851 30.3432 25.2961 32.7661 23.8721C37.3541 19.3278 49.72 14.5091 53.6818 18.6859C54.6184 17.0702 55.4314 15.5409 56.1013 13.6235C57.7541 9.0126 57.7842 3.7334 51.3541 3.7334Z" fill="#131B23"/>
    <path d="M37.8345 8.00003L36.491 5.8667L35.7012 6.92937L36.174 7.76483L37.8345 8.00003Z" fill="#131B23"/>
    <path fill-rule="evenodd" clip-rule="evenodd" d="M50.258 3.7334C48.25 3.94407 46.1561 4.67473 44.2028 5.59953C37.6084 8.775 33.0057 13.4598 32.4537 14.0217C32.43 14.0457 32.4137 14.0622 32.4052 14.0707C31.8575 14.6102 31.3113 15.1691 30.7697 15.7443C29.1585 17.4547 27.5841 19.3075 26.1092 21.2126C23.5007 24.5809 22.4153 26.1526 20.7676 29.3542C20.7673 29.3547 20.7785 29.3409 20.8007 29.3137C21.3951 28.5827 29.8559 18.1811 32.0209 15.9761C36.1407 11.7801 42.8839 7.10673 42.954 7.06513C45.8335 5.25607 48.2636 4.1942 50.258 3.7334ZM66.5657 45.9697C67.7006 47.9318 67.6937 50.4515 67.6937 50.4515C67.7135 51.1747 67.6903 51.5734 67.6508 52.1329C65.3489 54.1283 58.486 59.4281 50.3089 59.1926C50.3089 59.1926 49.2292 59.1697 48.2127 58.9267C46.8796 58.6083 45.8649 58.0081 45.4703 56.6518L45.4641 56.6297L45.4633 56.6281C45.4572 56.6142 45.4063 56.4921 45.3737 56.2289L45.3724 56.2185L45.3713 56.2086C45.3639 56.143 45.3577 56.0731 45.3535 56.0003L45.3521 55.975L45.3516 55.9665C45.3457 55.8502 45.3444 55.7169 45.3492 55.5654C45.3513 55.5123 45.3545 55.4593 45.3588 55.4065L45.3593 55.4067L45.3599 55.3899C45.3737 55.2265 45.398 55.0665 45.4356 54.9238C45.8548 53.483 46.5572 53.4705 47.6433 53.451C47.806 53.4481 47.9772 53.4449 48.1572 53.4369H48.1575C53.0991 53.2681 57.0868 51.9921 60.0753 50.5353C63.262 48.9817 65.6905 46.9801 66.5657 45.9697Z" fill="#FFFFFE"/>
    <path fill-rule="evenodd" clip-rule="evenodd" d="M58.1166 33.304C58.4753 37.1253 58.5603 38.033 59.3176 38.5714C59.3387 38.5917 59.3598 38.6093 59.3814 38.6234C58.8729 38.7717 58.4177 38.9114 58.0139 39.0389C57.2705 38.0306 56.2377 37.088 54.115 37.2413C51.3019 37.4829 49.0662 39.9978 49.471 42.4952C48.1342 43.1696 46.8891 43.8688 45.7313 44.5808C43.8206 44.7856 41.4931 45.4453 39.4403 47.164C37.8931 46.6768 36.1104 45.28 36.1072 45.2773C36.1072 45.2773 36.8163 45.3237 37.3089 45.2117C37.3089 45.2117 37.2747 45.1874 37.2131 45.1402C37.2105 45.1368 37.2072 45.1333 37.2035 45.1306C37.1616 45.0976 37.1187 45.065 37.0752 45.032C36.3392 44.4402 34.0894 42.4258 33.632 39.5938C34.0851 40.1488 35.0363 40.7754 35.0363 40.7754C35.0248 40.7429 35.0136 40.7085 35.0027 40.673L35.0043 40.6666C35.0049 40.6634 35.0054 40.66 35.0054 40.6568C35.0054 40.6568 34.8731 40.2802 34.7806 39.5546C34.7552 39.3509 34.7342 39.1338 34.7184 38.9064C34.7086 38.753 34.7009 38.5904 34.6963 38.4178C34.8129 36.9861 35.1779 35.7832 36.0872 34.6453C37.4136 32.9864 39.2334 32.312 41.3328 32.3445C41.9107 32.3517 42.4947 32.4114 43.1035 32.4736C43.688 32.5333 44.2953 32.5954 44.9419 32.6157C46.7451 32.672 48.4819 32.3746 50.3097 31.5552C52.1155 30.7024 53.1366 29.7184 54.2051 28.1901C54.5816 27.7781 55.2459 27.1749 55.8334 27.2005C56.223 27.2005 56.4934 27.392 56.6856 27.5584C57.6158 28.8026 57.8731 30.7392 58.0169 32.245C58.0518 32.6149 58.0846 32.9624 58.115 33.2885L58.1161 33.2994L58.1166 33.304ZM52.6264 40.6754C53.0606 39.2896 55.0291 38.6229 56.2177 39.4605C55.6867 39.7664 55.523 40.6538 55.847 41.1685C55.1753 41.1562 54.4846 41.4192 53.999 41.8848C54.044 41.2253 53.3144 40.7098 52.6264 40.6754ZM59.8038 67.7333C60.8662 67.1794 61.907 66.5189 62.9054 65.7418C68.1907 61.6277 69.5118 56.749 69.7814 55.7528L69.7816 55.7525V55.7522L69.7819 55.7514C69.8089 55.6522 69.8251 55.5917 69.8339 55.5746C67.387 58.709 64.1862 61.2 60.7614 62.9242C57.9454 64.3432 55.8384 64.8365 55.8384 64.8365C55.8384 64.8365 57.3465 66.808 59.8038 67.7333ZM43.747 56.373C44.1214 54.9925 45.1787 53.8989 46.7995 53.8501L46.9006 53.8477H46.9075C47.1222 53.8426 47.6024 53.8314 47.8486 53.8253C55.6363 53.5882 62.6241 50.7536 67.6273 44.8341C68.3153 43.9874 67.5467 42.8242 66.0558 42.7888H66.0345C65.9057 42.924 65.8307 43.1162 65.7326 43.368C65.639 43.6088 65.5238 43.9042 65.32 44.2565C63.7982 46.876 61.6934 48.0738 58.8865 49.4634C54.3238 51.7141 50.9257 52.216 48.4731 52.5784C46.2998 52.8994 44.8688 53.1109 44.0275 54.332C43.507 55.0968 43.4971 55.9509 43.747 56.373ZM60.3334 55.3922C60.3118 55.3928 60.2896 55.3973 60.2542 55.4053C60.1432 55.4306 59.8971 55.5104 59.5406 55.6256C57.1723 56.3914 49.9379 58.7309 45.1331 57.2357C45.1083 57.5354 45.1163 58.1653 45.24 58.4389L45.2408 58.4405C46.0771 58.6066 47.1355 58.7128 48.3638 58.7128C55.6385 58.7128 60.8809 55.436 60.3334 55.3922ZM19.6417 54.7152L19.6352 54.7194C16.2168 54.969 13.056 50.641 14.9222 48.2544C15.1779 48.0637 15.3966 47.9541 15.483 47.9109C15.4982 47.9032 15.5091 47.8978 15.5158 47.8941C15.5656 47.868 15.6166 47.8466 15.6699 47.8245C15.7067 47.809 15.7443 47.7933 15.7832 47.7752C15.8206 47.7597 15.8635 47.7469 15.911 47.7336C16.0625 47.6912 16.0953 47.6792 16.1283 47.6698C16.1617 47.6602 16.1955 47.6533 16.3486 47.6213H16.3483C18.0086 47.2728 19.1798 48.0005 19.6896 48.7162C19.9246 49.0456 19.975 49.2933 20.0115 49.4728C20.0235 49.5312 20.0339 49.5824 20.0488 49.6269L20.0491 49.629C19.6515 49.0797 19.1382 48.9594 19.1382 48.9594C18.7054 48.7885 17.8739 49.0496 17.8195 49.9773C17.7945 50.3341 17.9019 50.7338 18.2099 51.0853L18.2123 51.088C18.2232 51.1005 18.2344 51.113 18.2459 51.1253C18.2566 51.1368 18.2675 51.1482 18.2782 51.1594C18.531 51.4186 18.831 51.6074 19.1176 51.7874C19.6096 52.0968 20.0619 52.381 20.1651 52.9538C20.2704 53.5842 20.0846 54.2434 19.6417 54.7152Z" fill="#E2B986"/>
    <path fill-rule="evenodd" clip-rule="evenodd" d="M53.4621 18.2628C50.7112 16.1119 42.6816 16.721 34.6426 22.0194C30.9621 24.445 28.2629 27.0986 26.1826 29.8551C26.1826 29.8551 29.3941 23.6474 36.4506 19.5412C35.9586 19.4607 34.8018 19.6015 34.4701 19.6418C34.4474 19.6447 34.4285 19.6468 34.4141 19.6487C35.696 18.5274 38.0776 17.7788 39.7232 17.4386C39.2416 17.1271 38.0944 17.0484 37.525 17.033C37.3698 17.0287 37.3594 17.0292 37.2024 17.0359C37.1893 17.0364 37.1749 17.0372 37.1594 17.0378C38.7074 16.1578 41.5773 15.6412 44.1864 16.1079C43.8584 15.6652 43.1149 15.3423 42.5936 15.1852C42.548 15.1714 42.3434 15.1196 42.3434 15.1196C42.3434 15.1196 42.5178 15.0778 42.54 15.0735C44.1117 14.7658 45.9474 15.098 47.4 15.6911C47.2349 15.3018 46.8317 14.8484 46.5288 14.5615C46.4978 14.5322 46.317 14.3999 46.317 14.3999C47.8365 14.7202 49.2925 15.394 50.3882 16.1594C50.2392 15.8668 49.8706 15.3743 49.616 15.1052C51.068 15.5276 52.6978 16.5804 53.3962 18.0898C53.4125 18.1218 53.4525 18.2338 53.4613 18.2583L53.4626 18.262L53.4621 18.2628ZM47.0181 38.4079C47.1749 38.641 47.2168 38.817 47.1536 38.8903C47.04 39.0255 46.6629 38.8746 46.1026 38.6506L45.9096 38.5738C44.204 37.9268 42.9474 37.8282 40.7232 38.6842L40.5456 38.7535C40.0765 38.9367 39.741 39.0679 39.5706 39.042C39.2586 38.9948 39.5608 38.4143 40.2424 37.8508C41.6141 36.7383 43.4981 36.3927 45.108 37.002C45.8125 37.2658 46.604 37.7922 47.0181 38.4079ZM46.6802 40.182C46.2125 39.8188 45.3517 39.5751 44.4576 39.7298C44.3181 39.7514 44.1864 39.7895 44.0578 39.8268C44.0136 39.8399 43.9698 39.8524 43.9261 39.8644C43.8637 39.8802 43.804 39.9026 43.7456 39.9274C43.376 40.0858 43.0562 40.2564 42.7456 40.5591C42.3893 40.909 42.2882 41.234 42.3912 41.314C42.4794 41.3858 42.6778 41.3026 42.9794 41.1764L43.12 41.118C44.3965 40.5783 45.3 40.5639 46.1605 40.625L46.2218 40.6292C46.6029 40.6556 46.8565 40.673 46.9178 40.5639C46.9632 40.4858 46.8808 40.3375 46.6802 40.182ZM19.1914 46.8396L19.1912 46.8391C18.4936 46.2671 17.505 45.9964 16.356 46.2439H16.3562L16.3352 46.2484C16.2008 46.2775 16.1688 46.2844 16.1373 46.2935L16.1048 46.3036H16.1045C16.0741 46.3132 16.0266 46.3284 15.9208 46.3588C15.8733 46.3722 15.8306 46.3855 15.7936 46.4012C15.7549 46.4196 15.7176 46.4356 15.6813 46.4511C15.6282 46.474 15.577 46.4959 15.5272 46.5228L15.4949 46.5399C15.348 46.6154 14.8125 46.89 14.3696 47.4415C14.1325 47.7402 13.9506 48.0724 13.8178 48.414C13.5778 49.0452 13.4882 49.7372 13.5138 50.4018C13.549 51.3092 13.7866 51.854 13.8754 52.0578C13.8861 52.082 13.8944 52.1015 13.9002 52.1162C14.1272 52.6119 13.5957 52.7138 13.1109 52.181L13.1098 52.1799C12.7218 51.7623 12.4736 51.1266 12.352 50.562V50.5615C12.2802 50.226 12.2344 49.8495 12.2344 49.4442C12.2344 48.974 12.2962 48.4655 12.4517 47.9383L12.452 47.9378V47.9372C12.8725 46.553 13.8173 45.5074 15.2533 44.938C15.3445 44.9018 15.4458 44.8748 15.541 44.8495H15.5413L15.5416 44.8492C15.5842 44.838 15.6258 44.8268 15.6645 44.8154L15.6632 44.8159C15.905 44.7423 16.7712 44.5642 17.6517 44.7034C18.161 44.7836 18.6245 44.9551 19.024 45.1815C19.4226 45.4071 19.7578 45.6874 20.0125 45.9882L20.0136 45.9895C20.4296 46.4706 20.7437 47.1495 20.6877 47.7538V47.7551C20.6666 48.0063 20.5573 48.3663 20.3349 48.4599C20.252 48.4943 20.169 48.4759 20.1109 48.418C20.0458 48.353 20.0274 48.2604 20.0026 48.1359C19.9661 47.9524 19.916 47.6994 19.6818 47.3628C19.5621 47.19 19.4016 47.0092 19.192 46.8399L19.1914 46.8396ZM18.9461 49.0951C18.7874 48.9671 18.7138 48.858 18.6698 48.6903C18.605 48.3844 18.6389 48.2066 18.896 48.0228C18.9517 47.9842 19.0045 47.9508 19.0514 47.9215C19.1712 47.846 19.2536 47.7943 19.2538 47.7319C19.2629 47.5679 18.6005 47.3991 18.1373 47.8628C17.753 48.2794 17.6317 49.1476 18.245 49.8244C18.5032 50.1076 18.8157 50.3092 19.1133 50.5012C19.6029 50.8167 20.0525 51.1066 20.1554 51.6927C20.177 51.826 20.1933 51.9748 20.1818 52.1215C20.184 52.2722 20.14 52.4818 20.1285 52.5356L20.1261 52.5476C19.9208 53.4578 19.0714 54.326 17.6709 54.105L17.6101 54.0956C17.3866 54.062 17.2416 54.0402 17.196 54.1068C17.088 54.2596 17.688 54.958 18.7869 54.9327C19.8618 54.9095 20.9282 54.0911 21.2701 52.8607L21.2725 52.8519C21.2885 52.7935 21.3757 52.473 21.3832 52.1836C21.4026 51.9522 21.3861 51.714 21.3437 51.465C21.1346 50.2852 20.2205 49.8055 19.5322 49.4442C19.2989 49.3218 19.0914 49.213 18.9461 49.0951ZM55.4784 38.7682C55.5693 38.1759 55.9872 37.7503 56.4122 37.8175C56.8368 37.8852 57.1077 38.4199 57.0168 39.0124C56.9258 39.6047 56.5077 40.0303 56.0829 39.9631C55.6581 39.8954 55.3874 39.3607 55.4784 38.7682ZM51.7445 39.5458C51.5109 39.9788 51.7952 40.5943 52.3797 40.9196C52.964 41.2455 53.6269 41.1583 53.8605 40.7247C54.0938 40.2916 53.8096 39.6762 53.225 39.3506C52.6408 39.0252 51.9778 39.1124 51.7445 39.5458Z" fill="#916D53"/>
    <path d="M52.7682 35.3664C52.7597 34.7797 52.8282 33.8104 53.2365 33.6298C53.237 33.6298 53.2368 33.6298 53.2373 33.6296C53.9349 33.3021 54.8587 35.7197 54.9011 37.8664C54.3499 37.4928 53.7021 37.3344 53.036 37.4125C52.8685 36.7213 52.7882 36.0704 52.7682 35.3664Z" fill="#5B453E"/>
  </symbol>
  <symbol id="google-analytics" viewBox="0 0 80 80">
    <path d="M49.2684 28.75H30.5693C29.5371 28.75 28.6995 29.59 28.6995 30.6254V68.1249C28.6995 69.1595 29.5371 70 30.5693 70H49.2685C50.3005 70 51.1381 69.1595 51.1381 68.1249V30.6254C51.1381 29.59 50.3005 28.75 49.2684 28.75Z" fill="#FFC107"/>
    <path d="M30.5693 47.5H11.8703C10.8376 47.5 10 48.3399 10 49.375V68.1247C10 69.1593 10.8376 69.9998 11.8703 69.9998H30.5693C31.6018 69.9998 32.4394 69.1593 32.4394 68.1247V49.375C32.4394 48.3399 31.6018 47.5 30.5693 47.5Z" fill="#FFC107"/>
    <path d="M67.9675 10H49.2685C48.2358 10 47.3982 10.8399 47.3982 11.8756V68.1246C47.3982 69.1592 48.2358 69.9997 49.2685 69.9997H67.9675C69 69.9997 69.8376 69.1592 69.8376 68.1246V11.8756C69.8377 10.8399 69.0001 10 67.9675 10Z" fill="#FFA000"/>
  </symbol>
  <symbol id="hotjar" viewBox="0 0 81 80">
    <path d="M71.4167 26.0484C59.3684 4.67742 24.0296 0 24.0296 0C24.0296 0 40.3361 17.8064 19.4974 31.8871C6.31997 40.7742 1.1103 52.3226 6.75546 64.9355C11.078 74.5968 20.2232 78.5323 30.078 80C25.3684 71.1129 29.0135 60.2581 29.4167 59.0968C38.6264 73.0323 56.0296 59.0968 47.2877 43.9516C58.7393 46.4355 60.449 66.3064 51.6587 78.7097C64.6426 74.629 73.2877 64.371 75.6587 55.2258C78.1587 45.6613 76.2555 34.5968 71.4167 26.0484Z" fill="#FD385C"/>
  </symbol>
  <symbol id="slack" viewBox="0 0 80 80">
    <path d="M21.4463 48.4429C21.4463 52.1432 18.4235 55.166 14.7231 55.166C11.0228 55.166 8 52.1432 8 48.4429C8 44.7425 11.0228 41.7197 14.7231 41.7197H21.4463V48.4429Z" fill="#E01E5A"/>
    <path d="M24.834 48.4429C24.834 44.7425 27.8568 41.7197 31.5571 41.7197C35.2574 41.7197 38.2802 44.7425 38.2802 48.4429V65.2767C38.2802 68.9771 35.2574 71.9999 31.5571 71.9999C27.8568 71.9999 24.834 68.9771 24.834 65.2767V48.4429Z" fill="#E01E5A"/>
    <path d="M31.5571 21.4463C27.8568 21.4463 24.834 18.4235 24.834 14.7231C24.834 11.0228 27.8568 8 31.5571 8C35.2574 8 38.2802 11.0228 38.2802 14.7231V21.4463H31.5571Z" fill="#36C5F0"/>
    <path d="M31.557 24.834C35.2573 24.834 38.2801 27.8568 38.2801 31.5571C38.2801 35.2574 35.2573 38.2802 31.557 38.2802H14.7231C11.0228 38.2802 8 35.2574 8 31.5571C8 27.8568 11.0228 24.834 14.7231 24.834H31.557Z" fill="#36C5F0"/>
    <path d="M58.5537 31.5571C58.5537 27.8568 61.5765 24.834 65.2768 24.834C68.9772 24.834 72 27.8568 72 31.5571C72 35.2574 68.9772 38.2802 65.2768 38.2802H58.5537V31.5571Z" fill="#2EB67D"/>
    <path d="M55.166 31.557C55.166 35.2573 52.1432 38.2801 48.4429 38.2801C44.7425 38.2801 41.7197 35.2573 41.7197 31.557V14.7231C41.7197 11.0228 44.7425 8 48.4429 8C52.1432 8 55.166 11.0228 55.166 14.7231V31.557Z" fill="#2EB67D"/>
    <path d="M48.4429 58.5535C52.1432 58.5535 55.166 61.5763 55.166 65.2766C55.166 68.9769 52.1432 71.9997 48.4429 71.9997C44.7425 71.9997 41.7197 68.9769 41.7197 65.2766V58.5535H48.4429Z" fill="#ECB22E"/>
    <path d="M48.4429 55.166C44.7425 55.166 41.7197 52.1432 41.7197 48.4429C41.7197 44.7425 44.7425 41.7197 48.4429 41.7197H65.2767C68.9771 41.7197 71.9999 44.7425 71.9999 48.4429C71.9999 52.1432 68.9771 55.166 65.2767 55.166H48.4429Z" fill="#ECB22E"/>
  </symbol>
  <symbol id="twitter" viewBox="0 0 80 80">
    <path d="M27.2736 68C53.2808 68 67.5056 46.4533 67.5056 27.768C67.5056 27.156 67.5056 26.5468 67.4643 25.9403C70.2316 23.9387 72.6203 21.4603 74.5188 18.6212C71.9381 19.7647 69.2005 20.5146 66.3974 20.8458C69.3492 19.0787 71.5584 16.2993 72.6139 13.025C69.8382 14.672 66.8017 15.8327 63.6351 16.4571C61.5032 14.1902 58.6836 12.6891 55.6126 12.1861C52.5417 11.6831 49.3905 12.2063 46.6468 13.6747C43.9031 15.143 41.7199 17.4747 40.4349 20.3089C39.1499 23.1431 38.8348 26.3219 39.5384 29.3532C33.9167 29.0713 28.4171 27.6104 23.3967 25.0653C18.3762 22.5202 13.9471 18.9477 10.3968 14.5798C8.58866 17.6926 8.03486 21.3775 8.84818 24.8843C9.66149 28.3911 11.7808 31.4561 14.7746 33.4552C12.5243 33.3885 10.3232 32.7815 8.35684 31.6854C8.35684 31.7433 8.35684 31.8039 8.35684 31.8646C8.35774 35.1292 9.48783 38.2929 11.5554 40.8193C13.6231 43.3457 16.5009 45.0791 19.7009 45.7255C17.6192 46.2932 15.435 46.3762 13.3162 45.9681C14.2198 48.7777 15.9789 51.2346 18.3475 52.9952C20.7161 54.7559 23.5758 55.7322 26.5266 55.7876C21.5196 59.7227 15.3343 61.8589 8.96609 61.8525C7.84107 61.8503 6.71714 61.7822 5.6001 61.6485C12.0664 65.7981 19.5903 67.9992 27.2736 67.989" fill="#1DA1F2"/>
  </symbol>
</svg>